<svg xmlns="http://www.w3.org/2000/svg" viewBox="0 0 140 138" id="el_i2wzFokp8"><style>@-webkit-keyframes kf_el_2O-beovNRbK_an_9NdD4yPOM{0%{-webkit-transform: translate(99.26000213623047px, 69.38999938964844px) rotate(0deg) translate(-99.26000213623047px, -69.38999938964844px);transform: translate(99.26000213623047px, 69.38999938964844px) rotate(0deg) translate(-99.26000213623047px, -69.38999938964844px);}100%{-webkit-transform: translate(99.26000213623047px, 69.38999938964844px) rotate(210deg) translate(-99.26000213623047px, -69.38999938964844px);transform: translate(99.26000213623047px, 69.38999938964844px) rotate(210deg) translate(-99.26000213623047px, -69.38999938964844px);}}@keyframes kf_el_2O-beovNRbK_an_9NdD4yPOM{0%{-webkit-transform: translate(99.26000213623047px, 69.38999938964844px) rotate(0deg) translate(-99.26000213623047px, -69.38999938964844px);transform: translate(99.26000213623047px, 69.38999938964844px) rotate(0deg) translate(-99.26000213623047px, -69.38999938964844px);}100%{-webkit-transform: translate(99.26000213623047px, 69.38999938964844px) rotate(210deg) translate(-99.26000213623047px, -69.38999938964844px);transform: translate(99.26000213623047px, 69.38999938964844px) rotate(210deg) translate(-99.26000213623047px, -69.38999938964844px);}}@-webkit-keyframes kf_el_fsi7j_TQsoF_an_PfCVMKyiz{0%{-webkit-transform: translate(99.26000213623047px, 69.38999938964844px) rotate(0deg) translate(-99.26000213623047px, -69.38999938964844px);transform: translate(99.26000213623047px, 69.38999938964844px) rotate(0deg) translate(-99.26000213623047px, -69.38999938964844px);}100%{-webkit-transform: translate(99.26000213623047px, 69.38999938964844px) rotate(2880deg) translate(-99.26000213623047px, -69.38999938964844px);transform: translate(99.26000213623047px, 69.38999938964844px) rotate(2880deg) translate(-99.26000213623047px, -69.38999938964844px);}}@keyframes kf_el_fsi7j_TQsoF_an_PfCVMKyiz{0%{-webkit-transform: translate(99.26000213623047px, 69.38999938964844px) rotate(0deg) translate(-99.26000213623047px, -69.38999938964844px);transform: translate(99.26000213623047px, 69.38999938964844px) rotate(0deg) translate(-99.26000213623047px, -69.38999938964844px);}100%{-webkit-transform: translate(99.26000213623047px, 69.38999938964844px) rotate(2880deg) translate(-99.26000213623047px, -69.38999938964844px);transform: translate(99.26000213623047px, 69.38999938964844px) rotate(2880deg) translate(-99.26000213623047px, -69.38999938964844px);}}@-webkit-keyframes kf_el_k0bjyHxl7ND_an__QufYcw3w{0%{-webkit-transform: translate(91.05000305175781px, 77.65999984741211px) scale(1, 1) translate(-91.05000305175781px, -77.65999984741211px);transform: translate(91.05000305175781px, 77.65999984741211px) scale(1, 1) translate(-91.05000305175781px, -77.65999984741211px);}100%{-webkit-transform: translate(91.05000305175781px, 77.65999984741211px) scale(1.02, 1.02) translate(-91.05000305175781px, -77.65999984741211px);transform: translate(91.05000305175781px, 77.65999984741211px) scale(1.02, 1.02) translate(-91.05000305175781px, -77.65999984741211px);}}@keyframes kf_el_k0bjyHxl7ND_an__QufYcw3w{0%{-webkit-transform: translate(91.05000305175781px, 77.65999984741211px) scale(1, 1) translate(-91.05000305175781px, -77.65999984741211px);transform: translate(91.05000305175781px, 77.65999984741211px) scale(1, 1) translate(-91.05000305175781px, -77.65999984741211px);}100%{-webkit-transform: translate(91.05000305175781px, 77.65999984741211px) scale(1.02, 1.02) translate(-91.05000305175781px, -77.65999984741211px);transform: translate(91.05000305175781px, 77.65999984741211px) scale(1.02, 1.02) translate(-91.05000305175781px, -77.65999984741211px);}}@-webkit-keyframes kf_el_fbkyzBxNPpT_an_aMDQ6BkLM{0%{-webkit-transform: translate(20.709999084472656px, 137.10000610351562px) scale(1, 1) translate(-20.709999084472656px, -137.10000610351562px);transform: translate(20.709999084472656px, 137.10000610351562px) scale(1, 1) translate(-20.709999084472656px, -137.10000610351562px);}100%{-webkit-transform: translate(20.709999084472656px, 137.10000610351562px) scale(1.04, 1.04) translate(-20.709999084472656px, -137.10000610351562px);transform: translate(20.709999084472656px, 137.10000610351562px) scale(1.04, 1.04) translate(-20.709999084472656px, -137.10000610351562px);}}@keyframes kf_el_fbkyzBxNPpT_an_aMDQ6BkLM{0%{-webkit-transform: translate(20.709999084472656px, 137.10000610351562px) scale(1, 1) translate(-20.709999084472656px, -137.10000610351562px);transform: translate(20.709999084472656px, 137.10000610351562px) scale(1, 1) translate(-20.709999084472656px, -137.10000610351562px);}100%{-webkit-transform: translate(20.709999084472656px, 137.10000610351562px) scale(1.04, 1.04) translate(-20.709999084472656px, -137.10000610351562px);transform: translate(20.709999084472656px, 137.10000610351562px) scale(1.04, 1.04) translate(-20.709999084472656px, -137.10000610351562px);}}@-webkit-keyframes kf_el_njrwY7wqHc9_an_QvgX-wDdi{0%{-webkit-transform: translate(27.67999839782715px, 137.25999450683594px) scale(1, 1) translate(-27.67999839782715px, -137.25999450683594px);transform: translate(27.67999839782715px, 137.25999450683594px) scale(1, 1) translate(-27.67999839782715px, -137.25999450683594px);}100%{-webkit-transform: translate(27.67999839782715px, 137.25999450683594px) scale(1.04, 1.04) translate(-27.67999839782715px, -137.25999450683594px);transform: translate(27.67999839782715px, 137.25999450683594px) scale(1.04, 1.04) translate(-27.67999839782715px, -137.25999450683594px);}}@keyframes kf_el_njrwY7wqHc9_an_QvgX-wDdi{0%{-webkit-transform: translate(27.67999839782715px, 137.25999450683594px) scale(1, 1) translate(-27.67999839782715px, -137.25999450683594px);transform: translate(27.67999839782715px, 137.25999450683594px) scale(1, 1) translate(-27.67999839782715px, -137.25999450683594px);}100%{-webkit-transform: translate(27.67999839782715px, 137.25999450683594px) scale(1.04, 1.04) translate(-27.67999839782715px, -137.25999450683594px);transform: translate(27.67999839782715px, 137.25999450683594px) scale(1.04, 1.04) translate(-27.67999839782715px, -137.25999450683594px);}}#el_i2wzFokp8 *{-webkit-animation-duration: 5s;animation-duration: 5s;-webkit-animation-iteration-count: 1;animation-iteration-count: 1;-webkit-animation-timing-function: cubic-bezier(0, 0, 1, 1);animation-timing-function: cubic-bezier(0, 0, 1, 1);}#el_DS16YLkBi8{fill: #add3df;stroke: #294456;stroke-width: 0.69;}#el_Yh12-A875o{fill: #edf0f1;stroke: #294456;stroke-width: 0.34;}#el_KuO9QW3yhb{fill: #2e2d2e;opacity: 0.25;isolation: isolate;}#el_uDP9oMpObF{fill: #edf0f1;stroke: #294456;stroke-width: 0.34;}#el_w0DY4BINYj{fill: #2e2d2e;opacity: 0.25;isolation: isolate;}#el_0m0cZ97AAP{fill: #edf0f1;stroke: #294456;stroke-width: 0.34;}#el_k14tci_QOL{fill: #2e2d2e;opacity: 0.25;isolation: isolate;}#el_vlZ-1n2UOy{fill: none;stroke: #294456;stroke-width: 1.38;}#el_B7Q26omEE-{fill: none;stroke: #294456;stroke-width: 1.38;}#el_jycS1c438x{fill: none;stroke: #294456;stroke-width: 1.38;}#el_87K0vZSPa_{fill: none;stroke: #294456;stroke-width: 1.38;}#el_EK9KXUpO92{fill: none;stroke: #294456;stroke-width: 1.38;}#el_YnJL3oZiyk{fill: none;stroke: #294456;stroke-width: 1.38;}#el_CqxKMA7-653{fill: none;stroke: #294456;stroke-width: 1.38;}#el_g4C1h4aCDgm{fill: #edf0f1;stroke: #294456;stroke-width: 0.34;}#el_Vci0yxMR027{fill: #415866;}#el_xQy8wh4IBK4{fill: #edf0f1;stroke: #294456;stroke-width: 0.34;}#el_u-x0_qe2DP6{fill: #2e2d2e;opacity: 0.25;isolation: isolate;}#el_SMV6lsHR_Ng{fill: #edf0f1;stroke: #294456;stroke-width: 0.34;}#el_H-FowE1fmtG{fill: #2e2d2e;opacity: 0.25;isolation: isolate;}#el_ADGtFByYYA1{fill: #edf0f1;stroke: #294456;stroke-width: 0.34;}#el_FTgdL8-j4hT{fill: #2e2d2e;opacity: 0.25;isolation: isolate;}#el_njrwY7wqHc9{fill: #2e2d2e;opacity: 0.3;isolation: isolate;}#el_9BSxp4Acj1H{fill: #d8e9ef;stroke: #294456;stroke-width: 0.69;}#el_Zs4Dq_Zxbye{fill: #edf0f1;stroke: #294456;stroke-width: 0.34;}#el_HgcpHPAXYuE{fill: #2e2d2e;opacity: 0.25;isolation: isolate;}#el_y-E_pieVTWf{fill: #edf0f1;stroke: #294456;stroke-width: 0.34;}#el_Zaq_83OBMPN{fill: #2e2d2e;opacity: 0.25;isolation: isolate;}#el_QTB54USwrXU{fill: #edf0f1;stroke: #294456;stroke-width: 0.34;}#el_O40WOUP1Lca{fill: #2e2d2e;opacity: 0.25;isolation: isolate;}#el_QS2Pa7j5rg0{fill: #edf0f1;stroke: #294456;stroke-width: 0.34;}#el_wkZiTn8SB4F{fill: #2e2d2e;opacity: 0.25;isolation: isolate;}#el_6GK_d76XgtL{fill: #edf0f1;stroke: #294456;stroke-width: 0.34;}#el_wCo29AEHZ6o{fill: #2e2d2e;opacity: 0.25;isolation: isolate;}#el_t-sd-tg-Ym3{fill: #edf0f1;stroke: #294456;stroke-width: 0.34;}#el_-XGCIPBu3J0{fill: #2e2d2e;opacity: 0.25;isolation: isolate;}#el_Qzy3JeOudHO{fill: none;stroke: #294456;stroke-width: 1.38;}#el_thZdIT34ju0{fill: none;stroke: #294456;stroke-width: 1.38;}#el_LYkI0SfreIc{fill: none;stroke: #294456;stroke-width: 1.38;}#el_sb5UIkZEd5U{fill: none;stroke: #294456;stroke-width: 1.38;}#el_s5-0IVUO5vg{fill: none;stroke: #294456;stroke-width: 1.38;}#el_bgo66jWW9ud{fill: none;stroke: #294456;stroke-width: 1.38;}#el_Cr0yf1k7xEF{fill: none;stroke: #294456;stroke-width: 1.38;}#el_HJhPe-u8CdS{fill: #edf0f1;stroke: #294456;stroke-width: 0.34;}#el_hYtZTySTmIx{fill: #415866;}#el_ZcR-2sU1EBi{opacity: 0.21;}#el_z-NPEukCSOs{fill: #2e2d2e;}#el_4gIF5FkgO39{fill: #2e2d2e;opacity: 0.21;isolation: isolate;}#el_WMHFNrGn5D-{fill: none;stroke: #294456;stroke-width: 1.5;}#el_5HKyGWgvxue{fill: #92b371;}#el__c83Z92dEki{fill: #fefae7;}#el_VZv7NrOCiIM{fill: #294456;}#el_3rE5B5-2mAy{fill: #fcd9d9;}#el_z4X2KYBrIuL{fill: #fefae7;}#el_cqgWYydaRHB{fill: #294456;}#el_M9zQXuHiVa2{fill: #fcd9d9;}#el_x1ZI4sYo-T3{fill: #fefae7;}#el_u4eg0Ad4UUW{fill: #294456;}#el_vva_RknBugH{fill: #fcd9d9;}#el_Y28NbPBD2Ep{fill: #edf0f1;}#el_qcAUF-BS1am{fill: #294456;}#el_llSQ66qg7vb{fill: #edf0f1;}#el_qBOPxxNjgD1{fill: #294456;}#el_cmvxWPL8ibt{opacity: 0.25;}#el_24xDdCXMyXN{fill: #2e2d2e;}#el_l5cAKlQQ9jw{opacity: 0.25;}#el_G6yaDoIrh9m{fill: #2e2d2e;}#el_LPLFDPMZ4uE{fill: #edf0f1;stroke: #294456;stroke-width: 0.34;}#el_GpLLHc2G2dn{fill: #6ab3dd;}#el_1WWIwFTd3JN{fill: #294456;}#el_hgFiYENxAD3{fill: #6ab3dd;}#el_RmPhlb4T2iM{fill: #294456;}#el_k0bjyHxl7ND{opacity: 0.21;}#el_MuWJkOOmYpp{fill: #2e2d2e;}#el_BYrzNwnb_vj{fill: #edf0f1;}#el_95CSqxxy61s{fill: #294456;}#el_EoGciNTyCpw{fill: #114254;}#el_hv9wPz4fjzG{fill: #114254;}#el_umM8oclmLF_{fill: #114254;}#el_aiTK9goTRWx{fill: #114254;}#el_fsi7j_TQsoF{fill: none;stroke: #114254;stroke-width: 0.25;}#el_2O-beovNRbK{fill: none;stroke: #114254;stroke-width: 0.53;}#el_xjpTYkL_fRa{fill: #114254;}#el_njrwY7wqHc9_an_QvgX-wDdi{-webkit-animation-fill-mode: forwards;animation-fill-mode: forwards;-webkit-animation-name: kf_el_njrwY7wqHc9_an_QvgX-wDdi;animation-name: kf_el_njrwY7wqHc9_an_QvgX-wDdi;-webkit-animation-timing-function: cubic-bezier(0, 0, 1, 1);animation-timing-function: cubic-bezier(0, 0, 1, 1);}#el_fbkyzBxNPpT_an_aMDQ6BkLM{-webkit-animation-fill-mode: forwards;animation-fill-mode: forwards;-webkit-animation-name: kf_el_fbkyzBxNPpT_an_aMDQ6BkLM;animation-name: kf_el_fbkyzBxNPpT_an_aMDQ6BkLM;-webkit-animation-timing-function: cubic-bezier(0, 0, 1, 1);animation-timing-function: cubic-bezier(0, 0, 1, 1);}#el_k0bjyHxl7ND_an__QufYcw3w{-webkit-animation-fill-mode: forwards;animation-fill-mode: forwards;-webkit-animation-name: kf_el_k0bjyHxl7ND_an__QufYcw3w;animation-name: kf_el_k0bjyHxl7ND_an__QufYcw3w;-webkit-animation-timing-function: cubic-bezier(0, 0, 1, 1);animation-timing-function: cubic-bezier(0, 0, 1, 1);}#el_fsi7j_TQsoF_an_PfCVMKyiz{-webkit-animation-fill-mode: forwards;animation-fill-mode: forwards;-webkit-animation-name: kf_el_fsi7j_TQsoF_an_PfCVMKyiz;animation-name: kf_el_fsi7j_TQsoF_an_PfCVMKyiz;-webkit-animation-timing-function: cubic-bezier(0, 0, 1, 1);animation-timing-function: cubic-bezier(0, 0, 1, 1);}#el_2O-beovNRbK_an_9NdD4yPOM{-webkit-animation-fill-mode: forwards;animation-fill-mode: forwards;-webkit-animation-name: kf_el_2O-beovNRbK_an_9NdD4yPOM;animation-name: kf_el_2O-beovNRbK_an_9NdD4yPOM;-webkit-animation-timing-function: cubic-bezier(0, 0, 1, 1);animation-timing-function: cubic-bezier(0, 0, 1, 1);}</style><title>stairs-animated</title><g id="el_gGpCX-Uf2t" data-name="Layer 2"><g id="el_eWZqI8KciC"><polygon points="45.5 72.09 45.5 62.7 61.63 62.7 61.63 53.3 77.74 53.3 77.74 43.91 93.86 43.91 93.86 34.51 109.98 34.51 109.98 25.11 132.55 25.11 132.55 137.86 29.38 137.86 29.38 72.09 45.5 72.09" stroke-miterlimit="10" id="el_DS16YLkBi8"/><path d="M93.87,40.14h-16a.72.72,0,0,0-.72.72v2.33a.72.72,0,0,0,.72.72h16Z" stroke-miterlimit="10" id="el_Yh12-A875o"/><path d="M93.87,43.91h-16a.72.72,0,0,1-.72-.72V41.75a.72.72,0,0,0,.72.72h16Z" id="el_KuO9QW3yhb"/><path d="M110,30.73H94a.72.72,0,0,0-.72.72v2.34a.72.72,0,0,0,.72.72h16Z" stroke-miterlimit="10" id="el_uDP9oMpObF"/><path d="M110,34.5H94a.71.71,0,0,1-.72-.71V32.35a.72.72,0,0,0,.72.72h16Z" id="el_w0DY4BINYj"/><path d="M133.11,24.4a.71.71,0,0,1-.71.71H110a.72.72,0,0,1-.72-.71V22.06a.72.72,0,0,1,.72-.72H132.4a.71.71,0,0,1,.71.72Z" stroke-miterlimit="10" id="el_0m0cZ97AAP"/><path d="M132.4,23.68H110a.73.73,0,0,1-.72-.72v1.43a.72.72,0,0,0,.72.72H132.4a.71.71,0,0,0,.71-.72V23A.72.72,0,0,1,132.4,23.68Z" id="el_k14tci_QOL"/><line x1="132.21" y1="25.11" x2="132.21" y2="137.79" stroke-miterlimit="10" id="el_vlZ-1n2UOy"/><path d="M37.58,68.36c1.57-5.11,3.48-9.93-1.52-9.93-5.55,0-.49-8,.12-13.38" stroke-miterlimit="10" id="el_B7Q26omEE-"/><path d="M117.35,21.67c1.57-5.11,3.48-9.93-1.52-9.93-4.45,0-2.09-5.09-.66-9.91" stroke-miterlimit="10" id="el_jycS1c438x"/><path d="M101.4,30.69c1.56-5.1,3.47-9.92-1.53-9.92-5.33,0-.86-7.36,0-12.75" stroke-miterlimit="10" id="el_87K0vZSPa_"/><path d="M85.45,40.12C87,35,88.92,30.2,83.92,30.2c-5.26,0-1-7.16,0-12.52" stroke-miterlimit="10" id="el_EK9KXUpO92"/><path d="M69.49,49.55c1.57-5.1,3.48-9.92-1.52-9.92-5.57,0-.45-8,.12-13.45" stroke-miterlimit="10" id="el_YnJL3oZiyk"/><path d="M53.54,58.87C55.1,53.76,57,48.94,52,48.94c-5.47,0-.62-7.73.09-13.15" stroke-miterlimit="10" id="el_CqxKMA7-653"/><path d="M24.09,49.53,109.31.43A1.88,1.88,0,0,1,110.4.18h17a2,2,0,0,1,0,4H110.67L26,52.89a2,2,0,0,1-.93.26,1.94,1.94,0,0,1-1-3.62Z" stroke-miterlimit="10" id="el_g4C1h4aCDgm"/><path d="M24,61.34a1.6,1.6,0,0,1-1.41-.84,6.93,6.93,0,0,1,2.74-9.39L109.85,2.39a1.77,1.77,0,0,1,.89-.21h18.09a6.92,6.92,0,0,1,0,13.84,1.61,1.61,0,0,1,0-3.22,3.7,3.7,0,0,0,0-7.4H111.08L26.91,53.92a3.71,3.71,0,0,0-1.49,5,1.61,1.61,0,0,1-.64,2.19A1.64,1.64,0,0,1,24,61.34Z" id="el_Vci0yxMR027"/><path d="M77.74,49.52h-16a.72.72,0,0,0-.71.72v2.34a.72.72,0,0,0,.71.72h16Z" stroke-miterlimit="10" id="el_xQy8wh4IBK4"/><path d="M77.74,53.3h-16a.72.72,0,0,1-.71-.72V51.14a.71.71,0,0,0,.71.72h16Z" id="el_u-x0_qe2DP6"/><path d="M61.62,58.93h-16a.72.72,0,0,0-.72.72V62a.71.71,0,0,0,.72.71h16Z" stroke-miterlimit="10" id="el_SMV6lsHR_Ng"/><path d="M61.62,62.7h-16a.71.71,0,0,1-.72-.71V60.55a.72.72,0,0,0,.72.72h16Z" id="el_H-FowE1fmtG"/><path d="M45.56,68.35h-16a.72.72,0,0,0-.72.72V71.4a.72.72,0,0,0,.72.72h16Z" stroke-miterlimit="10" id="el_ADGtFByYYA1"/><path d="M45.56,72.12h-16a.72.72,0,0,1-.72-.72V70a.71.71,0,0,0,.72.71h16Z" id="el_FTgdL8-j4hT"/><g id="el_njrwY7wqHc9_an_QvgX-wDdi" data-animator-group="true" data-animator-type="2"><path id="el_njrwY7wqHc9" d="M123.47,128.86H108.73v-5.24a.64.64,0,0,0,.42-.6v-2.16a.67.67,0,0,0-.67-.66H93.84V115a.68.68,0,0,0,.52-.65v-2.16a.67.67,0,0,0-.67-.66H79v-5.24h-.14a.66.66,0,0,0,.67-.66v-2.16a.67.67,0,0,0-.67-.66H64.07V97.66a.66.66,0,0,0,.42-.61V94.89a.67.67,0,0,0-.67-.66H49.18V89h-.1a.65.65,0,0,0,.63-.66V86.14a.66.66,0,0,0-.66-.67H28.34a.67.67,0,0,0-.66.67v2.15a.67.67,0,0,0,.66.67v48.3h95.27v-4.92h-.1a.67.67,0,0,0,.62-.66v-2.16A.67.67,0,0,0,123.47,128.86Z"/></g><polygon points="93.93 128.45 93.93 119.05 77.81 119.05 77.81 109.65 61.69 109.65 61.69 100.26 45.57 100.26 45.57 90.86 29.45 90.86 29.45 81.47 6.88 81.47 6.88 137.84 110.05 137.84 110.05 128.45 93.93 128.45" stroke-miterlimit="10" id="el_9BSxp4Acj1H"/><path d="M94,124.62h16a.72.72,0,0,1,.72.72v2.34a.71.71,0,0,1-.72.71H94Z" stroke-miterlimit="10" id="el_Zs4Dq_Zxbye"/><path d="M94,128.39h16a.71.71,0,0,0,.72-.71v-1.44a.72.72,0,0,1-.72.72H94Z" id="el_HgcpHPAXYuE"/><path d="M77.74,115.24h16a.72.72,0,0,1,.71.72v2.34a.72.72,0,0,1-.71.72h-16Z" stroke-miterlimit="10" id="el_y-E_pieVTWf"/><path d="M77.74,119h16a.71.71,0,0,0,.71-.71v-1.44a.71.71,0,0,1-.71.72h-16Z" id="el_Zaq_83OBMPN"/><path d="M61.73,105.88h16a.72.72,0,0,1,.72.72v2.33a.72.72,0,0,1-.72.72h-16Z" stroke-miterlimit="10" id="el_QTB54USwrXU"/><path d="M61.73,109.65h16a.72.72,0,0,0,.72-.72v-1.44a.72.72,0,0,1-.72.72h-16Z" id="el_O40WOUP1Lca"/><path d="M45.62,96.42h16a.73.73,0,0,1,.72.72v2.34a.73.73,0,0,1-.72.72h-16Z" stroke-miterlimit="10" id="el_QS2Pa7j5rg0"/><path d="M45.62,100.2h16a.73.73,0,0,0,.72-.72V98a.72.72,0,0,1-.72.72h-16Z" id="el_wkZiTn8SB4F"/><path d="M29.38,87.12h16a.71.71,0,0,1,.71.72v2.33a.71.71,0,0,1-.71.72h-16Z" stroke-miterlimit="10" id="el_6GK_d76XgtL"/><path d="M29.38,90.89h16a.71.71,0,0,0,.71-.72V88.74a.72.72,0,0,1-.71.72h-16Z" id="el_wCo29AEHZ6o"/><path d="M30.06,80.69a.71.71,0,0,1-.71.72H6.92a.71.71,0,0,1-.71-.72V78.36a.71.71,0,0,1,.71-.72H29.35a.71.71,0,0,1,.71.72Z" stroke-miterlimit="10" id="el_t-sd-tg-Ym3"/><path d="M29.35,80H6.92a.72.72,0,0,1-.71-.72v1.43a.71.71,0,0,0,.71.72H29.35a.71.71,0,0,0,.71-.72V79.26A.71.71,0,0,1,29.35,80Z" id="el_-XGCIPBu3J0"/><polyline points="6.92 81.41 6.92 137.79 110.09 137.79" stroke-miterlimit="10" id="el_Qzy3JeOudHO"/><path d="M100.76,124.52c-1.56-5.1-3.47-9.92,1.53-9.92,5.54,0,.49-7.95-.12-13.38" stroke-miterlimit="10" id="el_thZdIT34ju0"/><path d="M21,77.83c-1.57-5.1-3.48-9.92,1.52-9.92,4.44,0,2.09-5.1.66-9.91" stroke-miterlimit="10" id="el_LYkI0SfreIc"/><path d="M37,86.86c-1.56-5.11-3.48-9.93,1.53-9.93,5.33,0,.86-7.35,0-12.74" stroke-miterlimit="10" id="el_sb5UIkZEd5U"/><path d="M52.9,96.29c-1.56-5.11-3.47-9.93,1.53-9.93,5.26,0,1-7.15,0-12.52" stroke-miterlimit="10" id="el_s5-0IVUO5vg"/><path d="M68.85,105.72c-1.56-5.11-3.47-9.93,1.53-9.93,5.57,0,.45-8-.12-13.45" stroke-miterlimit="10" id="el_bgo66jWW9ud"/><path d="M84.81,115c-1.56-5.1-3.48-9.92,1.53-9.92,5.47,0,.62-7.74-.09-13.16" stroke-miterlimit="10" id="el_Cr0yf1k7xEF"/><path d="M116.68,105.63,31.45,56.53a1.93,1.93,0,0,0-1.09-.25h-17a2,2,0,0,0,0,3.95H30.1L114.75,109a2,2,0,0,0,.94.25,1.92,1.92,0,0,0,1.7-1A2,2,0,0,0,116.68,105.63Z" stroke-miterlimit="10" id="el_HJhPe-u8CdS"/><path d="M112.1,120.2a6.84,6.84,0,0,1-3.31-.86,1.61,1.61,0,0,1,1.55-2.82,3.6,3.6,0,0,0,2.8.31,3.69,3.69,0,0,0,.74-6.79L29.69,61.51H11.94a3.7,3.7,0,0,0,0,7.4,1.61,1.61,0,1,1,0,3.22h0A6.91,6.91,0,0,1,5,65.2a6.92,6.92,0,0,1,6.9-6.92H30a1.59,1.59,0,0,1,.87.22l84.55,48.73A6.93,6.93,0,0,1,114,119.92,6.79,6.79,0,0,1,112.1,120.2Z" id="el_hYtZTySTmIx"/><g id="el_fbkyzBxNPpT_an_aMDQ6BkLM" data-animator-group="true" data-animator-type="2"><g id="el_fbkyzBxNPpT"><g id="el_ZcR-2sU1EBi"><polygon points="45.89 131.43 41.5 128.1 20.71 128.1 20.71 129.28 21.81 129.28 21.81 131.91 20.71 131.91 20.71 137.1 45.89 137.1 45.89 131.43" id="el_z-NPEukCSOs"/></g><path d="M39.08,117.22h-.27a5.39,5.39,0,0,0,.11-1.07,5.72,5.72,0,0,0-.63-2.62l0,0a.93.93,0,0,0,.71-.91.92.92,0,0,0-.71-.91.93.93,0,0,0-1.77-.12,4.89,4.89,0,0,0-5.26-.16,1,1,0,0,0-.94-.64,1,1,0,0,0-1,.82,1,1,0,0,0-.08,2,5.75,5.75,0,0,0-.61,2.59,5.49,5.49,0,0,0,.1,1.08h-.27a1,1,0,0,0-1,1v.93a1,1,0,0,0,.5.85l.56,4.64c.47,3.33,2.44,3.58,3,3.58H36c.6,0,2.56-.25,3-3.57l.56-4.65a1,1,0,0,0,.5-.85v-.93A1,1,0,0,0,39.08,117.22Z" id="el_4gIF5FkgO39"/></g></g><line x1="139.9" y1="137.79" x2="0.75" y2="137.79" stroke-linecap="round" stroke-linejoin="round" id="el_WMHFNrGn5D-"/><path d="M36,116.45a6.35,6.35,0,0,0,.4-2.19,5.78,5.78,0,0,0-5.6-6,5.78,5.78,0,0,0-5.6,6,6.35,6.35,0,0,0,.39,2.19Z" id="el_5HKyGWgvxue"/><path d="M34.78,112a.85.85,0,0,1-.84-.77.84.84,0,0,1,0-1.68.83.83,0,0,1,1.66,0,.85.85,0,0,1,0,1.68A.85.85,0,0,1,34.78,112Z" id="el__c83Z92dEki"/><path d="M34.78,108.92a.67.67,0,0,1,.66.68v.08h.09a.68.68,0,0,1,0,1.35h-.09v.09a.66.66,0,0,1-.66.67.67.67,0,0,1-.67-.67V111H34a.68.68,0,0,1,0-1.35h.08v-.08a.68.68,0,0,1,.67-.68m0-.34a1,1,0,0,0-1,.79,1,1,0,0,0,0,2,1,1,0,0,0,1,.78,1,1,0,0,0,1-.78,1,1,0,0,0,0-2,1,1,0,0,0-1-.79Z" id="el_VZv7NrOCiIM"/><path d="M35.1,110.06h0v0a.31.31,0,0,0-.29-.3.3.3,0,0,0-.29.3v0h0a.3.3,0,0,0,0,.59h0v0a.29.29,0,1,0,.58,0v0h0a.3.3,0,0,0,0-.59Z" id="el_3rE5B5-2mAy"/><path d="M30.43,115.05A1.12,1.12,0,0,1,29.32,114a1.12,1.12,0,0,1,0-2.24,1.12,1.12,0,0,1,2.23,0,1.12,1.12,0,0,1,0,2.24A1.12,1.12,0,0,1,30.43,115.05Z" id="el_z4X2KYBrIuL"/><path d="M30.43,110.84a1,1,0,0,1,.95,1v.12h.11a1,1,0,0,1,0,1.9h-.11v.11a.95.95,0,1,1-1.89,0v-.11h-.11a1,1,0,0,1,0-1.9h.11v-.12a1,1,0,0,1,.94-1m0-.35a1.3,1.3,0,0,0-1.27,1.09,1.3,1.3,0,0,0,0,2.56,1.28,1.28,0,0,0,2.54,0,1.3,1.3,0,0,0,0-2.56,1.29,1.29,0,0,0-1.27-1.09Z" id="el_cqgWYydaRHB"/><path d="M30.89,112.45h-.05v0a.41.41,0,0,0-.41-.42.42.42,0,0,0-.41.42v0h0a.41.41,0,0,0-.41.41.41.41,0,0,0,.41.42h0v0a.42.42,0,0,0,.41.42.41.41,0,0,0,.41-.42v0h.05a.41.41,0,0,0,.41-.42A.41.41,0,0,0,30.89,112.45Z" id="el_M9zQXuHiVa2"/><path d="M27.08,112.18a.94.94,0,0,1-.94-.88.95.95,0,0,1,0-1.89.94.94,0,0,1,1.87,0,.95.95,0,0,1,0,1.89A1,1,0,0,1,27.08,112.18Z" id="el_x1ZI4sYo-T3"/><path d="M27.08,108.71a.77.77,0,0,1,.77.77v.1h.09a.78.78,0,0,1,0,1.56h-.09v.09a.77.77,0,1,1-1.54,0v-.09h-.1a.78.78,0,0,1,0-1.56h.1v-.1a.76.76,0,0,1,.77-.77m0-.35a1.13,1.13,0,0,0-1.1.9,1.13,1.13,0,0,0,0,2.2,1.11,1.11,0,0,0,1.09.89,1.12,1.12,0,0,0,1.09-.89,1.12,1.12,0,0,0,0-2.2,1.13,1.13,0,0,0-1.09-.9Z" id="el_u4eg0Ad4UUW"/><path d="M27.45,110h0v0a.34.34,0,1,0-.67,0v0h0a.34.34,0,0,0-.33.34.34.34,0,0,0,.33.34h0v0a.34.34,0,0,0,.67,0v0h0a.34.34,0,0,0,.33-.34A.34.34,0,0,0,27.45,110Z" id="el_vva_RknBugH"/><path d="M28.44,127.07c-.58,0-2.49-.26-3-3.6l-.72-5.91H36.89l-.71,5.9c-.48,3.35-2.39,3.61-3,3.61Z" id="el_Y28NbPBD2Ep"/><path d="M36.5,117.91l-.67,5.51c-.45,3.2-2.24,3.31-2.61,3.31H28.44c-.38,0-2.17-.11-2.62-3.31l-.67-5.51H36.5m.78-.69H24.37l.1.77.67,5.52c.51,3.62,2.65,3.9,3.3,3.9h4.78c.64,0,2.78-.28,3.3-3.89l.67-5.53.09-.77Z" id="el_qcAUF-BS1am"/><path d="M25.05,118.25a.72.72,0,0,1-.72-.73v-1a.72.72,0,0,1,.72-.72H36.6a.73.73,0,0,1,.73.72v1a.73.73,0,0,1-.73.73Z" id="el_llSQ66qg7vb"/><path d="M36.6,116.12a.38.38,0,0,1,.38.39v1a.38.38,0,0,1-.38.38H25.05a.38.38,0,0,1-.38-.38v-1a.38.38,0,0,1,.38-.39H36.6m0-.69H25.05A1.07,1.07,0,0,0,24,116.51v1a1.07,1.07,0,0,0,1.07,1.07H36.6a1.07,1.07,0,0,0,1.07-1.07v-1a1.07,1.07,0,0,0-1.07-1.08Z" id="el_qBOPxxNjgD1"/><g id="el_cmvxWPL8ibt"><path d="M34.4,118.61,34,122.15c-.45,3.2-2.24,3.3-2.62,3.3H26.46a2.27,2.27,0,0,0,2,1.27h4.78c.37,0,2.16-.1,2.61-3.3l.59-4.81Z" id="el_24xDdCXMyXN"/></g><g id="el_l5cAKlQQ9jw"><path d="M36.6,116.12h-1v.51a.39.39,0,0,1-.38.39H24.67v.51a.38.38,0,0,0,.38.38H36.6a.38.38,0,0,0,.38-.38v-1A.38.38,0,0,0,36.6,116.12Z" id="el_G6yaDoIrh9m"/></g><rect x="19.82" y="127.79" width="22.16" height="5" stroke-miterlimit="10" id="el_LPLFDPMZ4uE"/><rect x="18.45" y="127.47" width="24.76" height="1.28" id="el_GpLLHc2G2dn"/><path d="M43,127.64v.94H18.62v-.94H43m.35-.35H18.28v1.63h25.1v-1.63Z" id="el_1WWIwFTd3JN"/><rect x="18.28" y="131.1" width="25.1" height="6.27" id="el_hgFiYENxAD3"/><path d="M43,131.44V137H18.62v-5.58H43m.69-.69H17.93v7H43.72v-7Z" id="el_RmPhlb4T2iM"/><g id="el_k0bjyHxl7ND_an__QufYcw3w" data-animator-group="true" data-animator-type="2"><g id="el_k0bjyHxl7ND"><ellipse cx="99.86" cy="69.39" rx="8.81" ry="8.27" id="el_MuWJkOOmYpp"/></g></g><path d="M99.26,77.35a8,8,0,1,1,7.94-8A8,8,0,0,1,99.26,77.35Z" id="el_BYrzNwnb_vj"/><path d="M99.26,61.78a7.61,7.61,0,1,1-7.6,7.61,7.6,7.6,0,0,1,7.6-7.61m0-.69a8.3,8.3,0,1,0,8.28,8.3,8.3,8.3,0,0,0-8.28-8.3Z" id="el_95CSqxxy61s"/><rect x="104.58" y="69.11" width="1.51" height="0.56" id="el_EoGciNTyCpw"/><rect x="98.98" y="74.72" width="0.56" height="1.51" id="el_hv9wPz4fjzG"/><rect x="92.42" y="69.11" width="1.51" height="0.56" id="el_umM8oclmLF_"/><rect x="98.98" y="62.54" width="0.56" height="1.51" id="el_aiTK9goTRWx"/><g id="el_fsi7j_TQsoF_an_PfCVMKyiz" data-animator-group="true" data-animator-type="1"><line id="el_fsi7j_TQsoF" x1="99.26" y1="69.39" x2="99.26" y2="62.55" stroke-miterlimit="10"/></g><g id="el_2O-beovNRbK_an_9NdD4yPOM" data-animator-group="true" data-animator-type="1"><line id="el_2O-beovNRbK" x1="99.26" y1="69.39" x2="99.26" y2="64.53" stroke-miterlimit="10"/></g><circle cx="99.26" cy="69.39" r="0.68" id="el_xjpTYkL_fRa"/></g></g></svg>