<svg xmlns="http://www.w3.org/2000/svg" viewBox="0 0 1740.68 1076">
  <title>insightBase</title>
  <g id="Layer_2" data-name="Layer 2">
    <g id="parallax__svgAnimation">
      <g>
        <polygon points="584.06 202.44 570.67 202.44 869.42 980.82 584.06 202.44" fill="#f1f2f2"/>
        <polygon points="1158.51 199.93 873.18 978.31 1171.96 199.93 1158.51 199.93" fill="#f1f2f2"/>
        <polygon points="870.34 1038.54 847.59 1010.4 837.1 1010.4 870.34 1051.52 903.58 1010.4 893.09 1010.4 870.34 1038.54" fill="#f1f2f2"/>
        <g>
          <polygon points="648.94 494.57 622.06 423.16 98.8 423.16 607.82 449.44 648.94 494.57" fill="#0c86bc"/>
          <polygon points="617.64 412.22 98.8 412.22 98.8 325.68 584.89 325.68 617.64 412.22" fill="#f1f2f2"/>
          <circle cx="598.68" cy="368.95" r="21.53" transform="translate(-85.54 531.39) rotate(-45)" fill="#f1f2f2"/>
          <path d="M598.68,393A24.09,24.09,0,1,1,622.77,369,24.12,24.12,0,0,1,598.68,393Zm0-43.06a19,19,0,1,0,19,19A19,19,0,0,0,598.68,350Z" fill="#fff"/>
          <path d="M607.5,367.34h-7.21v-7.2a1.46,1.46,0,0,0-1.47-1.47h-.28a1.47,1.47,0,0,0-1.47,1.47v7.2h-7.2a1.47,1.47,0,0,0-1.47,1.47v.28a1.47,1.47,0,0,0,1.47,1.47h7.2v7.2a1.47,1.47,0,0,0,1.47,1.47h.28a1.47,1.47,0,0,0,1.47-1.47v-7.2h7.21a1.47,1.47,0,0,0,1.47-1.47v-.28A1.47,1.47,0,0,0,607.5,367.34Z" fill="#0c86bc"/>
          <path id="Create_relevant_content_based_on_Intent_Signal_activity_copy" data-name="Create relevant content based on Intent Signal activity copy" d="M138.51,354.17a4.3,4.3,0,0,1-1.07,3.12,4.09,4.09,0,0,1-3.12,1.1,3.92,3.92,0,0,1-3.3-1.61,6.49,6.49,0,0,1-1.22-4.06v-3.81a6.52,6.52,0,0,1,1.19-4,3.8,3.8,0,0,1,3.23-1.61,3.86,3.86,0,0,1,4.29,4.24h3.21l0-.08a6.27,6.27,0,0,0-2-5,8,8,0,0,0-5.55-1.85,7.22,7.22,0,0,0-5.59,2.36,8.46,8.46,0,0,0-2.15,6v3.78a8.39,8.39,0,0,0,2.17,6,7.37,7.37,0,0,0,5.65,2.34,7.61,7.61,0,0,0,5.45-1.89,6.2,6.2,0,0,0,2-4.9l0-.09Zm15.2-8.27-.48-.12a3.46,3.46,0,0,0-2.59.59,4.89,4.89,0,0,0-1.44,1.78L149,346h-3v14.77h3.32V350.51a2.62,2.62,0,0,1,1-1.16,3,3,0,0,1,1.62-.41l1.42.05Zm12.85,14.65a6.7,6.7,0,0,0,2.21-1.24l-1.07-2.18a7.26,7.26,0,0,1-1.84.94,6.83,6.83,0,0,1-2.29.33,3.27,3.27,0,0,1-2.63-1.12,4.6,4.6,0,0,1-1-2.87l0-.07h9.21v-1.95a7.09,7.09,0,0,0-1.59-4.86,5.8,5.8,0,0,0-4.58-1.81,5.86,5.86,0,0,0-4.63,2.11,7.85,7.85,0,0,0-1.85,5.35v.54a7.56,7.56,0,0,0,1.86,5.28,6.42,6.42,0,0,0,5,2.05,9.38,9.38,0,0,0,3.19-.5Zm-1.42-11.27a3.52,3.52,0,0,1,.72,2.29v.34H160l0-.07a4.72,4.72,0,0,1,1-2.48,2.47,2.47,0,0,1,2-1,2.61,2.61,0,0,1,2.16.89Zm20.33,11.49a9.42,9.42,0,0,1-.39-1.65,11.36,11.36,0,0,1-.13-1.75V350.8a4.6,4.6,0,0,0-1.58-3.77,6.31,6.31,0,0,0-4.16-1.31,6.63,6.63,0,0,0-4.32,1.35,3.68,3.68,0,0,0-1.57,3.1l0,.08h3.19a1.69,1.69,0,0,1,.66-1.4,2.8,2.8,0,0,1,1.81-.55A2.68,2.68,0,0,1,181,349a2.36,2.36,0,0,1,.69,1.81v1.3h-2.59a8.15,8.15,0,0,0-4.76,1.2,3.84,3.84,0,0,0-1.69,3.33,4.28,4.28,0,0,0,1.23,3.26,4.89,4.89,0,0,0,3.55,1.19,4.58,4.58,0,0,0,2.49-.7,5.82,5.82,0,0,0,1.79-1.74,7.67,7.67,0,0,0,.16,1.07,9.83,9.83,0,0,0,.29,1.09Zm-9-2.88a1.7,1.7,0,0,1-.56-1.34,2.21,2.21,0,0,1,.82-1.69,3.32,3.32,0,0,1,2.27-.71h2.63v2.18a3.13,3.13,0,0,1-1.33,1.43,4.11,4.11,0,0,1-2.26.63,2.23,2.23,0,0,1-1.57-.5Zm14.17-15.48V346H188.4v2.45h2.24v8.17a4.7,4.7,0,0,0,1,3.36,3.78,3.78,0,0,0,2.87,1.07,4.93,4.93,0,0,0,1.21-.13,3.47,3.47,0,0,0,1-.36l-.35-2.43a3,3,0,0,1-.49.13,2.47,2.47,0,0,1-.54.05,1.44,1.44,0,0,1-1-.39,1.74,1.74,0,0,1-.39-1.3v-8.17h2.65V346H194v-3.59Zm19.83,18.14a6.91,6.91,0,0,0,2.21-1.25l-1.06-2.18a7.17,7.17,0,0,1-1.85.94,6.83,6.83,0,0,1-2.29.33,3.27,3.27,0,0,1-2.63-1.12,4.66,4.66,0,0,1-1-2.87l0-.06h9.22v-2a7.06,7.06,0,0,0-1.6-4.85,5.75,5.75,0,0,0-4.57-1.81,5.84,5.84,0,0,0-4.64,2.11,7.81,7.81,0,0,0-1.85,5.34v.55a7.52,7.52,0,0,0,1.87,5.28,6.38,6.38,0,0,0,5,2.05,9.3,9.3,0,0,0,3.19-.5Zm-1.41-11.28a3.52,3.52,0,0,1,.71,2.3v.34h-5.85l0-.07a4.79,4.79,0,0,1,1-2.48,2.5,2.5,0,0,1,2-1,2.62,2.62,0,0,1,2.17.89Zm24.19-3.37a3.59,3.59,0,0,0-.47-.12,3.64,3.64,0,0,0-.56,0,3.42,3.42,0,0,0-2,.64,4.79,4.79,0,0,0-1.44,1.78l-.22-2.15h-3v14.77h3.32V350.51a2.62,2.62,0,0,1,1-1.16,3,3,0,0,1,1.62-.41l1.42.05Zm12.85,14.65a6.85,6.85,0,0,0,2.22-1.24l-1.06-2.19a7.17,7.17,0,0,1-1.85.94,6.83,6.83,0,0,1-2.29.33,3.27,3.27,0,0,1-2.63-1.12,4.6,4.6,0,0,1-1-2.87l0-.06h9.21v-2a7.05,7.05,0,0,0-1.59-4.85,5.77,5.77,0,0,0-4.58-1.81,5.83,5.83,0,0,0-4.63,2.11,7.81,7.81,0,0,0-1.85,5.34v.55a7.56,7.56,0,0,0,1.86,5.28,6.42,6.42,0,0,0,5,2.05,9.29,9.29,0,0,0,3.18-.5Zm-1.41-11.27a3.57,3.57,0,0,1,.72,2.29v.34h-5.86l0-.07a4.79,4.79,0,0,1,1-2.48,2.5,2.5,0,0,1,2-1,2.62,2.62,0,0,1,2.17.89Zm11.62-9.8H253v21.29h3.31v-21.3ZM271,360.55a6.9,6.9,0,0,0,2.21-1.24l-1.07-2.18a7.61,7.61,0,0,1-1.84.94,6.87,6.87,0,0,1-2.29.33,3.25,3.25,0,0,1-2.63-1.12,4.6,4.6,0,0,1-1-2.87l0-.07h9.2v-1.95a7,7,0,0,0-1.59-4.86,5.8,5.8,0,0,0-4.58-1.81,5.86,5.86,0,0,0-4.63,2.11,7.85,7.85,0,0,0-1.85,5.35v.54a7.56,7.56,0,0,0,1.86,5.28,6.42,6.42,0,0,0,5,2.05,9.4,9.4,0,0,0,3.2-.5Zm-1.42-11.27a3.52,3.52,0,0,1,.72,2.29v.34h-5.86l0-.07a4.89,4.89,0,0,1,1-2.48,2.5,2.5,0,0,1,2-1,2.62,2.62,0,0,1,2.17.89Zm10-3.28h-3.43l5.27,14.77h2.88L289.5,346h-3.42l-2.94,9.78-.26,1.2h-.08l-.25-1.2ZM305,360.77a9.11,9.11,0,0,1-.39-1.64,10.3,10.3,0,0,1-.12-1.75v-6.57a4.62,4.62,0,0,0-1.59-3.77,6.31,6.31,0,0,0-4.16-1.31,6.63,6.63,0,0,0-4.32,1.35,3.67,3.67,0,0,0-1.57,3.1l0,.08h3.19a1.76,1.76,0,0,1,.67-1.41,2.78,2.78,0,0,1,1.8-.54,2.69,2.69,0,0,1,2,.65,2.39,2.39,0,0,1,.68,1.82v1.3H298.6a8.22,8.22,0,0,0-4.76,1.19,3.87,3.87,0,0,0-1.69,3.34,4.3,4.3,0,0,0,1.23,3.26,4.89,4.89,0,0,0,3.55,1.19,4.58,4.58,0,0,0,2.49-.7,5.83,5.83,0,0,0,1.79-1.74,7.76,7.76,0,0,0,.16,1.06c.08.36.17.72.29,1.09H305Zm-9-2.87a1.74,1.74,0,0,1-.55-1.34,2.15,2.15,0,0,1,.82-1.69,3.37,3.37,0,0,1,2.26-.72h2.64v2.19a3.17,3.17,0,0,1-1.33,1.43,4.19,4.19,0,0,1-2.26.63,2.26,2.26,0,0,1-1.58-.51ZM309.35,346v14.77h3.31V350.05a3.65,3.65,0,0,1,1.26-1.18,3.5,3.5,0,0,1,1.73-.43,2.82,2.82,0,0,1,2.1.7,3.31,3.31,0,0,1,.69,2.37v9.26h3.32v-9.28a6.26,6.26,0,0,0-1.29-4.36,4.62,4.62,0,0,0-3.6-1.4,4.8,4.8,0,0,0-2.48.63,5.29,5.29,0,0,0-1.81,1.77l-.19-2.13Zm18.08-3.59V346h-2.26v2.46h2.26v8.16a4.66,4.66,0,0,0,1,3.37,3.83,3.83,0,0,0,2.87,1.07,5.47,5.47,0,0,0,1.21-.13,3.47,3.47,0,0,0,1-.36l-.35-2.43a3,3,0,0,1-.49.13,3.29,3.29,0,0,1-.54.05,1.44,1.44,0,0,1-1.05-.39,1.78,1.78,0,0,1-.39-1.31v-8.16h2.65V346h-2.65v-3.59Zm22.11,14.65a6.73,6.73,0,0,1-.78-3.43v-.48a6.72,6.72,0,0,1,.78-3.4,2.8,2.8,0,0,1,2.65-1.36,2.73,2.73,0,0,1,2.08.85,2.88,2.88,0,0,1,.8,2.06h3l0-.08a5,5,0,0,0-1.61-3.94,6.9,6.9,0,0,0-9.32.56,8,8,0,0,0-1.74,5.31v.48a8,8,0,0,0,1.74,5.32,6.12,6.12,0,0,0,5,2.1,6.29,6.29,0,0,0,4.23-1.5A4.37,4.37,0,0,0,358.1,356l0-.08h-3a2.26,2.26,0,0,1-.83,1.79,3.05,3.05,0,0,1-2.05.71,2.78,2.78,0,0,1-2.65-1.34Zm12-3.52a8.07,8.07,0,0,0,1.8,5.42,7,7,0,0,0,9.82.14l.12-.13a8,8,0,0,0,1.82-5.43v-.28a8,8,0,0,0-1.82-5.4,6.89,6.89,0,0,0-9.75-.2l-.19.2a8,8,0,0,0-1.8,5.4Zm3.32-.29a6.51,6.51,0,0,1,.84-3.48,3.16,3.16,0,0,1,4.39-.83,3,3,0,0,1,.83.83,6.33,6.33,0,0,1,.87,3.48v.28a6.44,6.44,0,0,1-.87,3.51,3.19,3.19,0,0,1-4.45.77,3.13,3.13,0,0,1-.77-.77,6.54,6.54,0,0,1-.84-3.51Zm14.5-7.25v14.77h3.32V350.05a3.45,3.45,0,0,1,3-1.61,2.81,2.81,0,0,1,2.09.7,3.27,3.27,0,0,1,.69,2.37v9.26h3.32v-9.28a6.26,6.26,0,0,0-1.29-4.36,4.62,4.62,0,0,0-3.6-1.4,4.76,4.76,0,0,0-2.47.63,5.32,5.32,0,0,0-1.82,1.77L382.4,346h-3Zm18.08-3.59V346h-2.25v2.46h2.25v8.16a4.66,4.66,0,0,0,1,3.37,3.8,3.8,0,0,0,2.86,1.07,5.56,5.56,0,0,0,1.22-.13,3.69,3.69,0,0,0,1-.36l-.36-2.43a2.72,2.72,0,0,1-.49.13,3.17,3.17,0,0,1-.53.05,1.41,1.41,0,0,1-1.05-.39,1.83,1.83,0,0,1-.4-1.31v-8.16h2.65V346h-2.65v-3.59Zm19.82,18.14a6.7,6.7,0,0,0,2.21-1.24l-1.06-2.18a7.61,7.61,0,0,1-1.84.94,6.89,6.89,0,0,1-2.3.33,3.23,3.23,0,0,1-2.62-1.12,4.6,4.6,0,0,1-1-2.87l0-.07h9.22v-1.95a7.14,7.14,0,0,0-1.59-4.86,5.8,5.8,0,0,0-4.58-1.81,5.88,5.88,0,0,0-4.64,2.11,7.85,7.85,0,0,0-1.85,5.35v.54a7.57,7.57,0,0,0,1.87,5.28,6.38,6.38,0,0,0,5,2.05,9.3,9.3,0,0,0,3.19-.5Zm-1.41-11.27a3.57,3.57,0,0,1,.72,2.29v.34h-5.86l0-.07a4.89,4.89,0,0,1,1-2.48,2.5,2.5,0,0,1,2-1,2.62,2.62,0,0,1,2.17.89Zm8-3.28v14.77h3.32V350.05a3.65,3.65,0,0,1,1.26-1.18,3.5,3.5,0,0,1,1.73-.43,2.83,2.83,0,0,1,2.1.7,3.36,3.36,0,0,1,.69,2.37v9.26h3.31v-9.28a6.31,6.31,0,0,0-1.28-4.36,4.65,4.65,0,0,0-3.6-1.4,4.77,4.77,0,0,0-2.48.63,5.41,5.41,0,0,0-1.82,1.77l-.19-2.13h-3ZM442,342.41V346h-2.25v2.46H442v8.16a4.71,4.71,0,0,0,1,3.37,3.83,3.83,0,0,0,2.87,1.07,5.47,5.47,0,0,0,1.21-.13,3.47,3.47,0,0,0,1-.36l-.35-2.43a3,3,0,0,1-.49.13,3.29,3.29,0,0,1-.54.05,1.44,1.44,0,0,1-1.05-.39,1.78,1.78,0,0,1-.39-1.31v-8.16h2.65V346h-2.65v-3.59Zm31.63,11.19a9.83,9.83,0,0,0-1.51-5.71,4.94,4.94,0,0,0-4.28-2.16,4.52,4.52,0,0,0-3.86,2v-8.2h-3.32v21.28h2.78l.33-1.91a4.77,4.77,0,0,0,1.7,1.64,5.55,5.55,0,0,0,6.65-1.42,8.34,8.34,0,0,0,1.51-5.21v-.28Zm-3.32.28a6,6,0,0,1-.78,3.27,2.75,2.75,0,0,1-2.5,1.2,3.37,3.37,0,0,1-1.88-.48A3.24,3.24,0,0,1,464,356.5v-6.2a3.4,3.4,0,0,1,1.18-1.37,3.34,3.34,0,0,1,1.85-.49,2.68,2.68,0,0,1,2.51,1.42,7.54,7.54,0,0,1,.79,3.73v.28Zm19.83,6.89a8.53,8.53,0,0,1-.4-1.64,13,13,0,0,1-.12-1.76V350.8A4.65,4.65,0,0,0,488,347a6.34,6.34,0,0,0-4.16-1.31,6.61,6.61,0,0,0-4.32,1.36,3.62,3.62,0,0,0-1.56,3.09v.09h3.19a1.76,1.76,0,0,1,.67-1.41,2.8,2.8,0,0,1,1.81-.55,2.68,2.68,0,0,1,2,.66,2.41,2.41,0,0,1,.69,1.82v1.29h-2.58a8.16,8.16,0,0,0-4.77,1.2,3.86,3.86,0,0,0-1.69,3.34,4.31,4.31,0,0,0,1.23,3.26,5,5,0,0,0,3.55,1.19,4.66,4.66,0,0,0,2.49-.7,5.94,5.94,0,0,0,1.79-1.74,7.76,7.76,0,0,0,.16,1.06c.08.36.18.72.29,1.09Zm-9-2.87a1.77,1.77,0,0,1-.56-1.35,2.2,2.2,0,0,1,.82-1.68,3.32,3.32,0,0,1,2.27-.72h2.64v2.18a3.2,3.2,0,0,1-1.33,1.44,4.19,4.19,0,0,1-2.26.63,2.31,2.31,0,0,1-1.58-.51Zm21,.18a3.35,3.35,0,0,1-2,.49A3.74,3.74,0,0,1,498,358a2.23,2.23,0,0,1-.93-1.87H494l0,.08a4.15,4.15,0,0,0,1.58,3.38,6.64,6.64,0,0,0,4.55,1.48,7,7,0,0,0,4.33-1.25,3.85,3.85,0,0,0,1.65-3.23,3.43,3.43,0,0,0-1.35-2.85,10.13,10.13,0,0,0-4.12-1.61,6.45,6.45,0,0,1-2.41-.82,1.49,1.49,0,0,1-.6-1.23,1.69,1.69,0,0,1,.63-1.32,2.8,2.8,0,0,1,1.83-.54,2.68,2.68,0,0,1,1.91.66,2.09,2.09,0,0,1,.7,1.57h3.18l0-.08a3.93,3.93,0,0,0-1.52-3.3,6.52,6.52,0,0,0-4.3-1.33,6.21,6.21,0,0,0-4.13,1.31,4,4,0,0,0-1.57,3.16,3.34,3.34,0,0,0,1.35,2.81,10.27,10.27,0,0,0,4,1.59,6.41,6.41,0,0,1,2.44.89,1.58,1.58,0,0,1,.35,2.21,1.45,1.45,0,0,1-.4.38Zm17.86,2.47a6.91,6.91,0,0,0,2.21-1.25l-1.06-2.17a7.86,7.86,0,0,1-1.85.94,7.38,7.38,0,0,1-2.29.33,3.3,3.3,0,0,1-2.63-1.12,4.71,4.71,0,0,1-1-2.87l0-.07h9.21v-2a7,7,0,0,0-1.59-4.85,5.77,5.77,0,0,0-4.58-1.81,5.86,5.86,0,0,0-4.63,2.11,7.83,7.83,0,0,0-1.85,5.34v.55a7.56,7.56,0,0,0,1.86,5.28,6.42,6.42,0,0,0,5,2.05,9.38,9.38,0,0,0,3.19-.5Zm-1.41-11.27a3.49,3.49,0,0,1,.71,2.29v.34h-5.85l0-.07a4.89,4.89,0,0,1,1-2.48,2.5,2.5,0,0,1,2-1,2.63,2.63,0,0,1,2.17.89Zm7.46,4.6a8.4,8.4,0,0,0,1.52,5.2,5.05,5.05,0,0,0,4.23,2,4.8,4.8,0,0,0,2.32-.54,4.88,4.88,0,0,0,1.71-1.58l.32,1.83h2.79v-21.3h-3.32v8.13a4.87,4.87,0,0,0-1.64-1.39,4.74,4.74,0,0,0-2.15-.49,4.93,4.93,0,0,0-4.26,2.17,9.81,9.81,0,0,0-1.52,5.7v.28Zm3.32-.28a7.5,7.5,0,0,1,.81-3.72,2.66,2.66,0,0,1,2.49-1.43,3.25,3.25,0,0,1,1.75.46,3.43,3.43,0,0,1,1.2,1.28v6.44a3.48,3.48,0,0,1-1.19,1.28,3.28,3.28,0,0,1-1.78.45,2.74,2.74,0,0,1-2.49-1.21,6,6,0,0,1-.79-3.27v-.28ZM126.17,387.08a8,8,0,0,0,1.8,5.42,6.94,6.94,0,0,0,9.94,0,8,8,0,0,0,1.81-5.44v-.28a7.93,7.93,0,0,0-1.81-5.4,6.89,6.89,0,0,0-9.94,0,8,8,0,0,0-1.8,5.4v.28Zm3.32-.29a6.51,6.51,0,0,1,.84-3.48,3.15,3.15,0,0,1,5.21,0,6.34,6.34,0,0,1,.88,3.48v.28a6.36,6.36,0,0,1-.88,3.51,3.19,3.19,0,0,1-5.21,0,6.54,6.54,0,0,1-.84-3.51Zm14.5-7.25v14.78h3.31V383.6a3.56,3.56,0,0,1,1.26-1.18,3.51,3.51,0,0,1,1.74-.43,2.81,2.81,0,0,1,2.09.7,3.31,3.31,0,0,1,.69,2.37v9.25h3.32V385a6.28,6.28,0,0,0-1.29-4.36,4.69,4.69,0,0,0-3.6-1.4,4.91,4.91,0,0,0-2.48.64,5.2,5.2,0,0,0-1.81,1.77l-.2-2.13h-3Zm29.55-5.1h-3.32v19.88h3.32Zm5.48,5.1v14.78h3.31V383.6a3.56,3.56,0,0,1,1.26-1.18,3.51,3.51,0,0,1,1.74-.43,2.81,2.81,0,0,1,2.09.7,3.31,3.31,0,0,1,.69,2.37v9.25h3.32V385a6.28,6.28,0,0,0-1.29-4.36,4.69,4.69,0,0,0-3.6-1.4,4.84,4.84,0,0,0-2.47.64,5.23,5.23,0,0,0-1.82,1.77l-.19-2.13h-3ZM197.1,376v3.58h-2.26V382h2.25v8.17a4.7,4.7,0,0,0,1,3.36A3.8,3.8,0,0,0,201,394.6a5.56,5.56,0,0,0,1.22-.13,3.69,3.69,0,0,0,1-.36l-.36-2.43a2.72,2.72,0,0,1-.49.13,3.07,3.07,0,0,1-.53.05,1.41,1.41,0,0,1-1.05-.39,1.81,1.81,0,0,1-.4-1.3V382H203v-2.46H200.4V376Zm19.82,18.13a6.7,6.7,0,0,0,2.21-1.24l-1.06-2.18a7.61,7.61,0,0,1-1.84.94,6.89,6.89,0,0,1-2.3.33,3.23,3.23,0,0,1-2.62-1.12,4.54,4.54,0,0,1-1-2.87l0-.07h9.22v-1.95a7.14,7.14,0,0,0-1.59-4.86,5.8,5.8,0,0,0-4.58-1.81,5.88,5.88,0,0,0-4.64,2.11,7.86,7.86,0,0,0-1.85,5.36v.54a7.58,7.58,0,0,0,1.86,5.28,6.45,6.45,0,0,0,5,2.05A9.11,9.11,0,0,0,216.92,394.09Zm-1.41-11.27a3.57,3.57,0,0,1,.72,2.29v.34h-5.86l0-.07a4.82,4.82,0,0,1,1-2.47,2.5,2.5,0,0,1,2-1A2.63,2.63,0,0,1,215.51,382.82Zm8.05-3.28v14.78h3.32V383.6a3.56,3.56,0,0,1,1.26-1.18,3.5,3.5,0,0,1,1.73-.43,2.83,2.83,0,0,1,2.1.7,3.36,3.36,0,0,1,.69,2.37v9.25H236V385a6.28,6.28,0,0,0-1.29-4.36,4.69,4.69,0,0,0-3.59-1.4,4.88,4.88,0,0,0-2.48.64,5.31,5.31,0,0,0-1.82,1.77l-.19-2.13h-3ZM241.64,376v3.58h-2.25V382h2.25v8.17a4.7,4.7,0,0,0,1,3.36,3.8,3.8,0,0,0,2.86,1.07,5.56,5.56,0,0,0,1.22-.13,3.69,3.69,0,0,0,1-.36l-.36-2.43a2.72,2.72,0,0,1-.49.13,3.07,3.07,0,0,1-.53.05,1.41,1.41,0,0,1-1-.39,1.81,1.81,0,0,1-.4-1.3V382h2.65v-2.46h-2.65V376Zm28.83,15.24a4.85,4.85,0,0,1-2.87.74,5.54,5.54,0,0,1-3.26-.89,3.1,3.1,0,0,1-1.26-2.71h-3.19l0,.08a5.08,5.08,0,0,0,2.28,4.52,9.19,9.19,0,0,0,5.46,1.66,8.48,8.48,0,0,0,5.22-1.47,4.66,4.66,0,0,0,2-3.95,5,5,0,0,0-1.67-3.86,11.69,11.69,0,0,0-4.87-2.38,12,12,0,0,1-3.5-1.41,2.27,2.27,0,0,1-1.06-1.88,2.52,2.52,0,0,1,1-2,4.41,4.41,0,0,1,2.8-.79,4.24,4.24,0,0,1,3,.95,3.24,3.24,0,0,1,1,2.48h3.16l0-.08a5.28,5.28,0,0,0-1.92-4.24,7.64,7.64,0,0,0-5.26-1.77,8.08,8.08,0,0,0-5.13,1.56,4.82,4.82,0,0,0-2,4,4.62,4.62,0,0,0,1.79,3.77,13.69,13.69,0,0,0,5.13,2.31,8.77,8.77,0,0,1,3.25,1.42,2.51,2.51,0,0,1,.93,2,2.36,2.36,0,0,1-1,2Zm12.34-11.66H279.5v14.78h3.31V379.54Zm0-6.52H279.5v2.91h3.31Zm4.51,14.4a8.28,8.28,0,0,0,1.54,5.2,5.11,5.11,0,0,0,4.26,2,5,5,0,0,0,2.18-.46,4.64,4.64,0,0,0,1.64-1.34v1.51a3.1,3.1,0,0,1-.83,2.37,3.77,3.77,0,0,1-2.63.77,8.84,8.84,0,0,1-2.05-.24,8.27,8.27,0,0,1-1.8-.66l-.71,2.61a11.19,11.19,0,0,0,2.25.81,10.28,10.28,0,0,0,2.33.31,7.34,7.34,0,0,0,5-1.56,5.58,5.58,0,0,0,1.76-4.41V379.54h-2.75l-.33,1.93a5,5,0,0,0-1.7-1.63,4.62,4.62,0,0,0-2.33-.57,5,5,0,0,0-4.28,2.17,9.56,9.56,0,0,0-1.54,5.69v.28Zm3.32-.28a7.41,7.41,0,0,1,.83-3.72A2.72,2.72,0,0,1,294,382a3.17,3.17,0,0,1,1.75.46,3.53,3.53,0,0,1,1.2,1.26v6.47a3.27,3.27,0,0,1-1.18,1.27,3.44,3.44,0,0,1-1.8.45,2.81,2.81,0,0,1-2.51-1.22,5.85,5.85,0,0,1-.82-3.26v-.28Zm14.49-7.59v14.77h3.32V383.6a3.48,3.48,0,0,1,3-1.61,2.84,2.84,0,0,1,2.1.7,3.31,3.31,0,0,1,.68,2.37v9.25h3.32V385a6.28,6.28,0,0,0-1.29-4.36,4.69,4.69,0,0,0-3.6-1.4,4.87,4.87,0,0,0-2.47.64,5.23,5.23,0,0,0-1.82,1.77l-.19-2.13h-3Zm29.5,14.77a9.42,9.42,0,0,1-.39-1.65,11.45,11.45,0,0,1-.13-1.75v-6.57a4.59,4.59,0,0,0-1.58-3.77,6.31,6.31,0,0,0-4.16-1.31,6.63,6.63,0,0,0-4.32,1.35,3.67,3.67,0,0,0-1.57,3.1l0,.08h3.19a1.76,1.76,0,0,1,.67-1.41,2.78,2.78,0,0,1,1.8-.54,2.73,2.73,0,0,1,2,.65,2.43,2.43,0,0,1,.68,1.82v1.3h-2.58a8.23,8.23,0,0,0-4.77,1.19,3.87,3.87,0,0,0-1.69,3.34,4.27,4.27,0,0,0,1.24,3.26,4.87,4.87,0,0,0,3.54,1.19,4.58,4.58,0,0,0,2.49-.7,5.72,5.72,0,0,0,1.79-1.74,7.67,7.67,0,0,0,.16,1.07c.08.35.18.72.29,1.09Zm-9-2.88a1.7,1.7,0,0,1-.56-1.34,2.21,2.21,0,0,1,.82-1.69,3.32,3.32,0,0,1,2.27-.71h2.63v2.18a3.17,3.17,0,0,1-1.33,1.43,4.19,4.19,0,0,1-2.26.63A2.23,2.23,0,0,1,325.63,391.44ZM342.53,373h-3.32v21.3h3.32Zm25.72,21.3a9.45,9.45,0,0,1-.4-1.65,12.87,12.87,0,0,1-.12-1.75v-6.57a4.62,4.62,0,0,0-1.58-3.77,6.33,6.33,0,0,0-4.17-1.31,6.66,6.66,0,0,0-4.32,1.35,3.66,3.66,0,0,0-1.56,3.1v.08h3.2a1.73,1.73,0,0,1,.67-1.41,3.26,3.26,0,0,1,3.75.11,2.4,2.4,0,0,1,.69,1.82v1.3h-2.58a8.23,8.23,0,0,0-4.77,1.19,3.87,3.87,0,0,0-1.69,3.34,4.27,4.27,0,0,0,1.24,3.26,4.87,4.87,0,0,0,3.54,1.19,4.58,4.58,0,0,0,2.49-.7,5.72,5.72,0,0,0,1.79-1.74,7.67,7.67,0,0,0,.16,1.07c.08.35.18.72.29,1.09Zm-9-2.88a1.67,1.67,0,0,1-.56-1.34,2.15,2.15,0,0,1,.82-1.69,3.29,3.29,0,0,1,2.26-.71h2.64v2.18a3.17,3.17,0,0,1-1.33,1.43,4.22,4.22,0,0,1-2.26.63,2.26,2.26,0,0,1-1.58-.5Zm16.81-.84a6.79,6.79,0,0,1-.78-3.43v-.47a6.78,6.78,0,0,1,.78-3.4,2.8,2.8,0,0,1,2.65-1.36,2.73,2.73,0,0,1,2.08.85,2.86,2.86,0,0,1,.8,2.06h3l0-.08a5,5,0,0,0-1.6-3.94,6.89,6.89,0,0,0-9.32.56A8,8,0,0,0,372,386.7v.48a8,8,0,0,0,1.74,5.32,6.15,6.15,0,0,0,5,2.1,6.27,6.27,0,0,0,4.22-1.51,4.33,4.33,0,0,0,1.69-3.57l0-.08h-3a2.26,2.26,0,0,1-.83,1.78,3,3,0,0,1-2.05.71,2.78,2.78,0,0,1-2.64-1.33ZM389.5,376v3.59h-2.25V382h2.25v8.16a4.74,4.74,0,0,0,1,3.37,3.8,3.8,0,0,0,2.86,1.07,6.24,6.24,0,0,0,1.22-.13,4.5,4.5,0,0,0,1-.36l-.36-2.43a3.92,3.92,0,0,1-.49.13,3.08,3.08,0,0,1-.53,0,1.41,1.41,0,0,1-1.05-.39,1.79,1.79,0,0,1-.4-1.3V382h2.65v-2.46H392.8V376Zm13.84,3.59H400v14.77h3.32V379.54Zm0-6.52H400v2.9h3.32Zm7.22,6.52h-3.42l5.27,14.77h2.86l5.24-14.77h-3.42l-2.94,9.77-.26,1.21h-.08l-.24-1.21Zm17,0h-3.33v14.77h3.31V379.54Zm0-6.52h-3.33v2.9h3.31V373Zm5.93,2.93v3.59h-2.25V382h2.25v8.16a4.74,4.74,0,0,0,1,3.37,3.8,3.8,0,0,0,2.86,1.07,6.24,6.24,0,0,0,1.22-.13,4.5,4.5,0,0,0,1-.36l-.36-2.43a3.92,3.92,0,0,1-.49.13,3.08,3.08,0,0,1-.53,0,1.41,1.41,0,0,1-1.05-.39,1.79,1.79,0,0,1-.4-1.3V382h2.66v-2.46h-2.66V376Zm12.39,3.59h-3.62l5.36,14.59-.54,1.34a5.45,5.45,0,0,1-.88,1.42,1.82,1.82,0,0,1-1.44.61l-.5,0-.5,0-.37,2.56a8.12,8.12,0,0,0,.91.19,5.15,5.15,0,0,0,.88.09,4,4,0,0,0,3-1.1,7.75,7.75,0,0,0,1.65-2.63l6.11-17h-3.63l-3.24,10.32H449l-.33-1.48Z" fill="#494949"/>
        </g>
        <g>
          <polygon points="818.33 934.43 791.45 863.01 98.8 863.01 774.16 890.73 818.33 934.43" fill="#0c86bc"/>
          <polygon points="786.2 851.37 98.8 851.37 98.8 764.83 753.45 764.83 786.2 851.37" fill="#f1f2f2"/>
          <circle cx="768.73" cy="808.1" r="21.53" transform="translate(-346.26 780.26) rotate(-45)" fill="#f1f2f2"/>
          <path d="M768.73,832.19a24.09,24.09,0,1,1,24.09-24.09A24.12,24.12,0,0,1,768.73,832.19Zm0-43.06a19,19,0,1,0,19,19A19,19,0,0,0,768.73,789.13Z" fill="#fff"/>
          <path d="M777.54,806.49h-7.2v-7.2a1.47,1.47,0,0,0-1.47-1.47h-.29a1.47,1.47,0,0,0-1.47,1.47v7.2h-7.2a1.47,1.47,0,0,0-1.47,1.47v.28a1.47,1.47,0,0,0,1.47,1.47h7.2v7.2a1.47,1.47,0,0,0,1.47,1.47h.29a1.47,1.47,0,0,0,1.47-1.47v-7.2h7.2a1.47,1.47,0,0,0,1.47-1.47V808A1.47,1.47,0,0,0,777.54,806.49Z" fill="#0c86bc"/>
          <path id="Get_higher_response_rates_for_my_email_initiatives_copy" data-name="Get higher response rates for my email initiatives copy" d="M143.41,792.37h-7.26v2.49h3.94v4a3.51,3.51,0,0,1-1.41.85,7.43,7.43,0,0,1-2.52.36,4.57,4.57,0,0,1-3.56-1.55,5.76,5.76,0,0,1-1.37-3.95v-4.17a6,6,0,0,1,1.26-3.92,4.09,4.09,0,0,1,3.32-1.53,4.27,4.27,0,0,1,3.07,1,3.87,3.87,0,0,1,1.16,2.64h3.14l0-.08a5.86,5.86,0,0,0-2-4.5,7.93,7.93,0,0,0-5.46-1.72,7.49,7.49,0,0,0-5.65,2.26,8.1,8.1,0,0,0-2.19,5.88v4.15a7.87,7.87,0,0,0,2.32,5.87,8.11,8.11,0,0,0,5.91,2.27,10.35,10.35,0,0,0,4.65-.92,7,7,0,0,0,2.6-2.06v-7.41ZM158,802.25A6.87,6.87,0,0,0,160.2,801l-1.07-2.17a7.61,7.61,0,0,1-1.84.94,7.14,7.14,0,0,1-2.29.33,3.25,3.25,0,0,1-2.63-1.12,4.6,4.6,0,0,1-1-2.87l0-.07h9.21v-2a7.1,7.1,0,0,0-1.59-4.85,5.77,5.77,0,0,0-4.58-1.81,5.85,5.85,0,0,0-4.63,2.11,7.85,7.85,0,0,0-1.85,5.34v.56a7.53,7.53,0,0,0,1.86,5.27,6.42,6.42,0,0,0,5,2.06A9.08,9.08,0,0,0,158,802.25ZM156.57,791a3.52,3.52,0,0,1,.72,2.29v.34h-5.86l0-.07a4.73,4.73,0,0,1,1-2.47,2.47,2.47,0,0,1,2-1,2.62,2.62,0,0,1,2.17.89Zm8.9-6.87v3.59h-2.25v2.46h2.25v8.16a4.72,4.72,0,0,0,1,3.37,3.8,3.8,0,0,0,2.86,1.07,5.56,5.56,0,0,0,1.22-.13,3.69,3.69,0,0,0,1-.36l-.36-2.43a3.92,3.92,0,0,1-.49.13,3.07,3.07,0,0,1-.53,0,1.49,1.49,0,0,1-1.05-.39,1.83,1.83,0,0,1-.4-1.31v-8.16h2.65V787.7h-2.65v-3.59Zm21.93-2.93h-3.31v21.29h3.31V791.66a3.63,3.63,0,0,1,1.28-1.12,3.76,3.76,0,0,1,1.74-.4,2.67,2.67,0,0,1,2.09.78,3.72,3.72,0,0,1,.7,2.52v9h3.32v-9a6.72,6.72,0,0,0-1.32-4.56,4.67,4.67,0,0,0-3.67-1.49,4.92,4.92,0,0,0-2.34.58,5.22,5.22,0,0,0-1.79,1.61v-8.44Zm17.5,6.52h-3.32v14.77h3.32Zm0-6.52h-3.32v2.91h3.32Zm4.51,14.4a8.21,8.21,0,0,0,1.54,5.2,5.52,5.52,0,0,0,6.44,1.52A4.67,4.67,0,0,0,219,801v1.52a3.07,3.07,0,0,1-.84,2.37,3.82,3.82,0,0,1-2.63.77,8.75,8.75,0,0,1-2-.24,8.16,8.16,0,0,1-1.81-.66l-.71,2.61a11.28,11.28,0,0,0,2.26.81,10.12,10.12,0,0,0,2.33.3,7.25,7.25,0,0,0,5-1.55,5.56,5.56,0,0,0,1.76-4.41V787.7h-2.75l-.33,1.93a4.83,4.83,0,0,0-1.7-1.63,4.58,4.58,0,0,0-2.32-.56,5,5,0,0,0-4.29,2.17,9.63,9.63,0,0,0-1.54,5.69v.28Zm3.32-.28a7.41,7.41,0,0,1,.83-3.72,2.72,2.72,0,0,1,2.53-1.43,3.17,3.17,0,0,1,1.75.46,3.45,3.45,0,0,1,1.2,1.26v6.47a3.27,3.27,0,0,1-1.18,1.27,3.44,3.44,0,0,1-1.8.45,2.82,2.82,0,0,1-2.51-1.23,5.8,5.8,0,0,1-.82-3.25v-.28Zm17.79-14.12H227.2v21.29h3.32V791.66a3.6,3.6,0,0,1,1.27-1.12,3.76,3.76,0,0,1,1.74-.4,2.67,2.67,0,0,1,2.09.78,3.72,3.72,0,0,1,.7,2.52v9h3.32v-9a6.78,6.78,0,0,0-1.33-4.56,4.65,4.65,0,0,0-3.67-1.48,4.91,4.91,0,0,0-2.34.57,5.32,5.32,0,0,0-1.79,1.61v-8.43ZM254,802.25a6.93,6.93,0,0,0,2.21-1.25l-1.07-2.17a7.61,7.61,0,0,1-1.84.94,7.14,7.14,0,0,1-2.29.33,3.25,3.25,0,0,1-2.63-1.12,4.6,4.6,0,0,1-1-2.87l0-.07h9.21v-2a7.05,7.05,0,0,0-1.59-4.85,5.77,5.77,0,0,0-4.58-1.81,5.86,5.86,0,0,0-4.63,2.11,7.85,7.85,0,0,0-1.85,5.34v.56a7.53,7.53,0,0,0,1.86,5.27,6.46,6.46,0,0,0,5,2.06,9.15,9.15,0,0,0,3.19-.51ZM252.59,791a3.52,3.52,0,0,1,.72,2.29v.34h-5.86l0-.07a4.74,4.74,0,0,1,1-2.47,2.47,2.47,0,0,1,2-1,2.64,2.64,0,0,1,2.17.89Zm15.84-3.39-.48-.11a3.53,3.53,0,0,0-.56-.05,3.36,3.36,0,0,0-2,.64,4.79,4.79,0,0,0-1.44,1.78l-.22-2.15h-3v14.77H264V792.21a2.77,2.77,0,0,1,1-1.16,3,3,0,0,1,1.61-.41l1.42.06Zm19.42,0-.47-.11a3.53,3.53,0,0,0-.56-.05,3.36,3.36,0,0,0-2,.64,4.79,4.79,0,0,0-1.44,1.78l-.22-2.15h-3v14.77h3.32V792.21a2.81,2.81,0,0,1,1-1.16,3.08,3.08,0,0,1,1.62-.41l1.42.06Zm12.86,14.66a6.93,6.93,0,0,0,2.21-1.25l-1.07-2.17a7.61,7.61,0,0,1-1.84.94,7.14,7.14,0,0,1-2.29.33,3.27,3.27,0,0,1-2.63-1.12,4.6,4.6,0,0,1-1-2.87l0-.07h9.22v-2a7.1,7.1,0,0,0-1.59-4.85,5.77,5.77,0,0,0-4.58-1.81,5.85,5.85,0,0,0-4.63,2.11,7.81,7.81,0,0,0-1.86,5.34v.56a7.54,7.54,0,0,0,1.87,5.27,6.42,6.42,0,0,0,5,2.06A9.17,9.17,0,0,0,300.71,802.25ZM299.29,791a3.52,3.52,0,0,1,.72,2.29v.34h-5.86l0-.07a4.66,4.66,0,0,1,1-2.47,2.44,2.44,0,0,1,2-1,2.62,2.62,0,0,1,2.17.89ZM315,799.79a3.46,3.46,0,0,1-2,.49,3.71,3.71,0,0,1-2.13-.59,2.2,2.2,0,0,1-.93-1.87h-3.09l0,.08a4.17,4.17,0,0,0,1.58,3.39,6.63,6.63,0,0,0,4.55,1.47,7,7,0,0,0,4.33-1.24,3.85,3.85,0,0,0,1.64-3.24,3.39,3.39,0,0,0-1.34-2.84,10.13,10.13,0,0,0-4.13-1.62,6.43,6.43,0,0,1-2.41-.81,1.46,1.46,0,0,1-.59-1.24,1.67,1.67,0,0,1,.62-1.32,2.74,2.74,0,0,1,1.83-.53,2.65,2.65,0,0,1,1.91.65,2.06,2.06,0,0,1,.7,1.57h3.18l0-.08a4,4,0,0,0-1.52-3.3,6.51,6.51,0,0,0-4.29-1.33,6.29,6.29,0,0,0-4.14,1.31,4,4,0,0,0-1.57,3.17,3.32,3.32,0,0,0,1.36,2.8,9.87,9.87,0,0,0,4,1.59,6.69,6.69,0,0,1,2.45.89,1.58,1.58,0,0,1,.35,2.21,1.56,1.56,0,0,1-.39.38Zm21.27-4.5a9.76,9.76,0,0,0-1.52-5.69,4.92,4.92,0,0,0-4.25-2.17,4.71,4.71,0,0,0-2.33.55,4.91,4.91,0,0,0-1.72,1.58l-.32-1.86h-2.8v20.45h3.32V801a4.58,4.58,0,0,0,1.66,1.33,5.33,5.33,0,0,0,2.23.45,5,5,0,0,0,4.22-2,8.33,8.33,0,0,0,1.51-5.2v-.28Zm-3.3.28a5.79,5.79,0,0,1-.84,3.28,2.85,2.85,0,0,1-2.54,1.25,3.44,3.44,0,0,1-1.78-.42,3.08,3.08,0,0,1-1.16-1.19v-6.67a3.12,3.12,0,0,1,2.92-1.67,2.75,2.75,0,0,1,2.54,1.43,7.26,7.26,0,0,1,.86,3.7v.28Zm7-.33a8,8,0,0,0,1.8,5.42,6.94,6.94,0,0,0,9.81.14l.13-.13a8,8,0,0,0,1.81-5.43V795a8,8,0,0,0-1.81-5.4,6.89,6.89,0,0,0-9.75-.19l-.19.19a8,8,0,0,0-1.8,5.4v.29Zm3.31-.29a6.61,6.61,0,0,1,.85-3.48,3.16,3.16,0,0,1,4.39-.83,3.08,3.08,0,0,1,.82.83,6.34,6.34,0,0,1,.88,3.48v.28a6.39,6.39,0,0,1-.88,3.52,3.19,3.19,0,0,1-4.44.77,3.13,3.13,0,0,1-.77-.77,6.56,6.56,0,0,1-.85-3.52Zm14.5-7.25v14.77h3.32V791.76a3.56,3.56,0,0,1,1.26-1.18,3.39,3.39,0,0,1,1.73-.43,2.82,2.82,0,0,1,2.1.7,3.31,3.31,0,0,1,.69,2.37v9.26h3.32v-9.29a6.28,6.28,0,0,0-1.29-4.36,4.71,4.71,0,0,0-3.6-1.4,4.91,4.91,0,0,0-2.48.64,5.2,5.2,0,0,0-1.81,1.77l-.2-2.13h-3Zm24.87,12.09a3.46,3.46,0,0,1-2,.49,3.73,3.73,0,0,1-2.13-.59,2.23,2.23,0,0,1-.93-1.87h-3.08l0,.08a4.17,4.17,0,0,0,1.58,3.39,6.63,6.63,0,0,0,4.55,1.47,7,7,0,0,0,4.33-1.24,3.85,3.85,0,0,0,1.64-3.24,3.36,3.36,0,0,0-1.34-2.84,10.13,10.13,0,0,0-4.13-1.62,6.43,6.43,0,0,1-2.41-.81,1.46,1.46,0,0,1-.59-1.24,1.71,1.71,0,0,1,.63-1.32,3.27,3.27,0,0,1,3.74.12,2.13,2.13,0,0,1,.7,1.57h3.18l0-.08a3.93,3.93,0,0,0-1.52-3.3,6.49,6.49,0,0,0-4.29-1.33,6.25,6.25,0,0,0-4.14,1.31,4.06,4.06,0,0,0-1.57,3.17,3.32,3.32,0,0,0,1.36,2.8,9.91,9.91,0,0,0,4,1.59,6.64,6.64,0,0,1,2.44.89,1.57,1.57,0,0,1,.35,2.21,1.41,1.41,0,0,1-.39.38Zm17.86,2.46a6.7,6.7,0,0,0,2.21-1.24l-1.07-2.18a7.26,7.26,0,0,1-1.84.94,6.83,6.83,0,0,1-2.29.33,3.27,3.27,0,0,1-2.63-1.12,4.6,4.6,0,0,1-1-2.87l0-.07h9.21v-1.95a7.09,7.09,0,0,0-1.59-4.86,5.8,5.8,0,0,0-4.58-1.81,5.86,5.86,0,0,0-4.63,2.11,7.85,7.85,0,0,0-1.85,5.35v.55a7.53,7.53,0,0,0,1.86,5.27,6.45,6.45,0,0,0,5,2.06,9.17,9.17,0,0,0,3.2-.51ZM399.06,791a3.51,3.51,0,0,1,.71,2.29v.34h-5.85l0-.07a4.82,4.82,0,0,1,1-2.47,2.47,2.47,0,0,1,2-1A2.63,2.63,0,0,1,399.06,791Zm24.19-3.39-.48-.11a3.43,3.43,0,0,0-.56-.05,3.33,3.33,0,0,0-2,.64,4.69,4.69,0,0,0-1.44,1.78l-.22-2.15h-3v14.77h3.31V792.21a2.77,2.77,0,0,1,1-1.16,3,3,0,0,1,1.61-.41l1.42.06Zm15.57,14.88a8.36,8.36,0,0,1-.4-1.64,12.9,12.9,0,0,1-.12-1.76V792.5a4.62,4.62,0,0,0-1.59-3.76,6.24,6.24,0,0,0-4.16-1.31,6.55,6.55,0,0,0-4.32,1.35,3.63,3.63,0,0,0-1.56,3.1V792h3.2a1.72,1.72,0,0,1,.66-1.41,2.73,2.73,0,0,1,1.81-.54,2.68,2.68,0,0,1,1.95.65,2.36,2.36,0,0,1,.68,1.82v1.3h-2.57a8.16,8.16,0,0,0-4.77,1.19,3.87,3.87,0,0,0-1.69,3.34,4.3,4.3,0,0,0,1.23,3.26,4.89,4.89,0,0,0,3.55,1.19,4.58,4.58,0,0,0,2.49-.7,5.83,5.83,0,0,0,1.79-1.74,7.53,7.53,0,0,0,.16,1.06c.08.36.17.72.29,1.1h3.36Zm-9-2.87a1.72,1.72,0,0,1-.56-1.35,2.17,2.17,0,0,1,.82-1.68,3.31,3.31,0,0,1,2.26-.72H435V798a3.17,3.17,0,0,1-1.33,1.43,4.19,4.19,0,0,1-2.26.63A2.26,2.26,0,0,1,429.81,799.6ZM444,784.11v3.59h-2.25v2.46H444v8.16a4.72,4.72,0,0,0,1,3.37,3.8,3.8,0,0,0,2.86,1.07,5.56,5.56,0,0,0,1.22-.13,3.69,3.69,0,0,0,1-.36l-.36-2.43a3.92,3.92,0,0,1-.49.13,3.07,3.07,0,0,1-.53,0,1.49,1.49,0,0,1-1.05-.39,1.83,1.83,0,0,1-.4-1.31v-8.16h2.65V787.7h-2.65v-3.59Zm19.83,18.14A6.93,6.93,0,0,0,466,801L465,798.83a7.61,7.61,0,0,1-1.84.94,7.14,7.14,0,0,1-2.29.33A3.27,3.27,0,0,1,458.2,799a4.6,4.6,0,0,1-1-2.87l0-.07h9.21v-2a7.1,7.1,0,0,0-1.59-4.85,5.77,5.77,0,0,0-4.58-1.81,5.88,5.88,0,0,0-4.64,2.11,7.89,7.89,0,0,0-1.84,5.34v.56a7.53,7.53,0,0,0,1.86,5.27,6.42,6.42,0,0,0,5,2.06,9.17,9.17,0,0,0,3.2-.51ZM462.4,791a3.52,3.52,0,0,1,.72,2.29v.34h-5.86l0-.07a4.73,4.73,0,0,1,1-2.47,2.47,2.47,0,0,1,2-1,2.62,2.62,0,0,1,2.18.89Zm15.69,8.81a3.46,3.46,0,0,1-2,.49,3.71,3.71,0,0,1-2.13-.59,2.2,2.2,0,0,1-.93-1.87H470l0,.08a4.17,4.17,0,0,0,1.58,3.39,6.63,6.63,0,0,0,4.55,1.47,7,7,0,0,0,4.33-1.24,3.85,3.85,0,0,0,1.64-3.24,3.36,3.36,0,0,0-1.34-2.84,10.13,10.13,0,0,0-4.13-1.62,6.43,6.43,0,0,1-2.41-.81,1.46,1.46,0,0,1-.59-1.24,1.71,1.71,0,0,1,.63-1.32,3.27,3.27,0,0,1,3.74.12,2.13,2.13,0,0,1,.7,1.57h3.18l0-.08a4,4,0,0,0-1.52-3.3,6.51,6.51,0,0,0-4.29-1.33,6.31,6.31,0,0,0-4.14,1.31,4,4,0,0,0-1.57,3.17,3.32,3.32,0,0,0,1.36,2.8,9.91,9.91,0,0,0,4,1.59,6.71,6.71,0,0,1,2.44.89,1.57,1.57,0,0,1,.35,2.21,1.41,1.41,0,0,1-.39.38ZM132.58,836V823.71h3v-2.46h-3v-1.72a2.55,2.55,0,0,1,.54-1.76,2,2,0,0,1,1.61-.61,5.79,5.79,0,0,1,.72,0c.22,0,.42.06.61.09l.34-2.57q-.61-.13-1.11-.21a6.24,6.24,0,0,0-1-.07,5,5,0,0,0-3.73,1.32,5.09,5.09,0,0,0-1.33,3.77v1.72H127v2.46h2.25V836Zm6.2-7.23a8,8,0,0,0,1.8,5.41,6.94,6.94,0,0,0,9.94,0,8,8,0,0,0,1.82-5.43v-.28a8,8,0,0,0-1.82-5.41,6.91,6.91,0,0,0-9.94,0,8.07,8.07,0,0,0-1.8,5.41v.28Zm3.31-.3a6.57,6.57,0,0,1,.85-3.47,2.84,2.84,0,0,1,2.59-1.38,2.89,2.89,0,0,1,2.63,1.38,6.3,6.3,0,0,1,.87,3.47v.28a6.49,6.49,0,0,1-.87,3.52,3.2,3.2,0,0,1-5.22,0,6.56,6.56,0,0,1-.85-3.52v-.28Zm22.29-7.34-.48-.12a3.43,3.43,0,0,0-.56,0,3.37,3.37,0,0,0-2,.65,4.78,4.78,0,0,0-1.44,1.77l-.21-2.14h-3V836h3.31V825.76a2.71,2.71,0,0,1,1-1.16,3,3,0,0,1,1.61-.41l1.42.06Zm11.68.11V836h3.32V825.18a2.89,2.89,0,0,1,1.12-1.1,3.63,3.63,0,0,1,1.71-.39,2.4,2.4,0,0,1,1.95.8,4.11,4.11,0,0,1,.66,2.62V836h3.31v-9.57a1.52,1.52,0,0,0,0-.29c0-.1,0-.21,0-.35a3.2,3.2,0,0,1,1.07-1.54,2.82,2.82,0,0,1,1.8-.57,2.4,2.4,0,0,1,1.94.76,4.16,4.16,0,0,1,.65,2.66V836h3.32v-8.9a7.05,7.05,0,0,0-1.29-4.62,4.38,4.38,0,0,0-3.52-1.52,4.84,4.84,0,0,0-2.62.7,5.18,5.18,0,0,0-1.8,1.92,4,4,0,0,0-1.56-2,4.51,4.51,0,0,0-2.48-.66,5.35,5.35,0,0,0-2.52.57,5.1,5.1,0,0,0-1.82,1.63l-.18-1.93Zm27.8,0h-3.62l5.37,14.59-.55,1.34a5.35,5.35,0,0,1-.88,1.42,1.82,1.82,0,0,1-1.44.61l-.49,0-.51,0-.37,2.57c.29.07.6.14.91.19a5.24,5.24,0,0,0,.88.08,4,4,0,0,0,3-1.09,7.46,7.46,0,0,0,1.65-2.63l6.12-17h-3.64l-3.23,10.32H207l-.33-1.49Zm31.36,14.55a6.91,6.91,0,0,0,2.21-1.25l-1.06-2.18a7.27,7.27,0,0,1-1.84.94,6.89,6.89,0,0,1-2.3.33,3.23,3.23,0,0,1-2.62-1.12,4.54,4.54,0,0,1-1-2.87l0-.07h9.22v-2a7.14,7.14,0,0,0-1.59-4.86,5.79,5.79,0,0,0-4.58-1.8,5.85,5.85,0,0,0-4.64,2.11,7.87,7.87,0,0,0-1.84,5.34V829a7.53,7.53,0,0,0,1.86,5.27,6.46,6.46,0,0,0,5,2.06,9.29,9.29,0,0,0,3.18-.51Zm-1.41-11.28a3.58,3.58,0,0,1,.72,2.3v.33h-5.86l0-.07a4.79,4.79,0,0,1,1-2.48,2.5,2.5,0,0,1,2-1,2.6,2.6,0,0,1,2.17.9Zm8.08-3.27V836h3.32V825.18a2.93,2.93,0,0,1,1.11-1.1,3.65,3.65,0,0,1,1.72-.39,2.38,2.38,0,0,1,1.94.8,4.12,4.12,0,0,1,.67,2.62V836H254v-9.57a1.52,1.52,0,0,0,0-.29c0-.1,0-.21,0-.35a3.18,3.18,0,0,1,1.06-1.54,2.86,2.86,0,0,1,1.8-.57,2.42,2.42,0,0,1,1.95.76,4.16,4.16,0,0,1,.65,2.66V836h3.32v-8.9a7.11,7.11,0,0,0-1.29-4.62,4.39,4.39,0,0,0-3.52-1.52,4.84,4.84,0,0,0-2.62.7,5.1,5.1,0,0,0-1.8,1.92,4,4,0,0,0-1.56-2,4.53,4.53,0,0,0-2.48-.66,5.39,5.39,0,0,0-2.53.57,5.18,5.18,0,0,0-1.82,1.63l-.17-1.93ZM279.84,836a9.42,9.42,0,0,1-.39-1.65,10.23,10.23,0,0,1-.12-1.75v-6.57a4.62,4.62,0,0,0-1.59-3.77,6.31,6.31,0,0,0-4.16-1.31,6.63,6.63,0,0,0-4.32,1.35,3.68,3.68,0,0,0-1.57,3.1l0,.08h3.19a1.72,1.72,0,0,1,.67-1.4,2.79,2.79,0,0,1,1.8-.55,2.69,2.69,0,0,1,2,.66A2.39,2.39,0,0,1,276,826v1.3h-2.58a8.15,8.15,0,0,0-4.76,1.2,3.84,3.84,0,0,0-1.69,3.33,4.28,4.28,0,0,0,1.23,3.26,4.88,4.88,0,0,0,3.54,1.19,4.59,4.59,0,0,0,2.5-.7,5.82,5.82,0,0,0,1.79-1.74,7.67,7.67,0,0,0,.16,1.07c.08.35.17.72.29,1.09h3.35Zm-9-2.88a1.69,1.69,0,0,1-.55-1.34,2.15,2.15,0,0,1,.82-1.69,3.31,3.31,0,0,1,2.26-.71H276v2.18a3.13,3.13,0,0,1-1.33,1.43,4.11,4.11,0,0,1-2.26.63,2.27,2.27,0,0,1-1.58-.5Zm16.9-11.89h-3.32V836h3.32V821.25Zm0-6.53h-3.32v2.91h3.32v-2.91Zm8.65,0h-3.32V836h3.32V814.73Zm17,6.53h-3.32V836h3.32V821.25Zm0-6.53h-3.32v2.91h3.32Zm5.08,6.53V836h3.32V825.3a3.65,3.65,0,0,1,1.26-1.18,3.5,3.5,0,0,1,1.73-.43,2.82,2.82,0,0,1,2.1.7,3.3,3.3,0,0,1,.69,2.38V836h3.32v-9.28a6.28,6.28,0,0,0-1.29-4.36A4.64,4.64,0,0,0,326,821a5,5,0,0,0-2.48.63,5.38,5.38,0,0,0-1.81,1.77l-.19-2.13h-3Zm20.8,0H336V836h3.32V821.25Zm0-6.53H336v2.91h3.32Zm5.93,2.94v3.59H343v2.45h2.25v8.17a4.7,4.7,0,0,0,1,3.36,3.76,3.76,0,0,0,2.86,1.07,5,5,0,0,0,1.22-.13,3.69,3.69,0,0,0,1-.36l-.36-2.43a2.72,2.72,0,0,1-.49.13,3.07,3.07,0,0,1-.53.05,1.41,1.41,0,0,1-1.05-.39,1.79,1.79,0,0,1-.4-1.3v-8.17h2.66v-2.45H348.5v-3.59ZM359,821.26h-3.32V836H359V821.25Zm0-6.53h-3.32v2.91H359ZM376.39,836a9.42,9.42,0,0,1-.39-1.65,11.45,11.45,0,0,1-.13-1.75v-6.57a4.59,4.59,0,0,0-1.58-3.77,6.31,6.31,0,0,0-4.16-1.31,6.63,6.63,0,0,0-4.32,1.35,3.68,3.68,0,0,0-1.57,3.1l0,.08h3.19a1.72,1.72,0,0,1,.67-1.4,2.79,2.79,0,0,1,1.8-.55,2.69,2.69,0,0,1,2,.66,2.39,2.39,0,0,1,.68,1.81v1.3H370a8.15,8.15,0,0,0-4.76,1.2,3.82,3.82,0,0,0-1.7,3.33,4.34,4.34,0,0,0,1.24,3.26,4.88,4.88,0,0,0,3.54,1.19,4.55,4.55,0,0,0,2.49-.7,5.75,5.75,0,0,0,1.8-1.74,7.67,7.67,0,0,0,.16,1.07A9.83,9.83,0,0,0,373,836Zm-9-2.88a1.7,1.7,0,0,1-.56-1.34,2.21,2.21,0,0,1,.82-1.69,3.32,3.32,0,0,1,2.27-.71h2.63v2.18a3.13,3.13,0,0,1-1.33,1.43,4.11,4.11,0,0,1-2.26.63,2.23,2.23,0,0,1-1.57-.5Zm14.18-15.48v3.59h-2.25v2.45h2.25v8.17a4.7,4.7,0,0,0,1,3.36,3.77,3.77,0,0,0,2.87,1.07,5,5,0,0,0,1.21-.13,3.69,3.69,0,0,0,1-.36l-.35-2.43a3,3,0,0,1-.49.13,3.29,3.29,0,0,1-.54.05,1.42,1.42,0,0,1-1.05-.39,1.74,1.74,0,0,1-.39-1.3v-8.17h2.64v-2.45h-2.64v-3.59Zm13.84,3.59h-3.32V836h3.32V821.25Zm0-6.53h-3.32v2.91h3.32Zm7.23,6.53H399.2L404.46,836h2.89l5.24-14.77h-3.43L406.22,831l-.26,1.2h-.08l-.24-1.2Zm22.78,14.55a6.91,6.91,0,0,0,2.21-1.25l-1.06-2.18a7.17,7.17,0,0,1-1.85.94,6.83,6.83,0,0,1-2.29.33,3.27,3.27,0,0,1-2.63-1.12,4.66,4.66,0,0,1-1-2.87l0-.07H428v-2a7.1,7.1,0,0,0-1.6-4.86,5.77,5.77,0,0,0-4.57-1.8,5.84,5.84,0,0,0-4.64,2.11,7.81,7.81,0,0,0-1.85,5.34V829a7.53,7.53,0,0,0,1.86,5.27,6.46,6.46,0,0,0,5,2.06,9.39,9.39,0,0,0,3.19-.51ZM424,824.53a3.52,3.52,0,0,1,.71,2.3v.33h-5.86l0-.07a4.79,4.79,0,0,1,1-2.48,2.5,2.5,0,0,1,2-1,2.6,2.6,0,0,1,2.17.9Zm15.68,8.81a3.42,3.42,0,0,1-2,.49,3.68,3.68,0,0,1-2.13-.59,2.21,2.21,0,0,1-.93-1.87h-3.08l0,.09a4.16,4.16,0,0,0,1.59,3.38,6.62,6.62,0,0,0,4.54,1.48,7,7,0,0,0,4.33-1.25,3.88,3.88,0,0,0,1.65-3.23A3.41,3.41,0,0,0,442.3,829a10.27,10.27,0,0,0-4.13-1.62,6.21,6.21,0,0,1-2.4-.81,1.49,1.49,0,0,1-.6-1.23,1.68,1.68,0,0,1,.63-1.32,3.24,3.24,0,0,1,3.74.11,2.11,2.11,0,0,1,.7,1.57h3.18l0-.08a3.91,3.91,0,0,0-1.53-3.29,6.37,6.37,0,0,0-4.29-1.33,6.16,6.16,0,0,0-4.13,1.31,4,4,0,0,0-1.57,3.16,3.34,3.34,0,0,0,1.35,2.81,10.27,10.27,0,0,0,4,1.59,6.41,6.41,0,0,1,2.44.89,1.57,1.57,0,0,1,.34,2.21,1.67,1.67,0,0,1-.38.37Z" fill="#494949"/>
        </g>
        <g>
          <polygon points="733.1 714.5 706.23 643.09 98.8 643.09 691.98 669.36 733.1 714.5" fill="#0c86bc"/>
          <polygon points="702.05 632.15 98.8 632.15 98.8 545.61 669.3 545.61 702.05 632.15" fill="#f1f2f2"/>
          <path d="M706.18,588.88a21.53,21.53,0,1,1-21.53-21.53A21.53,21.53,0,0,1,706.18,588.88Z" fill="#f1f2f2"/>
          <path d="M684.65,613a24.09,24.09,0,1,1,24.09-24.09A24.12,24.12,0,0,1,684.65,613Zm0-43.06a19,19,0,1,0,19,19A19,19,0,0,0,684.65,569.91Z" fill="#fff"/>
          <path d="M693.46,587.27h-7.2v-7.21a1.47,1.47,0,0,0-1.47-1.47h-.28a1.47,1.47,0,0,0-1.47,1.47v7.21h-7.2a1.46,1.46,0,0,0-1.47,1.47V589a1.47,1.47,0,0,0,1.47,1.47H683v7.2a1.47,1.47,0,0,0,1.47,1.47h.28a1.47,1.47,0,0,0,1.47-1.47v-7.2h7.2a1.47,1.47,0,0,0,1.47-1.47v-.28A1.47,1.47,0,0,0,693.46,587.27Z" fill="#0c86bc"/>
          <path id="Fuel_my_ABM_strategies_copy" data-name="Fuel my ABM strategies copy" d="M139.23,584.46h-8.71v-6.08h10.11v-2.65H127.21V595.6h3.31v-8.48h8.71v-2.65Zm14.33,11.14h2.89V580.83h-3.32V591.5a3,3,0,0,1-1.27,1.25,4.15,4.15,0,0,1-2,.43,2.26,2.26,0,0,1-1.9-.78,4.37,4.37,0,0,1-.63-2.71v-8.86H144v8.83a7,7,0,0,0,1.33,4.71,4.71,4.71,0,0,0,3.72,1.52,4.77,4.77,0,0,0,2.45-.64,5,5,0,0,0,1.76-1.81Zm17.28-.22a6.91,6.91,0,0,0,2.21-1.25L172,592a7.65,7.65,0,0,1-1.84.95,7.15,7.15,0,0,1-2.3.32,3.25,3.25,0,0,1-2.62-1.11,4.59,4.59,0,0,1-1-2.88l0-.06h9.21v-2a7.1,7.1,0,0,0-1.59-4.85,5.77,5.77,0,0,0-4.58-1.81,5.88,5.88,0,0,0-4.64,2.11,7.83,7.83,0,0,0-1.85,5.34v.55a7.57,7.57,0,0,0,1.87,5.28,6.38,6.38,0,0,0,5,2A9.3,9.3,0,0,0,170.84,595.38Zm-1.41-11.28a3.58,3.58,0,0,1,.72,2.3v.34h-5.86l0-.07a4.89,4.89,0,0,1,1-2.48,2.5,2.5,0,0,1,2-1,2.63,2.63,0,0,1,2.17.89Zm11.62-9.8h-3.32v21.3h3.32Zm13.47,6.53V595.6h3.31V584.76a3,3,0,0,1,1.12-1.1,3.53,3.53,0,0,1,1.72-.39,2.39,2.39,0,0,1,1.94.8,4.08,4.08,0,0,1,.66,2.61v8.92h3.31V586a2.62,2.62,0,0,0,0-.28,1.89,1.89,0,0,1,0-.36,3.24,3.24,0,0,1,1.07-1.53,2.83,2.83,0,0,1,1.8-.58,2.4,2.4,0,0,1,1.94.77,4.13,4.13,0,0,1,.65,2.65v8.91h3.32v-8.9a7,7,0,0,0-1.29-4.62,4.38,4.38,0,0,0-3.52-1.52,4.84,4.84,0,0,0-2.62.7,5.19,5.19,0,0,0-1.8,1.92,3.91,3.91,0,0,0-1.55-2,4.46,4.46,0,0,0-2.49-.66,5.38,5.38,0,0,0-2.52.57,5,5,0,0,0-1.82,1.63l-.18-1.93h-3Zm27.79,0H218.7l5.36,14.59-.54,1.34a5.23,5.23,0,0,1-.89,1.42,1.79,1.79,0,0,1-1.44.61l-.49,0-.5,0-.37,2.57c.29.07.59.14.91.19a5.14,5.14,0,0,0,.88.08,4,4,0,0,0,3-1.09,7.63,7.63,0,0,0,1.66-2.63l6.11-17h-3.63l-3.24,10.32h-.08l-.32-1.48Zm34.61,14.77h3.37l-7.22-19.88h-3.14l-7.31,19.88H246l1.58-4.64h7.78Zm-5.48-15.9h.08l2.89,8.49h-5.9Zm20.05,15.9a7.92,7.92,0,0,0,5.05-1.46,5.12,5.12,0,0,0,1.83-4.25,5,5,0,0,0-1-3,4.45,4.45,0,0,0-2.73-1.71,4.6,4.6,0,0,0,2.16-1.58,4,4,0,0,0,.77-2.42,4.69,4.69,0,0,0-1.85-4.06,8.63,8.63,0,0,0-5.16-1.36H264V595.6Zm.37-9a3.09,3.09,0,0,1,2.43.87,3.59,3.59,0,0,1,.77,2.46,2.77,2.77,0,0,1-.92,2.26,4,4,0,0,1-2.66.79H267.3v-6.38Zm-4.55-8.18h3.29a4.57,4.57,0,0,1,2.76.72,2.59,2.59,0,0,1,.94,2.19,2.53,2.53,0,0,1-.9,2.07,3.72,3.72,0,0,1-2.43.73h-3.66v-5.71Zm16-2.65V595.6h3.32v-6.77l-.33-8.57h.08l5.87,15.35h2.23l5.9-15.39h.08l-.33,8.61v6.77h3.32V575.72h-4.3L293.41,591h-.08l-5.72-15.29H283.3Zm41.43,17.18a3.39,3.39,0,0,1-2,.5,3.73,3.73,0,0,1-2.13-.59,2.23,2.23,0,0,1-.93-1.87h-3.08l0,.08a4.17,4.17,0,0,0,1.58,3.39,6.63,6.63,0,0,0,4.55,1.47,7,7,0,0,0,4.33-1.24,3.85,3.85,0,0,0,1.64-3.24,3.36,3.36,0,0,0-1.34-2.84,10.13,10.13,0,0,0-4.13-1.62,6.43,6.43,0,0,1-2.41-.81,1.46,1.46,0,0,1-.59-1.24,1.71,1.71,0,0,1,.63-1.32,2.77,2.77,0,0,1,1.83-.54,2.74,2.74,0,0,1,1.91.66,2.13,2.13,0,0,1,.7,1.57h3.18l0-.08a4,4,0,0,0-1.52-3.3,6.51,6.51,0,0,0-4.29-1.33,6.25,6.25,0,0,0-4.14,1.31A4,4,0,0,0,317,585a3.32,3.32,0,0,0,1.36,2.8,9.91,9.91,0,0,0,4,1.59,6.71,6.71,0,0,1,2.44.89,1.57,1.57,0,0,1,.34,2.21,1.29,1.29,0,0,1-.39.38Zm9.15-15.67v3.59h-2.25v2.46h2.25v8.16a4.72,4.72,0,0,0,1,3.37,3.8,3.8,0,0,0,2.86,1.07,5.56,5.56,0,0,0,1.22-.13,3.69,3.69,0,0,0,1-.36l-.36-2.43a2.72,2.72,0,0,1-.49.13,3.07,3.07,0,0,1-.53,0,1.41,1.41,0,0,1-1.05-.39,1.83,1.83,0,0,1-.4-1.31v-8.16h2.66v-2.46h-2.66v-3.59Zm18.05,3.48-.48-.11a3.43,3.43,0,0,0-.56-.05,3.33,3.33,0,0,0-2,.64,4.69,4.69,0,0,0-1.44,1.78l-.22-2.15h-3V595.6h3.31V585.34a2.71,2.71,0,0,1,1-1.16,3,3,0,0,1,1.61-.41l1.42.05Zm15.56,14.88a9.42,9.42,0,0,1-.39-1.65,11.35,11.35,0,0,1-.12-1.75v-6.57a4.64,4.64,0,0,0-1.59-3.77,6.31,6.31,0,0,0-4.16-1.31,6.66,6.66,0,0,0-4.32,1.35,3.65,3.65,0,0,0-1.56,3.1v.08h3.19a1.72,1.72,0,0,1,.67-1.4,2.79,2.79,0,0,1,1.8-.55,2.69,2.69,0,0,1,2,.66,2.39,2.39,0,0,1,.68,1.81v1.3h-2.58a8.18,8.18,0,0,0-4.77,1.2,3.84,3.84,0,0,0-1.69,3.33,4.33,4.33,0,0,0,1.24,3.27,4.92,4.92,0,0,0,3.54,1.18,4.47,4.47,0,0,0,2.49-.7,5.83,5.83,0,0,0,1.8-1.73,7.76,7.76,0,0,0,.16,1.06c.08.36.18.72.29,1.09h3.35Zm-9-2.88a1.73,1.73,0,0,1-.56-1.34,2.21,2.21,0,0,1,.82-1.69A3.32,3.32,0,0,1,361,589h2.63v2.18a3.07,3.07,0,0,1-1.33,1.43,4.11,4.11,0,0,1-2.26.63A2.25,2.25,0,0,1,358.49,592.72Zm14.18-15.48v3.59h-2.25v2.46h2.25v8.16a4.7,4.7,0,0,0,1,3.36,3.78,3.78,0,0,0,2.87,1.08,6.14,6.14,0,0,0,1.21-.13,4.08,4.08,0,0,0,1-.37l-.35-2.43a3,3,0,0,1-.49.13,2.47,2.47,0,0,1-.54,0,1.44,1.44,0,0,1-1.05-.39,1.74,1.74,0,0,1-.39-1.3v-8.16h2.65v-2.46H376v-3.59Zm19.83,18.14a6.91,6.91,0,0,0,2.21-1.25L393.65,592a7.53,7.53,0,0,1-1.85.95,7.09,7.09,0,0,1-2.29.32,3.29,3.29,0,0,1-2.63-1.11,4.65,4.65,0,0,1-1-2.88l0-.06h9.21v-2a7.05,7.05,0,0,0-1.59-4.85,5.77,5.77,0,0,0-4.58-1.81,5.83,5.83,0,0,0-4.63,2.11,7.83,7.83,0,0,0-1.85,5.34v.55a7.56,7.56,0,0,0,1.86,5.28,6.41,6.41,0,0,0,5,2,9.4,9.4,0,0,0,3.2-.5Zm-1.41-11.28a3.52,3.52,0,0,1,.71,2.3v.34H386l0-.07a4.89,4.89,0,0,1,1-2.48,2.5,2.5,0,0,1,2-1,2.63,2.63,0,0,1,2.17.89Zm7.47,4.6a8.29,8.29,0,0,0,1.54,5.21,5.52,5.52,0,0,0,6.44,1.52,4.67,4.67,0,0,0,1.64-1.35v1.52a3.06,3.06,0,0,1-.83,2.37,3.82,3.82,0,0,1-2.63.77,8.69,8.69,0,0,1-2-.24,8.16,8.16,0,0,1-1.81-.66l-.71,2.6a10.72,10.72,0,0,0,2.26.82,10.11,10.11,0,0,0,2.32.3,7.29,7.29,0,0,0,5-1.55,5.6,5.6,0,0,0,1.76-4.41V580.83h-2.76l-.32,1.92a4.91,4.91,0,0,0-1.7-1.63,4.68,4.68,0,0,0-2.32-.56,5,5,0,0,0-4.29,2.17,9.64,9.64,0,0,0-1.54,5.7v.27Zm3.32-.27a7.41,7.41,0,0,1,.83-3.72,2.73,2.73,0,0,1,2.53-1.43,3.2,3.2,0,0,1,1.76.46,3.56,3.56,0,0,1,1.19,1.25v6.48a3.27,3.27,0,0,1-1.18,1.27,3.34,3.34,0,0,1-1.8.44A2.79,2.79,0,0,1,402.7,592a5.8,5.8,0,0,1-.82-3.25v-.28Zm18.05-7.6h-3.31V595.6h3.31V580.83Zm0-6.52h-3.31v2.91h3.31Zm14.64,21.07a6.7,6.7,0,0,0,2.21-1.24L435.72,592a7.61,7.61,0,0,1-1.84.94,6.89,6.89,0,0,1-2.3.33,3.23,3.23,0,0,1-2.62-1.12,4.61,4.61,0,0,1-1-2.87l0-.07h9.22v-1.95a7.14,7.14,0,0,0-1.59-4.86,5.8,5.8,0,0,0-4.58-1.81,5.87,5.87,0,0,0-4.64,2.11,7.85,7.85,0,0,0-1.85,5.35v.54a7.52,7.52,0,0,0,1.87,5.28,6.38,6.38,0,0,0,5,2,9.34,9.34,0,0,0,3.19-.5Zm-1.41-11.27a3.58,3.58,0,0,1,.72,2.3v.33H428l0-.07a4.89,4.89,0,0,1,1-2.48,2.5,2.5,0,0,1,2-1,2.62,2.62,0,0,1,2.17.89Zm15.68,8.81a3.42,3.42,0,0,1-2,.49,3.75,3.75,0,0,1-2.13-.59,2.19,2.19,0,0,1-.92-1.87h-3.09l0,.08a4.18,4.18,0,0,0,1.59,3.39,6.57,6.57,0,0,0,4.54,1.47,7,7,0,0,0,4.34-1.24,3.87,3.87,0,0,0,1.64-3.23,3.4,3.4,0,0,0-1.35-2.85,10.14,10.14,0,0,0-4.12-1.62,6.26,6.26,0,0,1-2.41-.81,1.49,1.49,0,0,1-.6-1.23,1.68,1.68,0,0,1,.63-1.32,3.24,3.24,0,0,1,3.74.11,2.09,2.09,0,0,1,.7,1.57h3.18l0-.08a4,4,0,0,0-1.52-3.3,6.52,6.52,0,0,0-4.3-1.33,6.26,6.26,0,0,0-4.13,1.31,4,4,0,0,0-1.57,3.17,3.37,3.37,0,0,0,1.35,2.81,10.27,10.27,0,0,0,4,1.59,6.67,6.67,0,0,1,2.45.88,1.6,1.6,0,0,1,.34,2.22,1.71,1.71,0,0,1-.39.37Z" fill="#494949"/>
        </g>
        <g>
          <polygon points="1091.74 494.57 1118.62 423.16 1641.88 423.16 1132.86 449.44 1091.74 494.57" fill="#0c86bc"/>
          <polygon points="1123.04 412.22 1641.88 412.22 1641.88 325.68 1155.79 325.68 1123.04 412.22" fill="#f1f2f2"/>
          <path d="M1161.69,369a21.53,21.53,0,1,1-21.53-21.53A21.53,21.53,0,0,1,1161.69,369Z" fill="#f1f2f2"/>
          <path d="M1140.16,393A24.09,24.09,0,1,1,1164.25,369,24.12,24.12,0,0,1,1140.16,393Zm0-43.06a19,19,0,1,0,19,19A19,19,0,0,0,1140.16,350Z" fill="#fff"/>
          <path d="M1149,367.34h-7.2v-7.2a1.47,1.47,0,0,0-1.47-1.47H1140a1.47,1.47,0,0,0-1.47,1.47v7.2h-7.2a1.47,1.47,0,0,0-1.47,1.47v.28a1.47,1.47,0,0,0,1.47,1.47h7.2v7.2a1.47,1.47,0,0,0,1.47,1.47h.29a1.47,1.47,0,0,0,1.47-1.47v-7.2h7.2a1.47,1.47,0,0,0,1.47-1.47v-.28A1.47,1.47,0,0,0,1149,367.34Z" fill="#0c86bc"/>
          <path id="Prioritize_and_Expand_my_account_base_copy" data-name="Prioritize and Expand my account base copy" d="M1329.8,353.23a7.42,7.42,0,0,0,5.15-1.68,6.33,6.33,0,0,0,0-8.93l0,0a7.37,7.37,0,0,0-5.15-1.7H1322v19.88h3.31v-7.54h4.46Zm-4.45-9.68h4.45a3.36,3.36,0,0,1,3.68,3,2.53,2.53,0,0,1,0,.55,3.5,3.5,0,0,1-.92,2.5,3.64,3.64,0,0,1-2.77,1h-4.45v-7Zm23.47,2.34a4.21,4.21,0,0,0-.48-.12,3.53,3.53,0,0,0-.56,0,3.37,3.37,0,0,0-2,.65,4.78,4.78,0,0,0-1.44,1.77l-.22-2.14h-3v14.77h3.32V350.51a2.69,2.69,0,0,1,1-1.16,3,3,0,0,1,1.62-.41l1.42.05Zm6.85.11h-3.31v14.77h3.31Zm0-6.53h-3.31v2.91h3.31Zm4.5,14.06A8.06,8.06,0,0,0,1362,359a7,7,0,0,0,9.82.14l.12-.12a8.08,8.08,0,0,0,1.82-5.44v-.28a8,8,0,0,0-1.82-5.4,6.89,6.89,0,0,0-9.75-.19c-.06.06-.13.12-.19.19a8,8,0,0,0-1.8,5.4Zm3.32-.29a6.51,6.51,0,0,1,.84-3.48,3.15,3.15,0,0,1,4.39-.82,3.08,3.08,0,0,1,.83.82,6.33,6.33,0,0,1,.87,3.48v.28a6.49,6.49,0,0,1-.87,3.52,3.19,3.19,0,0,1-4.45.76,3.27,3.27,0,0,1-.77-.76,6.56,6.56,0,0,1-.84-3.52Zm22.28-7.34-.48-.12a3.53,3.53,0,0,0-.56,0,3.42,3.42,0,0,0-2,.64,4.79,4.79,0,0,0-1.44,1.78L1381,346h-3v14.77h3.32V350.51a2.62,2.62,0,0,1,1-1.16,3,3,0,0,1,1.62-.41l1.42.05Zm6.85.1h-3.31v14.77h3.31V346Zm0-6.52h-3.31v2.91h3.31Zm5.93,2.93V346h-2.25v2.46h2.25v8.16a4.72,4.72,0,0,0,1,3.37,3.81,3.81,0,0,0,2.87,1.07,5.53,5.53,0,0,0,1.21-.13,3.69,3.69,0,0,0,1-.36l-.35-2.43a3,3,0,0,1-.49.13,3.29,3.29,0,0,1-.54.05,1.44,1.44,0,0,1-1-.39,1.78,1.78,0,0,1-.39-1.31v-8.16h2.64V346h-2.64v-3.59Zm13.84,3.59h-3.32v14.77h3.32V346Zm0-6.52h-3.32v2.91h3.32Zm16.17,8.62V346h-11.5v2.66h7.31l-7.46,9.93v2.18h12v-2.66H1421Zm13.8,12.45a6.85,6.85,0,0,0,2.22-1.24l-1.07-2.18a7.61,7.61,0,0,1-1.84.94,6.89,6.89,0,0,1-2.3.33,3.23,3.23,0,0,1-2.62-1.12,4.54,4.54,0,0,1-1-2.87l0-.07H1445v-1.95a7.14,7.14,0,0,0-1.59-4.86,5.8,5.8,0,0,0-4.58-1.81,5.88,5.88,0,0,0-4.64,2.11,7.85,7.85,0,0,0-1.85,5.35v.54a7.57,7.57,0,0,0,1.87,5.28,6.38,6.38,0,0,0,5,2.05,9.4,9.4,0,0,0,3.2-.5ZM1441,349.28a3.57,3.57,0,0,1,.72,2.29v.34h-5.86l0-.07a4.89,4.89,0,0,1,1-2.48,2.5,2.5,0,0,1,2-1,2.62,2.62,0,0,1,2.17.89Zm28.68,11.49a9.42,9.42,0,0,1-.39-1.65,11.36,11.36,0,0,1-.13-1.75V350.8a4.6,4.6,0,0,0-1.58-3.77,6.31,6.31,0,0,0-4.16-1.31,6.63,6.63,0,0,0-4.32,1.35,3.68,3.68,0,0,0-1.57,3.1l0,.08h3.19a1.72,1.72,0,0,1,.67-1.4,2.79,2.79,0,0,1,1.8-.55,2.69,2.69,0,0,1,2,.66,2.39,2.39,0,0,1,.68,1.81v1.3h-2.58a8.15,8.15,0,0,0-4.76,1.2,3.84,3.84,0,0,0-1.69,3.33,4.28,4.28,0,0,0,1.23,3.26,4.88,4.88,0,0,0,3.54,1.19,4.61,4.61,0,0,0,2.5-.7,5.82,5.82,0,0,0,1.79-1.74,7.67,7.67,0,0,0,.16,1.07c.08.35.17.72.29,1.09h3.35Zm-9-2.88a1.69,1.69,0,0,1-.55-1.34,2.15,2.15,0,0,1,.82-1.69,3.31,3.31,0,0,1,2.26-.71h2.64v2.18a3.13,3.13,0,0,1-1.33,1.43,4.13,4.13,0,0,1-2.26.63,2.27,2.27,0,0,1-1.58-.5ZM1474,346v14.77h3.31V350.05a3.65,3.65,0,0,1,1.26-1.18,3.5,3.5,0,0,1,1.73-.43,2.82,2.82,0,0,1,2.1.7,3.31,3.31,0,0,1,.69,2.37v9.26h3.32v-9.28a6.26,6.26,0,0,0-1.29-4.36,4.62,4.62,0,0,0-3.6-1.4,4.8,4.8,0,0,0-2.48.63,5.29,5.29,0,0,0-1.81,1.77L1477,346Zm16.64,7.87a8.35,8.35,0,0,0,1.52,5.21,5,5,0,0,0,4.23,2,4.72,4.72,0,0,0,2.32-.54,4.83,4.83,0,0,0,1.7-1.57l.33,1.83h2.79v-21.3h-3.32v8.13a4.87,4.87,0,0,0-1.64-1.39,4.74,4.74,0,0,0-2.15-.49,4.91,4.91,0,0,0-4.26,2.17,9.74,9.74,0,0,0-1.52,5.7v.28Zm3.32-.28a7.54,7.54,0,0,1,.8-3.72,2.68,2.68,0,0,1,2.5-1.42,3.17,3.17,0,0,1,1.75.46,3.48,3.48,0,0,1,1.2,1.27v6.44a3.43,3.43,0,0,1-1.19,1.29,3.37,3.37,0,0,1-1.78.45,2.76,2.76,0,0,1-2.5-1.22,5.9,5.9,0,0,1-.78-3.26v-.28Zm35.32-4.42h-8.69v-5.61h10v-2.65h-13.31v19.86h13.4v-2.66h-10.08v-6.28h8.69v-2.65ZM1537,346h-3.76l4.64,7.31-4.78,7.46h3.8l2.85-5.18,2.85,5.18h3.76l-4.76-7.46,4.64-7.31h-3.82l-2.72,5.07Zm25.9,7.59a9.68,9.68,0,0,0-1.51-5.69,4.93,4.93,0,0,0-4.26-2.17,4.67,4.67,0,0,0-2.32.55,4.91,4.91,0,0,0-1.72,1.58l-.32-1.86H1550v20.44h3.31v-7.16a4.67,4.67,0,0,0,1.67,1.32,5.13,5.13,0,0,0,2.22.45,5,5,0,0,0,4.22-2,8.33,8.33,0,0,0,1.51-5.2v-.28Zm-3.3.28a5.71,5.71,0,0,1-.84,3.28,2.83,2.83,0,0,1-2.53,1.25,3.5,3.5,0,0,1-1.79-.42,3,3,0,0,1-1.16-1.19v-6.67a3.26,3.26,0,0,1,1.16-1.23,3.23,3.23,0,0,1,1.76-.44,2.76,2.76,0,0,1,2.55,1.43,7.15,7.15,0,0,1,.85,3.7v.28Zm19.84,6.9a10.06,10.06,0,0,1-.4-1.64,12.87,12.87,0,0,1-.12-1.75v-6.57a4.59,4.59,0,0,0-1.58-3.77,6.33,6.33,0,0,0-4.17-1.31,6.61,6.61,0,0,0-4.32,1.35,3.7,3.7,0,0,0-1.56,3.1v.08h3.2a1.74,1.74,0,0,1,.68-1.41,3.24,3.24,0,0,1,3.74.11,2.37,2.37,0,0,1,.69,1.82v1.3H1573a8.09,8.09,0,0,0-4.75,1.19,3.82,3.82,0,0,0-1.69,3.34,4.26,4.26,0,0,0,1.23,3.26,4.84,4.84,0,0,0,3.53,1.19,4.64,4.64,0,0,0,2.51-.7,5.91,5.91,0,0,0,1.78-1.74,9.87,9.87,0,0,0,.16,1.07c.08.35.18.71.29,1.09h3.36Zm-9-2.87a1.71,1.71,0,0,1-.54-1.34,2.17,2.17,0,0,1,.81-1.69,3.42,3.42,0,0,1,2.28-.72h2.63v2.19a3.17,3.17,0,0,1-1.33,1.43,4.23,4.23,0,0,1-2.27.63,2.29,2.29,0,0,1-1.57-.51Zm13.34-11.9v14.77h3.33V350.05a3.45,3.45,0,0,1,1.25-1.18,3.51,3.51,0,0,1,1.74-.43,2.78,2.78,0,0,1,2.08.7,3.32,3.32,0,0,1,.7,2.37v9.26h3.31v-9.28a6.31,6.31,0,0,0-1.28-4.36,4.66,4.66,0,0,0-3.61-1.4,4.94,4.94,0,0,0-2.47.63,5.14,5.14,0,0,0-1.82,1.77l-.2-2.13Zm16.65,7.88a8.24,8.24,0,0,0,1.52,5.2,5,5,0,0,0,4.22,2,4.63,4.63,0,0,0,4-2.11l.33,1.82h2.78v-21.3H1610v8.13a4.81,4.81,0,0,0-1.65-1.39,4.71,4.71,0,0,0-2.15-.49,4.9,4.9,0,0,0-4.25,2.17,9.64,9.64,0,0,0-1.52,5.7v.28Zm3.32-.28a7.6,7.6,0,0,1,.8-3.72,2.68,2.68,0,0,1,2.5-1.42,3.25,3.25,0,0,1,1.75.45,3.51,3.51,0,0,1,1.2,1.28v6.44a3.28,3.28,0,0,1-1.2,1.28,3.36,3.36,0,0,1-1.78.46,2.73,2.73,0,0,1-2.48-1.22,5.83,5.83,0,0,1-.79-3.26v-.28Zm-221,26v14.76h3.32V383.48a2.76,2.76,0,0,1,1.12-1.1,3.41,3.41,0,0,1,1.71-.39,2.37,2.37,0,0,1,1.95.8,4.08,4.08,0,0,1,.66,2.61v8.92h3.32v-9.57a1.42,1.42,0,0,0,0-.29c0-.1,0-.22,0-.36a3.15,3.15,0,0,1,1.06-1.53,2.88,2.88,0,0,1,1.81-.58,2.41,2.41,0,0,1,1.94.77,4.13,4.13,0,0,1,.65,2.65v8.92h3.32v-8.9a7,7,0,0,0-1.29-4.62,4.36,4.36,0,0,0-3.52-1.53,4.84,4.84,0,0,0-2.62.7,5.13,5.13,0,0,0-1.8,1.93,3.94,3.94,0,0,0-1.56-2,4.52,4.52,0,0,0-2.48-.65,5.27,5.27,0,0,0-2.53.57,5,5,0,0,0-1.81,1.62l-.18-1.92h-3Zm27.8,0h-3.62l5.37,14.59-.55,1.34a5,5,0,0,1-.88,1.42,1.79,1.79,0,0,1-1.44.61l-.49,0-.51-.05-.36,2.57c.29.07.59.14.9.19a5.24,5.24,0,0,0,.88.08,4,4,0,0,0,3-1.09,7.46,7.46,0,0,0,1.65-2.63l6.12-17H1417l-3.23,10.32h-.08l-.33-1.49Zm34.08,14.77a9.42,9.42,0,0,1-.39-1.65,11.36,11.36,0,0,1-.13-1.75v-6.57a4.6,4.6,0,0,0-1.58-3.77,6.36,6.36,0,0,0-4.16-1.31,6.63,6.63,0,0,0-4.32,1.35,3.68,3.68,0,0,0-1.57,3.1l0,.08h3.19a1.74,1.74,0,0,1,.67-1.4,2.79,2.79,0,0,1,1.8-.55,2.69,2.69,0,0,1,2,.66,2.39,2.39,0,0,1,.68,1.81v1.3h-2.58a8.13,8.13,0,0,0-4.76,1.2,3.82,3.82,0,0,0-1.7,3.33,4.36,4.36,0,0,0,1.24,3.27,4.92,4.92,0,0,0,3.54,1.18,4.54,4.54,0,0,0,2.49-.69,5.92,5.92,0,0,0,1.8-1.76,7.67,7.67,0,0,0,.16,1.07,9.83,9.83,0,0,0,.29,1.09h3.35Zm-9-2.87a1.73,1.73,0,0,1-.56-1.35,2.21,2.21,0,0,1,.82-1.69,3.37,3.37,0,0,1,2.27-.71h2.63v2.18a3.2,3.2,0,0,1-1.33,1.44,4.1,4.1,0,0,1-2.26.62,2.24,2.24,0,0,1-1.57-.51Zm16.82-.84a6.73,6.73,0,0,1-.78-3.43v-.48a6.62,6.62,0,0,1,.78-3.4,2.79,2.79,0,0,1,2.64-1.36,2.73,2.73,0,0,1,2.09.85,2.91,2.91,0,0,1,.79,2.06h3l0-.08a5,5,0,0,0-1.61-3.94,6.9,6.9,0,0,0-9.32.56,8.1,8.1,0,0,0-1.74,5.31v.48a8.08,8.08,0,0,0,1.74,5.32,6.12,6.12,0,0,0,5,2.1,6.29,6.29,0,0,0,4.23-1.5,4.35,4.35,0,0,0,1.68-3.58l0-.08h-3a2.29,2.29,0,0,1-.83,1.79,3.09,3.09,0,0,1-2.05.71,2.81,2.81,0,0,1-2.64-1.35Zm16.07,0a6.83,6.83,0,0,1-.78-3.43v-.48a6.83,6.83,0,0,1,.78-3.4,2.82,2.82,0,0,1,2.65-1.36,2.73,2.73,0,0,1,2.08.85,2.88,2.88,0,0,1,.8,2.06h3l0-.08a5,5,0,0,0-1.6-3.94,6.9,6.9,0,0,0-9.32.56,8,8,0,0,0-1.74,5.31v.48a8,8,0,0,0,1.74,5.32,6.12,6.12,0,0,0,5,2.1,6.26,6.26,0,0,0,4.22-1.5,4.39,4.39,0,0,0,1.69-3.58l0-.08h-3a2.27,2.27,0,0,1-.84,1.79,3.05,3.05,0,0,1-2,.71,2.82,2.82,0,0,1-2.64-1.35Zm12-3.52a8,8,0,0,0,1.8,5.42,6.94,6.94,0,0,0,9.81.14l.12-.13a8,8,0,0,0,1.82-5.43v-.28a8,8,0,0,0-1.82-5.41,6.89,6.89,0,0,0-9.74-.19l-.19.19a8.07,8.07,0,0,0-1.8,5.41Zm3.31-.29a6.61,6.61,0,0,1,.85-3.48,3.16,3.16,0,0,1,4.39-.83,3.24,3.24,0,0,1,.82.83,6.34,6.34,0,0,1,.88,3.48v.28a6.36,6.36,0,0,1-.88,3.51,3.19,3.19,0,0,1-4.45.77,3.27,3.27,0,0,1-.76-.77,6.55,6.55,0,0,1-.85-3.51Zm24,7.52h2.89V379.54h-3.32v10.68a3.12,3.12,0,0,1-1.27,1.25,4.4,4.4,0,0,1-2,.43,2.33,2.33,0,0,1-1.9-.78,4.46,4.46,0,0,1-.62-2.72v-8.86h-3.31v8.84a7,7,0,0,0,1.34,4.71,5.23,5.23,0,0,0,6.17.88,5.09,5.09,0,0,0,1.76-1.81Zm7.73-14.77v14.76h3.31V383.6a3.56,3.56,0,0,1,1.26-1.18,3.51,3.51,0,0,1,1.74-.43,2.81,2.81,0,0,1,2.09.7,3.36,3.36,0,0,1,.69,2.37v9.25H1528V385a6.29,6.29,0,0,0-1.29-4.36,4.66,4.66,0,0,0-3.59-1.4,4.88,4.88,0,0,0-2.48.64,5.23,5.23,0,0,0-1.82,1.77l-.19-2.13h-3Zm18.08-3.59v3.59h-2.25V382h2.25v8.16a4.76,4.76,0,0,0,1,3.37,3.81,3.81,0,0,0,2.87,1.07,5.47,5.47,0,0,0,1.21-.13,3.69,3.69,0,0,0,1-.36l-.35-2.43a2.72,2.72,0,0,1-.49.13,3.07,3.07,0,0,1-.53.05,1.41,1.41,0,0,1-1.05-.39,1.76,1.76,0,0,1-.4-1.31V382h2.65v-2.46H1537V376Zm31.62,11.19a9.81,9.81,0,0,0-1.51-5.71,4.94,4.94,0,0,0-4.28-2.16,4.5,4.5,0,0,0-3.86,2v-8.2h-3.31v21.27h2.78l.32-1.92a4.64,4.64,0,0,0,1.71,1.64,4.81,4.81,0,0,0,2.39.56,5,5,0,0,0,4.25-2,8.4,8.4,0,0,0,1.51-5.21v-.26Zm-3.32.28a6,6,0,0,1-.78,3.27,2.73,2.73,0,0,1-2.49,1.2,3.4,3.4,0,0,1-1.89-.48,3.24,3.24,0,0,1-1.17-1.37v-6.21a3.53,3.53,0,0,1,1.17-1.37,3.39,3.39,0,0,1,1.86-.49,2.66,2.66,0,0,1,2.51,1.42,7.59,7.59,0,0,1,.79,3.72v.31Zm19.82,6.89a9.53,9.53,0,0,1-.39-1.64,11.57,11.57,0,0,1-.12-1.76v-6.57a4.63,4.63,0,0,0-1.58-3.77,6.39,6.39,0,0,0-4.17-1.31,6.66,6.66,0,0,0-4.32,1.35,3.7,3.7,0,0,0-1.56,3.1v.08h3.2a1.74,1.74,0,0,1,.67-1.4,2.8,2.8,0,0,1,1.81-.55,2.72,2.72,0,0,1,1.94.66,2.36,2.36,0,0,1,.68,1.82v1.29h-2.58a8.1,8.1,0,0,0-4.75,1.2,3.83,3.83,0,0,0-1.7,3.34,4.35,4.35,0,0,0,1.23,3.26,4.93,4.93,0,0,0,3.54,1.19,4.7,4.7,0,0,0,2.5-.7,5.83,5.83,0,0,0,1.79-1.74,7.76,7.76,0,0,0,.16,1.06c.08.36.18.72.29,1.09Zm-9-2.87a1.72,1.72,0,0,1-.54-1.35,2.16,2.16,0,0,1,.81-1.68,3.33,3.33,0,0,1,2.28-.72H1578v2.18a3.18,3.18,0,0,1-1.32,1.44,4.23,4.23,0,0,1-2.27.63,2.32,2.32,0,0,1-1.58-.52Zm21,.18a3.33,3.33,0,0,1-2,.49,3.75,3.75,0,0,1-2.14-.58,2.24,2.24,0,0,1-.92-1.87h-3.09l0,.08a4.13,4.13,0,0,0,1.59,3.38,6.59,6.59,0,0,0,4.55,1.48,7,7,0,0,0,4.33-1.25,3.84,3.84,0,0,0,1.63-3.23,3.39,3.39,0,0,0-1.34-2.85,10.07,10.07,0,0,0-4.12-1.61,6.28,6.28,0,0,1-2.41-.82,1.48,1.48,0,0,1-.6-1.23,1.69,1.69,0,0,1,.63-1.32,2.8,2.8,0,0,1,1.83-.54,2.7,2.7,0,0,1,1.92.66,2.07,2.07,0,0,1,.68,1.57h3.19l0-.08a3.93,3.93,0,0,0-1.52-3.3,6.52,6.52,0,0,0-4.3-1.33,6.16,6.16,0,0,0-4.13,1.31,4,4,0,0,0-1.57,3.16,3.33,3.33,0,0,0,1.36,2.81,10.12,10.12,0,0,0,4,1.59,6.52,6.52,0,0,1,2.45.89,1.58,1.58,0,0,1,.34,2.21,1.67,1.67,0,0,1-.38.37Zm17.86,2.47a6.91,6.91,0,0,0,2.21-1.25l-1.06-2.17a7.86,7.86,0,0,1-1.85.94,7.38,7.38,0,0,1-2.29.33,3.3,3.3,0,0,1-2.63-1.12,4.71,4.71,0,0,1-1-2.87l0-.07h9.22v-2a7.05,7.05,0,0,0-1.59-4.85,6.39,6.39,0,0,0-9.05.13,1.29,1.29,0,0,0-.16.17,7.77,7.77,0,0,0-1.86,5.34v.54a7.54,7.54,0,0,0,1.87,5.28,6.41,6.41,0,0,0,5,2.05,9.17,9.17,0,0,0,3.2-.51Zm-1.41-11.27a3.49,3.49,0,0,1,.71,2.29v.32h-5.85l0-.07a4.75,4.75,0,0,1,1-2.47,2.49,2.49,0,0,1,2-1,2.62,2.62,0,0,1,2.17.89Z" fill="#494949"/>
        </g>
        <g>
          <polygon points="1007.58 714.5 1034.45 643.09 1641.88 643.09 1048.7 669.36 1007.58 714.5" fill="#0c86bc"/>
          <polygon points="1038.63 632.15 1641.88 632.15 1641.88 545.61 1071.38 545.61 1038.63 632.15" fill="#f1f2f2"/>
          <path d="M1077.91,588.88a21.53,21.53,0,1,1-21.52-21.53A21.52,21.52,0,0,1,1077.91,588.88Z" fill="#f1f2f2"/>
          <path d="M1056.39,613a24.09,24.09,0,1,1,24.08-24.09A24.12,24.12,0,0,1,1056.39,613Zm0-43.06a19,19,0,1,0,19,19A19,19,0,0,0,1056.39,569.91Z" fill="#fff"/>
          <path d="M1065.2,587.27H1058v-7.21a1.47,1.47,0,0,0-1.47-1.47h-.29a1.47,1.47,0,0,0-1.47,1.47v7.21h-7.2a1.47,1.47,0,0,0-1.47,1.47V589a1.47,1.47,0,0,0,1.47,1.47h7.2v7.2a1.47,1.47,0,0,0,1.47,1.47h.29a1.47,1.47,0,0,0,1.47-1.47v-7.2h7.2a1.47,1.47,0,0,0,1.47-1.47v-.28A1.47,1.47,0,0,0,1065.2,587.27Z" fill="#0c86bc"/>
          <path id="Shorten_my_sales_cycles_copy" data-name="Shorten my sales cycles copy" d="M1291.14,591.09a4.83,4.83,0,0,1-2.87.74,5.55,5.55,0,0,1-3.26-.9,3.12,3.12,0,0,1-1.26-2.71h-3.19l0,.08a5.09,5.09,0,0,0,2.28,4.53,9.26,9.26,0,0,0,5.46,1.66,8.55,8.55,0,0,0,5.22-1.47,4.66,4.66,0,0,0,2-3.95,5,5,0,0,0-1.66-3.87,11.76,11.76,0,0,0-4.88-2.37,11.66,11.66,0,0,1-3.49-1.42,2.24,2.24,0,0,1-1.06-1.88,2.51,2.51,0,0,1,1-2,5.21,5.21,0,0,1,5.76.16,3.18,3.18,0,0,1,1,2.48h3.17l0-.09a5.22,5.22,0,0,0-1.91-4.23,7.6,7.6,0,0,0-5.27-1.77,8.1,8.1,0,0,0-5.12,1.55,4.83,4.83,0,0,0-2,4,4.62,4.62,0,0,0,1.79,3.78,13.93,13.93,0,0,0,5.13,2.31,8.7,8.7,0,0,1,3.26,1.41,2.56,2.56,0,0,1,.92,2A2.37,2.37,0,0,1,1291.14,591.09Zm12.09-18.18h-3.32V594.2h3.32V583.39a3.6,3.6,0,0,1,1.27-1.12,3.76,3.76,0,0,1,1.74-.4,2.63,2.63,0,0,1,2.09.78,3.72,3.72,0,0,1,.7,2.52v9h3.32v-9a6.75,6.75,0,0,0-1.32-4.57,4.68,4.68,0,0,0-3.67-1.48,4.8,4.8,0,0,0-2.34.58,5.22,5.22,0,0,0-1.79,1.61V572.9ZM1316.57,587a8.09,8.09,0,0,0,1.8,5.42,6.94,6.94,0,0,0,9.81.13l.13-.12a8,8,0,0,0,1.81-5.43v-.29a8,8,0,0,0-1.81-5.41,6.9,6.9,0,0,0-9.75-.19l-.19.19a8.07,8.07,0,0,0-1.8,5.41V587Zm3.32-.3a6.47,6.47,0,0,1,.84-3.47,3.16,3.16,0,0,1,4.39-.83,3.27,3.27,0,0,1,.83.83,6.3,6.3,0,0,1,.87,3.47V587a6.49,6.49,0,0,1-.87,3.52,3.19,3.19,0,0,1-4.45.76,3.27,3.27,0,0,1-.77-.76,6.56,6.56,0,0,1-.84-3.52Zm22.28-7.34-.48-.12a3.43,3.43,0,0,0-.56-.05,3.32,3.32,0,0,0-2,.65,4.59,4.59,0,0,0-1.44,1.77l-.22-2.14h-3V594.2h3.31V583.94a2.77,2.77,0,0,1,1-1.16,3,3,0,0,1,1.61-.41l1.42.06Zm4.43-3.48v3.59h-2.26v2.45h2.26v8.17a4.65,4.65,0,0,0,1,3.36,3.8,3.8,0,0,0,2.87,1.07,5,5,0,0,0,1.22-.13,3.69,3.69,0,0,0,1-.36l-.36-2.43a2.72,2.72,0,0,1-.49.13,2.38,2.38,0,0,1-.53,0,1.41,1.41,0,0,1-1-.39,1.75,1.75,0,0,1-.4-1.3v-8.17h2.65v-2.45h-2.65v-3.59ZM1366.42,594a6.91,6.91,0,0,0,2.21-1.25l-1.06-2.18a7.27,7.27,0,0,1-1.84.94,6.89,6.89,0,0,1-2.3.33,3.23,3.23,0,0,1-2.62-1.12,4.61,4.61,0,0,1-1-2.87l0-.06H1369v-2a7.1,7.1,0,0,0-1.59-4.85,5.77,5.77,0,0,0-4.58-1.81,5.84,5.84,0,0,0-4.64,2.11,7.81,7.81,0,0,0-1.85,5.34v.55a7.54,7.54,0,0,0,1.87,5.27,6.42,6.42,0,0,0,5,2.06,9.11,9.11,0,0,0,3.19-.51ZM1365,582.71a3.58,3.58,0,0,1,.72,2.3v.33h-5.86l0-.07a4.89,4.89,0,0,1,1-2.48,2.52,2.52,0,0,1,2-1,2.61,2.61,0,0,1,2.17.9Zm8-3.27V594.2h3.32V583.49a3.59,3.59,0,0,1,1.26-1.19,3.38,3.38,0,0,1,1.73-.42,2.82,2.82,0,0,1,2.1.69,3.4,3.4,0,0,1,.69,2.38v9.26h3.31v-9.29a6.28,6.28,0,0,0-1.29-4.36,4.62,4.62,0,0,0-3.59-1.4,4.88,4.88,0,0,0-2.48.64,5.29,5.29,0,0,0-1.82,1.76l-.19-2.13h-3Zm25.62,0V594.2H1402V583.36a2.89,2.89,0,0,1,1.12-1.1,3.58,3.58,0,0,1,1.71-.39,2.37,2.37,0,0,1,1.94.8,4.12,4.12,0,0,1,.67,2.62v8.91h3.31v-9.57a2.72,2.72,0,0,0,0-.28c0-.09,0-.22,0-.35a3.14,3.14,0,0,1,1.06-1.54,2.84,2.84,0,0,1,1.8-.57,2.39,2.39,0,0,1,2,.76,4.13,4.13,0,0,1,.65,2.65v8.91h3.31v-8.9a7,7,0,0,0-1.29-4.62,4.36,4.36,0,0,0-3.51-1.52,4.84,4.84,0,0,0-2.62.7,5.1,5.1,0,0,0-1.8,1.92,4,4,0,0,0-1.56-2,4.53,4.53,0,0,0-2.48-.66,5.39,5.39,0,0,0-2.53.57,5.18,5.18,0,0,0-1.82,1.63l-.17-1.93Zm27.8,0h-3.62l5.37,14.59-.55,1.34a5.2,5.2,0,0,1-.88,1.42,1.79,1.79,0,0,1-1.44.61l-.49,0-.51,0-.36,2.57c.29.07.59.14.9.19a5.24,5.24,0,0,0,.88.08,4,4,0,0,0,3-1.09,7.46,7.46,0,0,0,1.65-2.63l6.12-17h-3.64l-3.23,10.32h-.08l-.33-1.49Zm29.44,12.08a3.44,3.44,0,0,1-2,.49,3.75,3.75,0,0,1-2.13-.59,2.23,2.23,0,0,1-.93-1.87h-3.08l0,.08a4.17,4.17,0,0,0,1.58,3.39,6.58,6.58,0,0,0,4.55,1.47,7,7,0,0,0,4.33-1.24,3.88,3.88,0,0,0,1.65-3.23,3.41,3.41,0,0,0-1.35-2.85,10.13,10.13,0,0,0-4.13-1.62,6.26,6.26,0,0,1-2.41-.81,1.48,1.48,0,0,1-.59-1.23,1.68,1.68,0,0,1,.63-1.32,3.24,3.24,0,0,1,3.74.11,2.09,2.09,0,0,1,.7,1.57h3.18l0-.08a3.94,3.94,0,0,0-1.53-3.29,6.45,6.45,0,0,0-4.29-1.34,6.26,6.26,0,0,0-4.14,1.32,4,4,0,0,0-1.57,3.16,3.38,3.38,0,0,0,1.36,2.81,10.27,10.27,0,0,0,4,1.59,6.41,6.41,0,0,1,2.44.89,1.58,1.58,0,0,1,.35,2.21,1.71,1.71,0,0,1-.39.37Zm20.58,2.69a8.63,8.63,0,0,1-.4-1.65,12.76,12.76,0,0,1-.12-1.75v-6.57a4.59,4.59,0,0,0-1.59-3.77,6.29,6.29,0,0,0-4.16-1.31,6.66,6.66,0,0,0-4.32,1.35,3.65,3.65,0,0,0-1.56,3.1v.08h3.2a1.69,1.69,0,0,1,.66-1.4,2.8,2.8,0,0,1,1.81-.55,2.68,2.68,0,0,1,2,.66,2.4,2.4,0,0,1,.69,1.81v1.3h-2.59a8.13,8.13,0,0,0-4.76,1.2,3.82,3.82,0,0,0-1.7,3.33,4.33,4.33,0,0,0,1.24,3.26,4.88,4.88,0,0,0,3.54,1.19,4.47,4.47,0,0,0,2.49-.7,5.75,5.75,0,0,0,1.8-1.74,7.67,7.67,0,0,0,.16,1.07,9.83,9.83,0,0,0,.29,1.09h3.36Zm-9-2.88a1.69,1.69,0,0,1-.55-1.34,2.17,2.17,0,0,1,.81-1.69,3.33,3.33,0,0,1,2.27-.71h2.64v2.18a3.15,3.15,0,0,1-1.34,1.43,4.08,4.08,0,0,1-2.25.63,2.27,2.27,0,0,1-1.58-.5Zm16.9-18.42h-3.32V594.2h3.32V572.91ZM1499,594a6.91,6.91,0,0,0,2.21-1.25l-1.06-2.18a7.17,7.17,0,0,1-1.85.94,6.83,6.83,0,0,1-2.29.33,3.27,3.27,0,0,1-2.63-1.12,4.66,4.66,0,0,1-1-2.87l0-.06h9.22v-2A7.06,7.06,0,0,0,1500,581a5.76,5.76,0,0,0-4.57-1.81,5.84,5.84,0,0,0-4.64,2.11,7.81,7.81,0,0,0-1.85,5.34v.55a7.53,7.53,0,0,0,1.86,5.27,6.46,6.46,0,0,0,5,2.06A9.15,9.15,0,0,0,1499,594Zm-1.41-11.28a3.52,3.52,0,0,1,.71,2.3v.33h-5.85l0-.07a4.89,4.89,0,0,1,1-2.48,2.5,2.5,0,0,1,2-1,2.61,2.61,0,0,1,2.17.9Zm15.68,8.81a3.42,3.42,0,0,1-2,.49,3.68,3.68,0,0,1-2.13-.59,2.21,2.21,0,0,1-.93-1.87h-3.08l0,.09a4.16,4.16,0,0,0,1.59,3.38,6.6,6.6,0,0,0,4.54,1.48,7,7,0,0,0,4.33-1.25,3.86,3.86,0,0,0,1.65-3.23,3.43,3.43,0,0,0-1.35-2.85,10.29,10.29,0,0,0-4.12-1.62,6.26,6.26,0,0,1-2.41-.81,1.49,1.49,0,0,1-.6-1.23,1.69,1.69,0,0,1,.63-1.32,2.75,2.75,0,0,1,1.83-.54,2.68,2.68,0,0,1,1.91.66,2.08,2.08,0,0,1,.7,1.57H1517l0-.09a3.93,3.93,0,0,0-1.52-3.29,6.46,6.46,0,0,0-4.3-1.33,6.16,6.16,0,0,0-4.13,1.31,4,4,0,0,0-1.57,3.16,3.34,3.34,0,0,0,1.35,2.81,10.27,10.27,0,0,0,4,1.59,6.41,6.41,0,0,1,2.44.89,1.58,1.58,0,0,1,.35,2.21,1.71,1.71,0,0,1-.39.37Zm20.14-1a6.91,6.91,0,0,1-.77-3.43v-.47a6.83,6.83,0,0,1,.77-3.41,2.81,2.81,0,0,1,2.66-1.35,2.75,2.75,0,0,1,2.08.84,2.9,2.9,0,0,1,.8,2.07h3l0-.09a5,5,0,0,0-1.61-3.93,6.89,6.89,0,0,0-9.33.56,8.07,8.07,0,0,0-1.74,5.31v.47a8.14,8.14,0,0,0,1.74,5.33,6.13,6.13,0,0,0,5,2.09,6.21,6.21,0,0,0,4.22-1.5,4.36,4.36,0,0,0,1.69-3.57l0-.08h-3a2.24,2.24,0,0,1-.84,1.78,3,3,0,0,1-2,.71,2.81,2.81,0,0,1-2.66-1.34Zm14.71-11h-3.61L1549.9,594l-.55,1.34a5,5,0,0,1-.88,1.42,1.79,1.79,0,0,1-1.44.61l-.49,0-.5,0-.37,2.57c.28.07.59.14.91.19a4.37,4.37,0,0,0,.88.08,4,4,0,0,0,3-1.09,7.48,7.48,0,0,0,1.66-2.63l6.11-17h-3.63l-3.23,10.32h-.09l-.32-1.49Zm16.74,11a6.92,6.92,0,0,1-.78-3.43v-.47a6.84,6.84,0,0,1,.78-3.41,2.81,2.81,0,0,1,2.65-1.35,2.72,2.72,0,0,1,2.08.84,3,3,0,0,1,.81,2.07h3l0-.09a4.94,4.94,0,0,0-1.59-3.93,6.88,6.88,0,0,0-9.32.56,8,8,0,0,0-1.75,5.31v.47a8.09,8.09,0,0,0,1.75,5.33,6.08,6.08,0,0,0,5,2.09,6.26,6.26,0,0,0,4.23-1.5,4.35,4.35,0,0,0,1.68-3.57l0-.08h-3a2.24,2.24,0,0,1-.84,1.78,3.07,3.07,0,0,1-2,.71,2.79,2.79,0,0,1-2.65-1.34Zm16.16-17.58h-3.32V594.2h3.32V572.91ZM1595.69,594a7.13,7.13,0,0,0,2.21-1.25l-1.07-2.18a7.47,7.47,0,0,1-1.84,1,7.13,7.13,0,0,1-2.29.32,3.24,3.24,0,0,1-2.63-1.11,4.72,4.72,0,0,1-1-2.87l0-.07h9.23v-2a7.06,7.06,0,0,0-1.6-4.85,6.39,6.39,0,0,0-9,.13l-.16.17a7.77,7.77,0,0,0-1.86,5.34v.55a7.55,7.55,0,0,0,1.88,5.27,6.39,6.39,0,0,0,5,2.06,9.21,9.21,0,0,0,3.2-.51Zm-1.41-11.27A3.59,3.59,0,0,1,1595,585v.33h-5.86l0-.07a4.83,4.83,0,0,1,1-2.48,2.46,2.46,0,0,1,2-1,2.65,2.65,0,0,1,2.17.9Zm15.68,8.8a3.4,3.4,0,0,1-2,.49,3.69,3.69,0,0,1-2.12-.58,2.17,2.17,0,0,1-.92-1.87h-3.09l0,.08a4.15,4.15,0,0,0,1.58,3.38,6.63,6.63,0,0,0,4.54,1.48,7,7,0,0,0,4.33-1.25,3.81,3.81,0,0,0,1.65-3.23,3.39,3.39,0,0,0-1.34-2.85,10.11,10.11,0,0,0-4.13-1.61,6.45,6.45,0,0,1-2.41-.82,1.51,1.51,0,0,1-.59-1.23,1.69,1.69,0,0,1,.63-1.32,3.23,3.23,0,0,1,3.74.12,2.08,2.08,0,0,1,.69,1.57h3.18l0-.08a3.92,3.92,0,0,0-1.5-3.3,6.56,6.56,0,0,0-4.31-1.33,6.13,6.13,0,0,0-4.12,1.31,4,4,0,0,0-1.58,3.16,3.36,3.36,0,0,0,1.35,2.81,10.27,10.27,0,0,0,4,1.59,6.52,6.52,0,0,1,2.45.89,1.58,1.58,0,0,1,0,2.58Z" fill="#494949"/>
        </g>
        <g>
          <polygon points="922.35 934.43 949.23 863.01 1641.88 863.01 966.52 890.73 922.35 934.43" fill="#0c86bc"/>
          <polygon points="954.48 851.37 1641.88 851.37 1641.88 764.83 987.23 764.83 954.48 851.37" fill="#f1f2f2"/>
          <circle cx="972.31" cy="808.1" r="21.53" transform="translate(-35.92 1570.91) rotate(-76.84)" fill="#f1f2f2"/>
          <path d="M972.31,832.19A24.09,24.09,0,1,1,996.4,808.1,24.12,24.12,0,0,1,972.31,832.19Zm0-43.06a19,19,0,1,0,19,19A19,19,0,0,0,972.31,789.13Z" fill="#fff"/>
          <path d="M981.12,806.49h-7.2v-7.2a1.47,1.47,0,0,0-1.47-1.47h-.28a1.47,1.47,0,0,0-1.47,1.47v7.2h-7.21A1.47,1.47,0,0,0,962,808v.28a1.47,1.47,0,0,0,1.47,1.47h7.21v7.2a1.46,1.46,0,0,0,1.47,1.47h.28a1.47,1.47,0,0,0,1.47-1.47v-7.2h7.2a1.47,1.47,0,0,0,1.47-1.47V808A1.47,1.47,0,0,0,981.12,806.49Z" fill="#0c86bc"/>
          <path id="Give_me_higher_conversion_rates_copy" data-name="Give me higher conversion rates copy" d="M1193,807.75h-7.26v2.48h4v4a3.47,3.47,0,0,1-1.41.85,7.19,7.19,0,0,1-2.52.36,4.51,4.51,0,0,1-3.56-1.54,5.71,5.71,0,0,1-1.37-3.95V805.8a5.94,5.94,0,0,1,1.26-3.91,4.07,4.07,0,0,1,3.32-1.54,4.32,4.32,0,0,1,3.06,1,3.82,3.82,0,0,1,1.17,2.64h3.14l0-.08a5.85,5.85,0,0,0-2-4.5,8,8,0,0,0-5.45-1.73,7.52,7.52,0,0,0-5.66,2.27,8.14,8.14,0,0,0-2.19,5.88V810a7.87,7.87,0,0,0,2.32,5.87,8.12,8.12,0,0,0,5.91,2.27,10.35,10.35,0,0,0,4.65-.92,7,7,0,0,0,2.6-2.06v-7.41Zm8.3-4.67H1198v14.77h3.31Zm0-6.53H1198v2.91h3.31Zm7,6.53h-3.43l5.27,14.77H1213l5.25-14.77h-3.43l-2.94,9.77-.26,1.2h-.08l-.24-1.2Zm22.51,14.55a7.13,7.13,0,0,0,2.21-1.25l-1.07-2.18a7.65,7.65,0,0,1-1.84.95,7.13,7.13,0,0,1-2.29.32,3.27,3.27,0,0,1-2.63-1.11,4.65,4.65,0,0,1-1-2.88l0-.06h9.21v-2a7.1,7.1,0,0,0-1.59-4.85,5.77,5.77,0,0,0-4.58-1.81,5.85,5.85,0,0,0-4.64,2.11,7.82,7.82,0,0,0-1.84,5.34v.55a7.51,7.51,0,0,0,1.86,5.28,6.38,6.38,0,0,0,5,2,9.16,9.16,0,0,0,3.2-.5Zm-1.42-11.28a3.53,3.53,0,0,1,.72,2.3V809h-5.86l0-.07a4.79,4.79,0,0,1,1-2.48,2.5,2.5,0,0,1,2-1,2.63,2.63,0,0,1,2.18.9Zm16.44-3.27v14.77h3.32V807a2.89,2.89,0,0,1,1.12-1.1,3.47,3.47,0,0,1,1.71-.39,2.37,2.37,0,0,1,1.94.8,4.1,4.1,0,0,1,.67,2.62v8.91h3.31v-9.57c0-.09,0-.19,0-.29s0-.21,0-.35a3.14,3.14,0,0,1,1.06-1.54,2.84,2.84,0,0,1,1.8-.57,2.39,2.39,0,0,1,2,.76,4.16,4.16,0,0,1,.65,2.66v8.91h3.31V809a7,7,0,0,0-1.29-4.62,4.36,4.36,0,0,0-3.51-1.52,4.84,4.84,0,0,0-2.62.7,5,5,0,0,0-1.8,1.92,4,4,0,0,0-1.56-2,4.53,4.53,0,0,0-2.48-.66,5.39,5.39,0,0,0-2.53.57A5.09,5.09,0,0,0,1249,805l-.17-1.93h-3Zm35,14.55a6.91,6.91,0,0,0,2.21-1.25l-1.06-2.18a7.53,7.53,0,0,1-1.85.95,7.09,7.09,0,0,1-2.29.32,3.29,3.29,0,0,1-2.63-1.11,4.65,4.65,0,0,1-1-2.88l0-.06h9.21v-2a7.05,7.05,0,0,0-1.59-4.85,5.77,5.77,0,0,0-4.58-1.81,5.83,5.83,0,0,0-4.63,2.11,7.83,7.83,0,0,0-1.85,5.34v.55a7.56,7.56,0,0,0,1.86,5.28,6.42,6.42,0,0,0,5,2,9.16,9.16,0,0,0,3.2-.5Zm-1.41-11.28a3.52,3.52,0,0,1,.71,2.3V809h-5.85l0-.07a4.89,4.89,0,0,1,1-2.48,2.5,2.5,0,0,1,2-1,2.61,2.61,0,0,1,2.17.9Zm19.71-9.8h-3.32v21.3h3.32V807a3.56,3.56,0,0,1,1.27-1.11,3.65,3.65,0,0,1,1.74-.41,2.67,2.67,0,0,1,2.09.78,3.75,3.75,0,0,1,.7,2.53v9h3.32v-9a6.75,6.75,0,0,0-1.32-4.57,4.64,4.64,0,0,0-3.66-1.48,4.85,4.85,0,0,0-2.34.57,5.28,5.28,0,0,0-1.8,1.62v-8.44Zm17.21,6.53H1313v14.77h3.32Zm0-6.53H1313v2.91h3.32Zm4.23,14.4a8.2,8.2,0,0,0,1.54,5.2,5.08,5.08,0,0,0,4.26,2,4.79,4.79,0,0,0,2.17-.46,4.57,4.57,0,0,0,1.65-1.34v1.51a3.08,3.08,0,0,1-.84,2.37,3.73,3.73,0,0,1-2.63.77,8.24,8.24,0,0,1-2-.23,7.72,7.72,0,0,1-1.81-.67l-.71,2.61a10.69,10.69,0,0,0,2.26.81,9.6,9.6,0,0,0,2.32.31,7.29,7.29,0,0,0,5-1.56,5.58,5.58,0,0,0,1.76-4.41V803.08h-2.76l-.32,1.92a5,5,0,0,0-1.7-1.63,4.64,4.64,0,0,0-2.33-.56,4.93,4.93,0,0,0-4.29,2.17,9.62,9.62,0,0,0-1.53,5.69V811Zm3.32-.29a7.39,7.39,0,0,1,.82-3.71,2.75,2.75,0,0,1,2.54-1.43,3.19,3.19,0,0,1,1.75.46,3.51,3.51,0,0,1,1.2,1.25v6.47a3.14,3.14,0,0,1-3,1.72,2.81,2.81,0,0,1-2.52-1.22,5.88,5.88,0,0,1-.81-3.25v-.29Zm17.51-14.11H1338v21.3h3.31V807a3.51,3.51,0,0,1,1.28-1.11,3.65,3.65,0,0,1,1.74-.41,2.67,2.67,0,0,1,2.09.78,3.75,3.75,0,0,1,.7,2.53v9h3.31v-9a6.69,6.69,0,0,0-1.31-4.57,4.66,4.66,0,0,0-3.67-1.48,4.91,4.91,0,0,0-2.34.57,5.25,5.25,0,0,0-1.79,1.62v-8.44Zm23.21,21.07a6.93,6.93,0,0,0,2.21-1.25l-1.07-2.17a8,8,0,0,1-1.84.94,7.42,7.42,0,0,1-2.29.33,3.27,3.27,0,0,1-2.63-1.12,4.62,4.62,0,0,1-1-2.87l0-.07h9.21v-2a7.1,7.1,0,0,0-1.59-4.85,5.77,5.77,0,0,0-4.58-1.81,5.85,5.85,0,0,0-4.63,2.11,7.83,7.83,0,0,0-1.85,5.34v.56a7.56,7.56,0,0,0,1.86,5.28,6.38,6.38,0,0,0,5,2,9,9,0,0,0,3.21-.5Zm-1.42-11.27a3.52,3.52,0,0,1,.72,2.29V809H1358l0-.07a4.72,4.72,0,0,1,1-2.48,2.5,2.5,0,0,1,2-1,2.64,2.64,0,0,1,2.18.9ZM1378.7,803a4.15,4.15,0,0,0-.48-.11,2.59,2.59,0,0,0-.56-.05,3.31,3.31,0,0,0-2,.64,4.69,4.69,0,0,0-1.44,1.78l-.22-2.15h-3v14.78h3.31V807.59a2.71,2.71,0,0,1,1-1.16,3,3,0,0,1,1.61-.41l1.42.05Zm15.13,11.16a6.76,6.76,0,0,1-.77-3.42v-.48a6.69,6.69,0,0,1,.77-3.4,2.82,2.82,0,0,1,2.65-1.36,2.71,2.71,0,0,1,2.08.85,2.86,2.86,0,0,1,.8,2.06h3l0-.08a5,5,0,0,0-1.61-3.94,6.89,6.89,0,0,0-9.32.56,8.1,8.1,0,0,0-1.74,5.31v.48a8,8,0,0,0,1.74,5.33,6.12,6.12,0,0,0,5,2.1,6.26,6.26,0,0,0,4.22-1.5,4.38,4.38,0,0,0,1.69-3.58l0-.08h-3a2.27,2.27,0,0,1-.84,1.79,3.05,3.05,0,0,1-2,.71,2.81,2.81,0,0,1-2.64-1.34Zm11.73-3.51a8.09,8.09,0,0,0,1.8,5.42,6.94,6.94,0,0,0,9.81.13l.13-.12a8.07,8.07,0,0,0,1.82-5.43v-.28a8,8,0,0,0-1.82-5.41,6.9,6.9,0,0,0-9.75-.19l-.19.19a8,8,0,0,0-1.8,5.41Zm3.32-.3a6.47,6.47,0,0,1,.84-3.47,3.16,3.16,0,0,1,4.39-.83,3.12,3.12,0,0,1,.83.83,6.3,6.3,0,0,1,.87,3.47v.28a6.47,6.47,0,0,1-.87,3.52,3.2,3.2,0,0,1-4.45.77,3.13,3.13,0,0,1-.77-.77,6.56,6.56,0,0,1-.84-3.52Zm14.22-7.24v14.78h3.32V807.13a3.57,3.57,0,0,1,1.26-1.18,3.47,3.47,0,0,1,1.73-.43,2.83,2.83,0,0,1,2.1.7,3.4,3.4,0,0,1,.69,2.38v9.25h3.33v-9.28a6.26,6.26,0,0,0-1.29-4.36,4.62,4.62,0,0,0-3.6-1.4,4.9,4.9,0,0,0-2.48.63,5.41,5.41,0,0,0-1.82,1.77l-.19-2.13h-3.05Zm19.1,0h-3.42l5.27,14.78h2.88l5.25-14.77h-3.43l-2.94,9.77-.25,1.2h-.09l-.24-1.2Zm22.5,14.55a6.72,6.72,0,0,0,2.21-1.25l-1.06-2.17a8,8,0,0,1-1.84.94,7.49,7.49,0,0,1-2.3.33,3.27,3.27,0,0,1-2.63-1.12,4.68,4.68,0,0,1-1-2.87l0-.07h9.21v-2a7,7,0,0,0-1.59-4.85,5.77,5.77,0,0,0-4.58-1.81,5.86,5.86,0,0,0-4.63,2.11,7.83,7.83,0,0,0-1.85,5.34v.56a7.56,7.56,0,0,0,1.86,5.28,6.42,6.42,0,0,0,5,2,9,9,0,0,0,3.21-.5Zm-1.41-11.27a3.57,3.57,0,0,1,.72,2.29V809h-5.84l0-.07a4.89,4.89,0,0,1,1-2.48,2.5,2.5,0,0,1,2-1,2.61,2.61,0,0,1,2.17.9Zm15.57-3.37a4.21,4.21,0,0,0-.48-.12,3.46,3.46,0,0,0-2.59.59,4.89,4.89,0,0,0-1.44,1.78l-.21-2.14h-3v14.76h3.31V807.59a2.71,2.71,0,0,1,1-1.16A2.93,2.93,0,0,1,1477,806l1.42.05Zm10.65,12.19a3.46,3.46,0,0,1-2,.49,3.71,3.71,0,0,1-2.13-.59,2.2,2.2,0,0,1-.93-1.87h-3.09l0,.08a4.17,4.17,0,0,0,1.58,3.39,6.63,6.63,0,0,0,4.55,1.47,7,7,0,0,0,4.33-1.24,3.85,3.85,0,0,0,1.64-3.23,3.37,3.37,0,0,0-1.34-2.85,10.13,10.13,0,0,0-4.13-1.62,6.26,6.26,0,0,1-2.41-.81,1.46,1.46,0,0,1-.59-1.24,1.67,1.67,0,0,1,.63-1.31,2.65,2.65,0,0,1,1.82-.54,2.69,2.69,0,0,1,1.92.65,2.13,2.13,0,0,1,.7,1.57h3.18l0-.08a4,4,0,0,0-1.52-3.3,6.51,6.51,0,0,0-4.29-1.33,6.31,6.31,0,0,0-4.14,1.31,4,4,0,0,0-1.57,3.17,3.35,3.35,0,0,0,1.36,2.81,10.21,10.21,0,0,0,4,1.59,6.51,6.51,0,0,1,2.44.88,1.58,1.58,0,0,1,.35,2.21,1.56,1.56,0,0,1-.39.38Zm11.59-12.08h-3.32v14.76h3.32V803.08Zm0-6.53h-3.32v2.91h3.32Zm4.21,14.06a8,8,0,0,0,1.81,5.42,6.94,6.94,0,0,0,9.81.14l.12-.13a8,8,0,0,0,1.82-5.43v-.28a8,8,0,0,0-1.82-5.4,6.89,6.89,0,0,0-9.74-.2l-.19.2a8,8,0,0,0-1.81,5.4Zm3.32-.29a6.51,6.51,0,0,1,.84-3.48,3.16,3.16,0,0,1,4.39-.83,3.4,3.4,0,0,1,.82.83,6.34,6.34,0,0,1,.88,3.48v.28a6.36,6.36,0,0,1-.88,3.51,3.19,3.19,0,0,1-4.45.77,3.27,3.27,0,0,1-.76-.77,6.63,6.63,0,0,1-.84-3.51Zm14.22-7.24v14.76h3.32V807.13a3.48,3.48,0,0,1,3-1.61,2.83,2.83,0,0,1,2.1.7,3.3,3.3,0,0,1,.68,2.38v9.25h3.32v-9.28a6.26,6.26,0,0,0-1.29-4.36,4.62,4.62,0,0,0-3.59-1.4,5,5,0,0,0-2.49.63,5.5,5.5,0,0,0-1.82,1.77l-.19-2.13h-3Zm33.37-.11a3.59,3.59,0,0,0-.47-.12,3.53,3.53,0,0,0-.56-.05,3.42,3.42,0,0,0-2,.64,4.89,4.89,0,0,0-1.44,1.78l-.22-2.14h-3v14.76h3.32V807.59a2.71,2.71,0,0,1,1-1.16,2.91,2.91,0,0,1,1.61-.41l1.42.05Zm15.3,14.88a8.63,8.63,0,0,1-.4-1.65,12.87,12.87,0,0,1-.12-1.75v-6.57a4.59,4.59,0,0,0-1.59-3.77,6.31,6.31,0,0,0-4.16-1.31,6.62,6.62,0,0,0-4.31,1.35,3.62,3.62,0,0,0-1.57,3.1v.08h3.19a1.76,1.76,0,0,1,.67-1.41,2.78,2.78,0,0,1,1.8-.54,2.73,2.73,0,0,1,2,.65,2.42,2.42,0,0,1,.67,1.82v1.3h-2.57a8.25,8.25,0,0,0-4.77,1.19,3.87,3.87,0,0,0-1.69,3.34,4.3,4.3,0,0,0,1.23,3.26,4.91,4.91,0,0,0,3.55,1.19,4.55,4.55,0,0,0,2.49-.7,5.61,5.61,0,0,0,1.79-1.74,7.69,7.69,0,0,0,.17,1.07,8.34,8.34,0,0,0,.29,1.09Zm-9-2.88a1.69,1.69,0,0,1-.55-1.34,2.18,2.18,0,0,1,.82-1.69,3.31,3.31,0,0,1,2.26-.71h2.63v2.18a3,3,0,0,1-1.33,1.43,4.14,4.14,0,0,1-2.25.63,2.23,2.23,0,0,1-1.57-.5Zm13.9-15.48v3.59h-2.25v2.45h2.25v8.17a4.62,4.62,0,0,0,1,3.36,3.8,3.8,0,0,0,2.86,1.07,5.56,5.56,0,0,0,1.22-.13,3.52,3.52,0,0,0,1-.36l-.34-2.43a3.18,3.18,0,0,1-.51.13,3.07,3.07,0,0,1-.53,0,1.42,1.42,0,0,1-1.05-.39,1.76,1.76,0,0,1-.39-1.3v-8.17h2.64v-2.45h-2.64V799.5ZM1596,817.64a6.91,6.91,0,0,0,2.21-1.25l-1.06-2.18a7.17,7.17,0,0,1-1.85.94,6.83,6.83,0,0,1-2.29.33,3.27,3.27,0,0,1-2.63-1.12,4.66,4.66,0,0,1-1-2.87l0-.07h9.21v-1.95a7.09,7.09,0,0,0-1.58-4.86,6.41,6.41,0,0,0-9,.13l-.16.17a7.81,7.81,0,0,0-1.86,5.35v.54a7.61,7.61,0,0,0,1.86,5.28,6.38,6.38,0,0,0,5,2,9.22,9.22,0,0,0,3.21-.5Zm-1.41-11.28a3.52,3.52,0,0,1,.71,2.3V809h-5.85l0-.07a4.82,4.82,0,0,1,1-2.48,2.5,2.5,0,0,1,2-1,2.59,2.59,0,0,1,2.16.9Zm15.41,8.81a3.47,3.47,0,0,1-2,.49,3.7,3.7,0,0,1-2.12-.59,2.17,2.17,0,0,1-.93-1.87h-3.09l0,.08a4.17,4.17,0,0,0,1.58,3.39,6.59,6.59,0,0,0,4.54,1.47,7,7,0,0,0,4.33-1.24,3.82,3.82,0,0,0,1.65-3.23,3.43,3.43,0,0,0-1.34-2.85,10.17,10.17,0,0,0-4.14-1.62,6.21,6.21,0,0,1-2.4-.81,1.46,1.46,0,0,1-.59-1.23,1.68,1.68,0,0,1,.63-1.32,3.22,3.22,0,0,1,3.73.11,2.09,2.09,0,0,1,.7,1.57h3.17l0-.08a3.92,3.92,0,0,0-1.51-3.3,6.53,6.53,0,0,0-4.3-1.33,6.24,6.24,0,0,0-4.13,1.32,4,4,0,0,0-1.58,3.16,3.38,3.38,0,0,0,1.36,2.81,10.27,10.27,0,0,0,4,1.59,6.52,6.52,0,0,1,2.45.89,1.58,1.58,0,0,1,.35,2.2,1.56,1.56,0,0,1-.39.38Z" fill="#494949"/>
        </g>
        <g>
          <polygon points="564.96 274.65 538.09 203.23 98.8 203.23 521.06 228.5 564.96 274.65" fill="#0c86bc"/>
          <path id="MARKETING_EFFECTIVENESS_copy_2" data-name="MARKETING EFFECTIVENESS copy 2" d="M128.34,86v29.82h5V105.66l-.49-12.86.12,0,8.81,23h3.33l8.85-23.1.12,0-.49,12.92v10.16h5V86h-6.46l-8.59,22.94h-.13L134.79,86Zm56.29,29.82h5.06L178.86,86h-4.71l-11,29.82h5l2.38-7h11.67ZM176.42,92h.13l4.32,12.74H172Zm29.39,11.49a4.79,4.79,0,0,1,3.6,1.35,5,5,0,0,1,1.32,3.65v2.39a18.16,18.16,0,0,0,.23,2.85,3.33,3.33,0,0,0,1.06,2.13h5.11v-.47a3.66,3.66,0,0,1-1.1-1.91,10,10,0,0,1-.33-2.56v-2.47a8.43,8.43,0,0,0-1.1-4.45,6.3,6.3,0,0,0-3.63-2.62,8.17,8.17,0,0,0,3.5-2.67,6.72,6.72,0,0,0,1.2-4,7.89,7.89,0,0,0-2.73-6.43A11.79,11.79,0,0,0,205.22,86h-11v29.82h5V103.45ZM199.17,90h6a5.8,5.8,0,0,1,4.12,1.28,4.64,4.64,0,0,1,1.35,3.53,4.32,4.32,0,0,1-1.37,3.49A6.75,6.75,0,0,1,205,99.45h-5.78Zm41.68,25.82h6.08l-11.7-15.58L246.09,86h-5.9l-9.35,12.64H228V86h-5v29.82h5v-12.9h3.44Zm28.26-17.41H256.06V90h15V86h-20v29.82H271.2v-4H256.06v-9.41h13v-4ZM297.23,86h-23v4h9v25.82h5V90h9V86Zm10.2,0h-5v29.82h5Zm31.13,0h-5v21.71l-.12,0L320.25,86h-5v29.82h5V94.09l.12,0,13.23,21.77h4.95V86Zm29.79,14.66H357.46v3.73h5.92v6a5.38,5.38,0,0,1-2.11,1.27,10.88,10.88,0,0,1-3.79.54,6.77,6.77,0,0,1-5.34-2.32,8.59,8.59,0,0,1-2.05-5.92V97.75A8.9,8.9,0,0,1,352,91.88a6.13,6.13,0,0,1,5-2.31,6.36,6.36,0,0,1,4.59,1.51,5.71,5.71,0,0,1,1.75,4H368l0-.13a8.85,8.85,0,0,0-3-6.75,11.94,11.94,0,0,0-8.19-2.59A11.29,11.29,0,0,0,348.42,89a12.18,12.18,0,0,0-3.29,8.81V104a11.81,11.81,0,0,0,3.48,8.81,12.1,12.1,0,0,0,8.87,3.41,15.34,15.34,0,0,0,7-1.38,10.29,10.29,0,0,0,3.9-3.08V100.66Zm-222,48.07h-13v-8.41h15v-4h-20v29.81h20.11v-4H133.32v-9.42h13Zm25.38.7H158.67v-9.11h15.15v-4H153.7v29.81h5V153.42h13.07v-4Zm25.37,0H184.05v-9.11H199.2v-4H179.07v29.81h5V153.42h13.06v-4Zm25.35-.7h-13v-8.41h15v-4h-20v29.81h20.11v-4H209.42v-9.42h13Zm24.29,7.52a6.43,6.43,0,0,1-1.59,4.67,6.26,6.26,0,0,1-4.69,1.66,5.91,5.91,0,0,1-5-2.42,9.84,9.84,0,0,1-1.83-6.09v-5.71a9.93,9.93,0,0,1,1.79-6.06,6.41,6.41,0,0,1,11.27,2.63,6.57,6.57,0,0,1,0,1.33h4.81l0-.13a9.41,9.41,0,0,0-3-7.46,11.91,11.91,0,0,0-8.33-2.77,10.8,10.8,0,0,0-8.38,3.53,12.81,12.81,0,0,0-3.23,9v5.67a12.64,12.64,0,0,0,3.28,9,11,11,0,0,0,8.48,3.51,11.44,11.44,0,0,0,8.18-2.83,9.41,9.41,0,0,0,2.94-7.36l0-.13Zm30.49-19.92h-23v4h9v25.82h5V140.32h9v-4Zm10.21,0h-5v29.81h5Zm10.2,0h-5.3L303,166.14h4.73l10.65-29.81H313l-7.13,22-.51,2h-.12l-.53-2.07ZM341,148.73h-13v-8.41h15v-4H323v29.81h20.1v-4H327.93v-9.42h13v-4Zm30.61-12.4h-4.95V158l-.12,0-13.23-21.74h-5v29.81h5V144.41l.12,0,13.22,21.77h5V136.33Zm25.6,12.4h-13v-8.41h15v-4h-20v29.81h20.11v-4H384.15v-9.42h13v-4Zm22,12.74a7.27,7.27,0,0,1-4.3,1.11,8.33,8.33,0,0,1-4.9-1.34,4.67,4.67,0,0,1-1.88-4.07h-4.79l0,.12a7.62,7.62,0,0,0,3.42,6.79,13.77,13.77,0,0,0,8.19,2.49,12.9,12.9,0,0,0,7.83-2.2,7,7,0,0,0,3-5.93,7.47,7.47,0,0,0-2.49-5.79,17.55,17.55,0,0,0-7.31-3.57,17.56,17.56,0,0,1-5.26-2.12,3.37,3.37,0,0,1-1.58-2.82,3.73,3.73,0,0,1,1.46-3.06,6.48,6.48,0,0,1,4.2-1.19,6.35,6.35,0,0,1,4.44,1.42,4.81,4.81,0,0,1,1.56,3.72h4.77l0-.12a8,8,0,0,0-2.88-6.36,11.4,11.4,0,0,0-7.89-2.66,12.1,12.1,0,0,0-7.69,2.34,7.22,7.22,0,0,0-3,5.94,6.92,6.92,0,0,0,2.69,5.66,20.84,20.84,0,0,0,7.69,3.47,12.84,12.84,0,0,1,4.88,2.12,3.78,3.78,0,0,1,1.39,3,3.53,3.53,0,0,1-1.55,3Zm27.42,0a7.25,7.25,0,0,1-4.3,1.11,8.33,8.33,0,0,1-4.9-1.34,4.67,4.67,0,0,1-1.88-4.07H430.7l0,.12a7.62,7.62,0,0,0,3.42,6.79,13.77,13.77,0,0,0,8.19,2.49,12.9,12.9,0,0,0,7.83-2.2,7,7,0,0,0,3-5.93,7.51,7.51,0,0,0-2.5-5.79,17.55,17.55,0,0,0-7.31-3.57A17.4,17.4,0,0,1,438,147a3.35,3.35,0,0,1-1.59-2.82,3.76,3.76,0,0,1,1.46-3.06,6.48,6.48,0,0,1,4.2-1.19,6.35,6.35,0,0,1,4.44,1.42,4.81,4.81,0,0,1,1.55,3.72h4.77l0-.12a7.92,7.92,0,0,0-2.88-6.36,11.44,11.44,0,0,0-7.89-2.65,12.05,12.05,0,0,0-7.69,2.33,7.25,7.25,0,0,0-3,5.94,6.92,6.92,0,0,0,2.7,5.66,20.72,20.72,0,0,0,7.68,3.47,13,13,0,0,1,4.89,2.12,3.83,3.83,0,0,1,1.38,3,3.54,3.54,0,0,1-1.54,3Z" fill="#0e86bb"/>
        </g>
        <g>
          <polygon points="1175.72 274.65 1202.59 203.23 1641.88 203.23 1219.62 228.5 1175.72 274.65" fill="#0c86bc"/>
          <path id="SALES_ENABLEMENT_copy_2" data-name="SALES ENABLEMENT copy 2" d="M1502.06,111.14a7.17,7.17,0,0,1-4.3,1.12,8.37,8.37,0,0,1-4.89-1.34,4.67,4.67,0,0,1-1.88-4.07h-4.8l0,.12a7.66,7.66,0,0,0,3.42,6.79,13.86,13.86,0,0,0,8.19,2.49,12.88,12.88,0,0,0,7.83-2.2,7,7,0,0,0,3-5.93,7.45,7.45,0,0,0-2.5-5.79,17.43,17.43,0,0,0-7.31-3.57,17.5,17.5,0,0,1-5.25-2.12,3.35,3.35,0,0,1-1.59-2.82,3.77,3.77,0,0,1,1.48-3.07,6.52,6.52,0,0,1,4.19-1.18A6.33,6.33,0,0,1,1502,91a4.8,4.8,0,0,1,1.55,3.72h4.77l0-.12a7.91,7.91,0,0,0-2.87-6.36,11.49,11.49,0,0,0-7.9-2.66,12.09,12.09,0,0,0-7.68,2.34,7.22,7.22,0,0,0-3,5.94,6.91,6.91,0,0,0,2.69,5.66,20.77,20.77,0,0,0,7.69,3.47,12.9,12.9,0,0,1,4.88,2.12,3.83,3.83,0,0,1,1.38,3A3.51,3.51,0,0,1,1502.06,111.14Zm31.31,4.68h5.06L1527.6,86h-4.71l-11,29.82h5l2.37-7H1531ZM1525.17,92h.11l4.32,12.74h-8.82Zm22.74-6h-5v29.82h18.68v-4h-13.7V86Zm36.78,12.41h-13V90h15V86h-20v29.82h20.11v-4h-15.13v-9.41h13Zm22,12.73a7.22,7.22,0,0,1-4.31,1.12,8.37,8.37,0,0,1-4.89-1.34,4.66,4.66,0,0,1-1.87-4.07h-4.8l0,.12a7.64,7.64,0,0,0,3.42,6.79,13.76,13.76,0,0,0,8.18,2.49,12.91,12.91,0,0,0,7.84-2.2,7,7,0,0,0,3-5.93,7.48,7.48,0,0,0-2.5-5.79,17.49,17.49,0,0,0-7.31-3.57,17.09,17.09,0,0,1-5.24-2.12,3.34,3.34,0,0,1-1.6-2.82,3.79,3.79,0,0,1,1.47-3.07,6.48,6.48,0,0,1,4.18-1.18A6.31,6.31,0,0,1,1606.6,91a4.81,4.81,0,0,1,1.56,3.72h4.78l0-.12a7.92,7.92,0,0,0-2.88-6.36,11.44,11.44,0,0,0-7.9-2.66,12.14,12.14,0,0,0-7.69,2.34,7.24,7.24,0,0,0-3,5.94,6.88,6.88,0,0,0,2.69,5.66,20.68,20.68,0,0,0,7.69,3.47,12.84,12.84,0,0,1,4.88,2.12,3.8,3.8,0,0,1,1.38,3A3.49,3.49,0,0,1,1606.65,111.14Zm-249.78,37.59h-13v-8.41h15v-4h-20v29.81H1359v-4h-15.13v-9.42h13.05v-4Zm30.61-12.4h-5V158l-.13,0-13.22-21.74h-5v29.81h5V144.41l.12,0,13.23,21.77h5V136.33Zm26.1,29.81h5.06l-10.83-29.81h-4.71l-11,29.81h5l2.37-7h11.68Zm-8.21-23.86h.12l4.32,12.74H1401Zm29,23.86A11.93,11.93,0,0,0,1442,164a7.66,7.66,0,0,0,2.74-6.38,7.56,7.56,0,0,0-1.43-4.57,6.69,6.69,0,0,0-4.1-2.56,6.91,6.91,0,0,0,3.24-2.37,6.05,6.05,0,0,0,1.17-3.63,7.08,7.08,0,0,0-2.79-6.09,13,13,0,0,0-7.74-2h-9.91v29.82Zm.55-13.56a4.63,4.63,0,0,1,3.65,1.31,5.36,5.36,0,0,1,1.17,3.67,4.24,4.24,0,0,1-1.4,3.41,6,6,0,0,1-4,1.17h-6.26v-9.56h6.81Zm-6.81-12.26h4.93a6.8,6.8,0,0,1,4.14,1.07,3.86,3.86,0,0,1,1.41,3.29,3.75,3.75,0,0,1-1.34,3.1,5.62,5.62,0,0,1-3.65,1.1h-5.49Zm27.91-4h-5v29.81h18.67v-4H1456Zm36.78,12.4h-13v-8.41h15v-4h-20v29.81h20.11v-4h-15.14v-9.42h13v-4Zm7.33-12.4v29.81h5V156l-.49-12.86.12,0,8.8,23h3.34l8.85-23.1.11,0-.49,12.92v10.16h5V136.33h-6.44l-8.61,22.93h-.12l-8.58-22.93Zm55.81,12.4h-13.06v-8.41h15v-4h-20v29.81H1558v-4h-15.14v-9.42H1556v-4Zm30.61-12.4h-5V158l-.11,0-13.24-21.74h-5v29.81h5V144.41l.12,0,13.23,21.77h5V136.33Zm28,0h-23v4h9v25.82h5V140.32h9v-4Z" fill="#0e86bb"/>
        </g>
        <g>
          <path d="M1050.47,200.29l-60-.2-120.09-.16-120.09.16-60,.19-60,.35V202c.57.08,1.14.13,1.71.21v1.19c10,1.32,19.94,2.36,29.91,3.31,5,.5,10,.9,15,1.34s10,.79,15,1.19c19.94,1.48,39.88,2.6,59.83,3.5q53.57,2.34,107.15,2.48l8.14,47.53.33-1.94.54,3.12L876,215.28q57.4-.1,114.81-2.54c19.95-.91,39.89-2,59.83-3.5,5-.4,10-.76,15-1.18s10-.85,15-1.34c10-.94,19.94-2,29.91-3.29V202h0v-1.4Z" fill="#ec272c"/>
          <path id="DEMAND_GENERATION_copy_2" data-name="DEMAND GENERATION copy 2" d="M791.12,115.82a12.58,12.58,0,0,0,9.23-3.53,12.28,12.28,0,0,0,3.55-9.11V98.66a12.32,12.32,0,0,0-3.55-9.11A12.54,12.54,0,0,0,791.12,86h-9.66v29.82ZM791,90a7.35,7.35,0,0,1,5.83,2.41,9.09,9.09,0,0,1,2.12,6.2v4.56a9.14,9.14,0,0,1-2.12,6.24,7.32,7.32,0,0,1-5.83,2.41h-4.54V90Zm37.11,8.41H815V90h15V86h-20v29.82h20.1v-4H815v-9.41h13.05v-4ZM835.42,86v29.82h5V105.66l-.49-12.86.12,0,8.8,23h3.34L861,92.72l.13,0-.5,12.92v10.16h5V86h-6.45l-8.6,22.94h-.12L841.87,86Zm56.29,29.82h5.06L885.94,86h-4.71l-11,29.82h5l2.38-7h11.67ZM883.5,92h.12l4.32,12.74h-8.82Zm41.06-6h-5v21.71l-.12,0L906.25,86h-5v29.82h5V94.09l.12,0,13.23,21.77h4.95V86Zm17.24,29.82a12.58,12.58,0,0,0,9.23-3.53,12.28,12.28,0,0,0,3.55-9.11V98.66A12.32,12.32,0,0,0,951,89.55,12.54,12.54,0,0,0,941.8,86h-9.66v29.82ZM941.66,90a7.35,7.35,0,0,1,5.83,2.41,9.09,9.09,0,0,1,2.12,6.2v4.56a9.14,9.14,0,0,1-2.12,6.24,7.32,7.32,0,0,1-5.83,2.41h-4.54V90ZM759.93,151H749v3.72H755v6a5.24,5.24,0,0,1-2.11,1.27,10.79,10.79,0,0,1-3.78.54,6.77,6.77,0,0,1-5.34-2.32,8.59,8.59,0,0,1-2.06-5.92v-6.26a9,9,0,0,1,1.9-5.87,6.13,6.13,0,0,1,5-2.31,6.42,6.42,0,0,1,4.6,1.5,5.79,5.79,0,0,1,1.75,4h4.71l0-.13a8.74,8.74,0,0,0-3-6.74,11.86,11.86,0,0,0-8.18-2.59,11.29,11.29,0,0,0-8.49,3.4,12.17,12.17,0,0,0-3.28,8.81v6.23a11.81,11.81,0,0,0,3.48,8.81,12.1,12.1,0,0,0,8.87,3.41,15.37,15.37,0,0,0,7-1.38,10.36,10.36,0,0,0,3.9-3.07V151Zm25.17-2.26H772.05v-8.41h15v-4h-20v29.81h20.1v-4H772.05v-9.42H785.1v-4Zm30.61-12.4h-5V158l-.12,0L797.4,136.33h-5v29.81h5V144.41l.13,0,13.23,21.77h5V136.33Zm25.6,12.4h-13v-8.41h15v-4h-20v29.81H843.4v-4H828.27v-9.42h13v-4Zm18.94,5a4.73,4.73,0,0,1,3.6,1.35,5,5,0,0,1,1.31,3.64v2.4a19.34,19.34,0,0,0,.24,2.85,3.38,3.38,0,0,0,1.06,2.13h5.12v-.47a3.61,3.61,0,0,1-1.11-1.91,10,10,0,0,1-.33-2.56v-2.47a8.34,8.34,0,0,0-1.1-4.45,6.24,6.24,0,0,0-3.63-2.61,8.27,8.27,0,0,0,3.5-2.68,6.72,6.72,0,0,0,1.2-4,7.89,7.89,0,0,0-2.73-6.43,11.78,11.78,0,0,0-7.72-2.25h-11v29.81h5V153.77h6.63Zm-6.63-13.45h6a5.8,5.8,0,0,1,4.12,1.28,4.64,4.64,0,0,1,1.35,3.53,4.32,4.32,0,0,1-1.37,3.49,6.69,6.69,0,0,1-4.36,1.15h-5.78ZM896,166.14h5L890.2,136.33h-4.71l-11,29.81h5l2.38-7h11.67Zm-8.22-23.86h.13L892.21,155h-8.83Zm38.15-5.95h-23v4h9v25.82h5V140.32h9v-4Zm10.21,0h-5v29.81h5Zm31.09,12.22a12.64,12.64,0,0,0-3.44-9.05,11.71,11.71,0,0,0-8.91-3.6,11.28,11.28,0,0,0-8.69,3.6,12.81,12.81,0,0,0-3.37,9.05v5.36a12.76,12.76,0,0,0,3.35,9.06,11.34,11.34,0,0,0,8.71,3.6,11.71,11.71,0,0,0,8.91-3.6,12.61,12.61,0,0,0,3.43-9.06v-5.36Zm-5,5.36a9.36,9.36,0,0,1-2,6.19,6.58,6.58,0,0,1-5.39,2.39,6.25,6.25,0,0,1-5.2-2.4,9.65,9.65,0,0,1-1.91-6.17v-5.41a9.55,9.55,0,0,1,1.91-6.12,6.25,6.25,0,0,1,5.18-2.4,6.62,6.62,0,0,1,5.39,2.4,9.21,9.21,0,0,1,2,6.12Zm34.67-17.58h-5V158l-.12,0-13.23-21.74h-5v29.81h5V144.41l.12,0L992,166.14h5V136.33Z" fill="#ed3237"/>
        </g>
        <g>
          <polygon points="869.42 793.77 1019.38 325.68 719.47 325.68 869.42 793.77" fill="#f1f2f2"/>
          <path id="Lead_Generation_Services" data-name="Lead Generation Services" d="M839.75,368.73h-3.23v23.85H851V390H839.75V368.73ZM866,392.3a7.52,7.52,0,0,0,2.51-1.56l-1.26-2.1a6.39,6.39,0,0,1-2.14,1.28,8,8,0,0,1-2.87.47,4.12,4.12,0,0,1-3.5-1.64,7,7,0,0,1-1.29-4.19l0-.09H869v-2a8.66,8.66,0,0,0-1.84-5.77,6.72,6.72,0,0,0-5.42-2.16,7,7,0,0,0-5.33,2.52,9.09,9.09,0,0,0-2.26,6.3v.72a9.26,9.26,0,0,0,2.19,6.39,7.49,7.49,0,0,0,5.89,2.47A10.07,10.07,0,0,0,866,392.3Zm-1.24-13.95a4.92,4.92,0,0,1,1,3.16v.42h-8.17l0-.08a6.44,6.44,0,0,1,1.4-3.42,3.51,3.51,0,0,1,2.77-1.36,3.64,3.64,0,0,1,3,1.27Zm22.92,14.23a8.59,8.59,0,0,1-.36-1.73,16.21,16.21,0,0,1-.1-1.84v-8.53a5.42,5.42,0,0,0-1.84-4.41,7.31,7.31,0,0,0-4.84-1.54,7.49,7.49,0,0,0-5,1.61,4.29,4.29,0,0,0-1.82,3.54l0,.09h3.08a2.35,2.35,0,0,1,1-1.9,3.87,3.87,0,0,1,2.54-.8A3.75,3.75,0,0,1,883,378a3.24,3.24,0,0,1,1,2.46v1.76h-3.5a9.53,9.53,0,0,0-5.58,1.43,4.59,4.59,0,0,0-2.06,4,5.23,5.23,0,0,0,1.45,3.91,5.77,5.77,0,0,0,4.22,1.42,6.1,6.1,0,0,0,3.12-.86,7.52,7.52,0,0,0,2.35-2.14,10.38,10.38,0,0,0,.11,1.24c.06.41.14.88.25,1.41Zm-10.86-3.06a2.37,2.37,0,0,1-.74-1.86,2.89,2.89,0,0,1,1.17-2.3,4.69,4.69,0,0,1,3.12-1H884v2.87a4.27,4.27,0,0,1-1.83,2.06,5.83,5.83,0,0,1-3.16.9A3.07,3.07,0,0,1,876.81,389.52ZM892,384.39a9.76,9.76,0,0,0,1.84,6.18,6.09,6.09,0,0,0,5.08,2.36,6.46,6.46,0,0,0,2.93-.64A5.7,5.7,0,0,0,904,390.4l.38,2.18H907V367h-3.23v9.74a5.7,5.7,0,0,0-2-1.66,6.27,6.27,0,0,0-2.76-.57,5.86,5.86,0,0,0-5.12,2.62,11.8,11.8,0,0,0-1.83,6.89v.35Zm3.23-.34a9.89,9.89,0,0,1,1.11-5,3.69,3.69,0,0,1,3.43-1.92,4.25,4.25,0,0,1,2.38.65,5,5,0,0,1,1.62,1.74v8.28a5.06,5.06,0,0,1-1.61,1.83,4.22,4.22,0,0,1-2.42.65,3.82,3.82,0,0,1-3.41-1.61,7.56,7.56,0,0,1-1.1-4.3v-.33Zm-90,36.88h-8.45v2.54H802v5.41a4.7,4.7,0,0,1-1.85,1.23,8.82,8.82,0,0,1-3.33.54,6.1,6.1,0,0,1-4.75-2.06,7.48,7.48,0,0,1-1.87-5.23v-4.94a8,8,0,0,1,1.67-5.19,5.42,5.42,0,0,1,4.41-2,5.84,5.84,0,0,1,4.13,1.34A5,5,0,0,1,802,416h3.08l0-.09a6.68,6.68,0,0,0-2.39-5.2,9.53,9.53,0,0,0-6.44-2,8.88,8.88,0,0,0-6.71,2.73,9.84,9.84,0,0,0-2.6,7.08v4.92a9.45,9.45,0,0,0,2.79,7.07,9.7,9.7,0,0,0,7.07,2.74,11.76,11.76,0,0,0,5.45-1.1,7.71,7.71,0,0,0,3-2.41v-8.75Zm16.94,11.63a7.44,7.44,0,0,0,2.51-1.57l-1.26-2.1a6.58,6.58,0,0,1-2.14,1.29,8.23,8.23,0,0,1-2.87.47,4.14,4.14,0,0,1-3.5-1.65,7,7,0,0,1-1.29-4.19l0-.08h11.5v-2a8.6,8.6,0,0,0-1.83-5.77,6.69,6.69,0,0,0-5.42-2.16,6.94,6.94,0,0,0-5.33,2.51,9.11,9.11,0,0,0-2.26,6.3v.72a9.28,9.28,0,0,0,2.19,6.4,7.49,7.49,0,0,0,5.89,2.47,10.25,10.25,0,0,0,3.76-.63Zm-1.24-14a5,5,0,0,1,1,3.17v.42h-8.17l0-.09a6.37,6.37,0,0,1,1.41-3.42,3.51,3.51,0,0,1,2.77-1.36,3.62,3.62,0,0,1,3,1.28Zm8.7-3.49v17.73h3.23V419.91a4.85,4.85,0,0,1,1.71-1.83,4.48,4.48,0,0,1,2.47-.67,3.68,3.68,0,0,1,2.82,1,4.81,4.81,0,0,1,.93,3.32v11.13H844V421.66a7.37,7.37,0,0,0-1.58-5.19,5.77,5.77,0,0,0-4.43-1.68,6.07,6.07,0,0,0-3,.78,6.46,6.46,0,0,0-2.22,2.19l-.23-2.64H829.6Zm31,17.45a7.66,7.66,0,0,0,2.5-1.57l-1.26-2.1a6.69,6.69,0,0,1-2.14,1.29,8.23,8.23,0,0,1-2.87.47,4.13,4.13,0,0,1-3.5-1.65,7,7,0,0,1-1.29-4.19l0-.08h11.5v-2a8.62,8.62,0,0,0-1.84-5.76,6.73,6.73,0,0,0-5.42-2.17A7,7,0,0,0,851,417.3a9.05,9.05,0,0,0-2.25,6.3v.72a9.24,9.24,0,0,0,2.18,6.4,7.49,7.49,0,0,0,5.89,2.46,9.86,9.86,0,0,0,3.77-.62Zm-1.24-14a5,5,0,0,1,1,3.17v.42h-8.18l0-.09a6.53,6.53,0,0,1,1.41-3.42,3.51,3.51,0,0,1,2.77-1.36,3.61,3.61,0,0,1,3,1.28ZM876.92,415l-.54-.12a4,4,0,0,0-.69-.06,4.45,4.45,0,0,0-2.55.77,6.31,6.31,0,0,0-1.86,2.15l-.31-2.59h-2.88v17.73h3.23V420.18a3.84,3.84,0,0,1,1.35-1.71,3.65,3.65,0,0,1,2.15-.6l1.66.09Zm17.72,17.88a8.68,8.68,0,0,1-.36-1.74,16,16,0,0,1-.1-1.83v-8.54a5.42,5.42,0,0,0-1.84-4.41,7.32,7.32,0,0,0-4.85-1.54,7.46,7.46,0,0,0-5,1.61,4.29,4.29,0,0,0-1.82,3.54l0,.09h3.07a2.38,2.38,0,0,1,1-1.9,3.86,3.86,0,0,1,2.53-.8,3.71,3.71,0,0,1,2.69.91,3.24,3.24,0,0,1,1,2.46v1.76h-3.5a9.55,9.55,0,0,0-5.58,1.43,4.56,4.56,0,0,0-2,4,5.16,5.16,0,0,0,1.45,3.91,5.83,5.83,0,0,0,4.21,1.42,6.1,6.1,0,0,0,3.12-.86,7.52,7.52,0,0,0,2.35-2.14,10.38,10.38,0,0,0,.11,1.24c.06.41.14.88.25,1.41h3.33Zm-10.86-3.06a2.39,2.39,0,0,1-.74-1.86,2.93,2.93,0,0,1,1.17-2.31,4.75,4.75,0,0,1,3.12-1H891v2.88a4.32,4.32,0,0,1-1.83,2.06,5.83,5.83,0,0,1-3.17.9A3.11,3.11,0,0,1,883.78,429.78Zm17-18.94v4.27h-2.82v2.4h2.82v10.76a5.15,5.15,0,0,0,1.16,3.73,4.18,4.18,0,0,0,3.13,1.18,5.54,5.54,0,0,0,1.4-.18,2.89,2.89,0,0,0,1.05-.49l-.42-2.21a4,4,0,0,1-.59.17,3.18,3.18,0,0,1-.62.06,1.85,1.85,0,0,1-1.36-.51,2.36,2.36,0,0,1-.52-1.75V417.51h3.35v-2.4H904v-4.27Zm14.89,4.27H912.4v17.73h3.23V415.11Zm0-7.82H912.4v3.29h3.23v-3.29Zm5,16.88a9.75,9.75,0,0,0,2.14,6.48,7.92,7.92,0,0,0,11.2.41c.14-.13.28-.26.41-.4a9.77,9.77,0,0,0,2.13-6.49v-.36a9.78,9.78,0,0,0-2.13-6.49,7.24,7.24,0,0,0-5.83-2.54,7.17,7.17,0,0,0-5.78,2.55,9.74,9.74,0,0,0-2.13,6.48v.36Zm3.23-.37a8.4,8.4,0,0,1,1.19-4.63,4.25,4.25,0,0,1,7,0,8.33,8.33,0,0,1,1.21,4.63v.37a8.37,8.37,0,0,1-1.2,4.65,4.31,4.31,0,0,1-6,1.06,4.4,4.4,0,0,1-1-1.06,8.36,8.36,0,0,1-1.19-4.65v-.36Zm17.43-8.69v17.73h3.23V419.91a4.85,4.85,0,0,1,1.71-1.83,4.48,4.48,0,0,1,2.47-.67,3.66,3.66,0,0,1,2.82,1,4.81,4.81,0,0,1,.93,3.32v11.13h3.23V421.66a7.37,7.37,0,0,0-1.58-5.19,5.77,5.77,0,0,0-4.44-1.68,6.06,6.06,0,0,0-3,.78,6.46,6.46,0,0,0-2.22,2.19l-.23-2.64h-2.89ZM818.66,469.88a6.53,6.53,0,0,1-3.87,1,7,7,0,0,1-4.17-1.2,4,4,0,0,1-1.69-3.49h-3.08l0,.09a5.85,5.85,0,0,0,2.66,5.19,10.61,10.61,0,0,0,6.31,1.94,10.08,10.08,0,0,0,6.16-1.75,5.53,5.53,0,0,0,2.36-4.64,5.88,5.88,0,0,0-2-4.5,13,13,0,0,0-5.73-2.76,13.27,13.27,0,0,1-4.52-1.82,3.15,3.15,0,0,1-1.4-2.6,3.58,3.58,0,0,1,1.29-2.84,6.78,6.78,0,0,1,7.66.2,4.44,4.44,0,0,1,1.39,3.39h3.08l0-.09a6.33,6.33,0,0,0-2.24-5,8.77,8.77,0,0,0-6.23-2.15,9.07,9.07,0,0,0-5.92,1.87,5.79,5.79,0,0,0-2.29,4.67,5.49,5.49,0,0,0,2.12,4.41,14.34,14.34,0,0,0,5.91,2.66,10.27,10.27,0,0,1,4.35,1.85,3.48,3.48,0,0,1,1.23,2.72A3.24,3.24,0,0,1,818.66,469.88Zm20.7,2.94a7.44,7.44,0,0,0,2.51-1.57l-1.26-2.1a6.58,6.58,0,0,1-2.14,1.29,8,8,0,0,1-2.87.46,4.09,4.09,0,0,1-3.49-1.64,6.92,6.92,0,0,1-1.3-4.19l.05-.08h11.5v-2a8.56,8.56,0,0,0-1.84-5.76A6.71,6.71,0,0,0,835.1,455a7,7,0,0,0-5.33,2.52,9.1,9.1,0,0,0-2.25,6.3v.72a9.26,9.26,0,0,0,2.19,6.39,7.43,7.43,0,0,0,5.88,2.47A10.26,10.26,0,0,0,839.36,472.82Zm-1.24-14a4.94,4.94,0,0,1,1,3.17v.42H831l0-.09a6.53,6.53,0,0,1,1.41-3.42,3.48,3.48,0,0,1,2.77-1.36,3.61,3.61,0,0,1,3,1.28Zm17.53-3.64a5.23,5.23,0,0,0-.54-.12,4,4,0,0,0-.69-.06,4.45,4.45,0,0,0-2.55.77A6.19,6.19,0,0,0,850,458l-.31-2.59h-2.89V473.1h3.23V460.43a3.94,3.94,0,0,1,1.35-1.7,3.75,3.75,0,0,1,2.16-.61l1.65.1Zm5.52.15h-3.31l6.61,17.73h2.44l6.52-17.73h-3.3l-4.07,12.5-.32,1.24h-.1l-.28-1.24Zm19.48,0h-3.22V473.1h3.22Zm0-7.83h-3.22v3.3h3.22ZM890,469.09a8.7,8.7,0,0,1-1.09-4.52v-.69a8.61,8.61,0,0,1,1.09-4.47,4.42,4.42,0,0,1,6.54-.68,3.77,3.77,0,0,1,1.15,2.76h2.91l0-.1a5.72,5.72,0,0,0-1.91-4.51,8.08,8.08,0,0,0-11,.7,9.68,9.68,0,0,0-2.06,6.31v.69a9.73,9.73,0,0,0,2,6.34,7.16,7.16,0,0,0,5.91,2.52,7.38,7.38,0,0,0,4.94-1.78,5,5,0,0,0,2-4.08l0-.1h-2.9a3.05,3.05,0,0,1-1.22,2.44,4.39,4.39,0,0,1-2.82,1,3.91,3.91,0,0,1-3.64-1.82Zm26.19,3.72a7.62,7.62,0,0,0,2.51-1.56l-1.26-2.1a6.58,6.58,0,0,1-2.14,1.29,8.22,8.22,0,0,1-2.87.46,4.12,4.12,0,0,1-3.5-1.64,7,7,0,0,1-1.29-4.19l.05-.08h11.5v-2a8.62,8.62,0,0,0-1.84-5.76A6.73,6.73,0,0,0,912,455a7,7,0,0,0-5.33,2.52,9.05,9.05,0,0,0-2.25,6.3v.72a9.25,9.25,0,0,0,2.18,6.39,7.49,7.49,0,0,0,5.89,2.47,10.26,10.26,0,0,0,3.77-.62ZM915,458.86a4.92,4.92,0,0,1,1,3.16v.42h-8.17l0-.08a6.44,6.44,0,0,1,1.4-3.42,3.51,3.51,0,0,1,2.77-1.36,3.62,3.62,0,0,1,3,1.28Zm18,11.35a4.57,4.57,0,0,1-2.7.69,4.85,4.85,0,0,1-2.79-.79,3,3,0,0,1-1.28-2.5h-3.07l0,.1a4.92,4.92,0,0,0,1.85,4,7.78,7.78,0,0,0,5.34,1.72,8,8,0,0,0,5-1.45,4.58,4.58,0,0,0,1.91-3.82,4,4,0,0,0-1.64-3.32,12.89,12.89,0,0,0-5-2,7.78,7.78,0,0,1-3-1.08,2,2,0,0,1-.74-1.66,2.4,2.4,0,0,1,.84-1.82,3.78,3.78,0,0,1,2.56-.75,3.66,3.66,0,0,1,2.58.92,2.82,2.82,0,0,1,1,2.1h3.08l0-.1a4.69,4.69,0,0,0-1.74-3.86,8.35,8.35,0,0,0-9.71-.07,4.61,4.61,0,0,0-1.83,3.68,3.87,3.87,0,0,0,1.63,3.28,12.7,12.7,0,0,0,4.86,1.9,7.56,7.56,0,0,1,3.07,1.2,2.22,2.22,0,0,1-.17,3.56Z" fill="#494949"/>
        </g>
        <rect width="1740.68" height="1076" fill="none"/>
      </g>
    </g>
  </g>
</svg>
