<svg xmlns="http://www.w3.org/2000/svg" viewBox="0 0 649.58 39.82">
            <rect y="1.08" width="74.8" height="35.52" fill="#fff"/>
            <g id="date-dot-1992">
                <circle id="data-dot-big" cx="35.51" cy="19.96" r="16.17" fill="#25638e" opacity="0.3"
                        style="isolation:isolate"/>
                <circle id="data-dot-small" cx="35.51" cy="19.96" r="8.62" fill="#25638e"/>
            </g>
            <g opacity="0.01">
                <rect x="0.21" y="1.08" width="71.62" height="38.74" fill="#fff"/>
            </g>
            <path d="M11.9,27.72a.32.32,0,0,1-.12-.26.28.28,0,0,1,.13-.23,1.29,1.29,0,0,1,.33-.17,14.59,14.59,0,0,0,2-.6,2.19,2.19,0,0,0,1-.72,2.28,2.28,0,0,0,.33-1.35V12.67A1.08,1.08,0,0,0,15,11.58,6,6,0,0,0,13,11.19a1.37,1.37,0,0,1-.56-.15.4.4,0,0,1,0-.72,1.59,1.59,0,0,1,.55-.2,14.83,14.83,0,0,0,2.64-.59,5.37,5.37,0,0,0,1.94-1.31.19.19,0,0,1,.15,0A.54.54,0,0,1,18,8.3a.18.18,0,0,1,.09.2A15.85,15.85,0,0,0,18,10.68V24.8A2,2,0,0,0,18.26,26a1.69,1.69,0,0,0,.88.6c.4.14,1.1.34,2.1.58a1.24,1.24,0,0,1,.37.17.28.28,0,0,1,.15.23.3.3,0,0,1-.12.25.49.49,0,0,1-.31.09A19.16,19.16,0,0,1,19,27.78c-.94,0-1.67-.06-2.18-.06a19.15,19.15,0,0,0-2.3.09c-1,0-1.75.06-2.3.06A.48.48,0,0,1,11.9,27.72Z"
                  fill="#83929b"/>
            <path d="M23.78,28.44a.27.27,0,0,1,.12-.23.55.55,0,0,1,.31-.07,6.52,6.52,0,0,0,3.36-1.31A14.24,14.24,0,0,0,31,23.62a12.93,12.93,0,0,0,2.11-3.74,12.83,12.83,0,0,0,.63-4.08,7.55,7.55,0,0,0-.62-2.93,7,7,0,0,0-1.61-2.4,3.05,3.05,0,0,0-2.07-.94,2.53,2.53,0,0,0-1.63.53,3.28,3.28,0,0,0-1,1.3,3.75,3.75,0,0,0-.35,1.58,4.24,4.24,0,0,0,1.63,3.27,2.45,2.45,0,0,0,1.53.57,3.43,3.43,0,0,0,1.06-.14,3.84,3.84,0,0,0,.78-.34L32.1,16h0a.2.2,0,0,1,.18.12.22.22,0,0,1,0,.22,3.3,3.3,0,0,1-1,1.07,6.66,6.66,0,0,1-1.26.68,4.06,4.06,0,0,1-1.57.34,4.51,4.51,0,0,1-3.66-1.91,3.33,3.33,0,0,1-.63-2A5.49,5.49,0,0,1,25,11.66a6.72,6.72,0,0,1,2.27-2.35,5.91,5.91,0,0,1,3.22-.92,4.75,4.75,0,0,1,2.82,1,7.45,7.45,0,0,1,2.23,2.66,7.3,7.3,0,0,1,.84,3.36,11,11,0,0,1-1.09,4.94A20.26,20.26,0,0,1,32,25a10.86,10.86,0,0,1-3.76,2.67,10.12,10.12,0,0,1-4,.95C23.92,28.69,23.78,28.61,23.78,28.44Z"
                  fill="#83929b"/>
            <path d="M37,28.44a.27.27,0,0,1,.12-.23.55.55,0,0,1,.31-.07,6.52,6.52,0,0,0,3.36-1.31,14.24,14.24,0,0,0,3.45-3.21,12.93,12.93,0,0,0,2.11-3.74A12.83,12.83,0,0,0,47,15.8a7.55,7.55,0,0,0-.62-2.93,7,7,0,0,0-1.61-2.4,3.06,3.06,0,0,0-2.11-.94,2.53,2.53,0,0,0-1.63.53,3.28,3.28,0,0,0-1,1.3,3.75,3.75,0,0,0-.35,1.58,4.24,4.24,0,0,0,1.63,3.27,2.45,2.45,0,0,0,1.53.57,3.43,3.43,0,0,0,1.06-.14,3.84,3.84,0,0,0,.78-.34l.62-.32h0a.2.2,0,0,1,.18.12.22.22,0,0,1,0,.22,3.3,3.3,0,0,1-1,1.07,6.66,6.66,0,0,1-1.26.68,4.06,4.06,0,0,1-1.57.34,4.37,4.37,0,0,1-2-.51A4.18,4.18,0,0,1,38,16.5a3.33,3.33,0,0,1-.63-2,5.49,5.49,0,0,1,.83-2.84A6.72,6.72,0,0,1,40.5,9.31a5.91,5.91,0,0,1,3.22-.92,4.75,4.75,0,0,1,2.82,1,7.45,7.45,0,0,1,2.23,2.66,7.3,7.3,0,0,1,.84,3.36,11,11,0,0,1-1.09,4.94A20.26,20.26,0,0,1,45.19,25a10.86,10.86,0,0,1-3.76,2.67,10.08,10.08,0,0,1-4,.95C37.15,28.69,37,28.61,37,28.44Z"
                  fill="#83929b"/>
            <path d="M60.18,27.77q-1.71-.12-2.91-.12l-4.91.09-2.21.06a.75.75,0,0,1-.37-.2c-.17-.13-.25-.24-.25-.32a.36.36,0,0,1,.11-.26l.14-.14L55,21.45a13.82,13.82,0,0,0,2.59-3.66,9,9,0,0,0,1-3.93,3.46,3.46,0,0,0-.95-2.54,3.15,3.15,0,0,0-2.34-1A4.3,4.3,0,0,0,53,11a5.11,5.11,0,0,0-1.74,1.81,1,1,0,0,1-.24.31.5.5,0,0,1-.28.12c-.08,0-.18-.09-.29-.28a1.3,1.3,0,0,1-.17-.64,2.77,2.77,0,0,1,.83-1.5A7.33,7.33,0,0,1,53.32,9.1a6,6,0,0,1,3-.74,4.69,4.69,0,0,1,3.59,1.4,5.09,5.09,0,0,1,1.32,3.66,7,7,0,0,1-.63,2.71A11.17,11.17,0,0,1,59,18.8C58.6,19.25,57.9,20,56.88,21l-2.23,2.31c-1.43,1.43-2.15,2.17-2.15,2.21s0,.11.12.14a1.55,1.55,0,0,0,.31.07c.68.06,1.58.1,2.7.1s2.4,0,3.5-.1a5.37,5.37,0,0,0,1.86-.3,3,3,0,0,0,1.06-1.14c.28-.47.54-.71.76-.71s.22.13.22.37a3.1,3.1,0,0,1-.25.8c-.34,1.07-.57,1.83-.67,2.3s-.33.74-.68.74Z"
                  fill="#83929b"/>
            <rect x="143.66" y="1.08" width="74.8" height="35.52" fill="#fff"/>
            <g id="date-dot-1993">
                <circle id="data-dot-big-2" cx="180.93" cy="19.96" r="16.17" fill="#25638e" opacity="0.3"
                        style="isolation:isolate"/>
                <circle id="data-dot-small-2" cx="180.93" cy="19.96" r="8.62" fill="#25638e"/>
            </g>
            <g id="background-1993" opacity="0.01">
                <rect x="144.71" width="71.62" height="38.74" fill="#fff"/>
            </g>
            <path d="M156.05,27.72a.32.32,0,0,1-.12-.26.27.27,0,0,1,.14-.23,1.23,1.23,0,0,1,.32-.17,14.72,14.72,0,0,0,2.06-.6,2.19,2.19,0,0,0,1-.72,2.29,2.29,0,0,0,.34-1.35V12.67a1.08,1.08,0,0,0-.68-1.09,5.91,5.91,0,0,0-1.9-.39,1.42,1.42,0,0,1-.57-.15.41.41,0,0,1-.19-.53.39.39,0,0,1,.19-.19,1.56,1.56,0,0,1,.56-.2,15.17,15.17,0,0,0,2.67-.6,5.42,5.42,0,0,0,1.93-1.31H162a.5.5,0,0,1,.27.08.18.18,0,0,1,.09.2,15.85,15.85,0,0,0-.12,2.18V24.79a1.93,1.93,0,0,0,.28,1.15,1.66,1.66,0,0,0,.87.6c.4.14,1.1.34,2.1.58a1,1,0,0,1,.37.17.3.3,0,0,1,.16.23.31.31,0,0,1-.13.25.53.53,0,0,1-.3.09q-1.26,0-2.34-.09c-.94,0-1.66-.06-2.18-.06a19.23,19.23,0,0,0-2.3.09c-1,0-1.75.06-2.3.06A.49.49,0,0,1,156.05,27.72Z"
                  fill="#83929b"/>
            <path d="M167.93,28.44a.27.27,0,0,1,.12-.23.67.67,0,0,1,.31-.07,6.52,6.52,0,0,0,3.36-1.31,14.47,14.47,0,0,0,3.46-3.21,13.13,13.13,0,0,0,2.1-3.74,12.56,12.56,0,0,0,.63-4.08,7.55,7.55,0,0,0-.62-2.93,6.77,6.77,0,0,0-1.61-2.4,3,3,0,0,0-2-.94,2.59,2.59,0,0,0-1.63.53,3.28,3.28,0,0,0-1,1.3,3.73,3.73,0,0,0-.36,1.58,3.94,3.94,0,0,0,.45,1.81,4.08,4.08,0,0,0,1.18,1.46,2.45,2.45,0,0,0,1.53.57,3.43,3.43,0,0,0,1.06-.14,4.59,4.59,0,0,0,.79-.34l.61-.32h0a.2.2,0,0,1,.18.12.18.18,0,0,1,0,.22,3.3,3.3,0,0,1-1,1.07,5.89,5.89,0,0,1-1.26.68,4,4,0,0,1-1.56.34A4.54,4.54,0,0,1,169,16.5a3.33,3.33,0,0,1-.63-2,5.72,5.72,0,0,1,.83-2.84,6.72,6.72,0,0,1,2.27-2.35,5.91,5.91,0,0,1,3.22-.92,4.75,4.75,0,0,1,2.83,1,7.42,7.42,0,0,1,2.22,2.66,7.16,7.16,0,0,1,.85,3.36,11.1,11.1,0,0,1-1.09,4.94A21,21,0,0,1,176.14,25a11.13,11.13,0,0,1-3.76,2.67,10.29,10.29,0,0,1-4,.95C168.07,28.69,167.93,28.61,167.93,28.44Z"
                  fill="#83929b"/>
            <path d="M181.13,28.44a.27.27,0,0,1,.12-.23.67.67,0,0,1,.31-.07,6.52,6.52,0,0,0,3.36-1.31,14.47,14.47,0,0,0,3.46-3.21,13.13,13.13,0,0,0,2.1-3.74,12.56,12.56,0,0,0,.63-4.08,7.55,7.55,0,0,0-.62-2.93,6.77,6.77,0,0,0-1.61-2.4,3,3,0,0,0-2.07-.94,2.59,2.59,0,0,0-1.63.53,3.28,3.28,0,0,0-1,1.3,3.73,3.73,0,0,0-.36,1.58,3.94,3.94,0,0,0,.45,1.81,4.08,4.08,0,0,0,1.18,1.46,2.45,2.45,0,0,0,1.53.57,3.43,3.43,0,0,0,1.06-.14,4.59,4.59,0,0,0,.79-.34l.61-.32h0a.2.2,0,0,1,.18.12.18.18,0,0,1,0,.22,3.3,3.3,0,0,1-1,1.07,5.89,5.89,0,0,1-1.26.68,4,4,0,0,1-1.56.34,4.54,4.54,0,0,1-3.67-1.91,3.33,3.33,0,0,1-.63-2,5.72,5.72,0,0,1,.83-2.84,6.72,6.72,0,0,1,2.27-2.35,5.91,5.91,0,0,1,3.22-.92,4.75,4.75,0,0,1,2.83,1,7.42,7.42,0,0,1,2.22,2.66,7.16,7.16,0,0,1,.85,3.36,11.1,11.1,0,0,1-1.09,4.94A21,21,0,0,1,189.3,25a11.13,11.13,0,0,1-3.76,2.67,10.29,10.29,0,0,1-4,.95C181.27,28.69,181.13,28.61,181.13,28.44Z"
                  fill="#83929b"/>
            <path d="M196.16,28.67a6,6,0,0,1-1.37-.53c-.37-.21-.55-.39-.55-.56a1.45,1.45,0,0,1,.51-.87q.5-.54.84-.54a1,1,0,0,1,.51.13,3.87,3.87,0,0,1,.43.27l.26.22a4.94,4.94,0,0,0,1,.69,3,3,0,0,0,1.29.26,4.27,4.27,0,0,0,2.15-.6,4.71,4.71,0,0,0,1.69-1.63,4.06,4.06,0,0,0,.64-2.25,6.2,6.2,0,0,0-.95-3.4A3,3,0,0,0,200,18.41a4.08,4.08,0,0,0-2,.46h-.15a.38.38,0,0,1-.27-.1.19.19,0,0,1-.1-.21,1.65,1.65,0,0,1,.92-1A13.22,13.22,0,0,0,201,15.88a3.08,3.08,0,0,0,1.3-2.44,3.26,3.26,0,0,0-.83-2.24,2.59,2.59,0,0,0-2-.95,3.53,3.53,0,0,0-2.29.63,6.59,6.59,0,0,0-1.4,1.58c-.08.14-.16.27-.23.37s-.14.15-.2.15a.49.49,0,0,1-.3-.18.53.53,0,0,1-.19-.4,3,3,0,0,1,.68-1.6,5.87,5.87,0,0,1,2-1.67,6.74,6.74,0,0,1,3.24-.72,4.43,4.43,0,0,1,1.93.44,4.09,4.09,0,0,1,1.49,1.25,3,3,0,0,1,.57,1.81,4.37,4.37,0,0,1-.77,2.42,7,7,0,0,1-2.46,2.18.18.18,0,0,0-.09.13s0,.06.13.06a4.29,4.29,0,0,1,2.34.66,5,5,0,0,1,1.69,1.76,4.81,4.81,0,0,1,.63,2.4,6.48,6.48,0,0,1-1.23,3.9A8,8,0,0,1,201.77,28a9.79,9.79,0,0,1-4.09.9A5.19,5.19,0,0,1,196.16,28.67Z"
                  fill="#83929b"/>
            <rect x="287.32" y="1.08" width="74.8" height="35.52" fill="#fff"/>
            <g id="date-dot-1994">
                <circle id="data-dot-big-3" cx="324.72" cy="19.96" r="16.17" fill="#25638e" opacity="0.3"
                        style="isolation:isolate"/>
                <circle id="data-dot-small-3" cx="324.72" cy="19.96" r="8.62" fill="#25638e"/>
            </g>
            <path d="M299.05,27.72a.32.32,0,0,1-.12-.26.31.31,0,0,1,.14-.23,1.23,1.23,0,0,1,.32-.17,14.72,14.72,0,0,0,2.06-.6,1.91,1.91,0,0,0,1.34-2.07V12.67a1.08,1.08,0,0,0-.68-1.09,5.91,5.91,0,0,0-1.9-.39,1.42,1.42,0,0,1-.57-.15.41.41,0,0,1-.23-.37.4.4,0,0,1,.22-.35,1.59,1.59,0,0,1,.55-.2,15.17,15.17,0,0,0,2.67-.6,5.42,5.42,0,0,0,1.93-1.31.22.22,0,0,1,.16,0,.5.5,0,0,1,.27.08.17.17,0,0,1,.1.2,14.42,14.42,0,0,0-.13,2.18V24.79a1.93,1.93,0,0,0,.28,1.15,1.66,1.66,0,0,0,.87.6c.4.14,1.1.34,2.11.58a1.56,1.56,0,0,1,.37.17.28.28,0,0,1,.15.23.3.3,0,0,1-.12.25.56.56,0,0,1-.31.09,19.07,19.07,0,0,1-2.33-.09c-.95,0-1.67-.06-2.18-.06q-1.2,0-2.31.09c-1,0-1.75.06-2.3.06A.54.54,0,0,1,299.05,27.72Z"
                  fill="#83929b"/>
            <path d="M310.93,28.44a.28.28,0,0,1,.13-.23.53.53,0,0,1,.3-.07,6.59,6.59,0,0,0,3.37-1.31,14.24,14.24,0,0,0,3.45-3.21,13.13,13.13,0,0,0,2.1-3.74,12.56,12.56,0,0,0,.63-4.08,7.4,7.4,0,0,0-.61-2.93,7,7,0,0,0-1.61-2.4,3.06,3.06,0,0,0-2-.94,2.56,2.56,0,0,0-1.62.53,3.28,3.28,0,0,0-1,1.3,3.72,3.72,0,0,0-.35,1.58,3.93,3.93,0,0,0,.44,1.81,4.19,4.19,0,0,0,1.18,1.46,2.48,2.48,0,0,0,1.54.57,3.43,3.43,0,0,0,1.06-.14,4.49,4.49,0,0,0,.78-.34l.61-.32h0a.21.21,0,0,1,.19.12.22.22,0,0,1,0,.22,3.4,3.4,0,0,1-1,1.07,6.58,6.58,0,0,1-1.25.68,4.26,4.26,0,0,1-1.57.34A4.54,4.54,0,0,1,312,16.5a3.33,3.33,0,0,1-.63-2,5.72,5.72,0,0,1,.83-2.84,6.72,6.72,0,0,1,2.27-2.35,6,6,0,0,1,3.23-.92,4.75,4.75,0,0,1,2.82,1,7.55,7.55,0,0,1,2.23,2.66,7.3,7.3,0,0,1,.84,3.36,11,11,0,0,1-1.09,4.94A21,21,0,0,1,319.16,25a10.86,10.86,0,0,1-3.76,2.67,10.08,10.08,0,0,1-4,.95C311.08,28.69,310.93,28.61,310.93,28.44Z"
                  fill="#83929b"/>
            <path d="M324.13,28.44a.28.28,0,0,1,.13-.23.53.53,0,0,1,.3-.07,6.59,6.59,0,0,0,3.37-1.31,14.24,14.24,0,0,0,3.45-3.21,13.13,13.13,0,0,0,2.1-3.74,12.56,12.56,0,0,0,.63-4.08,7.4,7.4,0,0,0-.61-2.93,6.67,6.67,0,0,0-1.62-2.4,3,3,0,0,0-2.07-.94,2.56,2.56,0,0,0-1.62.53,3.28,3.28,0,0,0-1,1.3,3.73,3.73,0,0,0-.36,1.58,3.94,3.94,0,0,0,.45,1.81,4.19,4.19,0,0,0,1.18,1.46,2.48,2.48,0,0,0,1.54.57,3.43,3.43,0,0,0,1.06-.14,4.49,4.49,0,0,0,.78-.34l.61-.32h0a.21.21,0,0,1,.19.12.22.22,0,0,1,0,.22,3.4,3.4,0,0,1-1,1.07,6.58,6.58,0,0,1-1.25.68,4.26,4.26,0,0,1-1.57.34,4.54,4.54,0,0,1-3.67-1.91,3.33,3.33,0,0,1-.63-2,5.72,5.72,0,0,1,.83-2.84,6.72,6.72,0,0,1,2.27-2.35,6,6,0,0,1,3.23-.92,4.75,4.75,0,0,1,2.82,1,7.55,7.55,0,0,1,2.23,2.66,7.3,7.3,0,0,1,.84,3.36,11,11,0,0,1-1.09,4.94A21,21,0,0,1,332.32,25a10.86,10.86,0,0,1-3.76,2.67,10.08,10.08,0,0,1-4,.95C324.28,28.69,324.13,28.61,324.13,28.44Z"
                  fill="#83929b"/>
            <path d="M341.79,27.72a.32.32,0,0,1-.19-.29.27.27,0,0,1,.17-.24,1.07,1.07,0,0,1,.38-.13,3.86,3.86,0,0,0,1.86-.6,1.41,1.41,0,0,0,.51-1.18V22.43c0-.08-.06-.15-.19-.2a.84.84,0,0,0-.27-.08c-1.15,0-2.31,0-3.47.09-.9,0-2.23.09-4,.13a.27.27,0,0,1-.22-.11.34.34,0,0,1-.09-.2.14.14,0,0,1,0-.09l.71-.86a7,7,0,0,0,.49-.59l8.1-11.63c.39-.57.7-.86.92-.86h.65s.06,0,.06.09a.46.46,0,0,1,0,.2.61.61,0,0,1-.07.14L338.8,20.37a.42.42,0,0,0-.08.18c0,.07,0,.1.08.1h5.31a.41.41,0,0,0,.24-.08c.09,0,.13-.11.13-.17V15.64a1.77,1.77,0,0,1,0-.46.43.43,0,0,1,.23-.21,2.86,2.86,0,0,1,.89-.31,5.7,5.7,0,0,1,.83-.09c.21,0,.34.14.39.41a11.42,11.42,0,0,1,.07,1.55v4c0,.13,0,.19.16.19h1.23c.3,0,.91,0,1.81-.06a.39.39,0,0,1,.23.07.21.21,0,0,1,.1.17,1.36,1.36,0,0,1-.26.75c-.17.28-.3.42-.38.42h-1.5a8.39,8.39,0,0,0-1,.06l-.24.09-.16.09V25.2a1.58,1.58,0,0,0,.39,1.23,4.59,4.59,0,0,0,1.67.67,1.23,1.23,0,0,1,.38.19c.12.08.17.16.17.24a.28.28,0,0,1-.13.23.57.57,0,0,1-.33.11,15.11,15.11,0,0,1-1.9-.09c-.61,0-1.14-.06-1.57-.06s-1.06,0-1.72.06a13.72,13.72,0,0,1-1.81.09A.61.61,0,0,1,341.79,27.72Z"
                  fill="#83929b"/>
            <g id="background-1993-2" opacity="0.01">
                <rect x="288.91" width="71.62" height="38.74" fill="#fff"/>
            </g>
            <rect x="431.11" y="1.08" width="74.8" height="35.52" fill="#fff"/>
            <g id="date-dot-1995">
                <circle id="data-dot-big-4" cx="469.65" cy="19.96" r="16.17" fill="#25638e" opacity="0.3"
                        style="isolation:isolate"/>
                <circle id="data-dot-small-4" cx="469.65" cy="19.96" r="8.62" fill="#25638e"/>
            </g>
            <path d="M443.8,27.72a.32.32,0,0,1-.12-.26.28.28,0,0,1,.13-.23,1.41,1.41,0,0,1,.32-.17,14.72,14.72,0,0,0,2.06-.6,1.91,1.91,0,0,0,1.34-2.07V12.67a1.08,1.08,0,0,0-.67-1.09,6,6,0,0,0-1.91-.39,1.42,1.42,0,0,1-.56-.15.39.39,0,0,1-.24-.37.42.42,0,0,1,.22-.35,1.59,1.59,0,0,1,.55-.2,15.17,15.17,0,0,0,2.67-.6,5.37,5.37,0,0,0,1.94-1.31.2.2,0,0,1,.15,0,.54.54,0,0,1,.28.08.18.18,0,0,1,.09.2,15.85,15.85,0,0,0-.12,2.18V24.79a2,2,0,0,0,.27,1.15,1.69,1.69,0,0,0,.88.6c.4.14,1.1.34,2.1.58a1.24,1.24,0,0,1,.37.17.28.28,0,0,1,.15.23.28.28,0,0,1-.12.25.56.56,0,0,1-.31.09,19.16,19.16,0,0,1-2.33-.09c-.94,0-1.67-.06-2.18-.06a19.07,19.07,0,0,0-2.3.09q-1.47.06-2.31.06A.5.5,0,0,1,443.8,27.72Z"
                  fill="#83929b"/>
            <path d="M455.65,28.44a.27.27,0,0,1,.12-.23.55.55,0,0,1,.31-.07,6.52,6.52,0,0,0,3.36-1.31,14.24,14.24,0,0,0,3.45-3.21A12.93,12.93,0,0,0,465,19.88a12.83,12.83,0,0,0,.63-4.08,7.55,7.55,0,0,0-.62-2.93,7,7,0,0,0-1.61-2.4,3.05,3.05,0,0,0-2.07-.94,2.53,2.53,0,0,0-1.63.53,3.28,3.28,0,0,0-1,1.3,3.75,3.75,0,0,0-.35,1.58A4.24,4.24,0,0,0,460,16.21a2.45,2.45,0,0,0,1.53.57,3.43,3.43,0,0,0,1.06-.14,3.84,3.84,0,0,0,.78-.34L464,16h0a.2.2,0,0,1,.18.12.22.22,0,0,1,0,.22,3.3,3.3,0,0,1-1,1.07,6.66,6.66,0,0,1-1.26.68,4.06,4.06,0,0,1-1.57.34,4.44,4.44,0,0,1-2.05-.51,4.21,4.21,0,0,1-1.62-1.37,3.33,3.33,0,0,1-.63-2,5.49,5.49,0,0,1,.83-2.84,6.72,6.72,0,0,1,2.27-2.35,5.91,5.91,0,0,1,3.22-.92,4.75,4.75,0,0,1,2.82,1,7.45,7.45,0,0,1,2.23,2.66,7.3,7.3,0,0,1,.84,3.36,11,11,0,0,1-1.09,4.94,20.26,20.26,0,0,1-3.33,4.67,10.86,10.86,0,0,1-3.76,2.67,10.08,10.08,0,0,1-4,1C455.82,28.69,455.65,28.61,455.65,28.44Z"
                  fill="#83929b"/>
            <path d="M468.88,28.44a.27.27,0,0,1,.12-.23.55.55,0,0,1,.31-.07,6.58,6.58,0,0,0,3.34-1.31,14.24,14.24,0,0,0,3.45-3.21,12.93,12.93,0,0,0,2.11-3.74,12.87,12.87,0,0,0,.62-4.08,7.4,7.4,0,0,0-.61-2.93,7,7,0,0,0-1.61-2.4,3.05,3.05,0,0,0-2.07-.94,2.53,2.53,0,0,0-1.63.53,3.28,3.28,0,0,0-1,1.3,3.75,3.75,0,0,0-.35,1.58,4.24,4.24,0,0,0,1.63,3.27,2.45,2.45,0,0,0,1.53.57,3.43,3.43,0,0,0,1.06-.14,3.84,3.84,0,0,0,.78-.34l.62-.32h0a.2.2,0,0,1,.18.12.22.22,0,0,1,0,.22,3.3,3.3,0,0,1-1,1.07,6.66,6.66,0,0,1-1.26.68,4.06,4.06,0,0,1-1.57.34,4.37,4.37,0,0,1-2-.51,4.18,4.18,0,0,1-1.61-1.4,3.33,3.33,0,0,1-.63-2,5.49,5.49,0,0,1,.83-2.84,6.64,6.64,0,0,1,2.27-2.35,5.91,5.91,0,0,1,3.22-.92,4.75,4.75,0,0,1,2.82,1,7.45,7.45,0,0,1,2.23,2.66,7.3,7.3,0,0,1,.84,3.36,11,11,0,0,1-1.09,4.94A20.26,20.26,0,0,1,477.08,25a10.86,10.86,0,0,1-3.76,2.67,10.08,10.08,0,0,1-4,.95C469,28.69,468.88,28.61,468.88,28.44Z"
                  fill="#83929b"/>
            <path d="M483,28.81c-.23-.06-.35-.15-.35-.27s.13-.28.4-.4a1.6,1.6,0,0,1,.71-.19,8.41,8.41,0,0,0,3.91-.84,6,6,0,0,0,2.42-2.17,5,5,0,0,0,.82-2.7,3.64,3.64,0,0,0-1.67-3,18.13,18.13,0,0,0-5.7-2.26,2.13,2.13,0,0,1-.57-.66,1.5,1.5,0,0,1-.17-.75,12.39,12.39,0,0,1,1-3.53l.46-1.35a1.63,1.63,0,0,1,1.28-1.16,39,39,0,0,1,6.35-1.07H492a.34.34,0,0,1,.31.52l-.52,1a1.47,1.47,0,0,1-1.14,1l-2.36.24c-1.33.11-2.31.21-2.92.31-.2,0-.48.36-.81,1A4.53,4.53,0,0,0,484,14v.12a.46.46,0,0,0,.4.46A33.76,33.76,0,0,1,490,16.59a7,7,0,0,1,2.58,2.14,5.39,5.39,0,0,1,.82,3,5.57,5.57,0,0,1-1,3.13,8.36,8.36,0,0,1-2.72,2.57,11.64,11.64,0,0,1-5.8,1.47A3,3,0,0,1,483,28.81Z"
                  fill="#83929b"/>
            <g id="background-1993-3" opacity="0.01">
                <rect x="432.7" y="0.59" width="71.62" height="38.74" fill="#fff"/>
            </g>
            <rect x="574.78" y="1.08" width="74.8" height="35.52" fill="#fff"/>
            <g id="date-dot-1996">
                <circle id="data-dot-big-5" cx="612.17" cy="19.96" r="16.17" fill="#25638e" opacity="0.3"
                        style="isolation:isolate"/>
                <circle id="data-dot-small-5" cx="612.17" cy="19.96" r="8.62" fill="#25638e"/>
            </g>
            <path d="M586.89,27.72a.32.32,0,0,1-.12-.26.31.31,0,0,1,.14-.23,1.23,1.23,0,0,1,.32-.17,14.72,14.72,0,0,0,2.06-.6,2.19,2.19,0,0,0,1-.72,2.14,2.14,0,0,0,.34-1.35V12.67a1.08,1.08,0,0,0-.68-1.09,5.91,5.91,0,0,0-1.9-.39,1.42,1.42,0,0,1-.57-.15.41.41,0,0,1-.23-.37.4.4,0,0,1,.22-.35,1.59,1.59,0,0,1,.55-.2,15.17,15.17,0,0,0,2.67-.6,5.42,5.42,0,0,0,1.93-1.31h.16a.5.5,0,0,1,.27.08.18.18,0,0,1,.1.2,14.42,14.42,0,0,0-.13,2.18V24.79a1.93,1.93,0,0,0,.28,1.15,1.66,1.66,0,0,0,.87.6c.4.14,1.1.34,2.11.58a1.19,1.19,0,0,1,.36.17.28.28,0,0,1,0,.48.56.56,0,0,1-.31.09q-1.26,0-2.34-.09c-.94,0-1.66-.06-2.17-.06q-1.2,0-2.31.09c-1,0-1.75.06-2.3.06A.54.54,0,0,1,586.89,27.72Z"
                  fill="#83929b"/>
            <path d="M598.77,28.44a.26.26,0,0,1,.13-.23.53.53,0,0,1,.3-.07,6.52,6.52,0,0,0,3.36-1.31A14.47,14.47,0,0,0,606,23.62a13.13,13.13,0,0,0,2.1-3.74,12.56,12.56,0,0,0,.63-4.08,7.57,7.57,0,0,0-.61-2.93,6.67,6.67,0,0,0-1.62-2.4,3,3,0,0,0-2.07-.94,2.56,2.56,0,0,0-1.62.53,3.19,3.19,0,0,0-1,1.3,3.73,3.73,0,0,0-.36,1.58,3.94,3.94,0,0,0,.45,1.81,4.19,4.19,0,0,0,1.18,1.46,2.48,2.48,0,0,0,1.54.57,3.43,3.43,0,0,0,1.06-.14,4.49,4.49,0,0,0,.78-.34l.61-.32h0a.21.21,0,0,1,.19.12.22.22,0,0,1,0,.22,3.4,3.4,0,0,1-1,1.07,5.89,5.89,0,0,1-1.26.68,4,4,0,0,1-1.56.34,4.54,4.54,0,0,1-3.67-1.91,3.33,3.33,0,0,1-.63-2,5.72,5.72,0,0,1,.83-2.84,6.72,6.72,0,0,1,2.27-2.35,6,6,0,0,1,3.23-.92,4.75,4.75,0,0,1,2.82,1,7.55,7.55,0,0,1,2.23,2.66,7.3,7.3,0,0,1,.84,3.36,11,11,0,0,1-1.09,4.94A21,21,0,0,1,607,25a11.13,11.13,0,0,1-3.76,2.67,10.08,10.08,0,0,1-4,.95C598.92,28.69,598.77,28.61,598.77,28.44Z"
                  fill="#83929b"/>
            <path d="M612,28.44a.26.26,0,0,1,.13-.23.53.53,0,0,1,.3-.07,6.52,6.52,0,0,0,3.36-1.31,14.47,14.47,0,0,0,3.46-3.21,13.13,13.13,0,0,0,2.1-3.74A12.56,12.56,0,0,0,622,15.8a7.76,7.76,0,0,0-.61-2.93,6.67,6.67,0,0,0-1.62-2.4,3,3,0,0,0-2.07-.94,2.56,2.56,0,0,0-1.62.53,3.19,3.19,0,0,0-1,1.3,3.73,3.73,0,0,0-.36,1.58,3.94,3.94,0,0,0,.45,1.81,4.19,4.19,0,0,0,1.18,1.46,2.48,2.48,0,0,0,1.54.57,3.43,3.43,0,0,0,1.06-.14,4.49,4.49,0,0,0,.78-.34l.61-.32h0a.21.21,0,0,1,.19.12.22.22,0,0,1,0,.22,3.4,3.4,0,0,1-1,1.07,5.89,5.89,0,0,1-1.26.68,4,4,0,0,1-1.56.34A4.54,4.54,0,0,1,613,16.5a3.33,3.33,0,0,1-.63-2,5.72,5.72,0,0,1,.83-2.84,6.72,6.72,0,0,1,2.27-2.35,6,6,0,0,1,3.23-.92,4.75,4.75,0,0,1,2.82,1,7.55,7.55,0,0,1,2.23,2.66,7.3,7.3,0,0,1,.84,3.36,11,11,0,0,1-1.09,4.94A21,21,0,0,1,620.16,25a11.13,11.13,0,0,1-3.76,2.67,10.12,10.12,0,0,1-4,.95C612.12,28.69,612,28.61,612,28.44Z"
                  fill="#83929b"/>
            <path d="M628.21,27.53a5.82,5.82,0,0,1-2.33-2.18,6.51,6.51,0,0,1-.89-3.5,10.7,10.7,0,0,1,1.17-5.15,14.44,14.44,0,0,1,2.54-3.56,23.41,23.41,0,0,1,3.59-3,15.37,15.37,0,0,1,4.61-2.09.54.54,0,0,1,.18,0,.49.49,0,0,1,.31.09c.08.06.1.11.06.16a1.66,1.66,0,0,1-.8.61A16.84,16.84,0,0,0,633.09,11a12.49,12.49,0,0,0-2.64,2.79,19.14,19.14,0,0,0-1.93,3.7,11.62,11.62,0,0,0-.89,4.31,6.11,6.11,0,0,0,.69,2.84A4.75,4.75,0,0,0,630,26.45a3.9,3.9,0,0,0,2.07.63,2.89,2.89,0,0,0,2.21-.95,3.82,3.82,0,0,0,.89-2.73,4.16,4.16,0,0,0-.8-2.53,2.38,2.38,0,0,0-2-1.09,8,8,0,0,0-1.38.09,3.46,3.46,0,0,0-1.08.37l-.21.06c-.09,0-.13,0-.13-.12a.6.6,0,0,1,.13-.28,5.77,5.77,0,0,1,.82-.74,5.1,5.1,0,0,1,1.34-.67,4.79,4.79,0,0,1,1.67-.34,4.09,4.09,0,0,1,2,.49A3.87,3.87,0,0,1,637,20a3.5,3.5,0,0,1,.55,1.94,5.94,5.94,0,0,1-.92,3.28,6.43,6.43,0,0,1-2.39,2.24,6.2,6.2,0,0,1-3,.8A6.65,6.65,0,0,1,628.21,27.53Z"
                  fill="#83929b"/>
            <g id="background-1993-4" opacity="0.01">
                <rect x="576.36" width="71.62" height="38.74" fill="#fff"/>
            </g>
</svg>