<?xml version="1.0" standalone="no"?>
<!DOCTYPE svg PUBLIC "-//W3C//DTD SVG 20010904//EN"
 "http://www.w3.org/TR/2001/REC-SVG-20010904/DTD/svg10.dtd">
<svg version="1.0" xmlns="http://www.w3.org/2000/svg"
 width="1000.000000pt" height="1000.000000pt" viewBox="0 0 1000.000000 1000.000000"
 preserveAspectRatio="xMidYMid meet">
<metadata>
Created by potrace 1.11, written by Peter Selinger 2001-2013
</metadata>
<g transform="translate(0.000000,1000.000000) scale(0.100000,-0.100000)"
fill="#000000" stroke="none">
<path d="M7990 9779 c-35 -7 -78 -14 -147 -24 -21 -3 -60 -10 -88 -15 -27 -5
-70 -12 -95 -15 -25 -3 -52 -8 -60 -10 -8 -3 -60 -11 -115 -20 -55 -8 -111
-17 -125 -19 -14 -3 -41 -7 -60 -10 -19 -3 -105 -17 -190 -31 -85 -14 -166
-28 -180 -30 -14 -2 -38 -6 -55 -9 -16 -3 -46 -8 -65 -11 -19 -3 -46 -7 -60
-10 -14 -3 -41 -7 -60 -10 -19 -3 -76 -12 -127 -21 l-92 -16 35 -74 c72 -155
104 -224 181 -384 44 -91 102 -212 129 -270 27 -57 72 -151 99 -209 l51 -104
46 54 c26 30 196 232 379 449 401 478 411 490 424 504 6 6 57 67 114 136 58
69 111 133 119 142 12 15 12 17 -4 15 -11 0 -35 -4 -54 -8z"/>
<path d="M6347 9423 c-4 -16 -201 -630 -312 -973 -24 -74 -51 -160 -60 -190
-10 -30 -20 -62 -23 -70 -3 -8 -6 -17 -7 -20 0 -3 -8 -27 -17 -55 -9 -27 -51
-158 -93 -290 -42 -132 -87 -271 -100 -310 -13 -38 -51 -158 -85 -265 -34
-107 -70 -221 -81 -252 -10 -32 -19 -61 -19 -66 0 -5 21 -6 48 -1 26 4 72 10
101 14 30 4 61 8 70 10 9 1 43 6 76 10 32 4 67 8 76 10 9 2 40 6 70 10 30 3
61 8 69 10 8 3 40 7 70 10 30 3 64 7 75 9 21 4 77 12 155 21 25 3 56 8 70 10
14 2 49 7 79 10 30 4 62 8 71 10 9 2 41 6 71 10 30 3 65 8 79 10 14 3 43 7 65
10 47 5 109 14 145 20 14 2 52 7 85 11 33 3 62 8 65 9 3 2 35 6 70 10 36 3 72
8 80 10 8 3 33 7 55 9 94 12 135 18 135 21 0 2 -32 70 -71 152 -132 275 -143
298 -144 303 -1 3 -27 59 -59 125 -32 66 -74 154 -93 195 -20 41 -71 149 -114
239 -44 90 -79 165 -79 166 0 2 -36 79 -81 172 -45 92 -94 195 -109 228 -15
33 -52 112 -83 175 -30 63 -78 165 -107 225 -29 61 -70 147 -91 193 -22 45
-41 82 -43 82 -2 0 -6 -8 -9 -17z"/>
<path d="M7290 7029 c-57 -9 -124 -18 -175 -25 -22 -3 -51 -7 -65 -9 -14 -2
-63 -9 -110 -15 -47 -6 -96 -13 -110 -15 -14 -2 -45 -7 -70 -10 -25 -3 -58 -8
-75 -10 -56 -8 -100 -14 -150 -21 -27 -3 -57 -7 -65 -9 -22 -4 -132 -18 -155
-20 -11 -1 -38 -5 -60 -8 -22 -4 -62 -10 -90 -13 -27 -3 -58 -8 -69 -10 -10
-2 -44 -6 -75 -9 -31 -4 -63 -8 -71 -10 -8 -2 -40 -7 -70 -10 -30 -3 -80 -10
-110 -15 -30 -5 -77 -11 -105 -14 -46 -6 -91 -12 -155 -21 -49 -8 -125 -18
-150 -20 -14 -1 -38 -5 -55 -8 -16 -3 -52 -9 -80 -12 -27 -3 -61 -8 -75 -10
-14 -2 -79 -11 -145 -20 -66 -9 -131 -18 -145 -20 -14 -2 -47 -6 -75 -10 -86
-11 -180 -24 -215 -30 -8 -2 -40 -6 -71 -9 -31 -4 -65 -8 -75 -10 -11 -2 -46
-7 -79 -11 -32 -4 -66 -8 -75 -10 -8 -1 -35 -5 -60 -9 -123 -15 -146 -18 -160
-21 -9 -2 -43 -6 -75 -10 -33 -4 -67 -9 -75 -10 -8 -2 -40 -6 -70 -10 -30 -4
-63 -9 -74 -11 -10 -2 -44 -6 -75 -9 -31 -4 -63 -8 -71 -10 -17 -4 -118 -17
-137 -18 -27 -1 -10 -14 70 -53 45 -22 237 -119 427 -216 414 -211 789 -401
1915 -972 248 -126 549 -279 670 -341 121 -62 412 -210 647 -329 l427 -216 11
42 c6 24 27 102 47 173 19 72 36 137 38 145 2 8 10 40 19 71 9 31 18 65 20 75
5 26 74 284 98 368 11 38 21 76 23 85 2 9 35 136 74 282 l71 265 -78 145 c-43
79 -100 185 -127 234 -26 50 -56 104 -65 120 -16 28 -33 59 -125 230 -21 39
-54 99 -73 135 -63 115 -122 224 -139 258 -18 35 -28 37 -133 21z"/>
<path d="M7400 4229 c-30 -4 -82 -11 -115 -14 -33 -4 -67 -8 -75 -10 -9 -2
-46 -6 -82 -9 -37 -4 -75 -8 -85 -10 -36 -7 -109 -16 -163 -21 -30 -3 -64 -7
-75 -9 -11 -2 -49 -7 -85 -10 -36 -4 -76 -9 -90 -11 -14 -2 -50 -7 -80 -10
-30 -4 -66 -8 -80 -10 -14 -2 -70 -9 -125 -15 -55 -6 -111 -13 -125 -15 -14
-2 -52 -7 -85 -11 -33 -3 -67 -8 -75 -9 -8 -2 -44 -6 -80 -10 -36 -4 -74 -9
-85 -11 -10 -2 -49 -6 -85 -9 -36 -4 -72 -8 -80 -10 -8 -2 -46 -7 -85 -10 -38
-3 -77 -8 -85 -10 -8 -2 -40 -6 -70 -10 -30 -3 -71 -8 -90 -10 -56 -8 -122
-16 -160 -20 -19 -2 -48 -6 -65 -8 -16 -3 -59 -9 -95 -12 -36 -4 -72 -8 -80
-10 -8 -1 -42 -6 -75 -9 -33 -4 -76 -9 -95 -11 -19 -3 -93 -12 -165 -20 -71
-9 -141 -18 -155 -20 -22 -3 -50 -6 -170 -20 -35 -4 -87 -11 -157 -20 -21 -3
-96 -12 -168 -20 -71 -9 -146 -18 -165 -20 -19 -3 -55 -7 -80 -10 -25 -3 -63
-8 -85 -11 -66 -8 -107 -13 -160 -19 -60 -7 -131 -15 -165 -20 -14 -2 -50 -6
-80 -10 -30 -3 -89 -10 -130 -15 -41 -5 -97 -12 -125 -15 -27 -4 -61 -8 -75
-10 -14 -2 -50 -6 -80 -10 -30 -3 -71 -8 -90 -10 -36 -5 -97 -12 -160 -20 -19
-2 -73 -9 -120 -15 -144 -18 -154 -19 -205 -25 -56 -7 -191 -23 -245 -30 -19
-3 -57 -7 -85 -10 -27 -3 -59 -7 -69 -9 -12 -1 -46 -41 -84 -97 -159 -234
-639 -964 -636 -968 2 -2 27 3 56 12 106 31 475 134 508 142 8 1 35 9 60 16
25 7 50 13 55 15 14 3 805 221 885 244 72 21 821 227 1235 341 61 16 133 37
160 45 48 14 251 69 365 100 30 8 109 30 175 49 67 19 222 62 345 96 124 33
263 72 310 85 47 12 135 37 195 54 61 17 117 32 125 34 8 2 188 52 400 111
212 58 393 108 403 111 25 6 44 11 122 34 39 11 79 22 90 25 11 2 94 25 185
50 91 25 188 52 215 60 165 44 420 116 424 120 6 6 -20 5 -89 -6z"/>
<path d="M7510 4069 c-52 -16 -104 -31 -115 -33 -11 -3 -72 -19 -135 -36 -63
-18 -128 -36 -145 -40 -61 -17 -873 -242 -940 -261 -38 -11 -94 -26 -123 -35
-29 -8 -61 -17 -71 -19 -38 -7 -106 -29 -115 -36 -9 -8 2 -36 77 -199 16 -36
73 -165 127 -286 104 -234 125 -281 171 -381 16 -34 101 -226 190 -425 89
-200 177 -396 195 -436 19 -41 34 -75 34 -77 0 -2 18 -43 40 -90 22 -47 40
-88 40 -90 0 -2 16 -39 36 -82 20 -43 62 -136 94 -208 32 -71 71 -159 87 -195
17 -36 54 -119 83 -185 30 -66 55 -122 57 -124 6 -9 11 6 17 54 6 47 9 67 21
125 3 14 7 45 10 70 3 25 15 99 26 165 11 66 22 134 25 150 3 17 7 41 9 55 8
45 34 214 40 255 7 47 13 82 19 110 2 11 7 43 10 70 4 28 9 57 11 65 2 8 6 33
10 55 3 22 7 51 10 65 2 14 11 70 20 125 8 55 20 125 25 155 5 30 11 69 14 85
9 64 19 121 22 140 2 11 7 40 10 65 3 25 8 54 10 65 7 38 23 130 29 170 3 22
8 56 11 75 3 19 7 42 9 50 2 8 7 35 10 60 3 25 8 59 11 75 3 17 7 41 9 55 2
14 11 66 19 115 8 50 18 110 21 135 3 25 8 52 10 60 2 8 7 35 10 60 3 25 10
70 15 100 5 30 12 73 15 95 4 22 8 47 10 55 2 8 7 35 10 60 3 25 12 83 20 130
8 47 15 88 15 93 0 11 -17 8 -120 -24z"/>
<path d="M7386 1878 c-2 -7 -9 -49 -16 -93 -13 -91 -17 -119 -24 -155 -5 -26
-14 -83 -21 -134 -3 -15 -18 -112 -35 -215 -17 -102 -33 -199 -36 -216 -2 -16
-9 -55 -14 -85 -5 -30 -12 -73 -15 -95 -3 -22 -8 -52 -11 -68 -4 -24 -2 -27
18 -23 20 5 70 11 248 32 25 3 56 7 70 9 32 5 83 12 190 25 47 6 99 12 115 15
17 2 57 7 90 11 33 3 68 8 78 10 10 2 45 6 78 9 33 4 68 8 77 10 17 3 87 12
167 21 36 4 68 8 145 19 14 2 48 6 75 9 125 14 179 21 243 32 l34 5 -54 33
c-237 144 -950 583 -978 601 -28 18 -382 235 -413 252 -4 2 -9 -2 -11 -9z"/>
<path d="M8819 916 c-2 -2 -31 -7 -64 -10 -33 -3 -71 -8 -85 -10 -14 -2 -50
-7 -80 -11 -30 -4 -62 -8 -71 -10 -8 -1 -42 -6 -75 -9 -53 -6 -76 -9 -164 -21
-14 -2 -50 -7 -80 -10 -30 -4 -58 -12 -62 -18 -3 -5 -9 -35 -13 -65 -4 -30 -8
-64 -10 -76 -2 -11 -14 -82 -25 -156 -12 -74 -23 -146 -26 -160 -2 -14 -6 -45
-10 -70 -3 -25 -8 -53 -11 -64 -4 -14 -2 -16 8 -10 11 6 430 374 449 394 3 3
61 54 130 115 161 141 218 195 204 195 -6 0 -13 -2 -15 -4z"/>
</g>
</svg>
