<svg xmlns="http://www.w3.org/2000/svg" xmlns:xlink="http://www.w3.org/1999/xlink" width="665" height="665" viewBox="0 0 665 665">
  <defs>
    <linearGradient id="linear-gradient" x1="271.05" y1="217.73" x2="271.05" y2="58.09" gradientUnits="userSpaceOnUse">
      <stop offset="0" stop-color="#f867b0"/>
      <stop offset="1" stop-color="#fe9a69"/>
    </linearGradient>
    <linearGradient id="linear-gradient-2" x1="528.72" y1="323.47" x2="528.72" y2="203.58" xlink:href="#linear-gradient"/>
    <linearGradient id="linear-gradient-3" x1="441.5" y1="460.08" x2="441.5" y2="207.54" xlink:href="#linear-gradient"/>
  </defs>
  <title>animation03</title>
  <g id="Layer_2" data-name="Layer 2">
    <g id="msgs">
      <g>
        <g id="mediumChat">
          <path d="M235.4,384l24.31-23.61a15.9,15.9,0,0,0,3.6-1.52L325,323c2.78-1.61,4.17-3.73,4.18-5.86l0-9.8a4.26,4.26,0,0,1-.14.78c.4-2.41-.93-4.9-4.11-6.74l-139.8-80.72c-5.63-3.24-14.81-3.24-20.41,0l-61.64,35.82c-2.79,1.63-4.18,3.77-4.17,5.91v0l0,9.8c0,2.16,1.4,4.32,4.24,6l128.39,74.11C233.08,365.63,235.28,383,235.4,384Zm93.14-74.34a5.71,5.71,0,0,0,.35-.7A5.71,5.71,0,0,1,328.54,309.62Zm-1,1.48a6.71,6.71,0,0,0,.57-.64A6.71,6.71,0,0,1,327.54,311.1Zm-.74.81a10.88,10.88,0,0,1-1.82,1.3A10.88,10.88,0,0,0,326.8,311.91ZM99.16,264a5,5,0,0,1-.24-1.42A5,5,0,0,0,99.16,264Zm.79,1.54a5.26,5.26,0,0,1-.36-.71A5.26,5.26,0,0,0,100,265.54Zm1.28,1.41,0,.05Z" fill="#bcc7d3"/>
          <g>
            <g>
              <g style="isolation: isolate">
                <path d="M235.42,335.43l0,9.8c-.12-.91-2.32-18.32-3.91-31.71l0-9.8C233.11,317.1,235.31,334.51,235.42,335.43Z" fill="#fff"/>
                <g>
                  <path d="M98.88,223.64l0,9.8c0,2.16,1.4,4.32,4.24,6l128.39,74.12,0-9.8L103.13,229.59C100.3,228,98.88,225.79,98.88,223.64Z" fill="#e4e4e4"/>
                  <path d="M325,274.48l-61.64,35.83a16.35,16.35,0,0,1-3.6,1.51l0,9.81a16.86,16.86,0,0,0,3.6-1.52L325,284.29c2.78-1.61,4.17-3.74,4.18-5.87l0-9.8C329.15,270.75,327.76,272.87,325,274.48Z" fill="#e4e4e4"/>
                  <polygon points="235.42 335.43 235.4 345.23 259.71 321.63 259.74 311.82 235.42 335.43" fill="#e4e4e4"/>
                </g>
                <path d="M324.91,262.66c5.63,3.26,5.66,8.58.07,11.82l-61.64,35.83a16.35,16.35,0,0,1-3.6,1.51l-24.32,23.61c-.11-.92-2.31-18.33-3.9-31.71L103.13,229.59c-5.63-3.25-5.66-8.57-.07-11.82L164.7,182c5.6-3.25,14.78-3.25,20.41,0Z" fill="#fff"/>
              </g>
              <g style="isolation: isolate">
                <path d="M235.42,335.43l0,9.8c-.12-.91-2.32-18.32-3.91-31.71l0-9.8C233.11,317.1,235.31,334.51,235.42,335.43Z" fill="#fff"/>
                <g>
                  <path d="M98.88,223.64l0,9.8c0,2.16,1.4,4.32,4.24,6l128.39,74.12,0-9.8L103.13,229.59C100.3,228,98.88,225.79,98.88,223.64Z" fill="#e4e4e4"/>
                  <path d="M325,274.48l-61.64,35.83a16.35,16.35,0,0,1-3.6,1.51l0,9.81a16.86,16.86,0,0,0,3.6-1.52L325,284.29c2.78-1.61,4.17-3.74,4.18-5.87l0-9.8C329.15,270.75,327.76,272.87,325,274.48Z" fill="#e4e4e4"/>
                  <polygon points="235.42 335.43 235.4 345.23 259.71 321.63 259.74 311.82 235.42 335.43" fill="#e4e4e4"/>
                </g>
                <path d="M324.91,262.66c5.63,3.26,5.66,8.58.07,11.82l-61.64,35.83a16.35,16.35,0,0,1-3.6,1.51l-24.32,23.61c-.11-.92-2.31-18.33-3.9-31.71L103.13,229.59c-5.63-3.25-5.66-8.57-.07-11.82L164.7,182c5.6-3.25,14.78-3.25,20.41,0Z" fill="#fff"/>
              </g>
            </g>
            <g>
              <g style="isolation: isolate">
                <path d="M196.59,224.49v3.63c0,1.61-1.06,3.22-3.18,4.44-4.24,2.48-11.15,2.48-15.43,0-2.15-1.24-3.22-2.87-3.22-4.5v-3.63c0,1.63,1.07,3.26,3.22,4.5,4.28,2.47,11.19,2.47,15.43,0C195.53,227.7,196.58,226.1,196.59,224.49Z" fill="#4696f5"/>
                <path d="M193.37,220c4.28,2.47,4.3,6.47,0,8.94s-11.15,2.47-15.43,0-4.3-6.47,0-8.94A17,17,0,0,1,193.37,220Z" fill="#51b6fd"/>
              </g>
              <g style="isolation: isolate">
                <path d="M220.64,239.79v3.63c0,1.61-1.06,3.22-3.16,4.45a17,17,0,0,1-15.44,0c-2.15-1.24-3.23-2.87-3.23-4.5v-3.63c0,1.63,1.08,3.26,3.23,4.5a17,17,0,0,0,15.44,0C219.59,243,220.64,241.4,220.64,239.79Z" fill="#4696f5"/>
                <path d="M217.42,235.28c4.28,2.48,4.3,6.48.06,8.95a17,17,0,0,1-15.44,0c-4.28-2.47-4.3-6.47,0-8.95S213.15,232.82,217.42,235.28Z" fill="#51b6fd"/>
              </g>
              <g style="isolation: isolate">
                <path d="M244.7,253.46v3.64c0,1.6-1.06,3.21-3.17,4.44a17,17,0,0,1-15.44,0c-2.16-1.23-3.23-2.87-3.22-4.5V253.4c0,1.63,1.07,3.26,3.22,4.51,4.28,2.46,11.19,2.46,15.43,0C243.63,256.67,244.69,255.07,244.7,253.46Z" fill="#4696f5"/>
                <path d="M241.48,249c4.27,2.47,4.3,6.47,0,9s-11.15,2.46-15.43,0-4.3-6.48-.05-9A17,17,0,0,1,241.48,249Z" fill="#51b6fd"/>
              </g>
            </g>
          </g>
        </g>
        <g id="smallChat">
          <path d="M561.4,370.22l-93-53.73a15.06,15.06,0,0,0-13.59,0l-41,23.85c-1.85,1.08-2.78,2.5-2.77,3.93v6.5c0,1.43.93,2.87,2.82,4l85.46,49.34c1.06,8.91,2.53,20.5,2.6,21.11L518,409.47a11,11,0,0,0,2.4-1l41-23.85c1.85-1.07,2.78-2.48,2.78-3.9l0-6.52a2.78,2.78,0,0,1-.08.49C564.4,373.08,563.51,371.44,561.4,370.22ZM412.51,347.29l0,0ZM411,344.38a3.21,3.21,0,0,0,.16.95A3.21,3.21,0,0,1,411,344.38Zm.46,1.55c.08.14.13.29.22.42C411.57,346.22,411.52,346.07,411.44,345.93Zm150,32.16a7.77,7.77,0,0,0,1.22-.87A7.77,7.77,0,0,1,561.45,378.09Zm2.37-2.39a5.21,5.21,0,0,0,.24-.47A5.21,5.21,0,0,1,563.82,375.7Zm-.66,1c.12-.14.28-.27.38-.41C563.44,376.4,563.28,376.53,563.16,376.67Z" fill="#bcc7d3"/>
          <g>
            <g>
              <g style="isolation: isolate">
                <path d="M501.84,395.42l0,6.52c-.07-.61-1.54-12.2-2.6-21.1l0-6.53C500.3,383.22,501.76,394.81,501.84,395.42Z" fill="#51b6fd"/>
                <g>
                  <path d="M411,321v6.52c0,1.44.93,2.88,2.82,4l85.46,49.35,0-6.53L413.78,325C411.9,323.88,411,322.44,411,321Z" fill="#4696f5"/>
                  <path d="M561.45,354.85l-41,23.85a11.23,11.23,0,0,1-2.4,1l0,6.52a11,11,0,0,0,2.4-1l41-23.84c1.85-1.08,2.78-2.49,2.78-3.91l0-6.52C564.23,352.37,563.3,353.78,561.45,354.85Z" fill="#4696f5"/>
                  <polygon points="501.84 395.42 501.82 401.94 518 386.23 518.02 379.71 501.84 395.42" fill="#4696f5"/>
                </g>
                <path d="M561.4,347c3.76,2.17,3.78,5.71.05,7.87l-41,23.85a11.23,11.23,0,0,1-2.4,1l-16.18,15.71c-.08-.61-1.54-12.2-2.6-21.11L413.78,325c-3.75-2.15-3.76-5.7,0-7.86l41-23.85a15.06,15.06,0,0,1,13.59,0Z" fill="#51b6fd"/>
              </g>
              <g style="isolation: isolate">
                <path d="M501.84,395.42l0,6.52c-.07-.61-1.54-12.2-2.6-21.1l0-6.53C500.3,383.22,501.76,394.81,501.84,395.42Z" fill="#51b6fd"/>
                <g>
                  <path d="M411,321v6.52c0,1.44.93,2.88,2.82,4l85.46,49.35,0-6.53L413.78,325C411.9,323.88,411,322.44,411,321Z" fill="#4696f5"/>
                  <path d="M561.45,354.85l-41,23.85a11.23,11.23,0,0,1-2.4,1l0,6.52a11,11,0,0,0,2.4-1l41-23.84c1.85-1.08,2.78-2.49,2.78-3.91l0-6.52C564.23,352.37,563.3,353.78,561.45,354.85Z" fill="#4696f5"/>
                  <polygon points="501.84 395.42 501.82 401.94 518 386.23 518.02 379.71 501.84 395.42" fill="#4696f5"/>
                </g>
                <path d="M561.4,347c3.76,2.17,3.78,5.71.05,7.87l-41,23.85a11.23,11.23,0,0,1-2.4,1l-16.18,15.71c-.08-.61-1.54-12.2-2.6-21.11L413.78,325c-3.75-2.15-3.76-5.7,0-7.86l41-23.85a15.06,15.06,0,0,1,13.59,0Z" fill="#51b6fd"/>
              </g>
            </g>
            <g>
              <g style="isolation: isolate">
                <path d="M476,321.58V324a3.62,3.62,0,0,1-2.12,3,11.33,11.33,0,0,1-10.27,0,3.6,3.6,0,0,1-2.14-3v-2.42a3.64,3.64,0,0,0,2.14,3,11.35,11.35,0,0,0,10.28,0A3.61,3.61,0,0,0,476,321.58Z" fill="#e4e4e4"/>
                <path d="M473.85,318.58c2.84,1.64,2.86,4.31,0,5.95a11.35,11.35,0,0,1-10.28,0c-2.84-1.64-2.86-4.31,0-5.95A11.35,11.35,0,0,1,473.85,318.58Z" fill="#fff"/>
              </g>
              <g style="isolation: isolate">
                <path d="M492,331.76v2.41a3.58,3.58,0,0,1-2.1,3,11.35,11.35,0,0,1-10.28,0,3.65,3.65,0,0,1-2.15-3v-2.41a3.68,3.68,0,0,0,2.15,3,11.42,11.42,0,0,0,10.28,0A3.62,3.62,0,0,0,492,331.76Z" fill="#e4e4e4"/>
                <path d="M489.86,328.76c2.84,1.65,2.86,4.31,0,6a11.42,11.42,0,0,1-10.28,0c-2.85-1.65-2.87-4.31,0-6A11.35,11.35,0,0,1,489.86,328.76Z" fill="#fff"/>
              </g>
              <g style="isolation: isolate">
                <path d="M508,340.86v2.42a3.62,3.62,0,0,1-2.11,3,11.29,11.29,0,0,1-10.28,0,3.61,3.61,0,0,1-2.14-3v-2.41a3.62,3.62,0,0,0,2.15,3,11.27,11.27,0,0,0,10.27,0A3.61,3.61,0,0,0,508,340.86Z" fill="#e4e4e4"/>
                <path d="M505.87,337.86c2.84,1.64,2.86,4.31,0,5.95a11.27,11.27,0,0,1-10.27,0c-2.85-1.64-2.86-4.31,0-5.95A11.29,11.29,0,0,1,505.87,337.86Z" fill="#fff"/>
              </g>
            </g>
          </g>
        </g>
        <g id="bigChat">
          <path d="M531.4,505.22l-201-116c-8.09-4.67-21.3-4.67-29.33,0l-88.62,51.5c-4,2.32-6,5.38-6,8.45v.06l0,14c0,3.1,2,6.21,6.09,8.56L397.1,578.33c2.29,19.25,5.45,44.27,5.61,45.59l35-33.93a24.79,24.79,0,0,0,5.18-2.18l88.61-51.5c4-2.32,6-5.37,6-8.43l0-14.1c0,.23,0,.46,0,.68C537.78,511.14,535.78,507.75,531.4,505.22ZM208.56,454.39c.1.13.18.25.29.37C208.74,454.64,208.66,454.52,208.56,454.39Zm-2-4.46c0,.12,0,.25,0,.37C206.55,450.18,206.55,450.05,206.53,449.93Zm.21,1.07c0,.15.06.3.11.45C206.8,451.3,206.78,451.15,206.74,451Zm.39,1.12c.07.15.12.31.2.46C207.25,452.43,207.2,452.27,207.13,452.12Zm.6,1.13c.09.15.17.3.26.44C207.9,453.55,207.82,453.4,207.73,453.25Zm3.4,3.51-.09-.08Zm-1.23-1c-.08-.07-.14-.14-.21-.21S209.82,455.72,209.9,455.79ZM534.45,520c.25-.23.5-.47.72-.71C535,519.56,534.7,519.8,534.45,520Zm-3,2.18a14.14,14.14,0,0,0,1.41-.9A14.14,14.14,0,0,1,531.5,522.21Zm1.81-1.21c.28-.22.57-.43.82-.66C533.88,520.57,533.59,520.78,533.31,521Zm3.9-5.27a7.9,7.9,0,0,0,.2-.84A7.9,7.9,0,0,1,537.21,515.73ZM535.4,519c.22-.26.43-.51.61-.77C535.83,518.52,535.62,518.77,535.4,519Zm.78-1c.17-.27.35-.55.49-.82C536.53,517.43,536.35,517.71,536.18,518Zm.6-1.08a7.9,7.9,0,0,0,.35-.87A7.9,7.9,0,0,1,536.78,516.9Z" fill="#bcc7d3"/>
          <g>
            <g>
              <g style="isolation: isolate">
                <path d="M402.75,596.91l0,14.1c-.16-1.31-3.32-26.34-5.61-45.59l0-14.09C399.42,570.58,402.59,595.6,402.75,596.91Z" fill="#51b6fd"/>
                <g>
                  <path d="M206.47,436.21l0,14.09c0,3.11,2,6.21,6.09,8.56L397.1,565.42l0-14.09L212.56,444.76C208.49,442.41,206.46,439.31,206.47,436.21Z" fill="#4696f5"/>
                  <path d="M531.5,509.31l-88.61,51.5a24.79,24.79,0,0,1-5.18,2.18l0,14.09a24.27,24.27,0,0,0,5.18-2.18l88.61-51.5c4-2.32,6-5.37,6-8.43l0-14.09C537.5,503.93,535.49,507,531.5,509.31Z" fill="#4696f5"/>
                  <polygon points="402.75 596.91 402.71 611.01 437.67 577.08 437.71 562.99 402.75 596.91" fill="#4696f5"/>
                </g>
                <path d="M531.4,492.31c8.1,4.67,8.14,12.33.1,17l-88.61,51.5a24.79,24.79,0,0,1-5.18,2.18l-35,33.92c-.16-1.31-3.33-26.33-5.61-45.58L212.56,444.76c-8.09-4.67-8.13-12.31-.09-17l88.62-51.49c8-4.67,21.24-4.67,29.33,0Z" fill="#51b6fd"/>
              </g>
              <g style="isolation: isolate">
                <path d="M402.75,596.91l0,14.1c-.16-1.31-3.32-26.34-5.61-45.59l0-14.09C399.42,570.58,402.59,595.6,402.75,596.91Z" fill="#51b6fd"/>
                <g>
                  <path d="M206.47,436.21l0,14.09c0,3.11,2,6.21,6.09,8.56L397.1,565.42l0-14.09L212.56,444.76C208.49,442.41,206.46,439.31,206.47,436.21Z" fill="#4696f5"/>
                  <path d="M531.5,509.31l-88.61,51.5a24.79,24.79,0,0,1-5.18,2.18l0,14.09a24.27,24.27,0,0,0,5.18-2.18l88.61-51.5c4-2.32,6-5.37,6-8.43l0-14.09C537.5,503.93,535.49,507,531.5,509.31Z" fill="#4696f5"/>
                  <polygon points="402.75 596.91 402.71 611.01 437.67 577.08 437.71 562.99 402.75 596.91" fill="#4696f5"/>
                </g>
                <path d="M531.4,492.31c8.1,4.67,8.14,12.33.1,17l-88.61,51.5a24.79,24.79,0,0,1-5.18,2.18l-35,33.92c-.16-1.31-3.33-26.33-5.61-45.58L212.56,444.76c-8.09-4.67-8.13-12.31-.09-17l88.62-51.49c8-4.67,21.24-4.67,29.33,0Z" fill="#51b6fd"/>
              </g>
            </g>
            <g>
              <g style="isolation: isolate">
                <path d="M346.93,437.44l0,5.22c0,2.32-1.52,4.62-4.56,6.38-6.1,3.55-16,3.55-22.19,0-3.09-1.79-4.64-4.13-4.63-6.47v-5.22c0,2.34,1.55,4.68,4.63,6.46,6.16,3.56,16.09,3.56,22.2,0C345.41,442.06,346.92,439.75,346.93,437.44Z" fill="#e4e4e4"/>
                <path d="M342.29,431c6.15,3.55,6.18,9.3.08,12.84s-16,3.56-22.2,0-6.17-9.3-.06-12.84S336.15,427.42,342.29,431Z" fill="#fff"/>
              </g>
              <g style="isolation: isolate">
                <path d="M381.51,459.43l0,5.22c0,2.32-1.52,4.62-4.56,6.38-6.1,3.55-16,3.55-22.19,0-3.09-1.79-4.63-4.13-4.63-6.47l0-5.22c0,2.34,1.53,4.69,4.63,6.47,6.14,3.55,16.08,3.55,22.19,0C380,464.05,381.5,461.75,381.51,459.43Z" fill="#e4e4e4"/>
                <path d="M376.88,453c6.14,3.55,6.18,9.3.07,12.85s-16.05,3.55-22.19,0-6.18-9.3-.07-12.85S370.73,449.41,376.88,453Z" fill="#fff"/>
              </g>
              <g style="isolation: isolate">
                <path d="M416.09,479.09v5.22c0,2.31-1.53,4.62-4.57,6.38-6.1,3.54-16,3.54-22.19,0-3.09-1.79-4.64-4.14-4.63-6.47l0-5.22c0,2.34,1.54,4.68,4.62,6.47,6.16,3.55,16.09,3.55,22.2,0C414.56,483.71,416.08,481.4,416.09,479.09Z" fill="#e4e4e4"/>
                <path d="M411.45,472.62c6.15,3.54,6.19,9.3.08,12.85s-16,3.55-22.2,0-6.17-9.31-.06-12.85S405.31,469.06,411.45,472.62Z" fill="#fff"/>
              </g>
            </g>
          </g>
        </g>
        <g id="mediumMsg">
          <g style="isolation: isolate">
            <polygon points="275.01 96.65 280.34 93.56 213.56 55 208.23 58.09 275.01 96.65" fill="#fe9a69"/>
            <polygon points="291.26 95.26 296.58 92.17 280.34 93.56 275.01 96.65 291.26 95.26" fill="#fe9a69"/>
            <polygon points="333.85 217.73 339.17 214.64 339.46 116.92 334.13 120.01 333.85 217.73" fill="#f867b0"/>
            <polygon points="334.13 120.01 339.46 116.92 296.58 92.17 291.26 95.26 334.13 120.01" fill="#fe9a69"/>
            <polygon points="291.26 95.26 275.01 96.65 208.23 58.09 207.98 145.06 333.85 217.73 334.13 120.01 291.26 95.26" fill="url(#linear-gradient)"/>
          </g>
          <text transform="matrix(0.94, 0.62, 0, 1, 249.17, 140.35)" font-size="46.47" fill="#fff" font-family="FontAwesome, FontAwesome" letter-spacing="0.02em"></text>
        </g>
        <g id="smallMsg">
          <g style="isolation: isolate">
            <polygon points="531.69 232.54 535.69 230.22 485.54 201.26 481.54 203.58 531.69 232.54" fill="#fe9a69"/>
            <polygon points="543.89 231.5 547.88 229.17 535.69 230.22 531.69 232.54 543.89 231.5" fill="#fe9a69"/>
            <polygon points="575.88 323.47 579.88 321.15 580.09 247.76 576.08 250.09 575.88 323.47" fill="#f867b0"/>
            <polygon points="576.08 250.09 580.09 247.76 547.88 229.17 543.89 231.5 576.08 250.09" fill="#fe9a69"/>
            <polygon points="543.89 231.5 531.69 232.54 481.54 203.58 481.35 268.9 575.88 323.47 576.08 250.09 543.89 231.5" fill="url(#linear-gradient-2)"/>
          </g>
          <text transform="matrix(0.94, 0.62, 0, 1, 512.28, 265.36)" font-size="34.9" fill="#fff" font-family="FontAwesome, FontAwesome" letter-spacing="0.02em"></text>
        </g>
        <g id="bigMsg">
          <g style="isolation: isolate">
            <polygon points="447.77 268.54 456.19 263.65 350.54 202.65 342.11 207.54 447.77 268.54" fill="#fe9a69"/>
            <polygon points="473.46 266.34 481.88 261.44 456.19 263.65 447.77 268.54 473.46 266.34" fill="#fe9a69"/>
            <polygon points="540.84 460.08 549.27 455.19 549.71 300.6 541.28 305.5 540.84 460.08" fill="#f867b0"/>
            <polygon points="541.28 305.5 549.71 300.6 481.88 261.44 473.46 266.34 541.28 305.5" fill="#fe9a69"/>
            <polygon points="473.46 266.34 447.77 268.54 342.11 207.54 341.72 345.12 540.84 460.08 541.28 305.5 473.46 266.34" fill="url(#linear-gradient-3)"/>
          </g>
          <text transform="matrix(0.94, 0.62, 0, 1, 406.89, 337.67)" font-size="73.52" fill="#fff" font-family="FontAwesome, FontAwesome" letter-spacing="0.02em"></text>
        </g>
        <rect id="wrapper" width="665" height="665" fill="none"/>
      </g>
    </g>
  </g>
</svg>
