<svg xmlns="http://www.w3.org/2000/svg" xmlns:xlink="http://www.w3.org/1999/xlink" width="665.9" height="665.9" viewBox="0 0 665.9 665.9">
  <defs>
    <linearGradient id="linear-gradient" x1="311.24" y1="486.79" x2="311.24" y2="182.5" gradientUnits="userSpaceOnUse">
      <stop offset="0" stop-color="#9f6aff"/>
      <stop offset="1" stop-color="#51b6fd"/>
    </linearGradient>
    <linearGradient id="linear-gradient-2" x1="461.8" y1="310.7" x2="461.8" y2="264.86" gradientUnits="userSpaceOnUse">
      <stop offset="0" stop-color="#f867b0"/>
      <stop offset="1" stop-color="#fe9a69"/>
    </linearGradient>
    <linearGradient id="linear-gradient-3" x1="446.8" y1="289.26" x2="471.95" y2="289.26" xlink:href="#linear-gradient-2"/>
    <linearGradient id="linear-gradient-4" x1="455.08" y1="306.68" x2="462.89" y2="306.68" xlink:href="#linear-gradient-2"/>
    <linearGradient id="linear-gradient-5" x1="306.42" y1="295.17" x2="306.42" y2="205.64" xlink:href="#linear-gradient-2"/>
    <linearGradient id="linear-gradient-6" x1="277.12" y1="253.3" x2="326.24" y2="253.3" xlink:href="#linear-gradient-2"/>
    <linearGradient id="linear-gradient-7" x1="293.28" y1="287.33" x2="308.54" y2="287.33" xlink:href="#linear-gradient-2"/>
    <linearGradient id="linear-gradient-8" x1="191.81" y1="369.27" x2="191.81" y2="297.65" xlink:href="#linear-gradient-2"/>
    <linearGradient id="linear-gradient-9" x1="168.37" y1="335.77" x2="207.67" y2="335.77" xlink:href="#linear-gradient-2"/>
    <linearGradient id="linear-gradient-10" x1="181.3" y1="362.99" x2="193.5" y2="362.99" xlink:href="#linear-gradient-2"/>
  </defs>
  <title>animation04</title>
  <g id="Layer_2" data-name="Layer 2">
    <g id="cars">
      <g>
        <g id="phone">
          <g id="_Group_" data-name="&lt;Group&gt;">
            <g id="_Group_2" data-name="&lt;Group&gt;">
              <g>
                <path id="_Path_" data-name="&lt;Path&gt;" d="M240.06,535.93a48.22,48.22,0,0,1-48.34.09L10.5,431.41a19.28,19.28,0,0,1,0-33.41L389.15,180a38.53,38.53,0,0,1,38.49,0L612,286.14a19.27,19.27,0,0,1,.07,33.37Z" fill="#0a0a2c"/>
                <rect id="_Path_2" data-name="&lt;Path&gt;" x="0.9" y="391.94" width="17.4" height="22.98" fill="#0a0a2c"/>
                <rect id="_Path_3" data-name="&lt;Path&gt;" x="604.21" y="278.54" width="17.4" height="25.61" fill="#0a0a2c"/>
              </g>
            </g>
            <path id="_Path_4" data-name="&lt;Path&gt;" d="M240.06,511.94a48.25,48.25,0,0,1-48.34.08L10.5,407.41a19.28,19.28,0,0,1,0-33.41L389.15,156a38.6,38.6,0,0,1,38.49,0L612,262.14a19.28,19.28,0,0,1,.07,33.38Z" fill="#142842"/>
            <path id="_Path_5" data-name="&lt;Path&gt;" d="M91.17,423.66a33.59,33.59,0,0,1,33,0c9.47,5.47,10.3,13.07,0,19a32.45,32.45,0,0,1-32.95,0C80.73,436.65,80.72,429.69,91.17,423.66Z" fill="#0a0a2c"/>
            <g id="_Group_3" data-name="&lt;Group&gt;">
              <path id="_Path_6" data-name="&lt;Path&gt;" d="M98.44,428a18.58,18.58,0,0,1,18.22,0c5.24,3,5.69,7.23,0,10.52a18,18,0,0,1-18.22,0C92.67,435.13,92.67,431.29,98.44,428Z" fill="none" stroke="#fff" stroke-miterlimit="10" stroke-width="1.73"/>
            </g>
            <g id="_Group_4" data-name="&lt;Group&gt;">
              <path id="_Path_7" data-name="&lt;Path&gt;" d="M447,191.79a3.85,3.85,0,0,1,1.94-.55,3.89,3.89,0,0,1,1.95.52L524,233.9a2,2,0,0,1,1,1.67,1.92,1.92,0,0,1-1,1.67l-5.31,3.08a5.79,5.79,0,0,1-2.92.78,5.65,5.65,0,0,1-2.91-.8L441.5,198.39a1.93,1.93,0,0,1,0-3.32Z" fill="#0a0a2c"/>
              <path id="_Path_8" data-name="&lt;Path&gt;" d="M447,191.79a3.85,3.85,0,0,1,1.94-.55,3.89,3.89,0,0,1,1.95.52L524,233.9a2,2,0,0,1,1,1.67,1.92,1.92,0,0,1-1,1.67l-5.31,3.08a5.79,5.79,0,0,1-2.92.78,5.65,5.65,0,0,1-2.91-.8L441.5,198.39a1.93,1.93,0,0,1,0-3.32Z" fill="#0a0a2c"/>
            </g>
            <g>
              <path d="M437.37,187c.05-.1.09-.2.13-.29s0-.06,0-.09a3,3,0,0,0,.11-.4.37.37,0,0,1,0-.11c0-.11,0-.22,0-.33,0-1.33-1-2.64-2.9-3.73a13,13,0,0,0-6.49-1.68h-.68a12.94,12.94,0,0,0-5.89,1.74,6.71,6.71,0,0,0-2.45,2.2l0,.05a2.1,2.1,0,0,0-.13.26,1.69,1.69,0,0,0-.12.28l0,.1a1.86,1.86,0,0,0-.1.39.53.53,0,0,0,0,.13,1,1,0,0,0,0,.3c0,1.33,1,2.64,2.89,3.74a13.07,13.07,0,0,0,6.49,1.68h.69a13,13,0,0,0,5.88-1.74,6.58,6.58,0,0,0,2.44-2.19.21.21,0,0,0,0-.06Z" fill="#0a0a2c"/>
              <path d="M539.51,246.6a1.6,1.6,0,0,0-.19-.48l-.16-.23a3.13,3.13,0,0,0-.73-.65l-.32-.21a6.31,6.31,0,0,0-1.49-.61,6.74,6.74,0,0,0-1.63-.22,5.91,5.91,0,0,0-.84,0,6.36,6.36,0,0,0-1.64.41c-.26.11-.52.24-.78.38-1.26.73-1.73,1.53-1.42,2.31a3.18,3.18,0,0,0,1.42,1.37,6.9,6.9,0,0,0,1.57.66,7.73,7.73,0,0,0,.81.16,6.32,6.32,0,0,0,4-.82c1-.57,1.45-1.23,1.43-1.87A1,1,0,0,0,539.51,246.6Z" fill="#0a0a2c"/>
            </g>
          </g>
          <polygon id="_Path_9" data-name="&lt;Path&gt;" points="48.14 368.46 369.38 182.5 574.33 300.82 253.09 486.79 48.14 368.46" fill="url(#linear-gradient)"/>
          <g>
            <path d="M171.74,323.71a.58.58,0,0,0,.64-.08c.09-.07.21-.12.26-.21l.36-.23c.15-.16.6-.19.51-.44a.56.56,0,0,1,.4-.36,1.77,1.77,0,0,1,1,.29,1.71,1.71,0,0,0,.13.23c-.09.28.2.54.35.81-.06.31.06.64-.13.93,0,.12-.34.15-.28.3l-.86.66a1.89,1.89,0,0,1-1.24,1,.23.23,0,0,0-.17.28c-.25.31-.52.62-.73.94s-.4.46,0,.65a1.11,1.11,0,0,0,1.07-.14c.14-.08.32-.15.48-.23.63-.16.91-.56,1.56-.71a4.92,4.92,0,0,1,1.37-.58,1.41,1.41,0,0,1,1.07,0c.42.21.15.42,0,.6s-.41.33-.57.52c-.38.44-1.08.75-1.29,1.35l1.4-.26c.3,0,.54.16.83.2a2,2,0,0,0,1.34-.23c1.05-.48,1.55-1.24,2.58-1.73.2-.32.82-.42,1.06-.72l1.66-.93c.12-.26.65-.33.79-.57a2.42,2.42,0,0,1,2.48-.31c.39.11.81.17,1.22.25a2.89,2.89,0,0,0,1.27.15,5.11,5.11,0,0,1,1.8.16,9.7,9.7,0,0,0,2.5.48c.55.31,1.52.15,1.88.67.19.11.37.23.58.33s.38.34.73.22.13-.31,0-.48-.63-.45-.45-.73a13.27,13.27,0,0,0,1.66.08c.95.09,1.33.43,1.33.94,0,.17-.25.33-.1.54s-.45.31-.09.54c.41,0,.51-.32.92-.35l1.07-.23c.56.08,1.1,0,1.65.07s.39.25.48.42a.72.72,0,0,0-.14.63c.06.37.34.57,1,.5l.4,0c.38.06.33.26.46.41,0,.43-.92.82.13,1.37l.46-.87c.26,0,.53,0,.8,0,.07.13.13.26.19.39-.09.19-.08.38.21.55.1.16.51.16.54.34s-.23.34-.06.54c.27.48,1.22.39,1.67.72.3,0,.34-.16.43-.28s.44-.16.75-.05c.12.28.54.45.85.65a2.88,2.88,0,0,0,1.52.32,34.25,34.25,0,0,0,4.62.55,1.41,1.41,0,0,0,1.08-.08c.75,0,1.12-.43,1.82-.53l1.09.07c.46.3.71.18.85-.08a2.24,2.24,0,0,0,.2-1.79c-.54-.5-1.48-.82-2-1.33-.39-.85-1.45-1.61-1.46-2.51s-.26-1.84.53-2.63a1.24,1.24,0,0,0,.62-.35c.56-.61,1.14-1.25.4-2-.57-.59-1.11-1.13-.32-1.68.11-.07.06-.24,0-.37a1.11,1.11,0,0,1,.63-1.1c.09-.23.56-.29.67-.5,2.9-1.15,3.78-3.15,5.49-5a7.65,7.65,0,0,0-3.38,1.42,1.15,1.15,0,0,1-1.09.22c-.44-.1-.36-.34-.28-.54s0-.48-.34-.68c-.56-.36-.41-.62.07-.84a1.38,1.38,0,0,1,.81-.44,3.49,3.49,0,0,1,1.21.2c.63.16,1.24.2,1.34-.21s-.46-.57-1.07-.64a5.78,5.78,0,0,0-3.91.66,1.29,1.29,0,0,1-.8.44c-.63.14-.7-.15-.79-.39s-.45-.46-1-.4q-.36,0-.75,0a1,1,0,0,1-.76-.23c-.17-.19.1-.26.26-.35l1.11-.6c.27-.14.45-.3.11-.52-.75-.47-.32-.69.32-.88a7.64,7.64,0,0,1,1.77-.24,14.2,14.2,0,0,0,2.2-.18c.27-.05.59-.15.54-.31s-.5-.16-.75-.15c-.54,0-1.24.1-1.51-.22s.27-.62.68-.84l.14-.07c.08-.24.59-.27.67-.51-1.14-.11-2.33-.44-3.34,0a.86.86,0,0,1-1.07-.12c.12-.28.53-.46.52-.77s.25-.33.48-.44c-.18-.15-.3-.06-.44,0a3,3,0,0,1-.88.4,1.46,1.46,0,0,1-1.5.23c-.57-.3,0-.61.21-.88,0,0,.09,0,.13-.07a2.86,2.86,0,0,1,1.2-.65,1.17,1.17,0,0,1,.35-.14c.35,0,.4-.18.42-.34s-.14-.13-.26-.14c-.3,0-.61-.06-.71.12s-.27.21-.53.21a2.26,2.26,0,0,0-.94,0c-.75,0-1.07-.4-1.56-.64-.71-.2-.71-.51-.62-.84s.13-.42.2-.63.08-.28-.17-.41c-.7-.4-.51-.85-.5-1.45a3.9,3.9,0,0,1-1.18.88.87.87,0,0,1-.76.09.4.4,0,0,1-.31-.47c0-.33.28-.58.67-.78,0-.2.46-.24.55-.43l.75-.45c.29-.18.61-.39.35-.67s-.12-.54.11-.77a4.48,4.48,0,0,0,1.31-2,7.62,7.62,0,0,0-3.38,1.52,10.92,10.92,0,0,0-.94,1.14c-.32,0-.48.11-.51.29l-.13.07c-.32,0-.51.1-.54.29a1.81,1.81,0,0,0-1.43.64c-.24.34-.51.66-.77,1a.7.7,0,0,1-.93,0c-.5-.53-.86-.28-1.27-.11-.32,0-.5.1-.53.29-2.2,1.19-4,2.54-4.85,4.31a3.08,3.08,0,0,1-1.42,1.5,1,1,0,0,1-.78.08c-.34-.12-.22-.31-.14-.45.3-.56.63-1.12.95-1.67.61-.25.81-.62.72-1.07a8.81,8.81,0,0,1,3-2.69c.15-.26.56-.36.92-.5a.29.29,0,0,0,.14-.24,7.21,7.21,0,0,0,1.57-1.88c-.36-.21-.38,0-.51.09l-.91.67c-.32,0-.49.11-.51.29l-1.18.65c-.71.14-1.18,0-1.31-.49h0a.45.45,0,0,0-.46,0c-.51.41-1.3.66-1.79,1.08l-.76.44c-.08.24-.56.28-.67.51l-.65.52c-.33,0-.49.11-.51.3l-1,.88c-.33,0-.49.12-.51.3a.23.23,0,0,1-.11.07c0,.21-.46.24-.54.43a3.07,3.07,0,0,1-.43.26c-.32.14-.55.5-1,.3s-.16-.51,0-.75c0,0,0,0,.05-.05.51-.29,1-.59,1-1.06-.19-.12.37-.18,0-.31a2.76,2.76,0,0,0-.83.38,21.15,21.15,0,0,1-2.47,1.26l-1.2.63c-.61.19-1,.52-1.62.73-.36.12-.54.37-.29.68.61.28.64.53.13.79a4.41,4.41,0,0,1-1.54.42,7.57,7.57,0,0,0-2,.49c-.17.16-.6.24-.4.52a.27.27,0,0,1-.1.08.91.91,0,0,1-.68.37.47.47,0,0,1-.4,0c-.49-.11-.72,0-.82.26a.53.53,0,0,0-.24.49c-.05.14.1.27.24.4.5.31,1,.52,1.21,0,0-.74.27-.82,1.64-.61l.29,0c.54.07.72.24.68.54s-.21.32-.34.47l-1.33.72c-.39.06-.5.33-.91.36a.4.4,0,0,1-.13.07c-.55-.07-.53.31-.94.35a5,5,0,0,0-1.47,1c-.15.18-.28.4.15.54s.55.31.48.52-.52.19-.87.19-.46,0-.68,0c-.56,0-1.08.09-.56.54.28.25,0,.39-.22.52l-2.43,1.32c0,.2-.47.24-.54.43a5.79,5.79,0,0,0-1.16,1.16c-.15.2-.27.44.09.56,1.17.39.7.83.58,1.27-.62,0-.81.25-.94.55-.06.14.15.35-.2.42a4,4,0,0,0-1,.87c-.27.28-.59.55-.46.93h0a.67.67,0,0,1-.1.21C171.43,323.46,171.47,323.6,171.74,323.71Z" fill="#51b6fd"/>
            <path d="M477.89,313.9a6.5,6.5,0,0,1-.75-.93c-1.15-1.72-1.91-3.56-3.61-5.16q0-.4-.6-.51l-.12-.22c0-.22-.19-.36-.53-.41l-.65-.64c-.07-.19-.42-.28-.46-.47a3.88,3.88,0,0,1-.49-.36,2.31,2.31,0,0,0-2.39-.6,4.8,4.8,0,0,1-.87,0,4.78,4.78,0,0,0-1.51-.18.45.45,0,0,1-.33-.09c-.34-.08-.64-.31-1-.15a2.25,2.25,0,0,1-1.06-.15,2.14,2.14,0,0,0-.89-.24c-.61-.33-1.17.1-1.76,0-.19-.05-.34-.21-.58-.11a3.12,3.12,0,0,1-1.27-.3,1.39,1.39,0,0,0-.92-.25,5.86,5.86,0,0,1-1.59-.84c-.44-.13-.59-.46-1-.6a4,4,0,0,0-1.26-.42,9,9,0,0,1-3.46-1,1.76,1.76,0,0,0-1-.24c-.28.19-.1.36.1.53l.09.1c-.07.22,0,.4.34.54a3.28,3.28,0,0,0,.77.87c-.05.33.57.39.69.65l1.28,1.73c-.08.26.17.47.33.69s.05.16.07.23c-.09.24-.42.31-.7.41a2,2,0,0,1-.74.07,2.76,2.76,0,0,0-1.28,0,13.39,13.39,0,0,1-2.76,0c-.48-.05-1-.16-1.13-.55.07-.22-.17-.35-.41-.48a1.13,1.13,0,0,1-.48-.72,1.4,1.4,0,0,0-.71-.93c-.46.08-.89.2-1.33.29l-.14.05c-.35,0-.47.3-.83.33a3.91,3.91,0,0,1-1.31.48c-.22.05-.53.12-.29.33s.12.44.21.66c-.16.23-.42.44-.24.73a1.06,1.06,0,0,0,.41.47c-.15.29.07.58.05.88s.16.3.48.27.92.07.71.49a2.34,2.34,0,0,1-1,.54,3,3,0,0,1-1.32.41c-.23,0-.47-.14-.7,0a4.42,4.42,0,0,0-.73,0c-.26.05-.62.15-.35.41s.23.77,0,1.14-.25.69.43,1c.22.1.89.51,0,.67-.18-.05-.33-.22-.58-.11l-.23,0c-.33-.07-.42,0-.3.2.41.28.92.51,1.13.88,0,.19.1.36.15.53a2.65,2.65,0,0,1-.59,2.09,14.64,14.64,0,0,0-1.14,1.55.45.45,0,0,0-.28.56l-.63,1.21a.62.62,0,0,0,0,.75,2.82,2.82,0,0,0,2.21,1.19,1.08,1.08,0,0,1,.52.12c.18.19.67.29.6.54s-.56,0-.76.15c-.53.05-.38.21-.07.34a9.15,9.15,0,0,0,1,.28,13.25,13.25,0,0,0,2.56.72l.21,0a3.2,3.2,0,0,0,1.7.77,16.12,16.12,0,0,1,3.28,1.72c0,.2.07.38.43.47l.13.06a1.36,1.36,0,0,0,1.39.1c1.15-.07,1.7-.49,1.88-1.19a3,3,0,0,1,1.44-1.85,2.38,2.38,0,0,0,1.21-1.53,1.9,1.9,0,0,1,.86-1.43,8.47,8.47,0,0,0,1.55-1.25,6.78,6.78,0,0,1,3.92-1.42,8.53,8.53,0,0,1,3.39.38c.57.16.68,0,.59-.29a14.08,14.08,0,0,0-.5-1.37c-.06-.16-.12-.33.15-.4a1,1,0,0,1,.77.1,1,1,0,0,1,.35.41,3.63,3.63,0,0,0,.77,1.12l.24-.43c.23-.4.58-.45,1-.1a2.72,2.72,0,0,0,1.35.46,12.47,12.47,0,0,1,2,.41c1.31.44,2.94.16,3.33-.71.32-.71.94-.71,1.84-.62s1,0,.94-.56-.15-.9.33-1.27c.09-.22.51-.26.63-.46A.48.48,0,0,0,477.89,313.9Z" fill="#51b6fd"/>
            <path d="M147.45,332.39c.34,0,.36-.22.68-.21l.52-.12a4.17,4.17,0,0,1,.71,0c1.46.44,2.64.24,3-.52a1.28,1.28,0,0,1,1-.52,8.17,8.17,0,0,0,2.61-.71,2.27,2.27,0,0,0,.9-.49l.85-.67a2,2,0,0,0,.73-.81,1.32,1.32,0,0,0,0,.9s0,0,0,.06l.07,0c.69-.15.7-.59,1.09-.87a1.54,1.54,0,0,0,.43-.41.83.83,0,0,0,0,.35c-.42.55-.82,1.11-1.27,1.65a4,4,0,0,1-2.39,1.32,1.87,1.87,0,0,0-1.14.68c-.1.14-.08.28.17.41a2.08,2.08,0,0,0,1,.18,8.72,8.72,0,0,0,4.23-.87.85.85,0,0,1,.81-.16c.41.11.32.32.35.49a.23.23,0,0,1-.14.3c0,.17-.41.19-.41.37a4.12,4.12,0,0,1-1.58.7c-.34,0-.37.22-.68.21a2.65,2.65,0,0,1-2.49,0,16.39,16.39,0,0,0-2.43-.38l-.75-.42c-.44-.05-.45.26-.82.27a10.25,10.25,0,0,1-2.9.52c-.88.08-1.73.2-2.09.7-.2.26-.26.5.56.46.14,0,.65-.1.36.2,0,.21-.47.24-.53.43-.43.34-.69.71,0,1.14a2.61,2.61,0,0,0,2.08.16,8,8,0,0,0,1-.42,8.08,8.08,0,0,0,1.76-.47c.28,0,.36.09.27.21a4.79,4.79,0,0,1-.46.55c-.55.55-.55.55.6.65a1.06,1.06,0,0,1,.37.08,1.14,1.14,0,0,0,1.23,0c.44-.28,1.31-.32,1.4-.79h0c.42-.36.86-.71.38-1.24-.22-.54.57-.46,1.11-.54a3.23,3.23,0,0,0,.94-.05h0a3.51,3.51,0,0,0,1.13-.05c.28,0,.55-.06.84-.08a2.53,2.53,0,0,0-1.37.48l-.35.53c-.12.16-.46.31-.18.53a1.42,1.42,0,0,0,1,.16h.13a.46.46,0,0,0-.27.29c-.15.3-.31.6.11.93a1.22,1.22,0,0,0,.83-.12l.54-.26c.34,0,.42-.27.78-.29l.93-.48c.54-.12.74-.47,1.3-.57l1.07-.55c.33,0,.42-.27.78-.29l.25-.13a1,1,0,0,0,.79-.28,1.41,1.41,0,0,0,.8-.26c.4-.16.69-.35.57-.68.17-.38.63-.73.28-1.26-.5.27-.9.52-1.36.73a3,3,0,0,1-1.88.3c.16-.17.9-.15.41-.52a1.1,1.1,0,0,0-.65.35l.07.16c-.57-.18-.64-.23-.12-.43,1.82-.7,2.2-1.88,2.71-3a1.11,1.11,0,0,0,0-.6c0-.14-.15-.26-.4-.33a.54.54,0,0,0-.53.15c-.3.19-.44.45-.82.6a.87.87,0,0,1-.61.08c-.3-.07-.37-.22-.39-.38-.07-.45.26-.79.74-1.09.24-.15.6-.32.08-.54s-.29-.34,0-.47a9.52,9.52,0,0,1,2.58-.75c.3-.1.37-.25.21-.46a1.61,1.61,0,0,1,.34-1.69c.28-.31.51-.61.38-1a1.46,1.46,0,0,1,.43-.78.42.42,0,0,0,.24-.6c.1-.24.2-.47.31-.7-.11-.1.37-.18,0-.3l-1.18.33c-.35,0-.55.1-.33.24.73.47.07.71-.17,1a.47.47,0,0,1-.6.23c-.36-.11-.17-.3-.14-.45.07-.45.65-.79.58-1.27.14-.17.27-.35.4-.52s.75-.38.51-.75c.1-.13.21-.25.32-.38s.49-.4.38-.7l.07-.07c.22-.24.47-.49-.05-.79a9.73,9.73,0,0,0-3.06.28,1.12,1.12,0,0,0-.64.35l-.74.6a2.23,2.23,0,0,1-1.08.59s-.13,0-.15,0c-1.52-.65-2.18.07-3.06.37a10,10,0,0,0-1.38.73c-.17.29-.75.38-.94.65l-.68.37c-.54.12-.74.47-1.31.58a6.17,6.17,0,0,1-1.62.68,2.37,2.37,0,0,0-1,.57c-.05.34-.54.47-.92.66a1.13,1.13,0,0,0-.65.35,3.73,3.73,0,0,1-.83.8c-.87.47-.62,1,.09,1.54.24.2.47.37.16.55-.55.52-1.54.8-2.12,1.29,0,.07-.17.15-.13.19.68.67-.09,1-.67,1.32a2.39,2.39,0,0,0-.68.66,2.9,2.9,0,0,1-1.13,1l-.91.5A1.32,1.32,0,0,0,147.45,332.39ZM160,336.24a.43.43,0,0,1,.48.3A1,1,0,0,0,160,336.24Zm.45-1a3.66,3.66,0,0,0,1.13-.13A2.54,2.54,0,0,1,160.43,335.24Zm1.29-.2-.11,0a1,1,0,0,0,.24-.14c.15-.12.27-.24-.1-.36a1.4,1.4,0,0,0-.32-.06.75.75,0,0,1,.57.16C162.14,334.86,161.87,334.94,161.72,335Zm-2.5-8c-.08.14-.17.27-.26.4A1.37,1.37,0,0,1,159.22,327.09Z" fill="#51b6fd"/>
            <path d="M189.86,342.78l-.62.36c-.32.11-.52.26-.38.51s.15.48.64.59a1.18,1.18,0,0,0,1.09-.25c.43-.35.81-.73,1.21-1.1a7.85,7.85,0,0,0,2-.46,7,7,0,0,1,1.9-.13,3.27,3.27,0,0,0,1.85-.14c.59-.22.83-.06,1,.29.39,0,.45-.26.81-.27l.66-.33c1.13-.13,2.11-.45,3.25-.59.38-.05,1,0,1.08-.34a6.14,6.14,0,0,0-1.42-.18c-.47,0-.69-.13-.47-.39.64-.75.18-1.09-1.51-1.4a36.11,36.11,0,0,0-4.41-.38c-.55,0-1.23,0-1.4-.46s.2-1,.93-1.08c1-.16,2,.06,3,0s1.5-.52.72-1.07c-.3-.2-.32-.35-.19-.54.41-.61.4-.61-.74-.74a1.55,1.55,0,0,0-1.17.05c-.24.1-.37.28-.7.31h0a1.75,1.75,0,0,0-1.08.1l-1.37.06a.87.87,0,0,0-.9.22c-.21.09-.39.21-.62.29a2.45,2.45,0,0,1-2.46-.33c.12-.18.25-.36-.12-.55l-.07-.14a1,1,0,0,0-1.2-.14,23.37,23.37,0,0,0-2.72.46c-.39.05-.5.31-.91.35a1,1,0,0,1-.94.18c-.56-.26-.08-.62-.23-.95-.64,0-.91.32-.9.56,0,.41-.34.56-.9.65a1,1,0,0,0-.66.06,1.59,1.59,0,0,1-1.51,0,.9.9,0,0,0-1-.11l-.42,0a1,1,0,0,0-.92.21c-.78.41-1.75.76-.89,1.58,0,0,0,0,0,.05a1.32,1.32,0,0,1-.81.44.44.44,0,0,1-.37.06c-.41-.05-.77-.06-1,.17-.67.54-1.12.52-2.21-.12-.09-.29-.45-.42-.88-.51a.52.52,0,0,1-.15-.07,1.57,1.57,0,0,0-1.68.91h0c0,.13-.14.24-.11.38l.36.64a2.62,2.62,0,0,0,.68.69,4.11,4.11,0,0,0-1.62-.51l-1.27-.13a.88.88,0,0,0-1.07.39.57.57,0,0,0-.13.08c-.62.45-.84,1-.46,1.6.1.25,0,.52.46.73a1.61,1.61,0,0,0,.73.41l.17.08a1.5,1.5,0,0,0,1,.29c1.35.33,2.71.69,3.73,0a1.1,1.1,0,0,0,.71-.26,5.24,5.24,0,0,1,1.63-.87l1.56-.83c.61-.13.82-.52,1.44-.64.33-.3,1-.35,1.43-.61a1,1,0,0,0,.78-.27l.29-.13a11.49,11.49,0,0,0,3.32-.69l1.09-.39a5.82,5.82,0,0,0,1-.1c.79.16.81.57,1.07.89a2.61,2.61,0,0,1,2.28-.25c.61.26,1.2.71,1.92.25a1.88,1.88,0,0,1,.94-.51,1,1,0,0,1,.8.21.56.56,0,0,1-.06.3c0-.11-.16-.22-.47-.32-.42.13-.93.22-1,.55a1,1,0,0,0,.51.27l-.5.05-.41,0c-.33.08-.6.18-.51.43,0,.08-.07.17-.11.25s-.22.32-.07.51c0,.1.07.17.18.24.17.29,1,.22,1,.59L191,342C190.78,342.33,190.13,342.46,189.86,342.78Zm-20.17-2.43a6.79,6.79,0,0,1,.9.44C170.28,340.64,170,340.48,169.69,340.35Zm2.85,1c-.23,0-.44-.1-.66-.15a4.51,4.51,0,0,1-1.16-.39,3,3,0,0,0,.36.13.93.93,0,0,0,.56.08c.18-.05.09-.19,0-.29a1.28,1.28,0,0,0-.39-.43,5.63,5.63,0,0,0,1.46.58c.27.08.64.14.53.35S172.84,341.43,172.54,341.4Z" fill="#51b6fd"/>
            <path d="M418.27,308.56a7.5,7.5,0,0,0,1.46-.65c.32,0,.62,0,.74-.25a1.15,1.15,0,0,1,.71-.12c.39-.07.46-.25.36-.49.4-.31.45-.61-.17-.9a2.41,2.41,0,0,1-1-.68,10.33,10.33,0,0,1-.77-2.18c-.06-.58-.13-1-1.18-1.14a.32.32,0,0,1-.19-.11c-.18-.33-.54-.22-.84-.16-1,.17-1,.17-1-.5a2.26,2.26,0,0,1,0-.26c0-1.1,0-1.1-1.65-1.19l-.51,0c-.64,0-1,.09-1,.55a11.33,11.33,0,0,1-.36,3.47,1,1,0,0,1-.55.78c-.11.45.36.91.17,1.36s-.76.61-.29,1.05a2.05,2.05,0,0,0,1.46.66l1.17.4a.78.78,0,0,0,.6.11,2.81,2.81,0,0,1,.93.21A2.4,2.4,0,0,0,418.27,308.56Z" fill="#51b6fd"/>
            <path d="M438.69,298.47l2.06,0a6.41,6.41,0,0,0,1.16.21c1,.32.4.95.84,1.42a5.8,5.8,0,0,1,2.14-.69,5.9,5.9,0,0,0,1.29-.25,1.86,1.86,0,0,0,1.22-.24c.11-.15.34-.25.46-.39.16-.34-.46-.63-.17-1,.6-.81,1.57-1,3.11-.63a1.08,1.08,0,0,0,.94.23,5.47,5.47,0,0,0,1.42-.17c.31,0,.62,0,.72-.26s.68-.09.57-.34-.47-.12-.72-.15c-.47-.05-.94-.07-1.41-.1a4.41,4.41,0,0,1-2.29-.61,3.72,3.72,0,0,0-2.53-.49,57.27,57.27,0,0,0-8.49,1.13c-1.16.25-1.75.61-1.74,1.39,0,.3,0,.65-.55.72a2.4,2.4,0,0,1-1.79-.34c-.55-.59-1.06-.34-1.61-.2s-1,.3-1.44.46c-.15.06-.37.12-.3.27s.34.2.55.18a6.66,6.66,0,0,0,1.21-.16c.76-.17,1.12-.14,1,.49-.06.47.29.59,1.07.49.33-.14.44-.4.74-.56l1.57-.25A2.05,2.05,0,0,0,438.69,298.47Z" fill="#51b6fd"/>
            <path d="M380.53,342.3a2.54,2.54,0,0,0-.83-.54,11.82,11.82,0,0,0-1.93-.9.63.63,0,0,0-.55,0c-.17.11-.11.24.06.37a1.62,1.62,0,0,1,.66.89,2.54,2.54,0,0,1-.37,2.13,1.74,1.74,0,0,0,1,2.27c1.19.57,2.15,1.2,2.41,2.12,0,.14.26.27.4.4a2.37,2.37,0,0,0,.82.53,11.72,11.72,0,0,0,2.63,1,1.54,1.54,0,0,0,1.1,0c.79-.39,1.07-1.16.58-1.76C384.7,346.53,382.31,344.52,380.53,342.3Z" fill="#51b6fd"/>
            <path d="M402.56,273.33c.64.19.85,0,.8-.37a1.29,1.29,0,0,1,.83-1.33c.44-.48,1.37-.64,1.76-1.14-.14-.13-.29-.25-.41-.38a21.29,21.29,0,0,1-2.9-3.84,1.74,1.74,0,0,0-.72-.52,4.53,4.53,0,0,0-.74-.34,2.13,2.13,0,0,0-1.76.12c-.53.29-.21.59.08.9l1.28,1.32c.33.35.37.62-.37.66-.26,0-.57.06-.54.26s.27.36.59.39.72.07.66.4.12.58-.56.58-.77.23-.54.61a1,1,0,0,1-.25,1.46c-1.11.8-1.83,1.69-1.7,2.86,0,.21-.11.41-.55.45-.25,0-.69-.09-.71.16s.41.36.73.46.78.19,1.17.29a2.6,2.6,0,0,1,1.37.62,1.74,1.74,0,0,0,.72.52c.87.26,1.06.19,1.08-.35s-.34-.83-.57-1.23-.39-.92.39-1.24a.58.58,0,0,0,.26-1c-.29-.36-.76-.08-1.16-.08h-.25c-.25-.3.19-.27.39-.35A3.43,3.43,0,0,1,402.56,273.33Z" fill="#51b6fd"/>
            <path d="M239.11,288a.32.32,0,0,0,.47-.13c.16-.22.41-.35.89-.22,0,.24.24.45.32.67-.15.23-.18.48-.41.69s-.06.31.36.33c.7,0,1.84.22,1.16-.67,0-.06.25-.05.4,0a2.52,2.52,0,0,0,.95,0,.76.76,0,0,0,.6-.84c.16-.08.32-.15.24-.31-.15-.41.21-.63.66-.83,1.1,0,.49.52.74.78a5.68,5.68,0,0,0-.28.55.21.21,0,0,0,.09.32.59.59,0,0,0,.49-.06l.41-.2a.53.53,0,0,1,.55-.09c.21.09.34.2.34.34s.1.39-.15.52-.55.26-.36.54a.78.78,0,0,0,.64,0,3.55,3.55,0,0,0,1.09-.09c.69,0,1.63.2,1.55-.51.13-.29-.24-.53-.46-.77a1.41,1.41,0,0,1-.45-.74c.09-.24-.1-.46-.31-.68-.52-1-.4-1.14,1.14-1.35a7,7,0,0,0,.82-.2.45.45,0,0,0,.37-.11c0,.11,0,.21.21.31.61.66.6.65,1.42.22a2.71,2.71,0,0,0,1.06-.93c-.26-.36-.59-.26-.93-.13l-.42,0a2.11,2.11,0,0,0-1.53.21.42.42,0,0,0-.33,0,3.42,3.42,0,0,1-2.56,0,2,2,0,0,0-.55,0,.57.57,0,0,0-.54.12c-.52.13-.65-.07-.6-.32s.36-.47.77-.61c.91-.31,1.81-.65,2.71-1a2.89,2.89,0,0,0,1-.56l.34-.56a1,1,0,0,0,.34-1.19c-.08-.17.15-.3,0-.47l-1.05.26c-.35,0-.51.06-.56.24l-1.17.36c-.34,0-.51.06-.56.25l-.87.34c-.11.14-.24.28.12.43s.41.42.34.66a.26.26,0,0,1-.15.14c-.18,0-.29-.09-.45-.13-.45-.07-.85-.08-1.06.19-.54.2-1.1.38-1.64.59-.35.14-.52.36.15.44,1.14.13,1.27.54,1.12,1.05,0,.18-.22.28-.39.39l-1.37-.1a.68.68,0,0,0-.66.05l-.55.26c-.27,0-.29.16-.23.3a1.8,1.8,0,0,1,.06,1,.88.88,0,0,1-.67.37l-.14.06c-.43-.1-.41-.35-.59-.52s.07-.34-.29-.52a6.81,6.81,0,0,0-1.77,1.51C238.89,287.78,238.87,287.92,239.11,288Z" fill="#51b6fd"/>
            <path d="M259.28,316.87c.26.14.13.32.25.48s.14.23.31.32l.11.1c.12.17.4.29.53.46a1,1,0,0,0,.71.13c.25,0,.33.09.37.21.13.39.61.49,1.17.55a3.92,3.92,0,0,0,1.58-.09,1.88,1.88,0,0,1,1.52.16c.32.09.56.21.61.42s.2.36.24.55a2,2,0,0,1-.11.26c-.32.43.21.84.59,1.14s.81-.09,1.16-.24a1.16,1.16,0,0,1,.69,0c.31.09.16.25.17.39a.46.46,0,0,1-.28.47c-.3.18-.49.39-.36.68a1.67,1.67,0,0,1,.12.23.28.28,0,0,0,.25.1q.49-.06.54-.36a6.37,6.37,0,0,1,2.16-1.63,1.12,1.12,0,0,0,.62-.34c.52-.24.48-.67.84-1,.07-.19-.12-.37-.16-.56-.38-.08-.46-.3-.62-.48a.65.65,0,0,0-.76-.17,2.93,2.93,0,0,1-2.58-.35A1.33,1.33,0,0,0,268,318c-1.09-.21-2.2-.31-3.31-.42a3.54,3.54,0,0,0-1.33-.09c-.59-.44-.47-1-1.07-1.45-.44.12-.5.45-.88.61s-.93.1-1.06-.24c-.17-.49-.58-1-.6-1.46,0-.09-.09-.14-.24-.16a.54.54,0,0,0-.37.35c0,.13-.18.24-.1.39l0,.61C258.93,316.39,259.13,316.63,259.28,316.87Z" fill="#51b6fd"/>
            <path d="M284.86,272.71c.83.09.93.46,1,.84a7.16,7.16,0,0,1,0,.92.74.74,0,0,0,.51.74,1.12,1.12,0,0,0,.71,0s0,0,.07,0h0l0,0a3.28,3.28,0,0,0-.65.32.3.3,0,0,0-.16.3,10.86,10.86,0,0,0,.59,2.14c.35.17.46,0,.56-.12a.52.52,0,0,1,.5-.14,5.4,5.4,0,0,0,1.07-.07,1.33,1.33,0,0,1,.67.29c.19.17.36.19.53,0l.42-.2c.33,0,.43-.27.77-.29l.82-.44c.14-.08.37-.15.17-.3s-.32,0-.49,0a1.76,1.76,0,0,0-1.06-.07,3.91,3.91,0,0,1-1.33-.29c0-.28-.46-.45-.62-.69a3,3,0,0,1-.47-1.89c.3-.25.12-.53,0-.81a.81.81,0,0,0,0-1c0-.11,0-.21,0-.32a2.46,2.46,0,0,0,.65-1.32l.11-.08c.34-.07.52-.22.52-.45.2-.29.67-.45.9-.71.79-.89,1.55-1.8,2.27-2.72a1.84,1.84,0,0,0,.48-1c0-.43-.27-.21-.5-.14s-.48.11-.51.3c-.4.49-.8,1-1.18,1.49a4.76,4.76,0,0,1-1.8,1.45,1.12,1.12,0,0,0-.64.34A9.15,9.15,0,0,0,287,270.4a.66.66,0,0,0-.49.62c-.12.4-.76.55-1,.89s-.65.32-.81.58C284.61,272.59,284.66,272.69,284.86,272.71Z" fill="#51b6fd"/>
            <path d="M414.42,312.24c-.31-.5-.9-.94-1-1.48.1-.19,0-.33-.35-.4s-.45-.19-.61-.08a4.51,4.51,0,0,1-2.54.34,11.45,11.45,0,0,0-1.68-.41l-.59-.11c-.35-.07-.68-.31-1.08-.15-1,0-1.93-.08-2.9-.2a2.13,2.13,0,0,0-1.32-.15,2.46,2.46,0,0,1-1.11-.15.86.86,0,0,0-.95-.07,14,14,0,0,0-2.23.5c-.26.07-.3.14,0,.23a2.56,2.56,0,0,0,1.1.15,2.49,2.49,0,0,0,1.09.15,14.47,14.47,0,0,1,4.67,1.12,2.64,2.64,0,0,0,1.34.17l.71.05a5.53,5.53,0,0,0,1.57.47l.23,0a3.2,3.2,0,0,0,1.8.33l2.74.26a1.24,1.24,0,0,0,1-.07l.26-.13C414.8,312.49,414.74,312.36,414.42,312.24Z" fill="#51b6fd"/>
            <path d="M137,356.17c1.28.53,1.52,1.19,1.07,1.89.36.2.43-.11.7-.06.68-.23,1.54.1,2.24,0,.48.07.7,0,.79-.27l.13-.08c.37-.11.4-.31.29-.53-.22-.85.38-1.59.26-2.42a1.92,1.92,0,0,0,.58-1c0,.27-.33.51,0,.81.27.06.37-.06.52-.12a1.11,1.11,0,0,0,.31-.41,3.57,3.57,0,0,0,0,.57c0,.13-.06.27-.08.4a.9.9,0,0,0,.61.32c1.88.61,2.08.62,3.06.14.07-.23.55-.28.65-.49a8.63,8.63,0,0,1,2.22-1.06c.41.08.82-.11,1.22.12-.09.42-.55.69-1.07.95-.15.24-.57.36-.86.54s-.85.2-.84.52l-.86.53a31.73,31.73,0,0,1,4-.51c.75.19,1.1-.13,1.6-.26a7.06,7.06,0,0,0,2.26-1.72c.39-.09.47-.27.36-.51.45-1.09,1.69-1.76,3.59-2.08a3.2,3.2,0,0,0,.55-.17c.54.13.81-.12,1.21-.18.24-.06.62,0,.75-.12s-.15-.1-.23-.15c-.51-.19-1.22-.11-1.6-.47s.23-.64.18-1c-.57,0-.75.25-1.1.35a6.67,6.67,0,0,1-3.17.16c-.11,0-.25,0-.39,0h0c-.42-.1-.75-.37-1.27-.3-1-.29-2-.59-2.31-1.3a.6.6,0,0,0-.72-.29c-.46.08-.4.26,0,.45a2.78,2.78,0,0,1-.19.9c-.25.23-.23.47.22.69a4,4,0,0,1,.8.6c0,.19.13.44-.34.51l-1.27-.12a2,2,0,0,0-1.24,0c-.71.19-1.7.24-1.26,1,0,0-.19.12-.29.18-.42-.06-.84-.14-1.09.1l-.11.08c0,.12-.09.23-.06.36s.17.36-.2.4a.81.81,0,0,1-.63-.25,2.85,2.85,0,0,0-1.06-.44h0a2.2,2.2,0,0,0-.89,1.26c0-.41-.54-.74-1.41-.86l-1,0a1.06,1.06,0,0,0-.93.21c-.91.4-1.47,1-2.8,1.16-.41.24-1.22.27-1.25.72C136.28,355.35,135.93,355.75,137,356.17Z" fill="#51b6fd"/>
            <path d="M237.09,319a.82.82,0,0,0,.27,0,5.08,5.08,0,0,0,2.17-.82,8.86,8.86,0,0,0,2.28-3.15c.27-.18.41-.37-.13-.55a16.21,16.21,0,0,1-2.6-.54,2.27,2.27,0,0,0-1.05.54,5.89,5.89,0,0,1-1.25.87c-.09.23-.55.28-.66.5l-.62.36c-.15.09-.33.2-.08.32.49.23.32.47.27.71a3.16,3.16,0,0,1-1.42,1.89A4.41,4.41,0,0,1,237.09,319Z" fill="#51b6fd"/>
            <path d="M170,334.52c.11-.14.23-.28-.19-.37-.49.2-.14.67-.68.86,0,.21-.58.19-.54.44l-1.66.92c-.24.34-.9.46-1.18.78-.44.25-.85.53-1.32.76a9.84,9.84,0,0,1-2.46,1.16c-.35-.06-.35.21-.67.19a2.59,2.59,0,0,1-1.91-.05,2,2,0,0,0-1.22-.07l-1.14.31a.88.88,0,0,0-.8.27,22.23,22.23,0,0,1-2.31.87c-.18.07-.51.1-.36.29a.94.94,0,0,0,.77.17,4.15,4.15,0,0,0,1.72-.43c.42,0,.42-.28.81-.28l.95-.31c.51.08,1,.25,1.52.3a2.08,2.08,0,0,0,1.6.15,8.11,8.11,0,0,0,1.82-.68,5.24,5.24,0,0,0,1.5-.34l.28-.1c.33,0,.41-.27.77-.29l.89-.48c.19-.31.82-.41,1.05-.71l.88-.51c.15-.29.74-.37.92-.64A10.81,10.81,0,0,0,171,335.5c.24-.11.07-.18-.15-.25C170.39,335.05,170,334.84,170,334.52Z" fill="#51b6fd"/>
            <path d="M242.85,375.86A2.81,2.81,0,0,1,245,376a1.52,1.52,0,0,0,.33,0,3.44,3.44,0,0,0,1.11-.6l.27-.24c.22-.2.43-.44.16-.66a1.67,1.67,0,0,0-1.17-.13,36.88,36.88,0,0,0-7.79,1.4,1.46,1.46,0,0,0-.72.4,1.35,1.35,0,0,0-.58,1c-.09.3.2.38.66.31l1.19-.18c.23,0,.44-.09.61.1a.36.36,0,0,0,.5.07c.15-.13.21-.29-.12-.4s-.69-.16-1.06-.24c.09-.15.3-.18.51-.24A37.62,37.62,0,0,1,242.85,375.86Z" fill="#51b6fd"/>
            <path d="M227,346.14a2.13,2.13,0,0,0-.27,1.3c-.33.42-.16.85.21,1.29.07.22.32.32.69.4a2.65,2.65,0,0,0,2.19-.42c.32-.11.5-.25.38-.5.18-.2.33-.41.53-.6s.33-.2.47,0,.29.37.68.42l.82.32c.4,0,.29-.14.24-.28-.07-.38-.46-.86.77-.78.25,0,.47-.13.25-.35a.7.7,0,0,0-.81-.21.92.92,0,0,1-1-.12,3.33,3.33,0,0,0-2.84-.37,1.12,1.12,0,0,0-.62.33c-.24.08-.17.39-.58.29-.24,0-.13-.25-.1-.38.21-.28.14-.52-.42-.71A.55.55,0,0,0,227,346.14Z" fill="#51b6fd"/>
            <path d="M396.45,264a1.63,1.63,0,0,0,.72.54,3.52,3.52,0,0,0,1.19.43,1.16,1.16,0,0,0,.95-.09c.16-.15.06-.36-.18-.53s-.23-.32.14-.4a1,1,0,0,0,.87-1,.89.89,0,0,1,.3-.67c.44-.35.28-.75.07-1.17a.68.68,0,0,0-1.05-.24c-.75.65-1.83.51-2.9.43-.4,0-.81,0-1,.2s.14.43.36.62c.56.5,1.29,1,.53,1.58C396.39,263.81,396.45,263.94,396.45,264Z" fill="#51b6fd"/>
            <path d="M144.25,350.51a7.84,7.84,0,0,0,1.61-1.52c.52-.14.57-.46.74-.73s.21-.27.37-.39a2,2,0,0,0,.87-1c.06-.33-.12-.52-.76-.32a1,1,0,0,1-.68.36c-.39.19-.8,0-1.2-.07-.58-.09-1.33-.48-1.7-.11s.55.52.91.75c.65.42.73.75.16,1.1a3.51,3.51,0,0,1-1.36.41,19,19,0,0,0-4,.95,1.53,1.53,0,0,0-.76.42l-.09.08c0,.35.57.45,1,.6,1.16.42,1.36.39,1.45-.27,0-.25.31-.35.57-.49.36,0,.35-.21.67-.2l.83-.1c.43.13.32.36.47.54-.14.18-.36.33-.32.68C143.55,350.9,143.91,350.71,144.25,350.51Z" fill="#51b6fd"/>
            <path d="M426.31,303.82c-.42,0-.85,0-1.26-.1s-1-.17-.8-.61a1.3,1.3,0,0,1,.75-.41l.31-.16c.18-.1.47-.22.29-.38s-.54,0-.71.06a13.62,13.62,0,0,0-1.37.72,1.11,1.11,0,0,1-1,.11c-.39-.18-.49-.44-.34-.72s.17-.4.46-.53a2.43,2.43,0,0,1,1-.55c.37-.25.93-.39,1-.78,0-.08.15-.17,0-.23s-.28,0-.42.08a2.9,2.9,0,0,0-1,.53l-1.43.95c-.42.28-.54.58-.27,1a6.89,6.89,0,0,0,1.66,1.77,5.54,5.54,0,0,0,1.27.9l.84.28c0,.38.34.59.92.67l1.09.29c.16,0,.34.09.43,0s-.07-.17-.17-.22a8.6,8.6,0,0,1-1.3-.78,3.55,3.55,0,0,1-1.18-.85c-.2-.14-.41-.29-.16-.46a.85.85,0,0,1,.7,0c.36.11.71.25,1,.39s.84.38,1.28.55a.81.81,0,0,0,.63,0c.19-.12.06-.28-.06-.39A3.62,3.62,0,0,0,426.31,303.82Z" fill="#51b6fd"/>
            <path d="M156.56,347c-.39,0-1-.05-.85.25s.63.15,1,.09h.18a27.34,27.34,0,0,0,3.88-.19c.24,0,.61,0,.59-.25s.37-.57.77-.78c.15-.14.32-.28,0-.47l-.45-.24a2.27,2.27,0,0,0-1.41-.22,2,2,0,0,1-1.27-.31c.17-.42-.27-.65-1-.8a1.38,1.38,0,0,0-.77.26.6.6,0,0,0-.35.67l-.83,1c.27.36.78.31,1.25.31C157.64,346.7,157.23,346.88,156.56,347Z" fill="#51b6fd"/>
            <path d="M393.41,257.52c.19,0,.44,0,.43-.2s-.27-.21-.46-.26a16.37,16.37,0,0,1-6.22-3.26c-.24-.18-.39-.41-.64-.59a.58.58,0,0,0-.7,0c-.21.16,0,.21.22.29s.3.34.47.51c.38.39.37.86.82,1.24a2.5,2.5,0,0,0,.86.63l2,1c.38.09.49.39.85.49l3.67,2.66a1,1,0,0,0,.85.23c.29-.07.42-.23.41-.44s-.38-.4-.67-.41a3.65,3.65,0,0,1-2.18-1C392.43,257.83,392.47,257.7,393.41,257.52Z" fill="#51b6fd"/>
            <path d="M261.25,322.52c.92.14.94.56,1.13.93a.55.55,0,0,0,.28.33,2.15,2.15,0,0,1,.69.37c.13,0,.27.08.35,0a6.53,6.53,0,0,0,1.08-2.3c.18-.24,0-.42-.38-.57-.15-.13-.29-.27-.43-.41a3,3,0,0,0-1-.59l-.94-.12a1,1,0,0,0-.92.16c-.48.22-.81.52-.25.86s.46.62.2.91S260.89,322.46,261.25,322.52Z" fill="#51b6fd"/>
            <path d="M408.32,290.82a.51.51,0,0,0-.06-.21,1.27,1.27,0,0,0-1.07-.68,1.71,1.71,0,0,0-1.26.31c-.32.27-.07.56.21.85a9.2,9.2,0,0,0,1,.87,3.89,3.89,0,0,0,1.06.76,2.76,2.76,0,0,0,2.29.23,5.16,5.16,0,0,1,3.75.48c.11.06.21.16.36.1s.08-.15.06-.25-.27-.19-.2-.33c.3-.09.74.05,1-.22l-.36-.08c-1.6-.3-3.24-.25-4.86-.49S408.49,291.94,408.32,290.82Z" fill="#51b6fd"/>
            <path d="M423.32,310.45a1.57,1.57,0,0,0-1.05,0c-.43.2-1,.16-1.48.32-.62.17-.94.57-1.58.73a6.12,6.12,0,0,1-1.58.54.85.85,0,0,0-.82.2c-.33.17-.75.29-.86.59.44.4.76.44,1.54.18l1.33-.28c.32,0,.64,0,.71-.26l2.56-.94c.32,0,.64,0,.72-.26l.49-.1a1.45,1.45,0,0,0,.85-.17c.17-.12.45-.25.2-.44A1.67,1.67,0,0,0,423.32,310.45Z" fill="#51b6fd"/>
            <path d="M329,415.82a17.72,17.72,0,0,0-3-.07c-.23,0-.46,0-.52.17s.08.21.23.29c.41.22.83.45.9.79-.16.25-.67.33-.85.57,0,.21.22.18.45.16a2.83,2.83,0,0,0,.89-.31c.34-.06.45-.29.81-.33s.84-.08,1.19-.22a1.07,1.07,0,0,0,.58-.31C330.1,416,330.05,416,329,415.82Z" fill="#51b6fd"/>
            <path d="M481.2,317.87a.84.84,0,0,0-.57-.37l-1.06.28c-.42.08-.61.38-1.05.45-.17.12-.36.24-.52.37s-.14.24.13.34c.59.21,1.17.44,1.77.64a1.77,1.77,0,0,0,1.52-.17c.44-.25.47-.53.19-.86A5.34,5.34,0,0,1,481.2,317.87Z" fill="#51b6fd"/>
            <path d="M353.41,234.77l.4.11c.1.23.34.31.66.29.88-.19,1.49-.52,1.57-1.17a.9.9,0,0,1,.67-.37c.43-.08.88-.16,1.3-.27.15,0,.33-.13.34-.22s-.25-.13-.41-.18c-.43-.13-1-.18-1.2-.48-.45-.56-.82-.17-.81,0,0,.71-.69.7-1.47.7-.2,0-.43,0-.52.11-.69.17-1.37.35-.9,1C353,234.49,353.11,234.65,353.41,234.77Z" fill="#51b6fd"/>
            <path d="M316.69,248.59a.39.39,0,0,1,.1.08.31.31,0,0,0,.17.46c.2.11.32,0,.39-.07.8-.56,1.08-1.37,1.92-1.91.05-.22.46-.24.54-.44.26-.17.58-.33.41-.62s-.63-.2-1-.26a.69.69,0,0,0-.66,0,4.18,4.18,0,0,0-1.86.5c-.4.06-.3.27-.27.46s-.05.39-.08.59A1.85,1.85,0,0,0,316.69,248.59Z" fill="#51b6fd"/>
            <path d="M163.85,344.49c.38-.28.2-.56-.17-.85-.18-.15-.48-.25-.54-.43s0-.16.13-.22.41-.34.23-.59c0-.34,0-.67,0-1,0-.15-.15-.23-.42-.25-1.15.2-1.56.83-2.29,1.27-.17.06-.3.15-.29.28s-.19.31.07.48A6,6,0,0,0,162,344C162.57,344.24,163,344.69,163.85,344.49Z" fill="#51b6fd"/>
            <path d="M141.86,342c1.25.37,1.54.33,1.92-.22a7.66,7.66,0,0,1,2.22-.34,5.15,5.15,0,0,0,2.19-.08,1.21,1.21,0,0,0,.64-.17c-.07-.34-.49-.43-1-.44a13.28,13.28,0,0,0-6.51.67,1.07,1.07,0,0,0-.64.35C140.91,342.3,141.46,342,141.86,342Z" fill="#51b6fd"/>
            <path d="M134.29,353.29c1.42-.38,1.56-1,.94-1.88-.07-.09,0-.19,0-.27s0-.2.2-.21c1.48-.12.93-.72.66-1.25.08-.21-.08-.35-.48-.41s-.47.07-.46.23c.05.46-.33.79-.71,1.14a2.08,2.08,0,0,0-.5,2.85C134.16,353.5,134.28,353.43,134.29,353.29Z" fill="#51b6fd"/>
            <path d="M250.17,375a4.55,4.55,0,0,0,.71-.25,21.56,21.56,0,0,0,2.33-1.58c.15-.09.5-.14.32-.3s-.5-.1-.75-.06a11,11,0,0,0-2.62.81,1.15,1.15,0,0,0-.61.33c-.49.22.13.51,0,.75S249.6,375.16,250.17,375Z" fill="#51b6fd"/>
            <path d="M153,344.11c.7.09,1.19,0,1.33-.4a.22.22,0,0,1,.09-.07c.15-.14,0-.27-.16-.4l-.14-.1a2.74,2.74,0,0,0-2.58-.56l-.71.17a2.22,2.22,0,0,0-.89.49c-.34.29-.67.62.37.78A7.88,7.88,0,0,0,153,344.11Z" fill="#51b6fd"/>
            <path d="M266.28,270.76a5.8,5.8,0,0,0,1.37.11,1.72,1.72,0,0,0,1.07-.09l.25-.14a3.13,3.13,0,0,0,.69,0c.23-.16.71-.23.52-.55s-.43-.22-.72-.2-.68.14-1.07.12-.44-.36-.37-.58.28-.33-.07-.47a1.07,1.07,0,0,0-.93.09,1.85,1.85,0,0,0-1.14,1.47C265.89,270.63,266,270.72,266.28,270.76Z" fill="#51b6fd"/>
            <path d="M138.62,346l-.43.65c-.23.34-.49.8.16,1,.86.28.76-.33,1.08-.55.07-.17.25-.33.12-.53a2.56,2.56,0,0,0,0-1.07c-.12-.37-.42-.57-1.09-.39-.15.29-.73.37-.92.65s-.87.36-.84.75C137.72,346.72,137.86,346.14,138.62,346Z" fill="#51b6fd"/>
            <path d="M271.3,266.26a.93.93,0,0,0,.85,0,1.06,1.06,0,0,1,.73-.25c1.1,0,1.61-.62,1.22-1.34-1.1-.29-1.23.25-1.53.61s-.26.49-.87.41c-.31,0-.57,0-.63.21S271.07,266.16,271.3,266.26Z" fill="#51b6fd"/>
            <path d="M357.78,234.4c-.11.27.37.37.51.56a3.19,3.19,0,0,0,1.14.67.62.62,0,0,0,.54-.14c.25-.29.79-.39,1-.68l.23-.17c.14-.08.31-.17,0-.29h-.87a7,7,0,0,1-1.83,0C358.29,234.36,358,234.28,357.78,234.4Z" fill="#51b6fd"/>
            <path d="M277.36,264.91c-.17-.19-.5-.56-.7-.36-.39.4-1.08.29-1.62.43-.13.4.37.56.86.72a2.55,2.55,0,0,1,1.08.42c.23.15.35.09.42,0s.13-.44.2-.66S277.62,265.07,277.36,264.91Z" fill="#51b6fd"/>
            <path d="M275,264.3c.42.11.79.15,1-.14a.3.3,0,0,0,.18-.47,3.47,3.47,0,0,0-.58-1.06,1,1,0,0,0-.94-.08c-.27.17.15.3.31.44.33.25,0,.34-.18.46C274,263.9,274,263.9,275,264.3Z" fill="#51b6fd"/>
            <path d="M279.5,262.86c-.4-.33-.73-.38-1,0a1.26,1.26,0,0,1-.3.24c-.09.24-.3.47-.08.75a1.22,1.22,0,0,0,1.07.55l.34-.21C280.06,263.79,279.85,263.33,279.5,262.86Z" fill="#51b6fd"/>
            <path d="M253.55,315l-.27-.17a.82.82,0,0,0-.18-.56c-.55-.33-1.09-.64-1.7-.18,0,.18.12.32.4.41a1.86,1.86,0,0,1,.86.76.77.77,0,0,0,.87.35C254,315.46,253.85,315.2,253.55,315Z" fill="#51b6fd"/>
            <path d="M281.18,262.75c0-.51.59-.77,1.1-1.06.24-.09.26-.23.1-.4a1.17,1.17,0,0,0-1.43,0c-.36.1-.42.3-.37.54C280.3,262.17,280.32,262.5,281.18,262.75Z" fill="#51b6fd"/>
            <path d="M158.34,342.34l.27-.12c.36-.09.36-.26.2-.46a1.13,1.13,0,0,0-1.08-.37c-.58.08-1,.27-1.1.6s.14.42.63.47A1.52,1.52,0,0,0,158.34,342.34Z" fill="#51b6fd"/>
            <path d="M323.63,417.71a6.86,6.86,0,0,1-1.46-.43c-.45-.1-1,.07-1,.39s.49.2.79.25.89-.09,1.26.12c.14.08.24.23.43.08S323.89,417.88,323.63,417.71Z" fill="#51b6fd"/>
            <path d="M241.46,373.46a.69.69,0,0,0,.71.13,2.6,2.6,0,0,1,1.25-.28c.35,0,.43-.21.36-.39a.51.51,0,0,0-.56-.22,4.59,4.59,0,0,1-1.64.35C241.32,373.2,241.28,373.32,241.46,373.46Z" fill="#51b6fd"/>
            <path d="M263.45,372.29c.56.16.52.44.69.68a.55.55,0,0,0,.63.21c.24-.06.52-.2.34-.34-.39-.28-.78-.55-.83-.85a.76.76,0,0,0-.79-.1C263.27,372,263.26,372.24,263.45,372.29Z" fill="#51b6fd"/>
            <path d="M255.88,278.1l.55-.1a1.1,1.1,0,0,0,.64-.35c0-.14.05-.28.08-.42s0-.08-.11-.1a1.49,1.49,0,0,0-1.85.52Q255.24,278,255.88,278.1Z" fill="#51b6fd"/>
            <path d="M306.54,249.18a1.61,1.61,0,0,0,1.2-.09,4.05,4.05,0,0,1,.73-.33,1,1,0,0,0,.2-.11c.2-.17.44-.31.67-.47-.45.37-.94.72-1.07,1.22,0,0,0,.08,0,.12a.08.08,0,0,0,0,0,.91.91,0,0,0-1.28,0l-.61.38c-.25.07-.47.16-.38.38a1.5,1.5,0,0,0,1.45,0,1.69,1.69,0,0,0,.71-.35.36.36,0,0,0,.05.24c-.16.16-.45.37-.21.54s.49-.09.76-.11a1.68,1.68,0,0,0,.4-.11c.3,0,.55,0,.68-.17a21.46,21.46,0,0,1,4.69-1.14c.46-.06.87-.13.95-.46q.06-.15-.15-.24l-.35-.31c-.14-.25-.61-.37-.72-.63-.54-.18-.91-.75-1.57-.59s-.29.66-.2,1-.14.49-.71.24a.68.68,0,0,0-.67-.28,2.83,2.83,0,0,0-.83.07,1.06,1.06,0,0,0-.67,0c.18-.12.3-.27.23-.49.17-.63-.1-.84-1.16-.86a3.21,3.21,0,0,0-2.13.51.46.46,0,0,0-.27.63c-.08.22-.13.44-.23.65S305.94,249,306.54,249.18Z" fill="#51b6fd"/>
            <path d="M430,307.55a1.12,1.12,0,0,0-.6.32c-.22.14-.21.3,0,.46.2.32.49.3.84.14l.12-.07c.35,0,.57-.11.56-.35C431,307.62,430.63,307.49,430,307.55Z" fill="#51b6fd"/>
            <path d="M254.79,281.15a1.13,1.13,0,0,0,.88,0c.29-.08.23-.31.33-.48s0-.17-.17-.23a1.8,1.8,0,0,0-.72-.16.72.72,0,0,0-.66.38C254.35,280.89,254.55,281,254.79,281.15Z" fill="#51b6fd"/>
            <path d="M362,230.61a6.81,6.81,0,0,0,2.05-1,10.84,10.84,0,0,0-2.86.76C361.13,230.72,361.23,230.75,362,230.61Z" fill="#51b6fd"/>
            <path d="M278.19,261.6a1.14,1.14,0,0,0,1.23-.05c.2-.17.13-.38-.09-.59a.53.53,0,0,0-.85-.07C278.28,261.11,277.53,261.23,278.19,261.6Z" fill="#51b6fd"/>
            <path d="M151.31,345.17c.26-.1.32-.29,0-.41a2.63,2.63,0,0,0-1.54-.06c-.18.14-.31.3,0,.39A2.43,2.43,0,0,0,151.31,345.17Z" fill="#51b6fd"/>
            <path d="M257.05,284.53c-.27-.16-.51-.24-.68,0s-.49.3-.13.51a1,1,0,0,0,.94.06C257.65,284.92,257.18,284.72,257.05,284.53Z" fill="#51b6fd"/>
            <path d="M139,348.87c.24-.13.24-.26,0-.37a1,1,0,0,0-.93-.12c-.28.14-.25.3.06.46A.84.84,0,0,0,139,348.87Z" fill="#51b6fd"/>
            <path d="M309.42,253.86c-.31.13-.34.32-.09.54a.58.58,0,0,0,.55.18c.17-.18.86-.2.37-.57A.84.84,0,0,0,309.42,253.86Z" fill="#51b6fd"/>
            <path d="M429.21,301.15a.9.9,0,0,0-.77,0c-.25.14-.18.33,0,.45a.62.62,0,0,0,.67,0A.28.28,0,0,0,429.21,301.15Z" fill="#51b6fd"/>
            <path d="M258.25,318.46a1.21,1.21,0,0,0,.89.06c.32-.18.09-.31-.11-.44a.63.63,0,0,0-.77,0C258.06,318.17,258,318.32,258.25,318.46Z" fill="#51b6fd"/>
            <path d="M267,372a.78.78,0,0,0-.89.06c-.14.13,0,.26.19.36a.79.79,0,0,0,.83-.05C267.42,372.25,267.34,372.13,267,372Z" fill="#51b6fd"/>
            <path d="M460.68,291.8a.57.57,0,0,0,.71,0c.2-.12.22-.27,0-.42a.62.62,0,0,0-.71,0C460.48,291.51,460.48,291.65,460.68,291.8Z" fill="#51b6fd"/>
            <path d="M317.25,415.77a.63.63,0,0,0-.65,0c-.2.11-.35.25-.09.39a1,1,0,0,0,.76,0C317.51,416.05,317.44,415.9,317.25,415.77Z" fill="#51b6fd"/>
            <path d="M240.18,372.36c.11-.16.24-.31,0-.48a.76.76,0,0,0-.73,0c-.19.09-.31.24-.06.4A1,1,0,0,0,240.18,372.36Z" fill="#51b6fd"/>
            <path d="M294.64,355.5c.21-.17.12-.34-.11-.47a.68.68,0,0,0-.69,0c-.23.13-.17.3,0,.41A1,1,0,0,0,294.64,355.5Z" fill="#51b6fd"/>
            <path d="M432.47,308.06c-.33-.13-.49.05-.7.13,0,.48.37.53.94.37C432.8,308.36,432.79,308.18,432.47,308.06Z" fill="#51b6fd"/>
            <path d="M278.94,264.71c-.2.14-.58.24-.39.49s.62.23,1,.23.38-.32.17-.54A.63.63,0,0,0,278.94,264.71Z" fill="#51b6fd"/>
            <path d="M429.54,298.69a.61.61,0,0,0,.66,0c.24-.14.25-.29,0-.46a.65.65,0,0,0-.67,0C429.43,298.37,429.25,298.51,429.54,298.69Z" fill="#51b6fd"/>
            <path d="M410.56,294.89c-.21.12-.27.27,0,.41a.74.74,0,0,0,.75.06c.19-.13.21-.27,0-.43A.63.63,0,0,0,410.56,294.89Z" fill="#51b6fd"/>
            <path d="M267.33,374.17a.69.69,0,0,0,.7.08c.13-.13.32-.27.06-.44a.74.74,0,0,0-.77,0C267.1,373.89,267.12,374,267.33,374.17Z" fill="#51b6fd"/>
            <path d="M449,294.33c.21-.11.26-.25.08-.41a.62.62,0,0,0-.71-.09c-.21.11-.28.24-.1.42A.81.81,0,0,0,449,294.33Z" fill="#51b6fd"/>
            <path d="M148.74,344.88c.32-.22.11-.43-.3-.61-.8,0-.9.06-.62.51C148.12,344.93,148.45,345.09,148.74,344.88Z" fill="#51b6fd"/>
            <path d="M149.16,345.78c-.23.13-.45.25-.06.45s.6.32.91.14.18-.37-.11-.57A.65.65,0,0,0,149.16,345.78Z" fill="#51b6fd"/>
            <path d="M241.84,372.12a.77.77,0,0,0-.72,0c-.18.13-.18.3,0,.45s.55.15.75,0S242.15,372.27,241.84,372.12Z" fill="#51b6fd"/>
            <path d="M432.16,306.89a.38.38,0,0,0,.32-.52c-.06-.17-.24-.21-.48-.16s-.67.17-.37.47A.55.55,0,0,0,432.16,306.89Z" fill="#51b6fd"/>
            <path d="M429.72,308.87l-.21.28c0,.24.18.37.55.41.41-.17.67-.37.27-.7C430.12,308.82,429.89,308.69,429.72,308.87Z" fill="#51b6fd"/>
            <path d="M276.9,263.18a.61.61,0,0,0,.66.09c.3-.13.24-.31.06-.52a1,1,0,0,0-.85,0C276.52,262.86,276.69,263,276.9,263.18Z" fill="#51b6fd"/>
            <path d="M293.28,356.22c.2-.13.18-.3,0-.48a.76.76,0,0,0-.69,0c-.21.13-.2.27,0,.41A.62.62,0,0,0,293.28,356.22Z" fill="#51b6fd"/>
            <path d="M253.26,282.23a.49.49,0,0,0,.7.12c.22-.17.32-.37,0-.56a1,1,0,0,0-.8,0C252.84,281.92,253.09,282.08,253.26,282.23Z" fill="#51b6fd"/>
            <path d="M401,260.14c.2-.13.16-.29-.06-.45a.6.6,0,0,0-.67,0c-.18.13-.22.34.05.5A.6.6,0,0,0,401,260.14Z" fill="#51b6fd"/>
            <path d="M257.15,371.84a.66.66,0,0,0,.69,0c.18-.12.15-.27,0-.42a1,1,0,0,0-.75,0C256.85,371.56,256.91,371.71,257.15,371.84Z" fill="#51b6fd"/>
            <path d="M353.56,237.36c.25-.14.47-.29.17-.54a.59.59,0,0,0-.71,0c-.34.05-.41.22-.23.39A.7.7,0,0,0,353.56,237.36Z" fill="#51b6fd"/>
            <path d="M155.42,342.47c.33-.21,0-.35-.32-.5-.35,0-.72.09-.67.36C154.74,342.48,155.05,342.71,155.42,342.47Z" fill="#51b6fd"/>
            <path d="M401.39,308a1.26,1.26,0,0,0,.86.26l.94.24a2,2,0,0,0,1.34.3c.56.06,1.12.13,1.68.15.3,0,.67,0,.78-.21s-.25-.33-.48-.46-.4-.22-.61-.32a11.51,11.51,0,0,0-5.15-1.46,5.86,5.86,0,0,1-2.06-.41,4.07,4.07,0,0,0-1.39-.32,2.06,2.06,0,0,1-1.72-.81c-.32-.37-.6-.75-.88-1.14-.49-.66-.43-.84.45-1.19.43-.18.91-.3,1.35-.46a1.18,1.18,0,0,1,1.15.13,3,3,0,0,0,1.67.39,3.89,3.89,0,0,1,2.11.58c.42.26.6.17.65-.12.15-.89.29-1.78.45-2.67.05-.28.19-.56-.28-.79s-.62-.47-1.06-.62a12,12,0,0,0-5.08-2c-.88-.14-1.75-.3-2.63-.45s-1.23-.36-1.3-.9a8.91,8.91,0,0,1,0-1.46c0-.47.27-.78,1.17-.73.61,0,1.16,0,.84-.58-.16-.29.16-.52.42-.71s.37-.27.41-.44a2.38,2.38,0,0,1,1.07-1.28,3.36,3.36,0,0,0,1.44-2.45c.25-1.76-1-3.44-1.37-5.16-.12-.55-.62-.75-1.43-.59-.63.11-.71-.1-.64-.42s.26-.36-.08-.57l-.35.14a1.13,1.13,0,0,1-1,0c-.34-.21-.09-.42.08-.59.34-.34,0-.48-.46-.57-.93-.22-1.87-.4-2.81-.61-.78-.17-1.27-.47-1.41-1a2.55,2.55,0,0,1,.64-2.41c-.47-.16-.56.11-.76.25-.5.27-1,.58-1.51.83a4.16,4.16,0,0,1-2.31.41c-.48-.06-1-.16-1-.56a4.22,4.22,0,0,1,.84-3,.65.65,0,0,1,.66-.27.82.82,0,0,1,.67.44c.12.28.24.55.35.83a.45.45,0,0,0,.42.34c.36,0,.22-.26.16-.41-.2-.56,0-1,.69-1.35a4,4,0,0,1,1.82-.32c.71,0,.58.44.83.67a1.36,1.36,0,0,0,1.12.4,3.58,3.58,0,0,1,2.79.81c.34.29.73.83,1.27.72s.62-.62.8-1,.11-.78-.64-1.1c-1.28-.54-2.65-1-4-1.45-.34-.13-.83-.19-.84-.55-.06-1.45-.25-2.91-.17-4.36,0-.26.11-.45.59-.5,1.15-.11,1.43-.34,1.47-1.12a11.57,11.57,0,0,0-1.42-6.19,12.44,12.44,0,0,0-3.75-4.08c-1.39-1-2.59-1-3.45,0a1.47,1.47,0,0,1-1.8.51,1.77,1.77,0,0,0-.68,0c-1.47.17-1.54.14-1.69-.84a1.78,1.78,0,0,1,0-.4,22.57,22.57,0,0,1,.75-5.17c.32-1,.47-2.19,2.67-2.26a1.22,1.22,0,0,0,.36-.14,3,3,0,0,0,1-.56,2.6,2.6,0,0,0,1.22-1.21,1.12,1.12,0,0,1,.95-.48,7.28,7.28,0,0,0,2.73-.81,1.11,1.11,0,0,0,.64-.35c.1-.14.51-.22.1-.46a1,1,0,0,1-.52-1,5.33,5.33,0,0,1,.67-2.6,2.19,2.19,0,0,1,1.57-1.21c.7-.16,1.06-.15,1,.44a.48.48,0,0,0,.14.34.69.69,0,0,0,.59.34c.3,0,.22-.23.25-.37a3.38,3.38,0,0,1,.4-1.32c.27-.33.21-.56-.06-.89a.73.73,0,0,1-.15-.9.63.63,0,0,1,.53-.32.67.67,0,0,1,.6.34,1.89,1.89,0,0,1,.37,2,4.12,4.12,0,0,0-.43,1.77,9.06,9.06,0,0,1-.25,3.25c-.51,1.18.05,2.16,1.29,3.13a8.61,8.61,0,0,0,1.6,1.18,17.92,17.92,0,0,0,4,2c0-1-.63-2,.08-2.78.13-.16-.14-.26-.31-.38-.64-.45-1-1.57-.45-1.83.92-.41.17-.63-.2-.95s-1-.81-.4-1.24.09-.53-.4-.56a1.42,1.42,0,0,1-1-.38,3.67,3.67,0,0,0-.92-.51,1.13,1.13,0,0,1-.64-.49c-.76-.78-.73-1.53.07-2.13a.76.76,0,0,0,.32-.68.58.58,0,0,1,.27-.58,10.46,10.46,0,0,0,1.5-1.16,1.65,1.65,0,0,1,1.26-.38c1.12.14,1.36-.31,1.51-.88a7.74,7.74,0,0,1,2.58-4.25,1.66,1.66,0,0,1,.93-.49c.92-.23,1.16-.64.48-.92a5.31,5.31,0,0,0-3.58-.67c-.49.12-1.29.22-1.57-.43a.94.94,0,0,1,.67-.37,1.42,1.42,0,0,1,.22-.07c2.08-.45,2.25-.81,1.05-2.18-.17-.19-.4-.43-.12-.59a.94.94,0,0,1,.83.11c.09.05.23.07.32.12.56.32.9.26,1.07-.17.23-.6.82-.84,1.82-.66a3,3,0,0,0,1.39,0,3.85,3.85,0,0,1,1.52-.11,6.28,6.28,0,0,0,1,0c.35,0,.41-.15.17-.36-.92-.8-1-1.31-.28-2.12a.72.72,0,0,0,.19-.88c0-.09-.11-.15-.25-.16l-.79.06a1.35,1.35,0,0,0-1.15.14l-.39.05a.86.86,0,0,0-.89.15c-.74.17-1.06.44-.53,1,.15.16.34.44,0,.59a1,1,0,0,1-.89-.2,4.94,4.94,0,0,0-1.65-.67,1.39,1.39,0,0,0-1.16,0l-.5,0a.91.91,0,0,0-.78.07,28.54,28.54,0,0,0-8.29,2c-.32,0-.43.27-.77.28a8,8,0,0,1-2.18.89.76.76,0,0,0-.78.25l-.15,0c-.46,0-1-.07-.8.44a11.55,11.55,0,0,1,1.67.91,1,1,0,0,0,0,.65,16.76,16.76,0,0,0-4.41,1.08,3.19,3.19,0,0,0-.81.38,29.3,29.3,0,0,1-2.68,1.38.27.27,0,0,1-.12.06q-.46,0-.54.27l-.9.17c-.25,0-.51-.17-.76-.05-.52-.12-.86-.48-1.41-.56a1.13,1.13,0,0,0-1.24.22c-.67.46-1.53.78-2.16,1.27l-1,.58a6.44,6.44,0,0,1-1.72.95,2.82,2.82,0,0,0-.89.12,1.55,1.55,0,0,0-.93,0,2.89,2.89,0,0,0-1,.26c-.71,0-1.13-.55-1.85-.52a2.12,2.12,0,0,0-.89.49l-.5.47a.47.47,0,0,0-.29.62c-.16.27-.2.58-.51.8-.43,0-.52-.18-.51-.38s-.15-.36-.3-.54l-.34-.08a.6.6,0,0,0-.56.14,16,16,0,0,1-2.6,1.38l-1.05.55c-.29,0-.49.08-.48.29l.36.3c.11.25.57.37.66.63h0c-.06.23.19.45.25.68s-.46.24-.54.44a2.93,2.93,0,0,1-2.49,1c-.29,0-.4.22-.68.26s-.39.35-.49.56-.13.41-.52.46c-1.19.26-1.17.26-.88,1.18.11.36.12.74-.59.79a10.72,10.72,0,0,1-2.54.06c-.23,0-.49-.19-.67,0a7.35,7.35,0,0,1-2.23-.25c-.25-.16-.58-.3-.5-.56s.81-.23.56-.54-.81-.35-1.32-.37a2.07,2.07,0,0,0-1.12.34c-1.24.53-2.36,1.14-2.74,2.14a1.51,1.51,0,0,1-.85.74,2.33,2.33,0,0,1-1.08.58,2.9,2.9,0,0,1-1.3.53,3,3,0,0,0-.9,0,1.18,1.18,0,0,0-.75.07,7.07,7.07,0,0,0-3,1.83c-.31.4-.92,0-1.35.07a4.65,4.65,0,0,1-1.2-.36,1.22,1.22,0,0,0-1.1,0,3.17,3.17,0,0,0-1.36,1.3l1.72-.51a4,4,0,0,0,1.14,0,6.12,6.12,0,0,0-1.16.17l-.41.19a2.17,2.17,0,0,0-.9.49,1.51,1.51,0,0,0,1.13.19c.57,0,.62.09.45.34a4.86,4.86,0,0,1-2.47,2.3,1,1,0,0,1-.88.12c-.36-.16-.25-.4-.14-.59.76-1.33.53-3,2.16-4a.92.92,0,0,0,.45-1c0-.12,0-.3-.17-.32-.95-.06-.81-.6-1.13-.93-.41.08-.54.38-1,.36a1,1,0,0,0-.8.08,3.17,3.17,0,0,0-1.51.48c-.48.26-.58.7-1.1.93-.06.21-.46.24-.55.44-.35.13-.56.39-1,.41s-.72-.05-.93.16l-.42.09c-1.23.27-1.23.27-1.37-.57,0-.11,0-.25-.2-.31s-.25,0-.37.1a4.16,4.16,0,0,0-1.59.85,1.14,1.14,0,0,0,0,1.17c-.09.24,0,.45.37.62l.7.27c.23.14.44.27.41.48s-.42.26-.69.34a1.58,1.58,0,0,0-.78.42,4.62,4.62,0,0,0-1.1,1.21,1.82,1.82,0,0,1-1.77,1,2.58,2.58,0,0,0-1,.55c-.28.24-.57.47-.87.7-.24.07-.45.16-.38.37a6.23,6.23,0,0,1-2,1.55c-.09.24-.56.28-.68.51l-1.3,1.21c-.38.16-.48.4-.37.71-.22.37.34.44.67.6a2.77,2.77,0,0,0,1.21.05c.34.08.68.17.72.44s-.27.28-.53.37c-.51.17-1,.36-1.49.54a.75.75,0,0,0-.52.15,2.9,2.9,0,0,1-1.18.63c-.51.35-1.32.55-1.43,1.11a3.12,3.12,0,0,0,.93.64,1.41,1.41,0,0,0,1.1.08,1.59,1.59,0,0,0,.77-.11,5.59,5.59,0,0,1,3.18.58c.31.13.63.25.63.52a1.06,1.06,0,0,0,.05.43l-.26.15c-.26,0-.52-.09-.78-.09-.54-.1-.7-.5-1.2-.64a5.27,5.27,0,0,0-1.86,0,.9.9,0,0,0-.92.17l-1.18.31c-.39,0-.61.12-.65.35s-.15.48-.51.62c-.41-.09-.82-.18-.91.17a1.67,1.67,0,0,0,1,.28c.55,0,1.1,0,1.65.06.24,0,.59-.07.7.19s-.07.38-.35.45a5.54,5.54,0,0,1-3.14.1,1.41,1.41,0,0,0-.91-.2l-.66-.26c-.14,0-.31-.12-.42,0s0,.21.14.31c-.12.25.05.5.17.75,0,.54.76.77,1.33,1.08.12.2.39.25.67.29.73.16,1,.76,1.89.8.39,0,.5-.33.91-.35l.05,0,.07,0a2,2,0,0,0,.92-.18,4.15,4.15,0,0,1,1.7-.11,3.39,3.39,0,0,0,1.18.19,1.1,1.1,0,0,1,.66.3.87.87,0,0,0,.7.27h.54c.25,0,.57-.16.75,0s.11.45-.24.57a1.52,1.52,0,0,0-.91.18,2.54,2.54,0,0,1-1.75-.52.94.94,0,0,0-.77-.23l-1.2,0a1,1,0,0,0-.64.35c-.1.24.09.49.17.73.18.54.72,1.05.72,1.61-.14.19.07.38.13.57a1.87,1.87,0,0,1-.23,1.42c-.21.32-.88.25-1.18.5a5.34,5.34,0,0,1-1.62.18c-.68,0-.86-.18-.52-.52a1.46,1.46,0,0,1,.85-.46,2.14,2.14,0,0,0,.62,0c.81.08,1-.21.78-.63a4.9,4.9,0,0,0-.55-.79c0-.43-.27-.76-.95-1l-.68-.63c-.47-.48-1.25-.8-1.73-1.28a.89.89,0,0,0-.57-.25c-1.08-.45-2.38-.76-2.74-1.66,0-.21-.16-.33-.48-.39a2.76,2.76,0,0,0-2.34.29c-.62.27-.72.65-.35,1.13a5.58,5.58,0,0,1,.37.67c-.14.25,0,.5.17.75v.15c-.05.19-.25.35-.11.56,0,.6.45,1,1.45,1.06.28,0,.55.11.82.16a2.49,2.49,0,0,0,1.32.11,3.38,3.38,0,0,0,1.18.18c.68.37.61.72.16,1a8.48,8.48,0,0,0-1.69.11,11.51,11.51,0,0,0-2.94.64c-1.61.51-2.79,1.19-2.32,2.55.11.33-.09.62-.57.79a1.18,1.18,0,0,1-1-.63c-.5-.07-.36.27-.6.36s-.2.35-.15.55a6.92,6.92,0,0,1-1.18,1.89.77.77,0,0,1-1,.25c-1-.42-1.35-.17-1.54.36a1.3,1.3,0,0,1-.26.33c-.22.18-.6.31-.48.62a3.45,3.45,0,0,0-1.39,2.2c-.05.18-.25.34-.11.55,0,1.13-.82,1.46-2.35.94,0-.18.3-.27.21-.46.16-.42,0-.62-.79-.48-.48.09-1,.16-1.47.24-.25,0-.6.06-.58.26s.32.33.62.44c.56.2,1.12.42,1.66.65,1.28.56,1.32,1.15.11,1.49a1.31,1.31,0,0,0-.68,2.23c.5.44.3.92-.46,1.1-.36,0-.72,0-.92.17-.23,0-.46.07-.68.12s-.49.12-.44.28.42.12.63.2c.36.17.62,0,.93,0,.49.21.69.7.25.78a5.7,5.7,0,0,1-3.12.16,1.64,1.64,0,0,0-.8-.21l-.94-.31a1.23,1.23,0,0,0-.66-.13c-.41,0-.81,0-1.21-.07s-.78.07-.92-.18.19-.4.49-.52.62.05.64-.2a1.56,1.56,0,0,1,.79-.1,1.47,1.47,0,0,0,.94-.18l.14-.05c.27,0,.54,0,.64-.2l.39-.21a.91.91,0,0,0,.42-.07c.15-.19.46-.29.62-.48a3,3,0,0,0,1-.89.32.32,0,0,0,.2-.06,1.23,1.23,0,0,0,.25-.48c0-.19-.1-.36-.36-.5a1.6,1.6,0,0,0-.56-.33,5.86,5.86,0,0,0-2.51.06l-3.19.39a.93.93,0,0,0-.92.17l-1.16.34a2,2,0,0,0-1.07.07,4,4,0,0,0-1.22.14,1.13,1.13,0,0,0-.64.35l-.62.36a4.26,4.26,0,0,1-1.45.79.75.75,0,0,1-.8.06c-.3-.16-.06-.3,0-.46s.32-.4.21-.76a4,4,0,0,1-2.73.74c-.21,0-.48.12-.38.24.33.37-.13.35-.45.4s-.37.1-.36.25a.52.52,0,0,1-.45.29c.07-.08.36-.1.09-.24-.9-.18-1.09.2-1.31.54,0,.24-.7.22-.42.55l.17.08a.89.89,0,0,0,0,.64c-.24.6-1.42.58-1.95,1,.18.25,1,.19.76.45s-.29.66-.83.83c-.38.08-.3.28-.22.47s-.08.21-.22.29-.4.15-.48.29-.6.27-.73.5a1,1,0,0,1,0,.17c0,.14.19.23.43.25h0a3.89,3.89,0,0,0,.68.13c.53.47.48.88.05,1.27-.39,0-.47.17-.34.39s1,.55.69.83c-.68.57,0,1.44-.91,1.95-.12.07.13.2.23.3s.38.23.59.34c.14.34-.22.54-.47.77s-.37.31-.4.52.47.28.79.34a3.71,3.71,0,0,0,1.11.22c1.28.49,1.59,1.22.72,1.72a2.11,2.11,0,0,0-1.31.22c-.12.09-.31.16-.24.31s.23.43.32.65c-.1.22-.25.44-.11.69l-.18.92c0,.27,0,.56.48.76s.5.34.87.43l1.36.54c.8.31,1.25.84,2,1.16a1.12,1.12,0,0,0,1-.06,4.28,4.28,0,0,0,1.09-.75.48.48,0,0,0,.21-.62c0-.1,0-.2,0-.3.17-.27.35-.54.08-.86.08-.36.49-.13.75-.07a48.32,48.32,0,0,1,4.86,1.52,3,3,0,0,0,1.33.41l.3,0c.65-.1.8-.38.69-.75.06-.63.87-1,1.28-1.46a1.15,1.15,0,0,0-.64-.44l-.84-.52c0-.19-.34-.26-.43-.42-.26-.16-.48-.44-.39-.56.43-.55-.1-1.1-.28-1.65-.2-.33-.62-.24-1-.25l-.42-.08a7.19,7.19,0,0,0-1.32-.27c-2.05-1.17-2.5-2.14-1.65-3.63.21-.2.47-.4.32-.69l-.39-.57c0-.23-.28-.38-.59-.5a1,1,0,0,1-.14-1.67,2.69,2.69,0,0,1,2.59-.47c0,.23.22.41.46.58l.12.73c-.23.33-.09.67.16,1l.06.82c-.23.32.06.63.29.94,0,.15.19.24.31.35.13.31.59.43.93.62l.72.42a1.75,1.75,0,0,0,1,.4,1.4,1.4,0,0,0,1.11.07,1.1,1.1,0,0,0,.62-.34c.57-.46.82-1.05,1.49-1.48.08-.23.72-.2.65-.51l1.17-.62c.32,0,.39-.17.64-.2a3.55,3.55,0,0,1,1.45,0c0,.27-.23.49-.25.76a5.58,5.58,0,0,1-1.37.93c-.13.36-1,.29-1,.71l-.74.43c-.37.19-.39.42-.12.7.1.27.43.39.8.54s.92,0,1.32.21a1.84,1.84,0,0,1,.85.54c.11.22.36.44,0,.62a5.08,5.08,0,0,0-1.83.05c-.25.14-.53.26-.4.52,0,.56.33.82,1.25,1.08a.27.27,0,0,1,.12.07c.55.24.45.61.69.91-.05.31-.11.63-.17.94-.35.12-.19.45-.53.58s-.53.06-.8.1c-.66.14-1.16.35-1,.86-.33.56-.66,1.12-1,1.68-.13.23-.32.41-.78.21-.94-.41-1.34-.11-1.68.3a.54.54,0,0,0-.33.16,2,2,0,0,1-1.8.47,3.66,3.66,0,0,0-.74,0,.59.59,0,0,1-.37-.13,3.12,3.12,0,0,0-1.14-1.15,1,1,0,0,0-1.26.06c-.18.26,0,.47.36.67a2.09,2.09,0,0,1,.83.58,1.33,1.33,0,0,0,.56.19l1.49.78a2.33,2.33,0,0,0,.15.56l-.1.06c-.1.23-.55.28-.67.49-.91.54-.79,1.38-1.34,2,.09.21.5.28.57.49s.21.43.3.64a.48.48,0,0,1-.22.65c-.66.43-.52.94-.45,1.49a2,2,0,0,1-.84,2c-.39.26-.44.43-.19.72s.23.51-.24.72-1.34.27-.93.7,1.06.1,1.61.06a12.47,12.47,0,0,0,1.83.09l.25,0a1.5,1.5,0,0,0,.93.27,4.67,4.67,0,0,1,2.78,1.33,1.76,1.76,0,0,0,.32.77c.07.36-.09.65-.61.82-.42,0-.6.1-.67.31l-.77.26c-.37.06-.48.32-.88.35l-.77.39c-.58.16-.86.53-1.47.66-.19.07-.27.18-.26.32l.12.23a.47.47,0,0,0,.29.34c.42.11.64.37,1,.5l1.48.91c0,.35.52.55.86.79a3.11,3.11,0,0,0,1.17.88,3.74,3.74,0,0,0,2.91.15,2.78,2.78,0,0,1,1.59-.19c.57.1.87,0,1-.28a22.39,22.39,0,0,1,1.61-2c.52-.7.48-1.42-.54-2.11-.61-.41-.87-.84-.56-1.35a6.21,6.21,0,0,0,.49-1.16c.15-.39,0-.75-.49-1.12-1-.75-.87-1.51.42-1.94a2,2,0,0,0,1.32-1.09c.47-1.08,1.07-1.25,3.06-1a21.27,21.27,0,0,0,6.89.06,4.23,4.23,0,0,1,3.29.82c.12.09.2.22.42.15s.15-.17.07-.28a3.43,3.43,0,0,0-1.32-.88c-.35-.17-.66-.34-.64-.59s.47-.19.77-.22.42,0,.39-.14-.33-.17-.51-.16c-.68,0-1.38.06-2,.16-2.61.43-5.1-.27-7.61-.81-.62-.13-.71-.51-.66-.85,0-.15,0-.46.2-.39.87.23,1.58-.11,2.34,0a33.56,33.56,0,0,0,5.09.21,10.09,10.09,0,0,1,3.72.57,11.59,11.59,0,0,0,4.47.78c-.2-.2-.37-.43,0-.55a1.75,1.75,0,0,1,1.29.11c.34.19.15.41,0,.6s-.17.13-.23.21c-.22.27.1.47.45.59s.53-.09.6-.27a4.12,4.12,0,0,0,.24-.67c.19-.83,0-1-1.45-1.07a3.73,3.73,0,0,1-1.5-.24c-.35-.18-.72-.4-.08-.57.34-.09.32-.27.23-.45-.18-.36.07-.59.45-.79a8.72,8.72,0,0,1,1-.46c1.05-.41,1.07-1.43,0-1.77a2.71,2.71,0,0,1-1.37-.91,6.39,6.39,0,0,1-1.28-2.69,1.81,1.81,0,0,1,.32-1.53c.31-.42,1.83-.61,2-.27.4.81,1.17.58,1.92.46.45-.08,1-.23.89-.54s-.71-.22-1.08-.25c-.66,0-.92-.21-.77-.58a4.57,4.57,0,0,1,1.4-1.71,1,1,0,0,1,1.32.13,2.27,2.27,0,0,1,.38.53c.41.82.51.85,1.92.85s2.7-.06,4.07.08,2,.76,1.43,1.48a2.73,2.73,0,0,1-.85.7,14.43,14.43,0,0,1-4.23,1.23c-1.07.2-1.92.55-2.23,1.23a4.09,4.09,0,0,1-1.33,1.61c-.24.18-.41.4-.27.64.25.43,0,.68-.53.9s-.49.51,0,.83a10.83,10.83,0,0,0,2.3,1.19c1.07.38,3.28.13,3.65-.5a2.57,2.57,0,0,1,1.66-1,3.4,3.4,0,0,0,1.73-.85c.92-1,1-1,2.23.06a12.85,12.85,0,0,1,3.07,3.59c.41.82,0,1.28-1.27,1.48a2.56,2.56,0,0,0-1.79.85,2.58,2.58,0,0,1-1.47.86c-1.41.38-2.88.68-4.31,1-2.3.58-3.39.59-2.07,2.57.4.61.11.89-.84,1.11a21.24,21.24,0,0,1-2.3.3,27.58,27.58,0,0,0-5.24.73,5,5,0,0,1-2.36,0c-.79-.15-.84-.57-1.15-.9a3,3,0,0,0-4.05-.37,15.63,15.63,0,0,1-2.67,1.82,5.66,5.66,0,0,0-1.7,1.26c-1.1,1.1-1.87,2.33-3.09,3.39a2.09,2.09,0,0,1-1.57.69c-1,0-1.14.07-.75.66a2.39,2.39,0,0,1,.38,2.24c-.22.55,0,1,.66,1.51a2.07,2.07,0,0,0,.78.48c1.24.72,1.62,1.61,1.41,2.47a4.46,4.46,0,0,0,.4,2.8c.26.62.71,1.25.58,1.86s.33,1.05,1,1.47l5,3.09c.1.19.48.27.55.46a9.87,9.87,0,0,1,1.55,1.55,1.28,1.28,0,0,0,.62.39c.69.26,1.49.07,2.18.29a29.41,29.41,0,0,0,4.33.72,5.63,5.63,0,0,1,2,.54,4,4,0,0,0,1.58.5,21.08,21.08,0,0,0,5.38,0,3.2,3.2,0,0,0,1.81-.73,7.57,7.57,0,0,1,1.5-1.17,2.84,2.84,0,0,1,1.13-.62,4.86,4.86,0,0,0,1.47-1c.6-.67,1.24-1.33,1.9-2a4.22,4.22,0,0,1,3.86-.71,1.51,1.51,0,0,0,1.36-.19c.22-.17.44-.34.64-.52a2.08,2.08,0,0,1,2.46-.15,8.11,8.11,0,0,1,1.78,1.13l.85.57c.29.32.89.51,1.15.84l.47.3c.32.05.42.28.73.35a4.54,4.54,0,0,0,2,.56,18.58,18.58,0,0,1,2.62.41c.89.17,1.53.64,2.41.76a10.21,10.21,0,0,1,2.05.44c.43.09.57.38,1,.49a13.09,13.09,0,0,0,1.35.68,3,3,0,0,1,1.51,1.19,15.72,15.72,0,0,0,2.32,2.73,5.24,5.24,0,0,0,2.42,1.31,22.89,22.89,0,0,1,5.05,1.72,37.21,37.21,0,0,0,9.13,3.28c1.17.27,2.32.59,3.47.89.58.14.89.37.67.75-.11.18,0,.3.32.4a4.51,4.51,0,0,0,3.2-.46c.91-.79,2-1.49,3-2.24a3.08,3.08,0,0,0,1.57-2.8,12,12,0,0,0-.77-2.77,4.59,4.59,0,0,0-1.7-2.06c-.79-.55-1.11-1.15-.8-1.79.38-.8,0-1.44-1-2-.31-.05-.4-.27-.7-.33a15.67,15.67,0,0,0-1.53-.6c-.67-.2-.92-.5-.94-.9a4.89,4.89,0,0,1,.43-2.54,1.9,1.9,0,0,0,.13-1.44c-.28-1-1.34-1.72-2.46-2.43-.32-.06-.41-.28-.71-.35a14.66,14.66,0,0,0-3.06-1.2,3,3,0,0,1-1.19-.54c-.37-.07-.48-.33-.83-.42-.55-.34-1.41-.4-1.86-.86a8.07,8.07,0,0,1-2.21-5,8.94,8.94,0,0,1,.23-2.3,7.15,7.15,0,0,0-1-3.93,12.89,12.89,0,0,0-2.59-3.89c-.44-.43-.67-.89-.33-1.36-.32,0-.46.08-.5.25l-.6.49c-.27.09-.53.19-.51.42a.71.71,0,0,1-.37.35c-.26.09-.51.19-.5.42a2.58,2.58,0,0,1-.86.76c-.28.09-.5.2-.5.42h0a1.65,1.65,0,0,1-.88.47,1.51,1.51,0,0,1-.87.16c-.65-.16-1.35,0-2-.25s-1.28-.05-1.84-.32a18.16,18.16,0,0,0-4.12-.64h0a2.81,2.81,0,0,0-1.38-.14c-1-.11-1.78-.68-2.85-.53a10.24,10.24,0,0,0-1.13-.17l-.38-.23c-.7-.21-.9-.74-1.64-.93a2.26,2.26,0,0,0-.26-.16,1.88,1.88,0,0,0-1.11-.45l-.15-.08a2.47,2.47,0,0,0-1.14-.29h0a6.79,6.79,0,0,0-2.14-.66l-1.28-.35a1.67,1.67,0,0,0-1-.21.94.94,0,0,1-.6-.13,1.75,1.75,0,0,0-.88-.15,10.45,10.45,0,0,1-2.67-.66c-.52-.38-.44-.53.34-.67l.53.16a.51.51,0,0,0,.53.08c.29-.16-.19-.27-.17-.42-.23-.16-.3-.32,0-.44a11.92,11.92,0,0,0,2.38.37l1.91.48c.46.16.78.49,1.38.47a2.5,2.5,0,0,0,1.55.55c.47,0,.89-.11,1.35-.15l1.52.52c.42.12.45.51,1,.53a2.35,2.35,0,0,0,.9.42,2.43,2.43,0,0,0,1.36.32.52.52,0,0,1,.13.06,7.26,7.26,0,0,0,2.5.32,9.07,9.07,0,0,1,2.4.5,1,1,0,0,0,.62.27.26.26,0,0,1,.1.07c.58.12.57.64,1.25.69l.25.15c.51.25.81.7,1.61.64a1.32,1.32,0,0,0,1,.05c.52-.08.83-.27.86-.61,1-1.81,2-3.63,3.07-5.44.32-.17.43-.39.35-.66a.57.57,0,0,1,0-.26,6.29,6.29,0,0,0,.14-4c0-.13,0-.29-.14-.37a1.36,1.36,0,0,1-.67-1.15c-.06-.27-.3-.39-.72-.38l-2.08.07c-.25,0-.51-.17-.75,0a3.77,3.77,0,0,1-1.77-.27.63.63,0,0,0-.51-.19.73.73,0,0,1-.48-.2c-.46.22-.23.48,0,.75v.47c-.15.36-.49.68-.37,1.09l-.59.65a.84.84,0,0,1-.64.34c-.63.08-1-.39-1.51-.41a16.65,16.65,0,0,1-3.88-1,2.18,2.18,0,0,0-.88-.16,6.36,6.36,0,0,1-1.39-.29c-.43-.13-.84-.3-1.29-.4-.29-.19-.16-.37,0-.54.38-.57,1.07-.7,2.81-.52a1.69,1.69,0,0,0,.87.16,6.25,6.25,0,0,0,1.92.2,1.34,1.34,0,0,0,.87-.05,6.16,6.16,0,0,0,1.25-.2,4.31,4.31,0,0,0,1.38-.74,1.52,1.52,0,0,1,1.85-.2,2.32,2.32,0,0,0,.68.06.86.86,0,0,0,.6-.06l.15-.05a2,2,0,0,0,1-.26l.39-.19c.32,0,.41-.25.74-.27l1-.52c.76-.25,1.21-.73,2-1a3.64,3.64,0,0,1,1.25-.51c.24,0,.5,0,.63-.18.86-.07,1.75.14,2.61.09a1.82,1.82,0,0,0,.87,0,4.2,4.2,0,0,1,1.75-.35c.25,0,.41.11.39.28s-.09.49.34.68a1.6,1.6,0,0,0,1,.07l.48-.11c.44-.22.52-.47,0-.76-.06-.21-.57-.43-.18-.61a1.15,1.15,0,0,1,.91.21c.12.17.38.21.62.27l.37.24a12.73,12.73,0,0,1,2.08,1.38.93.93,0,0,0,.52.23l1.36.62c.09.18.37.21.6.27,1.37.6,2.95.95,4.36,1.49.77.29,1.54.56,2.34.8,1.15.34,2.37.57,3.47,1,.4.1.8.48,1.21.09A7.26,7.26,0,0,0,378,312.1c-.16-.26-.63-.38-.76-.64-.39-.27-.76-.54-1.16-.79-.56-.34-.81-.71-.68-1.18a12.23,12.23,0,0,0,.08-6.16.64.64,0,0,1,.31-.72c.7-.53,1.56-1,1.6-1.81,0-.29.44-.28.88-.19a32.57,32.57,0,0,0,3.39.62,5.62,5.62,0,0,1,3.87,1.68,1.55,1.55,0,0,0,1,.4c.42,0,.56-.23.71-.44a1.81,1.81,0,0,0,.2-1c0-.36.23-.51.87-.26a15.12,15.12,0,0,1,1.89.94c1,.54,2.11.87,3.13,1.35a9.54,9.54,0,0,1,1.94,1.36c.24.17.5.33.72.5a4.86,4.86,0,0,0,2.6,1.17A6.59,6.59,0,0,1,401.39,308Zm-72.95-10.65c.44-.07.69.21,1,.4s.77.64.72,1.05c0,.21,0,.5-.38.53a1.56,1.56,0,0,1-1.17-.37,1.48,1.48,0,0,1-.51-1C328.09,297.76,327.94,297.44,328.44,297.36Zm3.08,10.5a2.88,2.88,0,0,1-1.56.48c-1.44,0-2-.18-2.68-1-.15-.18-.31-.37-.44-.56a2.66,2.66,0,0,0-2.21-1.15,15.55,15.55,0,0,1-5.08-1.71c-.46-.23-.71-.53-.67-.84a3.23,3.23,0,0,1,1.8-2.61,1.25,1.25,0,0,1,1.46.11c.48.31.61.54.06.82s-.71.62.05,1l.06,0c.19,1,1.44.89,2.48,1a2.08,2.08,0,0,1,1.3.49,1.23,1.23,0,0,0,.43.22c.77.3.93.25.89-.27,0-.33,0-.52.73-.39.92.18,1,.23.45.68-.2.17-.53.35-.28.62s.67.23,1.06.21h.09c.51,0,3.23,1.5,3.19,1.79C332.57,307.27,332.06,307.58,331.52,307.86Z" fill="#51b6fd"/>
            <path d="M323.28,414.39a.23.23,0,0,1-.08-.14,9.15,9.15,0,0,0-.74-1.79,5.27,5.27,0,0,1-.25-1.23c-.06-.27-.22-.53-.87-.38a3.8,3.8,0,0,1-2.3-.27c-.63-.26-1.12-.89-.75-1.14.69-.47.19-.84-.35-1.17s-.78-.71-.36-1.12c.25-.23,0-.27-.36-.27a4.28,4.28,0,0,1-1.55-.25c-.51-.2-.72-.44-.17-.7,1-.47,1.05-1.05.41-1.71a.52.52,0,0,1,0-.86c.49-.41,1-.8,1.47-1.22,1.07-1,1.15-2.07-1.78-2.35-.54-.05-1.07-.13-1.61-.21-.15,0-.39,0-.41-.15s.16-.19.36-.22l1.83-.33a1.56,1.56,0,0,0,.7-.38,2.17,2.17,0,0,0,.51-2.05,16.58,16.58,0,0,0-2.12-4.14,2.27,2.27,0,0,0-1.41-1.06c-1.42-.43-1.43-.51-1.25-1.41.15-.72.6-1.41.7-2.13a2.36,2.36,0,0,1,1.21-1.68c.71-.45.75-.92.43-1.45a11,11,0,0,0-4-4.05c-.57-.49-1.48-.83-2-1.34a1.65,1.65,0,0,1-1.1-1.44,5.72,5.72,0,0,0-1.82-3.84,3.67,3.67,0,0,0-3.05-.89,9.91,9.91,0,0,1-2,.08,5.84,5.84,0,0,0-2.92.4c-.3,0-.39.26-.72.27a7.87,7.87,0,0,1-5,1,9,9,0,0,0-1.73.1,1,1,0,0,0-.59.33c-.3.21-.12.48-.15.71s.2.74-.12,1.06a1.84,1.84,0,0,1-.89.48.78.78,0,0,1-.75.08c-.34-.17-.18-.37,0-.5a.9.9,0,0,0,.41-.87.64.64,0,0,0-.59-.52c-.44-.08-.46.18-.63.31-.33.15-.29.35-.19.57a4,4,0,0,1-.2,1.41c-.17.22-.35.2-.53,0a.51.51,0,0,1-.27-.44,2.43,2.43,0,0,0-.43-1.37c-.07-.2-.15-.41,0-.59s0-.32-.46-.4c-.67-.13-1.5,0-2-.47-.12-.28-.44-.39-.91-.38a12.37,12.37,0,0,0-4.22.15c-.79.17-1.26.57-2,.76a14.83,14.83,0,0,1-1.6.14c-2.34-.2-4.68-.11-7-.38a1,1,0,0,0-1.07.19,6.56,6.56,0,0,1-1.16.73,1.85,1.85,0,0,1-.89.49c-.27.22-.75.1-1.14.15s-.48.3-.87.34a6,6,0,0,1-3,.35c.49.65,0,1.47,1.44,1.94.05,0,.06.1.08.15a.7.7,0,0,1-.45.11.41.41,0,0,0,.18-.13,2.05,2.05,0,0,0-.68-.33c-.28-.06-.62-.31-.85-.09s.36.25.52.39a2.07,2.07,0,0,1,.52.16,1.11,1.11,0,0,0-.37.05,1.75,1.75,0,0,1-1.37-.93c-.13-.21-.19-.61-.53-.59-.53,0-.4.4-.38.67,0,.42.21.92-.32,1.19-.72.38-.37.74-.08,1.14.12.15.31.3.44.46.76.91.76.93-1,.91a2.48,2.48,0,0,0-2.06.62c-.15.19-.41.34-.57.53-.42.5-1.16.57-2.11.54a6.67,6.67,0,0,1-3.93-1.35c-.1-.18-.49-.25-.57-.44l-.77-.47a1.49,1.49,0,0,0-.66-.37,1.8,1.8,0,0,0-1.27,0c-.59.17-1.13.38-1.69.57-.36.06-.47.3-.86.34-1.15.65-1.2.65-2.35-.12a1.93,1.93,0,0,1-.37-.3,12.49,12.49,0,0,0-2.5-2.32,1.23,1.23,0,0,0-.69-.36h-.24a2.19,2.19,0,0,0-1,.52c-1,.87-1,1.3.12,2.11.66.47.64.83.15,1.24a3.39,3.39,0,0,1-.84.59,1.3,1.3,0,0,1-.77.42,3.29,3.29,0,0,1-1.78.33,13.41,13.41,0,0,1-5.81-1.47c-.35-.05-.47-.28-.8-.34-1.65-.71-2.22-1.91-3.89-2.63-.12-.05-.17-.19-.21-.29-.41-1,.67-2.41,2.11-2.87a20.51,20.51,0,0,0,3.24-1.1c.22-.09.6-.11.37-.36-.55-.09-1.31,0-1.4-.49a.83.83,0,0,1,.48-.88c.44-.27,1.08-.38,1.53-.63.32,0,.4-.26.74-.28.89-.76,3.13-.65,4.61,0a10.34,10.34,0,0,0,3.77,1c.42,0,.82,0,.93-.24s-.17-.39-.55-.55c-1.91-.8-4-1.41-6-2.17-.8-.31-1.21-.67-1.29-1.17-.16-1-.35-1.93-.48-2.9-.08-.5-.75-1-.22-1.5,0-.21-.5-.27-.56-.48s-.3-.52-.87-.63a6.81,6.81,0,0,1-2.45-1.17c-.2-.12-.38-.28-.18-.43s.5-.06.77,0l1.32.34a3,3,0,0,1-.38-.33c-1-1.26-2.2-2.52-.29-3.67.5-.31.23-.65-.47-.85-1.23-.36-2.08-1.38-1.48-2a17,17,0,0,0,1.74-2.52c.4-.57.72-.71,1.63-.81-.64,1.2-.5,1.69.69,2.15a5.68,5.68,0,0,1,.88-2.66.76.76,0,0,0,.12-.87c-.21-.33,0-.5.48-.59.08-.09.07-.17-.12-.24l-.14-.08c-.57-.24-.75-.18-.81.26-.3.31-.06.67-.1,1-.05.54-.4.66-1.33.45a.48.48,0,0,1-.39-.27.31.31,0,0,0-.45-.09.86.86,0,0,0,0,.16c-.17.41-.91.34-1.4.47a1.48,1.48,0,0,1-.78,0,1.36,1.36,0,0,0-.82-.06c-.36-.07-1,0-.7-.41.09-.22.68-.22.63-.5s.11-.48-.37-.61a1.28,1.28,0,0,0-1.12.19,10.18,10.18,0,0,0-.84.75,1.09,1.09,0,0,0-.48.88l0,.68c-.22.13-.14.28,0,.44-.11.17,0,.48-.48.45s-.54-.32-.64-.54-.33-.69-.06-1c.23-.13.12-.29,0-.44a.22.22,0,0,1,.08-.36c.15-.24.37-.47.22-.75h0a1.13,1.13,0,0,0,.37-.8,2.94,2.94,0,0,1,1-.71c.17-.36,1-.39,1.15-.76a11.71,11.71,0,0,0,2.35-1.62,3,3,0,0,0,.87-1.24.31.31,0,0,1,.11-.08c.12-.16.61-.18.45-.44.06-.22.22-.43.1-.67,0-.09-.07-.18-.19-.26-.51-.16-.79-.47-1.29-.65l-.83-.31a.73.73,0,0,0-.67,0l-.64.33c-.26.1-.55.19-.47.44a2.43,2.43,0,0,1-.75.83.69.69,0,0,1-.69.15c-.33-.08-.37-.24-.32-.41a7.76,7.76,0,0,1,.72-1.32c.06-.08.33-.12.16-.25s-.21,0-.32,0a.9.9,0,0,0-.64.06l-.41,0a3.43,3.43,0,0,0-1.58.1,7,7,0,0,0-1.2.29c-.26,0-.55-.14-.78,0a7.05,7.05,0,0,1-2.47-.59,9.11,9.11,0,0,0-2.33-.34,2.49,2.49,0,0,1-1-.27.84.84,0,0,0-.54-.21,1.53,1.53,0,0,1-.69-.26.84.84,0,0,0-.82-.18l-.42.19c-.3.09-.1.24-.08.38-.11.49.21,1-.1,1.51-.13.33-1,.36-.91.79,0,.18-.11.34-.53.32a8.17,8.17,0,0,1-2.41-.3,1,1,0,0,0-.55-.19c-.36-.14-.35-.34-.41-.54-.19-.56-.62-.69-1.54-.53a6.87,6.87,0,0,1-2.19.11,2.76,2.76,0,0,0-1.51,0l-.53.1a1.78,1.78,0,0,0-1.18.33l-1.89,1.05c-.22.08-.18.22-.15.35a1.34,1.34,0,0,0,.65,1c.06.41.6.61,1.15.81a2.63,2.63,0,0,1,1.77,1.28c.24,0,.21.17.27.27a2.1,2.1,0,0,0,2,.78c1.63.28,3.06.7,3.56,1.74a.7.7,0,0,0,.37.61,2,2,0,0,0,.56.63c0,.28.5.38.74.57l.4.25c0,.18.25.31.54.42a2.87,2.87,0,0,1,1.06.63,2.43,2.43,0,0,1,.81.63c.7.63.11,1.18-1.19,1.15a2.62,2.62,0,0,0-1.47,0,5.88,5.88,0,0,1-2.71-.41,2.61,2.61,0,0,1-1-.59,2.26,2.26,0,0,0-.26-.16c0-.34-.72-.39-.9-.65a.77.77,0,0,0-.79,0c-.52.24-1.1.43-1.65.64a.84.84,0,0,0-.81.23l-.15.07a2.71,2.71,0,0,0-.78.13,15.55,15.55,0,0,1-3.56.38,2.84,2.84,0,0,0-1.23.14l-1,.18a7.28,7.28,0,0,0-1.14.31c-1-.05-1.45-.67-2.39-.76-.54.06-.67.4-1.19.48a.84.84,0,0,1-.65,0,5,5,0,0,0-1.38-.37l-.45-.24c0-.22-.31-.36-.6-.48a2.2,2.2,0,0,1-.71-1.39c.23-.28,0-.57-.22-.85a.69.69,0,0,1-.08-.6c.3-.6-.2-1.11-1-1.57-.13-.39,0-.7.52-.92a2.63,2.63,0,0,0,1.17-1c.18-.26.35-.53,0-.84a.56.56,0,0,0-.41-.24,1.8,1.8,0,0,0-1.48.3l-.68.18c-.34,0-.51-.13-.55-.31s.14-.28.35-.37a2.66,2.66,0,0,1,1.17-.63h0a4.75,4.75,0,0,1,2.08.18l.27.15a2.49,2.49,0,0,1,1,.6c.44.29-.06.62.35.91a2.29,2.29,0,0,0,1,0c1.53-.18,1.61-.26,1.31-1.14-.11-.34-.25-.7.37-.89a2.36,2.36,0,0,0,1-.12c.43-.11,1.22,0,1.05-.45s-.83-.3-1.31-.34a10.4,10.4,0,0,0-3.44.27c-.66,0-1.29.11-1.91.2s-1.31.07-1.71-.4c.29-.35,1-.5,1.31-.84a3.4,3.4,0,0,0,1.1-2,2,2,0,0,0-1.49-.45c-.78-.09-1.54-.19-1.6-.77-.19-.36-.62-.42-1.14-.36a6.9,6.9,0,0,0-1.77.29,3.16,3.16,0,0,0-1.15.63.3.3,0,0,1-.08.08c0,.29.47.36.83.43s.62.13.74.34a5.39,5.39,0,0,1,.7,1.73c-.2.23-.66.18-1,.23a6.23,6.23,0,0,1-1.83-.58,4.63,4.63,0,0,0-1.69-.46c-.62,0-1,.06-.83.46-.19.29.05.57.26.85,0,.23-.26.36-.67.38a4,4,0,0,0-2.91-.3c-.18,0-.45,0-.47-.19s-.18-.48-.69-.59a7.68,7.68,0,0,0-2.69-.21c-.58-.09-.81.08-.92.34a.24.24,0,0,1-.09.08c-.14.16-.24.33-.1.53a.94.94,0,0,0,.5.73c.44.28.73.7,1.58.58l.41,0a1.37,1.37,0,0,0,.6-.11l.13,0a.69.69,0,0,1-.13.11.3.3,0,0,0-.13.3h0c-.53.13-.64.51-1.19.63a4.12,4.12,0,0,1-1.52.15c-.53.06-.46.28-.34.51s-.2.81,1,.83a8.68,8.68,0,0,1,1.25.13h0c1.28-.37,1.55-1,1.32-1.84,0,0,.08.06.05,0,.21.2.11.38.09.57s0,.54.63.63l-.11,0c-1,.14-1.58.43-1.52,1-.09.11-.16.22-.25.32a7,7,0,0,1-4.92,2.48,3.36,3.36,0,0,0-1,0,7.45,7.45,0,0,0-1.25,0,5.62,5.62,0,0,0-1.54.83l-.24.15c0,.23-.89.36-.09.69l.33,0c.26-.05.6,0,.78-.14l.29-.12c.22,0,.42-.06.47-.15l0,.12a1.1,1.1,0,0,0,0,.26c-.12.28.08.51.51.71a1.43,1.43,0,0,1,.78.43c.27.19.37.4.09.53a1.87,1.87,0,0,1-1.21-.05,4.57,4.57,0,0,0-3.05.11,14.64,14.64,0,0,0-1.59.73,13,13,0,0,1-1.57.85,1.19,1.19,0,0,1-1,.11c-.42-.13-.4-.37-.32-.54.22-.51-.26-.47-.89-.44a1.76,1.76,0,0,0-1.75,1.07.69.69,0,0,0-.52.15.82.82,0,0,1-.53.12,2.55,2.55,0,0,0-1.24.17l-.92.2c-.3-.08-.35.11-.57.13a1.12,1.12,0,0,1-.63.2c-.57-.09-.62.23-.95.32l-1.26.69a2.31,2.31,0,0,1-1.47.68c-.34.07-.75.07-.94.28a1.41,1.41,0,0,0-1.28,1c-.35.86-.65,1.72-1,2.59a1.12,1.12,0,0,0-.25.23.45.45,0,0,0-.06-.24c-.43-.4-.44,0-.66,0a.62.62,0,0,0-.21.26.41.41,0,0,0-.12-.27c-.08-.48.41-.91,0-1.48a1.68,1.68,0,0,0-.75.95c-.23.54-.12,1.23-1.79,1.31a19.38,19.38,0,0,1,3.52,1.05c.42.16.81.38.61.64s-.68.11-1,.06a3.56,3.56,0,0,1-1.19-.33,2.48,2.48,0,0,0-2.37-.22c-1.55.58-3.51.8-5.11,1.36-.58.19-.92.59-1.77.57-.67-.06-1.24,0-1.37.38l-1.45.62c-.49.11-.65.42-1.17.51a5.32,5.32,0,0,1-2.41.79,2.09,2.09,0,0,0-.89.48c-.35.22-.1.76-1,.68a4.67,4.67,0,0,0-2,.27c-.34,0-.42.26-.78.29a4.3,4.3,0,0,1-1.5.29c-.77.07-.63.44-.73.73-.81,0-1,.29-1.14.65a4.79,4.79,0,0,1-.86,1.64,2.54,2.54,0,0,0-.61,2.59c0,.2-.44.22-.48.4a5,5,0,0,0-.67,1c-.21.35.07.44.66.44a20.64,20.64,0,0,0,6.14-.53c.58-.19,1,0,1.16.38s-.13.84-1,1l-1.41.26a1.66,1.66,0,0,0-.77.41c-.28.42-.57.83-.84,1.25,0,.08-.26.17-.06.27a.9.9,0,0,0,.54,0,2.84,2.84,0,0,1,1.66,0,2.08,2.08,0,0,0,1.94,0c.27-.11.5-.24.74-.36a1.12,1.12,0,0,0,.63-.34c.34-.21.68-.42.63-.75s-.13-.6.62-.59a1.55,1.55,0,0,1,1.33.61,1.78,1.78,0,0,1,.25,1.15c0,.51-.64.83-.94,1.25-.43.6.21,1.4,1.27,1.74s3.44.6,4,.08a1.83,1.83,0,0,1,1.39-.28,7.48,7.48,0,0,0,3.47-.57,2,2,0,0,0,.88-.48c.06-.19.15-.38.59-.38a1.3,1.3,0,0,1,.88.34,2.25,2.25,0,0,1,.84,1.26c.24,1.14-.54,2.1-1,3.12-.08.2-.31.39-.13.64.51-.09.53-.33.68-.52a7.27,7.27,0,0,0,1.06-2.12,5.73,5.73,0,0,0,.71-2.7c-.1-.78.09-1.54-.84-2.36a7.4,7.4,0,0,1-1.12-1.67c-.26-.38.1-.75.74-.94.38-.11.76-.11.74.24a1.35,1.35,0,0,0,.47.94,1.18,1.18,0,0,0,.75.35.64.64,0,0,0,.64-.31,1.26,1.26,0,0,0,.25-1.21c-.16-.21-.65-.3-.77-.53-.2-.64.21-1,1.26-.95a9.75,9.75,0,0,0,4-.66,30.79,30.79,0,0,1,7.14-1.89,2.12,2.12,0,0,0,1.44-.61.84.84,0,0,1,.9-.25c.66.12,1.36.18,2,.35a8.09,8.09,0,0,0,3.79,0,3.8,3.8,0,0,1,1.54,0,10.64,10.64,0,0,1,2,.57,1.39,1.39,0,0,1,.76.41,1.61,1.61,0,0,0,1.71.46c1.17-.2,1.19-.18,1.61.53a1.36,1.36,0,0,0,.14.11c.19-.1.36-.21.56-.3a1.24,1.24,0,0,1,1.73.31,1.08,1.08,0,0,0,1.42.18,3.23,3.23,0,0,1,1.39-.32,25.4,25.4,0,0,1,2.62-.06,21.9,21.9,0,0,1,3.6.39,1,1,0,0,1,.91.72c.05.15-.06.25-.35.29-1,.13-1,.26-.18.74l1.91,1.07c.52.44,1.4.72,1.91,1.16l1.53.87a7.35,7.35,0,0,0,1.55.86,12.69,12.69,0,0,0,3,1.17,3.72,3.72,0,0,0,2.38.18,1.52,1.52,0,0,1,.95.14,15.09,15.09,0,0,0,6.58.9,16.37,16.37,0,0,0,2.51-.1,4.47,4.47,0,0,1,1.67.34,25.25,25.25,0,0,0,5.24,1.11c.27,0,.62.05.71.23.31.62,1.17.62,2,.65a8.46,8.46,0,0,1,2.73.31,8.19,8.19,0,0,0,2.83.45,5.59,5.59,0,0,0,1.49-.13c.18-.05.4-.13.34-.26s-.35-.11-.56-.12a4.58,4.58,0,0,1-1.17,0c-1.25-.39-2.63-.49-3.92-.79a2.61,2.61,0,0,0-.69-.09c-2-.32-3.89-.88-5.85-1.31-.47-.11-.65-.31-.65-.54s.32-.32.69-.38a2.93,2.93,0,0,1,1.35.12,12.79,12.79,0,0,0,1.48.38c2.15.39,4.36.51,6.49.94a36.49,36.49,0,0,0,3.9.51,11.87,11.87,0,0,1,4.52.91,2.1,2.1,0,0,0,.81.46,4.27,4.27,0,0,0,1.4.17,65.88,65.88,0,0,0,8.42-1.05c.75-.11,1.68-.19,2-.67a2,2,0,0,1,.82-.66,8.94,8.94,0,0,0,1-.11,1.14,1.14,0,0,1,.48-.09,38.28,38.28,0,0,0,6-.79,8.81,8.81,0,0,1,6.1.49c.31.14.57.23.6,0,.05-.45.47-.43,1.09-.31a3.9,3.9,0,0,0,2.71-.25,2.13,2.13,0,0,1,.78-.18c.91,0,1.09-.34.86-.78s.09-.56.69-.63a5.25,5.25,0,0,0,.79,0,9.19,9.19,0,0,1,3.08.83,2.34,2.34,0,0,1,.95.55l.36.09c.13.21.59.3.68.52a3.16,3.16,0,0,1,1.06,1.87,6.35,6.35,0,0,0,2.19,3,2.19,2.19,0,0,0,1.86.55c.47,0,.37.23.43.38a.68.68,0,0,1,0,.54c-.06.19,0,.34.45.43.59.12,1.17.28,1.75.42,2.39.6,4.75,1.21,7.06,1.89a24.41,24.41,0,0,0,5.13,1.31.54.54,0,0,0,.48,0c2.32-.05,4.61-.24,6.95-.16a2.05,2.05,0,0,0,.74,0l.75.46c.17.23.65.33.8.57l.85.52c.17.24.65.34.79.58l.86.52c.17.23.65.32.78.56l.86.53c.17.23.65.33.79.57l.85.52c.2.25.73.37.9.63l.86.52c.16.23.64.33.78.57l1.1.66c.2.26.72.37.9.64a9.25,9.25,0,0,1,3.19,3.07,4,4,0,0,0,1.81,1.71,5.28,5.28,0,0,1,1.39.8,2,2,0,0,1,.26.19,5,5,0,0,0,2.68,1.6,8,8,0,0,1,3,1.64,7,7,0,0,1,1,.85c.11.14.16.3,0,.41s-.41,0-.62,0-.48-.15-.63,0,.09.39.18.58a.45.45,0,0,0,.63.16c.26,0,.46-.12.72-.13h.22a4.85,4.85,0,0,0,1.08,0l1,.11c.28,0,.59,0,.63.26s0,.32-.35.37c-.15,0-.22.08-.19.18.69.53,1.69.91,2.34,1.46a1.66,1.66,0,0,1,.61.63c.11.18.2.21.52.1a4.77,4.77,0,0,1,3.93,0,.4.4,0,0,0,0-.54C324,415.84,324.4,415,323.28,414.39Zm-164-60.23a.18.18,0,0,0,0-.11c-.13-.19-.49,0-.75-.11C159.24,353.86,159.34,353.86,159.24,354.16Zm53.24,8.29c-.19.05-.42-.15-.59-.26a2.28,2.28,0,0,0-1.89-.25c-.72.16-.48.52-.33.85a7.61,7.61,0,0,0,2.4,2.45c.19.15.41.29.42.5a1.8,1.8,0,0,1-1-.25c-.85-.44-1.63-.93-2.56-1.33-.77-.34-.65-.84-.43-1.28a2.07,2.07,0,0,1,.34-.4c.1-.11.17-.23,0-.35a.92.92,0,0,0-.69-.09,10.39,10.39,0,0,0-4.32,1.48,6.73,6.73,0,0,1-.89.51,7.1,7.1,0,0,0,.5-2.19c.06-.55.93-.65,1.74-.68a7.44,7.44,0,0,1,2.34.21,5.6,5.6,0,0,0,3.6-.16,8.76,8.76,0,0,1,2-.54,1.27,1.27,0,0,1,.8.09c.23.12,0,.22-.09.32-.18.25,0,.47.24.7s.66.47.76.8A6.92,6.92,0,0,0,212.48,362.45Z" fill="#51b6fd"/>
          </g>
        </g>
        <g id="social02">
          <path d="M468.37,311.38c0,2-4,3.6-9,3.6s-9-1.61-9-3.6,4-3.59,9-3.59S468.37,309.4,468.37,311.38Z" fill="#4696f5"/>
          <path d="M476.3,282.54a7,7,0,0,0-3.17-5.18l-18.81-11.92a2.61,2.61,0,0,0-2.27-.47h0l-.12.07a1.94,1.94,0,0,0-.24.15l-4.38,2.68,3.85,6.85v15.95a7,7,0,0,0,3.17,5.17l13.54,8.58,3.53,6.28,3.71-2.4a1.27,1.27,0,0,0,.93-.6h0a2.07,2.07,0,0,0,.27-1.09Z" fill="url(#linear-gradient-2)"/>
          <g>
            <path d="M468.78,280,450,268.1c-1.75-1.11-3.17-.59-3.17,1.16v24.07A7,7,0,0,0,450,298.5l18.81,11.92c1.75,1.11,3.17.59,3.17-1.16V285.19A7,7,0,0,0,468.78,280Z" fill="url(#linear-gradient-3)"/>
            <polygon points="457.99 311.63 462.89 306.68 455.08 301.74 457.99 311.63" fill="url(#linear-gradient-4)"/>
          </g>
          <polygon points="457.99 311.63 462.89 310.7 465.5 308.34 462.89 306.68 457.99 311.63" fill="#f867b0"/>
          <path d="M465.38,296.87c0,.91-.24,1.61-.89,1.87a2.77,2.77,0,0,1-2.31-.59c-.77-.46-1.52-1-2.28-1.47s-1.52-1-2.28-1.55a7.7,7.7,0,0,1-2.31-2.48,6.26,6.26,0,0,1-.89-3c-.05-.84,0-1.63,0-2.44s0-1.62,0-2.4.24-1.6.89-1.86a2.76,2.76,0,0,1,2.31.58c.76.46,1.52,1,2.28,1.48s1.51,1,2.28,1.55a7.77,7.77,0,0,1,2.31,2.47,6.26,6.26,0,0,1,.89,3c0,.84,0,1.64,0,2.44S465.42,296.09,465.38,296.87Zm-8.74-12.78a1,1,0,0,0-.63,0,.78.78,0,0,0-.42.4,12.32,12.32,0,0,0-.22,3.31,15.94,15.94,0,0,0,.22,3.6,4.6,4.6,0,0,0,.42.95,4.53,4.53,0,0,0,.63.86,21.24,21.24,0,0,0,3.26,2.39,17.1,17.1,0,0,0,3.25,1.92,1,1,0,0,0,.64,0,.74.74,0,0,0,.41-.39,11.93,11.93,0,0,0,.23-3.31,15.45,15.45,0,0,0-.23-3.61,4.26,4.26,0,0,0-.41-.94,5.14,5.14,0,0,0-.64-.87A21.85,21.85,0,0,0,459.9,286,17.7,17.7,0,0,0,456.64,284.09Zm3.26,9.73a6.66,6.66,0,0,1-2.83-4.88c0-1.66,1.26-2.17,2.83-1.13a6.69,6.69,0,0,1,2.83,4.88C462.73,294.36,461.46,294.86,459.9,293.82Zm0-5c-1-.67-1.84-.34-1.84.74a4.33,4.33,0,0,0,1.84,3.17c1,.67,1.84.34,1.84-.73A4.37,4.37,0,0,0,459.9,288.86Zm2.94,1.48a1.57,1.57,0,0,1-.66-1.14c0-.39.3-.5.66-.26a1.55,1.55,0,0,1,.67,1.14C463.51,290.47,463.21,290.59,462.84,290.34Z" fill="#fff"/>
        </g>
        <g id="social01">
          <path d="M319.25,296.5c0,3.88-7.87,7-17.57,7s-17.57-3.15-17.57-7,7.87-7,17.57-7S319.25,292.63,319.25,296.5Z" fill="#4696f5"/>
          <path d="M334.73,240.16c0-3.42-2.77-7.95-6.18-10.11L291.8,206.78c-1.74-1.11-3.31-1.38-4.44-.93h0l-.23.14a2.55,2.55,0,0,0-.48.29l-8.55,5.24,7.51,13.37V256c0,3.42,2.77,7.94,6.19,10.11l26.45,16.75,6.9,12.27,7.23-4.68a2.54,2.54,0,0,0,1.83-1.18h0a4.11,4.11,0,0,0,.51-2.14Z" fill="url(#linear-gradient-5)"/>
          <g>
            <path d="M320.05,235.24,283.31,212c-3.42-2.17-6.19-1.15-6.19,2.27v47c0,3.42,2.77,7.95,6.19,10.11l36.74,23.28c3.42,2.17,6.19,1.15,6.19-2.27v-47C326.24,241.94,323.47,237.41,320.05,235.24Z" fill="url(#linear-gradient-6)"/>
            <polygon points="298.98 296.99 308.54 287.33 293.28 277.66 298.98 296.99" fill="url(#linear-gradient-7)"/>
          </g>
          <polygon points="298.98 296.99 308.54 295.17 313.65 290.56 308.54 287.33 298.98 296.99" fill="#f867b0"/>
          <path d="M309,251.25l-2.21-1.47c-1.73-1.14-2-.47-2,.79v2.82l4.12,2.73-.55,4.05-3.57-2.37v11.32l-4.29-2.85V255l-3.59-2.38v-4.41l3.59,2.37v-3.25c0-3.77,2.17-4.38,5.35-2.28,1.51,1,2.82,2,3.2,2.3Z" fill="#fff"/>
        </g>
        <g id="social03">
          <path d="M202.07,370.34c0,3.1-6.29,5.61-14.06,5.61s-14-2.51-14-5.61,6.29-5.62,14-5.62S202.07,367.23,202.07,370.34Z" fill="#4696f5"/>
          <path d="M214.46,325.26c0-2.73-2.22-6.35-5-8.08l-29.39-18.62a4,4,0,0,0-3.56-.74h0l-.19.12a1.48,1.48,0,0,0-.38.23l-6.84,4.2,6,10.68V338c0,2.73,2.22,6.35,5,8.08l21.15,13.4,5.52,9.82,5.79-3.75a2,2,0,0,0,1.46-.94h0a3.23,3.23,0,0,0,.42-1.71Z" fill="url(#linear-gradient-8)"/>
          <g>
            <path d="M202.71,321.33l-29.39-18.62c-2.74-1.73-4.95-.92-4.95,1.81v37.6c0,2.73,2.21,6.36,4.95,8.09l29.39,18.62c2.74,1.73,5,.92,5-1.82V329.42C207.67,326.68,205.45,323.06,202.71,321.33Z" fill="url(#linear-gradient-9)"/>
            <polygon points="185.85 370.72 193.5 363 181.3 355.26 185.85 370.72" fill="url(#linear-gradient-10)"/>
          </g>
          <polygon points="185.85 370.72 193.5 369.27 197.59 365.58 193.5 363 185.85 370.72" fill="#f867b0"/>
          <path d="M195.86,339c0,.17,0,.34,0,.5,0,5.09-3.65,8.54-10.32,4.11a22.84,22.84,0,0,1-5.57-5.42c.29.23.57.43.88.63a6.46,6.46,0,0,0,4.5,1.34,9,9,0,0,1-3.39-4.91c.22.18.45.35.68.51a5.54,5.54,0,0,0,1,.5,8.5,8.5,0,0,1-2.91-5.71v0a8.1,8.1,0,0,0,1.64,1.57,7.76,7.76,0,0,1-1.62-4.27,2.38,2.38,0,0,1,.5-1.62,25.62,25.62,0,0,0,7.47,9,6.41,6.41,0,0,1-.08-1c0-2.12,1.61-2.77,3.62-1.44a8.58,8.58,0,0,1,2.65,3,6,6,0,0,0,2.31.6,1.57,1.57,0,0,1-1.6,1.06,7.44,7.44,0,0,0,2.09.79A3.22,3.22,0,0,1,195.86,339Z" fill="#fff"/>
        </g>
        <g id="car01">
          <g>
            <g>
              <g style="isolation: isolate">
                <path d="M522.71,173.31l-.23-.12h-.05l-.07,0-.12-.05-.13,0-.08,0h0l-.27,0h-.64l-.12,0-.18,0-.11,0-.23.07h0l-.28.1-.12.05-.11,0-.42.21a5.08,5.08,0,0,0-.43.27l-.14.1-.29.21-.16.13-.26.22-.15.14-.1.09-.1.1-.31.32-.09.1-.08.09-.18.22-.12.14-.09.12-.13.17-.09.11-.14.21-.09.13,0,.05c-.09.13-.17.26-.25.39v0a.56.56,0,0,0,0,.08l-.15.27a.83.83,0,0,0-.07.13.91.91,0,0,0-.07.14l-.07.11-.15.33s0,0,0,.05v0c-.06.13-.12.27-.17.4l0,.08-.06.15c0,.07,0,.14-.07.2a1.42,1.42,0,0,0-.05.16l-.06.19a.56.56,0,0,0,0,.12,1.94,1.94,0,0,0,0,.2,2.17,2.17,0,0,0-.07.24.31.31,0,0,1,0,.08.9.9,0,0,1,0,.16l-.06.37a.3.3,0,0,0,0,.1l0,.23c0,.05,0,.1,0,.15a4.36,4.36,0,0,0,0,.51,3.2,3.2,0,0,0,1.29,2.94l2.85,1.7a3.19,3.19,0,0,1-1.29-2.94,4.32,4.32,0,0,1,0-.5c0-.05,0-.11,0-.16s0-.22,0-.33,0-.24.07-.36a2.21,2.21,0,0,1,0-.25,2,2,0,0,1,.06-.23l.09-.32.06-.19.12-.36.06-.15c.07-.17.13-.34.21-.5a.14.14,0,0,0,0-.06c.07-.14.14-.29.22-.44a.83.83,0,0,1,.07-.13l.22-.41a.35.35,0,0,0,.05-.08l.29-.46.09-.13.23-.33a1.09,1.09,0,0,0,.13-.17l.21-.26.18-.21.18-.2.3-.31.2-.19.15-.15.27-.22.15-.13.29-.21.14-.1.44-.27c.14-.08.28-.14.42-.21l.11-.05.39-.15h0l.33-.08.19,0,.24,0h.49a1.86,1.86,0,0,1,.34,0l.08,0,.25.07.08,0a1.59,1.59,0,0,1,.29.15l-2.85-1.71Z" fill="#0a0a2c"/>
                <path d="M522.34,175.3a10,10,0,0,0-4.64,7.81c0,2.9,2,4.09,4.54,2.67a10,10,0,0,0,4.64-7.81C526.9,175.07,524.87,173.88,522.34,175.3Z" fill="#142842"/>
              </g>
              <g style="isolation: isolate">
                <path d="M522.31,177.82a5.23,5.23,0,0,0-2.41,4.06c0,1.5,1.05,2.12,2.36,1.38a5.17,5.17,0,0,0,2.41-4.06C524.68,177.7,523.63,177.08,522.31,177.82Z" fill="#fff"/>
              </g>
            </g>
            <g>
              <g style="isolation: isolate">
                <path d="M498,166.62l-.22-.12h-.05l-.07,0-.12,0-.13,0-.08,0h-.05l-.27,0h-.64l-.12,0-.18,0-.11,0-.23.07h0l-.28.1-.12.05-.11,0-.42.21a5.08,5.08,0,0,0-.43.27l-.14.1-.29.21-.16.13-.26.22-.15.14-.1.09-.1.1-.31.32-.09.1-.08.1-.18.21-.12.14-.09.12-.13.17-.09.12c0,.06-.09.13-.14.2l-.09.13,0,.06-.24.38v0a.56.56,0,0,0-.05.08l-.16.27-.06.13a.91.91,0,0,0-.07.14l-.07.12-.15.32,0,.06h0c-.06.14-.12.27-.17.41l0,.07-.06.15-.07.21-.06.16-.06.18,0,.12-.06.21a1.55,1.55,0,0,0-.05.23l0,.08a1,1,0,0,1,0,.17c0,.12,0,.24-.06.36a.36.36,0,0,0,0,.1l0,.23a1,1,0,0,1,0,.16c0,.17,0,.33,0,.5a3.18,3.18,0,0,0,1.29,2.94l2.85,1.7a3.19,3.19,0,0,1-1.29-2.93,4.36,4.36,0,0,1,0-.51s0-.11,0-.16,0-.22.05-.33,0-.24.07-.36,0-.16.05-.25l.06-.23a1.92,1.92,0,0,1,.09-.32l.06-.19.12-.36.06-.15a4.4,4.4,0,0,1,.21-.5.08.08,0,0,1,0,0c.07-.15.14-.3.22-.45a.83.83,0,0,1,.07-.13l.22-.41a.56.56,0,0,0,.05-.08c.09-.16.19-.31.29-.46l.09-.13c.08-.11.15-.22.23-.32l.13-.18.21-.25.18-.22.18-.19.3-.32.2-.19a1.07,1.07,0,0,1,.16-.14l.25-.23.16-.12L497,169l.14-.09a4,4,0,0,1,.44-.27l.42-.22.1,0,.4-.16h0l.34-.09.18,0,.25,0,.13,0h.36l.34,0,.08,0,.25.07.08,0a2.64,2.64,0,0,1,.29.15L498,166.63Z" fill="#0a0a2c"/>
                <path d="M497.61,168.62a10,10,0,0,0-4.64,7.81c0,2.89,2,4.08,4.54,2.66a10,10,0,0,0,4.64-7.81C502.17,168.39,500.14,167.19,497.61,168.62Z" fill="#142842"/>
              </g>
              <g style="isolation: isolate">
                <path d="M497.58,171.13a5.24,5.24,0,0,0-2.41,4.06c0,1.5,1.05,2.12,2.36,1.38a5.2,5.2,0,0,0,2.41-4.06C500,171,498.9,170.39,497.58,171.13Z" fill="#fff"/>
              </g>
            </g>
            <g>
              <g style="isolation: isolate">
                <path d="M542.33,161.39l-.23-.12h0l-.08,0-.12,0-.13,0-.08,0h0l-.28,0h-.64l-.11,0-.19,0-.1,0-.23.07h0l-.28.1-.11,0-.11.05a4.11,4.11,0,0,0-.42.21c-.15.08-.3.18-.44.27l-.14.1-.29.21-.15.13-.27.22-.15.14-.1.09-.09.1-.31.32-.1.1-.08.1-.18.21-.12.14-.09.12a1.09,1.09,0,0,1-.13.17s-.06.08-.08.12l-.15.2-.09.13,0,.06c-.08.12-.17.25-.24.38l0,0,0,.08c-.06.09-.11.18-.16.27l-.07.13c0,.05-.05.09-.07.14l-.06.12a3.18,3.18,0,0,0-.16.32.08.08,0,0,1,0,0v0c-.06.13-.12.27-.17.41l0,.07-.06.15c0,.07,0,.14-.07.2l-.05.17-.06.18s0,.08,0,.12,0,.14,0,.21l-.06.23a.24.24,0,0,0,0,.08,1,1,0,0,0,0,.17c0,.12,0,.24-.07.36a.36.36,0,0,0,0,.1,1.79,1.79,0,0,0,0,.23.88.88,0,0,0,0,.16,4.19,4.19,0,0,0,0,.5,3.19,3.19,0,0,0,1.29,2.94l2.86,1.71a3.19,3.19,0,0,1-1.29-2.94c0-.17,0-.34,0-.51s0-.1,0-.16,0-.22,0-.33,0-.24.07-.36,0-.16,0-.25l.06-.23.09-.32.06-.19c0-.12.08-.24.13-.36s0-.1,0-.15l.21-.5,0-.05c.06-.15.14-.3.21-.45l.07-.13c.07-.14.15-.27.23-.41a.59.59,0,0,0,0-.08l.3-.46.09-.13a3.71,3.71,0,0,1,.23-.32l.13-.18.2-.25.18-.22L540,165c.1-.11.2-.22.31-.32l.19-.19.16-.14.26-.23.15-.12.29-.22.14-.09c.15-.1.29-.19.44-.27l.42-.22.11,0,.39-.16h0l.33-.09.19,0,.24,0,.14,0h.36l.33.05.08,0,.25.08.08,0,.3.15-2.86-1.71Z" fill="#0a0a2c"/>
                <path d="M542,163.39a10,10,0,0,0-4.63,7.81c0,2.89,2,4.08,4.53,2.66a10,10,0,0,0,4.64-7.81C546.53,163.16,544.49,162,542,163.39Z" fill="#142842"/>
              </g>
              <g style="isolation: isolate">
                <path d="M541.93,165.9a5.21,5.21,0,0,0-2.4,4.06c0,1.5,1,2.12,2.35,1.38a5.17,5.17,0,0,0,2.41-4.06C544.31,165.78,543.25,165.16,541.93,165.9Z" fill="#fff"/>
              </g>
            </g>
            <polygon points="508.9 177.88 486.43 164.51 488.95 160.54 492.45 143.07 514.85 156.34 511.44 173.81 508.9 177.88" fill="#51b6fd"/>
            <polygon points="508.93 186.07 486.51 172.73 486.43 164.51 508.93 177.78 508.93 186.07" fill="#51b6fd"/>
            <polygon points="511.35 173.81 488.95 160.54 492.36 143.07 514.85 156.34 511.35 173.81" fill="#51b6fd"/>
            <polygon points="490.32 158.65 493.19 144.68 513.71 156.85 510.84 170.93 490.32 158.65" fill="#142842"/>
            <polygon points="507.98 179.8 502.9 176.89 502.9 180.08 507.98 182.99 507.98 179.8" fill="#fff"/>
            <polygon points="493.14 171.05 488.06 168.14 488.06 171.33 493.14 174.25 493.14 171.05" fill="#fff"/>
            <polygon points="514.85 156.34 511.37 173.8 508.93 177.78 508.93 186.07 549.14 160.92 549.14 136.07 514.85 156.34" fill="#4696f5"/>
            <polygon points="515.79 157.62 526.08 151.79 526.08 162.48 513.08 170.72 515.79 157.62" fill="#142842"/>
            <polygon points="526.33 164.97 523.01 167 523.01 166.31 526.33 164.28 526.33 164.97" fill="#fff"/>
            <line x1="527.61" y1="151.04" x2="527.61" y2="170.63" fill="none" stroke="#fff" stroke-linecap="round" stroke-linejoin="round" stroke-width="0.38"/>
            <line x1="528.33" y1="150.32" x2="528.33" y2="169.91" fill="none" stroke="#fff" stroke-linecap="round" stroke-linejoin="round" stroke-width="0.38"/>
            <polygon points="514.85 156.34 492.45 143.07 526.75 122.8 549.14 136.07 514.85 156.34" fill="#51b6fd"/>
          </g>
        </g>
        <g id="car02">
          <g>
            <polygon points="633.91 172.63 629.48 174.86 619.85 171.16 619.24 179.34 632.34 179.34 632.34 184.68 655.95 194.14 655.95 184.31 633.91 172.63" fill="#51b6fd"/>
            <g>
              <g style="isolation: isolate">
                <path d="M612.14,214.62l-.23-.11,0,0-.08,0-.12,0-.13,0-.09,0h0a1.33,1.33,0,0,0-.28,0h-.66l-.12,0-.19,0-.11,0-.24.07h0l-.29.11-.12,0-.11.05-.43.21-.45.28-.14.1-.3.22-.16.13-.27.23-.16.15a.81.81,0,0,0-.1.09l-.1.1-.32.33-.1.11-.08.09-.18.22-.12.14a1.13,1.13,0,0,1-.1.13l-.13.17-.09.12-.15.21-.09.14,0,.05-.24.4,0,0a.56.56,0,0,0,0,.08l-.16.28a.83.83,0,0,1-.07.13l-.07.15-.06.12c-.06.11-.11.22-.16.33l0,.05s0,0,0,0-.12.28-.17.42l0,.08-.06.15-.08.21c0,.05,0,.11,0,.16l-.06.2s0,.07,0,.12,0,.14,0,.21-.05.16-.07.24a.24.24,0,0,1,0,.08l0,.17c0,.13-.05.25-.07.38a.36.36,0,0,1,0,.1c0,.08,0,.15,0,.23a1,1,0,0,0,0,.17,4.53,4.53,0,0,0,0,.52,3.31,3.31,0,0,0,1.33,3l2.94,1.75a3.25,3.25,0,0,1-1.33-3c0-.17,0-.34,0-.52a.88.88,0,0,0,0-.16c0-.11,0-.23.05-.34l.06-.37.06-.26.06-.24.09-.33.06-.19c0-.13.09-.25.13-.38l.06-.15.21-.51,0-.06.22-.45a1,1,0,0,1,.08-.14c.07-.14.15-.28.23-.42a.35.35,0,0,1,0-.08c.09-.16.19-.32.29-.48l.1-.13a3.88,3.88,0,0,1,.23-.33l.14-.18.21-.27.19-.22.18-.2.31-.32.21-.2.15-.15.27-.23.17-.13.29-.21.14-.1c.15-.1.3-.2.45-.28l.44-.22.11-.05.4-.16h0a2.14,2.14,0,0,1,.34-.09l.19,0,.25,0H614a2,2,0,0,1,.35.05l.08,0,.26.07.08,0,.3.15-2.93-1.75Z" fill="#0a0a2c"/>
                <path d="M611.76,216.68a10.28,10.28,0,0,0-4.76,8c0,3,2.06,4.2,4.66,2.74a10.31,10.31,0,0,0,4.77-8C616.46,216.44,614.37,215.22,611.76,216.68Z" fill="#142842"/>
              </g>
              <g style="isolation: isolate">
                <path d="M611.74,219.27a5.35,5.35,0,0,0-2.48,4.17c0,1.54,1.07,2.18,2.42,1.42a5.33,5.33,0,0,0,2.48-4.17C614.18,219.14,613.09,218.5,611.74,219.27Z" fill="#fff"/>
              </g>
            </g>
            <g>
              <g style="isolation: isolate">
                <path d="M648,195.08l-.24-.12,0,0-.08,0-.12,0-.14,0-.08,0h0l-.28,0h-.66l-.12,0-.19,0-.1,0-.24.07h0l-.29.1-.11.05-.11,0-.44.22c-.15.08-.3.18-.45.28l-.14.1-.3.22-.16.13-.26.23-.17.14-.09.09-.11.11-.31.32-.1.11-.08.09-.19.23-.12.14-.09.12-.14.18a.94.94,0,0,1-.09.12l-.14.21a1.13,1.13,0,0,1-.1.13l0,.06c-.09.13-.17.26-.25.39v0l-.05.08-.16.28-.08.14-.07.14-.06.12c-.06.11-.11.22-.16.33a.14.14,0,0,0,0,.06h0l-.18.42,0,.08-.06.16c0,.06-.05.13-.07.2a1.09,1.09,0,0,0,0,.17,1.46,1.46,0,0,0-.07.19l0,.12a1.66,1.66,0,0,0-.06.21l-.06.24a.29.29,0,0,0,0,.09c0,.05,0,.11,0,.17l-.06.37a.36.36,0,0,0,0,.1l0,.24c0,.05,0,.11,0,.16s0,.35,0,.52a3.25,3.25,0,0,0,1.33,3l2.93,1.76a3.29,3.29,0,0,1-1.33-3,4.36,4.36,0,0,1,0-.51c0-.06,0-.11,0-.17s0-.22.05-.34,0-.24.07-.37a2.21,2.21,0,0,1,.05-.25l.06-.24c0-.11.06-.22.1-.34l.06-.19c0-.12.08-.25.13-.37a1,1,0,0,0,.05-.16c.07-.17.14-.34.22-.51s0,0,0-.05.15-.31.23-.46l.07-.14c.07-.14.15-.28.23-.41l0-.09c.09-.16.2-.32.3-.47l.09-.14.24-.33.13-.18.21-.26.19-.22.18-.2c.11-.12.21-.23.32-.33s.13-.13.2-.2l.16-.14.27-.23.16-.13.29-.22.15-.1.45-.28.43-.22.11,0a3.47,3.47,0,0,1,.41-.16h0l.35-.09.19,0a1.9,1.9,0,0,1,.25,0l.14,0h.37l.34,0,.08,0,.26.08.08,0a1.68,1.68,0,0,1,.3.15L648,195.09Z" fill="#0a0a2c"/>
                <path d="M647.63,197.13a10.29,10.29,0,0,0-4.77,8c0,3,2.06,4.2,4.67,2.74a10.28,10.28,0,0,0,4.76-8C652.32,196.9,650.23,195.67,647.63,197.13Z" fill="#142842"/>
              </g>
              <g style="isolation: isolate">
                <path d="M647.6,199.72a5.34,5.34,0,0,0-2.47,4.17c0,1.55,1.07,2.18,2.42,1.42a5.34,5.34,0,0,0,2.48-4.17C650,199.6,649,199,647.6,199.72Z" fill="#fff"/>
              </g>
            </g>
            <polygon points="651.91 186.57 641.4 183.23 619.24 195.19 611.96 209.71 596.97 221.21 596.97 228.07 655.95 194.14 655.95 184.31 651.91 186.57" fill="#4696f5"/>
            <polygon points="619.24 195.26 596.89 183.91 619.65 171.12 641.4 183.29 619.24 195.26" fill="#51b6fd"/>
            <polygon points="574.14 214.81 596.97 228.13 596.97 221.27 574.14 207.96 574.14 214.81" fill="#51b6fd"/>
            <polygon points="574.14 207.96 596.97 221.27 611.96 209.77 589.29 196.91 574.14 207.96" fill="#51b6fd"/>
            <polygon points="611.95 209.82 589.35 197.03 596.92 183.94 619.24 195.26 611.95 209.82" fill="#51b6fd"/>
            <path d="M591.44,197.24a.77.77,0,0,1-.29-1.07l5.77-9.95a.86.86,0,0,1,1.1-.33l19.13,9.57a.8.8,0,0,1,.36,1.06l-5.66,11.34a.74.74,0,0,1-1,.32Z" fill="#142842"/>
            <polygon points="591.17 222.32 579.32 215.53 579.32 213.77 591.17 220.56 591.17 222.32" fill="#142842"/>
            <polygon points="579.81 213.04 574.59 210.05 574.59 213.34 579.81 216.33 579.81 213.04" fill="#fff"/>
            <polygon points="595.35 222.41 590.12 219.41 590.12 222.7 595.35 225.69 595.35 222.41" fill="#fff"/>
            <path d="M619.25,197.76a2.94,2.94,0,0,1,1-1.08L630.83,191a.43.43,0,0,1,.7.41v5.94a1.55,1.55,0,0,1-.68,1.19l-16.45,9.84c-.38.22-.52.09-.33-.3Z" fill="#142842"/>
            <path d="M634,189.47c-.38.2-.7.38-.7.39s0,.38,0,.81v5.56c0,.43.3.61.68.39l14.34-8.42c.38-.22.35-.51-.07-.63l-6.12-1.85a2.17,2.17,0,0,0-1.44.15Z" fill="#142842"/>
          </g>
        </g>
        <g id="car03">
          <g>
            <polygon points="613.91 83.63 609.48 85.86 599.85 82.16 599.24 90.34 612.34 90.34 612.34 95.68 635.95 105.14 635.95 95.31 613.91 83.63" fill="#51b6fd"/>
            <g>
              <g style="isolation: isolate">
                <path d="M592.14,125.62l-.23-.11,0,0-.08,0-.12,0-.13,0-.09,0h0a1.33,1.33,0,0,0-.28,0h-.66l-.12,0-.19,0-.11,0-.24.07s0,0,0,0l-.29.11-.12,0-.11,0-.43.21-.45.28-.14.1-.3.22-.16.13-.27.23-.16.15a.81.81,0,0,0-.1.09l-.1.1-.32.33-.1.11-.08.09-.18.22-.12.14a1.13,1.13,0,0,1-.1.13l-.13.17-.09.12-.15.21-.09.14,0,.05-.24.4,0,0a.56.56,0,0,0,0,.08l-.16.28a.83.83,0,0,1-.07.13l-.07.15-.06.12c-.06.11-.11.22-.16.33l0,.05s0,0,0,0-.12.28-.17.42l0,.08-.06.15-.08.21c0,.05,0,.11,0,.16l-.06.2s0,.07,0,.12,0,.14,0,.21-.05.16-.07.24a.24.24,0,0,1,0,.08l0,.17c0,.13-.05.25-.07.38a.36.36,0,0,1,0,.1c0,.08,0,.15,0,.23a1,1,0,0,0,0,.17,4.53,4.53,0,0,0,0,.52,3.31,3.31,0,0,0,1.33,3l2.94,1.75a3.25,3.25,0,0,1-1.33-3c0-.17,0-.34,0-.52a.88.88,0,0,0,0-.16c0-.11,0-.23.05-.34l.06-.37.06-.26.06-.24.09-.33.06-.19c0-.13.09-.25.13-.38l.06-.15.21-.51,0-.06.22-.45a1,1,0,0,1,.08-.14c.07-.14.15-.28.23-.42a.35.35,0,0,1,0-.08c.09-.16.19-.32.29-.48l.1-.13a3.88,3.88,0,0,1,.23-.33l.14-.18.21-.27.19-.22.18-.2.31-.32.21-.2.15-.15.27-.23.17-.13.29-.21.14-.1c.15-.1.3-.2.45-.28l.44-.22.11,0,.4-.16h0a2.14,2.14,0,0,1,.34-.09l.19,0,.25,0H594a2,2,0,0,1,.35.05l.08,0,.26.07.08,0c.1.05.2.09.3.15l-2.93-1.75Z" fill="#0a0a2c"/>
                <path d="M591.76,127.68a10.28,10.28,0,0,0-4.76,8c0,3,2.06,4.2,4.66,2.74a10.31,10.31,0,0,0,4.77-8C596.46,127.44,594.37,126.22,591.76,127.68Z" fill="#142842"/>
              </g>
              <g style="isolation: isolate">
                <path d="M591.74,130.27a5.35,5.35,0,0,0-2.48,4.17c0,1.54,1.07,2.18,2.42,1.42a5.33,5.33,0,0,0,2.48-4.17C594.18,130.14,593.09,129.5,591.74,130.27Z" fill="#fff"/>
              </g>
            </g>
            <g>
              <g style="isolation: isolate">
                <path d="M628,106.08l-.24-.12,0,0-.08,0-.12,0-.14,0-.08,0h0l-.28,0h-.66l-.12,0-.19,0-.1,0-.24.07h0l-.29.1-.11,0-.11,0-.44.22c-.15.08-.3.18-.45.28l-.14.1-.3.22-.16.13-.26.23-.17.14-.09.09-.11.11-.31.32-.1.11-.08.09-.19.23-.12.14-.09.12-.14.18a.94.94,0,0,1-.09.12l-.14.21a1.13,1.13,0,0,1-.1.13l0,.06c-.09.13-.17.26-.25.39s0,0,0,0l-.05.08-.16.28-.08.14-.07.14-.06.12c-.06.11-.11.22-.16.33a.14.14,0,0,0,0,.06h0l-.18.42,0,.08-.06.16c0,.06-.05.13-.07.2a1.09,1.09,0,0,0,0,.17,1.46,1.46,0,0,0-.07.19l0,.12a1.66,1.66,0,0,0-.06.21l-.06.24a.29.29,0,0,0,0,.09c0,.05,0,.11,0,.17l-.06.37a.36.36,0,0,0,0,.1l0,.24s0,.11,0,.16,0,.35,0,.52a3.25,3.25,0,0,0,1.33,3l2.93,1.76a3.29,3.29,0,0,1-1.33-3,4.36,4.36,0,0,1,0-.51c0-.06,0-.11,0-.17s0-.22.05-.34,0-.24.07-.37a2.21,2.21,0,0,1,.05-.25l.06-.24c0-.11.06-.22.1-.34l.06-.19c0-.12.08-.25.13-.37a1,1,0,0,0,.05-.16c.07-.17.14-.34.22-.51,0,0,0,0,0,0s.15-.31.23-.46,0-.09.07-.14.15-.28.23-.41l0-.09c.09-.16.2-.32.3-.47l.09-.14.24-.33.13-.18.21-.26.19-.22.18-.2c.11-.12.21-.23.32-.33s.13-.13.2-.2l.16-.14.27-.23.16-.13.29-.22.15-.1.45-.28.43-.22.11,0a3.47,3.47,0,0,1,.41-.16h0l.35-.09.19,0a1.9,1.9,0,0,1,.25,0l.14,0h.37l.34,0,.08,0,.26.08.08,0a1.68,1.68,0,0,1,.3.15L628,106.09Z" fill="#0a0a2c"/>
                <path d="M627.63,108.13a10.29,10.29,0,0,0-4.77,8c0,3,2.06,4.2,4.67,2.74a10.28,10.28,0,0,0,4.76-8C632.32,107.9,630.23,106.67,627.63,108.13Z" fill="#142842"/>
              </g>
              <g style="isolation: isolate">
                <path d="M627.6,110.72a5.34,5.34,0,0,0-2.47,4.17c0,1.55,1.07,2.18,2.42,1.42a5.34,5.34,0,0,0,2.48-4.17C630,110.6,629,110,627.6,110.72Z" fill="#fff"/>
              </g>
            </g>
            <polygon points="631.91 97.57 621.4 94.23 599.24 106.19 591.96 120.71 576.97 132.21 576.97 139.07 635.95 105.14 635.95 95.31 631.91 97.57" fill="#4696f5"/>
            <polygon points="599.24 106.26 576.89 94.91 599.65 82.12 621.4 94.29 599.24 106.26" fill="#51b6fd"/>
            <polygon points="554.14 125.81 576.97 139.13 576.97 132.27 554.14 118.95 554.14 125.81" fill="#51b6fd"/>
            <polygon points="554.14 118.95 576.97 132.27 591.96 120.77 569.29 107.91 554.14 118.95" fill="#51b6fd"/>
            <polygon points="591.95 120.83 569.35 108.03 576.92 94.94 599.24 106.26 591.95 120.83" fill="#51b6fd"/>
            <path d="M571.44,108.24a.77.77,0,0,1-.29-1.07l5.77-10a.86.86,0,0,1,1.1-.33l19.13,9.57a.8.8,0,0,1,.36,1.06l-5.66,11.34a.74.74,0,0,1-1,.32Z" fill="#142842"/>
            <polygon points="571.17 133.32 559.32 126.53 559.32 124.77 571.17 131.56 571.17 133.32" fill="#142842"/>
            <polygon points="559.81 124.04 554.59 121.05 554.59 124.33 559.81 127.33 559.81 124.04" fill="#fff"/>
            <polygon points="575.35 133.41 570.12 130.41 570.12 133.7 575.35 136.69 575.35 133.41" fill="#fff"/>
            <path d="M599.25,108.76a2.94,2.94,0,0,1,1-1.08L610.83,102a.43.43,0,0,1,.7.41v5.94a1.55,1.55,0,0,1-.68,1.19l-16.45,9.84c-.38.22-.52.09-.33-.3Z" fill="#142842"/>
            <path d="M614,100.47c-.38.2-.7.38-.7.39s0,.38,0,.81v5.56c0,.43.3.61.68.39l14.34-8.42c.38-.22.35-.51-.07-.63l-6.12-1.85a2.17,2.17,0,0,0-1.44.15Z" fill="#142842"/>
          </g>
        </g>
        <line id="bezier01" x1="521" y1="157.65" x2="299" y2="296.65" fill="#142842"/>
        <line id="bezier02" x1="619" y1="190.65" x2="459" y2="314.65" fill="#142842"/>
        <line id="bezier03" x1="599" y1="102.65" x2="188" y2="375.65" fill="#142842"/>
        <rect id="wrapper" width="665.9" height="665.9" fill="none"/>
      </g>
    </g>
  </g>
</svg>
