<svg xmlns="http://www.w3.org/2000/svg" xmlns:xlink="http://www.w3.org/1999/xlink" viewBox="0 0 9079 1548"><defs><linearGradient id="Degradado_sin_nombre_4" x1="1920" y1="1080" x2="1920" gradientUnits="userSpaceOnUse"><stop offset="0" stop-color="#0090c7"/><stop offset="1" stop-color="#42b3e5"/></linearGradient><linearGradient id="New_Gradient_Swatch_copy_4" x1="1917.77" y1="1080" x2="1917.77" gradientUnits="userSpaceOnUse"><stop offset="0.03" stop-color="#fff"/><stop offset="0.21" stop-color="#d5e8f0"/><stop offset="0.35" stop-color="#bad9e7"/><stop offset="0.44" stop-color="#b0d4e3"/><stop offset="0.52" stop-color="#a7d1e3"/><stop offset="0.64" stop-color="#8dc9e3"/><stop offset="0.8" stop-color="#64bde2"/><stop offset="0.99" stop-color="#2bace2"/><stop offset="1" stop-color="#29abe2"/></linearGradient><linearGradient id="New_Gradient_Swatch_copy_4-2" x1="3729.71" y1="551.69" x2="3729.71" y2="1080" xlink:href="#New_Gradient_Swatch_copy_4"/></defs><title>clouds</title><g id="Layer_2" data-name="Layer 2"><g id="clouds"><polygon id="background" points="3839 0 3840 1080 0 1080 0 0 3839 0" fill="url(#Degradado_sin_nombre_4)"/><rect id="background02" width="3835.55" height="1080" fill="url(#New_Gradient_Swatch_copy_4)"/><path d="M3839,1V1079H1V1H3839m1-1H0V1080H3840V0Z" fill="#00e7ff"/><path id="bgC03" d="M1862.13,461.22a232.85,232.85,0,0,0-38.27,6.61c-18.43,4.82-37.94,13.55-45.72,30.94-4.26,9.52-7.34,23.14-17.76,23.33-5.64.1-10.18-4.34-14.28-8.23-44.87-42.53-121.38-48.45-170.45-9.73a9.63,9.63,0,0,1-14.51-3.25c-36-70.62-114.8-119.64-206.26-119.64-118.57,0-215.87,82.35-226.26,187.41a9.67,9.67,0,0,1-10.68,8.63,110.62,110.62,0,0,0-12.69-.73c-29.47,0-56,11.37-74.56,29.54a9.65,9.65,0,0,1-15.55-2.72c-24-52-80.66-88.48-146.71-88.48-46.37,0-88.08,18-117.15,46.69a8.59,8.59,0,0,1-14.07-3.25c-23.53-64.25-90.29-110.6-169-110.6-82.87,0-152.51,51.32-172.41,120.81a9.65,9.65,0,0,1-15.62,4.55c-18.22-15.68-42.84-25.3-69.94-25.3a108.12,108.12,0,0,0-61.41,18.73,9.62,9.62,0,0,1-14.46-4.74C217.77,515.65,170,482.3,113.55,482.3A138.15,138.15,0,0,0,67.84,490a9.76,9.76,0,0,1-12.91-9.18c-.51-29.22-16-55.12-39.85-71.68a9.64,9.64,0,0,0-15.08,8V747.9a9.58,9.58,0,0,0,1.66,5.41A9.59,9.59,0,0,0,0,758.73v372.86l1,1.14c13.52,2.36,27.09,4,40.69,5.14l1.14-.65A120.81,120.81,0,0,0,54.94,1084v-.17A9.73,9.73,0,0,1,68.52,1075a116.25,116.25,0,0,0,45,9.08c57,0,105.21-41.43,121.29-98.48a8.51,8.51,0,0,1,13.7-4.22c17.1,14.42,38.47,23,61.66,23,27.35,0,52.16-11.92,70.43-31.31a8.6,8.6,0,0,1,14.67,4c19.25,85.6,89.34,149,172.87,149,78.8,0,145.6-56.48,169.09-134.74a8.49,8.49,0,0,1,14.63-3.08c29,34.5,70.49,56.09,116.54,56.09,66.53,0,123.5-45.08,147.23-109.07a8.49,8.49,0,0,1,14.5-2.54c18.59,22.48,45.34,36.58,75.09,36.58a91,91,0,0,0,13.38-1,8.51,8.51,0,0,1,9.78,7.77c9.16,129.2,107,230.89,226.47,230.89,91.38,0,170.1-59.55,206.17-145.37a9.64,9.64,0,0,1,15.46-3.36c21.21,20,48.72,32.06,78.8,32.06,37.16,0,73.55-19.32,94.11-50.38a13.32,13.32,0,0,1,6.63-5.28c8.83-3,13.86,5.87,16.9,13.19,9.81,23.64,24.94,52.45,54.08,52.88,9.6.14,19-2.22,28.29-4.79,24.12-6.71,48-15,69.91-27q5.48-3,10.79-6.27c25.93-16.1,48.6-38.41,61.33-66.22a35.83,35.83,0,0,1,3.14-5.65c7.94-11.32,16.67-9.26,22.83-1.58,21.63,26.93,59.57,40.26,93.37,40.26,30.92,0,59.14-10.49,80.58-27.75a8.49,8.49,0,0,1,12.95,2.73c35.74,71.29,114.9,120.89,206.9,120.89,118.56,0,215.87-82.35,226.26-187.4a9.67,9.67,0,0,1,10.68-8.64,110.62,110.62,0,0,0,12.69.73c29.47,0,56-11.37,74.56-29.54a9.65,9.65,0,0,1,15.55,2.72c24,52,80.66,88.48,146.71,88.48,45.76,0,87-17.52,116-45.56a9.64,9.64,0,0,1,15.73,3.46c24,63.55,90.34,109.26,168.54,109.26,82.87,0,152.51-51.32,172.41-120.81a9.65,9.65,0,0,1,15.62-4.55c18.22,15.68,42.83,25.3,69.94,25.3a108.12,108.12,0,0,0,61.41-18.73,9.63,9.63,0,0,1,14.46,4.74c16.56,46.14,64.37,79.49,120.78,79.49a136.93,136.93,0,0,0,58.55-13l1.16-.55c-.14.83-.26,1.66-.37,2.49a40.49,40.49,0,0,0,2.12,19l5.26,14.69a41.42,41.42,0,0,0,45.59,26.86q7.66-1.21,15.27-3a77.21,77.21,0,0,0,19-7.79c33.78-20.75,42.19-41.83,59.63-75.62a9.68,9.68,0,0,1,16-1.84c22.17,26.66,57.39,43.9,97.05,43.9,30.48,0,58.33-10.19,79.66-27a9.63,9.63,0,0,1,14.51,3.25c36,70.62,114.8,119.64,206.26,119.64,118.56,0,215.87-82.35,226.26-187.4a9.67,9.67,0,0,1,10.68-8.64,110.62,110.62,0,0,0,12.69.73c29.47,0,56-11.37,74.56-29.54a9.65,9.65,0,0,1,15.55,2.72c24,52,80.66,88.48,146.71,88.48,45.76,0,87-17.52,116-45.56a9.64,9.64,0,0,1,15.73,3.46c24,63.55,90.34,109.26,168.54,109.26,82.87,0,152.51-51.32,172.41-120.81a9.65,9.65,0,0,1,15.62-4.55c18.22,15.68,42.83,25.3,69.94,25.3a108.12,108.12,0,0,0,61.41-18.73,9.63,9.63,0,0,1,14.46,4.74c16.56,46.14,64.37,79.49,120.78,79.49a136.93,136.93,0,0,0,58.55-13l1.16-.55a84.28,84.28,0,0,0,6.82,49.24,37.22,37.22,0,0,0,42,20.31,37.61,37.61,0,0,0,9.89-3.76c38.07-21,68.79-51.95,87.81-88.82a9.6,9.6,0,0,1,15.91-1.75c22.16,26.67,57.39,43.93,97.07,43.93,30.48,0,58.33-10.19,79.66-27a9.63,9.63,0,0,1,14.51,3.25c36,70.62,114.8,119.64,206.26,119.64,118.56,0,215.87-82.35,226.26-187.4a9.67,9.67,0,0,1,10.68-8.64,110.62,110.62,0,0,0,12.69.73c29.47,0,56-11.37,74.56-29.54a9.65,9.65,0,0,1,15.55,2.72c24,52,80.66,88.48,146.71,88.48,46.37,0,88.08-18,117.15-46.69a8.59,8.59,0,0,1,14.07,3.25c23.53,64.25,90.29,110.6,169,110.6,82.87,0,152.51-51.32,172.41-120.81a9.65,9.65,0,0,1,15.62-4.55c18.22,15.68,42.83,25.3,69.94,25.3a108.12,108.12,0,0,0,61.41-18.73,9.63,9.63,0,0,1,14.46,4.74c16.56,46.14,64.37,79.49,120.78,79.49a138.89,138.89,0,0,0,35-4.44q5.47-1.43,10.73-3.26a9.76,9.76,0,0,1,12.91,9.18c.44,25.47,12.29,48.42,31.1,64.86q.19-3.52.2-7.09v-.17A9.73,9.73,0,0,1,7484,1075q4.94,2.07,10.05,3.68a115.93,115.93,0,0,0,35,5.4c57,0,105.21-41.43,121.29-98.48a8.51,8.51,0,0,1,13.7-4.22c17.1,14.42,38.47,23,61.66,23,27.35,0,52.16-11.92,70.43-31.31a8.6,8.6,0,0,1,14.67,4c19.25,85.6,89.34,149,172.87,149,78.8,0,145.6-56.48,169.09-134.74a8.49,8.49,0,0,1,14.63-3.08c29,34.5,70.49,56.09,116.54,56.09,66.53,0,123.5-45.08,147.23-109.07a8.49,8.49,0,0,1,14.5-2.54c18.59,22.48,45.34,36.58,75.09,36.58a91,91,0,0,0,13.38-1,8.51,8.51,0,0,1,9.78,7.77c9.16,129.2,107,230.89,226.47,230.89,91.38,0,170.1-59.55,206.17-145.37a9.64,9.64,0,0,1,15.46-3.36c21.21,20,48.72,32.06,78.8,32.06,2.76,0,5.51-.12,8.26-.33V477.38q-4.09-.25-8.26-.26c-30.48,0-58.33,10.19-79.66,27a9.63,9.63,0,0,1-14.51-3.25c-36-70.62-114.8-119.64-206.26-119.64-118.57,0-215.87,82.35-226.26,187.41a9.67,9.67,0,0,1-10.68,8.63,110.62,110.62,0,0,0-12.69-.73c-29.47,0-56,11.37-74.56,29.54a9.65,9.65,0,0,1-15.55-2.72c-24-52-80.66-88.48-146.71-88.48-46.37,0-88.08,18-117.15,46.69a8.59,8.59,0,0,1-14.07-3.25c-23.53-64.25-90.29-110.6-169-110.6-82.87,0-152.51,51.32-172.41,120.81a9.65,9.65,0,0,1-15.62,4.55c-18.22-15.68-42.84-25.3-69.94-25.3a108.12,108.12,0,0,0-61.41,18.73,9.62,9.62,0,0,1-14.46-4.74c-16.63-46.13-62.63-75.68-110.53-79.14a136.37,136.37,0,0,0-50.46,5.81c-3.63,1.14-7.54,2.44-11.15,1.21-3.33-1.13-5.59-4.17-7.68-7a364.75,364.75,0,0,0-24.39-29.82A144.5,144.5,0,0,0,7431.5,439a70.06,70.06,0,0,0-11.39-7.85c-13.12-7.14-28.57-9-43.47-8.06-42.27,2.62-80.86,27-102.42,63.29a146.49,146.49,0,0,0-15.06,35.15,8.51,8.51,0,0,1-13.7,4.22c-17.1-14.42-38.47-23-61.66-23-27.35,0-52.16,11.92-70.43,31.31a8.6,8.6,0,0,1-14.67-4c-19.25-85.6-89.34-149-172.87-149-78.8,0-145.6,56.48-169.09,134.74a8.49,8.49,0,0,1-14.63,3.08c-29-34.5-70.5-56.09-116.54-56.09-66.53,0-123.5,45.08-147.24,109.07a8.48,8.48,0,0,1-14.49,2.54c-18.59-22.48-45.34-36.58-75.09-36.58a91,91,0,0,0-13.38,1,8.51,8.51,0,0,1-9.78-7.77c-9.16-129.2-107-230.89-226.47-230.89-91.38,0-170.1,59.55-206.17,145.37a9.64,9.64,0,0,1-15.46,3.36c-27.56-25.93-66.14-37.7-103.27-29.16-25.58,5.89-49.19,20.66-65.06,41.66-4.48,5.94-12.84,15.72-20.74,9.1-2.39-2-3.92-4.8-5.45-7.52a244.73,244.73,0,0,0-21.23-31.67c-26.4-33.44-57.89-41-95.74-35.22-23.67,3.61-50.28,19.75-67.25,36.63-10.67,10.6-15.47,25.54-21.28,39.41a234.81,234.81,0,0,1-22.77,41.85c-2.21,3.23-4.61,6.5-8,8.42-8.22,4.6-14.43-3-19.41-8.48A97.62,97.62,0,0,0,5447,497a129.62,129.62,0,0,0-50.3-18,134.81,134.81,0,0,0-19.35-1.41c-30.93,0-59.14,10.49-80.58,27.75a8.49,8.49,0,0,1-12.95-2.73C5248,431.3,5168.88,381.7,5076.88,381.7c-118.57,0-215.87,82.35-226.26,187.4a9.67,9.67,0,0,1-10.68,8.64,110.62,110.62,0,0,0-12.69-.73c-29.47,0-56,11.37-74.56,29.54a9.65,9.65,0,0,1-15.55-2.72c-24-52-80.66-88.48-146.71-88.48-45.76,0-87,17.52-116,45.56a9.64,9.64,0,0,1-15.73-3.46c-24-63.55-90.34-109.26-168.54-109.26-82.87,0-152.51,51.32-172.41,120.81a9.66,9.66,0,0,1-15.63,4.55c-18.21-15.68-42.83-25.3-69.93-25.3A108.09,108.09,0,0,0,3970.79,567a9.62,9.62,0,0,1-14.46-4.74c-16.56-46.14-64.37-79.49-120.78-79.49a136.93,136.93,0,0,0-58.55,13l-1.16.55c.13-.83.26-1.66.37-2.49a40.49,40.49,0,0,0-2.12-19l-5.26-14.69a41.43,41.43,0,0,0-45.59-26.86q-7.66,1.22-15.27,3a77,77,0,0,0-19,7.79c-33.78,20.75-42.19,41.83-59.63,75.62a9.68,9.68,0,0,1-16,1.84c-22.16-26.66-57.38-43.9-97-43.9-30.48,0-58.33,10.19-79.66,27a9.63,9.63,0,0,1-14.51-3.25c-36-70.62-114.8-119.64-206.26-119.64-118.57,0-215.87,82.35-226.26,187.4a9.67,9.67,0,0,1-10.68,8.64,110.62,110.62,0,0,0-12.69-.73c-29.47,0-56,11.37-74.56,29.54a9.65,9.65,0,0,1-15.55-2.72c-24-52-80.66-88.48-146.71-88.48-45.76,0-87,17.52-116,45.56a9.64,9.64,0,0,1-15.73-3.46c-24-63.55-90.34-109.26-168.54-109.26-82.87,0-152.51,51.32-172.41,120.81-4.17,14.56-18.06,2.08-24.51-2.1a109.41,109.41,0,0,0-35.34-14.72c-25-5.65-52.09-2.9-74.94,9-4.9,2.55-10,5.55-15.49,5.25-12.51-.69-17.28-16.06-22.83-27.3-10.23-20.75-31.66-33.32-52.59-43.17C1978.49,471.18,1919.48,456.11,1862.13,461.22Z" fill="#42b3e5" opacity="0.61"/><path id="bgC02" d="M1848.92,729.28c-34.18-.42-68.38,7.68-97.72,25.05-3.19,1.9-8.69,5.92-11.59,2.21-2-2.52-2.81-7.23-4.13-10.21a157.85,157.85,0,0,0-10.37-19.47,179.69,179.69,0,0,0-28.9-35.05c-24-22.74-53.5-39.32-84.69-50A285.73,285.73,0,0,0,1519,626.71c-48.34,0-93.17,11.62-130.13,31.44a3.89,3.89,0,0,1-5.74-3.48c0-.53,0-1.06,0-1.59,0-69.63-72.86-126.07-162.75-126.07s-162.74,56.44-162.74,126.07a98.73,98.73,0,0,0,4.55,29.59,3.89,3.89,0,0,1-5.56,4.56c-26.21-14-58-22.22-92.23-22.22-58.89,0-110.43,24.24-139,60.53a3.89,3.89,0,0,1-5.19.82C801,713.6,776,705.88,748.72,705.88c-24.91,0-47.87,6.43-66.3,17.24a3.86,3.86,0,0,1-4.9-.84c-29-34.36-79.11-57.08-136.08-57.08-75.13,0-138.32,39.5-156.92,93.15a3.88,3.88,0,0,1-6.26,1.59c-42-37.37-103.79-61-172.76-61-89.71,0-167.34,40-204.88,98.2A3.89,3.89,0,0,0,0,799.27v383.82a4,4,0,0,0,.45,1.83c37.48,71,115.21,119.82,205.05,119.82,68.78,0,130.45-28.6,172.41-73.86a3.9,3.9,0,0,1,6.61,1.54c18.59,65.3,81.78,113.38,156.92,113.38,56.88,0,106.91-27.56,135.95-69.27a3.87,3.87,0,0,1,5.43-.93,115.19,115.19,0,0,0,137-3.92,3.88,3.88,0,0,1,5.69.9c28.59,44,80.06,73.45,138.86,73.45a168.75,168.75,0,0,0,92.25-27.06,3.89,3.89,0,0,1,5.87,4.29,144.55,144.55,0,0,0-4.88,37.29c0,84.73,72.86,153.41,162.74,153.41s162.75-68.68,162.75-153.41c0-.87,0-1.73,0-2.59a3.91,3.91,0,0,1,6.05-3.38A240.91,240.91,0,0,0,1631,1365.09c42.69-22.63,78.08-58.75,98.24-102.8,2.84-6.19,7.7-29.21,14.38-30,4.08-.51,14.1,9.7,17.69,12a147.92,147.92,0,0,0,18.29,9.78,151.18,151.18,0,0,0,63.25,13.26,142.91,142.91,0,0,0,19.6-1.55c13.38-2,26.84-6,37.4-14.48,11.48-9.18,11.61-18.69,16.23-31,2.44-6.5,1.23-5.43,9.35-6.46,6.2-.78,12.42-1.17,18.61-2.19,24.68-4.06,48.77-12.69,69.86-26.25a3.89,3.89,0,0,1,5.78,2c27.08,74.54,115.47,129.2,220.36,129.2,48.34,0,93.17-11.62,130.13-31.43a3.88,3.88,0,0,1,5.74,3.47c0,.53,0,1.06,0,1.59,0,69.63,72.86,126.07,162.75,126.07s162.74-56.44,162.74-126.07a99,99,0,0,0-4.54-29.59,3.88,3.88,0,0,1,5.55-4.56c26.21,14,58,22.22,92.23,22.22,58.89,0,110.43-24.24,139-60.53a3.89,3.89,0,0,1,5.19-.82c19.23,12.76,44.2,20.48,71.5,20.48,24.91,0,47.87-6.43,66.3-17.24a3.86,3.86,0,0,1,4.9.84c29,34.36,79.11,57.08,136.08,57.08,75.13,0,138.32-39.5,156.92-93.15a3.88,3.88,0,0,1,6.26-1.59c42,37.37,103.79,61,172.76,61,47.89,0,92.35-11.4,129.08-30.89a3.89,3.89,0,0,1,2.25-.42,209.82,209.82,0,0,0,24.25,1.4c39.47,0,75.64-10.9,103.82-29a3.89,3.89,0,0,1,5.76,2c27.07,74.54,115.47,129.2,220.36,129.2,48.34,0,93.17-11.62,130.13-31.43a3.88,3.88,0,0,1,5.74,3.47c0,.53,0,1.06,0,1.59,0,69.63,72.86,126.07,162.75,126.07s162.74-56.44,162.74-126.07a98.73,98.73,0,0,0-4.55-29.59,3.89,3.89,0,0,1,5.56-4.56c26.21,14,58,22.22,92.23,22.22,58.89,0,110.43-24.24,139-60.53a3.89,3.89,0,0,1,5.19-.82c19.23,12.76,44.19,20.48,71.5,20.48,24.91,0,47.87-6.43,66.3-17.24a3.86,3.86,0,0,1,4.9.84c29,34.36,79.11,57.08,136.08,57.08,75.13,0,138.32-39.5,156.92-93.15a3.88,3.88,0,0,1,6.26-1.59c42,37.37,103.79,61,172.76,61,61.43,0,117.18-18.75,158.29-49.26a3.89,3.89,0,0,1,6.21,3.13v2.22a3.88,3.88,0,0,0,2.64,3.69,203.06,203.06,0,0,0,64.44,10.31c39.47,0,75.64-10.9,103.82-29a3.89,3.89,0,0,1,5.76,2c27.07,74.54,115.47,129.2,220.36,129.2,48.34,0,93.17-11.62,130.13-31.44a3.89,3.89,0,0,1,5.74,3.48c0,.53,0,1.06,0,1.59,0,69.63,72.86,126.07,162.75,126.07s162.74-56.44,162.74-126.07a98.73,98.73,0,0,0-4.55-29.59,3.89,3.89,0,0,1,5.56-4.56c26.21,14,58,22.22,92.23,22.22,58.89,0,110.43-24.24,139-60.53a3.88,3.88,0,0,1,5.18-.82c19.24,12.76,44.2,20.48,71.51,20.48,24.91,0,47.87-6.43,66.3-17.24a3.86,3.86,0,0,1,4.9.84c29,34.36,79.11,57.08,136.08,57.08,75.13,0,138.32-39.5,156.92-93.15a3.88,3.88,0,0,1,6.26-1.59c42,37.37,103.79,61,172.76,61q14.51,0,28.54-1.37c41.31,38.3,97.95,61.93,160.46,61.93,68.78,0,130.45-28.6,172.41-73.86a3.9,3.9,0,0,1,6.61,1.54c18.59,65.3,81.78,113.38,156.92,113.38,56.88,0,106.91-27.56,136-69.27a3.87,3.87,0,0,1,5.43-.93,115.19,115.19,0,0,0,137-3.92,3.88,3.88,0,0,1,5.69.9c28.59,44,80.06,73.45,138.86,73.45a168.75,168.75,0,0,0,92.25-27.06,3.89,3.89,0,0,1,5.87,4.29,144.55,144.55,0,0,0-4.88,37.29c0,84.73,72.86,153.41,162.74,153.41s162.75-68.68,162.75-153.41c0-.87,0-1.73,0-2.59a3.91,3.91,0,0,1,6-3.38A240.91,240.91,0,0,0,8842,1365.09c42.69-22.63,78.08-58.75,98.24-102.8,2.84-6.19,7.7-29.21,14.38-30,4.08-.51,14.1,9.7,17.69,12s7.06,4.21,10.71,6.1V743.83a172.3,172.3,0,0,0-26.9,14,3.89,3.89,0,0,1-5.76-2c-27.08-74.54-115.47-129.2-220.36-129.2-48.34,0-93.17,11.62-130.13,31.44a3.89,3.89,0,0,1-5.74-3.48c0-.53,0-1.06,0-1.59,0-69.63-72.86-126.07-162.75-126.07s-162.74,56.44-162.74,126.07a98.73,98.73,0,0,0,4.55,29.59,3.89,3.89,0,0,1-5.56,4.56c-26.21-14-58-22.22-92.23-22.22-58.89,0-110.43,24.24-139,60.53a3.89,3.89,0,0,1-5.19.82c-19.23-12.76-44.2-20.48-71.5-20.48-24.91,0-47.87,6.43-66.3,17.24a3.86,3.86,0,0,1-4.9-.84c-29-34.36-79.11-57.08-136.08-57.08-75.13,0-138.32,39.5-156.92,93.15a3.88,3.88,0,0,1-6.26,1.59c-42-37.37-103.79-61-172.76-61q-14.51,0-28.55,1.37c-41.3-38.3-97.94-61.93-160.45-61.93-68.78,0-130.45,28.6-172.41,73.86a3.89,3.89,0,0,1-6.6-1.54c-18.59-65.3-81.79-113.38-156.93-113.38-56.88,0-106.91,27.56-135.94,69.27a3.89,3.89,0,0,1-5.44.93,115.19,115.19,0,0,0-137,3.92,3.88,3.88,0,0,1-5.69-.9c-28.59-44-80.06-73.45-138.86-73.45a168.75,168.75,0,0,0-92.25,27.06,3.89,3.89,0,0,1-5.87-4.29,144.55,144.55,0,0,0,4.88-37.29c0-84.73-72.86-153.41-162.74-153.41s-162.75,68.68-162.75,153.41c0,.87,0,1.73,0,2.6a3.9,3.9,0,0,1-6,3.37A240.91,240.91,0,0,0,5802,578c-42.69,22.63-78.08,58.75-98.24,102.8-2.84,6.19-7.7,29.21-14.38,30-4.08.51-14.1-9.7-17.69-11.95a147.92,147.92,0,0,0-18.29-9.78,151.18,151.18,0,0,0-63.25-13.26,142.91,142.91,0,0,0-19.6,1.55c-13.38,2-26.84,6-37.4,14.48-11.48,9.18-11.61,18.69-16.23,31-2.44,6.5-1.23,5.43-9.35,6.46-6.2.78-12.42,1.17-18.61,2.19-24.68,4.06-48.77,12.69-69.86,26.25a3.89,3.89,0,0,1-5.78-2c-27.08-74.54-115.47-129.2-220.36-129.2-48.34,0-93.17,11.62-130.13,31.44a3.89,3.89,0,0,1-5.74-3.48c0-.53,0-1.06,0-1.59,0-69.63-72.86-126.07-162.75-126.07s-162.74,56.44-162.74,126.07a98.73,98.73,0,0,0,4.55,29.59,3.89,3.89,0,0,1-5.56,4.56c-26.21-14-58-22.22-92.23-22.22-58.89,0-110.43,24.24-139,60.53a3.89,3.89,0,0,1-5.19.82c-19.23-12.76-44.2-20.48-71.5-20.48-24.91,0-47.87,6.43-66.3,17.24a3.86,3.86,0,0,1-4.9-.84c-29-34.36-79.11-57.08-136.08-57.08-75.13,0-138.32,39.5-156.92,93.15a3.88,3.88,0,0,1-6.26,1.59c-42-37.37-103.79-61-172.76-61-47.89,0-92.35,11.4-129.08,30.89a3.89,3.89,0,0,1-2.25.42,209.82,209.82,0,0,0-24.25-1.4c-39.47,0-75.64,10.9-103.82,29a3.89,3.89,0,0,1-5.76-2c-27.08-74.54-115.47-129.2-220.36-129.2-48.34,0-93.17,11.62-130.13,31.44a3.89,3.89,0,0,1-5.74-3.48c0-.53,0-1.06,0-1.59,0-69.63-72.86-126.07-162.75-126.07s-162.74,56.44-162.74,126.07a98.73,98.73,0,0,0,4.55,29.59,3.89,3.89,0,0,1-5.56,4.56c-26.21-14-58-22.22-92.23-22.22-58.89,0-110.43,24.24-139,60.53a3.89,3.89,0,0,1-5.19.82c-19.23-12.76-44.2-20.48-71.5-20.48-24.91,0-47.87,6.43-66.3,17.24a3.86,3.86,0,0,1-4.9-.84c-29-34.36-79.11-57.08-136.08-57.08-75.13,0-138.32,39.5-156.92,93.15a3.88,3.88,0,0,1-6.26,1.59c-42-37.37-103.79-61-172.76-61-39.76,0-79.71,7.87-116,24.41a240,240,0,0,0-23.93,12.56q-5.55,3.33-10.91,7c-2.63,1.78-6.91,6.77-10.3,5.34-1.65-.69-2.83-2.15-4.1-3.42-5.71-5.75-13.86-8.24-21.76-10.09A208,208,0,0,0,1848.92,729.28Z" fill="#51b8e6"/><path id="bgC01" d="M9070,974.13v465.45a10.83,10.83,0,0,1-6,9.64c-33.25,17-75.89,27.15-122.4,27.15-59.22,0-112.16-16.52-147.43-42.49a10.81,10.81,0,0,0-14.55,1.59c-21.4,24.35-63.18,40.9-111.26,40.9-69.86,0-126.5-34.92-126.5-78,0-1,0-2,.09-3a10.77,10.77,0,0,0-12.7-11.21,305.21,305.21,0,0,1-53.16,4.61c-55.1,0-104.76-14.3-139.81-37.19a10.74,10.74,0,0,0-13.34,1.17c-22.48,21.66-61.81,36-106.6,36a189.92,189.92,0,0,1-62.2-10.08,10.83,10.83,0,0,0-14.05,7.74c-12.63,50.9-83.91,89.9-170,89.9-71.92,0-133.5-27.22-159.2-65.86a10.72,10.72,0,0,0-15.16-2.71c-35.26,25.41-87.62,41.53-146.1,41.53-86.1,0-158.93-34.91-183.42-83a10.85,10.85,0,0,0-13.05-5.34,190.62,190.62,0,0,1-59.91,9.31q-5.76,0-11.4-.31a10.85,10.85,0,0,0-11.43,9.76,105.13,105.13,0,0,1-25.74,59,103.56,103.56,0,0,1-65.72,34.56,310.3,310.3,0,0,1-36.36,2.12c-59.22,0-112.16-16.52-147.43-42.49a10.81,10.81,0,0,0-14.55,1.59c-21.4,24.35-63.18,40.9-111.26,40.9-69.86,0-126.5-34.92-126.5-78,0-1,0-2,.09-3a10.77,10.77,0,0,0-12.7-11.21,305.21,305.21,0,0,1-53.16,4.61c-55.1,0-104.76-14.3-139.81-37.19a10.74,10.74,0,0,0-13.34,1.17c-22.48,21.66-61.81,36-106.6,36a189.92,189.92,0,0,1-62.2-10.08,10.83,10.83,0,0,0-14.05,7.74c-12.63,50.9-83.91,89.9-170,89.9-71.92,0-133.5-27.22-159.2-65.86a10.72,10.72,0,0,0-15.16-2.71c-35.26,25.41-87.62,41.53-146.1,41.53-86.1,0-158.93-34.91-183.42-83a10.85,10.85,0,0,0-13.05-5.34,190.62,190.62,0,0,1-59.91,9.31c-31.21,0-59.76-7-81.81-18.54a10.78,10.78,0,0,0-14.42,4.35c-13,23.37-43.5,41.73-81.86,49.13a10.78,10.78,0,0,0-8.7,9.12,59.63,59.63,0,0,1-41.26,49.33,292.23,292.23,0,0,1-86.6,12.69c-59.22,0-112.16-16.52-147.43-42.49a10.81,10.81,0,0,0-14.55,1.59c-21.4,24.35-63.18,40.9-111.26,40.9-69.86,0-126.5-34.92-126.5-78,0-1,0-2,.09-3a10.77,10.77,0,0,0-12.7-11.21,305.21,305.21,0,0,1-53.16,4.61c-55.1,0-104.76-14.3-139.81-37.19a10.74,10.74,0,0,0-13.34,1.17c-22.48,21.66-61.81,36-106.6,36a189.92,189.92,0,0,1-62.2-10.08,10.83,10.83,0,0,0-14.05,7.74c-12.63,50.9-83.91,89.9-170,89.9-71.92,0-133.5-27.22-159.2-65.86a10.72,10.72,0,0,0-15.16-2.71c-35.26,25.41-87.62,41.53-146.1,41.53-70.31,0-145.32-22-183.11-83.87a10.81,10.81,0,0,0-12.53-4.69,197.43,197.43,0,0,1-135.52-5.72,39.88,39.88,0,0,0-26.65-1.38c-7.09,2.14-9,5.53-11,10.14a66.83,66.83,0,0,1-3.65,7.73c-8.93,15.41-25.21,25.91-42,30.84-21.82,6.39-45.06,4.94-67.75,3.43-7.2-.48-15.69-2-20.69-6.47a11,11,0,0,0-12.74-1.56c-42.87,23.8-96.26,28-142.33,11.21a10.84,10.84,0,0,0-13.62,5.63c-17.38,38-51.42,67.42-90.11,83.58-42.84,17.9-93.88,22.38-139.43,13.78a230,230,0,0,1-62.52-21c-3.62-1.86-25.3-14-38-23.7a10.79,10.79,0,0,0-15.91,3.31c-26.26,46.09-87.2,78.38-158.21,78.38-86.6,0-158.21-48-170.22-110.51a10.79,10.79,0,0,0-14.8-7.9,159.74,159.74,0,0,1-61.23,11.86c-44.41,0-83.45-17.18-106-43.16a10.8,10.8,0,0,0-14.82-1.4c-35,27.46-84.29,44.56-138.91,44.56a252.38,252.38,0,0,1-53-5.58,10.75,10.75,0,0,0-13,11.37q.24,2.9.24,5.84c0,52.43-56.64,94.92-126.5,94.92-47.78,0-89.35-19.88-110.87-49.22a10.71,10.71,0,0,0-15.79-1.73c-35.27,31.16-87.83,51-146.58,51h-1.48c-70.24-.4-126.88-57.66-126.88-127.89v-8.45a10.77,10.77,0,0,0-11.11-10.78q-6.57.22-13.25.22c-59.93,0-113.42-13.17-148.68-33.79a10.68,10.68,0,0,0-12.58,1.31c-21.16,19.31-63.35,32.48-112,32.48-69.86,0-126.5-27.18-126.5-60.7v-.14a10.85,10.85,0,0,0-12.3-10.94,389.21,389.21,0,0,1-53.47,3.64c-55.73,0-105.91-11.39-141-29.56a10.78,10.78,0,0,0-11.52,1.06c-22.36,17.11-62,28.5-107.21,28.5a238.8,238.8,0,0,1-63.41-8.18,10.72,10.72,0,0,0-13,6.93C972.8,1371,901.8,1401.1,816.13,1401.1c-72.18,0-134-21.34-159.48-51.59a10.81,10.81,0,0,0-13.66-2.46c-35.27,20.17-88.16,33-147.32,33-86.15,0-159-27.19-183.46-64.65a10.75,10.75,0,0,0-11.79-4.41,240.47,240.47,0,0,1-61.13,7.55c-31.8,0-60.84-5.64-83.06-14.94a10.74,10.74,0,0,0-13,3.63c-16.9,24-64.16,41.26-119.86,41.26q-6.69,0-13.19-.34A10.78,10.78,0,0,1,0,1337.37V871.92a10.83,10.83,0,0,1,6-9.64c33.25-17,75.89-27.15,122.4-27.15,59.22,0,112.16,16.52,147.43,42.49A10.81,10.81,0,0,0,290.34,876c21.4-24.35,63.18-40.9,111.26-40.9,69.86,0,126.5,34.92,126.5,78,0,1,0,2-.09,3a10.77,10.77,0,0,0,12.7,11.21,305.21,305.21,0,0,1,53.16-4.61c55.1,0,104.76,14.3,139.81,37.19A10.74,10.74,0,0,0,747,958.71c22.48-21.66,61.81-36,106.6-36a189.92,189.92,0,0,1,62.2,10.08,10.83,10.83,0,0,0,14-7.74c12.63-50.9,83.91-89.9,170-89.9,71.92,0,133.5,27.22,159.2,65.86a10.72,10.72,0,0,0,15.16,2.71c35.26-25.41,87.62-41.53,146.1-41.53,86.1,0,158.93,34.91,183.42,83a10.85,10.85,0,0,0,13,5.34,190.62,190.62,0,0,1,59.91-9.31q5.76,0,11.4.31a10.85,10.85,0,0,0,11.43-9.76,105.13,105.13,0,0,1,25.74-59A103.56,103.56,0,0,1,1791,838.25a310.3,310.3,0,0,1,36.36-2.12c59.22,0,112.16,16.52,147.43,42.49a10.81,10.81,0,0,0,14.55-1.59c21.4-24.35,63.18-40.9,111.26-40.9,69.86,0,126.5,34.92,126.5,78,0,1,0,2-.09,3a10.77,10.77,0,0,0,12.7,11.21,305.21,305.21,0,0,1,53.16-4.61c55.1,0,104.76,14.3,139.81,37.19a10.74,10.74,0,0,0,13.34-1.17c22.48-21.66,61.81-36,106.6-36a189.92,189.92,0,0,1,62.2,10.08,10.83,10.83,0,0,0,14-7.74c12.63-50.9,83.91-89.9,170-89.9,71.92,0,133.5,27.22,159.2,65.86a10.72,10.72,0,0,0,15.16,2.71c35.26-25.41,87.62-41.53,146.1-41.53,86.1,0,158.93,34.91,183.42,83a10.85,10.85,0,0,0,13.05,5.34,190.62,190.62,0,0,1,59.91-9.31c31.21,0,59.76,7,81.81,18.54a10.78,10.78,0,0,0,14.42-4.35c13-23.37,43.5-41.73,81.86-49.13a10.78,10.78,0,0,0,8.7-9.12,59.61,59.61,0,0,1,41.27-49.33c26-8.12,55.43-12.69,86.59-12.69,59.22,0,112.16,16.52,147.43,42.49a10.81,10.81,0,0,0,14.55-1.59c21.4-24.35,63.18-40.9,111.26-40.9,69.86,0,126.5,34.92,126.5,78,0,1,0,2-.09,3a10.77,10.77,0,0,0,12.7,11.21,305.21,305.21,0,0,1,53.16-4.61c55.1,0,104.76,14.3,139.81,37.19a10.74,10.74,0,0,0,13.34-1.17c22.48-21.66,61.81-36,106.6-36a189.92,189.92,0,0,1,62.2,10.08,10.83,10.83,0,0,0,14.05-7.74c12.63-50.9,83.91-89.9,170-89.9,71.92,0,133.5,27.22,159.2,65.86a10.72,10.72,0,0,0,15.16,2.71c35.26-25.41,87.62-41.53,146.1-41.53,70.31,0,145.32,22,183.11,83.87a10.81,10.81,0,0,0,12.53,4.69,197.43,197.43,0,0,1,135.52,5.72,39.88,39.88,0,0,0,26.65,1.38c7.09-2.14,9-5.53,11-10.14a66.83,66.83,0,0,1,3.65-7.73c8.93-15.41,25.21-25.91,42-30.84,21.82-6.39,45.06-4.94,67.75-3.43,7.2.48,15.69,2,20.69,6.47a11,11,0,0,0,12.74,1.56c42.87-23.8,96.26-28,142.33-11.21a10.84,10.84,0,0,0,13.62-5.63c17.38-38,51.42-67.42,90.11-83.58,42.84-17.9,93.88-22.38,139.43-13.78a230,230,0,0,1,62.52,21c3.63,1.86,25.3,14,38,23.7a10.79,10.79,0,0,0,15.91-3.32c26.26-46.08,87.2-78.37,158.21-78.37,86.6,0,158.21,48,170.22,110.51a10.79,10.79,0,0,0,14.8,7.9,159.74,159.74,0,0,1,61.23-11.86c44.41,0,83.45,17.18,106,43.16a10.8,10.8,0,0,0,14.82,1.4c35-27.46,84.29-44.56,138.91-44.56a252.38,252.38,0,0,1,53,5.58,10.75,10.75,0,0,0,13-11.37q-.24-2.89-.24-5.84c0-52.43,56.64-94.92,126.5-94.92,47.78,0,89.35,19.88,110.87,49.22a10.71,10.71,0,0,0,15.79,1.73c35.27-31.16,87.83-51,146.58-51h1.48c70.24.4,126.88,57.66,126.88,127.9v8.44a10.77,10.77,0,0,0,11.11,10.78q6.57-.23,13.25-.22c59.93,0,113.42,13.17,148.68,33.79a10.68,10.68,0,0,0,12.58-1.31c21.16-19.31,63.35-32.48,112-32.48,69.86,0,126.5,27.18,126.5,60.7v.14a10.85,10.85,0,0,0,12.3,10.94,389.21,389.21,0,0,1,53.47-3.64c55.73,0,105.91,11.39,141,29.56a10.78,10.78,0,0,0,11.52-1.06c22.36-17.11,62-28.5,107.21-28.5a238.8,238.8,0,0,1,63.41,8.18,10.72,10.72,0,0,0,13-6.93c13.14-39.33,84.14-69.39,169.81-69.39,72.18,0,133.95,21.34,159.48,51.59a10.81,10.81,0,0,0,13.66,2.46c35.27-20.17,88.16-33,147.32-33,86.15,0,159,27.19,183.46,64.65a10.75,10.75,0,0,0,11.79,4.41,240.47,240.47,0,0,1,61.13-7.55c31.8,0,60.84,5.64,83.06,14.94a10.74,10.74,0,0,0,13-3.63c16.9-24,64.16-41.26,119.86-41.26q6.69,0,13.19.34A10.78,10.78,0,0,1,9070,974.13Z" fill="#72c2ea"/><path id="bgC05" d="M3669.07,519.22c7.39-7.51,15.48-14.38,24.75-19.45,13-7.13,27.68-10.36,42.22-12.57,15.42-2.34,30.67-3.25,46.19-1.18a149.79,149.79,0,0,1,24.87,5.48c42.31,13.16,74.53,46,83.36,86.49,18.41-16.79,43.9-27.19,72.08-27.19,33.55,0,63.3,14.75,81.8,37.48,12.78-77.83,86.77-137.54,176.16-137.54,84.65,0,142,49.47,173.89,123.55,37.16-42.26,96.63-63.67,152.2-54.8S4652,567.22,4674.16,619c24.73-30.07,66.47-45.1,104.7-37.71,10.28-97.69,95.1-180.8,192.37-194.48,69.1-9.72,140.35,14.48,193.12,59.21a257.26,257.26,0,0,1,54.89,65.23c-4.67-7.88,58.39-23.07,64-24.06,26.42-4.71,54.31-4.54,79.13,6.75,37.47,17,60.09,54.81,87.87,85.18a20.84,20.84,0,0,0,6.33,5.25c8.16,3.79,17-3.25,23.32-9.63,29.11-29.26,61.19-56.64,99.09-73a177.16,177.16,0,0,1,17.26-6.41c41.28-12.89,84.84-9.43,123.72,11.7a160,160,0,0,1,36.21,26.72c2.83,2.79,31.11,37,28.21,38.67,46.28-26.68,108.7-22,150.44,11.4-14.31-11.43,56.41-85.37,65.27-92.32,30.35-23.81,68-39.51,106.79-40.73,77.64-2.44,153.95,49.73,179.86,122.95,37.1-42,96.4-63.17,151.71-54.17s104.84,47.89,126.7,99.5c25-30.25,67.05-45.32,105.55-37.79-7.68-1.5,19.38-73.24,22.61-79.44a207,207,0,0,1,48.78-61.06c43.12-37.08,99.59-56.47,156.24-56.47,96.26,0,178.48,54.3,211.59,130.94,22.18-21.56,53.77-35.07,88.85-35.07,45.7,0,85.48,22.89,106.23,56.71,25.7-61.81,83.22-109.45,154.46-126.52V1100H0V403.46c32.64,15.33,55,46.22,55,81.84a85,85,0,0,1-1.1,13.52,136.82,136.82,0,0,1,59.71-13.52c61.66,0,113,39.85,124.57,92.69,18.41-16.79,43.9-27.19,72.08-27.19,33.55,0,63.3,14.75,81.8,37.48,12.78-77.83,86.77-137.54,176.16-137.54,84.65,0,142,49.47,173.89,123.55,37.16-42.26,96.63-63.67,152.2-54.8S999.67,567.22,1021.83,619c24.73-30.07,66.47-45.1,104.7-37.71,10.29-97.69,95.1-180.8,192.37-194.48C1388,377,1459.25,401.24,1512,446a257.67,257.67,0,0,1,54.89,65.23c-3.42-5.76,34.26-16.48,38.29-17.73,18.83-5.83,38.54-9.21,58.29-8.75,24,.56,48,6.95,68.06,20.13,32.07,21.1,49.75,56,74.78,83.95a8.59,8.59,0,0,0,.8.79,4.23,4.23,0,0,0,5.62,0c2.19-1.91,5.1-4.51,6.27-5.82,2.78-3.1,5.57-6.18,8.5-9.12,29.11-29.26,61.19-56.64,99.09-73a178.13,178.13,0,0,1,17.26-6.41c41.28-12.89,84.84-9.43,123.72,11.7a160,160,0,0,1,36.21,26.72c2.83,2.79,31.11,37,28.21,38.67,46.28-26.68,108.7-22,150.44,11.4-14.3-11.43,56.41-85.37,65.27-92.32,30.35-23.81,68-39.51,106.79-40.73,77.64-2.44,153.95,49.73,179.86,122.95,37.1-42,96.4-63.17,151.71-54.17s104.84,47.89,126.7,99.5c25-30.25,67.05-45.32,105.55-37.79-7.67-1.5,19.38-73.24,22.61-79.44a207.12,207.12,0,0,1,48.78-61.06c43.12-37.08,99.59-56.47,156.24-56.47,96.26,0,178.48,54.3,211.59,130.94,22.18-21.56,53.77-35.07,88.85-35.07a132.52,132.52,0,0,1,46.54,8.45q4.44,1.67,8.75,3.66c17.62,8.52,34.62,19.52,45.53,36.15,1.18,1.79,3.15,7.12,5.52,7.52,3.05.51,8.93-8.79,10.88-10.93Q3666.29,522,3669.07,519.22Z" fill="#deedf3"/><path id="bgC04" d="M3927.27,593.8q4.82,3.51,9.18,7.25c18.64-28.91,64.2-49.36,117.48-49.36,69.86,0,126.5,35.12,126.5,78.45a50.64,50.64,0,0,1-3.22,17.56,297.56,297.56,0,0,1,69-8c59.11,0,112,16.55,147.25,42.59,21-25.28,63.47-42.59,112.49-42.59,27.8,0,53.49,5.57,74.36,15,3.1-57.24,78.84-103.06,171.89-103.06,78,0,143.86,32.21,164.94,76.35,35-29.78,91.58-49.16,155.53-49.16,91.21,0,167.53,39.41,187.27,92.25,19.86-8,43.59-12.75,69.1-12.75a188.64,188.64,0,0,1,60.27,9.47,145.08,145.08,0,0,1,24.74,10.91c4.81,2.72,5.37,4.63,8.69.59,4.48-5.45,6.2-14.38,9.51-20.68a128.51,128.51,0,0,1,14.14-21.28A154.68,154.68,0,0,1,5485,603.82c21.21-13.14,44.89-21.64,68.62-29.27,30.12-9.72,60.83-18.23,92.31-21.35a276.33,276.33,0,0,1,95.67,7.46,279.23,279.23,0,0,1,46,16.21q11.11,5.05,21.77,11.09c3.43,1.95,7.46,3.78,10.52,6.28,1.63,1.33,4.15,5.74,6,6.28,2.86.83,8-8,10.48-10.6a95.77,95.77,0,0,1,15.18-12.66c27.05-18.41,61.15-25.57,93.4-25.57,69.87,0,126.5,35.12,126.5,78.45a50.41,50.41,0,0,1-3.22,17.56,297.68,297.68,0,0,1,69-8c59.12,0,112,16.55,147.25,42.59,21-25.28,63.48-42.59,112.5-42.59,27.8,0,53.48,5.57,74.36,15,3.09-57.24,78.84-103.06,171.89-103.06,78,0,143.86,32.21,164.94,76.35,35-29.78,91.58-49.16,155.52-49.16,91.21,0,167.54,39.41,187.27,92.25,19.87-8,43.59-12.75,69.1-12.75,36.16,0,68.75,9.42,91.8,24.51,11.44-36,62.64-63.21,124.09-63.21a203.28,203.28,0,0,1,23.41,1.36v459H0V582.17c34-18.94,79-30.48,128.36-30.48,64.09,0,120.82,19.47,155.76,49.36,18.64-28.91,64.2-49.36,117.48-49.36,69.86,0,126.5,35.12,126.5,78.45a50.64,50.64,0,0,1-3.22,17.56,297.56,297.56,0,0,1,69-8c59.11,0,112,16.55,147.25,42.59,21-25.28,63.47-42.59,112.49-42.59,27.8,0,53.49,5.57,74.36,15,3.1-57.24,78.84-103.06,171.89-103.06,78,0,143.86,32.21,164.94,76.35,35-29.78,91.58-49.16,155.53-49.16,91.21,0,167.53,39.41,187.27,92.25,19.86-8,43.59-12.75,69.1-12.75a188.64,188.64,0,0,1,60.27,9.47,145.08,145.08,0,0,1,24.74,10.91c4.81,2.72,5.37,4.63,8.69.59,4.49-5.45,6.2-14.38,9.52-20.68a127.83,127.83,0,0,1,14.13-21.28,154.68,154.68,0,0,1,38.65-33.57c21.21-13.14,44.9-21.64,68.62-29.27,30.12-9.72,60.83-18.23,92.31-21.35a276.4,276.4,0,0,1,95.68,7.46,279.45,279.45,0,0,1,46,16.21q11.12,5.05,21.77,11.09c3.43,1.95,7.46,3.78,10.52,6.28,1.63,1.33,4.15,5.74,6,6.28,2.85.83,8-8,10.47-10.6a95.77,95.77,0,0,1,15.18-12.66c27.05-18.41,61.15-25.57,93.4-25.57,69.87,0,126.5,35.12,126.5,78.45A50.41,50.41,0,0,1,2416,647.7a297.68,297.68,0,0,1,69-8c59.12,0,112,16.55,147.25,42.59,21-25.28,63.48-42.59,112.5-42.59,27.8,0,53.48,5.57,74.36,15,3.09-57.24,78.84-103.06,171.89-103.06,78,0,143.86,32.21,164.94,76.35,35-29.78,91.58-49.16,155.52-49.16,91.21,0,167.54,39.41,187.27,92.25,19.87-8,43.59-12.75,69.1-12.75a189.28,189.28,0,0,1,60.55,9.57c3,1,5.92,2.1,8.72,3.24,4.25,2.81,9.25,2.81,13.25,6.84-1-1,7.78-19.64,8.71-21.65A138.69,138.69,0,0,1,3671.41,635a136.93,136.93,0,0,1,35-34.49c20.48-13.88,44.33-21.89,68.28-28,26.38-6.68,54-11.25,81.2-7.61A157.36,157.36,0,0,1,3927.27,593.8Z" fill="url(#New_Gradient_Swatch_copy_4-2)"/></g></g></svg>