<svg xmlns="http://www.w3.org/2000/svg" xmlns:xlink="http://www.w3.org/1999/xlink" viewBox="0 0 276.4 232.6"><defs><mask id="mask" x="74.11" y="148.85" width="6" height="29.29" maskUnits="userSpaceOnUse"><g id="personal-1"><line x1="77.11" y1="151.85" x2="77.11" y2="175.13" fill="none" stroke="#fff" stroke-linecap="round" stroke-miterlimit="10" stroke-width="6"/></g></mask><mask id="mask-2" x="80.53" y="148.94" width="6" height="28.93" maskUnits="userSpaceOnUse"><g id="personal-2"><line x1="83.53" y1="151.94" x2="83.53" y2="174.87" fill="none" stroke="#fff" stroke-linecap="round" stroke-miterlimit="10" stroke-width="6"/></g></mask><mask id="mask-3" x="86.2" y="148.94" width="6" height="28.82" maskUnits="userSpaceOnUse"><g id="personal-3"><line x1="89.2" y1="151.94" x2="89.2" y2="174.76" fill="none" stroke="#fff" stroke-linecap="round" stroke-miterlimit="10" stroke-width="6"/></g></mask><mask id="mask-4" x="92.72" y="148.94" width="6" height="29.12" maskUnits="userSpaceOnUse"><g id="personal-4"><line x1="95.72" y1="151.94" x2="95.72" y2="175.06" fill="none" stroke="#fff" stroke-linecap="round" stroke-miterlimit="10" stroke-width="6"/></g></mask><mask id="mask-5" x="98.77" y="148.85" width="6" height="29.34" maskUnits="userSpaceOnUse"><g id="personal-5"><line x1="101.77" y1="151.85" x2="101.77" y2="175.18" fill="none" stroke="#fff" stroke-linecap="round" stroke-miterlimit="10" stroke-width="6"/></g></mask><mask id="mask-6" x="105.2" y="148.85" width="6" height="29.08" maskUnits="userSpaceOnUse"><g id="personal-6"><line x1="108.2" y1="151.85" x2="108.2" y2="174.93" fill="none" stroke="#fff" stroke-linecap="round" stroke-miterlimit="10" stroke-width="6"/></g></mask><mask id="mask-7" x="111.5" y="148.75" width="6.12" height="29.43" maskUnits="userSpaceOnUse"><g id="personal-7"><line x1="114.62" y1="151.75" x2="114.62" y2="175.18" fill="none" stroke="#fff" stroke-linecap="round" stroke-miterlimit="10" stroke-width="6"/></g></mask><mask id="mask-8" x="117.95" y="148.85" width="6" height="29.18" maskUnits="userSpaceOnUse"><g id="personal-8"><line x1="120.95" y1="151.85" x2="120.95" y2="175.02" fill="none" stroke="#fff" stroke-linecap="round" stroke-miterlimit="10" stroke-width="6"/></g></mask><mask id="mask-9" x="85.57" y="169.85" width="6" height="25.63" maskUnits="userSpaceOnUse"><g id="personal-9"><line x1="88.57" y1="172.85" x2="88.57" y2="192.48" fill="none" stroke="#fff" stroke-linecap="round" stroke-miterlimit="10" stroke-width="6"/></g></mask><mask id="mask-10" x="91.8" y="169.92" width="6" height="25.84" maskUnits="userSpaceOnUse"><g id="personal-10"><path d="M94.8,172.92v19.84" fill="none" stroke="#fff" stroke-linecap="round" stroke-linejoin="round" stroke-width="6"/></g></mask><mask id="mask-11" x="98.18" y="170.13" width="6" height="25.49" maskUnits="userSpaceOnUse"><g id="personal-11"><line x1="101.18" y1="173.13" x2="101.18" y2="192.62" fill="none" stroke="#fff" stroke-linecap="round" stroke-miterlimit="10" stroke-width="6"/></g></mask><mask id="mask-12" x="103.92" y="170.13" width="6" height="25.56" maskUnits="userSpaceOnUse"><g id="personal-12"><line x1="106.92" y1="173.13" x2="106.92" y2="192.69" fill="none" stroke="#fff" stroke-linecap="round" stroke-miterlimit="10" stroke-width="6"/></g></mask><mask id="mask-13" x="108.03" y="169.92" width="6" height="25.56" maskUnits="userSpaceOnUse"><g id="personal-13"><line x1="111.03" y1="172.92" x2="111.03" y2="192.48" fill="none" stroke="#fff" stroke-linecap="round" stroke-miterlimit="10" stroke-width="6"/></g></mask><mask id="mask-14" x="111.64" y="170.06" width="6" height="25.14" maskUnits="userSpaceOnUse"><g id="personal-14"><line x1="114.64" y1="173.06" x2="114.64" y2="192.2" fill="none" stroke="#fff" stroke-linecap="round" stroke-miterlimit="10" stroke-width="6"/></g></mask><mask id="mask-15" x="117.53" y="169.99" width="6" height="25.63" maskUnits="userSpaceOnUse"><g id="personal-15"><line x1="120.53" y1="172.99" x2="120.53" y2="192.62" fill="none" stroke="#fff" stroke-linecap="round" stroke-miterlimit="10" stroke-width="6"/></g></mask><mask id="mask-16" x="101.39" y="81.83" width="7" height="32.84" maskUnits="userSpaceOnUse"><g id="visa-1"><path d="M104.89,85.33v25.84" fill="none" stroke="#fff" stroke-linecap="round" stroke-miterlimit="10" stroke-width="7"/></g></mask><mask id="mask-17" x="108.34" y="83.92" width="2.33" height="28.36" maskUnits="userSpaceOnUse"><g id="visa-2"><line x1="109.51" y1="85.09" x2="109.51" y2="111.12" fill="none" stroke="#fff" stroke-linecap="round" stroke-miterlimit="10" stroke-width="2.33"/></g></mask><mask id="mask-18" x="109.94" y="81.97" width="7" height="32.89" maskUnits="userSpaceOnUse"><g id="visa-3"><line x1="113.44" y1="85.47" x2="113.44" y2="111.36" fill="none" stroke="#fff" stroke-linecap="round" stroke-miterlimit="10" stroke-width="7"/></g></mask><mask id="mask-19" x="116.9" y="82.18" width="6.06" height="31.94" maskUnits="userSpaceOnUse"><g id="visa-4"><line x1="119.96" y1="85.18" x2="119.96" y2="111.12" fill="none" stroke="#fff" stroke-linecap="round" stroke-miterlimit="10" stroke-width="6"/></g></mask><mask id="mask-20" x="63.9" y="103.73" width="6.19" height="28.89" maskUnits="userSpaceOnUse"><g id="visa-5"><line x1="67.09" y1="106.73" x2="67.09" y2="129.62" fill="none" stroke="#fff" stroke-linecap="round" stroke-miterlimit="10" stroke-width="6"/></g></mask><mask id="mask-21" x="69.97" y="103.87" width="6.03" height="28.83" maskUnits="userSpaceOnUse"><g id="visa-6"><line x1="72.97" y1="106.87" x2="72.97" y2="129.7" fill="none" stroke="#fff" stroke-linecap="round" stroke-miterlimit="10" stroke-width="6"/></g></mask><mask id="mask-22" x="76.14" y="103.73" width="6" height="28.91" maskUnits="userSpaceOnUse"><g id="visa-7"><line x1="79.14" y1="106.73" x2="79.14" y2="129.63" fill="none" stroke="#fff" stroke-linecap="round" stroke-miterlimit="10" stroke-width="6"/></g></mask><mask id="mask-23" x="82.31" y="103.87" width="6" height="28.82" maskUnits="userSpaceOnUse"><g id="visa-8"><line x1="85.31" y1="106.87" x2="85.31" y2="129.69" fill="none" stroke="#fff" stroke-linecap="round" stroke-miterlimit="10" stroke-width="6"/></g></mask><mask id="mask-24" x="85.92" y="103.73" width="6" height="28.98" maskUnits="userSpaceOnUse"><g id="visa-9"><line x1="88.92" y1="106.73" x2="88.92" y2="129.71" fill="none" stroke="#fff" stroke-linecap="round" stroke-miterlimit="10" stroke-width="6"/></g></mask><mask id="mask-25" x="89.96" y="103.87" width="6" height="28.79" maskUnits="userSpaceOnUse"><g id="visa-10"><line x1="92.96" y1="106.87" x2="92.96" y2="129.66" fill="none" stroke="#fff" stroke-linecap="round" stroke-miterlimit="10" stroke-width="6"/></g></mask><mask id="mask-26" x="96.5" y="103.87" width="6.1" height="28.83" maskUnits="userSpaceOnUse"><g id="visa-11"><line x1="99.55" y1="106.87" x2="99.55" y2="129.7" fill="none" stroke="#fff" stroke-linecap="round" stroke-miterlimit="10" stroke-width="6"/></g></mask><mask id="mask-27" x="102.29" y="103.73" width="6" height="29" maskUnits="userSpaceOnUse"><g id="visa-12"><line x1="105.29" y1="106.73" x2="105.29" y2="129.73" fill="none" stroke="#fff" stroke-linecap="round" stroke-miterlimit="10" stroke-width="6"/></g></mask><mask id="mask-28" x="106.61" y="103.73" width="6" height="28.91" maskUnits="userSpaceOnUse"><g id="visa-13"><line x1="109.61" y1="106.73" x2="109.61" y2="129.63" fill="none" stroke="#fff" stroke-linecap="round" stroke-miterlimit="10" stroke-width="6"/></g></mask><mask id="mask-29" x="110.65" y="103.8" width="6" height="28.68" maskUnits="userSpaceOnUse"><g id="visa-14"><line x1="113.65" y1="106.8" x2="113.65" y2="129.48" fill="none" stroke="#fff" stroke-linecap="round" stroke-miterlimit="10" stroke-width="6"/></g></mask><mask id="mask-30" x="116.96" y="103.59" width="6" height="28.77" maskUnits="userSpaceOnUse"><g id="visa-15"><line x1="119.96" y1="106.59" x2="119.96" y2="129.36" fill="none" stroke="#fff" stroke-linecap="round" stroke-miterlimit="10" stroke-width="6"/></g></mask><mask id="mask-31" x="149.93" y="147.85" width="8" height="31.01" maskUnits="userSpaceOnUse"><g id="payments-1"><line x1="153.93" y1="151.85" x2="153.93" y2="174.86" fill="none" stroke="#fff" stroke-linecap="round" stroke-miterlimit="10" stroke-width="8"/></g></mask><mask id="mask-32" x="156.54" y="147.85" width="8" height="31.35" maskUnits="userSpaceOnUse"><g id="payments-2"><line x1="160.54" y1="151.85" x2="160.54" y2="175.2" fill="none" stroke="#fff" stroke-linecap="round" stroke-miterlimit="10" stroke-width="8"/></g></mask><mask id="mask-33" x="162.59" y="147.85" width="8" height="31.38" maskUnits="userSpaceOnUse"><g id="payments-3"><line x1="166.59" y1="151.85" x2="166.59" y2="175.23" fill="none" stroke="#fff" stroke-linecap="round" stroke-miterlimit="10" stroke-width="8"/></g></mask><mask id="mask-34" x="169.96" y="147.85" width="8" height="31.24" maskUnits="userSpaceOnUse"><g id="payments-4"><line x1="173.96" y1="151.85" x2="173.96" y2="175.09" fill="none" stroke="#fff" stroke-linecap="round" stroke-miterlimit="10" stroke-width="8"/></g></mask><mask id="mask-35" x="177.05" y="147.75" width="8" height="31.46" maskUnits="userSpaceOnUse"><g id="payments-5"><line x1="181.05" y1="151.75" x2="181.05" y2="175.21" fill="none" stroke="#fff" stroke-linecap="round" stroke-miterlimit="10" stroke-width="8"/></g></mask><mask id="mask-36" x="183.38" y="147.75" width="8" height="31.15" maskUnits="userSpaceOnUse"><g id="payments-6"><line x1="187.38" y1="151.75" x2="187.38" y2="174.9" fill="none" stroke="#fff" stroke-linecap="round" stroke-miterlimit="10" stroke-width="8"/></g></mask><mask id="mask-37" x="189.14" y="147.94" width="8" height="31.05" maskUnits="userSpaceOnUse"><g id="payments-7"><line x1="193.14" y1="151.94" x2="193.14" y2="174.99" fill="none" stroke="#fff" stroke-linecap="round" stroke-miterlimit="10" stroke-width="8"/></g></mask><mask id="mask-38" x="195.47" y="147.94" width="8" height="31.38" maskUnits="userSpaceOnUse"><g id="payments-8"><line x1="199.47" y1="151.94" x2="199.47" y2="175.32" fill="none" stroke="#fff" stroke-linecap="round" stroke-miterlimit="10" stroke-width="8"/></g></mask><mask id="mask-39" x="151.47" y="169.61" width="7" height="26.6" maskUnits="userSpaceOnUse"><g id="payments-9"><line x1="154.97" y1="173.11" x2="154.97" y2="192.71" fill="none" stroke="#fff" stroke-linecap="round" stroke-miterlimit="10" stroke-width="7"/></g></mask><mask id="mask-40" x="159.97" y="169.51" width="7" height="26.72" maskUnits="userSpaceOnUse"><g id="payments-10"><line x1="163.47" y1="173.01" x2="163.47" y2="192.74" fill="none" stroke="#fff" stroke-linecap="round" stroke-miterlimit="10" stroke-width="7"/></g></mask><mask id="mask-41" x="166.3" y="169.7" width="7" height="26.24" maskUnits="userSpaceOnUse"><g id="payments-11"><line x1="169.8" y1="173.2" x2="169.8" y2="192.44" fill="none" stroke="#fff" stroke-linecap="round" stroke-miterlimit="10" stroke-width="7"/></g></mask><mask id="mask-42" x="172.92" y="169.51" width="7" height="26.46" maskUnits="userSpaceOnUse"><g id="payments-12"><line x1="176.42" y1="173.01" x2="176.42" y2="192.47" fill="none" stroke="#fff" stroke-linecap="round" stroke-miterlimit="10" stroke-width="7"/></g></mask><mask id="mask-43" x="179.25" y="169.61" width="7" height="26.75" maskUnits="userSpaceOnUse"><g id="payments-13"><line x1="182.75" y1="173.11" x2="182.75" y2="192.86" fill="none" stroke="#fff" stroke-linecap="round" stroke-miterlimit="10" stroke-width="7"/></g></mask><mask id="mask-44" x="185.58" y="169.42" width="7" height="26.55" maskUnits="userSpaceOnUse"><g id="payments-14"><line x1="189.08" y1="172.92" x2="189.08" y2="192.47" fill="none" stroke="#fff" stroke-linecap="round" stroke-miterlimit="10" stroke-width="7"/></g></mask><mask id="mask-45" x="191.53" y="169.7" width="7" height="26.42" maskUnits="userSpaceOnUse"><g id="payments-15"><line x1="195.03" y1="173.2" x2="195.03" y2="192.62" fill="none" stroke="#fff" stroke-linecap="round" stroke-miterlimit="10" stroke-width="7"/></g></mask><mask id="mask-46" x="197.1" y="169.51" width="7" height="26.88" maskUnits="userSpaceOnUse"><g id="payments-16"><line x1="200.6" y1="173.01" x2="200.6" y2="192.9" fill="none" stroke="#fff" stroke-linecap="round" stroke-miterlimit="10" stroke-width="7"/></g></mask><mask id="mask-47" x="150.81" y="84.38" width="7" height="28.37" maskUnits="userSpaceOnUse"><g id="required-1"><line x1="154.31" y1="87.88" x2="154.31" y2="109.24" fill="none" stroke="#fff" stroke-linecap="round" stroke-miterlimit="10" stroke-width="7"/></g></mask><mask id="mask-48" x="157.23" y="84.38" width="7" height="28.27" maskUnits="userSpaceOnUse"><g id="required-2"><line x1="160.73" y1="87.88" x2="160.73" y2="109.15" fill="none" stroke="#fff" stroke-linecap="round" stroke-miterlimit="10" stroke-width="7"/></g></mask><mask id="mask-49" x="163.09" y="84.38" width="7" height="28.19" maskUnits="userSpaceOnUse"><g id="required-3"><line x1="166.59" y1="87.88" x2="166.59" y2="109.07" fill="none" stroke="#fff" stroke-linecap="round" stroke-miterlimit="10" stroke-width="7"/></g></mask><mask id="mask-50" x="169.61" y="84.38" width="7" height="28.54" maskUnits="userSpaceOnUse"><g id="required-4"><line x1="173.11" y1="87.88" x2="173.11" y2="109.42" fill="none" stroke="#fff" stroke-linecap="round" stroke-miterlimit="10" stroke-width="7"/></g></mask><mask id="mask-51" x="173.77" y="84.47" width="7" height="28.3" maskUnits="userSpaceOnUse"><g id="required-5"><line x1="177.27" y1="87.97" x2="177.27" y2="109.27" fill="none" stroke="#fff" stroke-linecap="round" stroke-miterlimit="10" stroke-width="7"/></g></mask><mask id="mask-52" x="177.73" y="84.57" width="7" height="28.48" maskUnits="userSpaceOnUse"><g id="required-6"><line x1="181.23" y1="88.07" x2="181.23" y2="109.54" fill="none" stroke="#fff" stroke-linecap="round" stroke-miterlimit="10" stroke-width="7"/></g></mask><mask id="mask-53" x="184.07" y="84.38" width="7" height="28.08" maskUnits="userSpaceOnUse"><g id="required-7"><line x1="187.57" y1="87.88" x2="187.57" y2="108.96" fill="none" stroke="#fff" stroke-linecap="round" stroke-miterlimit="10" stroke-width="7"/></g></mask><mask id="mask-54" x="189.83" y="84.47" width="7" height="28.38" maskUnits="userSpaceOnUse"><g id="required-8"><line x1="193.33" y1="87.97" x2="193.33" y2="109.35" fill="none" stroke="#fff" stroke-linecap="round" stroke-miterlimit="10" stroke-width="7"/></g></mask><mask id="mask-55" x="150.31" y="103.63" width="8" height="27.28" maskUnits="userSpaceOnUse"><g id="required-9"><line x1="154.31" y1="107.63" x2="154.31" y2="126.91" fill="none" stroke="#fff" stroke-linecap="round" stroke-miterlimit="10" stroke-width="8"/></g></mask><mask id="mask-56" x="156.73" y="103.63" width="8" height="27.38" maskUnits="userSpaceOnUse"><g id="required-10"><line x1="160.73" y1="107.63" x2="160.73" y2="127" fill="none" stroke="#fff" stroke-linecap="round" stroke-miterlimit="10" stroke-width="8"/></g></mask><mask id="mask-57" x="162.87" y="103.72" width="8" height="27.19" maskUnits="userSpaceOnUse"><g id="required-11"><line x1="166.87" y1="107.72" x2="166.87" y2="126.91" fill="none" stroke="#fff" stroke-linecap="round" stroke-miterlimit="10" stroke-width="8"/></g></mask><mask id="mask-58" x="169.2" y="103.81" width="8" height="27.28" maskUnits="userSpaceOnUse"><g id="required-12"><line x1="173.2" y1="107.81" x2="173.2" y2="127.09" fill="none" stroke="#fff" stroke-linecap="round" stroke-miterlimit="10" stroke-width="8"/></g></mask><mask id="mask-59" x="176.38" y="103.72" width="8" height="27.37" maskUnits="userSpaceOnUse"><g id="required-13"><line x1="180.38" y1="107.72" x2="180.38" y2="127.09" fill="none" stroke="#fff" stroke-linecap="round" stroke-miterlimit="10" stroke-width="8"/></g></mask><mask id="mask-60" x="183.57" y="103.72" width="8" height="28.03" maskUnits="userSpaceOnUse"><g id="required-14"><line x1="187.57" y1="107.72" x2="187.57" y2="127.75" fill="none" stroke="#fff" stroke-linecap="round" stroke-miterlimit="10" stroke-width="8"/></g></mask><mask id="mask-61" x="189.52" y="103.72" width="8" height="27.48" maskUnits="userSpaceOnUse"><g id="required-15"><line x1="193.52" y1="107.72" x2="193.52" y2="127.2" fill="none" stroke="#fff" stroke-linecap="round" stroke-miterlimit="10" stroke-width="8"/></g></mask><mask id="mask-62" x="195.85" y="103.63" width="8" height="27.76" maskUnits="userSpaceOnUse"><g id="required-16"><line x1="199.85" y1="107.63" x2="199.85" y2="127.38" fill="none" stroke="#fff" stroke-linecap="round" stroke-miterlimit="10" stroke-width="8"/></g></mask><mask id="mask-63" x="201.42" y="103.72" width="8" height="27.37" maskUnits="userSpaceOnUse"><g id="required-17"><line x1="205.42" y1="107.72" x2="205.42" y2="127.09" fill="none" stroke="#fff" stroke-linecap="round" stroke-miterlimit="10" stroke-width="8"/></g></mask></defs><title>arch-animation</title><g id="Layer_2" data-name="Layer 2"><g id="Layer_1-2" data-name="Layer 1"><path id="thick-2" d="M59.6,217.6a109,109,0,1,1,155.5,0" fill="none" stroke="#bde3f4" stroke-linecap="round" stroke-miterlimit="10" stroke-width="20"/><path id="thin-2" d="M59.6,217.6a109,109,0,1,1,155.5,0" fill="none" stroke="#55c3ea" stroke-linecap="round" stroke-miterlimit="10" stroke-width="5"/><path id="thick" d="M59.6,217.6a109,109,0,1,1,155.5,0" fill="none" stroke="#54c3ea" stroke-linecap="round" stroke-miterlimit="10" stroke-width="30"/><path id="thin" d="M59.6,217.6a109,109,0,1,1,155.5,0" fill="none" stroke="#0097d1" stroke-linecap="round" stroke-miterlimit="10" stroke-width="10"/><g id="inner-shapes"><g id="personal-profile"><g id="personal-profile-b"><path d="M52.5,167.2a85.58,85.58,0,0,0,58.9,58.9,18.24,18.24,0,0,0,22.5-12.6,16.59,16.59,0,0,0,.7-4.9V162.4a18.2,18.2,0,0,0-18.2-18.2H70.1a18.2,18.2,0,0,0-18.2,18.2A20.35,20.35,0,0,0,52.5,167.2Z" fill="#0194c7"/></g><path id="personal-profile-s" d="M52.5,167.2a85.58,85.58,0,0,0,58.9,58.9,18.24,18.24,0,0,0,22.5-12.6,16.59,16.59,0,0,0,.7-4.9V162.4a18.2,18.2,0,0,0-18.2-18.2H70.1a18.2,18.2,0,0,0-18.2,18.2A20.35,20.35,0,0,0,52.5,167.2Z" fill="none" stroke="#0194c7" stroke-miterlimit="10"/><g id="personal-profile-t"><g mask="url(#mask)"><path d="M80.1,161.3v1.3c0,1.8-.8,2.7-2.6,2.7H76.4v4.4H75.1V158.5h2.4C79.4,158.6,80.1,159.6,80.1,161.3Zm-1.2,1.5v-1.5c0-1-.4-1.5-1.3-1.5H76.4v4.5h1.1C78.4,164.3,78.9,163.8,78.9,162.8Z" fill="#bde3f4"/></g><g mask="url(#mask-2)"><path d="M85.1,164.7H82.4v4h3.4v1.1H81.2V158.6h4.6v1.1H82.4v3.8h2.7Z" fill="#bde3f4"/></g><g mask="url(#mask-3)"><path d="M91.9,161.2v.9c0,1.2-.4,2-1.4,2.3,1,.3,1.4,1.1,1.4,2.3v1.7a2.74,2.74,0,0,0,.2,1.3H90.8a3.18,3.18,0,0,1-.2-1.4v-1.8c0-1.3-.6-1.7-1.6-1.7h-.9v4.8H86.8V158.4h2.6A2.44,2.44,0,0,1,91.9,161.2Zm-1.2,1.2v-1.1c0-1-.4-1.5-1.3-1.5H88.2v4.1h.9c1,0,1.6-.3,1.6-1.5Z" fill="#bde3f4"/></g><g mask="url(#mask-4)"><path d="M98.1,161.3v.3H96.9v-.4c0-1-.4-1.6-1.3-1.6s-1.3.6-1.3,1.6c0,2.5,3.8,2.8,3.8,5.9,0,1.7-.8,2.8-2.5,2.8s-2.5-1.1-2.5-2.8v-.6h1.2v.7c0,1,.4,1.6,1.3,1.6s1.3-.6,1.3-1.6c0-2.5-3.8-2.7-3.8-5.9,0-1.7.8-2.8,2.5-2.8S98.1,159.6,98.1,161.3Z" fill="#bde3f4"/></g><g mask="url(#mask-5)"><path d="M101.6,158.5a2.48,2.48,0,0,1,2.6,2.8v5.8c0,1.7-.8,2.8-2.6,2.8s-2.6-1.1-2.6-2.8v-5.8C99.1,159.6,99.9,158.5,101.6,158.5Zm0,10.3c.9,0,1.3-.6,1.3-1.6v-6c0-1-.4-1.6-1.3-1.6s-1.3.6-1.3,1.6v6c0,1,.4,1.6,1.3,1.6Z" fill="#bde3f4"/></g><g mask="url(#mask-6)"><path d="M105.4,169.8V158.6H107l2.6,8.1v-8.1h1.1v11.2h-1.3l-2.9-9.1v9.1Z" fill="#bde3f4"/></g><g mask="url(#mask-7)"><path d="M112.7,169.8h-1.2l2.1-11.2h1.8l2.2,11.2h-1.2l-.4-2.3h-2.8Zm3.1-3.3-1.3-6.5-1.2,6.5Z" fill="#bde3f4"/></g><g mask="url(#mask-8)"><path d="M118.7,158.6H120v10.1h3.2v1.1h-4.4Z" fill="#bde3f4"/></g><g mask="url(#mask-9)"><path d="M91.4,180.5v1.3c0,1.8-.8,2.7-2.6,2.7H87.7v4.4H86.4V177.7h2.4A2.47,2.47,0,0,1,91.4,180.5ZM90.2,182v-1.5c0-1-.4-1.5-1.3-1.5H87.7v4.5h1.1c.9,0,1.4-.5,1.4-1.5Z" fill="#bde3f4"/></g><g mask="url(#mask-10)"><path d="M97.4,180.4v.9c0,1.2-.4,2-1.4,2.3,1,.3,1.4,1.1,1.4,2.3v1.7a2.74,2.74,0,0,0,.2,1.3H96.4a3.18,3.18,0,0,1-.2-1.4v-1.8c0-1.3-.6-1.7-1.6-1.7h-.9v4.8H92.4V177.6h2.5A2.44,2.44,0,0,1,97.4,180.4Zm-1.2,1.2v-1.1c0-1-.4-1.5-1.3-1.5H93.7v4.1h.9c1,0,1.6-.3,1.6-1.5Z" fill="#bde3f4"/></g><g mask="url(#mask-11)"><path d="M101.2,177.7a2.48,2.48,0,0,1,2.6,2.8v5.8c0,1.7-.8,2.8-2.6,2.8s-2.6-1.1-2.6-2.8v-5.8A2.48,2.48,0,0,1,101.2,177.7Zm0,10.3c.9,0,1.3-.6,1.3-1.6v-5.9c0-1-.4-1.6-1.3-1.6s-1.3.6-1.3,1.6v5.9C99.8,187.4,100.3,188,101.2,188Z" fill="#bde3f4"/></g><g mask="url(#mask-12)"><path d="M108.8,184.2h-2.6V189h-1.3V177.8h4.5v1.1h-3.2V183h2.6Z" fill="#bde3f4"/></g><g mask="url(#mask-13)"><path d="M111.6,189h-1.2V177.8h1.3Z" fill="#bde3f4"/></g><g mask="url(#mask-14)"><path d="M112.9,177.8h1.3v10.1h3.2V189H113Z" fill="#bde3f4"/></g><g mask="url(#mask-15)"><path d="M122.3,183.9h-2.7v4H123V189h-4.6V177.8H123v1.1h-3.4v3.8h2.7Z" fill="#bde3f4"/></g></g></g><g id="visa-application"><g id="visa-application-b"><path d="M70.1,137.9a19.48,19.48,0,0,1-4.78-.69A17.79,17.79,0,0,1,53,115.33a85.61,85.61,0,0,1,58.56-58.55,19.88,19.88,0,0,1,4.76-.58A17.72,17.72,0,0,1,134,73.9v46.3a17.72,17.72,0,0,1-17.7,17.7Z" fill="#0194c7"/><path d="M116.3,56.7a17.22,17.22,0,0,1,17.2,17.2v46.3a17.22,17.22,0,0,1-17.2,17.2H70.1a19.54,19.54,0,0,1-4.63-.66,17.3,17.3,0,0,1-12-21.27,84.62,84.62,0,0,1,58.18-58.2,19.62,19.62,0,0,1,4.66-.57m0-1a20.53,20.53,0,0,0-4.9.6,85.58,85.58,0,0,0-58.9,58.9,18.3,18.3,0,0,0,12.7,22.5,20.7,20.7,0,0,0,4.9.7h46.2a18.2,18.2,0,0,0,18.2-18.2V73.9a18.2,18.2,0,0,0-18.2-18.2Z" fill="#0194c7"/></g><path id="visa-application-s" d="M111.4,56.3a85.58,85.58,0,0,0-58.9,58.9,18.3,18.3,0,0,0,12.7,22.5,20.7,20.7,0,0,0,4.9.7h46.2a18.2,18.2,0,0,0,18.2-18.2V73.9a18.2,18.2,0,0,0-18.2-18.2A20.53,20.53,0,0,0,111.4,56.3Z" fill="none" stroke="#0194c7" stroke-miterlimit="10"/><g id="visa-application-t"><g mask="url(#mask-16)"><path d="M104.9,103l1.8-9.7h1.2l-2.1,11.2H104l-2.1-11.2h1.3Z" fill="#bde3f4"/></g><g mask="url(#mask-17)"><path d="M110.1,104.5h-1.3V93.3h1.3Z" fill="#bde3f4"/></g><g mask="url(#mask-18)"><path d="M116.2,96v.3H115v-.4c0-1-.4-1.6-1.3-1.6s-1.3.6-1.3,1.6c0,2.5,3.8,2.8,3.8,5.9,0,1.7-.8,2.8-2.5,2.8s-2.5-1.1-2.5-2.8v-.6h1.2v.7c0,1,.4,1.6,1.3,1.6s1.3-.6,1.3-1.6c0-2.5-3.8-2.7-3.8-5.9,0-1.7.8-2.8,2.5-2.8S116.2,94.3,116.2,96Z" fill="#bde3f4"/></g><g mask="url(#mask-19)"><path d="M118.1,104.5h-1.2L119,93.3h1.8l2.1,11.2h-1.3l-.2-2.3h-2.8Zm3.1-3.4-1.3-6.5-1.2,6.5Z" fill="#bde3f4"/></g><g mask="url(#mask-20)"><path d="M65.1,123.7H63.9L66,112.5h1.8L70,123.7H68.8l-.4-2.3H65.6Zm3.1-3.3-1.3-6.5-1.2,6.5Z" fill="#bde3f4"/></g><g mask="url(#mask-21)"><path d="M76,115.2v1.3c0,1.8-.8,2.7-2.6,2.7H72.3v4.4H71V112.4h2.4A2.47,2.47,0,0,1,76,115.2Zm-1.3,1.4v-1.4c0-1-.4-1.5-1.3-1.5H72.2v4.5h1.1c1-.1,1.4-.5,1.4-1.6Z" fill="#bde3f4"/></g><g mask="url(#mask-22)"><path d="M81.9,115.2v1.3c0,1.8-.8,2.7-2.6,2.7H78.2v4.4H76.9V112.4h2.5C81.1,112.5,81.9,113.5,81.9,115.2Zm-1.2,1.4v-1.4c0-1-.4-1.5-1.3-1.5H78.2v4.5h1.1a1.38,1.38,0,0,0,1.4-1.6Z" fill="#bde3f4"/></g><g mask="url(#mask-23)"><path d="M82.9,112.5h1.3v10.1h3.2v1.1H83V112.5Z" fill="#bde3f4"/></g><g mask="url(#mask-24)"><path d="M89.5,123.7H88.2V112.5h1.3Z" fill="#bde3f4"/></g><g mask="url(#mask-25)"><path d="M95.7,115.2v1H94.5v-1.1c0-1-.4-1.6-1.3-1.6s-1.3.6-1.3,1.6V121c0,1,.4,1.6,1.3,1.6s1.3-.6,1.3-1.6v-1.5h1.2v1.4c0,1.7-.8,2.8-2.5,2.8s-2.5-1.1-2.5-2.8v-5.7c0-1.7.8-2.8,2.5-2.8S95.7,113.5,95.7,115.2Z" fill="#bde3f4"/></g><g mask="url(#mask-26)"><path d="M97.7,123.7H96.5l2.2-11.2h1.8l2.1,11.2h-1.2l-.4-2.3H98.2Zm3.1-3.3-1.3-6.5-1.2,6.5Z" fill="#bde3f4"/></g><g mask="url(#mask-27)"><path d="M104.6,113.6h-2.1v-1.1h5.4v1.1h-2.1v10.1h-1.2Z" fill="#bde3f4"/></g><g mask="url(#mask-28)"><path d="M110,123.7h-1.2V112.5H110Z" fill="#bde3f4"/></g><g mask="url(#mask-29)"><path d="M113.8,112.4a2.48,2.48,0,0,1,2.6,2.8V121c0,1.7-.8,2.8-2.6,2.8s-2.6-1.1-2.6-2.8v-5.8A2.48,2.48,0,0,1,113.8,112.4Zm0,10.3c.9,0,1.3-.6,1.3-1.6v-5.9c0-1-.4-1.6-1.3-1.6s-1.3.6-1.3,1.6v5.9C112.4,122.1,112.9,122.7,113.8,122.7Z" fill="#bde3f4"/></g><g mask="url(#mask-30)"><path d="M117.5,123.7V112.5h1.6l2.6,8.1v-8.1h1.1v11.2h-1.3l-2.9-9.1v9.1Z" fill="#bde3f4"/></g></g></g><g id="payments-charges"><g id="payments-charges-b"><path d="M159.39,226.13c-.26,0-.51,0-.76,0a17.73,17.73,0,0,1-17.73-17.7V162.2a17.72,17.72,0,0,1,17.7-17.7h46.2a15.94,15.94,0,0,1,4.75.68,17.76,17.76,0,0,1,12.27,21.89,85.61,85.61,0,0,1-58.56,58.55A16.28,16.28,0,0,1,159.39,226.13Z" fill="#0194c7"/><path d="M204.8,145a15.94,15.94,0,0,1,4.63.66,17.27,17.27,0,0,1,11.91,21.27,84.62,84.62,0,0,1-58.18,58.2,16.1,16.1,0,0,1-3.77.5q-.37,0-.72,0h-.07a17.22,17.22,0,0,1-17.2-17.2V162.2A17.22,17.22,0,0,1,158.6,145h46.2m0-1H158.6a18.2,18.2,0,0,0-18.2,18.2v46.2a18.2,18.2,0,0,0,18.2,18.2c.26,0,.52,0,.79,0a17,17,0,0,0,4-.53,85.58,85.58,0,0,0,58.9-58.9,18.24,18.24,0,0,0-12.6-22.5,16.59,16.59,0,0,0-4.9-.7Z" fill="#0194c7"/></g><path id="payments-charges-s" d="M163.4,226.1a85.58,85.58,0,0,0,58.9-58.9,18.24,18.24,0,0,0-12.6-22.5,16.59,16.59,0,0,0-4.9-.7H158.6a18.2,18.2,0,0,0-18.2,18.2h0v46.2a18.2,18.2,0,0,0,18.2,18.2A16,16,0,0,0,163.4,226.1Z" fill="none" stroke="#0194c7" stroke-miterlimit="10"/><g id="payments-charges-t"><g mask="url(#mask-31)"><path d="M157,161.3v1.3c0,1.8-.8,2.7-2.6,2.7h-1.1v4.4H152V158.5h2.4C156.3,158.6,157,159.6,157,161.3Zm-1.2,1.5v-1.5c0-1-.4-1.5-1.3-1.5h-1.2v4.5h1.1C155.3,164.3,155.8,163.8,155.8,162.8Z" fill="#bde3f4"/></g><g mask="url(#mask-32)"><path d="M158.7,169.8h-1.1l2.1-11.2h1.8l2.1,11.2h-1.2l-.4-2.3h-2.9Zm3.1-3.3-1.3-6.5-1.2,6.5Z" fill="#bde3f4"/></g><g mask="url(#mask-33)"><path d="M163.4,158.6h1.3l1.7,5.5,1.8-5.5h1.2l-2.4,7.2v4h-1.2v-4Z" fill="#bde3f4"/></g><g mask="url(#mask-34)"><path d="M173.2,169.8l-1.8-8.9v8.9h-1.1V158.6H172l1.8,8.9,1.8-8.9h1.7v11.2h-1.2v-9l-1.8,9Z" fill="#bde3f4"/></g><g mask="url(#mask-35)"><path d="M182.7,164.7H180v4h3.4v1.1h-4.6V158.6h4.6v1.1H180v3.8h2.7Z" fill="#bde3f4"/></g><g mask="url(#mask-36)"><path d="M184.4,169.8V158.6H186l2.6,8.1v-8.1h1.1v11.2h-1.3l-2.9-9.1v9.1Z" fill="#bde3f4"/></g><g mask="url(#mask-37)"><path d="M192.6,159.7h-2.1v-1.1h5.4v1.1h-2.1v10.1h-1.2V159.7Z" fill="#bde3f4"/></g><g mask="url(#mask-38)"><path d="M201.6,161.3v.3h-1.2v-.4c0-1-.4-1.6-1.3-1.6s-1.3.6-1.3,1.6c0,2.5,3.8,2.8,3.8,5.9,0,1.7-.8,2.8-2.5,2.8s-2.5-1.1-2.5-2.8v-.6h1.2v.7c0,1,.4,1.6,1.3,1.6s1.4-.6,1.4-1.6c0-2.5-3.7-2.7-3.7-5.9,0-1.7.8-2.8,2.5-2.8S201.6,159.6,201.6,161.3Z" fill="#bde3f4"/></g><g mask="url(#mask-39)"><path d="M153.3,180.5v.6c0,1,.5,1.5,1.3,1.5h1.3v-1.3h1.2v1.3h.6v1.1h-.6v3.9a3.18,3.18,0,0,0,.2,1.4H156a3.55,3.55,0,0,1-.2-1,1.89,1.89,0,0,1-1.8,1.1c-1.4,0-2-1-2-2.6v-1.1a2.21,2.21,0,0,1,1.3-2.3,2.09,2.09,0,0,1-1.3-2.3v-.3c0-1.8.9-2.8,2.6-2.8h1.8v1.1h-1.8C153.8,178.9,153.3,179.4,153.3,180.5Zm0,4.9v1c0,1,.4,1.5,1.3,1.5a1.3,1.3,0,0,0,1.3-1.1v-3.2h-1.2A1.61,1.61,0,0,0,153.3,185.4Z" fill="#bde3f4"/></g><g mask="url(#mask-40)"><path d="M166,180.5v1h-1.2v-1.1c0-1-.4-1.6-1.3-1.6s-1.3.6-1.3,1.6v5.9c0,1,.4,1.6,1.3,1.6s1.3-.6,1.3-1.6v-1.4H166v1.4c0,1.7-.8,2.8-2.5,2.8s-2.5-1.1-2.5-2.8v-5.8c0-1.7.8-2.8,2.5-2.8S166,178.8,166,180.5Z" fill="#bde3f4"/></g><g mask="url(#mask-41)"><path d="M168.4,189h-1.3V177.8h1.3v5h2.8v-5h1.3V189h-1.3v-5h-2.8Z" fill="#bde3f4"/></g><g mask="url(#mask-42)"><path d="M174.5,189h-1.1l2.1-11.2h1.8l2.1,11.2h-1.3l-.4-2.3h-2.8Zm3.1-3.3-1.3-6.5-1.2,6.5Z" fill="#bde3f4"/></g><g mask="url(#mask-43)"><path d="M185.4,180.4v.9c0,1.2-.4,2-1.4,2.3,1,.3,1.4,1.1,1.4,2.3v1.7a2.74,2.74,0,0,0,.2,1.3h-1.2a2.2,2.2,0,0,1-.2-1.4v-1.8c0-1.3-.6-1.7-1.6-1.7h-.9v4.8h-1.3V177.6h2.5A2.44,2.44,0,0,1,185.4,180.4Zm-1.2,1.2v-1.1c0-1-.4-1.5-1.3-1.5h-1.2v4.1h.9c1,0,1.6-.3,1.6-1.5Z" fill="#bde3f4"/></g><g mask="url(#mask-44)"><path d="M191.7,180.5v1h-1.2v-1c0-1-.4-1.6-1.3-1.6s-1.3.6-1.3,1.6v5.9c0,1,.4,1.6,1.3,1.6s1.3-.6,1.3-1.6v-2.2h-1.1V183h2.3v3.3c0,1.7-.8,2.8-2.5,2.8s-2.5-1.1-2.5-2.8v-5.8c0-1.7.8-2.8,2.5-2.8S191.7,178.8,191.7,180.5Z" fill="#bde3f4"/></g><g mask="url(#mask-45)"><path d="M196.8,183.9h-2.7v4h3.4V189h-4.6V177.8h4.6v1.1h-3.4v3.8h2.7Z" fill="#bde3f4"/></g><g mask="url(#mask-46)"><path d="M203.5,180.5v.3h-1.2v-.4c0-1-.4-1.6-1.3-1.6s-1.3.6-1.3,1.6c0,2.5,3.8,2.8,3.8,5.9,0,1.7-.8,2.8-2.5,2.8s-2.5-1.1-2.5-2.8v-.6h1.2v.7c0,1,.4,1.6,1.3,1.6s1.3-.6,1.3-1.6c0-2.5-3.8-2.7-3.8-5.9,0-1.7.8-2.8,2.5-2.8S203.5,178.8,203.5,180.5Z" fill="#bde3f4"/></g></g></g><g id="required-documents"><g id="required-documents-b"><path d="M158.5,137.8a17.72,17.72,0,0,1-17.7-17.7V73.9a19.49,19.49,0,0,1,.49-4.81,17.78,17.78,0,0,1,21.88-12.31,85.61,85.61,0,0,1,58.55,58.56,15.69,15.69,0,0,1,.68,4.76,17.72,17.72,0,0,1-17.7,17.7Z" fill="#0194c7"/><path d="M158.41,56.63a17.22,17.22,0,0,1,4.62.63,84.63,84.63,0,0,1,58.22,58.24,15.22,15.22,0,0,1,.65,4.6,17.22,17.22,0,0,1-17.2,17.2H158.5a17.22,17.22,0,0,1-17.2-17.2V73.84a19,19,0,0,1,.47-4.61,17.34,17.34,0,0,1,16.64-12.6m0-1A18.31,18.31,0,0,0,140.8,69a19.89,19.89,0,0,0-.5,4.9v46.2a18.2,18.2,0,0,0,18.2,18.2h46.2a18.2,18.2,0,0,0,18.2-18.2,16.14,16.14,0,0,0-.7-4.9,85.58,85.58,0,0,0-58.9-58.9,18.35,18.35,0,0,0-4.89-.67Z" fill="#0194c7"/></g><path id="required-documents-s" d="M140.3,73.9v46.2a18.2,18.2,0,0,0,18.2,18.2h46.2a18.2,18.2,0,0,0,18.2-18.2,16.14,16.14,0,0,0-.7-4.9,85.58,85.58,0,0,0-58.9-58.9A18.3,18.3,0,0,0,140.8,69,19.89,19.89,0,0,0,140.3,73.9Z" fill="none" stroke="#0194c7" stroke-miterlimit="10"/><g id="required-documents-t"><g mask="url(#mask-47)"><path d="M157.1,95.8v.9a2,2,0,0,1-1.4,2.3c1,.3,1.4,1.1,1.4,2.3v1.8a2.74,2.74,0,0,0,.2,1.3H156a3.18,3.18,0,0,1-.2-1.4v-1.8c0-1.3-.6-1.7-1.6-1.7h-.9v4.8H152v-11h2.5C156.3,93.3,157.1,94.2,157.1,95.8ZM155.8,97V95.9c0-1-.4-1.5-1.3-1.5h-1.2v4.2h.9C155.2,98.6,155.8,98.2,155.8,97Z" fill="#bde3f4"/></g><g mask="url(#mask-48)"><path d="M162.4,99.4h-2.7v4h3.4v1.1h-4.7V93.3H163v1.1h-3.4v3.8h2.8v1.2Z" fill="#bde3f4"/></g><g mask="url(#mask-49)"><path d="M169.2,96v5.8a3.29,3.29,0,0,1-.4,1.7c.1.3.3.3.7.3h.2v1.1h-.3a1.34,1.34,0,0,1-1.4-.7,3.19,3.19,0,0,1-1.4.3,2.48,2.48,0,0,1-2.6-2.8V95.9a2.48,2.48,0,0,1,2.6-2.8C168.3,93.1,169.2,94.3,169.2,96Zm-3.9-.1v5.9c0,1,.4,1.6,1.3,1.6s1.3-.6,1.3-1.6V95.9c0-1-.4-1.6-1.3-1.6S165.3,94.9,165.3,95.9Z" fill="#bde3f4"/></g><g mask="url(#mask-50)"><path d="M172.9,103.5c.9,0,1.3-.6,1.3-1.6V93.3h1.2v8.5c0,1.7-.8,2.8-2.5,2.8s-2.5-1.1-2.5-2.8V93.3h1.2v8.6C171.6,102.9,172,103.5,172.9,103.5Z" fill="#bde3f4"/></g><g mask="url(#mask-51)"><path d="M177.8,104.5h-1.3V93.3h1.3Z" fill="#bde3f4"/></g><g mask="url(#mask-52)"><path d="M184.1,95.8v.9c0,1.2-.4,2-1.4,2.3,1,.3,1.4,1.1,1.4,2.3v1.8a2.74,2.74,0,0,0,.2,1.3H183a2.2,2.2,0,0,1-.2-1.4v-1.8c0-1.3-.6-1.7-1.6-1.7h-.8v4.8h-1.3v-11h2.5A2.18,2.18,0,0,1,184.1,95.8ZM182.9,97V95.9c0-1-.4-1.5-1.3-1.5h-1.2v4.2h.9c1,0,1.6-.4,1.6-1.6Z" fill="#bde3f4"/></g><g mask="url(#mask-53)"><path d="M189.4,99.4h-2.7v4h3.4v1.1h-4.7V93.3H190v1.1h-3.4v3.8h2.8v1.2Z" fill="#bde3f4"/></g><g mask="url(#mask-54)"><path d="M196.4,96.1v5.7c0,1.7-.8,2.8-2.5,2.8h-2.6V93.3h2.6C195.5,93.3,196.4,94.3,196.4,96.1Zm-1.2,5.7V96c0-1-.4-1.6-1.4-1.6h-1.4v8.9h1.4c.9,0,1.3-.5,1.4-1.5Z" fill="#bde3f4"/></g><g mask="url(#mask-55)"><path d="M157.2,115.3V121c0,1.7-.8,2.8-2.5,2.8h-2.6V112.6h2.6C156.4,112.5,157.2,113.5,157.2,115.3ZM156,121v-5.8c0-1-.4-1.6-1.4-1.6h-1.3v8.9h1.4C155.6,122.5,156,122,156,121Z" fill="#bde3f4"/></g><g mask="url(#mask-56)"><path d="M160.9,112.4a2.48,2.48,0,0,1,2.6,2.8V121a2.61,2.61,0,1,1-5.2,0v-5.8A2.48,2.48,0,0,1,160.9,112.4Zm0,10.3c.9,0,1.3-.6,1.3-1.6v-5.9c0-1-.4-1.6-1.3-1.6s-1.3.6-1.3,1.6v5.9C159.5,122.1,160,122.7,160.9,122.7Z" fill="#bde3f4"/></g><g mask="url(#mask-57)"><path d="M169.6,115.2v1h-1.2v-1.1c0-1-.4-1.6-1.3-1.6s-1.3.6-1.3,1.6V121c0,1,.4,1.6,1.3,1.6s1.3-.6,1.3-1.6v-1.5h1.2v1.4c0,1.7-.8,2.8-2.5,2.8s-2.5-1.1-2.5-2.8v-5.7c0-1.7.8-2.8,2.5-2.8S169.6,113.5,169.6,115.2Z" fill="#bde3f4"/></g><g mask="url(#mask-58)"><path d="M173.2,122.7c.9,0,1.3-.6,1.3-1.6v-8.6h1.2V121c0,1.7-.8,2.8-2.5,2.8s-2.5-1.1-2.5-2.8v-8.5h1.2v8.6C171.9,122,172.3,122.7,173.2,122.7Z" fill="#bde3f4"/></g><g mask="url(#mask-59)"><path d="M179.8,123.7l-1.9-8.9v8.9h-1.1V112.5h1.7l1.8,8.9,1.8-8.9h1.7v11.2h-1.2v-9l-1.8,9Z" fill="#bde3f4"/></g><g mask="url(#mask-60)"><path d="M189.3,118.6h-2.7v4H190v1.1h-4.6V112.5H190v1.1h-3.4v3.8h2.7Z" fill="#bde3f4"/></g><g mask="url(#mask-61)"><path d="M191,123.7V112.5h1.6l2.6,8.1v-8.1h1.1v11.2H195l-2.9-9.1v9.1Z" fill="#bde3f4"/></g><g mask="url(#mask-62)"><path d="M199.2,113.6h-2.1v-1.1h5.4v1.1h-2.1v10.1h-1.2Z" fill="#bde3f4"/></g><g mask="url(#mask-63)"><path d="M208.2,115.2v.3H207v-.4c0-1-.4-1.6-1.3-1.6s-1.3.6-1.3,1.6c0,2.5,3.8,2.8,3.8,5.9,0,1.7-.8,2.8-2.5,2.8s-2.5-1.1-2.5-2.8v-.6h1.2v.7c0,1,.4,1.6,1.3,1.6s1.3-.6,1.3-1.6c0-2.5-3.7-2.7-3.7-5.9,0-1.7.8-2.8,2.5-2.8S208.2,113.5,208.2,115.2Z" fill="#bde3f4"/></g></g></g></g><g id="p-100"><path d="M245.4,210.4h1.5v14h-2.2V213.7H243v-1.5A2.19,2.19,0,0,0,245.4,210.4Z" fill="#0194c7"/><path d="M252.7,210.3c2.2,0,3.3,1.3,3.3,3.5v7.3c0,2.2-1.2,3.5-3.3,3.5s-3.3-1.3-3.3-3.5v-7.3C249.3,211.5,250.5,210.3,252.7,210.3Zm0,12.3c.7,0,1.1-.4,1.1-1.4v-7.6c0-1-.4-1.4-1.1-1.4s-1.1.4-1.1,1.4v7.6C251.5,222.2,252,222.6,252.7,222.6Z" fill="#0194c7"/><path d="M260.6,210.3c2.2,0,3.3,1.3,3.3,3.5v7.3c0,2.2-1.2,3.5-3.3,3.5s-3.3-1.3-3.3-3.5v-7.3C257.3,211.5,258.4,210.3,260.6,210.3Zm0,12.3c.7,0,1.1-.4,1.1-1.4v-7.6c0-1-.4-1.4-1.1-1.4s-1.1.4-1.1,1.4v7.6C259.5,222.2,259.9,222.6,260.6,222.6Z" fill="#0194c7"/><path d="M267.4,210.3a2,2,0,0,1,2.1,1.9v5a2.1,2.1,0,0,1-4.2,0h0v-4.6a2,2,0,0,1,1.7-2.3Zm0,7.8c.4,0,.7-.3.7-.9v-4.8c0-.6-.3-.9-.7-.9s-.7.3-.7.9v4.8c-.1.7.2.9.7.9Zm6.8-7.7-5.5,14h-1.3l5.5-14Zm.1,5a2,2,0,0,1,2.1,1.9v5a2.1,2.1,0,1,1-4.2,0h0v-4.6a2,2,0,0,1,1.8-2.2.37.37,0,0,1,.3-.1Zm0,7.8c.4,0,.7-.3.7-.9v-4.8c0-.6-.3-.9-.7-.9s-.7.3-.7.9v4.8c0,.7.2,1,.7.9Z" fill="#0194c7"/></g><g id="p-75"><path d="M255,71.4l-3.2,12.1h-2.2l3.2-12h-4.4v-2H255Z" fill="#0194c7"/><path d="M258.4,80.3c0,1,.4,1.4,1.1,1.4s1.1-.4,1.1-1.4V77.2c0-1-.4-1.4-1.1-1.4s-1.1.4-1.1,1.4v.4h-2.1l.4-8.1h5.8v2h-3.8l-.2,3.3a2.06,2.06,0,0,1,1.9-1c1.6,0,2.4,1.1,2.4,3.2v3.2c0,2.2-1.1,3.5-3.3,3.5s-3.3-1.3-3.3-3.5V79h2.1v1.3Z" fill="#0194c7"/><path d="M266.4,69.4a2,2,0,0,1,2.1,1.9v5a2.1,2.1,0,0,1-4.2,0h0V71.7a1.94,1.94,0,0,1,1.7-2.2A.6.6,0,0,1,266.4,69.4Zm0,7.8c.4,0,.7-.3.7-.9V71.5c0-.6-.3-.9-.7-.9s-.7.3-.7.9v4.8C265.6,77,265.9,77.2,266.4,77.2Zm6.8-7.7-5.5,14h-1.3l5.5-14Zm.1,5a2.08,2.08,0,0,1,2.1,1.9v5a2.1,2.1,0,1,1-4.2,0h0V76.8a1.94,1.94,0,0,1,1.7-2.2.6.6,0,0,1,.4-.1Zm0,7.8c.4,0,.7-.3.7-.9V76.6c0-.6-.3-.9-.7-.9s-.7.3-.7.9v4.8c0,.7.2,1,.7.9Z" fill="#0194c7"/></g><g id="p-50"><path d="M127.5,11c0,1,.4,1.4,1.1,1.4s1.1-.4,1.1-1.4V7.9c0-1-.4-1.4-1.1-1.4s-1.1.4-1.1,1.4v.4h-2.1l.4-8.1h5.8v2h-3.8l-.2,3.3a2.06,2.06,0,0,1,1.9-1c1.6,0,2.4,1.1,2.4,3.2v3.1c0,2.2-1.1,3.5-3.3,3.5s-3.3-1.3-3.3-3.6V9.5h2.1V11Z" fill="#0194c7"/><path d="M136.6,0c2.2,0,3.3,1.3,3.3,3.5v7.3c0,2.2-1.2,3.5-3.3,3.5s-3.3-1.3-3.3-3.5V3.5A3,3,0,0,1,136.6,0Zm0,12.3c.7,0,1.1-.4,1.1-1.4V3.4c0-1-.4-1.4-1.1-1.4s-1.2.4-1.2,1.4V11C135.4,12,135.9,12.3,136.6,12.3Z" fill="#0194c7"/><path d="M143.3.1A2,2,0,0,1,145.4,2V7a2.1,2.1,0,1,1-4.2,0V2.3A1.94,1.94,0,0,1,142.9.1Zm0,7.8c.4,0,.7-.3.7-.9V2.2c0-.6-.3-.9-.7-.9s-.7.3-.7.9V7C142.6,7.6,142.9,7.9,143.3,7.9ZM150.2.2l-5.5,14h-1.3l5.5-14Zm.1,5a2,2,0,0,1,2.1,1.9v5a2.1,2.1,0,1,1-4.2,0V7.5a1.94,1.94,0,0,1,1.7-2.2.6.6,0,0,1,.4-.1Zm0,7.8c.4,0,.7-.3.7-.9V7.3c0-.6-.3-.9-.7-.9s-.7.3-.7.9v4.8c0,.7.2.9.7.9Z" fill="#0194c7"/></g><g id="p-25"><path d="M3.2,71.4c-.7,0-1.1.4-1.1,1.4v1.4H0V72.9c0-2.2,1.1-3.5,3.3-3.5s3.3,1.3,3.3,3.5c0,4.4-4.4,6-4.4,8.3v.3H6.4v2H0V81.8C0,77.7,4.4,77,4.4,73,4.3,71.7,3.9,71.4,3.2,71.4Z" fill="#0194c7"/><path d="M9.9,80.3c0,1,.4,1.4,1.1,1.4s1.1-.4,1.1-1.4V77.2c0-1-.4-1.4-1.1-1.4s-1.1.4-1.1,1.4v.4H7.8l.4-8.1H14v2H10.2L10,74.8a2.06,2.06,0,0,1,1.9-1c1.6,0,2.4,1.1,2.4,3.2v3.2c0,2.2-1.1,3.5-3.3,3.5s-3.3-1.3-3.3-3.5V79H9.8v1.3Z" fill="#0194c7"/><path d="M26.9,76.8v-.4a2.08,2.08,0,0,0-2.1-1.9h-.4a2,2,0,0,0-1.8,2.2v5a2.08,2.08,0,0,0,2.1,1.9h.4a1.88,1.88,0,0,0,1.7-2.2V76.8Zm-1.4,4.7c0,.6-.3.9-.7.9h0c-.5,0-.7-.3-.7-.9V76.7c0-.6.3-.9.7-.9s.7.3.7.9Z" fill="#0194c7"/><path d="M18.2,78.5a1.88,1.88,0,0,0,1.7-2.2v-5a2.08,2.08,0,0,0-2.1-1.9h-.4a1.88,1.88,0,0,0-1.7,2.2v5a2.08,2.08,0,0,0,2.1,1.9Zm-1.1-2.1V71.6c0-.6.3-.9.7-.9s.7.3.7.9v4.8c0,.6-.3.9-.7.9h0A.81.81,0,0,1,17.1,76.4Z" fill="#0194c7"/><polygon points="23.3 69.5 17.8 83.5 19.1 83.5 24.6 69.5 23.3 69.5" fill="#0194c7"/></g></g></g></svg>