<?xml version="1.0" encoding="utf-8"?>
<!-- Generator: Adobe Illustrator 22.1.0, SVG Export Plug-In . SVG Version: 6.00 Build 0)  -->
<svg version="1.1" id="Layer_1" xmlns="http://www.w3.org/2000/svg" xmlns:xlink="http://www.w3.org/1999/xlink" x="0px" y="0px"
	 viewBox="0 0 719 362.6" style="enable-background:new 0 0 719 362.6;" xml:space="preserve">
<style type="text/css">
	.st0{fill:none;stroke:#231F20;stroke-miterlimit:10;}
	.st1{fill:#231F20;}
</style>
<circle class="st0" cx="369" cy="181.3" r="179.8"/>
<path class="st1" d="M354.1,362c-1.8-0.1-3.7-0.3-5.5-0.5l4.4-39.8c1.4,0.2,2.9,0.3,4.3,0.4L354.1,362z"/>
<path class="st1" d="M408.1,358.4l-8.6-39.1c1.4-0.3,2.8-0.6,4.2-1l9.8,38.8C411.8,357.6,410,358,408.1,358.4L408.1,358.4z"/>
<path class="st1" d="M296.3,347.5c-1.7-0.8-3.4-1.5-5.1-2.3l17.2-36.1c1.3,0.6,2.6,1.2,3.9,1.8L296.3,347.5z"/>
<path class="st1" d="M463.5,336.1L442.7,302c1.2-0.7,2.4-1.5,3.6-2.3l21.9,33.5C466.7,334.1,465.1,335.1,463.5,336.1z"/>
<path class="st1" d="M246.3,314.8c-1.4-1.2-2.7-2.5-4-3.8l28-28.6c1,1,2.1,2,3.1,3L246.3,314.8z"/>
<path class="st1" d="M508.6,297l-30.8-25.5c0.9-1.1,1.8-2.2,2.7-3.4l31.6,24.6C511,294.1,509.8,295.6,508.6,297z"/>
<path class="st1" d="M209.6,267.8c-0.9-1.6-1.7-3.3-2.6-4.9l35.7-18c0.6,1.3,1.3,2.6,2,3.8L209.6,267.8z"/>
<path class="st1" d="M538.7,245.4l-37.4-14.1c0.5-1.4,1-2.7,1.5-4.1l37.8,13C540,241.9,539.3,243.7,538.7,245.4L538.7,245.4z"/>
<path class="st1" d="M190.2,211.3c-0.3-1.8-0.6-3.7-0.8-5.5l39.6-5.4c0.2,1.4,0.4,2.9,0.6,4.3L190.2,211.3z"/>
<path class="st1" d="M550.3,186.8l-40-1.2c0-1.4,0.1-2.9,0.1-4.3V181h40v0.4C550.3,183.2,550.3,185,550.3,186.8L550.3,186.8z"/>
<path class="st1" d="M229.6,158.2l-39.5-6.5c0.3-1.8,0.6-3.7,1-5.5l39.2,7.8C230.1,155.3,229.8,156.8,229.6,158.2z"/>
<path class="st1" d="M504,139.2c-0.4-1.4-0.9-2.8-1.4-4.1l37.8-13.1c0.6,1.7,1.2,3.5,1.7,5.3L504,139.2z"/>
<path class="st1" d="M244.6,114.2l-35.2-19c0.9-1.6,1.8-3.3,2.7-4.8l34.6,20.1C246,111.7,245.3,113,244.6,114.2L244.6,114.2z"/>
<path class="st1" d="M483,97.8c-0.9-1.2-1.7-2.3-2.6-3.4l31.5-24.7c1.1,1.4,2.3,2.9,3.3,4.4L483,97.8z"/>
<path class="st1" d="M273.1,77.5L246,48.1c1.4-1.3,2.8-2.5,4.1-3.7l26.2,30.2C275.3,75.5,274.2,76.5,273.1,77.5z"/>
<path class="st1" d="M449.6,65.3c-1.2-0.8-2.4-1.6-3.6-2.4l21.8-33.5c1.5,1,3.1,2.1,4.6,3.1L449.6,65.3z"/>
<path class="st1" d="M312,52l-16.1-36.7c1.7-0.7,3.4-1.5,5.1-2.1l15,37.1C314.7,50.8,313.4,51.4,312,52z"/>
<path class="st1" d="M407.6,45.4c-1.4-0.4-2.8-0.8-4.2-1.1l9.7-38.8c1.8,0.4,3.6,0.9,5.4,1.4L407.6,45.4z"/>
<path class="st1" d="M357.1,40.5l-3.3-39.9c1.8-0.2,3.7-0.3,5.5-0.4l2.1,39.9C360,40.3,358.5,40.4,357.1,40.5z"/>
<path class="st1" d="M369,343.1c-89.2,0-161.8-72.6-161.8-161.8S279.8,19.5,369,19.5s161.8,72.6,161.8,161.8S458.2,343.1,369,343.1z
	 M369,20.5c-88.7,0-160.8,72.2-160.8,160.8S280.3,342.1,369,342.1S529.8,270,529.8,181.3S457.7,20.5,369,20.5z"/>
<path class="st1" d="M370.2,327.1l-0.3-40c1.4,0,2.8-0.1,4.2-0.1l1.9,40C374.1,327.1,372.1,327.1,370.2,327.1z M348.4,325.7
	c-1.9-0.3-3.8-0.6-5.7-0.9l7.2-39.4c1.4,0.3,2.8,0.5,4.1,0.7L348.4,325.7z M397.8,324.3l-7.9-39.2c1.4-0.3,2.8-0.6,4.1-0.9l9.4,38.9
	C401.6,323.5,399.7,323.9,397.8,324.3z M321.4,319.2c-1.8-0.6-3.6-1.3-5.4-2l14.6-37.3c1.3,0.5,2.6,1,4,1.5L321.4,319.2z
	 M424.4,316.3l-15.2-37c1.3-0.5,2.6-1.1,3.8-1.7l16.6,36.4C427.9,314.8,426.1,315.5,424.4,316.3L424.4,316.3z M296.2,307.7
	c-1.7-1-3.3-2-5-3l21.4-33.8c1.2,0.8,2.4,1.5,3.6,2.2L296.2,307.7z M448.9,303.4L427,269.9c1.2-0.8,2.3-1.6,3.5-2.4l23.2,32.6
	C452.1,301.2,450.5,302.3,448.9,303.4L448.9,303.4z M273.6,291.6c-1.4-1.3-2.9-2.6-4.3-3.9l27.4-29.2c1,1,2.1,1.9,3.1,2.8
	L273.6,291.6z M470.5,286.1l-27.8-28.7c1-1,2-2,3-3l28.9,27.7C473.2,283.4,471.9,284.7,470.5,286.1L470.5,286.1z M254.4,271.6
	c-1.2-1.5-2.4-3.1-3.5-4.6l32.4-23.5c0.8,1.1,1.7,2.3,2.5,3.4L254.4,271.6z M488.4,265l-32.8-23c0.8-1.1,1.6-2.3,2.4-3.5l33.6,21.7
	C490.6,261.8,489.6,263.4,488.4,265L488.4,265z M239.4,248.3c-0.9-1.7-1.7-3.4-2.5-5.2l36.2-17c0.6,1.3,1.2,2.5,1.9,3.8L239.4,248.3
	z M502.2,240.9l-36.5-16.3c0.6-1.3,1.1-2.6,1.6-3.9l37.1,14.9C503.7,237.3,503,239.1,502.2,240.9L502.2,240.9z M229.1,222.5
	c-0.5-1.8-1.1-3.7-1.5-5.6l38.8-9.8c0.3,1.4,0.7,2.7,1.1,4L229.1,222.5z M511,214.5l-39-9.1c0.3-1.4,0.6-2.7,0.9-4.1l39.3,7.5
	C511.9,210.8,511.5,212.7,511,214.5L511,214.5z M223.8,195.3c-0.2-1.9-0.3-3.9-0.4-5.8l39.9-2.2c0.1,1.4,0.2,2.8,0.3,4.2
	L223.8,195.3z M514.7,187.1l-40-1.6c0.1-1.4,0.1-2.8,0.1-4.2V181h40v0.3C514.8,183.2,514.8,185.2,514.7,187.1L514.7,187.1z
	 M263.6,171.4l-39.8-3.7c0.2-1.9,0.4-3.8,0.6-5.7l39.7,5.3C263.9,168.6,263.8,170,263.6,171.4z M473.6,165.2
	c-0.2-1.4-0.5-2.8-0.7-4.1l39.3-7.6c0.4,1.9,0.7,3.8,1,5.7L473.6,165.2z M267.4,151.6L229,140.4c0.5-1.8,1.1-3.7,1.7-5.5l37.9,12.7
	C268.2,148.9,267.8,150.3,267.4,151.6z M468.7,145.7c-0.5-1.3-1-2.6-1.5-3.9l37.1-15c0.7,1.8,1.4,3.6,2,5.4L468.7,145.7z
	 M274.8,132.9l-35.6-18.3c0.9-1.7,1.8-3.4,2.8-5.1l34.8,19.7C276.1,130.5,275.5,131.7,274.8,132.9z M460.2,127.5
	c-0.7-1.2-1.5-2.4-2.2-3.6l33.6-21.7c1,1.6,2.1,3.3,3,4.9L460.2,127.5z M285.7,116l-31.5-24.7c1.2-1.5,2.4-3,3.7-4.5l30.5,25.9
	C287.5,113.8,286.6,114.9,285.7,116z M448.3,111.2c-0.9-1.1-1.9-2.1-2.9-3.1l28.9-27.7c1.3,1.4,2.6,2.8,3.9,4.3L448.3,111.2z
	 M299.6,101.4l-26.2-30.2c1.4-1.3,2.9-2.5,4.4-3.7l25,31.2C301.7,99.6,300.6,100.5,299.6,101.4z M433.6,97.5
	c-1.1-0.8-2.3-1.7-3.4-2.5l23.2-32.6c1.6,1.1,3.1,2.3,4.6,3.4L433.6,97.5z M316,89.7l-20.1-34.6c1.7-1,3.4-1.9,5-2.8l18.7,35.4
	C318.4,88.3,317.2,89,316,89.7z M416.6,86.8c-1.2-0.6-2.5-1.2-3.8-1.8l16.6-36.4c1.8,0.8,3.5,1.6,5.2,2.5L416.6,86.8z M334.3,81.3
	l-13.2-37.8c1.8-0.6,3.7-1.2,5.5-1.8L338.2,80C336.9,80.4,335.5,80.9,334.3,81.3L334.3,81.3z M397.9,79.5c-1.3-0.4-2.7-0.7-4.1-1.1
	l9.3-38.9c1.9,0.5,3.8,0.9,5.6,1.5L397.9,79.5z M353.8,76.6L348,37c1.9-0.3,3.8-0.5,5.7-0.7l4.1,39.8
	C356.5,76.2,355.1,76.4,353.8,76.6L353.8,76.6z M378.1,75.9c-1.4-0.1-2.8-0.2-4.2-0.3l1.8-40c1.9,0.1,3.9,0.2,5.8,0.4L378.1,75.9z"
	/>
<path class="st1" d="M369,307.7c-69.8,0-126.3-56.6-126.4-126.3S299.2,55,369,55s126.3,56.6,126.4,126.3c0,0,0,0,0,0
	C495.3,251.1,438.7,307.6,369,307.7z M369,56c-69.2,0-125.3,56.1-125.4,125.3S299.8,306.7,369,306.7s125.3-56.1,125.4-125.3
	c0,0,0,0,0,0C494.2,112.1,438.2,56.1,369,56z"/>
<path class="st1" d="M369.1,289L369.1,289c-1.7,0-3.4,0-5.1-0.1l0-1c1.6,0.1,3.3,0.1,4.9,0.1L369.1,289z M388.1,287.3l-0.2-1
	c1.6-0.3,3.3-0.6,4.9-1l0.2,1C391.4,286.7,389.7,287,388.1,287.3L388.1,287.3z M345.1,286.3c-1.6-0.4-3.3-0.8-4.9-1.2l0.3-1
	c1.6,0.4,3.2,0.9,4.8,1.2L345.1,286.3z M411.1,280.4l-0.4-0.9c1.5-0.6,3-1.3,4.5-2.1l0.4,0.9C414.3,279.1,412.7,279.8,411.1,280.4
	L411.1,280.4z M322.3,278.4c-1.5-0.7-3-1.5-4.5-2.3l0.5-0.9c1.5,0.8,3,1.5,4.4,2.3L322.3,278.4z M432.1,268.6l-0.6-0.8
	c1.4-1,2.7-2,4-3l0.6,0.8C434.9,266.5,433.5,267.6,432.1,268.6L432.1,268.6z M301.9,265.6c-1.3-1-2.6-2.1-3.9-3.2l0.7-0.8
	c1.2,1.1,2.5,2.2,3.8,3.2L301.9,265.6z M450,252.3l-0.8-0.7c1.1-1.2,2.2-2.5,3.2-3.8l0.8,0.6C452.1,249.8,451.1,251.1,450,252.3z
	 M284.9,248.5c-1-1.3-2.1-2.6-3-4l0.8-0.6c1,1.3,2,2.7,3,4L284.9,248.5z M463.8,232.5l-0.9-0.5c0.8-1.5,1.5-3,2.3-4.4l0.9,0.4
	C465.3,229.5,464.5,231.1,463.8,232.5L463.8,232.5z M272,228.1c-0.7-1.5-1.4-3-2.1-4.6l0.9-0.4c0.6,1.5,1.3,3,2.1,4.5L272,228.1z
	 M472.8,210.1l-1-0.3c0.4-1.6,0.9-3.2,1.2-4.8l1,0.2C473.6,206.9,473.2,208.6,472.8,210.1L472.8,210.1z M264,205.4
	c-0.4-1.6-0.7-3.3-1-4.9l1-0.2c0.3,1.6,0.6,3.3,1,4.9L264,205.4z M476.5,186.3h-1c0.1-1.7,0.1-3.3,0.1-5v-0.3h1v0.3
	C476.7,183,476.6,184.7,476.5,186.3L476.5,186.3z M262.3,181.4h-1v-0.1c0-1.6,0-3.3,0.1-4.9l1,0.1c-0.1,1.6-0.1,3.3-0.1,4.9V181.4z
	 M474,162.2c-0.3-1.6-0.6-3.3-1-4.9l1-0.2c0.4,1.6,0.7,3.3,1,4.9L474,162.2z M265,157.7l-1-0.2c0.4-1.6,0.8-3.3,1.2-4.9l1,0.3
	C265.7,154.5,265.3,156.1,265,157.7L265,157.7z M467.2,139.4c-0.6-1.5-1.4-3-2.1-4.5l0.9-0.4c0.7,1.5,1.4,3,2.1,4.6L467.2,139.4z
	 M272.9,135.2l-0.9-0.4c0.7-1.5,1.5-3,2.3-4.5l0.9,0.5C274.3,132.2,273.5,133.7,272.9,135.2L272.9,135.2z M455.4,118.6
	c-1-1.3-2-2.7-3-4l0.8-0.6c1,1.3,2.1,2.6,3.1,4L455.4,118.6z M285.5,114.9l-0.8-0.6c1-1.3,2.1-2.6,3.2-3.9l0.8,0.7
	C287.6,112.3,286.5,113.6,285.5,114.9z M439.2,101c-1.3-1.1-2.5-2.2-3.8-3.2L436,97c1.3,1,2.6,2.1,3.9,3.2L439.2,101z M302.4,98
	l-0.6-0.8c1.3-1,2.6-2.1,4-3l0.6,0.8C305,96,303.7,97,302.4,98z M419.6,87.4c-1.5-0.8-3-1.6-4.5-2.3l0.4-0.9c1.5,0.7,3,1.5,4.5,2.3
	L419.6,87.4z M322.6,85.3l-0.4-0.9c1.5-0.7,3-1.4,4.6-2.1l0.4,0.9C325.6,83.8,324.1,84.5,322.6,85.3z M397.4,78.5
	c-1.6-0.4-3.2-0.8-4.8-1.2l0.2-1c1.6,0.4,3.3,0.8,4.9,1.2L397.4,78.5z M345.1,77.3l-0.2-1c1.6-0.4,3.3-0.7,4.9-1l0.2,1
	C348.3,76.6,346.7,77,345.1,77.3L345.1,77.3z M373.8,74.7c-1.6-0.1-3.2-0.1-4.8-0.1h-0.2v-1h0.2c1.6,0,3.2,0,4.8,0.1L373.8,74.7z"/>
<path class="st1" d="M369.1,289L369.1,289c-1.7,0-3.4,0-5.1-0.1l0-1c1.6,0.1,3.3,0.1,4.9,0.1L369.1,289z M388.1,287.3l-0.2-1
	c1.6-0.3,3.3-0.6,4.9-1l0.2,1C391.4,286.7,389.7,287,388.1,287.3L388.1,287.3z M345.1,286.3c-1.6-0.4-3.3-0.8-4.9-1.2l0.3-1
	c1.6,0.4,3.2,0.9,4.8,1.2L345.1,286.3z M411.1,280.4l-0.4-0.9c1.5-0.6,3-1.3,4.5-2.1l0.4,0.9C414.3,279.1,412.7,279.8,411.1,280.4
	L411.1,280.4z M322.3,278.4c-1.5-0.7-3-1.5-4.5-2.3l0.5-0.9c1.5,0.8,3,1.5,4.4,2.3L322.3,278.4z M432.1,268.6l-0.6-0.8
	c1.4-1,2.7-2,4-3l0.6,0.8C434.9,266.5,433.5,267.6,432.1,268.6L432.1,268.6z M301.9,265.6c-1.3-1-2.6-2.1-3.9-3.2l0.7-0.8
	c1.2,1.1,2.5,2.2,3.8,3.2L301.9,265.6z M450,252.3l-0.8-0.7c1.1-1.2,2.2-2.5,3.2-3.8l0.8,0.6C452.1,249.8,451.1,251.1,450,252.3z
	 M284.9,248.5c-1-1.3-2.1-2.6-3-4l0.8-0.6c1,1.3,2,2.7,3,4L284.9,248.5z M463.8,232.5l-0.9-0.5c0.8-1.5,1.5-3,2.3-4.4l0.9,0.4
	C465.3,229.5,464.5,231.1,463.8,232.5L463.8,232.5z M272,228.1c-0.7-1.5-1.4-3-2.1-4.6l0.9-0.4c0.6,1.5,1.3,3,2.1,4.5L272,228.1z
	 M472.8,210.1l-1-0.3c0.4-1.6,0.9-3.2,1.2-4.8l1,0.2C473.6,206.9,473.2,208.6,472.8,210.1L472.8,210.1z M264,205.4
	c-0.4-1.6-0.7-3.3-1-4.9l1-0.2c0.3,1.6,0.6,3.3,1,4.9L264,205.4z M476.5,186.3h-1c0.1-1.7,0.1-3.3,0.1-5v-0.3h1v0.3
	C476.7,183,476.6,184.7,476.5,186.3L476.5,186.3z M262.3,181.4h-1v-0.1c0-1.6,0-3.3,0.1-4.9l1,0.1c-0.1,1.6-0.1,3.3-0.1,4.9V181.4z
	 M474,162.2c-0.3-1.6-0.6-3.3-1-4.9l1-0.2c0.4,1.6,0.7,3.3,1,4.9L474,162.2z M265,157.7l-1-0.2c0.4-1.6,0.8-3.3,1.2-4.9l1,0.3
	C265.7,154.5,265.3,156.1,265,157.7L265,157.7z M467.2,139.4c-0.6-1.5-1.4-3-2.1-4.5l0.9-0.4c0.7,1.5,1.4,3,2.1,4.6L467.2,139.4z
	 M272.9,135.2l-0.9-0.4c0.7-1.5,1.5-3,2.3-4.5l0.9,0.5C274.3,132.2,273.5,133.7,272.9,135.2L272.9,135.2z M455.4,118.6
	c-1-1.3-2-2.7-3-4l0.8-0.6c1,1.3,2.1,2.6,3.1,4L455.4,118.6z M285.5,114.9l-0.8-0.6c1-1.3,2.1-2.6,3.2-3.9l0.8,0.7
	C287.6,112.3,286.5,113.6,285.5,114.9z M439.2,101c-1.3-1.1-2.5-2.2-3.8-3.2L436,97c1.3,1,2.6,2.1,3.9,3.2L439.2,101z M302.4,98
	l-0.6-0.8c1.3-1,2.6-2.1,4-3l0.6,0.8C305,96,303.7,97,302.4,98z M419.6,87.4c-1.5-0.8-3-1.6-4.5-2.3l0.4-0.9c1.5,0.7,3,1.5,4.5,2.3
	L419.6,87.4z M322.6,85.3l-0.4-0.9c1.5-0.7,3-1.4,4.6-2.1l0.4,0.9C325.6,83.8,324.1,84.5,322.6,85.3z M397.4,78.5
	c-1.6-0.4-3.2-0.8-4.8-1.2l0.2-1c1.6,0.4,3.3,0.8,4.9,1.2L397.4,78.5z M345.1,77.3l-0.2-1c1.6-0.4,3.3-0.7,4.9-1l0.2,1
	C348.3,76.6,346.7,77,345.1,77.3L345.1,77.3z M373.8,74.7c-1.6-0.1-3.2-0.1-4.8-0.1h-0.2v-1h0.2c1.6,0,3.2,0,4.8,0.1L373.8,74.7z"/>
<path class="st1" d="M373.1,279.7l-0.2-4c1.6-0.1,3.3-0.2,4.8-0.3l0.4,4C376.5,279.5,374.8,279.6,373.1,279.7z M354,278.6
	c-1.7-0.3-3.3-0.5-5-0.9l0.8-3.9c1.6,0.3,3.2,0.6,4.8,0.9L354,278.6z M397,275.8l-1.1-3.8c1.5-0.5,3.1-1,4.6-1.5l1.3,3.8
	C400.2,274.8,398.6,275.3,397,275.8z M330.7,272.1c-1.5-0.6-3.1-1.4-4.6-2.1l1.7-3.6c1.5,0.7,2.9,1.4,4.4,2L330.7,272.1z
	 M419.2,266.1l-2-3.4c1.4-0.8,2.8-1.7,4.1-2.6l2.2,3.3C422,264.3,420.6,265.2,419.2,266.1L419.2,266.1z M309.7,260
	c-1.4-1-2.7-2.1-4-3.1l2.6-3.1c1.2,1,2.5,2.1,3.8,3L309.7,260z M438.3,251.3l-2.8-2.8c1.1-1.1,2.3-2.3,3.4-3.5l3,2.7
	C440.6,248.9,439.5,250.1,438.3,251.3L438.3,251.3z M292.3,243.2c-1-1.3-2.1-2.6-3.1-4l3.2-2.4c0.9,1.3,1.9,2.6,3,3.9L292.3,243.2z
	 M453.3,232.3l-3.4-2.1c0.8-1.4,1.6-2.8,2.4-4.2l3.5,1.9C455,229.4,454.1,230.8,453.3,232.3L453.3,232.3z M279.6,222.6
	c-0.7-1.5-1.4-3.1-2-4.6l3.7-1.5c0.6,1.5,1.2,3,1.9,4.4L279.6,222.6z M463.2,210.2l-3.8-1.2c0.5-1.5,0.9-3.1,1.3-4.7l3.9,1
	C464.1,207,463.6,208.6,463.2,210.2z M272.2,199.5c-0.3-1.6-0.6-3.3-0.8-5l4-0.5c0.2,1.6,0.5,3.2,0.8,4.8L272.2,199.5z M467.3,186.4
	l-4-0.2c0.1-1.6,0.1-3.2,0.1-4.8h4C467.5,183,467.4,184.7,467.3,186.4L467.3,186.4z M274.7,175.6l-4-0.2c0.1-1.7,0.3-3.4,0.4-5
	l4,0.4C274.9,172.4,274.8,174,274.7,175.6z M463.2,174.3c-0.1-1.6-0.3-3.2-0.5-4.8l4-0.5c0.2,1.7,0.4,3.4,0.5,5L463.2,174.3z
	 M278.9,152.8l-3.8-1.2c0.5-1.6,1.1-3.2,1.6-4.8l3.8,1.4C279.9,149.7,279.4,151.3,278.9,152.8z M458.7,151.6
	c-0.5-1.5-1.1-3.1-1.6-4.6l3.7-1.4c0.6,1.6,1.2,3.2,1.7,4.8L458.7,151.6z M288.6,131.7l-3.4-2.1c0.9-1.4,1.8-2.8,2.8-4.2l3.3,2.3
	C290.4,129,289.5,130.3,288.6,131.7z M448.7,130.6c-0.9-1.4-1.8-2.7-2.7-4l3.3-2.3c1,1.4,1.9,2.8,2.8,4.2L448.7,130.6z M303.2,113.6
	l-2.8-2.9c1.2-1.2,2.5-2.3,3.7-3.4l2.6,3C305.5,111.4,304.3,112.5,303.2,113.6L303.2,113.6z M433.9,112.7c-1.2-1.1-2.4-2.2-3.6-3.3
	l2.6-3c1.3,1.1,2.5,2.2,3.8,3.4L433.9,112.7z M321.6,99.6l-2-3.5c1.5-0.8,2.9-1.7,4.4-2.4l1.8,3.6C324.5,98,323,98.8,321.6,99.6z
	 M415.3,98.9c-1.4-0.8-2.9-1.6-4.3-2.3l1.8-3.6c1.5,0.7,3,1.5,4.5,2.4L415.3,98.9z M343,90.5l-1.1-3.8c1.6-0.5,3.3-0.9,4.9-1.3
	l0.9,3.9C346.1,89.6,344.5,90,343,90.5z M393.8,90.1c-1.5-0.4-3.1-0.8-4.7-1.2l0.9-3.9c1.6,0.3,3.3,0.8,4.9,1.2L393.8,90.1z
	 M365.9,86.9l-0.1-4c1,0,2.1,0,3.1,0c0.6,0,1.3,0,1.9,0l-0.1,4H369C367.9,86.9,366.9,86.9,365.9,86.9L365.9,86.9z"/>
<path class="st1" d="M369,273.1c-50.7,0.5-92.2-40.1-92.8-90.9s40.1-92.2,90.9-92.8c0.6,0,1.3,0,1.9,0v10
	c-45.2,0-81.8,36.6-81.8,81.8s36.6,81.8,81.8,81.8s81.8-36.6,81.8-81.8h10C460.8,232,419.7,273.1,369,273.1z"/>
<path class="st1" d="M457.8,181.3h-4c-0.1-46.8-38-84.8-84.8-84.8v-4C418,92.6,457.8,132.3,457.8,181.3z"/>
<path class="st1" d="M443.6,191.8l-3-0.4c0-0.4,0.1-0.8,0.2-1.2l3,0.4C443.7,191,443.6,191.4,443.6,191.8z"/>
<path class="st1" d="M367.8,109v-3h1.2v3H367.8z"/>
<path class="st1" d="M442.8,181.3c-2,4.5-4.7,8.7-8,12.3l7.3-2.1l6.9,3.1C446.4,191.1,444.1,185.7,442.8,181.3z"/>
<path class="st1" d="M444.8,181.3h-4c0-39.6-32.2-71.8-71.8-71.8v-4C410.8,105.6,444.7,139.5,444.8,181.3z"/>
<path class="st1" d="M369,241.2v-4c30.9,0,55.9-25,55.9-55.9s-25-55.9-55.9-55.9s-55.9,25-55.9,55.9c0,0,0,0,0,0h-4
	c0-33.1,26.8-59.9,59.9-59.9s59.9,26.8,59.9,59.9S402.1,241.2,369,241.2C369,241.2,369,241.2,369,241.2z"/>
<path class="st1" d="M403.1,215.5l-2.8-2.8c17.3-17.3,17.3-45.4,0-62.6s-45.4-17.3-62.6,0c-17.3,17.3-17.3,45.3,0,62.6l-2.8,2.8
	c-18.9-18.9-18.9-49.4,0-68.3c18.9-18.9,49.4-18.9,68.3,0S422,196.6,403.1,215.5C403.2,215.5,403.2,215.5,403.1,215.5L403.1,215.5z"
	/>
<rect x="428.3" y="201.5" transform="matrix(0.688 -0.7257 0.7257 0.688 -40.7265 387.4803)" class="st1" width="4" height="79.2"/>
<rect x="275.2" y="237.6" transform="matrix(0.7003 -0.7139 0.7139 0.7003 -77.7522 294.0118)" class="st1" width="72.1" height="4"/>
<rect x="382.8" y="104.3" transform="matrix(0.6762 -0.7367 0.7367 0.6762 64.2802 358.9536)" class="st1" width="115.4" height="4"/>
<rect x="298.2" y="52.7" transform="matrix(0.7511 -0.6601 0.6601 0.7511 3.7062 224.9713)" class="st1" width="4" height="109.8"/>
</svg>
