<svg xmlns="http://www.w3.org/2000/svg" viewBox="0 0 357 68"><title>waves__animation</title><g id="Warstwa_2" data-name="Warstwa 2"><g id="waves__wrapper"><g id="waves__animation"><g id="waves__bottom"><line x1="0.5" y1="34.5" x2="0.5" y2="44.5" fill="#fff" stroke="#000" stroke-linecap="round" stroke-linejoin="round"/><line x1="4.5" y1="34.5" x2="4.5" y2="48.5" fill="#fff" stroke="#000" stroke-linecap="round" stroke-linejoin="round"/><line x1="9.5" y1="34.5" x2="9.5" y2="54.5" fill="#fff" stroke="#000" stroke-linecap="round" stroke-linejoin="round"/><line x1="13.5" y1="34.5" x2="13.5" y2="56.5" fill="#fff" stroke="#000" stroke-linecap="round" stroke-linejoin="round"/><line x1="17.5" y1="34.5" x2="17.5" y2="65.5" fill="#fff" stroke="#000" stroke-linecap="round" stroke-linejoin="round"/><line x1="22.5" y1="34.5" x2="22.5" y2="60.5" fill="#fff" stroke="#000" stroke-linecap="round" stroke-linejoin="round"/><line x1="26.5" y1="34.5" x2="26.5" y2="54.5" fill="#fff" stroke="#000" stroke-linecap="round" stroke-linejoin="round"/><line x1="30.5" y1="34.5" x2="30.5" y2="49.5" fill="#fff" stroke="#000" stroke-linecap="round" stroke-linejoin="round"/><line x1="35.5" y1="34.5" x2="35.5" y2="65.5" fill="#fff" stroke="#000" stroke-linecap="round" stroke-linejoin="round"/><line x1="39.5" y1="34.5" x2="39.5" y2="57.5" fill="#fff" stroke="#000" stroke-linecap="round" stroke-linejoin="round"/><line x1="43.5" y1="34.5" x2="43.5" y2="52.5" fill="#fff" stroke="#000" stroke-linecap="round" stroke-linejoin="round"/><line x1="48.5" y1="34.5" x2="48.5" y2="51.5" fill="#fff" stroke="#000" stroke-linecap="round" stroke-linejoin="round"/><line x1="52.5" y1="34.5" x2="52.5" y2="47.5" fill="#fff" stroke="#000" stroke-linecap="round" stroke-linejoin="round"/><line x1="56.5" y1="34.5" x2="56.5" y2="50.5" fill="#fff" stroke="#000" stroke-linecap="round" stroke-linejoin="round"/><line x1="61.5" y1="34.5" x2="61.5" y2="48.5" fill="#fff" stroke="#000" stroke-linecap="round" stroke-linejoin="round"/><line x1="65.5" y1="34.5" x2="65.5" y2="48.5" fill="#fff" stroke="#000" stroke-linecap="round" stroke-linejoin="round"/><line x1="69.5" y1="34.5" x2="69.5" y2="55.5" fill="#fff" stroke="#000" stroke-linecap="round" stroke-linejoin="round"/><line x1="74.5" y1="34.5" x2="74.5" y2="53.5" fill="#fff" stroke="#000" stroke-linecap="round" stroke-linejoin="round"/><line x1="78.5" y1="34.5" x2="78.5" y2="61.5" fill="#fff" stroke="#000" stroke-linecap="round" stroke-linejoin="round"/><line x1="82.5" y1="34.5" x2="82.5" y2="66.5" fill="#fff" stroke="#000" stroke-linecap="round" stroke-linejoin="round"/><line x1="87.5" y1="34.5" x2="87.5" y2="60.5" fill="#fff" stroke="#000" stroke-linecap="round" stroke-linejoin="round"/><line x1="91.5" y1="34.5" x2="91.5" y2="65.5" fill="#fff" stroke="#000" stroke-linecap="round" stroke-linejoin="round"/><line x1="96.5" y1="34.5" x2="96.5" y2="52.5" fill="#fff" stroke="#000" stroke-linecap="round" stroke-linejoin="round"/><line x1="100.5" y1="34.5" x2="100.5" y2="46.5" fill="#fff" stroke="#000" stroke-linecap="round" stroke-linejoin="round"/><line x1="104.5" y1="34.5" x2="104.5" y2="50.5" fill="#fff" stroke="#000" stroke-linecap="round" stroke-linejoin="round"/><line x1="109.5" y1="34.5" x2="109.5" y2="57.5" fill="#fff" stroke="#000" stroke-linecap="round" stroke-linejoin="round"/><line x1="113.5" y1="34.5" x2="113.5" y2="67.5" fill="#fff" stroke="#000" stroke-linecap="round" stroke-linejoin="round"/><line x1="117.5" y1="34.5" x2="117.5" y2="67.5" fill="#fff" stroke="#000" stroke-linecap="round" stroke-linejoin="round"/><line x1="122.5" y1="34.5" x2="122.5" y2="60.5" fill="#fff" stroke="#000" stroke-linecap="round" stroke-linejoin="round"/><line x1="126.5" y1="34.5" x2="126.5" y2="54.5" fill="#fff" stroke="#000" stroke-linecap="round" stroke-linejoin="round"/><line x1="130.5" y1="34.5" x2="130.5" y2="45.5" fill="#fff" stroke="#000" stroke-linecap="round" stroke-linejoin="round"/><line x1="135.5" y1="34.5" x2="135.5" y2="44.5" fill="#fff" stroke="#000" stroke-linecap="round" stroke-linejoin="round"/><line x1="139.5" y1="34.5" x2="139.5" y2="48.5" fill="#fff" stroke="#000" stroke-linecap="round" stroke-linejoin="round"/><line x1="143.5" y1="34.5" x2="143.5" y2="54.5" fill="#fff" stroke="#000" stroke-linecap="round" stroke-linejoin="round"/><line x1="148.5" y1="34.5" x2="148.5" y2="56.5" fill="#fff" stroke="#000" stroke-linecap="round" stroke-linejoin="round"/><line x1="152.5" y1="34.5" x2="152.5" y2="65.5" fill="#fff" stroke="#000" stroke-linecap="round" stroke-linejoin="round"/><line x1="156.5" y1="34.5" x2="156.5" y2="60.5" fill="#fff" stroke="#000" stroke-linecap="round" stroke-linejoin="round"/><line x1="161.5" y1="34.5" x2="161.5" y2="54.5" fill="#fff" stroke="#000" stroke-linecap="round" stroke-linejoin="round"/><line x1="165.5" y1="34.5" x2="165.5" y2="49.5" fill="#fff" stroke="#000" stroke-linecap="round" stroke-linejoin="round"/><line x1="169.5" y1="34.5" x2="169.5" y2="65.5" fill="#fff" stroke="#000" stroke-linecap="round" stroke-linejoin="round"/><line x1="174.5" y1="34.5" x2="174.5" y2="57.5" fill="#fff" stroke="#000" stroke-linecap="round" stroke-linejoin="round"/><line x1="178.5" y1="34.5" x2="178.5" y2="52.5" fill="#fff" stroke="#000" stroke-linecap="round" stroke-linejoin="round"/><line x1="182.5" y1="34.5" x2="182.5" y2="51.5" fill="#fff" stroke="#000" stroke-linecap="round" stroke-linejoin="round"/><line x1="187.5" y1="34.5" x2="187.5" y2="47.5" fill="#fff" stroke="#000" stroke-linecap="round" stroke-linejoin="round"/><line x1="191.5" y1="34.5" x2="191.5" y2="50.5" fill="#fff" stroke="#000" stroke-linecap="round" stroke-linejoin="round"/><line x1="195.5" y1="34.5" x2="195.5" y2="48.5" fill="#fff" stroke="#000" stroke-linecap="round" stroke-linejoin="round"/><line x1="200.5" y1="34.5" x2="200.5" y2="48.5" fill="#fff" stroke="#000" stroke-linecap="round" stroke-linejoin="round"/><line x1="204.5" y1="34.5" x2="204.5" y2="55.5" fill="#fff" stroke="#000" stroke-linecap="round" stroke-linejoin="round"/><line x1="208.5" y1="34.5" x2="208.5" y2="53.5" fill="#fff" stroke="#000" stroke-linecap="round" stroke-linejoin="round"/><line x1="213.5" y1="34.5" x2="213.5" y2="61.5" fill="#fff" stroke="#000" stroke-linecap="round" stroke-linejoin="round"/><line x1="217.5" y1="34.5" x2="217.5" y2="66.5" fill="#fff" stroke="#000" stroke-linecap="round" stroke-linejoin="round"/><line x1="221.5" y1="34.5" x2="221.5" y2="60.5" fill="#fff" stroke="#000" stroke-linecap="round" stroke-linejoin="round"/><line x1="226.5" y1="34.5" x2="226.5" y2="65.5" fill="#fff" stroke="#000" stroke-linecap="round" stroke-linejoin="round"/><line x1="230.5" y1="34.5" x2="230.5" y2="52.5" fill="#fff" stroke="#000" stroke-linecap="round" stroke-linejoin="round"/><line x1="234.5" y1="34.5" x2="234.5" y2="46.5" fill="#fff" stroke="#000" stroke-linecap="round" stroke-linejoin="round"/><line x1="239.5" y1="34.5" x2="239.5" y2="50.5" fill="#fff" stroke="#000" stroke-linecap="round" stroke-linejoin="round"/><line x1="243.5" y1="34.5" x2="243.5" y2="57.5" fill="#fff" stroke="#000" stroke-linecap="round" stroke-linejoin="round"/><line x1="247.5" y1="34.5" x2="247.5" y2="67.5" fill="#fff" stroke="#000" stroke-linecap="round" stroke-linejoin="round"/><line x1="252.5" y1="34.5" x2="252.5" y2="67.5" fill="#fff" stroke="#000" stroke-linecap="round" stroke-linejoin="round"/><line x1="256.5" y1="34.5" x2="256.5" y2="60.5" fill="#fff" stroke="#000" stroke-linecap="round" stroke-linejoin="round"/><line x1="260.5" y1="34.5" x2="260.5" y2="54.5" fill="#fff" stroke="#000" stroke-linecap="round" stroke-linejoin="round"/><line x1="265.5" y1="34.5" x2="265.5" y2="45.5" fill="#fff" stroke="#000" stroke-linecap="round" stroke-linejoin="round"/><line x1="269.5" y1="34.5" x2="269.5" y2="44.5" fill="#fff" stroke="#000" stroke-linecap="round" stroke-linejoin="round"/><line x1="274.5" y1="34.5" x2="274.5" y2="48.5" fill="#fff" stroke="#000" stroke-linecap="round" stroke-linejoin="round"/><line x1="278.5" y1="34.5" x2="278.5" y2="54.5" fill="#fff" stroke="#000" stroke-linecap="round" stroke-linejoin="round"/><line x1="282.5" y1="34.5" x2="282.5" y2="56.5" fill="#fff" stroke="#000" stroke-linecap="round" stroke-linejoin="round"/><line x1="287.5" y1="34.5" x2="287.5" y2="65.5" fill="#fff" stroke="#000" stroke-linecap="round" stroke-linejoin="round"/><line x1="291.5" y1="34.5" x2="291.5" y2="60.5" fill="#fff" stroke="#000" stroke-linecap="round" stroke-linejoin="round"/><line x1="295.5" y1="34.5" x2="295.5" y2="54.5" fill="#fff" stroke="#000" stroke-linecap="round" stroke-linejoin="round"/><line x1="300.5" y1="34.5" x2="300.5" y2="49.5" fill="#fff" stroke="#000" stroke-linecap="round" stroke-linejoin="round"/><line x1="304.5" y1="34.5" x2="304.5" y2="65.5" fill="#fff" stroke="#000" stroke-linecap="round" stroke-linejoin="round"/><line x1="308.5" y1="34.5" x2="308.5" y2="57.5" fill="#fff" stroke="#000" stroke-linecap="round" stroke-linejoin="round"/><line x1="313.5" y1="34.5" x2="313.5" y2="52.5" fill="#fff" stroke="#000" stroke-linecap="round" stroke-linejoin="round"/><line x1="317.5" y1="34.5" x2="317.5" y2="51.5" fill="#fff" stroke="#000" stroke-linecap="round" stroke-linejoin="round"/><line x1="321.5" y1="34.5" x2="321.5" y2="47.5" fill="#fff" stroke="#000" stroke-linecap="round" stroke-linejoin="round"/><line x1="326.5" y1="34.5" x2="326.5" y2="50.5" fill="#fff" stroke="#000" stroke-linecap="round" stroke-linejoin="round"/><line x1="330.5" y1="34.5" x2="330.5" y2="48.5" fill="#fff" stroke="#000" stroke-linecap="round" stroke-linejoin="round"/><line x1="334.5" y1="34.5" x2="334.5" y2="48.5" fill="#fff" stroke="#000" stroke-linecap="round" stroke-linejoin="round"/><line x1="339.5" y1="34.5" x2="339.5" y2="55.5" fill="#fff" stroke="#000" stroke-linecap="round" stroke-linejoin="round"/><line x1="343.5" y1="34.5" x2="343.5" y2="62.5" fill="#fff" stroke="#000" stroke-linecap="round" stroke-linejoin="round"/><line x1="347.5" y1="34.5" x2="347.5" y2="61.5" fill="#fff" stroke="#000" stroke-linecap="round" stroke-linejoin="round"/><line x1="352.5" y1="34.5" x2="352.5" y2="55.5" fill="#fff" stroke="#000" stroke-linecap="round" stroke-linejoin="round"/><line x1="356.5" y1="34.5" x2="356.5" y2="43.5" fill="#fff" stroke="#000" stroke-linecap="round" stroke-linejoin="round"/></g><g id="waves__top"><line x1="0.5" y1="24.5" x2="0.5" y2="34.5" fill="#fff" stroke="#000" stroke-linecap="round" stroke-linejoin="round"/><line x1="4.5" y1="20.5" x2="4.5" y2="34.5" fill="#fff" stroke="#000" stroke-linecap="round" stroke-linejoin="round"/><line x1="9.5" y1="14.5" x2="9.5" y2="34.5" fill="#fff" stroke="#000" stroke-linecap="round" stroke-linejoin="round"/><line x1="13.5" y1="11.5" x2="13.5" y2="34.5" fill="#fff" stroke="#000" stroke-linecap="round" stroke-linejoin="round"/><line x1="17.5" y1="2.5" x2="17.5" y2="34.5" fill="#fff" stroke="#000" stroke-linecap="round" stroke-linejoin="round"/><line x1="22.5" y1="7.5" x2="22.5" y2="34.5" fill="#fff" stroke="#000" stroke-linecap="round" stroke-linejoin="round"/><line x1="26.5" y1="14.5" x2="26.5" y2="34.5" fill="#fff" stroke="#000" stroke-linecap="round" stroke-linejoin="round"/><line x1="30.5" y1="19.5" x2="30.5" y2="34.5" fill="#fff" stroke="#000" stroke-linecap="round" stroke-linejoin="round"/><line x1="35.5" y1="2.5" x2="35.5" y2="34.5" fill="#fff" stroke="#000" stroke-linecap="round" stroke-linejoin="round"/><line x1="39.5" y1="10.5" x2="39.5" y2="34.5" fill="#fff" stroke="#000" stroke-linecap="round" stroke-linejoin="round"/><line x1="43.5" y1="16.5" x2="43.5" y2="34.5" fill="#fff" stroke="#000" stroke-linecap="round" stroke-linejoin="round"/><line x1="48.5" y1="17.5" x2="48.5" y2="34.5" fill="#fff" stroke="#000" stroke-linecap="round" stroke-linejoin="round"/><line x1="52.5" y1="21.5" x2="52.5" y2="34.5" fill="#fff" stroke="#000" stroke-linecap="round" stroke-linejoin="round"/><line x1="56.5" y1="18.5" x2="56.5" y2="34.5" fill="#fff" stroke="#000" stroke-linecap="round" stroke-linejoin="round"/><line x1="61.5" y1="20.5" x2="61.5" y2="34.5" fill="#fff" stroke="#000" stroke-linecap="round" stroke-linejoin="round"/><line x1="65.5" y1="20.5" x2="65.5" y2="34.5" fill="#fff" stroke="#000" stroke-linecap="round" stroke-linejoin="round"/><line x1="69.5" y1="12.5" x2="69.5" y2="34.5" fill="#fff" stroke="#000" stroke-linecap="round" stroke-linejoin="round"/><line x1="74.5" y1="15.5" x2="74.5" y2="34.5" fill="#fff" stroke="#000" stroke-linecap="round" stroke-linejoin="round"/><line x1="78.5" y1="6.5" x2="78.5" y2="34.5" fill="#fff" stroke="#000" stroke-linecap="round" stroke-linejoin="round"/><line x1="82.5" y1="1.5" x2="82.5" y2="34.5" fill="#fff" stroke="#000" stroke-linecap="round" stroke-linejoin="round"/><line x1="87.5" y1="7.5" x2="87.5" y2="34.5" fill="#fff" stroke="#000" stroke-linecap="round" stroke-linejoin="round"/><line x1="91.5" y1="2.5" x2="91.5" y2="34.5" fill="#fff" stroke="#000" stroke-linecap="round" stroke-linejoin="round"/><line x1="96.5" y1="16.5" x2="96.5" y2="34.5" fill="#fff" stroke="#000" stroke-linecap="round" stroke-linejoin="round"/><line x1="100.5" y1="22.5" x2="100.5" y2="34.5" fill="#fff" stroke="#000" stroke-linecap="round" stroke-linejoin="round"/><line x1="104.5" y1="18.5" x2="104.5" y2="34.5" fill="#fff" stroke="#000" stroke-linecap="round" stroke-linejoin="round"/><line x1="109.5" y1="10.5" x2="109.5" y2="34.5" fill="#fff" stroke="#000" stroke-linecap="round" stroke-linejoin="round"/><line x1="113.5" y1="0.5" x2="113.5" y2="34.5" fill="#fff" stroke="#000" stroke-linecap="round" stroke-linejoin="round"/><line x1="117.5" y1="0.5" x2="117.5" y2="34.5" fill="#fff" stroke="#000" stroke-linecap="round" stroke-linejoin="round"/><line x1="122.5" y1="7.5" x2="122.5" y2="34.5" fill="#fff" stroke="#000" stroke-linecap="round" stroke-linejoin="round"/><line x1="126.5" y1="14.5" x2="126.5" y2="34.5" fill="#fff" stroke="#000" stroke-linecap="round" stroke-linejoin="round"/><line x1="130.5" y1="23.5" x2="130.5" y2="34.5" fill="#fff" stroke="#000" stroke-linecap="round" stroke-linejoin="round"/><line x1="135.5" y1="24.5" x2="135.5" y2="34.5" fill="#fff" stroke="#000" stroke-linecap="round" stroke-linejoin="round"/><line x1="139.5" y1="20.5" x2="139.5" y2="34.5" fill="#fff" stroke="#000" stroke-linecap="round" stroke-linejoin="round"/><line x1="143.5" y1="14.5" x2="143.5" y2="34.5" fill="#fff" stroke="#000" stroke-linecap="round" stroke-linejoin="round"/><line x1="148.5" y1="11.5" x2="148.5" y2="34.5" fill="#fff" stroke="#000" stroke-linecap="round" stroke-linejoin="round"/><line x1="152.5" y1="2.5" x2="152.5" y2="34.5" fill="#fff" stroke="#000" stroke-linecap="round" stroke-linejoin="round"/><line x1="156.5" y1="7.5" x2="156.5" y2="34.5" fill="#fff" stroke="#000" stroke-linecap="round" stroke-linejoin="round"/><line x1="161.5" y1="14.5" x2="161.5" y2="34.5" fill="#fff" stroke="#000" stroke-linecap="round" stroke-linejoin="round"/><line x1="165.5" y1="19.5" x2="165.5" y2="34.5" fill="#fff" stroke="#000" stroke-linecap="round" stroke-linejoin="round"/><line x1="169.5" y1="2.5" x2="169.5" y2="34.5" fill="#fff" stroke="#000" stroke-linecap="round" stroke-linejoin="round"/><line x1="174.5" y1="10.5" x2="174.5" y2="34.5" fill="#fff" stroke="#000" stroke-linecap="round" stroke-linejoin="round"/><line x1="178.5" y1="16.5" x2="178.5" y2="34.5" fill="#fff" stroke="#000" stroke-linecap="round" stroke-linejoin="round"/><line x1="182.5" y1="17.5" x2="182.5" y2="34.5" fill="#fff" stroke="#000" stroke-linecap="round" stroke-linejoin="round"/><line x1="187.5" y1="21.5" x2="187.5" y2="34.5" fill="#fff" stroke="#000" stroke-linecap="round" stroke-linejoin="round"/><line x1="191.5" y1="18.5" x2="191.5" y2="34.5" fill="#fff" stroke="#000" stroke-linecap="round" stroke-linejoin="round"/><line x1="195.5" y1="20.5" x2="195.5" y2="34.5" fill="#fff" stroke="#000" stroke-linecap="round" stroke-linejoin="round"/><line x1="200.5" y1="20.5" x2="200.5" y2="34.5" fill="#fff" stroke="#000" stroke-linecap="round" stroke-linejoin="round"/><line x1="204.5" y1="12.5" x2="204.5" y2="34.5" fill="#fff" stroke="#000" stroke-linecap="round" stroke-linejoin="round"/><line x1="208.5" y1="15.5" x2="208.5" y2="34.5" fill="#fff" stroke="#000" stroke-linecap="round" stroke-linejoin="round"/><line x1="213.5" y1="6.5" x2="213.5" y2="34.5" fill="#fff" stroke="#000" stroke-linecap="round" stroke-linejoin="round"/><line x1="217.5" y1="1.5" x2="217.5" y2="34.5" fill="#fff" stroke="#000" stroke-linecap="round" stroke-linejoin="round"/><line x1="221.5" y1="7.5" x2="221.5" y2="34.5" fill="#fff" stroke="#000" stroke-linecap="round" stroke-linejoin="round"/><line x1="226.5" y1="2.5" x2="226.5" y2="34.5" fill="#fff" stroke="#000" stroke-linecap="round" stroke-linejoin="round"/><line x1="230.5" y1="16.5" x2="230.5" y2="34.5" fill="#fff" stroke="#000" stroke-linecap="round" stroke-linejoin="round"/><line x1="234.5" y1="22.5" x2="234.5" y2="34.5" fill="#fff" stroke="#000" stroke-linecap="round" stroke-linejoin="round"/><line x1="239.5" y1="18.5" x2="239.5" y2="34.5" fill="#fff" stroke="#000" stroke-linecap="round" stroke-linejoin="round"/><line x1="243.5" y1="10.5" x2="243.5" y2="34.5" fill="#fff" stroke="#000" stroke-linecap="round" stroke-linejoin="round"/><line x1="247.5" y1="0.5" x2="247.5" y2="34.5" fill="#fff" stroke="#000" stroke-linecap="round" stroke-linejoin="round"/><line x1="252.5" y1="0.5" x2="252.5" y2="34.5" fill="#fff" stroke="#000" stroke-linecap="round" stroke-linejoin="round"/><line x1="256.5" y1="7.5" x2="256.5" y2="34.5" fill="#fff" stroke="#000" stroke-linecap="round" stroke-linejoin="round"/><line x1="260.5" y1="14.5" x2="260.5" y2="34.5" fill="#fff" stroke="#000" stroke-linecap="round" stroke-linejoin="round"/><line x1="265.5" y1="23.5" x2="265.5" y2="34.5" fill="#fff" stroke="#000" stroke-linecap="round" stroke-linejoin="round"/><line x1="269.5" y1="24.5" x2="269.5" y2="34.5" fill="#fff" stroke="#000" stroke-linecap="round" stroke-linejoin="round"/><line x1="274.5" y1="20.5" x2="274.5" y2="34.5" fill="#fff" stroke="#000" stroke-linecap="round" stroke-linejoin="round"/><line x1="278.5" y1="14.5" x2="278.5" y2="34.5" fill="#fff" stroke="#000" stroke-linecap="round" stroke-linejoin="round"/><line x1="282.5" y1="11.5" x2="282.5" y2="34.5" fill="#fff" stroke="#000" stroke-linecap="round" stroke-linejoin="round"/><line x1="287.5" y1="2.5" x2="287.5" y2="34.5" fill="#fff" stroke="#000" stroke-linecap="round" stroke-linejoin="round"/><line x1="291.5" y1="7.5" x2="291.5" y2="34.5" fill="#fff" stroke="#000" stroke-linecap="round" stroke-linejoin="round"/><line x1="295.5" y1="14.5" x2="295.5" y2="34.5" fill="#fff" stroke="#000" stroke-linecap="round" stroke-linejoin="round"/><line x1="300.5" y1="19.5" x2="300.5" y2="34.5" fill="#fff" stroke="#000" stroke-linecap="round" stroke-linejoin="round"/><line x1="304.5" y1="2.5" x2="304.5" y2="34.5" fill="#fff" stroke="#000" stroke-linecap="round" stroke-linejoin="round"/><line x1="308.5" y1="10.5" x2="308.5" y2="34.5" fill="#fff" stroke="#000" stroke-linecap="round" stroke-linejoin="round"/><line x1="313.5" y1="16.5" x2="313.5" y2="34.5" fill="#fff" stroke="#000" stroke-linecap="round" stroke-linejoin="round"/><line x1="317.5" y1="17.5" x2="317.5" y2="34.5" fill="#fff" stroke="#000" stroke-linecap="round" stroke-linejoin="round"/><line x1="321.5" y1="21.5" x2="321.5" y2="34.5" fill="#fff" stroke="#000" stroke-linecap="round" stroke-linejoin="round"/><line x1="326.5" y1="18.5" x2="326.5" y2="34.5" fill="#fff" stroke="#000" stroke-linecap="round" stroke-linejoin="round"/><line x1="330.5" y1="20.5" x2="330.5" y2="34.5" fill="#fff" stroke="#000" stroke-linecap="round" stroke-linejoin="round"/><line x1="334.5" y1="20.5" x2="334.5" y2="34.5" fill="#fff" stroke="#000" stroke-linecap="round" stroke-linejoin="round"/><line x1="339.5" y1="12.5" x2="339.5" y2="34.5" fill="#fff" stroke="#000" stroke-linecap="round" stroke-linejoin="round"/><line x1="343.5" y1="5.5" x2="343.5" y2="34.5" fill="#fff" stroke="#000" stroke-linecap="round" stroke-linejoin="round"/><line x1="347.5" y1="6.5" x2="347.5" y2="34.5" fill="#fff" stroke="#000" stroke-linecap="round" stroke-linejoin="round"/><line x1="352.5" y1="12.5" x2="352.5" y2="34.5" fill="#fff" stroke="#000" stroke-linecap="round" stroke-linejoin="round"/><line x1="356.5" y1="25.5" x2="356.5" y2="34.5" fill="#fff" stroke="#000" stroke-linecap="round" stroke-linejoin="round"/></g></g></g></g></svg>