<svg xmlns="http://www.w3.org/2000/svg" xmlns:xlink="http://www.w3.org/1999/xlink" width="665" height="665" viewBox="0 0 665 665">
  <defs>
    <linearGradient id="linear-gradient" x1="221.24" y1="286.15" x2="286.1" y2="286.15" gradientUnits="userSpaceOnUse">
      <stop offset="0" stop-color="#f867b0"/>
      <stop offset="1" stop-color="#fe9a69"/>
    </linearGradient>
    <linearGradient id="linear-gradient-2" x1="418.83" y1="441.03" x2="418.83" y2="321.81" gradientUnits="userSpaceOnUse">
      <stop offset="0" stop-color="#9f6aff"/>
      <stop offset="1" stop-color="#51b6fd"/>
    </linearGradient>
    <linearGradient id="linear-gradient-3" x1="255.11" y1="345.72" x2="255.11" y2="224.74" xlink:href="#linear-gradient"/>
    <linearGradient id="linear-gradient-4" x1="420.26" y1="441.03" x2="420.26" y2="320.07" gradientUnits="userSpaceOnUse">
      <stop offset="0" stop-color="#51b6fd"/>
      <stop offset="1" stop-color="#9f6aff"/>
    </linearGradient>
    <linearGradient id="linear-gradient-5" x1="177.24" y1="530.98" x2="177.24" y2="420.67" xlink:href="#linear-gradient-2"/>
    <linearGradient id="linear-gradient-6" x1="252.26" y1="530.98" x2="252.26" y2="500.56" xlink:href="#linear-gradient-4"/>
    <linearGradient id="linear-gradient-7" x1="180.29" y1="503.7" x2="180.29" y2="417.13" xlink:href="#linear-gradient-4"/>
  </defs>
  <title>animation06</title>
  <g id="Layer_2" data-name="Layer 2">
    <g id="Layer_1-2" data-name="Layer 1">
      <g>
        <line id="bezier04" x1="334.65" y1="610" x2="285.65" y2="582" fill="none"/>
        <line id="bezier03" x1="393.65" y1="644" x2="334.65" y2="610" fill="none"/>
        <line id="bezier02" x1="182.65" y1="522" x2="393.65" y2="644" fill="none"/>
        <line id="bezier01" x1="292.15" y1="585.5" x2="182.65" y2="522" fill="none"/>
        <g>
          <polyline points="175.98 441.62 223.24 414.41 270.38 441.62 223.19 468.86 175.98 441.62" fill="#142842"/>
          <polyline points="175.98 441.62 175.98 448.44 223.21 475.7 270.38 448.44 270.38 441.62 223.19 468.86 175.98 441.62" fill="#0a0a2c"/>
          <path d="M221.51,440.78l-16.46,2.61.24-.17L226,430.36l.29-.15L222.7,440A1.45,1.45,0,0,1,221.51,440.78Z" fill="#fff"/>
          <path d="M229.18,430.62l10.8,6.26c1,.59.92,1.64-.21,2.34l-20,12.39a4.18,4.18,0,0,1-3.89.2l-10.81-6.25a1.39,1.39,0,0,1-.5-.45l16.61-2.53a6.21,6.21,0,0,0,2.29-.81,2.9,2.9,0,0,0,1.27-1.4l3.66-10A2.61,2.61,0,0,1,229.18,430.62Z" fill="#fff"/>
        </g>
        <g>
          <polyline points="191.55 344.6 144.45 371.9 144.47 426.41 191.55 399.12 191.55 344.6" fill="#fff"/>
          <path d="M176.3,385.1a11.8,11.8,0,0,0-3.7,3.52l-9-.25a6.91,6.91,0,0,0,.16-1.4,4.49,4.49,0,0,0-.16-1.21l9-10.66a4.83,4.83,0,0,0,3.7-.73c3.12-1.8,5.64-5.78,5.64-8.89s-2.52-4.19-5.64-2.39-5.64,5.77-5.64,8.88a4.49,4.49,0,0,0,.16,1.21l-9,10.66a4.91,4.91,0,0,0-3.71.74c-3.11,1.79-5.64,5.77-5.64,8.89s2.53,4.18,5.64,2.39a12,12,0,0,0,3.71-3.53l9,.26a6.74,6.74,0,0,0-.16,1.39c0,3.12,2.53,4.19,5.64,2.4s5.64-5.78,5.64-8.89S179.42,383.3,176.3,385.1Z" fill="#51b6fd"/>
          <polyline points="144.47 426.41 138.41 422.86 138.41 368.58 144.45 371.9 144.47 426.41" fill="#e4e4e4"/>
          <polyline points="185.81 341.32 138.41 368.58 144.45 371.9 191.55 344.6 185.81 341.32" fill="#e4e4e4"/>
        </g>
        <g>
          <polyline points="339.11 558.59 386.36 531.38 433.5 558.59 386.31 585.84 339.11 558.59" fill="#51b6fd"/>
          <polygon points="399.45 551.73 395.98 558.81 404.2 565.39 391.36 564.61 384.5 570.5 380.04 562.94 367.57 559.99 377.65 556.11 376.81 548.39 387.51 553.55 399.45 551.73" fill="#fff"/>
          <polyline points="339.11 558.59 339.11 565.4 386.34 592.67 433.5 565.4 433.5 558.59 386.31 585.84 339.11 558.59" fill="#4696f5"/>
        </g>
        <rect width="665" height="665" fill="none"/>
        <g>
          <path d="M209.45,67.38l-7,4.08-.09,30.18,0,0V113h0l-.11,259.15L556.43,579.48l7-4.07,1.23-302.94Z" fill="#0a0a2c"/>
          <g>
            <path d="M236.83,106.84h0a5,5,0,0,1,2.45.76,13.23,13.23,0,0,1,5.89,10.22c0,2.31-1,3.68-2.72,3.68a5,5,0,0,1-2.43-.75,13,13,0,0,1-5.91-10.21c0-2.32,1-3.7,2.72-3.7m0-.79c-2.07,0-3.49,1.65-3.5,4.49a13.86,13.86,0,0,0,6.3,10.88,5.66,5.66,0,0,0,2.82.86c2.06,0,3.49-1.63,3.5-4.46a13.91,13.91,0,0,0-6.28-10.9,5.75,5.75,0,0,0-2.84-.87Z" fill="#fff"/>
            <path d="M218,95.93h0a5,5,0,0,1,2.44.76,13.06,13.06,0,0,1,5.9,10.23c0,2.3-1,3.68-2.72,3.68a5,5,0,0,1-2.44-.76,13.19,13.19,0,0,1-5.91-10.21c0-2.32,1-3.7,2.73-3.7m0-.78c-2.07,0-3.5,1.64-3.51,4.48a13.91,13.91,0,0,0,6.3,10.89,5.79,5.79,0,0,0,2.83.86c2.07,0,3.5-1.63,3.51-4.46a13.9,13.9,0,0,0-6.3-10.9,5.74,5.74,0,0,0-2.83-.87Z" fill="#fff"/>
            <path d="M255.72,117.74h0a5,5,0,0,1,2.44.76,13,13,0,0,1,5.91,10.23c0,2.3-1,3.68-2.73,3.68a5,5,0,0,1-2.44-.76,13,13,0,0,1-5.9-10.21c0-2.32,1-3.7,2.72-3.7m0-.78c-2.07,0-3.5,1.64-3.51,4.48a13.93,13.93,0,0,0,6.3,10.89,5.82,5.82,0,0,0,2.83.86c2.07,0,3.5-1.63,3.51-4.46a13.9,13.9,0,0,0-6.3-10.91,5.82,5.82,0,0,0-2.83-.86Z" fill="#fff"/>
            <path d="M290.35,172.12,526.7,308.58l-.06,21.84L290.29,194l.06-21.85m-.77-1.35-.08,23.65L527.42,331.78l.07-23.65L289.58,170.77Z" fill="#fff"/>
            <path d="M204.63,75.26,555.46,277.81l-.1,36.52L204.52,111.77l.11-36.51m-.78-1.36-.11,38.32,352.4,203.46.11-38.32L203.85,73.9Z" fill="#fff"/>
            <path d="M204.51,115.21,555.35,317.76l-.1,36.52L204.41,151.72l.1-36.51m-.77-1.35-.12,38.31L556,355.63l.11-38.32L203.74,113.86Z" fill="#fff"/>
          </g>
          <polyline points="204.37 155.34 204.37 370.95 555.77 576.48 555.77 358.12 203.41 155.34" fill="#142842"/>
          <polyline points="221.18 185.63 221.17 212.87 533.77 393.34 533.79 366.14 221.18 185.63" fill="#51b6fd"/>
          <polyline points="221.27 226.59 221.24 308.4 286.03 345.72 286.1 264.05 221.27 226.59" fill="url(#linear-gradient)"/>
          <polyline points="297.79 277.59 297.69 359.15 362.68 396.8 362.7 315.05 297.79 277.59" fill="#fff"/>
          <polyline points="386.26 321.81 386.24 403.62 451.19 441.03 451.42 359.39 386.26 321.81" fill="url(#linear-gradient-2)"/>
          <polyline points="468.9 369.53 468.89 512.6 533.79 550.07 534.06 407.11 468.9 369.53" fill="#51b6fd"/>
          <polyline points="221.12 185.61 224.16 183.85 536.75 364.44 536.69 391.72 533.8 393.4 533.79 366.13 221.12 185.61" fill="#f37c54"/>
          <polyline points="536.75 364.44 533.79 366.13 533.8 393.4 536.69 391.64 536.75 364.44" fill="#4696f5"/>
          <polyline points="221.11 226.48 224.19 224.74 289.07 262.23 289.11 343.92 286.03 345.72 286.1 264.05 221.11 226.48" fill="url(#linear-gradient-3)"/>
          <polyline points="386.26 321.81 389.34 320.07 454.22 357.56 454.26 439.25 451.19 441.03 451.42 359.39 386.26 321.81" fill="url(#linear-gradient-4)"/>
          <polyline points="468.89 369.53 471.97 367.79 536.85 405.27 536.88 548.29 533.8 550.07 533.74 406.92 468.89 369.53" fill="#f2c06b"/>
          <polyline points="536.85 405.27 536.85 405.27 536.88 548.29 536.88 548.29 536.85 405.27" fill="#e5f4f7"/>
          <polyline points="536.85 405.27 536.85 405.27 536.88 548.29 536.88 548.29 536.85 405.27" fill="#d1d3d4"/>
          <polyline points="536.85 405.27 533.74 406.92 533.8 550.07 536.88 548.29 536.85 405.27" fill="#4696f5"/>
          <polyline points="224.16 183.85 221.12 185.61 533.79 366.13 536.75 364.44 224.16 183.85" fill="#4696f5"/>
          <polyline points="471.97 367.79 468.89 369.53 533.74 406.92 536.85 405.27 471.97 367.79" fill="#4696f5"/>
          <g>
            <polyline points="221.1 321.86 221.1 328.67 286 366.13 286 359.33 221.1 321.86" fill="#e5f4f7"/>
            <polyline points="221.1 321.86 221.1 328.67 286 366.13 286 359.33 221.1 321.86" fill="#e4e4e4"/>
            <polyline points="289.15 357.49 286 359.33 286 366.13 289.08 364.33 289.15 357.49" fill="#e5f4f7"/>
            <polyline points="289.15 357.49 286 359.33 286 366.13 289.08 364.33 289.15 357.49" fill="#fff"/>
            <polyline points="224.25 320.02 221.1 321.86 286 359.33 289.15 357.49 224.25 320.02" fill="#e5f4f7"/>
            <polyline points="224.25 320.02 221.1 321.86 286 359.33 289.15 357.49 224.25 320.02" fill="#fff"/>
            <polyline points="221.1 335.49 221.1 342.3 286 379.77 286 372.95 221.1 335.49" fill="#e5f4f7"/>
            <polyline points="221.1 335.49 221.1 342.3 286 379.77 286 372.95 221.1 335.49" fill="#e4e4e4"/>
            <polyline points="289.15 371.12 286 372.95 286 379.77 289.08 377.96 289.15 371.12" fill="#e5f4f7"/>
            <polyline points="289.15 371.12 286 372.95 286 379.77 289.08 377.96 289.15 371.12" fill="#fff"/>
            <polyline points="224.25 333.65 221.1 335.49 286 372.95 289.15 371.12 224.25 333.65" fill="#e5f4f7"/>
            <polyline points="224.25 333.65 221.1 335.49 286 372.95 289.15 371.12 224.25 333.65" fill="#fff"/>
            <polyline points="221.1 349.1 221.1 355.92 286 393.38 286 386.57 221.1 349.1" fill="#e5f4f7"/>
            <polyline points="221.1 349.1 221.1 355.92 286 393.38 286 386.57 221.1 349.1" fill="#e4e4e4"/>
            <polyline points="289.15 384.74 286 386.57 286 393.38 289.08 391.58 289.15 384.74" fill="#e5f4f7"/>
            <polyline points="289.15 384.74 286 386.57 286 393.38 289.08 391.58 289.15 384.74" fill="#fff"/>
            <polyline points="224.25 347.27 221.1 349.1 286 386.57 289.15 384.74 224.25 347.27" fill="#e5f4f7"/>
            <polyline points="224.25 347.27 221.1 349.1 286 386.57 289.15 384.74 224.25 347.27" fill="#fff"/>
            <polyline points="221.1 362.73 221.1 369.54 286 407.01 286 400.19 221.1 362.73" fill="#e5f4f7"/>
            <polyline points="221.1 362.73 221.1 369.54 286 407.01 286 400.19 221.1 362.73" fill="#e4e4e4"/>
            <polyline points="289.15 398.36 286 400.19 286 407.01 289.08 405.2 289.15 398.36" fill="#e5f4f7"/>
            <polyline points="289.15 398.36 286 400.19 286 407.01 289.08 405.2 289.15 398.36" fill="#fff"/>
            <polyline points="224.25 360.9 221.1 362.73 286 400.19 289.15 398.36 224.25 360.9" fill="#e5f4f7"/>
            <polyline points="224.25 360.9 221.1 362.73 286 400.19 289.15 398.36 224.25 360.9" fill="#fff"/>
          </g>
          <g>
            <polyline points="300.1 369.86 300.1 376.67 365 414.13 365 407.33 300.1 369.86" fill="#e5f4f7"/>
            <polyline points="300.1 369.86 300.1 376.67 365 414.13 365 407.33 300.1 369.86" fill="#e4e4e4"/>
            <polyline points="368.15 405.49 365 407.33 365 414.13 368.08 412.33 368.15 405.49" fill="#e5f4f7"/>
            <polyline points="368.15 405.49 365 407.33 365 414.13 368.08 412.33 368.15 405.49" fill="#fff"/>
            <polyline points="303.25 368.02 300.1 369.86 365 407.33 368.15 405.49 303.25 368.02" fill="#e5f4f7"/>
            <polyline points="303.25 368.02 300.1 369.86 365 407.33 368.15 405.49 303.25 368.02" fill="#fff"/>
            <polyline points="300.1 383.49 300.1 390.3 365 427.77 365 420.95 300.1 383.49" fill="#e5f4f7"/>
            <polyline points="300.1 383.49 300.1 390.3 365 427.77 365 420.95 300.1 383.49" fill="#e4e4e4"/>
            <polyline points="368.15 419.12 365 420.95 365 427.77 368.08 425.96 368.15 419.12" fill="#e5f4f7"/>
            <polyline points="368.15 419.12 365 420.95 365 427.77 368.08 425.96 368.15 419.12" fill="#fff"/>
            <polyline points="303.25 381.65 300.1 383.49 365 420.95 368.15 419.12 303.25 381.65" fill="#e5f4f7"/>
            <polyline points="303.25 381.65 300.1 383.49 365 420.95 368.15 419.12 303.25 381.65" fill="#fff"/>
            <polyline points="300.1 397.1 300.1 403.92 365 441.38 365 434.57 300.1 397.1" fill="#e5f4f7"/>
            <polyline points="300.1 397.1 300.1 403.92 365 441.38 365 434.57 300.1 397.1" fill="#e4e4e4"/>
            <polyline points="368.15 432.74 365 434.57 365 441.38 368.08 439.58 368.15 432.74" fill="#e5f4f7"/>
            <polyline points="368.15 432.74 365 434.57 365 441.38 368.08 439.58 368.15 432.74" fill="#fff"/>
            <polyline points="303.25 395.27 300.1 397.1 365 434.57 368.15 432.74 303.25 395.27" fill="#e5f4f7"/>
            <polyline points="303.25 395.27 300.1 397.1 365 434.57 368.15 432.74 303.25 395.27" fill="#fff"/>
            <polyline points="300.1 410.73 300.1 417.54 365 455.01 365 448.19 300.1 410.73" fill="#e5f4f7"/>
            <polyline points="300.1 410.73 300.1 417.54 365 455.01 365 448.19 300.1 410.73" fill="#e4e4e4"/>
            <polyline points="368.15 446.36 365 448.19 365 455.01 368.08 453.2 368.15 446.36" fill="#e5f4f7"/>
            <polyline points="368.15 446.36 365 448.19 365 455.01 368.08 453.2 368.15 446.36" fill="#fff"/>
            <polyline points="303.25 408.9 300.1 410.73 365 448.19 368.15 446.36 303.25 408.9" fill="#e5f4f7"/>
            <polyline points="303.25 408.9 300.1 410.73 365 448.19 368.15 446.36 303.25 408.9" fill="#fff"/>
          </g>
          <polyline points="386.3 417.27 386.3 424.09 451.2 461.55 451.2 454.74 386.3 417.27" fill="#e5f4f7"/>
          <polyline points="386.3 417.27 386.3 424.09 451.2 461.55 451.2 454.74 386.3 417.27" fill="#e4e4e4"/>
          <polyline points="454.35 452.91 451.2 454.74 451.2 461.55 454.29 459.75 454.35 452.91" fill="#e5f4f7"/>
          <polyline points="454.35 452.91 451.2 454.74 451.2 461.55 454.29 459.75 454.35 452.91" fill="#fff"/>
          <polyline points="389.45 415.44 386.3 417.27 451.2 454.74 454.35 452.91 389.45 415.44" fill="#e5f4f7"/>
          <polyline points="389.45 415.44 386.3 417.27 451.2 454.74 454.35 452.91 389.45 415.44" fill="#fff"/>
          <polyline points="386.3 430.9 386.3 437.71 451.2 475.18 451.2 468.37 386.3 430.9" fill="#e5f4f7"/>
          <polyline points="386.3 430.9 386.3 437.71 451.2 475.18 451.2 468.37 386.3 430.9" fill="#e4e4e4"/>
          <polyline points="454.35 466.53 451.2 468.37 451.2 475.18 454.29 473.37 454.35 466.53" fill="#e5f4f7"/>
          <polyline points="454.35 466.53 451.2 468.37 451.2 475.18 454.29 473.37 454.35 466.53" fill="#fff"/>
          <polyline points="389.45 429.07 386.3 430.9 451.2 468.37 454.35 466.53 389.45 429.07" fill="#e5f4f7"/>
          <polyline points="389.45 429.07 386.3 430.9 451.2 468.37 454.35 466.53 389.45 429.07" fill="#fff"/>
          <polyline points="386.3 444.52 386.3 451.33 451.2 488.8 451.2 481.98 386.3 444.52" fill="#e5f4f7"/>
          <polyline points="386.3 444.52 386.3 451.33 451.2 488.8 451.2 481.98 386.3 444.52" fill="#e4e4e4"/>
          <polyline points="454.35 480.15 451.2 481.98 451.2 488.8 454.29 486.99 454.35 480.15" fill="#e5f4f7"/>
          <polyline points="454.35 480.15 451.2 481.98 451.2 488.8 454.29 486.99 454.35 480.15" fill="#fff"/>
          <polyline points="389.45 442.69 386.3 444.52 451.2 481.98 454.35 480.15 389.45 442.69" fill="#e5f4f7"/>
          <polyline points="389.45 442.69 386.3 444.52 451.2 481.98 454.35 480.15 389.45 442.69" fill="#fff"/>
          <polyline points="386.3 458.14 386.3 464.96 451.2 502.42 451.2 495.61 386.3 458.14" fill="#e5f4f7"/>
          <polyline points="386.3 458.14 386.3 464.96 451.2 502.42 451.2 495.61 386.3 458.14" fill="#e4e4e4"/>
          <polyline points="454.35 493.77 451.2 495.61 451.2 502.42 454.29 500.62 454.35 493.77" fill="#e5f4f7"/>
          <polyline points="454.35 493.77 451.2 495.61 451.2 502.42 454.29 500.62 454.35 493.77" fill="#fff"/>
          <polyline points="389.45 456.31 386.3 458.14 451.2 495.61 454.35 493.77 389.45 456.31" fill="#e5f4f7"/>
          <polyline points="389.45 456.31 386.3 458.14 451.2 495.61 454.35 493.77 389.45 456.31" fill="#fff"/>
          <polyline points="306.75 272.42 297.79 277.59 362.7 315.05 371.6 309.91 306.75 272.42" fill="#e4e4e4"/>
          <polygon points="371.6 309.91 371.55 391.7 362.68 396.8 362.7 315.05 371.6 309.91" fill="#e4e4e4"/>
        </g>
        <g>
          <polyline points="249.21 530.98 105.28 447.94 105.28 420.67 249.21 503.7 249.21 530.98" fill="#eb4517"/>
          <polyline points="249.21 530.98 105.28 447.94 105.28 420.67 249.21 503.7 249.21 530.98" fill="url(#linear-gradient-5)"/>
          <polyline points="108.87 432.32 107.46 431.51 107.46 421.92 108.87 422.74 108.87 432.32" fill="#fff"/>
          <polyline points="112.41 434.37 111 433.55 111 423.97 112.41 424.78 112.41 434.37" fill="#fff"/>
          <polyline points="115.96 436.42 114.54 435.6 114.54 426.01 115.96 426.83 115.96 436.42" fill="#fff"/>
          <polyline points="119.5 438.46 118.09 437.64 118.09 428.06 119.5 428.87 119.5 438.46" fill="#fff"/>
          <polyline points="126.59 442.55 125.18 441.73 125.18 432.15 126.59 432.96 126.59 442.55" fill="#fff"/>
          <polyline points="130.13 444.59 128.72 443.78 128.72 434.19 130.13 435 130.13 444.59" fill="#fff"/>
          <polyline points="133.67 446.64 132.26 445.82 132.26 436.24 133.67 437.05 133.67 446.64" fill="#fff"/>
          <polyline points="137.22 448.68 135.81 447.87 135.81 438.28 137.22 439.1 137.22 448.68" fill="#fff"/>
          <polyline points="144.31 452.77 142.89 451.95 142.89 442.37 144.31 443.18 144.31 452.77" fill="#fff"/>
          <polyline points="147.85 454.81 146.44 454 146.44 444.41 147.85 445.23 147.85 454.81" fill="#fff"/>
          <polyline points="151.39 456.86 149.98 456.04 149.98 446.46 151.39 447.27 151.39 456.86" fill="#fff"/>
          <polyline points="154.94 458.9 153.53 458.09 153.53 448.5 154.94 449.32 154.94 458.9" fill="#fff"/>
          <polyline points="162.03 462.99 160.61 462.18 160.61 452.59 162.03 453.41 162.03 462.99" fill="#fff"/>
          <polyline points="165.57 465.04 164.16 464.22 164.16 454.64 165.57 455.45 165.57 465.04" fill="#fff"/>
          <polyline points="169.11 467.08 167.7 466.27 167.7 456.68 169.11 457.5 169.11 467.08" fill="#fff"/>
          <polyline points="172.66 469.12 171.24 468.31 171.24 458.72 172.66 459.54 172.66 469.12" fill="#fff"/>
          <polyline points="179.74 473.21 178.33 472.4 178.33 462.81 179.74 463.63 179.74 473.21" fill="#fff"/>
          <polyline points="183.29 475.26 181.88 474.44 181.88 464.86 183.29 465.67 183.29 475.26" fill="#fff"/>
          <polyline points="186.83 477.3 185.42 476.49 185.42 466.9 186.83 467.71 186.83 477.3" fill="#fff"/>
          <polyline points="190.37 479.35 188.96 478.53 188.96 468.95 190.37 469.76 190.37 479.35" fill="#fff"/>
          <polyline points="197.46 483.44 196.05 482.62 196.05 473.04 197.46 473.85 197.46 483.44" fill="#fff"/>
          <polyline points="201.01 485.48 199.59 484.67 199.59 475.08 201.01 475.89 201.01 485.48" fill="#fff"/>
          <polyline points="204.55 487.52 203.14 486.71 203.14 477.13 204.55 477.94 204.55 487.52" fill="#fff"/>
          <polyline points="208.09 489.57 206.68 488.76 206.68 479.17 208.09 479.98 208.09 489.57" fill="#fff"/>
          <polyline points="215.18 493.66 213.77 492.84 213.77 483.26 215.18 484.07 215.18 493.66" fill="#fff"/>
          <polyline points="218.72 495.7 217.31 494.89 217.31 485.3 218.72 486.12 218.72 495.7" fill="#fff"/>
          <polyline points="222.27 497.75 220.86 496.93 220.86 487.35 222.27 488.16 222.27 497.75" fill="#fff"/>
          <polyline points="225.81 499.79 224.4 498.98 224.4 489.39 225.81 490.2 225.81 499.79" fill="#fff"/>
          <polyline points="232.9 503.88 231.49 503.06 231.49 493.48 232.9 494.3 232.9 503.88" fill="#fff"/>
          <polyline points="236.44 505.93 235.03 505.11 235.03 495.52 236.44 496.34 236.44 505.93" fill="#fff"/>
          <polyline points="239.99 507.97 238.58 507.15 238.58 497.57 239.99 498.38 239.99 507.97" fill="#fff"/>
          <polyline points="243.53 510.01 242.12 509.2 242.12 499.62 243.53 500.43 243.53 510.01" fill="#fff"/>
          <polyline points="123.04 444.55 121.63 443.74 121.63 430.1 123.04 430.92 123.04 444.55" fill="#fff"/>
          <polyline points="140.76 454.77 139.35 453.96 139.35 440.32 140.76 441.14 140.76 454.77" fill="#fff"/>
          <polyline points="158.48 465 157.07 464.18 157.07 450.55 158.48 451.36 158.48 465" fill="#fff"/>
          <polyline points="176.2 475.22 174.79 474.41 174.79 460.77 176.2 461.58 176.2 475.22" fill="#fff"/>
          <polyline points="193.92 485.44 192.51 484.63 192.51 470.99 193.92 471.81 193.92 485.44" fill="#fff"/>
          <polyline points="211.64 495.66 210.23 494.85 210.23 481.21 211.64 482.03 211.64 495.66" fill="#fff"/>
          <polyline points="229.36 505.89 227.94 505.07 227.94 491.44 229.36 492.25 229.36 505.89" fill="#fff"/>
          <polyline points="247.07 516.11 245.66 515.3 245.66 501.66 247.07 502.47 247.07 516.11" fill="#fff"/>
          <polyline points="255.31 500.56 255.31 527.74 249.21 530.98 249.21 503.7 255.31 500.56" fill="url(#linear-gradient-6)"/>
          <polyline points="105.28 420.67 111.36 417.13 255.31 500.56 249.21 503.7 105.28 420.67" fill="url(#linear-gradient-7)"/>
        </g>
        <g id="ladderGuy">
          <polyline points="332.54 478.6 332.55 481.55 332.55 481.56 332.54 478.61 332.54 478.6" fill="#e4e4e5"/>
          <polyline points="311.69 385.09 317.54 381.65 323.47 385.09 306.02 463.62 300.14 467.05 317.62 388.53 311.69 385.09" fill="#0a0a2c"/>
          <polyline points="309.14 403.98 309.14 410.8 344.54 431.24 344.51 424.4 309.14 403.98" fill="#142842"/>
          <polyline points="309.14 403.98 314.98 400.62 350.44 421.02 350.44 427.83 344.54 431.24 344.51 424.4 309.14 403.98" fill="#0a0a2c"/>
          <polyline points="319.47 403.19 319.46 403.19 350.34 420.96 319.47 403.19" fill="#fffffe"/>
          <polyline points="319.47 403.19 319.46 403.19 350.34 420.96 319.47 403.19" fill="#d2cfcb"/>
          <polyline points="313.61 406.57 313.6 406.57 344.51 424.4 313.61 406.57" fill="#b19380"/>
          <polyline points="319.46 403.19 313.61 406.57 344.51 424.4 344.54 431.24 348.57 428.9 350.34 420.96 319.46 403.19" fill="#0a0a2c"/>
          <polyline points="303.76 428.02 303.76 434.84 339.17 455.27 339.14 448.44 303.76 428.02" fill="#142842"/>
          <polyline points="303.76 428.02 309.6 424.65 345.07 445.05 345.07 451.87 339.17 455.27 339.14 448.44 303.76 428.02" fill="#0a0a2c"/>
          <polyline points="314.11 427.24 314.1 427.24 344.99 445.01 344.99 445.01 314.11 427.24" fill="#fffffe"/>
          <polyline points="314.11 427.24 314.1 427.24 344.99 445.01 344.99 445.01 314.11 427.24" fill="#fff"/>
          <polyline points="314.1 427.23 314.1 427.24 314.1 427.24 314.11 427.24 314.1 427.23" fill="#0a0a2c"/>
          <polyline points="314.1 427.24 308.26 430.59 339.14 448.44 339.17 455.27 343.23 452.93 344.99 445.01 314.1 427.24 314.1 427.24" fill="#0a0a2c"/>
          <polyline points="347.08 405.56 352.93 402.12 358.86 405.56 341.41 484.09 335.53 487.51 353.01 409 347.08 405.56" fill="#0a0a2c"/>
          <polyline points="294.24 463.61 300.14 467.05 317.62 388.53 311.69 385.09 294.24 463.61" fill="#142842"/>
          <polyline points="311.94 384.94 311.7 385.09 311.94 385.23 311.94 384.94" fill="#0a0a2c"/>
          <polyline points="352.93 402.12 347.93 405.06 347.08 405.56 353.01 409 358.86 405.56 352.93 402.12" fill="#0a0a2c"/>
          <polyline points="300.98 433.21 306.83 429.77 312.76 433.21 281.93 572.05 276.05 575.47 306.91 436.65 300.98 433.21" fill="#0a0a2c"/>
          <polyline points="298.43 452.11 298.43 458.92 333.83 479.36 333.8 472.52 298.43 452.11" fill="#142842"/>
          <polyline points="292.17 502.96 289.27 508.11 324.67 528.54 324.64 521.71 292.17 502.96" fill="#142842"/>
          <polyline points="286.8 527.13 283.37 532 318.77 552.43 318.74 545.6 286.8 527.13" fill="#142842"/>
          <polyline points="297.55 478.72 296.24 484.79 328.46 503.39 328.43 496.56 297.55 478.72" fill="#142842"/>
          <polyline points="281.43 551.23 277.45 555.78 312.86 576.22 312.83 569.39 281.43 551.23" fill="#142842"/>
          <polyline points="281.43 551.23 287.23 547.83 318.76 566 318.76 572.81 312.86 576.22 312.83 569.39 281.43 551.23" fill="#0a0a2c"/>
          <polyline points="298.43 452.11 304.27 448.74 339.73 469.14 339.73 475.95 333.83 479.36 333.8 472.52 298.43 452.11" fill="#0a0a2c"/>
          <polyline points="297.55 478.72 303.39 475.35 334.36 493.17 334.36 499.98 328.46 503.39 328.43 496.56 297.55 478.72" fill="#0a0a2c"/>
          <polyline points="292.17 502.96 298.03 499.58 330.57 518.32 330.57 525.13 324.67 528.54 324.64 521.71 292.17 502.96" fill="#0a0a2c"/>
          <polyline points="286.8 527.13 292.64 523.78 324.67 542.21 324.67 549.02 318.77 552.43 318.74 545.6 286.8 527.13" fill="#0a0a2c"/>
          <polyline points="308.74 451.31 302.87 454.67 333.8 472.52 333.83 479.36 339.73 475.95 339.73 469.14 308.74 451.31" fill="#0a0a2c"/>
          <polyline points="303.39 475.35 297.55 478.72 328.43 496.56 328.46 503.39 334.36 499.98 334.36 493.17 332.58 492.15 303.39 475.35" fill="#0a0a2c"/>
          <polyline points="298.03 499.58 298.02 499.59 292.17 502.96 324.64 521.71 324.67 528.54 330.57 525.13 330.57 520.15 330.57 518.32 298.03 499.58" fill="#0a0a2c"/>
          <polyline points="292.64 523.78 286.8 527.13 318.74 545.6 318.77 552.43 324.67 549.02 324.67 542.21 311.54 534.65 292.64 523.78" fill="#0a0a2c"/>
          <polyline points="287.23 547.83 281.43 551.23 312.83 569.39 312.86 576.22 318.76 572.81 318.76 566 287.23 547.83" fill="#0a0a2c"/>
          <polygon points="336.37 453.68 342.22 450.23 348.15 453.68 317.32 592.51 311.44 595.94 342.3 457.12 336.37 453.68" fill="#0a0a2c"/>
          <polygon points="270.14 572.04 276.08 575.47 310.39 420.95 300.98 433.21 270.14 572.04" fill="#142842"/>
          <polygon points="304.81 428.6 304.81 435.41 340.22 455.85 340.18 449.02 304.81 428.6" fill="#142842"/>
          <polygon points="305.53 592.51 311.44 595.94 347.63 432.95 336.37 453.68 305.53 592.51" fill="#142842"/>
          <polygon points="307.37 452.08 308.74 451.31 309.01 450.17 304.26 448.59 303.94 450.03 307.37 452.08" fill="#0a0a2c"/>
          <polygon points="329.62 484.08 335.53 487.51 353.01 409 347.08 405.56 329.62 484.08" fill="#142842"/>
          <polyline points="309.84 353.09 310.78 352.53 316.66 349.11 317.83 349.79 323.78 353.22 317.83 356.59 311.99 353.22 311.99 353.22 311.72 353.06 310.17 353.78 309.84 353.09" fill="#4696f5"/>
          <path d="M322.8,352.65l1,.57h0l-1-.57m-6.14-3.54-5.88,3.42-.94.56.33.69,1.55-.72.27.16h0l5.83,3.36v-6.79L322,352.2h0l-4.18-2.41-1.17-.68" fill="#4696f5"/>
          <polyline points="329.63 363.41 329.63 404.28 311.93 394.08 311.99 353.22 329.63 363.41" fill="#51b6fd"/>
          <polygon points="329.63 404.28 329.63 445.15 320.52 439.92 320.52 399.04 329.63 404.28" fill="#55565a"/>
          <polygon points="320.52 399.04 320.52 439.92 311.93 434.91 311.93 394.04 320.52 399.04" fill="#55565a"/>
          <polyline points="335.48 359.98 335.48 400.85 329.64 397.48 329.64 363.41 335.48 359.98" fill="#4696f5"/>
          <polygon points="329.6 397.49 329.64 397.51 335.48 400.85 329.64 404.28 329.6 397.49" fill="#4696f5"/>
          <polygon points="318.9 438.98 322.14 440.86 322.14 399.99 318.9 398.1 318.9 438.98" fill="#342e1f"/>
          <path d="M329.63,363.41l10.74,8.73a1.91,1.91,0,0,0,2.14.17l10.66-6.18v3.94l-10.66,6.17a1.9,1.9,0,0,1-2.14-.16l-10.73-8.64v-4" fill="#51b6fd"/>
          <polyline points="323.78 353.22 335.48 359.98 329.64 363.41 317.83 356.59 323.78 353.22" fill="#4696f5"/>
          <path d="M347.2,362.76l6,3.37-10.66,6.18a1.91,1.91,0,0,1-2.14-.17l-10.74-8.73,5.85-3.43,4.84,5.08a1.9,1.9,0,0,0,2.32.33l4.56-2.63" fill="#4696f5"/>
          <polyline points="322.01 352.2 322.01 352.2 323.77 353.22 323.78 353.22 322.8 352.65 322.01 352.2" fill="#4696f5"/>
          <polyline points="322.01 352.2 317.83 356.59 323.77 353.22 322.01 352.2" fill="#51b6fd"/>
          <polyline points="322.01 352.2 317.83 356.59 323.77 353.22 322.01 352.2" fill="#4696f5"/>
          <polyline points="323.78 353.22 323.77 353.22 317.83 356.59 329.64 363.41 329.64 363.41 329.63 363.41 335.48 359.98 323.78 353.22" fill="#4696f5"/>
          <path d="M335.48,360h0l-5.85,3.43,10.74,8.73a1.91,1.91,0,0,0,2.14.17l10.66-6.18-6-3.37-4.56,2.63a1.89,1.89,0,0,1-.94.25,1.92,1.92,0,0,1-1.38-.58L335.48,360" fill="#4696f5"/>
          <polygon points="350.33 361.03 347.27 362.74 353.19 366.16 356.29 364.4 350.33 361.03" fill="#e4e4e4"/>
          <polygon points="353.2 366.16 356.29 364.4 356.29 368.34 353.2 370.09 353.2 366.16" fill="#e4e4e4"/>
          <polygon points="311.94 394.08 308.91 392.38 308.91 389.33 311.93 391 311.94 394.08" fill="#fff"/>
          <polygon points="333.96 437.57 339.89 434.19 333.96 430.69 333.96 437.57" fill="#342e1f"/>
          <path d="M336.81,434.19l-7.18,4.15v6.82l11.77-6.83v-1.5A3.05,3.05,0,0,0,336.81,434.19Z" fill="#342e1f"/>
          <polygon points="335.47 400.85 335.47 441.79 329.63 445.15 329.63 404.28 335.47 400.85" fill="#342e1f"/>
          <path d="M334.32,342.18l-9.43-5.4-7.23,4a3.8,3.8,0,0,0-2,3.29l-.09,11.22,9.77,5.67,5.6-3.22a6.65,6.65,0,0,0,3.33-5.76Z" fill="#0a0a2c"/>
          <path d="M334.32,344.47l-5,2.91a3.79,3.79,0,0,0-1.88,3.28v9.13l3.55-2.05a6.65,6.65,0,0,0,3.31-5.75Z" fill="#e4e4e4"/>
          <path d="M326.73,335.69l9.42,5.44v.16a3.69,3.69,0,0,1-1.83,3.18v-2.29l-9.43-5.4Z" fill="#0a0a2c"/>
          <path d="M308.91,389.36l3.08,1.73V353.22l-.23-.13a1.89,1.89,0,0,0-2.85,1.63Z" fill="#51b6fd"/>
          <polygon points="335.53 487.51 329.62 484.08 347.08 405.56 353.01 409 335.53 487.51" fill="#142842"/>
        </g>
      </g>
    </g>
  </g>
</svg>
