<svg xmlns="http://www.w3.org/2000/svg" xmlns:xlink="http://www.w3.org/1999/xlink" width="681.32" height="665" viewBox="0 0 681.32 665">
  <defs>
    <clipPath id="clip-path">
      <polygon points="120.83 335.2 557.38 587.24 558.14 316.94 121.59 64.9 120.83 335.2" fill="none"/>
    </clipPath>
    <linearGradient id="linear-gradient" x1="114.67" y1="381.75" x2="261.68" y2="234.75" gradientUnits="userSpaceOnUse">
      <stop offset="0" stop-color="#9f6aff"/>
      <stop offset="1" stop-color="#51b6fd"/>
    </linearGradient>
    <linearGradient id="linear-gradient-2" x1="457.3" y1="579.57" x2="604.3" y2="432.56" xlink:href="#linear-gradient"/>
    <linearGradient id="linear-gradient-3" x1="157.95" y1="403.22" x2="294.29" y2="266.89" gradientUnits="userSpaceOnUse">
      <stop offset="0" stop-color="#f867b0"/>
      <stop offset="1" stop-color="#fe9a69"/>
    </linearGradient>
    <linearGradient id="linear-gradient-4" x1="211.03" y1="424.87" x2="320.1" y2="315.81" xlink:href="#linear-gradient"/>
    <linearGradient id="linear-gradient-5" x1="418.57" y1="553.69" x2="554.9" y2="417.35" xlink:href="#linear-gradient-3"/>
    <linearGradient id="linear-gradient-6" x1="377.13" y1="520.77" x2="486.19" y2="411.7" xlink:href="#linear-gradient"/>
    <linearGradient id="linear-gradient-7" x1="218.17" y1="432.35" x2="218.17" y2="357.59" gradientUnits="userSpaceOnUse">
      <stop offset="0" stop-color="#51b6fd"/>
      <stop offset="1" stop-color="#9f6aff"/>
    </linearGradient>
    <linearGradient id="linear-gradient-8" x1="187.12" y1="390.6" x2="271.93" y2="390.6" xlink:href="#linear-gradient"/>
  </defs>
  <title>animation01</title>
  <g id="Layer_2" data-name="Layer 2">
    <g id="animation01">
      <g>
        <g id="monitor">
          <g style="isolation: isolate">
            <polygon points="382.87 500.32 362.12 512.37 329.07 493.3 296.02 474.22 316.78 462.16 349.82 481.24 382.87 500.32" fill="#516877"/>
            <polygon points="375.64 612.97 396.39 600.92 382.88 500.32 362.13 512.37 375.64 612.97" fill="#0a0a2c"/>
            <polygon points="296.03 474.22 281.98 558.91 328.81 585.95 375.64 612.97 362.13 512.37 329.08 493.3 296.03 474.22" fill="#142842"/>
          </g>
          <polygon id="background" points="120.83 335.19 557.38 587.24 558.14 316.94 121.59 64.9 120.83 335.19" fill="#0a0a2c"/>
          <g id="mountains">
            <g clip-path="url(#clip-path)">
              <g>
                <polygon points="292.05 435.69 0 267.08 146.02 119.09 292.05 435.69" fill="url(#linear-gradient)"/>
                <polygon points="342.63 464.89 634.67 633.5 488.65 316.91 342.63 464.89" fill="url(#linear-gradient-2)"/>
                <polygon points="322.45 453.25 51.6 296.87 187.03 159.63 322.45 453.25" fill="url(#linear-gradient-3)"/>
                <polygon points="342.63 464.89 125.95 339.8 234.29 230 342.63 464.89" opacity="0.85" fill="url(#linear-gradient-4)"/>
                <polygon points="312.22 447.34 583.07 603.71 447.64 310.09 312.22 447.34" fill="url(#linear-gradient-5)"/>
                <polygon points="292.05 435.69 508.72 560.79 400.39 325.89 292.05 435.69" opacity="0.85" fill="url(#linear-gradient-6)"/>
              </g>
            </g>
          </g>
          <g id="frame">
            <g style="isolation: isolate">
              <path d="M131.13,33.71c2.37-1.38,5.66-1.19,9.27.89L580.93,288.94c7.18,4.15,13,14.27,13,22.53l-.86,301.29c0,4.1-1.47,7-3.82,8.35l-20.75,12.06c2.35-1.36,3.81-4.25,3.82-8.35l.86-301.29c0-8.26-5.83-18.38-13-22.53L119.65,46.66c-3.61-2.09-6.9-2.27-9.27-.89Z" fill="#0a0a2c"/>
              <path d="M105.71,355.42c0,8.24,5.82,18.37,13,22.52L559.24,632.28c7.18,4.14,13.07.78,13.09-7.46l.86-301.29c0-8.26-5.83-18.38-13-22.53L119.65,46.66c-7.18-4.14-13.06-.79-13.09,7.46ZM557.38,587.23l-436.55-252L121.6,64.9l436.54,252-.76,270.29" fill="#142842"/>
            </g>
          </g>
          <g>
            <path d="M324.15,242.88l-2.63-1.53v5.88l-3.31-1.91v-16l6,3.44a13.67,13.67,0,0,1,4.38,3.8,7.6,7.6,0,0,1,1.55,4.48,3.18,3.18,0,0,1-.71,2.33,2.56,2.56,0,0,1-2.16.5l3.47,8.57v.15l-3.55-2Zm-2.63-4.2,2.67,1.54a2.54,2.54,0,0,0,1.93.48c.45-.16.68-.62.68-1.36a4,4,0,0,0-.64-2.16,5.52,5.52,0,0,0-2-1.79l-2.66-1.53Z" fill="#bac8d5"/>
            <path d="M345.81,253.59a6.74,6.74,0,0,1-.84,3.67,2.87,2.87,0,0,1-2.4,1.38,6.8,6.8,0,0,1-3.58-1.1,13.38,13.38,0,0,1-3.56-3,14.11,14.11,0,0,1-2.42-4.14,12.75,12.75,0,0,1-.87-4.59V245a6.73,6.73,0,0,1,.85-3.68,2.88,2.88,0,0,1,2.42-1.37A6.79,6.79,0,0,1,339,241a13.33,13.33,0,0,1,3.57,3,14.06,14.06,0,0,1,2.41,4.16,13.23,13.23,0,0,1,.86,4.65Zm-3.35-2.66a9.8,9.8,0,0,0-.91-4.36,6.38,6.38,0,0,0-2.58-2.8c-1.11-.64-2-.71-2.57-.19s-.9,1.61-.91,3.27v.78a9.93,9.93,0,0,0,.9,4.34,6.52,6.52,0,0,0,2.6,2.86c1.11.64,2,.7,2.56.17s.9-1.62.91-3.29Z" fill="#bac8d5"/>
            <path d="M351.73,264.67l-3.31-1.91v-16l3.31,1.91Z" fill="#bac8d5"/>
          </g>
        </g>
        <g id="magnifier">
          <path d="M236.77,460.47l0-16.8-9.93,5.76,0,16.81a10.7,10.7,0,0,1,4.46,8.07l-.23,79.93a3.35,3.35,0,0,1-1.41,3.07l9.93-5.77a3.37,3.37,0,0,0,1.41-3.07l.22-79.93A10.64,10.64,0,0,0,236.77,460.47Z" fill="#4696f5"/>
          <path d="M262,420.28c-.08,24.33-15.14,36-35.12,29.15l0,16.81a10.7,10.7,0,0,1,4.46,8.07l-.23,79.93c0,3-2.19,4.27-4.83,2.74l-17.05-9.85a10.56,10.56,0,0,1-4.8-8.3l.22-79.93c0-2.9,2-4.14,4.49-2.9l0-16.8C189.21,423,174.26,394,174.33,369.66c.08-27.83,19.77-39.05,44-25.07S262.08,392.45,262,420.28Zm-43.93,8.08c16,9.27,29.1,1.84,29.15-16.61s-12.92-40.91-29-50.17-29.12-1.84-29.17,16.61,12.92,40.9,29,50.17" fill="#51b6fd"/>
          <path d="M218.27,361.58c16,9.26,29,31.72,29,50.17s-13.11,25.88-29.15,16.61-29-31.73-29-50.17S202.21,352.31,218.27,361.58Z" fill="url(#linear-gradient-7)"/>
          <path d="M228.24,338.82c-12.19-7-23.23-7.69-31.2-3.06l-9.92,5.77c8-4.63,19-4,31.19,3.06,24.21,14,43.77,47.86,43.7,75.69,0,13.82-4.92,23.55-12.79,28.12l9.92-5.77c7.87-4.57,12.75-14.3,12.79-28.12C272,386.69,252.45,352.8,228.24,338.82Z" fill="url(#linear-gradient-8)"/>
        </g>
        <rect id="wrapper" x="16.32" width="665" height="665" fill="none"/>
        <polygon id="bezier01" points="218.32 395 218.32 217.02 491.32 358 478.32 487 152.69 312.69 152.32 125 503.32 321 531.32 520 353.36 373.55 277.32 178 165.32 260 271.93 343.71 539.32 339 479.32 520 218.32 395" fill="none"/>
      </g>
    </g>
  </g>
</svg>
