<svg xmlns="http://www.w3.org/2000/svg" xmlns:xlink="http://www.w3.org/1999/xlink" width="584.48" height="559.37" viewBox="0 0 584.48 559.37">
  <defs>
    <linearGradient id="linear-gradient" x1="292.27" y1="362.77" x2="292.27" y2="207.78" gradientUnits="userSpaceOnUse">
      <stop offset="0" stop-color="#51b6fd"/>
      <stop offset="1" stop-color="#9f6aff"/>
    </linearGradient>
    <linearGradient id="linear-gradient-2" x1="225.17" y1="379.2" x2="225.17" y2="285.27" xlink:href="#linear-gradient"/>
    <linearGradient id="linear-gradient-3" x1="292.27" y1="311.36" x2="292.27" y2="156.36" gradientUnits="userSpaceOnUse">
      <stop offset="0" stop-color="#f867b0"/>
      <stop offset="1" stop-color="#fe9a69"/>
    </linearGradient>
    <linearGradient id="linear-gradient-4" x1="158.47" y1="280.82" x2="291.87" y2="280.82" xlink:href="#linear-gradient-3"/>
    <linearGradient id="linear-gradient-5" x1="281.05" y1="93.91" x2="281.05" y2="69.47" xlink:href="#linear-gradient-3"/>
    <linearGradient id="linear-gradient-6" x1="271.91" y1="181.9" x2="271.91" y2="79.95" xlink:href="#linear-gradient-3"/>
    <linearGradient id="linear-gradient-7" x1="312.87" y1="139.5" x2="312.87" y2="115.07" gradientUnits="userSpaceOnUse">
      <stop offset="0" stop-color="#9f6aff"/>
      <stop offset="1" stop-color="#51b6fd"/>
    </linearGradient>
    <linearGradient id="linear-gradient-8" x1="303.77" y1="200.32" x2="303.77" y2="125.54" xlink:href="#linear-gradient-7"/>
  </defs>
  <title>animation08</title>
  <g id="Layer_2" data-name="Layer 2">
    <g id="Layer_1-2" data-name="Layer 1">
      <g>
        <g id="chip">
          <polygon points="296.38 227.39 296.43 243.83 314.67 233.3 314.62 216.87 296.38 227.39" fill="#fcc83b"/>
          <polygon points="225.94 222.2 225.99 238.63 244.15 249.18 244.09 232.74 225.94 222.2" fill="#e4e4e4"/>
          <polygon points="341.97 232.77 342.02 249.2 360.3 238.65 360.25 222.22 341.97 232.77" fill="#e4e4e4"/>
          <polygon points="225.94 222.2 244.09 232.74 262.26 243.3 289.75 227.42 271.6 216.87 253.44 206.32 225.94 222.2" fill="#fff"/>
          <polygon points="244.09 232.74 244.15 249.18 262.3 259.73 262.26 243.3 244.09 232.74" fill="#fff"/>
          <polygon points="323.75 243.3 323.79 259.73 342.02 249.2 341.97 232.77 323.75 243.3" fill="#fff"/>
          <polygon points="296.38 227.39 296.43 243.83 323.79 259.73 323.75 243.3 296.38 227.39" fill="#fff"/>
          <polygon points="296.38 227.39 323.75 243.3 341.97 232.77 360.25 222.22 332.89 206.32 314.62 216.87 296.38 227.39" fill="#fff"/>
          <polygon points="217.77 268.98 217.82 285.41 245.31 269.54 245.27 253.11 217.77 268.98" fill="#fff"/>
          <polygon points="181.45 247.88 181.5 264.31 199.65 274.86 199.61 258.43 181.45 247.88" fill="#e4e4e4"/>
          <polygon points="386.18 258.46 386.23 274.88 404.5 264.33 404.45 247.9 386.18 258.46" fill="#e4e4e4"/>
          <polygon points="181.45 247.88 199.61 258.43 217.77 268.98 245.27 253.11 227.11 242.55 208.96 232 181.45 247.88" fill="#fff"/>
          <polygon points="199.61 258.43 199.65 274.86 217.82 285.41 217.77 268.98 199.61 258.43" fill="#fff"/>
          <polygon points="367.94 268.98 367.99 285.42 386.23 274.88 386.18 258.46 367.94 268.98" fill="#fff"/>
          <polygon points="340.62 253.11 367.94 268.98 386.18 258.46 404.45 247.9 377.13 232.03 358.86 242.58 340.62 253.11" fill="#fff"/>
          <polygon points="340.62 253.11 340.67 269.54 367.99 285.42 367.94 268.98 340.62 253.11" fill="#fff"/>
          <polygon points="173.24 294.69 173.29 311.13 200.78 295.24 200.74 278.81 173.24 294.69" fill="#fff"/>
          <polygon points="136.92 273.59 136.97 290.01 155.13 300.57 155.09 284.14 136.92 273.59" fill="#e4e4e4"/>
          <polygon points="430.37 284.14 430.42 300.57 448.69 290.02 448.64 273.59 430.37 284.14" fill="#e4e4e4"/>
          <polygon points="155.09 284.14 155.13 300.57 173.29 311.13 173.24 294.69 155.09 284.14" fill="#fff"/>
          <polygon points="136.92 273.59 155.09 284.14 173.24 294.69 200.74 278.81 182.58 268.26 164.43 257.71 136.92 273.59" fill="#fff"/>
          <polygon points="384.82 278.79 412.14 294.67 430.37 284.14 448.64 273.59 421.32 257.71 403.05 268.26 384.82 278.79" fill="#fff"/>
          <polygon points="384.82 278.79 384.86 295.22 412.18 311.1 412.14 294.67 384.82 278.79" fill="#fff"/>
          <polygon points="412.14 294.67 412.18 311.1 430.42 300.57 430.37 284.14 412.14 294.67" fill="#fff"/>
          <polygon points="128.76 320.38 128.8 336.8 156.3 320.93 156.25 304.5 128.76 320.38" fill="#fff"/>
          <polygon points="92.44 299.27 92.48 315.71 110.65 326.26 110.6 309.82 92.44 299.27" fill="#e4e4e4"/>
          <polygon points="474.56 309.83 474.61 326.26 492.88 315.71 492.84 299.27 474.56 309.83" fill="#e4e4e4"/>
          <polygon points="92.44 299.27 110.6 309.82 128.76 320.38 156.25 304.5 138.1 293.95 119.94 283.4 92.44 299.27" fill="#fff"/>
          <polygon points="110.6 309.82 110.65 326.26 128.8 336.8 128.76 320.38 110.6 309.82" fill="#fff"/>
          <polygon points="429.01 304.47 456.33 320.35 474.56 309.83 492.84 299.27 465.52 283.4 447.25 293.95 429.01 304.47" fill="#fff"/>
          <polygon points="429.01 304.47 429.06 320.9 456.38 336.78 456.33 320.35 429.01 304.47" fill="#fff"/>
          <polygon points="456.33 320.35 456.38 336.78 474.61 326.26 474.56 309.83 456.33 320.35" fill="#fff"/>
          <polygon points="84.27 346.06 84.32 362.49 111.81 346.61 111.77 330.18 84.27 346.06" fill="#fff"/>
          <polygon points="47.95 324.95 48 341.39 66.15 351.94 66.1 335.51 47.95 324.95" fill="#e4e4e4"/>
          <polygon points="518.81 335.54 518.85 351.96 537.13 341.42 537.08 324.98 518.81 335.54" fill="#e4e4e4"/>
          <polygon points="66.1 335.51 66.15 351.94 84.32 362.49 84.27 346.06 66.1 335.51" fill="#fff"/>
          <polygon points="47.95 324.95 66.1 335.51 84.27 346.06 111.77 330.18 93.61 319.63 75.46 309.08 47.95 324.95" fill="#fff"/>
          <polygon points="500.57 346.06 500.62 362.49 518.85 351.96 518.81 335.54 500.57 346.06" fill="#fff"/>
          <polygon points="473.22 330.16 473.26 346.59 500.62 362.49 500.57 346.06 473.22 330.16" fill="#fff"/>
          <polygon points="473.22 330.16 500.57 346.06 518.81 335.54 537.08 324.98 509.73 309.08 491.44 319.63 473.22 330.16" fill="#fff"/>
          <polygon points="39.78 371.74 39.82 388.17 67.33 372.3 67.28 355.87 39.78 371.74" fill="#fff"/>
          <polygon points="3.47 350.64 3.51 367.07 21.67 377.63 21.62 361.19 3.47 350.64" fill="#e4e4e4"/>
          <polygon points="563 361.22 563.05 377.65 581.33 367.1 581.28 350.67 563 361.22" fill="#e4e4e4"/>
          <polygon points="21.62 361.19 21.67 377.63 39.82 388.17 39.78 371.74 21.62 361.19" fill="#fff"/>
          <polygon points="3.47 350.64 21.62 361.19 39.78 371.74 67.28 355.87 49.13 345.32 30.96 334.76 3.47 350.64" fill="#fff"/>
          <polygon points="544.77 371.75 544.82 388.17 563.05 377.65 563 361.22 544.77 371.75" fill="#fff"/>
          <polygon points="517.45 355.87 544.77 371.75 563 361.22 581.28 350.67 553.97 334.79 535.68 345.34 517.45 355.87" fill="#fff"/>
          <polygon points="544.71 375.58 544.75 392.02 562.91 402.57 562.86 386.14 544.71 375.58" fill="#fcc83b"/>
          <polygon points="517.45 355.87 517.49 372.3 544.82 388.17 544.77 371.75 517.45 355.87" fill="#fff"/>
          <polygon points="158.47 373.68 158.52 390.11 292.75 312.61 292.71 296.18 158.47 373.68" fill="#4696f5"/>
          <polygon points="292.71 296.18 292.75 312.61 426.1 390.11 426.06 373.68 292.71 296.18" fill="#4696f5"/>
          <polygon points="21.45 386.13 21.49 402.57 39.77 392.01 39.72 375.58 21.45 386.13" fill="#fcc83b"/>
          <polygon points="0 373.67 0.05 390.11 21.49 402.57 21.45 386.13 0 373.67" fill="#4696f5"/>
          <polygon points="562.86 386.14 562.91 402.57 584.48 390.11 584.44 373.68 562.86 386.14" fill="#4696f5"/>
          <polygon points="48.8 402.03 48.85 418.47 67.13 407.92 67.08 391.48 48.8 402.03" fill="#fff"/>
          <polygon points="517.21 391.46 517.26 407.89 544.75 392.02 544.71 375.58 517.21 391.46" fill="#fcc83b"/>
          <polygon points="517.21 391.46 517.26 407.89 535.41 418.44 535.37 402.01 517.21 391.46" fill="#fff"/>
          <polygon points="48.8 402.03 48.85 418.47 65.73 428.28 65.69 411.84 48.8 402.03" fill="#4696f5"/>
          <polygon points="65.69 411.84 65.73 428.28 84 417.72 83.96 401.29 65.69 411.84" fill="#fcc83b"/>
          <polygon points="30.53 412.59 30.58 429.02 48.85 418.47 48.8 402.03 30.53 412.59" fill="#e4e4e4"/>
          <polygon points="3.16 396.68 3.21 413.11 30.58 429.02 30.53 412.59 3.16 396.68" fill="#e4e4e4"/>
          <polygon points="3.16 396.68 30.53 412.59 48.8 402.03 67.08 391.48 39.72 375.58 21.45 386.13 3.16 396.68" fill="#fff"/>
          <polygon points="518.38 411.82 518.42 428.25 535.41 418.44 535.37 402.01 518.38 411.82" fill="#4696f5"/>
          <polygon points="500.22 401.27 500.27 417.7 518.42 428.25 518.38 411.82 500.22 401.27" fill="#fcc83b"/>
          <polygon points="553.52 412.56 553.57 429 581.06 413.12 581.02 396.69 553.52 412.56" fill="#e4e4e4"/>
          <polygon points="535.37 402.01 535.41 418.44 553.57 429 553.52 412.56 535.37 402.01" fill="#e4e4e4"/>
          <polygon points="517.21 391.46 535.37 402.01 553.52 412.56 581.02 396.69 562.86 386.14 544.71 375.58 517.21 391.46" fill="#fff"/>
          <polygon points="93 427.72 93.05 444.15 111.32 433.6 111.28 417.17 93 427.72" fill="#fff"/>
          <polygon points="472.72 417.14 472.76 433.58 500.27 417.7 500.22 401.27 472.72 417.14" fill="#fcc83b"/>
          <polygon points="472.72 417.14 472.76 433.58 490.93 444.13 490.88 427.69 472.72 417.14" fill="#fff"/>
          <polygon points="93 427.72 93.05 444.15 109.93 453.96 109.88 437.53 93 427.72" fill="#4696f5"/>
          <polygon points="109.88 437.53 109.93 453.96 128.2 443.41 128.15 426.97 109.88 437.53" fill="#fcc83b"/>
          <polygon points="74.72 438.27 74.77 454.7 93.05 444.15 93 427.72 74.72 438.27" fill="#e4e4e4"/>
          <polygon points="47.4 422.39 74.72 438.27 93 427.72 111.28 417.17 83.96 401.29 65.69 411.84 47.4 422.39" fill="#fff"/>
          <polygon points="47.4 422.39 47.45 438.82 74.77 454.7 74.72 438.27 47.4 422.39" fill="#e4e4e4"/>
          <polygon points="473.85 437.53 473.89 453.96 490.93 444.13 490.88 427.69 473.85 437.53" fill="#4696f5"/>
          <polygon points="455.69 426.98 455.74 443.41 473.89 453.96 473.85 437.53 455.69 426.98" fill="#fcc83b"/>
          <polygon points="509.04 438.25 509.09 454.68 536.58 438.8 536.53 422.37 509.04 438.25" fill="#e4e4e4"/>
          <polygon points="490.88 427.69 490.93 444.13 509.09 454.68 509.04 438.25 490.88 427.69" fill="#e4e4e4"/>
          <polygon points="472.72 417.14 490.88 427.69 509.04 438.25 536.53 422.37 518.38 411.82 500.22 401.27 472.72 417.14" fill="#fff"/>
          <polygon points="128.15 426.97 128.2 443.41 155.52 459.29 155.47 442.85 128.15 426.97" fill="#fcc83b"/>
          <polygon points="428.2 442.85 428.25 459.29 455.74 443.41 455.69 426.98 428.2 442.85" fill="#fcc83b"/>
          <polygon points="137.2 453.4 137.25 469.84 155.52 459.29 155.47 442.85 137.2 453.4" fill="#fff"/>
          <polygon points="428.2 442.85 428.25 459.29 446.4 469.84 446.35 453.41 428.2 442.85" fill="#fff"/>
          <polygon points="172.35 452.66 172.39 469.09 199.71 484.97 199.67 468.54 172.35 452.66" fill="#fcc83b"/>
          <polygon points="383.71 468.54 383.76 484.97 411.25 469.1 411.2 452.66 383.71 468.54" fill="#fcc83b"/>
          <polygon points="181.4 479.09 181.44 495.52 199.71 484.97 199.67 468.54 181.4 479.09" fill="#fff"/>
          <polygon points="383.71 468.54 383.76 484.97 401.91 495.52 401.87 479.09 383.71 468.54" fill="#fff"/>
          <polygon points="225.64 504.8 225.68 521.23 243.95 510.68 243.91 494.25 225.64 504.8" fill="#fff"/>
          <polygon points="339.22 494.22 339.26 510.65 366.77 494.78 366.72 478.35 339.22 494.22" fill="#fcc83b"/>
          <polygon points="339.22 494.22 339.26 510.65 357.43 521.21 357.38 504.77 339.22 494.22" fill="#fff"/>
          <polygon points="294.73 519.91 294.78 536.34 322.28 520.46 322.24 504.04 294.73 519.91" fill="#fcc83b"/>
          <polygon points="269.83 530.48 269.88 546.91 288.15 536.37 288.1 519.93 269.83 530.48" fill="#fff"/>
          <polygon points="294.73 519.91 294.78 536.34 312.94 546.89 312.89 530.46 294.73 519.91" fill="#fff"/>
          <path d="M0,373.67l21.62-12.48,18.16,10.55,27.5-15.87L49.13,345.32l17-9.81,18.17,10.55,27.49-15.88L93.61,319.63l17-9.81,18.16,10.56,27.49-15.88L138.1,294l17-9.81,18.15,10.55,27.5-15.87-18.16-10.56,17-9.83L217.77,269l27.5-15.87-18.16-10.56,17-9.81,18.17,10.56,27.49-15.88L271.6,216.87l21.57-12.46,21.45,12.46-18.24,10.52,27.37,15.91L342,232.77l16.89,9.81-18.24,10.53L367.94,269l18.24-10.53,16.87,9.81-18.23,10.53,27.32,15.88,18.23-10.53L447.25,294,429,304.47l27.32,15.88,18.24-10.53,16.87,9.81-18.22,10.53,27.35,15.9,18.24-10.52,16.87,9.8-18.23,10.53,27.33,15.88L563,361.22l21.44,12.46-21.58,12.46-18.15-10.56-27.5,15.88L535.37,402l-17,9.81-18.16-10.55-27.5,15.88,18.16,10.54-17,9.84L455.69,427,428.2,442.85l18.15,10.56-17,9.8L411.2,452.66l-27.49,15.88,18.16,10.55-17,9.81-18.16-10.55-27.5,15.87,18.16,10.55-17,9.81L322.24,504l-27.51,15.87,18.17,10.55-21.64,12.48-21.43-12.46,18.27-10.55-27.31-15.87L242.51,514.6l-16.87-9.8,18.27-10.55-27.36-15.9L198.27,488.9l-16.87-9.81,18.27-10.55-27.32-15.88-18.27,10.55L137.2,453.4l18.27-10.55L128.15,427l-18.27,10.56L93,427.72l18.28-10.55L84,401.29,65.69,411.84,48.8,402l18.28-10.55-27.36-15.9L21.45,386.13Zm291.82,77.5,134.24-77.49-133.35-77.5-134.24,77.5,133.35,77.49" fill="#51b6fd"/>
          <polygon points="154.08 463.21 154.12 479.64 172.39 469.09 172.35 452.66 154.08 463.21" fill="#fcc83b"/>
          <polygon points="137.2 453.4 137.25 469.84 154.12 479.64 154.08 463.21 137.2 453.4" fill="#4696f5"/>
          <polygon points="91.6 448.08 118.92 463.96 137.2 453.4 155.47 442.85 128.15 426.98 109.88 437.53 91.6 448.08" fill="#fff"/>
          <polygon points="91.6 448.08 91.64 464.51 118.97 480.38 118.92 463.96 91.6 448.08" fill="#e4e4e4"/>
          <polygon points="118.92 463.96 118.97 480.38 137.25 469.84 137.2 453.4 118.92 463.96" fill="#e4e4e4"/>
          <polygon points="429.36 463.21 429.41 479.64 446.4 469.84 446.35 453.41 429.36 463.21" fill="#4696f5"/>
          <polygon points="411.2 452.66 411.25 469.1 429.41 479.64 429.36 463.21 411.2 452.66" fill="#fcc83b"/>
          <polygon points="446.35 453.41 446.4 469.84 464.55 480.39 464.51 463.96 446.35 453.41" fill="#e4e4e4"/>
          <polygon points="428.2 442.85 446.35 453.41 464.51 463.96 492 448.08 473.85 437.53 455.69 426.98 428.2 442.85" fill="#fff"/>
          <polygon points="464.51 463.96 464.55 480.39 492.05 464.51 492 448.08 464.51 463.96" fill="#e4e4e4"/>
          <polygon points="181.4 479.09 181.44 495.52 198.32 505.32 198.27 488.9 181.4 479.09" fill="#4696f5"/>
          <polygon points="198.27 488.9 198.32 505.32 216.6 494.78 216.55 478.35 198.27 488.9" fill="#fcc83b"/>
          <polygon points="366.72 478.35 366.77 494.78 384.92 505.33 384.88 488.9 366.72 478.35" fill="#fcc83b"/>
          <polygon points="384.88 488.9 384.92 505.33 401.91 495.52 401.87 479.09 384.88 488.9" fill="#4696f5"/>
          <polygon points="163.13 489.64 163.17 506.07 181.44 495.52 181.4 479.09 163.13 489.64" fill="#e4e4e4"/>
          <polygon points="135.81 473.76 163.13 489.64 181.4 479.09 199.67 468.54 172.35 452.66 154.08 463.21 135.81 473.76" fill="#fff"/>
          <polygon points="135.81 473.76 135.85 490.19 163.17 506.07 163.13 489.64 135.81 473.76" fill="#e4e4e4"/>
          <polygon points="420.02 489.64 420.07 506.07 447.56 490.19 447.52 473.76 420.02 489.64" fill="#e4e4e4"/>
          <polygon points="401.87 479.09 401.91 495.52 420.07 506.07 420.02 489.64 401.87 479.09" fill="#e4e4e4"/>
          <polygon points="383.71 468.54 401.87 479.09 420.02 489.64 447.52 473.76 429.36 463.21 411.2 452.66 383.71 468.54" fill="#fff"/>
          <polygon points="225.64 504.8 225.68 521.23 242.56 531.04 242.51 514.6 225.64 504.8" fill="#4696f5"/>
          <polygon points="242.51 514.6 242.56 531.04 260.83 520.49 260.8 504.06 242.51 514.6" fill="#fcc83b"/>
          <polygon points="340.39 514.58 340.44 531.02 357.43 521.21 357.38 504.77 340.39 514.58" fill="#4696f5"/>
          <polygon points="322.24 504.04 322.28 520.46 340.44 531.02 340.39 514.58 322.24 504.04" fill="#fcc83b"/>
          <polygon points="207.36 515.35 207.41 531.78 225.68 521.23 225.64 504.8 207.36 515.35" fill="#e4e4e4"/>
          <polygon points="180 499.44 180.05 515.88 207.41 531.78 207.36 515.35 180 499.44" fill="#e4e4e4"/>
          <polygon points="180 499.44 207.36 515.35 225.64 504.8 243.91 494.25 216.55 478.35 198.27 488.9 180 499.44" fill="#fff"/>
          <polygon points="357.38 504.77 357.43 521.21 375.58 531.75 375.54 515.33 357.38 504.77" fill="#e4e4e4"/>
          <polygon points="339.22 494.22 357.38 504.77 375.54 515.33 403.03 499.45 384.88 488.9 366.72 478.35 339.22 494.22" fill="#fff"/>
          <polygon points="375.54 515.33 375.58 531.75 403.08 515.88 403.03 499.45 375.54 515.33" fill="#e4e4e4"/>
          <polygon points="224.24 525.16 251.56 541.03 269.83 530.48 288.1 519.93 260.8 504.06 242.51 514.6 224.24 525.16" fill="#fff"/>
          <polygon points="224.24 525.16 224.29 541.59 251.6 557.46 251.56 541.03 224.24 525.16" fill="#e4e4e4"/>
          <polygon points="251.56 541.03 251.6 557.46 269.88 546.91 269.83 530.48 251.56 541.03" fill="#e4e4e4"/>
          <polygon points="294.73 519.91 312.89 530.46 331.05 541.01 358.54 525.13 340.39 514.58 322.24 504.04 294.73 519.91" fill="#fff"/>
          <polygon points="331.05 541.01 331.1 557.44 358.59 541.56 358.54 525.13 331.05 541.01" fill="#e4e4e4"/>
          <polygon points="312.89 530.46 312.94 546.89 331.1 557.44 331.05 541.01 312.89 530.46" fill="#e4e4e4"/>
          <polygon points="269.83 530.48 269.88 546.91 291.31 559.38 291.26 542.94 269.83 530.48" fill="#4696f5"/>
          <polygon points="291.26 542.94 291.31 559.38 312.93 546.89 312.89 530.46 291.26 542.94" fill="#4696f5"/>
        </g>
        <g id="platform01">
          <polygon points="291.82 407.75 291.87 424.19 426.1 346.69 426.06 330.26 291.82 407.75" fill="#e4e4e4"/>
          <polygon points="158.47 330.26 291.82 407.75 426.06 330.26 292.71 252.76 158.47 330.26" fill="#fff"/>
          <polygon points="158.47 330.26 158.52 346.69 291.87 424.19 291.82 407.75 158.47 330.26" fill="#e4e4e4"/>
        </g>
        <g id="platform02">
          <polygon points="291.82 362.77 291.87 379.2 426.1 301.7 426.06 285.27 291.82 362.77" fill="#4696f5"/>
          <polygon points="158.47 285.27 291.82 362.77 426.06 285.27 292.71 207.78 158.47 285.27" fill="url(#linear-gradient)"/>
          <polygon points="158.47 285.27 158.52 301.7 291.87 379.2 291.82 362.77 158.47 285.27" fill="url(#linear-gradient-2)"/>
        </g>
        <g id="platform03">
          <polygon points="291.82 311.36 291.87 327.79 426.1 250.29 426.06 233.86 291.82 311.36" fill="#f867b0"/>
          <polygon points="158.47 233.86 291.82 311.36 426.06 233.86 292.71 156.36 158.47 233.86" fill="url(#linear-gradient-3)"/>
          <polygon points="158.47 233.86 158.52 250.29 291.87 327.79 291.82 311.36 158.47 233.86" fill="url(#linear-gradient-4)"/>
        </g>
        <g id="platform04">
          <g style="isolation: isolate">
            <g>
              <path d="M156.87,17.11,140.71,26.5c9.79-5.68,23.34-4.88,38.29,3.75A89.34,89.34,0,0,1,195.7,43l16.16-9.38a88.56,88.56,0,0,0-16.7-12.72C180.2,12.23,166.66,11.43,156.87,17.11Z" fill="#0a0a2c"/>
              <path d="M387.15,86.73c-13.1-7.57-25.39-10.7-36-9.94-14.92-27.46-36.44-51.72-60.38-65.55C268-1.91,247.32-3.13,232.43,5.53l-16.16,9.39c14.89-8.66,35.52-7.44,58.29,5.71C298.51,34.45,320,58.72,334.94,86.18c10.66-.76,22.95,2.37,36.05,9.94,40.5,23.38,73.24,80.07,73.12,126.63-.07,23.12-8.24,39.39-21.41,47l16.16-9.39c13.17-7.66,21.34-23.92,21.4-47C460.39,166.8,427.65,110.11,387.15,86.73Z" fill="#0a0a2c"/>
              <path d="M156.87,17.11,140.71,26.5c9.79-5.68,23.34-4.88,38.29,3.75A89.34,89.34,0,0,1,195.7,43l16.16-9.38a88.56,88.56,0,0,0-16.7-12.72C180.2,12.23,166.66,11.43,156.87,17.11Z" fill="#0a0a2c"/>
              <path d="M387.15,86.73c-13.1-7.57-25.39-10.7-36-9.94-14.92-27.46-36.44-51.72-60.38-65.55C268-1.91,247.32-3.13,232.43,5.53l-16.16,9.39c14.89-8.66,35.52-7.44,58.29,5.71C298.51,34.45,320,58.72,334.94,86.18c10.66-.76,22.95,2.37,36.05,9.94,40.5,23.38,73.24,80.07,73.12,126.63-.07,23.12-8.24,39.39-21.41,47l16.16-9.39c13.17-7.66,21.34-23.92,21.4-47C460.39,166.8,427.65,110.11,387.15,86.73Z" fill="#0a0a2c"/>
            </g>
            <path d="M274.56,20.63C298.51,34.45,320,58.72,334.94,86.18c10.66-.76,22.95,2.37,36.05,9.94,40.5,23.38,73.24,80.07,73.12,126.63s-33.09,65.32-73.6,41.93L178.64,153.91C148.93,136.75,124.92,95.16,125,61s24.27-47.92,54-30.76A89.34,89.34,0,0,1,195.7,43C205.75,9.56,237.28-.9,274.56,20.63Z" fill="#142842"/>
          </g>
          <g>
            <g style="isolation: isolate">
              <polygon points="251.98 163.49 270.01 153.01 270.15 101.06 252.12 111.54 251.98 163.49" fill="#bcc7d3"/>
              <polygon points="252.12 111.54 270.15 101.06 245.97 87.1 227.95 97.58 252.12 111.54" fill="#e4e4e4"/>
              <polygon points="227.95 97.58 227.8 149.53 251.98 163.49 252.12 111.54 227.95 97.58" fill="#fff"/>
            </g>
            <g style="isolation: isolate">
              <polygon points="283.88 181.9 301.9 171.43 302.15 83.43 284.12 93.91 283.88 181.9" fill="#f867b0"/>
              <polygon points="284.12 93.91 302.15 83.43 277.97 69.47 259.95 79.95 284.12 93.91" fill="url(#linear-gradient-5)"/>
              <polygon points="259.95 79.95 259.7 167.95 283.88 181.9 284.12 93.91 259.95 79.95" fill="url(#linear-gradient-6)"/>
            </g>
            <g style="isolation: isolate">
              <polygon points="315.77 200.32 333.8 189.84 333.98 129.03 315.94 139.5 315.77 200.32" fill="#4696f5"/>
              <polygon points="315.94 139.5 333.98 129.03 309.8 115.07 291.77 125.54 315.94 139.5" fill="url(#linear-gradient-7)"/>
              <polygon points="291.77 125.54 291.6 186.36 315.77 200.32 315.94 139.5 291.77 125.54" fill="url(#linear-gradient-8)"/>
            </g>
          </g>
        </g>
      </g>
    </g>
  </g>
</svg>
