<svg xmlns="http://www.w3.org/2000/svg" viewBox="0 0 202.69 39.7"><title>logo-horizontal</title><g id="Layer_2" data-name="Layer 2"><g id="Layer_1-2" data-name="Layer 1"><g id="text"><path d="M163.23,16.37a3.91,3.91,0,0,0-1.5-1,5.62,5.62,0,0,0-1.87-.28,8.49,8.49,0,0,0-1.8.2,3.78,3.78,0,0,0-1.23.55,2.28,2.28,0,0,0-.7.88,3.14,3.14,0,0,0-.22,1.16,2.2,2.2,0,0,0,.22,1,1.93,1.93,0,0,0,.68.71,4.66,4.66,0,0,0,1.2.49c.58.17,1.16.3,1.74.41s1.29.28,1.85.43a5.17,5.17,0,0,1,1.39.58,2.37,2.37,0,0,1,.89.86,2.72,2.72,0,0,1-.84,3.47,5.71,5.71,0,0,1-3.16.75,7.28,7.28,0,0,1-2.62-.43,6,6,0,0,1-2.12-1.37" fill="none" stroke="#000" stroke-width="2"/><path d="M150.41,15.06h-8.48V26.6h8.7m-8.8-5.66h0Z" fill="none" stroke="#000" stroke-width="2"/><path d="M137.53,15.19H132.7V26.75" fill="none" stroke="#000" stroke-width="2"/><path d="M123.47,15.17V26.71" fill="none" stroke="#000" stroke-width="2"/><path d="M117.81,16.63a3.84,3.84,0,0,0-1.51-1,5.56,5.56,0,0,0-1.86-.28,9.19,9.19,0,0,0-1.81.19,3.2,3.2,0,0,0-1.22.58,2.41,2.41,0,0,0-.71.88,3.09,3.09,0,0,0-.21,1.16,2.11,2.11,0,0,0,.21,1.05,2,2,0,0,0,.69.71,4.73,4.73,0,0,0,1.2.49c.58.17,1.16.3,1.74.41s1.29.28,1.85.43a5.31,5.31,0,0,1,1.39.58,2.39,2.39,0,0,1,.88.85,2.73,2.73,0,0,1-.84,3.48,5.65,5.65,0,0,1-3.15.75,7.28,7.28,0,0,1-2.62-.43,6,6,0,0,1-2.13-1.37" fill="none" stroke="#000" stroke-width="2"/><path d="M87.19,15l4.71,6.82v5m0-4.95,4.72-6.82Z" fill="none" stroke="#000" stroke-width="2"/><path d="M79.47,26.79V15.19h4.85" fill="none" stroke="#000" stroke-width="2"/><path d="M71.16,16.35a4.29,4.29,0,0,0-1.5-1.05A5.66,5.66,0,0,0,67.79,15a9.35,9.35,0,0,0-1.81.19,3.27,3.27,0,0,0-1.22.58,2.41,2.41,0,0,0-.71.88,3.09,3.09,0,0,0-.21,1.16,2.22,2.22,0,0,0,.21,1.05,2,2,0,0,0,.69.71,4.73,4.73,0,0,0,1.2.49c.58.17,1.16.3,1.74.41s1.29.28,1.85.43a5.31,5.31,0,0,1,1.39.58,2.32,2.32,0,0,1,.88.85,2.75,2.75,0,0,1-.84,3.5,5.55,5.55,0,0,1-3.15.77,7.28,7.28,0,0,1-2.62-.43,6.54,6.54,0,0,1-2.13-1.39" fill="none" stroke="#000" stroke-width="2"/><path d="M49.66,26.61,55,15h.31l5.3,11.62H55.14" fill="none" stroke="#000" stroke-width="2"/><path d="M43.83,26.62V15H39" fill="none" stroke="#000" stroke-width="2"/></g><g id="right"><path d="M174.55,39.7l-.39-2.56-2.91-.38Z"/><path d="M171,36.3l6-3.69.73,4.54Z"/><path d="M178.21,37l5.18-11.54-7.35-2Z"/><path d="M202.69,30.24l-2.9-4.4L176.39,23Z"/><path d="M177,11.38l16.37,2.24L176,22.4l-1.66-6.23Z"/><path d="M181.42,1.55,184.79,12,177,10.91Z"/><path d="M174.38,0,181,1.08l-2,4.31Z"/></g><g id="left"><path d="M28.57,0,22,1.08,24,5.39Z"/><path d="M21.5,1.43,18.15,11.86,26,10.8Z"/><path d="M25.84,11.38,9.46,13.62,26.78,22.4l1.66-6.23Z"/><path d="M0,30.24l2.91-4.4L26.32,23Z"/><path d="M24.6,37.15,19.43,25.61l7.36-2Z"/><path d="M31.81,36.41l-6-3.68-.74,4.54Z"/><path d="M28.5,39.7l.4-2.56,2.92-.38Z"/></g></g></g></svg>