<?xml version="1.0" encoding="utf-8"?>
<!-- Generator: Adobe Illustrator 23.0.3, SVG Export Plug-In . SVG Version: 6.00 Build 0)  -->
<svg version="1.1" id="logo" xmlns="http://www.w3.org/2000/svg" xmlns:xlink="http://www.w3.org/1999/xlink" x="0px" y="0px"
	 viewBox="0 0 591.6 429.1" style="enable-background:new 0 0 591.6 429.1;" xml:space="preserve">
<style type="text/css">
	.st0{fill:none;stroke:#000000;stroke-width:2;}
</style>
<g id="right-bird">
	<path id="right_8" d="M351.6,339.1l-3.3-21.9l-24.9-3.2L351.6,339.1z"/>
	<path id="right_7" d="M321.3,310l51.3-31.5l6.2,38.8L321.3,310z"/>
	<path id="right_6" d="M382.8,316.3l44.2-98.6l-62.7-17.4L382.8,316.3z"/>
	<path id="right_5" d="M591.6,258.3l-24.7-37.6l-199.6-24.4L591.6,258.3z"/>
	<path id="right_3" d="M372.3,97.2l139.6,19.1l-147.6,75l-14.2-53.2L372.3,97.2z"/>
	<path id="right_2" d="M410.2,13.2l28.7,89.1l-66.6-9.1L410.2,13.2z"/>
	<path id="right_1" d="M350.1,0l56.1,9.2L388.7,46L350.1,0z"/>
</g>
<g id="left-bird">
	<path id="left_1" d="M243.7,0l-56.2,9.2L205,46L243.7,0z"/>
	<path id="left_2" d="M183.4,12.2l-28.6,89.1l66.6-9.1L183.4,12.2z"/>
	<path id="left_3" d="M220.4,97.2L80.7,116.3l147.7,75l14.2-53.2L220.4,97.2z"/>
	<path id="left_5" d="M0,258.3l24.8-37.6l199.7-24.4L0,258.3z"/>
	<path id="left_6" d="M209.8,317.3l-44.1-98.6l62.8-17.4L209.8,317.3L209.8,317.3z"/>
	<path id="left_7" d="M271.3,311L220,279.5l-6.3,38.8L271.3,311z"/>
	<path id="left_8" d="M243.1,339.1l3.4-21.9l24.9-3.2L243.1,339.1L243.1,339.1z"/>
</g>
<g id="logotype">
	<g id="sites">
		<path id="letter-s-3" class="st0" d="M583.4,379.1c-1.9-2.1-4.3-3.8-7-4.8c-2.8-0.9-5.7-1.4-8.7-1.3c-2.8,0-5.6,0.3-8.4,0.9
			c-2,0.5-4,1.4-5.7,2.6c-1.4,1.1-2.6,2.5-3.3,4.1c-0.7,1.7-1,3.6-1,5.4c-0.1,1.7,0.3,3.4,1,4.9c0.8,1.4,1.9,2.5,3.2,3.3
			c1.7,1,3.6,1.8,5.6,2.3c2.7,0.8,5.4,1.4,8.1,1.9c3.1,0.6,6,1.3,8.6,2c2.3,0.6,4.5,1.5,6.5,2.7c1.7,1,3.1,2.3,4.1,4
			c2.9,5.6,1.3,12.5-3.9,16.2c-3.6,2.4-8.5,3.5-14.7,3.5c-4.2,0.1-8.3-0.6-12.2-2c-3.7-1.4-7.1-3.6-9.9-6.4"/>
		<path id="letter-e" class="st0" d="M483.7,400.4h33 M523.7,373h-39.5v53.8h40.5"/>
		<path id="letter-t-3" class="st0" d="M463.7,373.6h-22.5v53.9"/>
		<path id="letter-i" class="st0" d="M398.2,373.5v53.8"/>
		<path id="letter-s-2" class="st0" d="M371.8,380.3c-1.9-2.1-4.3-3.8-7-4.8c-2.8-0.9-5.7-1.4-8.7-1.3c-2.8,0-5.6,0.3-8.4,0.9
			c-2.1,0.5-4,1.4-5.7,2.7c-1.4,1.1-2.6,2.5-3.3,4.1c-0.7,1.7-1,3.6-1,5.4c-0.1,1.7,0.3,3.4,1,4.9c0.8,1.4,1.9,2.5,3.2,3.3
			c1.7,1,3.6,1.8,5.6,2.3c2.7,0.8,5.4,1.4,8.1,1.9c3.1,0.6,6,1.3,8.6,2c2.3,0.6,4.5,1.5,6.5,2.7c1.7,1,3.1,2.3,4.1,4
			c2.9,5.6,1.3,12.5-3.9,16.2c-3.6,2.4-8.5,3.5-14.7,3.5c-4.2,0.1-8.3-0.6-12.2-2c-3.7-1.4-7.1-3.6-9.9-6.4"/>
	</g>
	<g id="tasty">
		<path id="letter-y" class="st0" d="M251.2,404.8l22-31.8 M229.2,372.9l21.9,31.8v23.2"/>
		<polyline id="letter-t-2" class="st0" points="193.2,427.7 193.2,373.6 215.8,373.6 		"/>
		<path id="letter-s-1" class="st0" d="M154.5,379c-1.9-2.1-4.3-3.8-7-4.9c-2.8-0.9-5.7-1.4-8.7-1.3c-2.8,0-5.6,0.3-8.4,0.9
			c-2.1,0.5-4,1.4-5.7,2.7c-1.4,1.1-2.6,2.5-3.3,4.1c-0.7,1.7-1,3.6-1,5.4c-0.1,1.7,0.3,3.4,1,4.9c0.8,1.4,1.9,2.5,3.2,3.3
			c1.7,1,3.6,1.8,5.6,2.3c2.7,0.8,5.4,1.4,8.1,1.9c3.2,0.6,6,1.3,8.6,2c2.3,0.6,4.5,1.5,6.5,2.7c1.7,1,3.1,2.3,4.1,4
			c2.9,5.6,1.3,12.6-3.9,16.3c-3.5,2.4-8.4,3.6-14.7,3.6c-4.2,0.1-8.3-0.6-12.2-2c-3.7-1.5-7.1-3.7-9.9-6.5"/>
		<path id="letter-a" class="st0" d="M54.5,427l24.8-54.2h1.4l24.7,54.2 M64.1,405.3h32"/>
		<path id="letter-t-1" class="st0" d="M27.2,426.9v-54.2H4.7"/>
	</g>
</g>
</svg>
