<svg xmlns="http://www.w3.org/2000/svg" viewBox="0 0 1440 460.24">
  <title>clouds__animation__group</title>
  <g id="Layer_2" data-name="Layer 2">
    <g id="clouds__animation">
      <g id="clouds__animation__group">
        <g id="cloud01">
          <g id="cloud01__blue01">
            <polygon points="165.41 69.33 174.87 84.8 155.95 81.25 165.41 69.33" fill="#e1f4f9"/>
            <polygon points="190.7 98.14 170.99 99.24 174.87 84.8 190.7 98.14" fill="#e1f4f9"/>
            <polygon points="136.08 85.25 121.1 98.2 140.87 101.93 136.08 85.25" fill="#e1f4f9"/>
          </g>
          <g id="cloud01__blue02">
            <polygon points="155.95 81.25 170.99 99.24 174.87 84.8 155.95 81.25" fill="#d6eef4"/>
            <g>
              <g>
                <polygon points="155.95 81.25 165.41 69.33 145.4 69.91 155.95 81.25" fill="#d6eef4"/>
                <polygon points="170.99 99.24 190.7 98.14 181.13 118.81 170.99 99.24" fill="#d6eef4"/>
              </g>
              <polygon points="140.87 101.93 132.45 118.81 121.1 98.2 140.87 101.93" fill="#d6eef4"/>
              <polygon points="136.08 85.25 118.81 81.82 121.1 98.2 136.08 85.25" fill="#d6eef4"/>
            </g>
          </g>
          <g id="cloud01__blue03">
            <polygon points="155.95 81.25 140.87 101.93 170.99 99.24 155.95 81.25" fill="#aedde9"/>
            <g>
              <g>
                <polygon points="155.95 81.25 136.08 85.25 145.4 69.91 155.95 81.25" fill="#aedde9"/>
                <polygon points="181.13 118.81 158.36 114.54 170.99 99.24 181.13 118.81" fill="#aedde9"/>
                <polygon points="132.45 118.81 158.36 114.54 140.87 101.93 132.45 118.81" fill="#aedde9"/>
                <polygon points="118.81 81.82 103.8 97.25 121.1 98.2 118.81 81.82" fill="#aedde9"/>
              </g>
              <polygon points="121.1 98.2 112.6 115.38 132.45 118.81 121.1 98.2" fill="#aedde9"/>
            </g>
          </g>
          <g id="cloud01__blue04">
            <polygon points="136.08 85.25 155.95 81.25 140.87 101.93 136.08 85.25" fill="#8bcddf"/>
            <polygon points="140.87 101.93 158.36 114.54 170.99 99.24 140.87 101.93" fill="#8bcddf"/>
            <polygon points="103.8 97.25 112.6 115.38 121.1 98.2 103.8 97.25" fill="#8bcddf"/>
          </g>
        </g>
        <g id="cloud02">
          <g id="cloud02__blue01">
            <polygon points="569.78 119.31 573.71 133.92 550.57 127.53 569.78 119.31" fill="#e1f4f9"/>
            <polygon points="533.77 126.46 519.86 130.27 520.46 143.96 533.77 126.46" fill="#e1f4f9"/>
            <polygon points="575.45 144.95 596.25 146.47 587.55 136.5 575.45 144.95" fill="#e1f4f9"/>
          </g>
          <g id="cloud02__blue02">
            <polygon points="550.21 127.14 562.97 145.48 573.71 133.92 550.21 127.14" fill="#d6eef4"/>
            <polygon points="550.57 127.53 569.78 119.31 548.6 114.75 550.57 127.53" fill="#d6eef4"/>
            <polygon points="533.77 126.46 520.46 143.96 541.34 150.5 533.77 126.46" fill="#d6eef4"/>
            <polygon points="575.45 144.95 587.55 136.5 573.71 133.92 575.45 144.95" fill="#d6eef4"/>
          </g>
          <g id="cloud02__blue03">
            <polygon points="550.57 127.53 541.34 150.5 562.97 145.48 550.57 127.53" fill="#aedde9"/>
            <polygon points="550.57 127.53 548.6 114.75 533.77 126.46 550.57 127.53" fill="#aedde9"/>
            <polygon points="519.86 130.27 510.25 147.08 520.46 143.96 519.86 130.27" fill="#aedde9"/>
            <polygon points="575.45 144.95 573.71 133.92 562.97 145.48 575.45 144.95" fill="#aedde9"/>
            <polygon points="575.45 144.95 591.94 155.29 596.25 146.47 575.45 144.95" fill="#aedde9"/>
          </g>
          <g id="cloud02__blue04">
            <polygon points="550.57 127.53 533.77 126.46 541.34 150.5 550.57 127.53" fill="#8bcddf"/>
            <g>
              <polygon points="520.46 143.96 536.35 163.13 541.34 150.5 520.46 143.96" fill="#8bcddf"/>
              <polygon points="520.46 143.96 510.25 147.08 519.86 159.09 520.46 143.96" fill="#8bcddf"/>
              <polygon points="555.33 160.39 562.97 145.48 541.34 150.5 555.33 160.39" fill="#8bcddf"/>
              <polygon points="562.97 145.48 575.45 144.95 579.16 161.91 562.97 145.48" fill="#8bcddf"/>
            </g>
          </g>
          <g id="cloud02__blue05">
            <polygon points="520.46 143.96 519.86 159.09 536.35 163.13 520.46 143.96" fill="#7ab9d2"/>
            <polygon points="541.34 150.5 555.33 160.39 536.35 163.13 541.34 150.5" fill="#7ab9d2"/>
            <polygon points="562.97 145.48 579.16 161.91 555.33 160.39 562.97 145.48" fill="#7ab9d2"/>
            <polygon points="591.94 155.29 579.16 161.91 575.45 144.95 591.94 155.29" fill="#7ab9d2"/>
          </g>
        </g>
        <g id="cloud03">
          <g id="cloud03__blue01">
            <polygon points="684.1 29.51 696.02 20.75 703.13 33.28 684.1 29.51" fill="#e1f4f9"/>
            <polygon points="703.13 33.28 708.11 47.61 691.79 48.21 703.13 33.28" fill="#e1f4f9"/>
            <polygon points="665.62 31.86 655.59 46.23 674.04 47.78 665.62 31.86" fill="#e1f4f9"/>
            <polygon points="700.41 63.04 680.95 66.47 691.79 48.21 700.41 63.04" fill="#e1f4f9"/>
          </g>
          <g id="cloud03__blue02">
            <polygon points="691.79 48.21 700.41 63.04 708.11 47.61 691.79 48.21" fill="#d6eef4"/>
            <g>
              <polygon points="684.1 29.51 689.75 25.75 696.02 20.75 676.8 20.86 684.1 29.51" fill="#d6eef4"/>
              <path d="M691.76,48.15l0,.06,11.34-14.93-19-3.77Z" fill="#d6eef4"/>
              <polygon points="655.59 46.23 662.6 64.42 668.75 55.75 674.04 47.78 655.59 46.23" fill="#d6eef4"/>
              <polygon points="691.79 48.21 674.04 47.78 680.95 66.47 691.79 48.21" fill="#d6eef4"/>
              <polygon points="646.92 34.45 665.62 31.86 655.59 46.23 646.92 34.45" fill="#d6eef4"/>
            </g>
          </g>
          <g id="cloud03__blue03">
            <polygon points="665.62 31.86 676.8 20.86 684.1 29.51 675.75 30.75 665.62 31.86" fill="#aedde9"/>
            <polygon points="691.79 48.21 684.1 29.51 674.04 47.78 691.79 48.21" fill="#aedde9"/>
            <polygon points="646.92 34.45 636.89 49 655.59 46.23 646.92 34.45" fill="#aedde9"/>
            <polygon points="643 61.41 662.6 64.42 655.59 46.23 643 61.41" fill="#aedde9"/>
            <polygon points="662.6 64.42 680.95 66.47 677.75 57.75 674.04 47.78 662.6 64.42" fill="#aedde9"/>
          </g>
          <g id="cloud03__blue04">
            <polygon points="665.62 31.86 684.1 29.51 674.04 47.78 665.62 31.86" fill="#8bcddf"/>
            <polygon points="655.59 46.23 643 61.41 636.89 49 655.59 46.23" fill="#8bcddf"/>
          </g>
        </g>
        <g id="cloud04">
          <g id="cloud04__allColors">
            <g id="cloud04__blue01">
              <polygon id="Fill-10" points="1073.87 136.27 1093.6 211.44 975.11 177.53 1073.87 136.27" fill="#e1f4f9"/>
              <polygon id="Fill-12" points="889.58 172.88 818.23 191.08 821.15 261.35 889.58 172.88" fill="#e1f4f9"/>
              <polygon id="Fill-19" points="1102.81 266.79 1208.75 274.28 1163.75 224.38 1102.81 266.79" fill="#e1f4f9"/>
            </g>
            <g id="cloud04__blue02">
              <polygon id="Fill-9" points="975.08 177.51 1073.87 136.25 965.2 112.86 975.08 177.51" fill="#d6eef4"/>
              <g>
                <polygon id="Fill-5" points="975.11 177.47 1039.35 268.71 1093.6 211.44 975.11 177.47" fill="#d6eef4"/>
                <polygon id="Fill-11" points="889.58 172.88 820.33 261.63 928.33 295.33 889.58 172.88" fill="#d6eef4"/>
                <polygon id="Fill-18" points="1102.77 266.84 1163.75 224.38 1093.41 211.59 1102.77 266.84" fill="#d6eef4"/>
              </g>
            </g>
            <g id="cloud04__blue03">
              <polygon id="Fill-4" points="818.23 191 769.13 277.5 821.19 261.5 818.23 191" fill="#aedde9"/>
              <polygon id="Fill-6" points="975.09 177.52 928.22 295.52 1039.35 268.7 975.09 177.52" fill="#aedde9"/>
              <polygon id="Fill-8" points="975.11 177.51 965.2 112.86 889.58 172.88 975.11 177.51" fill="#aedde9"/>
              <polygon id="Fill-17" points="1102.81 266.79 1093.6 211.41 1039.35 268.71 1102.81 266.79" fill="#aedde9"/>
              <polygon id="Fill-20" points="1102.72 266.75 1186.49 318.75 1208.75 274.28 1102.72 266.75" fill="#aedde9"/>
            </g>
            <g id="cloud04__blue04">
              <polygon id="Fill-1" points="821.75 260.75 769.2 277.21 818.38 337.95 821.75 260.75" fill="#8bcddf"/>
              <polygon id="Fill-3" points="821.75 261.25 904.66 360.73 929.75 294.41 821.75 261.25" fill="#8bcddf"/>
              <polygon id="Fill-7" points="975.11 177.51 889.58 172.88 927.88 296.25 975.11 177.51" fill="#8bcddf"/>
              <polygon id="Fill-14" points="999.11 345.25 1039.36 268.7 926.92 295 999.11 345.25" fill="#8bcddf"/>
              <polygon id="Fill-16" points="1039.35 268.71 1102.75 266.75 1121.8 352.73 1039.35 268.71" fill="#8bcddf"/>
            </g>
            <g id="cloud04__blue05">
              <polygon id="Fill-2" points="821.75 260.75 818.38 337.95 904.75 360.75 821.75 260.75" fill="#7ab9d2"/>
              <polygon id="Fill-13" points="928.26 294.25 999.11 345.25 902.69 358.91 928.26 294.25" fill="#7ab9d2"/>
              <polygon id="Fill-15" points="1039.7 268.14 1122.13 352.5 999.46 344.71 1039.7 268.14" fill="#7ab9d2"/>
              <polygon id="Fill-21" points="1186.49 318.75 1121.7 352.73 1102.75 266.75 1186.49 318.75" fill="#7ab9d2"/>
            </g>
          </g>
          <g id="cloud04__outlines">
            <polyline id="Stroke-62" points="1121.7 351.3 1038.89 269.29 1102.74 266.59 1093.84 210.58 1073.71 136.42" fill="none" stroke="#24b4e8"/>
            <polyline id="Stroke-64" points="1093.84 210.58 1164.65 223.72 1209.14 274.32 1102.74 266.59 1164.65 223.72" fill="none" stroke="#24b4e8"/>
            <path id="Stroke-66" d="M1187.09,319.12" fill="none" stroke="#24b4e8"/>
            <polyline id="Stroke-66-2" data-name="Stroke-66" points="1209.14 274.32 1187.09 319.12 1102.74 266.59 1121.7 352.73" fill="none" stroke="#24b4e8"/>
            <polygon id="Stroke-60" points="1038.89 269.29 928.23 294.79 999.81 345 1038.89 269.29" fill="none" stroke="#24b4e8"/>
            <polygon id="Stroke-58" points="889.53 172.73 975.43 177.51 965.37 112.62 889.53 172.73" fill="none" stroke="#24b4e8"/>
            <path id="Stroke-68" d="M818.33,338.44" fill="none" stroke="#24b4e8"/>
            <polyline id="Stroke-68-2" data-name="Stroke-68" points="818.33 338.44 821.43 261.57 769.19 277.4" fill="none" stroke="#24b4e8"/>
            <polyline id="Stroke-68-3" data-name="Stroke-68" points="902.69 358.91 928.23 294.79 821.43 261.57 902.69 358.91" fill="none" stroke="#24b4e8"/>
            <path id="Stroke-68-4" data-name="Stroke-68" d="M999.81,345" fill="none" stroke="#24b4e8"/>
            <path id="Stroke-68-5" data-name="Stroke-68" d="M1121.7,352.73" fill="none" stroke="#24b4e8"/>
            <polyline id="Stroke-70" points="965.37 112.62 1073.71 136.42 975.43 177.51 1093.84 210.58 1038.89 269.29 975.43 177.51 928.23 294.79 889.53 172.73 818.33 192.04 821.43 261.57 889.53 172.73" fill="none" stroke="#24b4e8"/>
            <path id="Stroke-72" d="M818.33,338.44l84.36,20.47" fill="none" stroke="#24b4e8"/>
            <path id="Stroke-72-2" data-name="Stroke-72" d="M769.23,277.33l0,.08,49.14,61" fill="none" stroke="#24b4e8"/>
            <path id="Stroke-72-3" data-name="Stroke-72" d="M818.33,192l-49.1,85.29" fill="none" stroke="#24b4e8"/>
            <path id="Fill-22" d="M980.78,177.51a5.35,5.35,0,1,1-5.35-5.34,5.35,5.35,0,0,1,5.35,5.34" fill="#24b4e8"/>
            <path id="Fill-24" d="M826.78,261.57a5.35,5.35,0,1,1-5.35-5.34,5.35,5.35,0,0,1,5.35,5.34" fill="#24b4e8"/>
            <path id="Fill-34" d="M1044.24,269.29a5.35,5.35,0,1,1-5.35-5.34,5.34,5.34,0,0,1,5.35,5.34" fill="#24b4e8"/>
            <path id="Fill-38" d="M1108.09,266.59a5.36,5.36,0,1,1-5.35-5.34,5.35,5.35,0,0,1,5.35,5.34" fill="#24b4e8"/>
            <path id="Fill-40" d="M1213.67,274.32a5.36,5.36,0,1,1-5.35-5.35,5.35,5.35,0,0,1,5.35,5.35" fill="#24b4e8"/>
            <path id="Fill-42" d="M1170,223.72a5.36,5.36,0,1,1-5.35-5.35,5.35,5.35,0,0,1,5.35,5.35" fill="#24b4e8"/>
            <path id="Fill-44" d="M823.69,192.69a5.36,5.36,0,1,1-5.36-5.34,5.35,5.35,0,0,1,5.36,5.34" fill="#24b4e8"/>
            <path id="Fill-48" d="M1079.07,136.86a5.36,5.36,0,1,1-5.35-5.35,5.35,5.35,0,0,1,5.35,5.35" fill="#24b4e8"/>
            <path id="Fill-50" d="M1099.19,210.58a5.36,5.36,0,1,1-5.35-5.34,5.36,5.36,0,0,1,5.35,5.34" fill="#24b4e8"/>
            <path id="Fill-52" d="M896.43,172.11a5.35,5.35,0,1,1-5.35-5.35,5.35,5.35,0,0,1,5.35,5.35" fill="#24b4e8"/>
            <path id="Fill-54" d="M933.58,294.25a5.36,5.36,0,1,1-5.36-5.34,5.36,5.36,0,0,1,5.36,5.34" fill="#24b4e8"/>
            <path id="Fill-56" d="M970.72,112.62a5.35,5.35,0,1,1-5.35-5.34,5.35,5.35,0,0,1,5.35,5.34" fill="#24b4e8"/>
            <g id="cloud04__nodeStorm" opacity="0.5">
              <path id="Stroke-1" d="M967.75,112.25l58-72" fill="none" stroke="#24b4e8" stroke-width="3"/>
              <path id="Stroke-17" d="M1033.75,35.75a5.5,5.5,0,1,1-5.5-5.5A5.5,5.5,0,0,1,1033.75,35.75Z" fill="none" stroke="#24b4e8" stroke-width="3"/>
              <path id="Stroke-3" d="M1075.75,136.25l43.06-49.5A33.41,33.41,0,0,1,1144,75.25h62.73" fill="none" stroke="#24b4e8" stroke-width="3"/>
              <path id="Stroke-29" d="M1217.75,75.75a5.5,5.5,0,1,1-5.5-5.5A5.5,5.5,0,0,1,1217.75,75.75Z" fill="none" stroke="#24b4e8" stroke-width="3"/>
              <path id="Stroke-5" d="M1147.75,75.25l19,26" fill="none" stroke="#24b4e8" stroke-width="3"/>
              <path id="Stroke-19" d="M1174.75,105.75a5.5,5.5,0,1,1-5.5-5.5A5.5,5.5,0,0,1,1174.75,105.75Z" fill="none" stroke="#24b4e8" stroke-width="3"/>
              <path id="Stroke-7" d="M1095.75,209.25l13.84-13.72a28.46,28.46,0,0,1,20.06-8.28h164.1" fill="none" stroke="#24b4e8" stroke-width="3"/>
              <path id="Stroke-25" d="M1305.75,186.75a5.5,5.5,0,1,1-5.5-5.5A5.5,5.5,0,0,1,1305.75,186.75Z" fill="none" stroke="#24b4e8" stroke-width="3"/>
              <path id="Stroke-9" d="M1197.75,187.25,1226.09,155a28.66,28.66,0,0,1,21.52-9.73h14.14" fill="none" stroke="#24b4e8" stroke-width="3"/>
              <path id="Stroke-21" d="M1271.75,144.75a5.5,5.5,0,1,1-5.5-5.5A5.5,5.5,0,0,1,1271.75,144.75Z" fill="none" stroke="#24b4e8" stroke-width="3"/>
              <path id="Stroke-11" d="M1197.75,188.25l28.34,32.27a28.66,28.66,0,0,0,21.52,9.73h14.14" fill="none" stroke="#24b4e8" stroke-width="3"/>
              <path id="Stroke-23" d="M1271.75,230.75a5.5,5.5,0,1,1-5.5-5.5A5.5,5.5,0,0,1,1271.75,230.75Z" fill="none" stroke="#24b4e8" stroke-width="3"/>
              <path id="Stroke-35" d="M1210.75,274.25h46" fill="none" stroke="#24b4e8" stroke-width="3"/>
              <path id="Stroke-27" d="M1266.75,273.75a5.5,5.5,0,1,1-5.5-5.5A5.5,5.5,0,0,1,1266.75,273.75Z" fill="none" stroke="#24b4e8" stroke-width="3"/>
            </g>
            <line id="Stroke-66-3" data-name="Stroke-66" x1="1121.7" y1="352.73" x2="1187.09" y2="319.12" fill="none" stroke="#24b4e8"/>
            <line id="Stroke-68-6" data-name="Stroke-68" x1="902.69" y1="358.91" x2="999.81" y2="345" fill="none" stroke="#24b4e8"/>
            <line id="Stroke-68-7" data-name="Stroke-68" x1="1121.7" y1="352.73" x2="999.81" y2="345" fill="none" stroke="#24b4e8"/>
            <path id="Fill-26" d="M823.69,337.9a5.36,5.36,0,1,1-5.36-5.34,5.35,5.35,0,0,1,5.36,5.34" fill="#24b4e8"/>
            <path id="Fill-28" d="M908,358.91a5.36,5.36,0,1,1-5.35-5.35,5.35,5.35,0,0,1,5.35,5.35" fill="#24b4e8"/>
            <path id="Fill-30" d="M1005.16,345a5.35,5.35,0,1,1-5.35-5.34,5.34,5.34,0,0,1,5.35,5.34" fill="#24b4e8"/>
            <path id="Fill-32" d="M1127.05,351.3a5.36,5.36,0,1,1-5.35-5.35,5.35,5.35,0,0,1,5.35,5.35" fill="#24b4e8"/>
            <path id="Fill-36" d="M1191.33,318.62a5.36,5.36,0,1,1-5.36-5.34,5.35,5.35,0,0,1,5.36,5.34" fill="#24b4e8"/>
            <path id="Fill-46" d="M776.45,277.41a5.35,5.35,0,1,1-5.35-5.35,5.34,5.34,0,0,1,5.35,5.35" fill="#24b4e8"/>
            <path id="Stroke-15" d="M1188.75,318.25h25" fill="none" stroke="#24b4e8" stroke-width="3"/>
            <path id="Stroke-31" d="M1220.25,324.25a5.5,5.5,0,1,1,5.5-5.5,5.5,5.5,0,0,1-5.5,5.5" fill="none" stroke="#24b4e8" stroke-width="3"/>
            <path id="Stroke-13" d="M1274.33,360.25h53.42" fill="none" stroke="#24b4e8" stroke-width="3"/>
            <path id="Stroke-13-2" data-name="Stroke-13" d="M1254,351.78a28.59,28.59,0,0,0,20.29,8.47" fill="none" stroke="#24b4e8" stroke-width="3"/>
            <path id="Stroke-13-3" data-name="Stroke-13" d="M1224.75,322.25,1254,351.78" fill="none" stroke="#24b4e8" stroke-width="3"/>
            <path id="Stroke-33" d="M1336.75,359.75a5.5,5.5,0,1,1-5.5-5.5A5.5,5.5,0,0,1,1336.75,359.75Z" fill="none" stroke="#24b4e8" stroke-width="3"/>
          </g>
          <path id="cloud04__electricity__path05" d="M1261.25,266.75a7,7,0,0,0-6.92,6h-40.89a5.36,5.36,0,0,0-10.39.62l-95-6.89a5.34,5.34,0,0,0-10.68-.17l-53.22,2.26a5.35,5.35,0,0,0-7.91-3.94l-57.4-83a5.36,5.36,0,1,0-5.89.65l-43,106.94a5.18,5.18,0,0,0-1.72-.29A5.34,5.34,0,0,0,926,299.1l-21.78,54.68a5,5,0,0,0-1.5-.22,5.37,5.37,0,1,0,2.43.59l21.79-54.72a5.17,5.17,0,0,0,1.31.17,5.34,5.34,0,0,0,2.63-10l43.06-107a5.42,5.42,0,0,0,1.52.22,5.24,5.24,0,0,0,2.61-.69l57.41,83a5.34,5.34,0,1,0,8.77,4.37l53.22-2.25a5.35,5.35,0,0,0,10.57.16l95,6.88a5.35,5.35,0,0,0,10.51,1.39h41.08a7,7,0,1,0,6.7-9Zm0,11a4,4,0,1,1,4-4A4,4,0,0,1,1261.25,277.75Z" fill="#24b4e8"/>
          <path id="cloud04__electricity__path04" d="M1300.25,179.75a7,7,0,0,0-6.92,6h-92.26L1227.22,156a27.13,27.13,0,0,1,20.39-9.22h11.94a7,7,0,1,0-.22-3h-11.72A30.1,30.1,0,0,0,1225,154l-27.9,31.76h-67.42a29.86,29.86,0,0,0-21.12,8.71l-11.76,11.66a5.27,5.27,0,0,0-2.93-.88,5.34,5.34,0,0,0-4,8.89l-47.67,50.94a5.35,5.35,0,0,0-8.62,4.22,5.52,5.52,0,0,0,0,.71L933.44,293.07a5.35,5.35,0,0,0-10.33-.4l-96.45-30a4.94,4.94,0,0,0,.12-1.1,5.35,5.35,0,0,0-10.7,0,5.29,5.29,0,0,0,.11,1.06h0l-40.38,12.24a5.34,5.34,0,1,0,.39.92l40.28-12.21a5.36,5.36,0,0,0,9.89,0l96.54,30a4,4,0,0,0,0,.6,5.36,5.36,0,0,0,10.71,0,1.09,1.09,0,0,0,0-.18L1033.81,271a5.35,5.35,0,1,0,9.09-5.22l47.66-50.94a5.35,5.35,0,0,0,8.63-4.23,5.2,5.2,0,0,0-.46-2.16l11.91-11.82a26.87,26.87,0,0,1,19-7.85h67.53l-.56.49L1225,221.51a30.1,30.1,0,0,0,22.64,10.24h11.72a7,7,0,1,0,.22-3h-11.94a27.13,27.13,0,0,1-20.39-9.22l-27-30.78h93.36a7,7,0,1,0,6.7-9Zm-34-39a4,4,0,1,1-4,4A4,4,0,0,1,1266.25,140.75ZM821.42,262.09h0l-.13,0,.15-.47.14.47ZM1038.53,269l.1-.11.15,0,.11.48Zm227.72-42.2a4,4,0,1,1-4,4A4,4,0,0,1,1266.25,226.75Zm34-36a4,4,0,1,1,4-4A4,4,0,0,1,1300.25,190.75Z" fill="#24b4e8"/>
          <path id="cloud04__electricity__path03" d="M1212.25,68.75a7,7,0,0,0-6.7,5H1144a34.92,34.92,0,0,0-26.34,12l-40.74,46.83a5.23,5.23,0,0,0-3.22-1.09,5.36,5.36,0,0,0-5.36,5.35,5.26,5.26,0,0,0,.14,1.2L980.16,175a5.35,5.35,0,0,0-10,1.73l-73.75-4.11a4.07,4.07,0,0,0,0-.5,5.35,5.35,0,1,0-10.7,0,5.27,5.27,0,0,0,1.13,3.27L824.26,257a5.33,5.33,0,0,0-8.07,5.59h0l-40.37,12.24a5.54,5.54,0,1,0,.38.92l40.28-12.21a5.35,5.35,0,0,0,10.3-2,5.28,5.28,0,0,0-1.72-3.91l62.5-81.54a5.34,5.34,0,0,0,8.65-2.52l73.88,4.11a5.35,5.35,0,0,0,10.69-.2,5.28,5.28,0,0,0-.24-1.59L1068.81,139a5.36,5.36,0,0,0,10.26-2.15,5.3,5.3,0,0,0-.31-1.79L1120,87.74a31.86,31.86,0,0,1,24.07-11h3l17.47,23.91a7,7,0,1,0,2.59-1.55l-16.34-22.36h54.62a7,7,0,1,0,6.92-8ZM889.77,173.24h-.27l0-.5.4.3Zm85.66,4.28-.19-.47.09,0h.13Zm193.82-75.77a4,4,0,1,1-4,4A4,4,0,0,1,1169.25,101.75Zm43-22a4,4,0,1,1,4-4A4,4,0,0,1,1212.25,79.75Z" fill="#24b4e8"/>
          <path id="cloud04__electricity__path02" d="M1331.25,352.75a7,7,0,0,0-6.92,6h-50a26.87,26.87,0,0,1-19.22-8l-28.61-28.84a6.88,6.88,0,0,0,.75-3.13,7,7,0,0,0-13.7-2H1191a5.36,5.36,0,0,0-10.37,1.87,5.2,5.2,0,0,0,.83,2.84l-54.69,28.1a5.36,5.36,0,0,0-10.42,1.74,3.81,3.81,0,0,0,0,.59l-111.23-7.05a5.35,5.35,0,0,0-10.69.16,2.26,2.26,0,0,0,0,.26l-86.59,12.4a5.34,5.34,0,0,0-10.25-.5l-74.1-18a4.93,4.93,0,0,0,.16-1.28,5.36,5.36,0,0,0-8.58-4.26l-41.48-51.52a5.38,5.38,0,1,0-1,.4l41.71,51.8A5.27,5.27,0,0,0,813,337.9a5.36,5.36,0,0,0,10.22,2.23l74.2,18a4,4,0,0,0-.07.78,5.36,5.36,0,0,0,10.71,0,2.17,2.17,0,0,0,0-.26l86.58-12.4a5.35,5.35,0,0,0,10.48-.41l111.5,7.07a5.36,5.36,0,0,0,10.46-1.61,4.52,4.52,0,0,0-.06-.74l55.08-28.29a5.36,5.36,0,0,0,9.14-2.52h22.12a7,7,0,0,0,11.26,4.48L1253,352.84a29.93,29.93,0,0,0,21.36,8.91h50.22a7,7,0,1,0,6.7-9Zm-428.56,6.14-.07-.48h.09l.09,0Zm97.09-13.39,0-.5.07.5Z" fill="#24b4e8"/>
          <path id="cloud04__electricity__path01" d="M1028.25,28.75a7,7,0,0,0-4.86,12l-54.57,67.75a5.36,5.36,0,0,0-8.8,4.09,5.27,5.27,0,0,0,.87,2.91l-66.3,52.55a5.34,5.34,0,0,0-8.86,4,4.94,4.94,0,0,0,.12,1.1l-62.76,17A5.36,5.36,0,0,0,813,192.69a5.27,5.27,0,0,0,2,4.16l-43.31,75.24a5.49,5.49,0,0,0-.58,0,5.33,5.33,0,1,0,1.6.24l43.12-74.89a5.45,5.45,0,0,0,2.51.62,5.35,5.35,0,0,0,5.36-5.34,5.55,5.55,0,0,0-.22-1.53l62.67-17a5.35,5.35,0,1,0,9.14-5.35l66.23-52.5a5.34,5.34,0,0,0,9.21-3.69,5.13,5.13,0,0,0-.2-1.42L1026,42.36a6.56,6.56,0,0,0,2.27.39,7,7,0,0,0,0-14Zm-139,143.59.07-.06h0l.1,0,.13.48Zm139-132.59a4,4,0,1,1,4-4A4,4,0,0,1,1028.25,39.75Z" fill="#24b4e8"/>
          <g id="cloud04__electricity__mask05">
            <rect x="836.63" y="369.89" width="90.34" height="90.34" rx="45.17" ry="45.17" transform="matrix(0.54, -0.84, 0.84, 0.54, 59.35, 937.95)"/>
          </g>
          <g id="cloud04__electricity__mask04">
            <rect x="604.41" y="203.78" width="144.78" height="136.56" rx="45.17" ry="45.17" transform="translate(-44.88 165.96) rotate(-13.54)"/>
          </g>
          <g id="cloud04__electricity__mask03">
            <rect x="658.95" y="249.61" width="107.6" height="101.49" rx="45.17" ry="45.17" transform="translate(77.65 741.8) rotate(-57.65)"/>
          </g>
          <g id="cloud04__electricity__mask02">
            <rect x="671.31" y="225.98" width="91.34" height="86.15" rx="34.95" ry="34.95" transform="translate(106.06 730.81) rotate(-57.65)"/>
          </g>
          <g id="cloud04__electricity__mask01">
            <rect x="708.2" y="289.01" width="74.11" height="69.9" rx="34.95" ry="34.95" transform="translate(72.82 780.24) rotate(-57.65)"/>
          </g>
          <polyline id="cloud04__electricity__bezier__path05" points="902 360.5 928 294.5 975.5 176.5 1038 269.5 1102.5 267 1207 275 1283.5 273.75" fill="none"/>
          <path id="cloud04__electricity__bezier__path04" d="M738,277.33l83.28-15.28L928.33,295l111.34-25.95L1094,210s16.33-19.67,30-22.33,75,0,75,0l121.33-.34" fill="none"/>
          <path id="cloud04__electricity__bezier__path03" d="M730.13,291l91.37-29L891,172.73l84.43,4.79,98.57-41s42.75-62.5,74-60.75S1200,94,1200,94" fill="none"/>
          <path id="cloud04__electricity__bezier__path02" d="M732.1,257.52l37.09,19.89,49.14,61,84.36,22.06L1000.5,346,1122.13,352l63.65-32.83,34.47-.5s26.5,29.28,35.79,35,11.79,8.05,75,6.13" fill="none"/>
          <path id="cloud04__electricity__bezier__path01" d="M745.25,324.7S804.17,188,827.13,183.37s64.29-17.23,75-24.28S976.5,98,976.5,98l71.3-83.23" fill="none"/>
        </g>
        <rect id="wrapper" width="1440" height="386" fill="none"/>
      </g>
    </g>
  </g>
</svg>
