<svg xmlns="http://www.w3.org/2000/svg" viewBox="0 0 541.04 435.8"><title>drone-animation</title><g id="Layer_2" data-name="Layer 2"><g id="Layer_1-2" data-name="Layer 1"><g id="wings"><g id="tl-wing"><path d="M139.53,79.67c7.88-.49,14-.55,20.1-.81,10.07-.43,20.14-.21,30.2-.14,3.35,0,6.72,0,10.07.23,4,.27,8,.42,12,.63,4.2.22,8.39.73,12.57,1.19a33.34,33.34,0,0,1,4.74.92c.85.22,1.85.71,1.79,1.7s-1,1.37-1.79,1.57a59,59,0,0,1-8.15,1.26c-4.21.4-8.42.73-12.64.93-4.44.21-8.88.42-13.33.59-10.72.4-21.45.33-32.17.21-4,0-7.93,0-11.88-.29s-7.79-.2-11.66-.59c-5.68-.58-11.44-.64-17-2.07a4,4,0,0,1-.82-.28c-.63-.34-1.36-.72-1.28-1.47s.69-1.08,1.43-1.32a49.11,49.11,0,0,1,9-1.54C134.14,79.94,137.72,79.9,139.53,79.67Z" fill="#fff" stroke="#fff" stroke-miterlimit="10"/><path d="M25.94,79.54c4.15-.45,8.34-.1,12.49-.34,9.66-.57,19.33-.25,29-.17,3.45,0,6.92,0,10.37.22,5.23.27,10.47.43,15.67,1,4,.41,8,.54,11.93,1.76.8.25,1.74.46,1.69,1.54s-.93,1.25-1.76,1.49a45.36,45.36,0,0,1-7.23,1.25c-4.58.59-9.19.86-13.79,1.1-5,.26-10,.23-14.9.44-9.52.42-19,.21-28.54.15-3.8,0-7.63,0-11.43-.26s-7.39-.24-11-.6c-5.38-.53-10.84-.57-16.1-2.07-.83-.24-1.73-.47-1.76-1.48s1-1.32,1.83-1.57a37.09,37.09,0,0,1,6.93-1.2c4.59-.4,9.19-.82,13.78-1.19A20.43,20.43,0,0,1,25.94,79.54Z" fill="#fff" stroke="#fff" stroke-miterlimit="10"/><path d="M118.66,85.41a4.73,4.73,0,1,1-4.76-4.7h0a4.72,4.72,0,0,1,4.76,4.68Z" fill="#fff" stroke="#fff" stroke-miterlimit="10"/><path d="M113.91,83.45a2,2,0,0,1,0,4h-.06a1.92,1.92,0,0,1-1.93-1.89h0a2,2,0,0,1,1.93-2.07h0Z" fill="#fff" stroke="#fff" stroke-miterlimit="10"/></g><g id="tr-wing"><path d="M401.53,79.67c-7.88-.49-14-.55-20.1-.81-10.07-.43-20.14-.21-30.2-.14-3.35,0-6.72,0-10.07.23-4,.27-8,.42-12,.63-4.2.22-8.39.73-12.57,1.19a33.34,33.34,0,0,0-4.74.92c-.85.22-1.85.71-1.79,1.7s1,1.37,1.79,1.57A59,59,0,0,0,320,86.22c4.21.4,8.42.73,12.64.93,4.44.21,8.88.42,13.33.59,10.72.4,21.45.33,32.17.21,4,0,7.93,0,11.88-.29s7.79-.2,11.66-.59c5.68-.58,11.44-.64,17-2.07a4,4,0,0,0,.82-.28c.63-.34,1.36-.72,1.28-1.47s-.69-1.08-1.43-1.32a49.11,49.11,0,0,0-9-1.54C406.9,79.94,403.33,79.9,401.53,79.67Z" fill="#fff" stroke="#fff" stroke-miterlimit="10"/><path d="M515.1,79.54c-4.15-.45-8.34-.1-12.49-.34-9.66-.57-19.33-.25-29-.17-3.45,0-6.92,0-10.37.22-5.23.27-10.47.43-15.67,1-4,.41-8,.54-11.93,1.76-.8.25-1.74.46-1.69,1.54s.93,1.25,1.76,1.49a45.36,45.36,0,0,0,7.23,1.25c4.58.59,9.19.86,13.79,1.1,5,.26,9.95.23,14.9.44,9.52.42,19,.21,28.54.15,3.8,0,7.63,0,11.43-.26s7.39-.24,11-.6c5.38-.53,10.84-.57,16.1-2.07.83-.24,1.73-.47,1.76-1.48s-1-1.32-1.83-1.57a37.09,37.09,0,0,0-6.93-1.2c-4.59-.4-9.19-.82-13.78-1.19A20.43,20.43,0,0,0,515.1,79.54Z" fill="#fff" stroke="#fff" stroke-miterlimit="10"/><path d="M422.39,85.41a4.73,4.73,0,1,0,4.76-4.7h0a4.72,4.72,0,0,0-4.76,4.68Z" fill="#fff" stroke="#fff" stroke-miterlimit="10"/><path d="M427.14,83.45a2,2,0,0,0,0,4h.06a1.92,1.92,0,0,0,1.93-1.89h0a2,2,0,0,0-1.93-2.07h0Z" fill="#fff" stroke="#fff" stroke-miterlimit="10"/></g><g id="bl-wing"><path d="M198.83,359.33c-11.08.67-22.21.42-33.34.31-3.75,0-7.53,0-11.28-.27s-7.69-.21-11.51-.59c-5.68-.58-11.44-.63-17-2.09a4.23,4.23,0,0,1-.7-.18c-.69-.31-1.5-.71-1.43-1.52s.74-1.1,1.53-1.38a41.08,41.08,0,0,1,8.07-1.47c4.78-.66,9.61-.6,14.39-1.2H148c4.62.11,9.24-.18,13.85-.38,10.07-.42,20.14-.2,30.2-.16,3.8,0,7.63.07,11.43.27s7.78.33,11.66.62A128.3,128.3,0,0,1,231,353.06a7.74,7.74,0,0,1,1.57.35c.76.33,1.73.71,1.69,1.65s-1,1.4-1.76,1.6a57.41,57.41,0,0,1-8.14,1.27c-4.26.39-8.52.78-12.79,1-1.53.07-3.08.19-4.62.21C204.27,359.13,201.59,359.72,198.83,359.33Z" fill="#fff" stroke="#fff" stroke-miterlimit="10"/><path d="M87,358.83c-5.38.38-11.65.38-17.9.65-9.67.42-19.33.21-29,.14-3.24,0-6.51,0-9.77-.22-4.19-.25-8.38-.44-12.57-.64-3.8-.18-7.58-.69-11.35-1.2a14.5,14.5,0,0,1-4.81-1.13C1,356.14.5,355.89.5,355.17s.49-1,1.08-1.25a17.22,17.22,0,0,1,5-1.14q7.7-.94,15.44-1.29c3.78-.18,7.57-.39,11.36-.55,11.07-.45,22.15-.41,33.22-.24,3.86.06,7.73,0,11.58.28,3.48.23,7,.28,10.45.58,5.26.45,10.55.64,15.73,1.81,1.1.25,2.67.27,2.72,1.74s-1.61,1.58-2.74,1.87A53.72,53.72,0,0,1,95,358.23C92.59,358.39,90.23,358.8,87,358.83Z" fill="#fff" stroke="#fff" stroke-miterlimit="10"/><path d="M119.6,354.11a4.73,4.73,0,1,1-4.73-4.73h0a4.72,4.72,0,0,1,4.73,4.71Z" fill="#fff" stroke="#fff" stroke-miterlimit="10"/><path d="M116.86,354.19a2,2,0,0,1-2,2h-.08a2,2,0,0,1-1.9-2.09h0a1.92,1.92,0,0,1,2-1.87h0A2,2,0,0,1,116.86,354.19Z" fill="#fff" stroke="#fff" stroke-miterlimit="10"/></g><g id="br-wing"><path d="M342.22,359.33c11.08.67,22.21.42,33.34.31,3.75,0,7.53,0,11.28-.27s7.69-.21,11.51-.59c5.68-.58,11.44-.63,17-2.09a4.23,4.23,0,0,0,.7-.18c.69-.31,1.5-.71,1.43-1.52s-.74-1.1-1.53-1.38a41.08,41.08,0,0,0-8.07-1.47c-4.78-.66-9.61-.6-14.39-1.2H393c-4.62.11-9.24-.18-13.85-.38-10.07-.42-20.14-.2-30.2-.16-3.8,0-7.63.07-11.43.27s-7.78.33-11.66.62A128.3,128.3,0,0,0,310,353.06a7.74,7.74,0,0,0-1.57.35c-.76.33-1.73.71-1.69,1.65s1,1.4,1.76,1.6a57.41,57.41,0,0,0,8.14,1.27c4.26.39,8.52.78,12.79,1,1.53.07,3.08.19,4.62.21C336.78,359.13,339.46,359.72,342.22,359.33Z" fill="#fff" stroke="#fff" stroke-miterlimit="10"/><path d="M454.07,358.83c5.38.38,11.65.38,17.9.65,9.67.42,19.33.21,29,.14,3.24,0,6.51,0,9.77-.22,4.19-.25,8.38-.44,12.57-.64,3.8-.18,7.58-.69,11.35-1.2a14.5,14.5,0,0,0,4.81-1.13c.57-.29,1.07-.54,1.07-1.26s-.49-1-1.08-1.25a17.22,17.22,0,0,0-5-1.14q-7.69-.94-15.44-1.29c-3.78-.18-7.57-.39-11.36-.55-11.07-.45-22.15-.41-33.22-.24-3.86.06-7.73,0-11.58.28-3.48.23-7,.28-10.45.58-5.26.45-10.55.64-15.73,1.81-1.1.25-2.67.27-2.72,1.74s1.61,1.58,2.74,1.87a53.72,53.72,0,0,0,9.36,1.25C448.46,358.39,450.81,358.8,454.07,358.83Z" fill="#fff" stroke="#fff" stroke-miterlimit="10"/><path d="M421.45,354.11a4.73,4.73,0,1,0,4.73-4.73h0a4.72,4.72,0,0,0-4.73,4.71Z" fill="#fff" stroke="#fff" stroke-miterlimit="10"/><path d="M424.19,354.19a2,2,0,0,0,2,2h.08a2,2,0,0,0,1.9-2.09h0a1.92,1.92,0,0,0-2-1.87h0A2,2,0,0,0,424.19,354.19Z" fill="#fff" stroke="#fff" stroke-miterlimit="10"/></g></g><g id="parts"><path id="tl-part" d="M209.88,185.84c-2.09.65-3.39-1.31-5.09-2.14-3.51-1.7-6.93-3.56-10.35-5.43-6.54-3.56-13.13-7-19.58-10.77A145.5,145.5,0,0,1,157.53,156a72.43,72.43,0,0,1-10.62-10.46c-5.67-6.75-10.1-14.27-14.3-22-5.12-9.37-9.69-19-14.54-28.54-.73-1.43-.46-2.25.79-3.24a19.33,19.33,0,0,0,1.93-1.91,2.47,2.47,0,0,1,3.41-.49c7.52,4.12,15.09,8.14,22.63,12.21a213.91,213.91,0,0,1,21,12.67,102.34,102.34,0,0,1,10,7.87c7.65,6.92,13.44,15.24,18.67,24,3.76,6.33,7.25,12.8,10.7,19.29,2.58,4.86,5.22,9.69,7.84,14.53.82,1.51-.55,4.53-2.1,5.26A6.48,6.48,0,0,1,209.88,185.84Z" fill="#fff" stroke="#fff" stroke-miterlimit="10"/><path id="tr-part" d="M331.17,185.84c2.09.65,3.39-1.31,5.09-2.14,3.51-1.7,6.93-3.56,10.35-5.43,6.54-3.56,13.13-7,19.58-10.77A144.81,144.81,0,0,0,383.53,156a72.43,72.43,0,0,0,10.62-10.46c5.67-6.75,10.1-14.27,14.3-22,5.12-9.37,9.69-19,14.54-28.54.73-1.43.46-2.25-.79-3.24a19.33,19.33,0,0,1-1.93-1.91,2.47,2.47,0,0,0-3.41-.49c-7.52,4.12-15.09,8.14-22.63,12.21a213.91,213.91,0,0,0-21,12.67,102.34,102.34,0,0,0-10,7.87c-7.65,6.92-13.44,15.24-18.67,24-3.76,6.33-7.25,12.8-10.7,19.29-2.58,4.86-5.22,9.69-7.84,14.53-.82,1.51.55,4.53,2.1,5.26A6.67,6.67,0,0,0,331.17,185.84Z" fill="#fff" stroke="#fff" stroke-miterlimit="10"/><path id="bl-part" d="M210.36,253.79c1.3-.51,2.38.3,3.54.61.62.16.87.89,1.06,1.52a7.21,7.21,0,0,1-.87,5.91c-1.93,3.38-3.62,6.91-5.5,10.32-4.6,8.36-8.94,16.87-14.09,24.93a113.48,113.48,0,0,1-12.38,16.33c-5.84,6.27-12.72,11.12-19.85,15.71-7.34,4.72-15.1,8.73-22.7,13-4.16,2.34-8.43,4.49-12.68,6.66-1.07.55-2,1.46-3.26,1.6-.23,0-.46.26-.68.23-1.74-.2-2.41-1.81-3.59-2.75-1.67-1.32-1.74-1.78-.72-3.82,3.54-7.12,7-14.3,10.65-21.34,4-7.64,8-15.28,13-22.35a92.18,92.18,0,0,1,6.82-8.57c6.82-7.63,15.15-13.24,23.84-18.43,5-3,10.15-5.81,15.31-8.56,6.1-3.26,12.21-6.51,18.29-9.81C207.77,254.32,208.79,253.19,210.36,253.79Z" fill="#fff" stroke="#fff" stroke-miterlimit="10"/><path id="br-part" d="M330.69,253.79c-1.3-.51-2.38.3-3.54.61-.62.16-.87.89-1.06,1.52a7.21,7.21,0,0,0,.87,5.91c1.93,3.38,3.62,6.91,5.5,10.32,4.6,8.36,8.94,16.87,14.09,24.93a113.48,113.48,0,0,0,12.38,16.33c5.84,6.27,12.72,11.12,19.85,15.71,7.34,4.72,15.1,8.73,22.7,13,4.16,2.34,8.43,4.49,12.68,6.66,1.07.55,2,1.46,3.26,1.6.23,0,.46.26.68.23,1.74-.2,2.41-1.81,3.59-2.75,1.67-1.32,1.74-1.78.72-3.82-3.54-7.12-7-14.3-10.65-21.34-4-7.64-8-15.28-13-22.35a92.18,92.18,0,0,0-6.82-8.57c-6.82-7.63-15.15-13.24-23.84-18.43-5-3-10.15-5.81-15.31-8.56-6.1-3.26-12.21-6.51-18.29-9.81C333.27,254.32,332.26,253.19,330.69,253.79Z" fill="#fff" stroke="#fff" stroke-miterlimit="10"/></g><path id="x-path" d="M243.09,254.19h-9.72l31.48-35.61-30.11-34h9.85l25.87,29.06,25.87-29.06h9.85l-30.25,34,31.6,35.61h-9.85l-27.24-30.8Z" fill="#fff" stroke="#fff" stroke-miterlimit="10"/><path id="circle" d="M270.53,280.19a61,61,0,1,1,61-61A61,61,0,0,1,270.53,280.19Zm0-119a58,58,0,1,0,58,58,58,58,0,0,0-58-58Z" fill="#fff" stroke="#fff" stroke-miterlimit="10"/><g id="tagline-en"><g id="building"><path d="M171.85,401.17v-9.38h3.07a3.57,3.57,0,0,1,2.3.63,2.28,2.28,0,0,1,.77,1.87,1.87,1.87,0,0,1-.37,1.16,2.47,2.47,0,0,1-1,.79,2.16,2.16,0,0,1,1.2.81,2.33,2.33,0,0,1,.44,1.42,2.49,2.49,0,0,1-.82,2,3.36,3.36,0,0,1-2.31.72Zm1.24-5.38H175a1.93,1.93,0,0,0,1.3-.41,1.56,1.56,0,0,0,0-2.23,2.28,2.28,0,0,0-1.38-.35h-1.83Zm0,1v3.38h2a2,2,0,0,0,1.37-.45,1.57,1.57,0,0,0,.5-1.23c0-1.13-.62-1.7-1.85-1.7Z" fill="#fff" stroke="#fff" stroke-miterlimit="10"/><path d="M184.19,400.48a2.51,2.51,0,0,1-2,.82,2.17,2.17,0,0,1-1.7-.64,2.81,2.81,0,0,1-.59-1.92V394.2h1.19v4.51c0,1.05.43,1.58,1.29,1.58a1.79,1.79,0,0,0,1.82-1V394.2h1.19v7h-1.13Z" fill="#fff" stroke="#fff" stroke-miterlimit="10"/><path d="M187.17,392.35a.71.71,0,0,1,.18-.49.66.66,0,0,1,.52-.2.69.69,0,0,1,.53.2.71.71,0,0,1,.18.49.66.66,0,0,1-.18.48.69.69,0,0,1-.53.2.66.66,0,0,1-.52-.2A.66.66,0,0,1,187.17,392.35Zm1.29,8.82h-1.2v-7h1.2Z" fill="#fff" stroke="#fff" stroke-miterlimit="10"/><path d="M191.66,401.17h-1.19v-9.9h1.19Z" fill="#fff" stroke="#fff" stroke-miterlimit="10"/><path d="M193.28,397.63a4.06,4.06,0,0,1,.76-2.58,2.58,2.58,0,0,1,3.93-.14v-3.64h1.19v9.9h-1.09l-.06-.74a2.44,2.44,0,0,1-2,.87,2.39,2.39,0,0,1-2-1,4.11,4.11,0,0,1-.76-2.59Zm1.19.13a3.09,3.09,0,0,0,.49,1.86,1.58,1.58,0,0,0,1.35.67,1.74,1.74,0,0,0,1.66-1v-3.2a1.75,1.75,0,0,0-1.64-1,1.6,1.6,0,0,0-1.37.68A3.37,3.37,0,0,0,194.47,397.76Z" fill="#fff" stroke="#fff" stroke-miterlimit="10"/><path d="M201,392.35a.71.71,0,0,1,.18-.49.66.66,0,0,1,.52-.2.69.69,0,0,1,.53.2.71.71,0,0,1,.18.49.66.66,0,0,1-.18.48.69.69,0,0,1-.53.2.66.66,0,0,1-.52-.2A.66.66,0,0,1,201,392.35Zm1.29,8.82h-1.19v-7h1.19Z" fill="#fff" stroke="#fff" stroke-miterlimit="10"/><path d="M205.34,394.2l0,.88a2.56,2.56,0,0,1,2.09-1c1.47,0,2.22.83,2.23,2.5v4.6h-1.19v-4.61a1.63,1.63,0,0,0-.35-1.12,1.36,1.36,0,0,0-1-.36,1.76,1.76,0,0,0-1,.31,2.14,2.14,0,0,0-.68.81v5h-1.19v-7Z" fill="#fff" stroke="#fff" stroke-miterlimit="10"/><path d="M211.22,397.63A4.14,4.14,0,0,1,212,395a2.61,2.61,0,0,1,4-.06l.06-.77h1.09V401a2.82,2.82,0,0,1-.81,2.13,2.94,2.94,0,0,1-2.15.78,3.69,3.69,0,0,1-1.48-.32,2.53,2.53,0,0,1-1.1-.89l.62-.71a2.34,2.34,0,0,0,1.87.95,1.7,1.7,0,0,0,1.85-1.87v-.6a2.46,2.46,0,0,1-2,.82,2.41,2.41,0,0,1-2-1A4.36,4.36,0,0,1,211.22,397.63Zm1.19.13a3.16,3.16,0,0,0,.49,1.86,1.56,1.56,0,0,0,1.35.67,1.75,1.75,0,0,0,1.66-1v-3.19a1.79,1.79,0,0,0-1.65-1,1.59,1.59,0,0,0-1.36.68A3.45,3.45,0,0,0,212.41,397.76Z" fill="#fff" stroke="#fff" stroke-miterlimit="10"/></g><g id="your"><path d="M224.45,399.43l1.63-5.23h1.27l-2.8,8.05q-.65,1.74-2.07,1.74l-.22,0-.45-.08v-1l.32,0a1.63,1.63,0,0,0,1-.25,1.82,1.82,0,0,0,.56-.89l.26-.71-2.49-6.9h1.3Z" fill="#fff" stroke="#fff" stroke-miterlimit="10"/><path d="M228,397.62a4.11,4.11,0,0,1,.4-1.84,2.93,2.93,0,0,1,1.12-1.26,3,3,0,0,1,1.64-.45,2.92,2.92,0,0,1,2.3,1,3.76,3.76,0,0,1,.88,2.62v.08a4.17,4.17,0,0,1-.39,1.83,3,3,0,0,1-1.11,1.26,3.09,3.09,0,0,1-1.67.45,2.94,2.94,0,0,1-2.29-1,3.77,3.77,0,0,1-.88-2.61Zm1.19.14a3,3,0,0,0,.54,1.87,1.83,1.83,0,0,0,2.89,0,3.33,3.33,0,0,0,.53-2,3,3,0,0,0-.54-1.86,1.76,1.76,0,0,0-1.45-.71,1.72,1.72,0,0,0-1.42.7A3.19,3.19,0,0,0,229.2,397.76Z" fill="#fff" stroke="#fff" stroke-miterlimit="10"/><path d="M240.15,400.48a2.51,2.51,0,0,1-2,.82,2.18,2.18,0,0,1-1.7-.64,2.86,2.86,0,0,1-.59-1.92V394.2H237v4.51c0,1.05.43,1.58,1.28,1.58a1.78,1.78,0,0,0,1.82-1V394.2h1.2v7h-1.14Z" fill="#fff" stroke="#fff" stroke-miterlimit="10"/><path d="M246.5,395.27a3.61,3.61,0,0,0-.59,0,1.58,1.58,0,0,0-1.59,1v4.95h-1.19v-7h1.16l0,.81a1.84,1.84,0,0,1,1.66-.94,1.23,1.23,0,0,1,.53.09Z" fill="#fff" stroke="#fff" stroke-miterlimit="10"/></g><g id="future"><path d="M256.22,397h-3.94v4.14h-1.23v-9.38h5.81v1h-4.58V396h3.94Z" fill="#fff" stroke="#fff" stroke-miterlimit="10"/><path d="M262.32,400.48a2.51,2.51,0,0,1-2,.82,2.17,2.17,0,0,1-1.7-.64,2.81,2.81,0,0,1-.59-1.92V394.2h1.19v4.51c0,1.05.43,1.58,1.29,1.58a1.79,1.79,0,0,0,1.82-1V394.2h1.19v7h-1.13Z" fill="#fff" stroke="#fff" stroke-miterlimit="10"/><path d="M266.91,392.51v1.69h1.3v.92h-1.3v4.33a1,1,0,0,0,.17.63.75.75,0,0,0,.6.21,3.08,3.08,0,0,0,.56-.08v1a3.28,3.28,0,0,1-.91.13,1.5,1.5,0,0,1-1.21-.48,2.07,2.07,0,0,1-.4-1.37v-4.33h-1.27v-.92h1.27v-1.69Z" fill="#fff" stroke="#fff" stroke-miterlimit="10"/><path d="M273.91,400.48a2.52,2.52,0,0,1-2,.82,2.17,2.17,0,0,1-1.7-.64,2.81,2.81,0,0,1-.59-1.92V394.2h1.19v4.51c0,1.05.43,1.58,1.29,1.58a1.79,1.79,0,0,0,1.82-1V394.2h1.19v7h-1.14Z" fill="#fff" stroke="#fff" stroke-miterlimit="10"/><path d="M280.25,395.27a3.51,3.51,0,0,0-.59,0,1.58,1.58,0,0,0-1.59,1v4.95h-1.19v-7H278l0,.81a1.85,1.85,0,0,1,1.66-.94,1.23,1.23,0,0,1,.53.09Z" fill="#fff" stroke="#fff" stroke-miterlimit="10"/><path d="M284.12,401.3a3,3,0,0,1-2.31-.93,3.47,3.47,0,0,1-.89-2.49v-.22a4.09,4.09,0,0,1,.4-1.85,3,3,0,0,1,1.11-1.28,2.75,2.75,0,0,1,1.54-.46,2.59,2.59,0,0,1,2.11.9,3.82,3.82,0,0,1,.76,2.56v.5h-4.73a2.44,2.44,0,0,0,.61,1.66,1.86,1.86,0,0,0,1.46.64,2.09,2.09,0,0,0,1.07-.26,2.75,2.75,0,0,0,.77-.68l.73.57A3,3,0,0,1,284.12,401.3Zm-.15-6.25a1.58,1.58,0,0,0-1.21.53,2.55,2.55,0,0,0-.61,1.47h3.5V397a2.31,2.31,0,0,0-.49-1.41A1.53,1.53,0,0,0,284,395.05Z" fill="#fff" stroke="#fff" stroke-miterlimit="10"/></g><g id="for"><path d="M292.07,401.17v-6.05H291v-.92h1.1v-.72a2.38,2.38,0,0,1,.6-1.73,2.27,2.27,0,0,1,1.7-.61,2.82,2.82,0,0,1,.81.11l-.06,1a3.31,3.31,0,0,0-.64-.06,1.15,1.15,0,0,0-.9.34,1.38,1.38,0,0,0-.32,1v.74h1.49v.92h-1.49v6.05Z" fill="#fff" stroke="#fff" stroke-miterlimit="10"/><path d="M295.75,397.62a4.25,4.25,0,0,1,.4-1.84,3,3,0,0,1,1.13-1.26,3,3,0,0,1,1.64-.45,2.93,2.93,0,0,1,2.3,1,3.76,3.76,0,0,1,.88,2.62v.08a4.17,4.17,0,0,1-.39,1.83,3,3,0,0,1-1.11,1.26,3.12,3.12,0,0,1-1.67.45,3,3,0,0,1-2.3-1,3.81,3.81,0,0,1-.88-2.61Zm1.2.14a3,3,0,0,0,.54,1.87,1.82,1.82,0,0,0,2.88,0,3.26,3.26,0,0,0,.54-2,3,3,0,0,0-.55-1.86,1.81,1.81,0,0,0-2.87,0A3.25,3.25,0,0,0,297,397.76Z" fill="#fff" stroke="#fff" stroke-miterlimit="10"/><path d="M307,395.27a3.61,3.61,0,0,0-.59,0,1.58,1.58,0,0,0-1.59,1v4.95H303.6v-7h1.16l0,.81a1.84,1.84,0,0,1,1.66-.94,1.23,1.23,0,0,1,.53.09Z" fill="#fff" stroke="#fff" stroke-miterlimit="10"/></g><g id="tomorrow"><path d="M317.74,392.8h-3v8.37H313.5V392.8h-3v-1h7.25Z" fill="#fff" stroke="#fff" stroke-miterlimit="10"/><path d="M318,397.62a4.11,4.11,0,0,1,.4-1.84,2.93,2.93,0,0,1,1.12-1.26,3,3,0,0,1,1.64-.45,2.92,2.92,0,0,1,2.3,1,3.76,3.76,0,0,1,.88,2.62v.08a4.17,4.17,0,0,1-.39,1.83,3,3,0,0,1-1.11,1.26,3.09,3.09,0,0,1-1.67.45,2.94,2.94,0,0,1-2.29-1,3.77,3.77,0,0,1-.88-2.61Zm1.19.14a3,3,0,0,0,.54,1.87,1.83,1.83,0,0,0,2.89,0,3.33,3.33,0,0,0,.53-2,3,3,0,0,0-.54-1.86,1.76,1.76,0,0,0-1.45-.71,1.72,1.72,0,0,0-1.42.7A3.19,3.19,0,0,0,319.19,397.76Z" fill="#fff" stroke="#fff" stroke-miterlimit="10"/><path d="M327,394.2l0,.77a2.58,2.58,0,0,1,2.07-.9,2,2,0,0,1,2,1.12,2.74,2.74,0,0,1,.91-.81,2.63,2.63,0,0,1,1.32-.31c1.53,0,2.3.81,2.33,2.43v4.67h-1.19v-4.6a1.65,1.65,0,0,0-.34-1.12,1.66,1.66,0,0,0-2.76,1.1v4.62h-1.2V396.6a1.33,1.33,0,0,0-1.49-1.52,1.61,1.61,0,0,0-1.61,1v5.09h-1.19v-7Z" fill="#fff" stroke="#fff" stroke-miterlimit="10"/><path d="M337.09,397.62a4.25,4.25,0,0,1,.4-1.84,3,3,0,0,1,1.13-1.26,3,3,0,0,1,1.64-.45,2.93,2.93,0,0,1,2.3,1,3.76,3.76,0,0,1,.88,2.62v.08a4.17,4.17,0,0,1-.39,1.83,3,3,0,0,1-1.11,1.26,3.12,3.12,0,0,1-1.67.45,3,3,0,0,1-2.3-1,3.81,3.81,0,0,1-.88-2.61Zm1.2.14a3,3,0,0,0,.54,1.87,1.82,1.82,0,0,0,2.88,0,3.26,3.26,0,0,0,.54-2,3,3,0,0,0-.55-1.86,1.81,1.81,0,0,0-2.87,0A3.25,3.25,0,0,0,338.29,397.76Z" fill="#fff" stroke="#fff" stroke-miterlimit="10"/><path d="M348.31,395.27a3.61,3.61,0,0,0-.59,0,1.58,1.58,0,0,0-1.59,1v4.95h-1.19v-7h1.16l0,.81a1.84,1.84,0,0,1,1.66-.94,1.23,1.23,0,0,1,.53.09Z" fill="#fff" stroke="#fff" stroke-miterlimit="10"/><path d="M352.77,395.27a3.48,3.48,0,0,0-.58,0,1.56,1.56,0,0,0-1.59,1v4.95h-1.2v-7h1.16l0,.81a1.86,1.86,0,0,1,1.67-.94,1.18,1.18,0,0,1,.52.09Z" fill="#fff" stroke="#fff" stroke-miterlimit="10"/><path d="M353.43,397.62a4.11,4.11,0,0,1,.4-1.84,2.93,2.93,0,0,1,1.12-1.26,3,3,0,0,1,1.64-.45,2.92,2.92,0,0,1,2.3,1,3.76,3.76,0,0,1,.88,2.62v.08a4.17,4.17,0,0,1-.39,1.83,3,3,0,0,1-1.11,1.26,3.09,3.09,0,0,1-1.67.45,2.94,2.94,0,0,1-2.29-1,3.77,3.77,0,0,1-.88-2.61Zm1.19.14a3,3,0,0,0,.54,1.87,1.83,1.83,0,0,0,2.89,0,3.33,3.33,0,0,0,.53-2,3,3,0,0,0-.54-1.86,1.76,1.76,0,0,0-1.45-.71,1.72,1.72,0,0,0-1.42.7A3.19,3.19,0,0,0,354.62,397.76Z" fill="#fff" stroke="#fff" stroke-miterlimit="10"/><path d="M367.44,399.53l1.34-5.33H370l-2,7h-1l-1.7-5.28-1.65,5.28h-1l-2-7h1.19l1.37,5.22,1.63-5.22h1Z" fill="#fff" stroke="#fff" stroke-miterlimit="10"/></g></g><g id="tagline-jp"><path d="M204.92,430.57h-4.45v1.61h-1.06V420.45h5.51Zm-1.06-9.07h-3.39v3.41h3.39Zm-3.39,8h3.39V426h-3.39Zm13.29-9.4v13.31c0,.76-.19,1.13-.71,1.31a10.75,10.75,0,0,1-2.92.22,4.32,4.32,0,0,0-.42-1.13c.57,0,1.12,0,1.58,0,1.22,0,1.36,0,1.36-.44v-3.91h-5.24a8.85,8.85,0,0,1-3.19,5.57,4.12,4.12,0,0,0-.84-.77c2.9-2.23,3.19-5.48,3.19-8.15v-6.05Zm-6.08,6.05c0,.72,0,1.5-.12,2.3h5.09v-3.15h-5Zm5-5h-5v3.09h5Z" fill="#fff" stroke="#fff" stroke-miterlimit="10"/><path d="M217.29,420.49h10.9v14.14H227v-1h-8.56v1.1h-1.16Zm9.72,1.14h-8.56v4.82H227Zm-8.56,10.85H227v-4.92h-8.56Z" fill="#fff" stroke="#fff" stroke-miterlimit="10"/><path d="M231,427.41c.7-.67,2.43-2.5,3.32-3.46,1.3-1.43,1.94-1.75,2.78-1.75,1,0,1.73.64,3.22,2.42a77.24,77.24,0,0,0,6.34,6.7l-.89,1a66.08,66.08,0,0,1-6.05-6.48c-1.43-1.75-1.95-2.42-2.64-2.42s-1.19.55-2.22,1.71c-.57.66-1.93,2.15-2.65,3a.48.48,0,0,1-.19.47Z" fill="#fff" stroke="#fff" stroke-miterlimit="10"/><path d="M256.55,422.45a.44.44,0,0,1-.42.27c-.61,5.23-2.35,9.78-5.14,9.78-1.41,0-2.69-1.41-2.69-4.07a7.37,7.37,0,0,1,7.56-7.41c4.85,0,6.95,3.08,6.95,6.36,0,4-2.31,5.93-6.38,6.87a6.38,6.38,0,0,0-.71-1c3.87-.74,5.85-2.62,5.85-5.79,0-2.78-1.78-5.3-5.71-5.3a4.21,4.21,0,0,0-.51,0Zm-1.62-.22a6.19,6.19,0,0,0-5.49,6.17c0,1.8.77,2.92,1.58,2.92C253.05,431.32,254.51,426.84,254.93,422.23Z" fill="#fff" stroke="#fff" stroke-miterlimit="10"/><path d="M279.88,427.56h-6.2a17.58,17.58,0,0,0,6.61,5.44,4.9,4.9,0,0,0-.84,1,19.14,19.14,0,0,1-6.52-5.7V435h-1.18v-6.58a19.15,19.15,0,0,1-6.42,5.61,7.1,7.1,0,0,0-.82-1,17,17,0,0,0,6.55-5.49h-6.13v-1.13h6.82v-3.09h-5.61v-1.11h5.61v-2.82l1.53.09c0,.11-.12.2-.35.23v2.5h5.79v1.11h-5.79v3.09h6.95Z" fill="#fff" stroke="#fff" stroke-miterlimit="10"/><path d="M296.73,428.05h-6.11a17.68,17.68,0,0,0,6.5,5.24,4.16,4.16,0,0,0-.82,1,19.35,19.35,0,0,1-6.56-5.66V435h-1.17v-6.27a19.12,19.12,0,0,1-6.47,5.49,5.23,5.23,0,0,0-.82-1,17.15,17.15,0,0,0,6.46-5.2h-6.11V427h6.94v-4.4h-6.12v-1.09h6.12V419.4l1.51.1c0,.11-.1.2-.34.23v1.75H296v1.09h-6.27V427h7Zm-11.27-1.3a13.32,13.32,0,0,0-1.58-3.31l1-.37a13.59,13.59,0,0,1,1.67,3.25Zm9.54-3.27c-.06.1-.18.15-.38.15a27.75,27.75,0,0,1-1.85,3.19s-1-.42-1-.42a22,22,0,0,0,1.8-3.44Z" fill="#fff" stroke="#fff" stroke-miterlimit="10"/><path d="M312.64,426.59l-.1,0a.43.43,0,0,1-.25-.1c-1.28.42-3.14,1.11-4.54,1.71a13.05,13.05,0,0,1,.05,1.31c0,.54,0,1.14-.05,1.8l-1.22.07c.05-.61.08-1.38.08-2,0-.25,0-.48,0-.67-1.89.93-3.44,2.05-3.44,3.06s1.16,1.45,3.48,1.45a38.77,38.77,0,0,0,4.22-.17v1.12c-1,.1-2.5.14-4.23.14-3.23,0-4.66-.78-4.66-2.49,0-1.48,1.95-2.91,4.47-4.17-.1-1.05-.57-1.58-1.24-1.58-1.23,0-2.5.69-4,2.37-.48.52-1.13,1.18-1.85,1.83l-.83-.82a11.84,11.84,0,0,0,4.24-6.2l-.94,0H299v-1.09h4.05a19.54,19.54,0,0,0,.45-2.41l1.65.21c0,.16-.17.27-.42.3-.12.67-.27,1.26-.42,1.86a22.64,22.64,0,0,0,5.78-1l.2,1.13a26.08,26.08,0,0,1-6.3.94,11.81,11.81,0,0,1-1.21,2.83h0a4.5,4.5,0,0,1,2.7-1.09c1.15,0,1.87.83,2.09,2.19,1.41-.64,3.19-1.33,4.53-1.85Z" fill="#fff" stroke="#fff" stroke-miterlimit="10"/><path d="M329.71,430.84H323.6a17.4,17.4,0,0,0,6.45,2.7,5,5,0,0,0-.74,1,17,17,0,0,1-6.67-3.32V435h-1.11v-3.8a17.13,17.13,0,0,1-6.62,3.38,5.12,5.12,0,0,0-.72-.93,17.09,17.09,0,0,0,6.35-2.8h-6v-.94h7v-1.48a6.35,6.35,0,0,1-1.85,1.07,3.27,3.27,0,0,0-.74-.79c2.35-.85,2.79-2.05,2.79-3.17v-1.7h5.95v3.53c0,.59,0,.64.37.64h.5c.57,0,.57-.07.62-1.77a2.32,2.32,0,0,0,.79.42c0,1.72-.11,2.25-1.36,2.25h-.79c-1.21,0-1.21-.63-1.21-1.61v-2.64h-3.83v.91a3.58,3.58,0,0,1-1.22,2.84l1.41.08c0,.12-.1.21-.32.24v1.18h7.07Zm-11.44-7.45a8.05,8.05,0,0,0-.79-1.73h-.82a10.25,10.25,0,0,1-1.51,1.8,6.31,6.31,0,0,0-.84-.59,9.92,9.92,0,0,0,2.42-3.56l1.29.44a.35.35,0,0,1-.35.13c-.12.27-.27.56-.42.84h4.63v.94h-3.34a8.56,8.56,0,0,1,.69,1.47Zm2.49,4.1c-2.14.41-4.35.79-5.77,1a.28.28,0,0,1-.2.24l-.42-1.13c.78-.1,1.73-.23,2.81-.39V424.8h-2.49v-.87h6v.87h-2.47v2.27l2.5-.37Zm5.09-4.06a8.21,8.21,0,0,0-1.15-1.77h-1.44a9.16,9.16,0,0,1-1.61,1.67,7.36,7.36,0,0,0-.91-.56,8.36,8.36,0,0,0,2.64-3.46l1.31.4c0,.11-.15.16-.35.16-.14.28-.29.57-.46.85h6v.94h-4a7.23,7.23,0,0,1,.94,1.43Zm-2.1,2a13.76,13.76,0,0,1,2.45,1.78l-.67.7a13.85,13.85,0,0,0-2.44-1.86Z" fill="#fff" stroke="#fff" stroke-miterlimit="10"/><path d="M340.35,434.87a51.24,51.24,0,0,0-6.59-6.25c-.84-.67-1.14-1.14-1.14-1.75a2.15,2.15,0,0,1,.89-1.53c1.53-1.41,4.4-4.13,6-5.78l1.43.94a.46.46,0,0,1-.37.17.69.69,0,0,1-.2,0c-1.68,1.61-4.3,3.9-5.68,5.19-.4.39-.72.72-.72,1s.3.62.89,1.06a55.31,55.31,0,0,1,6.64,6.1Z" fill="#fff" stroke="#fff" stroke-miterlimit="10"/></g><g id="aeroflux"><path d="M29.68,31,27.5,23.82H16.57L14.4,31H7.55L18.13.85H25.9L36.53,31ZM26,18.49c-2-6.47-3.14-10.13-3.39-11s-.43-1.51-.54-2q-.68,2.63-3.88,13Z" fill="#fff" stroke="#fff" stroke-miterlimit="10"/><path d="M101.25,31H84V1h17.27V6.18H90.34v6.58h10.15V18H90.34V25.7h10.91Z" fill="#fff" stroke="#fff" stroke-miterlimit="10"/><path d="M157.54,19.45V31h-6.36V1h8.74c4.07,0,7.09.74,9,2.23s2.93,3.73,2.93,6.75a7.94,7.94,0,0,1-1.45,4.71,9.7,9.7,0,0,1-4.12,3.23Q173.09,28,175.13,31h-7l-7.16-11.5Zm0-5.17h2.05a7.85,7.85,0,0,0,4.45-1,3.59,3.59,0,0,0,1.44-3.16,3.29,3.29,0,0,0-1.47-3,8.92,8.92,0,0,0-4.54-.9h-1.93Z" fill="#fff" stroke="#fff" stroke-miterlimit="10"/><path d="M249.8,15.92q0,7.44-3.69,11.45t-10.58,4q-6.9,0-10.58-4t-3.7-11.49q0-7.49,3.71-11.43T235.57.5q6.92,0,10.57,4T249.8,15.92Zm-21.88,0q0,5,1.91,7.57a6.68,6.68,0,0,0,5.7,2.54q7.6,0,7.61-10.11T235.57,5.79a6.71,6.71,0,0,0-5.72,2.55C228.56,10.05,227.92,12.57,227.92,15.92Z" fill="#fff" stroke="#fff" stroke-miterlimit="10"/><path d="M306,31H299.7V1h17.18V6.18H306v7.73h10.17V19.1H306Z" fill="#fff" stroke="#fff" stroke-miterlimit="10"/><path d="M366.43,31V1h6.35V25.7H385V31Z" fill="#fff" stroke="#fff" stroke-miterlimit="10"/><path d="M458.24,1v19.4a11.21,11.21,0,0,1-1.49,5.83A9.71,9.71,0,0,1,452.46,30a15.38,15.38,0,0,1-6.65,1.33c-3.85,0-6.85-1-9-3a10.52,10.52,0,0,1-3.2-8.11V1H440V19.33q0,3.47,1.39,5.08T446,26q3.11,0,4.52-1.63t1.4-5.11V1Z" fill="#fff" stroke="#fff" stroke-miterlimit="10"/><path d="M533.5,31h-7.26l-7-11.34L512.3,31h-6.81l9.94-15.46L506.12,1h7l6.46,10.79L525.93,1h6.85l-9.41,14.87Z" fill="#fff" stroke="#fff" stroke-miterlimit="10"/></g></g></g></svg>