<svg xmlns="http://www.w3.org/2000/svg" viewBox="0 0 527.89 292.24">
  <title>icebErgWebDesign</title>
  <g id="Layer_2" data-name="Layer 2">
    <g id="IceBergOutter">
      <g>
        <rect id="wrapper" width="527.89" height="292.24" fill="none"/>
        <g id="penguin">
          <path d="M185.76,97.81c-3.09,1.66-1.37,12.38.85,6.94,1.12-2.77,4.19-3.65,7.14-3.29C200.58,102.28,189.1,96,185.76,97.81Z" fill="#010101" fill-rule="evenodd"/>
          <path d="M195.53,180.88c-10.77-15.45,12.62-17.34,13.27-47.58.45-20.74-10.38-15.26,1.21-26.82-3.3,11,10.48,16.07,7,29.38-2.73,10.46,6.61,2.6-10.13,25.89C203.06,167.09,198.5,170.27,195.53,180.88Z" fill="#010101" fill-rule="evenodd"/>
          <path d="M192.44,84.39C156,90.05,172,123.11,163.54,129c-11.28,7.83-16.29,35.38-16,45.44.38,12,9.37-12.74,16.08-20.14,12.54-13.83,21.19-5.74,21.17-16.24,0-12.76-13.36-6.26-7.79-13.67,10.71-14.26-17.78-34.92,18.5-30.58,14.74,1.77,3.17,6.62,13.52,11.14,5.8,2.53,2.14-6.27,26.36-6.54-6.68-5.18-11.3-3.51-24.65-5.8A25.3,25.3,0,0,0,192.44,84.39Z" fill="#010101" fill-rule="evenodd"/>
          <path d="M212.2,128.58c12.35,10.39,14.54,16.48,12.49,24.35-.87,3.35-1.7-5.08-16.76-6.7C207.93,146.23,212.71,137.54,212.2,128.58Z" fill="#010101" fill-rule="evenodd"/>
          <path d="M179.34,187.88c-22.42-13.1-6.38,11.32,2.87,14.76,4.72,1.77,16.17-3.64,4.48-10.47Z" fill="#010101" fill-rule="evenodd"/>
          <path d="M195.64,182.85c-23.86-2.29.59,9.2,9.47,8.87,4.53-.18,10.77-6.93-1.66-8.12Z" fill="#010101" fill-rule="evenodd"/>
        </g>
        <g id="iceberg">
          <path d="M261.29,150.25H249.77V100.88h11.52Z" fill="#231f20"/>
          <path d="M303.61,137.48a2.37,2.37,0,0,1,.82.15,2.21,2.21,0,0,1,.78.53l4.54,4.77a18.81,18.81,0,0,1-7.48,5.88,26,26,0,0,1-10.62,2,25.24,25.24,0,0,1-10.08-1.92,21.76,21.76,0,0,1-7.56-5.29,23.36,23.36,0,0,1-4.76-8,29.52,29.52,0,0,1-1.66-10,26.4,26.4,0,0,1,1.9-10.15,23.38,23.38,0,0,1,13.45-13.2,28.43,28.43,0,0,1,10.47-1.86,26.57,26.57,0,0,1,5.24.49,26.14,26.14,0,0,1,4.59,1.35,22.18,22.18,0,0,1,3.93,2.07,19,19,0,0,1,3.19,2.66l-3.87,5.19a5.13,5.13,0,0,1-.88.86,2.28,2.28,0,0,1-1.42.39,2.53,2.53,0,0,1-1.15-.27,11.92,11.92,0,0,1-1.16-.66l-1.33-.85a11.16,11.16,0,0,0-1.73-.85,14.39,14.39,0,0,0-2.34-.66,16,16,0,0,0-3.14-.27,14.43,14.43,0,0,0-5.69,1.1,12.59,12.59,0,0,0-4.42,3.15,14.74,14.74,0,0,0-2.88,5,19.43,19.43,0,0,0-1,6.54,20.27,20.27,0,0,0,1,6.74,15,15,0,0,0,2.81,5,12,12,0,0,0,4.15,3.06,12.28,12.28,0,0,0,5.09,1.06,24.5,24.5,0,0,0,2.84-.16,11.47,11.47,0,0,0,2.39-.52,10.54,10.54,0,0,0,2.1-1,13.36,13.36,0,0,0,2-1.47,3.86,3.86,0,0,1,.88-.56A2.26,2.26,0,0,1,303.61,137.48Z" fill="#231f20"/>
          <path d="M346.75,100.88v8.81H326.49v11.52H342v8.47H326.49v11.76h20.26v8.81H315V100.88Z" fill="#231f20"/>
          <path d="M353.26,150.25V100.88h18.16a34.64,34.64,0,0,1,8.71,1,16.41,16.41,0,0,1,5.86,2.68,10.09,10.09,0,0,1,3.31,4.2,14.18,14.18,0,0,1,1,5.52,11,11,0,0,1-.47,3.2,9.63,9.63,0,0,1-1.49,2.9,11.43,11.43,0,0,1-2.61,2.46,17.1,17.1,0,0,1-3.83,1.91,13.57,13.57,0,0,1,7.21,3.85,10,10,0,0,1,2.34,6.83,14,14,0,0,1-1.22,5.86,13.41,13.41,0,0,1-3.57,4.73,17.1,17.1,0,0,1-5.81,3.15,25.24,25.24,0,0,1-7.9,1.13Zm11.45-28.6h6a19.77,19.77,0,0,0,3.42-.27,7.16,7.16,0,0,0,2.59-.95,4.41,4.41,0,0,0,1.63-1.86,7,7,0,0,0,.56-3,8.41,8.41,0,0,0-.44-2.93,4.31,4.31,0,0,0-1.36-1.89,5.68,5.68,0,0,0-2.32-1,15.5,15.5,0,0,0-3.34-.31h-6.71Zm0,7.66v12.3h8.07a10.22,10.22,0,0,0,3.71-.57,5.9,5.9,0,0,0,2.25-1.49,5,5,0,0,0,1.12-2.07,9.27,9.27,0,0,0,.3-2.34,7.73,7.73,0,0,0-.35-2.44,4.14,4.14,0,0,0-1.22-1.83,5.93,5.93,0,0,0-2.29-1.15,13.38,13.38,0,0,0-3.59-.41Z" fill="#231f20"/>
          <path d="M429.5,100.88v8.81H409.24v11.52h15.52v8.47H409.24v11.76H429.5v8.81H397.72V100.88Z" fill="#231f20"/>
          <path d="M447.46,132v18.26H436V100.88h16.06a33.19,33.19,0,0,1,9.14,1.1,17.26,17.26,0,0,1,6.16,3.07,11.64,11.64,0,0,1,3.48,4.64,16.34,16.34,0,0,1,.44,10.37,13.78,13.78,0,0,1-1.92,4,14.23,14.23,0,0,1-3.12,3.23,16.39,16.39,0,0,1-4.25,2.34,10.58,10.58,0,0,1,2.15,1.43,8.41,8.41,0,0,1,1.75,2.06l10.5,17.18H466a4.4,4.4,0,0,1-4.13-2.16l-8.2-14.34a3.47,3.47,0,0,0-1.27-1.35,4.16,4.16,0,0,0-2.05-.41Zm0-7.9h4.61a11.64,11.64,0,0,0,4-.59,7.24,7.24,0,0,0,2.7-1.64,6.17,6.17,0,0,0,1.52-2.46,9.34,9.34,0,0,0,.48-3,6.38,6.38,0,0,0-2.12-5.09q-2.11-1.83-6.56-1.83h-4.61Z" fill="#231f20"/>
          <path d="M502.63,142a19.47,19.47,0,0,0,4.2-.41,19.68,19.68,0,0,0,3.46-1.09V133h-4.88a2.37,2.37,0,0,1-1.69-.58,1.92,1.92,0,0,1-.61-1.46v-6.3h17.55v20.84a25.48,25.48,0,0,1-3.95,2.39,25,25,0,0,1-4.37,1.64,32.16,32.16,0,0,1-5,1,49.69,49.69,0,0,1-5.64.31,25.83,25.83,0,0,1-10-1.92,24.07,24.07,0,0,1-13.27-13.28,26.18,26.18,0,0,1-1.91-10,27.35,27.35,0,0,1,1.83-10.15,22.8,22.8,0,0,1,5.24-8,23.64,23.64,0,0,1,8.23-5.22,29.83,29.83,0,0,1,10.79-1.86,31.38,31.38,0,0,1,5.8.51,28.7,28.7,0,0,1,5,1.38,22.71,22.71,0,0,1,4.18,2.11A21.83,21.83,0,0,1,521,107l-3.32,5a3.79,3.79,0,0,1-1.14,1.12,2.7,2.7,0,0,1-1.44.4,4,4,0,0,1-2.1-.67c-.9-.55-1.75-1-2.56-1.41a15.4,15.4,0,0,0-2.45-1,16.8,16.8,0,0,0-2.65-.54,26.37,26.37,0,0,0-3.11-.17,14.19,14.19,0,0,0-5.8,1.14,12.3,12.3,0,0,0-4.39,3.2,14.38,14.38,0,0,0-2.79,5,20,20,0,0,0-1,6.46,20.83,20.83,0,0,0,1.09,7,14.92,14.92,0,0,0,3,5.15,12.63,12.63,0,0,0,4.54,3.2A14.58,14.58,0,0,0,502.63,142Z" fill="#231f20"/>
        </g>
        <g id="webDesign">
          <path d="M249,161.85h5.75a2.52,2.52,0,0,1,1.49.42,2,2,0,0,1,.8,1.14l6.27,22q.23.81.42,1.77c.12.63.25,1.31.37,2,.13-.71.28-1.39.44-2s.34-1.23.52-1.77l7.23-22a2.45,2.45,0,0,1,.81-1.07,2.19,2.19,0,0,1,1.46-.49h2a2.49,2.49,0,0,1,1.48.42,2.15,2.15,0,0,1,.81,1.14l7.18,22a29.3,29.3,0,0,1,1,3.61c.12-.66.24-1.3.37-1.91s.26-1.18.39-1.7l6.27-22a2,2,0,0,1,.78-1.1,2.44,2.44,0,0,1,1.48-.46h5.37l-11.43,36.82h-6.18L276,173.51c-.1-.32-.21-.67-.32-1s-.21-.77-.32-1.2c-.1.43-.2.83-.31,1.2s-.22.72-.32,1l-8.12,25.16h-6.19Z" fill="#dd3532"/>
          <path d="M315.1,172.14a12.64,12.64,0,0,1,4.55.79,9.85,9.85,0,0,1,3.57,2.3,10.54,10.54,0,0,1,2.34,3.72,14,14,0,0,1,.84,5,9.59,9.59,0,0,1-.06,1.18,1.85,1.85,0,0,1-.23.74,1,1,0,0,1-.44.38,1.87,1.87,0,0,1-.72.12H308.81q.29,4,2.17,5.9a6.71,6.71,0,0,0,5,1.89,8.57,8.57,0,0,0,2.63-.36,12.79,12.79,0,0,0,1.94-.79c.55-.29,1-.55,1.45-.79a2.4,2.4,0,0,1,1.21-.36,1.4,1.4,0,0,1,.66.16,1.31,1.31,0,0,1,.48.43l1.84,2.29a10.34,10.34,0,0,1-2.35,2,13.62,13.62,0,0,1-2.71,1.33,15.12,15.12,0,0,1-2.88.7,21.4,21.4,0,0,1-2.83.2,14,14,0,0,1-5.07-.9,11.41,11.41,0,0,1-4.07-2.68,12.45,12.45,0,0,1-2.73-4.38,17,17,0,0,1-1-6,14.6,14.6,0,0,1,.86-5,12.1,12.1,0,0,1,2.49-4.1,11.66,11.66,0,0,1,3.94-2.76A13,13,0,0,1,315.1,172.14Zm.13,4.5a5.77,5.77,0,0,0-4.3,1.56,7.62,7.62,0,0,0-2,4.4h11.81a7.85,7.85,0,0,0-.33-2.3,5.28,5.28,0,0,0-1-1.9,4.77,4.77,0,0,0-1.73-1.28A5.77,5.77,0,0,0,315.23,176.64Z" fill="#dd3532"/>
          <path d="M331.6,198.67V160.83h6.29v14.92a12.24,12.24,0,0,1,3.51-2.63,10.16,10.16,0,0,1,4.58-1,8.49,8.49,0,0,1,7,3.44,12.41,12.41,0,0,1,2,4.15,20.65,20.65,0,0,1,.7,5.67,17.86,17.86,0,0,1-.79,5.43,13.23,13.23,0,0,1-2.25,4.32,10.44,10.44,0,0,1-3.54,2.87,10.25,10.25,0,0,1-4.65,1,9.42,9.42,0,0,1-2.19-.24,7.55,7.55,0,0,1-1.8-.68,7.92,7.92,0,0,1-1.52-1,12.56,12.56,0,0,1-1.33-1.39l-.29,1.75a1.56,1.56,0,0,1-.52.95,1.65,1.65,0,0,1-1,.28ZM343.82,177a6.45,6.45,0,0,0-3.35.82,9.65,9.65,0,0,0-2.58,2.33v11.71a5.93,5.93,0,0,0,2.33,1.85,7,7,0,0,0,2.73.52,6.09,6.09,0,0,0,2.57-.53,5,5,0,0,0,2-1.63,8,8,0,0,0,1.24-2.76,16.32,16.32,0,0,0,.43-3.94,17.24,17.24,0,0,0-.37-3.88,7.51,7.51,0,0,0-1.06-2.58,4.12,4.12,0,0,0-1.66-1.46A5.32,5.32,0,0,0,343.82,177Z" fill="#dd3532"/>
          <path d="M403.42,180.26a19.85,19.85,0,0,1-1.35,7.43,17.19,17.19,0,0,1-3.79,5.83,17,17,0,0,1-5.89,3.8,20.61,20.61,0,0,1-7.61,1.35h-14V161.85h14a20.62,20.62,0,0,1,7.61,1.36,17.24,17.24,0,0,1,5.89,3.8,17.05,17.05,0,0,1,3.79,5.82A19.85,19.85,0,0,1,403.42,180.26Zm-7,0a16.76,16.76,0,0,0-.82-5.44,11.48,11.48,0,0,0-2.31-4.07,10.13,10.13,0,0,0-3.66-2.56,12.63,12.63,0,0,0-4.85-.89h-7.15v25.92h7.15a12.63,12.63,0,0,0,4.85-.89,10.13,10.13,0,0,0,3.66-2.56,11.48,11.48,0,0,0,2.31-4.07A16.76,16.76,0,0,0,396.42,180.26Z" fill="#dd3532"/>
          <path d="M419.23,172.14a12.59,12.59,0,0,1,4.54.79,9.8,9.8,0,0,1,3.58,2.3,10.54,10.54,0,0,1,2.34,3.72,14,14,0,0,1,.84,5,9.59,9.59,0,0,1-.06,1.18,1.85,1.85,0,0,1-.23.74.93.93,0,0,1-.45.38,1.78,1.78,0,0,1-.71.12H412.94q.29,4,2.16,5.9a6.74,6.74,0,0,0,5,1.89,8.6,8.6,0,0,0,2.64-.36,12.24,12.24,0,0,0,1.93-.79c.55-.29,1-.55,1.46-.79a2.37,2.37,0,0,1,1.2-.36,1.41,1.41,0,0,1,.67.16,1.49,1.49,0,0,1,.48.43l1.83,2.29a10.09,10.09,0,0,1-2.34,2,13.62,13.62,0,0,1-2.71,1.33,15.12,15.12,0,0,1-2.88.7,21.43,21.43,0,0,1-2.84.2,14,14,0,0,1-5.06-.9,11.54,11.54,0,0,1-4.08-2.68,12.57,12.57,0,0,1-2.72-4.38,17,17,0,0,1-1-6,14.6,14.6,0,0,1,.86-5,12.24,12.24,0,0,1,2.48-4.1,11.8,11.8,0,0,1,4-2.76A13,13,0,0,1,419.23,172.14Zm.13,4.5a5.81,5.81,0,0,0-4.31,1.56,7.67,7.67,0,0,0-2,4.4h11.81a7.85,7.85,0,0,0-.33-2.3,5.28,5.28,0,0,0-1-1.9,4.77,4.77,0,0,0-1.73-1.28A5.81,5.81,0,0,0,419.36,176.64Z" fill="#dd3532"/>
          <path d="M451.15,177.64a1.64,1.64,0,0,1-.53.57,1.41,1.41,0,0,1-.71.17,2.21,2.21,0,0,1-1-.26l-1.21-.57a11.33,11.33,0,0,0-1.57-.57,7.45,7.45,0,0,0-2.07-.26,4.81,4.81,0,0,0-2.93.79,2.46,2.46,0,0,0-1.07,2.06,2,2,0,0,0,.55,1.42,4.81,4.81,0,0,0,1.45,1,13.75,13.75,0,0,0,2.05.78q1.14.34,2.34.75a23.73,23.73,0,0,1,2.34.93,8.19,8.19,0,0,1,2.05,1.32,6.24,6.24,0,0,1,1.45,1.92,6,6,0,0,1,.55,2.7,8.65,8.65,0,0,1-.69,3.48,7.68,7.68,0,0,1-2,2.75,9.54,9.54,0,0,1-3.27,1.81,15.39,15.39,0,0,1-7.1.4,15.21,15.21,0,0,1-2.47-.67,13.79,13.79,0,0,1-2.19-1,11.15,11.15,0,0,1-1.77-1.27l1.45-2.4a2.18,2.18,0,0,1,.66-.66,1.91,1.91,0,0,1,1-.23,2.05,2.05,0,0,1,1.11.33c.34.22.75.46,1.2.72a11.35,11.35,0,0,0,1.62.71,7.17,7.17,0,0,0,2.36.33,6.09,6.09,0,0,0,1.92-.27,4.12,4.12,0,0,0,1.32-.7,2.72,2.72,0,0,0,.77-1,3.08,3.08,0,0,0,.24-1.19,2.09,2.09,0,0,0-.55-1.5,4.79,4.79,0,0,0-1.45-1,13.92,13.92,0,0,0-2.06-.77c-.78-.23-1.56-.48-2.37-.76a20.2,20.2,0,0,1-2.37-1,7.94,7.94,0,0,1-2.06-1.39,6.18,6.18,0,0,1-1.45-2.06,7.09,7.09,0,0,1-.55-2.95,7.46,7.46,0,0,1,.64-3.06,7.1,7.1,0,0,1,1.87-2.53,9.24,9.24,0,0,1,3.08-1.73,12.63,12.63,0,0,1,4.26-.65,13.18,13.18,0,0,1,4.92.89,11.11,11.11,0,0,1,3.69,2.34Z" fill="#dd3532"/>
          <path d="M465.54,164.93a3.56,3.56,0,0,1-.33,1.53,4.12,4.12,0,0,1-2.17,2.1,4,4,0,0,1-1.58.32,3.86,3.86,0,0,1-1.54-.32,4.24,4.24,0,0,1-1.26-.85,4.19,4.19,0,0,1-.85-1.25,3.71,3.71,0,0,1-.32-1.53,4,4,0,0,1,.32-1.58,4.16,4.16,0,0,1,.85-1.27,4.24,4.24,0,0,1,1.26-.85,3.86,3.86,0,0,1,1.54-.32,4,4,0,0,1,1.58.32,4.07,4.07,0,0,1,2.17,2.12A3.86,3.86,0,0,1,465.54,164.93Zm-.94,7.62v26.12h-6.29V172.55Z" fill="#dd3532"/>
          <path d="M480.74,172.09a13.77,13.77,0,0,1,3.15.34,10.71,10.71,0,0,1,2.7,1h7.51v2.34a1.32,1.32,0,0,1-.3.92,1.8,1.8,0,0,1-1.05.45l-2.34.44a8.45,8.45,0,0,1,.4,1.4,8.59,8.59,0,0,1,.14,1.55,7.73,7.73,0,0,1-.78,3.5A7.89,7.89,0,0,1,488,186.7a9.73,9.73,0,0,1-3.23,1.69,13.24,13.24,0,0,1-4.06.6,14.35,14.35,0,0,1-2.88-.28c-.81.5-1.22,1-1.22,1.67a1.24,1.24,0,0,0,.72,1.17,6.09,6.09,0,0,0,1.91.52,21.51,21.51,0,0,0,2.69.16c1,0,2,0,3.08.12a25.66,25.66,0,0,1,3.08.45,9,9,0,0,1,2.69,1,5.46,5.46,0,0,1,1.91,1.88,5.81,5.81,0,0,1,.72,3.05,7.17,7.17,0,0,1-.85,3.37,9,9,0,0,1-2.47,2.91,13,13,0,0,1-4,2.06,16.88,16.88,0,0,1-5.35.78,20.59,20.59,0,0,1-5.16-.57,12.47,12.47,0,0,1-3.63-1.53,6.6,6.6,0,0,1-2.15-2.2,5.16,5.16,0,0,1-.72-2.6,4.47,4.47,0,0,1,1.12-3.08,7.74,7.74,0,0,1,3.11-2,4.24,4.24,0,0,1-1.55-1.42,4.18,4.18,0,0,1-.59-2.32,4.08,4.08,0,0,1,.2-1.21,4.78,4.78,0,0,1,.63-1.23,6,6,0,0,1,1.05-1.16,7.28,7.28,0,0,1,1.51-1,8.28,8.28,0,0,1-3.12-2.85,7.58,7.58,0,0,1-1.13-4.18,7.61,7.61,0,0,1,2.94-6.17,9.82,9.82,0,0,1,3.28-1.7A14,14,0,0,1,480.74,172.09Zm6.9,27.67a1.82,1.82,0,0,0-.46-1.27,3.1,3.1,0,0,0-1.25-.77,9.52,9.52,0,0,0-1.84-.4,17.93,17.93,0,0,0-2.25-.13H479.4a10.23,10.23,0,0,1-2.43-.28,5.62,5.62,0,0,0-1.72,1.39,2.85,2.85,0,0,0-.65,1.84,2.55,2.55,0,0,0,.35,1.29,2.79,2.79,0,0,0,1.09,1,6.69,6.69,0,0,0,1.95.68,15.17,15.17,0,0,0,2.93.24,14.08,14.08,0,0,0,3-.28,7.34,7.34,0,0,0,2.1-.75,3.15,3.15,0,0,0,1.2-1.14A2.84,2.84,0,0,0,487.64,199.76ZM480.74,185a5.88,5.88,0,0,0,2-.32,3.85,3.85,0,0,0,1.44-.88,3.66,3.66,0,0,0,.87-1.35,5,5,0,0,0,.29-1.73,4.12,4.12,0,0,0-1.16-3.07,5.91,5.91,0,0,0-6.95,0,4.12,4.12,0,0,0-1.16,3.07,4.8,4.8,0,0,0,.3,1.71,3.71,3.71,0,0,0,.86,1.36,3.91,3.91,0,0,0,1.45.89A6,6,0,0,0,480.74,185Z" fill="#dd3532"/>
          <path d="M498.05,198.67V172.55h3.84a1.55,1.55,0,0,1,1.61,1.14l.43,2.06a14.4,14.4,0,0,1,1.67-1.47,11.09,11.09,0,0,1,1.86-1.15,9.49,9.49,0,0,1,2.1-.74,11,11,0,0,1,2.44-.25,9.39,9.39,0,0,1,3.79.72,7.61,7.61,0,0,1,2.77,2,9.22,9.22,0,0,1,1.68,3.13,13.4,13.4,0,0,1,.57,4v16.63h-6.29V182a5.56,5.56,0,0,0-1.11-3.7,4.07,4.07,0,0,0-3.32-1.31,6.53,6.53,0,0,0-3,.73,11.2,11.2,0,0,0-2.7,2v18.89Z" fill="#dd3532"/>
        </g>
        <path id="bezier01" d="M69.55,143.74c-7.49-.5-15,.37-22.51-.1-5.38-.34-10.68-.83-16.07-.88-10.28-.09-20.56-.27-30.84.07" fill="none" fill-rule="evenodd" opacity="0.57"/>
        <path id="bezier02" d="M69.55,143.74c13,2.57,37.85,6.26,49.41.83,2.11-1,13.75-11.75,4.65-11.58-4.59.09-8.85,9.58-3.16,10.91,16.37,3.84,34.22.52,50.94.26" fill="none" fill-rule="evenodd"/>
      </g>
    </g>
  </g>
</svg>
