<svg viewBox="0 0 64 64" fill="none" xmlns="http://www.w3.org/2000/svg">
  <path
    d="M54.6275 9.3725C48.5834 3.3285 40.5475 0 32 0C23.4525 0 15.4166 3.3285 9.3725 9.3725C3.32838 15.4165 0 23.4525 0 32C0 40.5475 3.3285 48.5834 9.3725 54.6275C15.4165 60.6716 23.4525 64 32 64C40.5475 64 48.5834 60.6715 54.6275 54.6275C60.6716 48.5835 64 40.5475 64 32C64 23.4525 60.6715 15.4166 54.6275 9.3725ZM32.0025 54C30.898 54 30.0019 53.1045 30.0019 52C30.0019 50.8955 30.8966 50 32.0013 50H32.0025C33.107 50 34.0025 50.8955 34.0025 52C34.0025 53.1045 33.107 54 32.0025 54ZM38.364 33.4644C35.5497 36.2786 34 40.0202 34 44C34 45.1045 33.1045 46 32 46C30.8955 46 30 45.1045 30 44C30 38.9518 31.9659 34.2057 35.5356 30.636C37.7696 28.4019 39 25.4316 39 22.2721C39 18.8136 36.1864 16 32.7279 16H32.2721C28.8136 16 26 18.8136 26 22.2721V23C26 24.1045 25.1045 25 24 25C22.8955 25 22 24.1045 22 23V22.2721C22 16.608 26.608 12 32.2721 12H32.7279C38.392 12 43 16.608 43 22.2721C43 26.5 41.3536 30.4749 38.364 33.4644Z"
    fill="#264653"/>
</svg>
