<svg viewBox="0 0 90 83" fill="none" xmlns="http://www.w3.org/2000/svg">
  <path
    d="M80.625 82.5H9.375C4.20375 82.5 0 78.2962 0 73.125V9.375C0 4.20375 4.20375 0 9.375 0H80.625C85.7962 0 90 4.20375 90 9.375V73.125C90 78.2962 85.7962 82.5 80.625 82.5ZM9.375 3.75C6.27375 3.75 3.75 6.27375 3.75 9.375V73.125C3.75 76.2262 6.27375 78.75 9.375 78.75H80.625C83.7262 78.75 86.25 76.2262 86.25 73.125V9.375C86.25 6.27375 83.7262 3.75 80.625 3.75H9.375Z"
    fill="#E76F51"/>
  <path
    d="M88.125 18.75H1.875C0.84 18.75 0 17.91 0 16.875C0 15.84 0.84 15 1.875 15H88.125C89.16 15 90 15.84 90 16.875C90 17.91 89.16 18.75 88.125 18.75Z"
    fill="#E76F51"/>
  <path
    d="M39.375 60C38.34 60 37.5 59.16 37.5 58.125V45C37.5 42.93 35.82 41.25 33.75 41.25C31.68 41.25 30 42.93 30 45V58.125C30 59.16 29.16 60 28.125 60C27.09 60 26.25 59.16 26.25 58.125V45C26.25 40.8637 29.6137 37.5 33.75 37.5C37.8863 37.5 41.25 40.8637 41.25 45V58.125C41.25 59.16 40.41 60 39.375 60Z"
    fill="#E76F51"/>
  <path
    d="M39.375 52.5H28.125C27.09 52.5 26.25 51.66 26.25 50.625C26.25 49.59 27.09 48.75 28.125 48.75H39.375C40.41 48.75 41.25 49.59 41.25 50.625C41.25 51.66 40.41 52.5 39.375 52.5Z"
    fill="#E76F51"/>
  <path
    d="M54.375 60H50.625C49.59 60 48.75 59.16 48.75 58.125V39.375C48.75 38.34 49.59 37.5 50.625 37.5H54.375C59.5462 37.5 63.75 41.7038 63.75 46.875V50.625C63.75 55.7962 59.5462 60 54.375 60ZM52.5 56.25H54.375C57.4762 56.25 60 53.7262 60 50.625V46.875C60 43.7737 57.4762 41.25 54.375 41.25H52.5V56.25Z"
    fill="#E76F51"/>
</svg>
