<svg viewBox="0 0 90 90" fill="none" xmlns="http://www.w3.org/2000/svg">
  <path
    d="M81 23.9938H80.685C81.8857 21.6767 82.5084 19.1036 82.5 16.4938C82.4985 12.4682 81.0254 8.58211 78.358 5.56708C75.6907 2.55205 72.0131 0.616151 68.0177 0.123876C64.0224 -0.368398 59.9849 0.616915 56.6655 2.8943C53.346 5.17168 50.9736 8.58401 49.995 12.4888C48.1877 10.7742 45.9172 9.62744 43.4645 9.19061C41.0119 8.75377 38.485 9.04605 36.1969 10.0312C33.9088 11.0164 31.9599 12.6512 30.5918 14.7332C29.2237 16.8151 28.4964 19.2526 28.5 21.7438C28.5227 22.5445 28.7279 23.3295 29.1 24.0388C26.8697 24.2695 24.8054 25.323 23.31 26.9938H16.5C13.7162 26.997 11.0473 28.1043 9.07889 30.0727C7.11044 32.0411 6.00318 34.71 6 37.4938V40.4938C6.00356 41.6862 6.47881 42.8287 7.32195 43.6719C8.1651 44.515 9.30762 44.9903 10.5 44.9938H9C8.20508 44.9962 7.4434 45.313 6.8813 45.8751C6.31921 46.4372 6.00237 47.1989 6 47.9938V49.4938C6.00237 50.2887 6.31921 51.0504 6.8813 51.6125C7.4434 52.1746 8.20508 52.4914 9 52.4938H10.62C10.8255 53.9153 11.3202 55.2796 12.0736 56.5025C12.8269 57.7254 13.8229 58.7808 15 59.6038V63.7438L10.005 67.4938H1.5C1.10218 67.4938 0.720644 67.6518 0.43934 67.9332C0.158035 68.2145 0 68.596 0 68.9938V79.4938C0.00317604 82.2776 1.11044 84.9465 3.07889 86.9149C5.04733 88.8834 7.7162 89.9906 10.5 89.9938H31.5C34.2838 89.9906 36.9527 88.8834 38.9211 86.9149C40.8896 84.9465 41.9968 82.2776 42 79.4938V68.9938C42 68.596 41.842 68.2145 41.5607 67.9332C41.2794 67.6518 40.8978 67.4938 40.5 67.4938H31.995L27 63.7438V59.6038C28.1771 58.7808 29.1731 57.7254 29.9264 56.5025C30.6798 55.2796 31.1745 53.9153 31.38 52.4938H33C33.7949 52.4914 34.5566 52.1746 35.1187 51.6125C35.6808 51.0504 35.9976 50.2887 36 49.4938V47.9938C35.9976 47.1989 35.6808 46.4372 35.1187 45.8751C34.5566 45.313 33.7949 44.9962 33 44.9938H31.5V43.0738C31.9716 42.748 32.4179 42.387 32.835 41.9938H81C83.3869 41.9938 85.6761 41.0456 87.364 39.3578C89.0518 37.6699 90 35.3808 90 32.9938C90 30.6069 89.0518 28.3177 87.364 26.6299C85.6761 24.942 83.3869 23.9938 81 23.9938ZM10.5 49.4938H9V47.9938H10.5V49.4938ZM29.955 81.3538L32.67 70.4938H39V79.4938C39 81.4829 38.2098 83.3906 36.8033 84.7971C35.3968 86.2036 33.4891 86.9938 31.5 86.9938H10.5C8.51088 86.9938 6.60322 86.2036 5.1967 84.7971C3.79018 83.3906 3 81.4829 3 79.4938V70.4938H9.33L12.045 81.3538C12.1254 81.679 12.3123 81.9679 12.576 82.1746C12.8397 82.3812 13.165 82.4936 13.5 82.4938H28.5C28.835 82.4936 29.1603 82.3812 29.424 82.1746C29.6877 81.9679 29.8746 81.679 29.955 81.3538ZM27.33 79.4938H14.67L12.81 72.0388L20.25 76.2988C20.4801 76.4243 20.7379 76.4901 21 76.4901C21.2621 76.4901 21.5199 76.4243 21.75 76.2988L29.19 72.0388L27.33 79.4938ZM28.77 68.8288L21 73.2688L13.23 68.8288L17.4 65.6938C17.5851 65.553 17.7354 65.3716 17.8395 65.1635C17.9435 64.9555 17.9984 64.7264 18 64.4938V61.0588C19.958 61.6388 22.042 61.6388 24 61.0588V64.4938C24.0016 64.7264 24.0565 64.9555 24.1605 65.1635C24.2646 65.3716 24.4149 65.553 24.6 65.6938L28.77 68.8288ZM28.5 50.9938C28.5 52.9829 27.7098 54.8906 26.3033 56.2971C24.8968 57.7036 22.9891 58.4938 21 58.4938C19.0109 58.4938 17.1032 57.7036 15.6967 56.2971C14.2902 54.8906 13.5 52.9829 13.5 50.9938V42.9238L18.135 40.5988C18.1586 40.8995 18.1435 41.202 18.09 41.4988C17.8739 42.0721 17.5703 42.6085 17.19 43.0888C16.8553 43.4239 16.628 43.8512 16.5372 44.3161C16.4463 44.7809 16.4961 45.2623 16.68 45.6988C16.8943 46.0564 17.1945 46.3549 17.5533 46.567C17.9122 46.7792 18.3184 46.8984 18.735 46.9138C19.91 47.0071 21.0911 46.8389 22.1934 46.4213C23.2956 46.0038 24.2917 45.3472 25.11 44.4988C25.6198 43.9453 26.0353 43.3119 26.34 42.6238L28.5 43.1638V50.9938ZM33 47.9938V49.4938H31.5V47.9938H33ZM33 34.4938C33.0008 35.6488 32.7329 36.7881 32.2174 37.8216C31.7019 38.8552 30.9531 39.7546 30.03 40.4488L25.71 39.3688C25.5153 39.3195 25.3126 39.31 25.1141 39.3409C24.9156 39.3718 24.7255 39.4426 24.555 39.5488C24.3848 39.6565 24.2376 39.7968 24.1218 39.9615C24.006 40.1263 23.9238 40.3122 23.88 40.5088C23.7348 41.2386 23.3983 41.9167 22.905 42.4738C22.1909 43.1932 21.2758 43.6796 20.28 43.8688C20.5339 43.4354 20.7449 42.9782 20.91 42.5038C21.1797 41.2758 21.2052 40.0067 20.985 38.7688C20.9332 38.4128 20.7543 38.0875 20.4813 37.8532C20.2083 37.6188 19.8598 37.4912 19.5 37.4938H18C17.7652 37.4952 17.534 37.5517 17.325 37.6588L11.325 40.6588C11.0751 40.7802 10.8648 40.9702 10.7187 41.2066C10.5727 41.4429 10.4968 41.716 10.5 41.9938C10.1022 41.9938 9.72064 41.8358 9.43934 41.5545C9.15804 41.2732 9 40.8916 9 40.4938V37.4938C9 35.5047 9.79018 33.597 11.1967 32.1905C12.6032 30.784 14.5109 29.9938 16.5 29.9938H33V34.4938ZM81 38.9938H34.965C35.6404 37.5895 35.994 36.0521 36 34.4938V28.4938C36 28.096 35.842 27.7145 35.5607 27.4332C35.2794 27.1518 34.8978 26.9938 34.5 26.9938H31.5C31.7402 26.9934 31.9769 26.9361 32.1907 26.8266C32.4045 26.7171 32.5893 26.5585 32.73 26.3638C32.8653 26.1637 32.952 25.9347 32.9833 25.6951C33.0145 25.4555 32.9894 25.212 32.91 24.9838C32.7147 24.4709 32.4789 23.9744 32.205 23.4988C31.851 22.9689 31.611 22.3713 31.5 21.7438C31.497 19.5923 32.2066 17.5004 33.518 15.7948C34.8293 14.0891 36.6687 12.8658 38.7487 12.3158C40.8287 11.7658 43.0323 11.9201 45.0153 12.7547C46.9983 13.5892 48.6492 15.057 49.71 16.9288C49.8725 17.2156 50.1248 17.4409 50.4282 17.5698C50.7315 17.6988 51.0688 17.7243 51.3881 17.6424C51.7073 17.5604 51.9907 17.3756 52.1944 17.1165C52.3981 16.8574 52.5107 16.5384 52.515 16.2088C52.5542 14.0786 53.097 11.9879 54.099 10.1077C55.101 8.22749 56.5339 6.61114 58.2803 5.39082C60.0268 4.1705 62.0373 3.38086 64.1474 3.08648C66.2575 2.79209 68.4074 3.00132 70.4211 3.69705C72.4349 4.39278 74.2554 5.55526 75.7338 7.08943C77.2122 8.62361 78.3064 10.4859 78.9271 12.524C79.5478 14.5622 79.6773 16.7183 79.305 18.8161C78.9327 20.9139 78.0691 22.8937 76.785 24.5938C76.6179 24.8167 76.5161 25.0817 76.4911 25.3591C76.466 25.6365 76.5188 25.9155 76.6434 26.1646C76.7679 26.4138 76.9594 26.6233 77.1964 26.7698C77.4334 26.9162 77.7064 26.9938 77.985 26.9938H81C82.5913 26.9938 84.1174 27.626 85.2426 28.7512C86.3679 29.8764 87 31.4025 87 32.9938C87 34.5851 86.3679 36.1112 85.2426 37.2365C84.1174 38.3617 82.5913 38.9938 81 38.9938Z"
    fill="#2A9D8F"/>
  <path d="M48 74.9938H45V77.9938H48V74.9938Z" fill="#2A9D8F"/>
  <path
    d="M76.5 70.4938C75.3133 70.4938 74.1533 70.8457 73.1666 71.505C72.1799 72.1643 71.4109 73.1014 70.9567 74.1977C70.5026 75.2941 70.3838 76.5005 70.6153 77.6644C70.8468 78.8282 71.4182 79.8973 72.2574 80.7365C73.0965 81.5756 74.1656 82.147 75.3295 82.3785C76.4933 82.61 77.6997 82.4912 78.7961 82.0371C79.8925 81.583 80.8295 80.8139 81.4888 79.8272C82.1481 78.8405 82.5 77.6805 82.5 76.4938C82.5 74.9025 81.8679 73.3764 80.7426 72.2512C79.6174 71.126 78.0913 70.4938 76.5 70.4938ZM76.5 79.4938C75.9067 79.4938 75.3266 79.3179 74.8333 78.9882C74.3399 78.6586 73.9554 78.19 73.7284 77.6419C73.5013 77.0937 73.4419 76.4905 73.5576 75.9085C73.6734 75.3266 73.9591 74.792 74.3787 74.3725C74.7982 73.9529 75.3328 73.6672 75.9147 73.5515C76.4967 73.4357 77.0999 73.4951 77.6481 73.7222C78.1962 73.9492 78.6648 74.3338 78.9944 74.8271C79.3241 75.3204 79.5 75.9005 79.5 76.4938C79.5 77.2895 79.1839 78.0525 78.6213 78.6151C78.0587 79.1777 77.2957 79.4938 76.5 79.4938Z"
    fill="#2A9D8F"/>
  <path
    d="M88.86 72.0388L87.855 71.7838L88.395 70.8988C88.5666 70.6123 88.6376 70.2767 88.5969 69.9452C88.5561 69.6137 88.4059 69.3053 88.17 69.0688L83.925 64.8238C83.6867 64.5911 83.3786 64.4431 83.048 64.4024C82.7174 64.3618 82.3826 64.4308 82.095 64.5988L81.21 65.1388L80.955 64.1338C80.8746 63.8086 80.6877 63.5197 80.424 63.3131C80.1603 63.1065 79.835 62.9941 79.5 62.9938H78V44.9938H75V62.9938H73.5C73.165 62.9941 72.8397 63.1065 72.576 63.3131C72.3123 63.5197 72.1254 63.8086 72.045 64.1338L71.79 65.1388L70.905 64.5988C70.6176 64.4303 70.2826 64.361 69.9519 64.4017C69.6212 64.4423 69.3131 64.5907 69.075 64.8238L64.83 69.0688C64.5941 69.3053 64.4439 69.6137 64.4031 69.9452C64.3624 70.2767 64.4334 70.6123 64.605 70.8988L65.145 71.7838L64.14 72.0388C63.8148 72.1192 63.5259 72.3062 63.3193 72.5699C63.1126 72.8336 63.0003 73.1588 63 73.4938V74.9938H51V77.9938H63V79.4938C63.0003 79.8288 63.1126 80.1541 63.3193 80.4178C63.5259 80.6815 63.8148 80.8684 64.14 80.9488L65.145 81.2038L64.605 82.0888C64.4334 82.3754 64.3624 82.711 64.4031 83.0425C64.4439 83.374 64.5941 83.6824 64.83 83.9188L69.075 88.1638C69.3131 88.397 69.6212 88.5453 69.9519 88.586C70.2826 88.6266 70.6176 88.5574 70.905 88.3888L71.79 87.8488L72.045 88.8538C72.1254 89.179 72.3123 89.468 72.576 89.6746C72.8397 89.8812 73.165 89.9936 73.5 89.9938H79.5C79.835 89.9936 80.1603 89.8812 80.424 89.6746C80.6877 89.468 80.8746 89.179 80.955 88.8538L81.21 87.8488L82.095 88.3888C82.3826 88.5569 82.7174 88.6259 83.048 88.5852C83.3786 88.5446 83.6867 88.3965 83.925 88.1638L88.17 83.9188C88.4059 83.6824 88.5561 83.374 88.5969 83.0425C88.6376 82.711 88.5666 82.3754 88.395 82.0888L87.855 81.2038L88.86 80.9488C89.1852 80.8684 89.4741 80.6815 89.6807 80.4178C89.8874 80.1541 89.9997 79.8288 90 79.4938V73.4938C89.9997 73.1588 89.8874 72.8336 89.6807 72.5699C89.4741 72.3062 89.1852 72.1192 88.86 72.0388ZM87 78.3238L85.17 78.7738C84.943 78.8321 84.7326 78.9424 84.5556 79.096C84.3786 79.2496 84.2397 79.4423 84.15 79.6588C84.0591 79.876 84.0212 80.1117 84.0395 80.3465C84.0577 80.5812 84.1316 80.8083 84.255 81.0088L85.215 82.6288L82.635 85.2088L81.015 84.2338C80.812 84.1162 80.5846 84.0469 80.3505 84.0313C80.1164 84.0157 79.8818 84.0542 79.665 84.1438C79.4485 84.2335 79.2558 84.3724 79.1022 84.5494C78.9486 84.7264 78.8383 84.9368 78.78 85.1638L78.33 86.9938H74.67L74.22 85.1638C74.1617 84.9368 74.0514 84.7264 73.8978 84.5494C73.7442 84.3724 73.5515 84.2335 73.335 84.1438C73.1182 84.0542 72.8836 84.0157 72.6495 84.0313C72.4154 84.0469 72.188 84.1162 71.985 84.2338L70.365 85.2088L67.785 82.6288L68.745 81.0088C68.8684 80.8083 68.9423 80.5812 68.9605 80.3465C68.9788 80.1117 68.9409 79.876 68.85 79.6588C68.7603 79.4423 68.6214 79.2496 68.4444 79.096C68.2674 78.9424 68.057 78.8321 67.83 78.7738L66 78.3238V74.6638L67.83 74.2138C68.057 74.1556 68.2674 74.0453 68.4444 73.8917C68.6214 73.738 68.7603 73.5454 68.85 73.3288C68.9409 73.1116 68.9788 72.8759 68.9605 72.6411C68.9423 72.4064 68.8684 72.1794 68.745 71.9788L67.785 70.3588L70.365 67.7788L71.985 68.7388C72.1855 68.8622 72.4126 68.9361 72.6473 68.9543C72.8821 68.9726 73.1178 68.9347 73.335 68.8438C73.5515 68.7541 73.7442 68.6153 73.8978 68.4382C74.0514 68.2612 74.1617 68.0508 74.22 67.8238L74.67 65.9938H78.33L78.78 67.8238C78.8383 68.0508 78.9486 68.2612 79.1022 68.4382C79.2558 68.6153 79.4485 68.7541 79.665 68.8438C79.8822 68.9347 80.1179 68.9726 80.3527 68.9543C80.5874 68.9361 80.8145 68.8622 81.015 68.7388L82.635 67.7788L85.215 70.3588L84.255 71.9788C84.1316 72.1794 84.0577 72.4064 84.0395 72.6411C84.0212 72.8759 84.0591 73.1116 84.15 73.3288C84.2397 73.5454 84.3786 73.738 84.5556 73.8917C84.7326 74.0453 84.943 74.1556 85.17 74.2138L87 74.6638V78.3238Z"
    fill="#2A9D8F"/>
  <path
    d="M73.5 16.4938H76.5C76.4968 13.71 75.3896 11.0411 73.4211 9.0727C71.4527 7.10425 68.7838 5.99699 66 5.99381V8.99381C67.9884 8.99619 69.8947 9.78713 71.3007 11.1931C72.7067 12.5991 73.4976 14.5054 73.5 16.4938Z"
    fill="#2A9D8F"/>
  <path
    d="M41.25 17.9938V14.9938C39.5957 14.9936 37.999 15.6009 36.7629 16.7003C35.5269 17.7997 34.7376 19.3148 34.545 20.9578L37.5255 21.3058C37.6328 20.3934 38.0713 19.5521 38.7579 18.9415C39.4444 18.331 40.3312 17.9938 41.25 17.9938Z"
    fill="#2A9D8F"/>
</svg>
