<svg viewBox="0 0 90 74" fill="none" xmlns="http://www.w3.org/2000/svg">
  <path
    d="M90 8.65688C86.6531 10.125 83.0869 11.0981 79.3688 11.5706C83.1937 9.28687 86.1131 5.69812 87.4856 1.3725C83.9194 3.49875 79.9819 5.00063 75.7856 5.83875C72.3994 2.23313 67.5731 0 62.3081 0C52.0931 0 43.8694 8.29125 43.8694 18.4556C43.8694 19.9181 43.9931 21.3244 44.2969 22.6631C28.9575 21.915 15.3844 14.5631 6.26625 3.36375C4.67438 6.12563 3.74063 9.28687 3.74063 12.69C3.74063 19.08 7.03125 24.7444 11.9362 28.0237C8.97188 27.9675 6.06375 27.1069 3.6 25.7513C3.6 25.8075 3.6 25.8806 3.6 25.9537C3.6 34.92 9.99562 42.3675 18.3825 44.0831C16.8806 44.4937 15.2437 44.6906 13.545 44.6906C12.3638 44.6906 11.1712 44.6231 10.0519 44.3756C12.4425 51.6825 19.2263 57.0544 27.2925 57.2287C21.015 62.1394 13.0444 65.0981 4.41563 65.0981C2.9025 65.0981 1.45125 65.0306 0 64.845C8.17312 70.1156 17.8594 73.125 28.305 73.125C62.2575 73.125 80.82 45 80.82 20.6213C80.82 19.8056 80.7919 19.0181 80.7525 18.2362C84.4144 15.6375 87.4912 12.3919 90 8.65688Z"
    fill="#2A9D8F"/>
</svg>
