<svg width="90" height="90" viewBox="0 0 90 90" fill="none" xmlns="http://www.w3.org/2000/svg">
  <path d="M87.1875 0V29.3651L84.375 27.9588V0H81.5625V28.125L80.1562 29.1797L78.75 28.125V0H75.9375V27.9588L73.125 29.3651V0H70.3125V32.0485L80.1562 47.634L90 32.0485V0H87.1875ZM80.1562 42.366L77.3788 37.9688H82.9337L80.1562 42.366ZM84.7094 35.1562H75.6031L73.7382 32.203L77.203 30.4747L80.1562 32.6953L83.1095 30.4747L86.5743 32.203L84.7094 35.1562Z" fill="#2A9D8F"/>
  <path d="M39.6832 30.9375L34.7614 50.625H55.2385L50.3166 30.9375H39.6832ZM38.3635 47.8125L41.8791 33.75H48.1207L51.6364 47.8125H38.3635Z" fill="#2A9D8F"/>
  <path d="M54.8438 18.0602V8.4375H60.4688V5.625H54.8438V0H52.0312V5.625H37.9688V0H35.1562V5.625H29.5312V8.4375H35.1562V18.0602L30.9794 30.9375H11.25V25.3125H8.4375V30.9375H0V33.75H8.4375V47.8125H0V50.625H8.4375V56.25H11.25V50.625H24.5936L15.4688 78.75H8.4375V81.5625H14.5603L12.4214 88.1591L15.0932 89.0284L17.5177 81.5625H26.2601L24.3622 88.2072L27.0676 88.9803L29.1866 81.5625H36.5625V78.75H29.9899L34.8102 61.875H55.1898L60.0101 78.75H53.4375V81.5625H60.8134L62.9324 88.9803L65.6378 88.2072L63.7399 81.5625H72.4823L74.9041 89.0284L77.5758 88.1591L75.4397 81.5625H81.5625V78.75H74.5312L54.8438 18.0602ZM37.9688 8.4375H52.0312V16.875H37.9688V8.4375ZM11.25 47.8125V33.75H30.0668L25.5068 47.8125H11.25ZM27.0634 78.75H18.4289L20.7099 71.7188H29.0726L27.0634 78.75ZM60.1227 68.9062L57.3102 59.0625H32.6898L29.8773 68.9062H21.6225L37.5849 19.6875H52.4151L68.3775 68.9062H60.1227ZM62.9352 78.75L60.9261 71.7188H69.2887L71.578 78.75H62.9352Z" fill="#2A9D8F"/>
</svg>
