<svg viewBox="0 0 90 94" fill="none" xmlns="http://www.w3.org/2000/svg">
  <path
    d="M81.1142 0.346078C79.1558 0.334857 77.2487 0.972175 75.6906 2.15861C74.1324 3.34504 73.0107 5.01386 72.5006 6.9047H53.9554V2.14287C53.9554 1.57455 53.7297 1.0295 53.3278 0.627637C52.9259 0.22577 52.3809 0 51.8126 0H38.0032C37.4348 0 36.8898 0.22577 36.4879 0.627637C36.0861 1.0295 35.8603 1.57455 35.8603 2.14287V6.9047H17.1458C16.6962 4.99758 15.6198 3.29644 14.0888 2.07361C12.5578 0.850775 10.6608 0.17695 8.7015 0.160001C3.9036 0.160001 0 4.14754 0 9.04758C0 13.9476 3.9036 17.9341 8.7015 17.9341C10.6606 17.9171 12.5574 17.2434 14.0883 16.0208C15.6192 14.7982 16.6957 13.0973 17.1455 11.1904H31.0717C27.7452 13.4541 25.024 16.4985 23.1464 20.0572C21.2688 23.6159 20.2919 27.5805 20.3012 31.6042C20.3012 32.1725 20.527 32.7176 20.9289 33.1194C21.3307 33.5213 21.8758 33.7471 22.4441 33.7471C23.0124 33.7471 23.5575 33.5213 23.9594 33.1194C24.3612 32.7176 24.587 32.1725 24.587 31.6042C24.5775 27.8121 25.6281 24.0929 27.6201 20.8662C29.6121 17.6394 32.4663 15.0337 35.8606 13.343V15.9523C35.8606 16.5206 36.0864 17.0656 36.4883 17.4675C36.8901 17.8694 37.4352 18.0951 38.0035 18.0951H51.8129C52.3812 18.0951 52.9263 17.8694 53.3281 17.4675C53.73 17.0656 53.9558 16.5206 53.9558 15.9523V13.2505C57.4016 14.9186 60.3056 17.5268 62.333 20.7742C64.3604 24.0216 65.4286 27.7759 65.4144 31.6042C65.4144 32.1725 65.6402 32.7176 66.0421 33.1194C66.4439 33.5213 66.989 33.7471 67.5573 33.7471C68.1256 33.7471 68.6707 33.5213 69.0726 33.1194C69.4744 32.7176 69.7002 32.1725 69.7002 31.6042C69.7139 27.5805 68.7396 23.6149 66.8629 20.0557C64.9862 16.4964 62.2644 13.4522 58.9365 11.1904H72.5006C73.0106 13.0812 74.1322 14.75 75.6902 15.9364C77.2483 17.1228 79.1552 17.7602 81.1135 17.7491C86.0135 17.7491 90 13.8458 90 9.04758C90 4.24932 86.0143 0.346078 81.1142 0.346078ZM8.7015 13.6483C7.7835 13.686 6.87521 13.4482 6.09345 12.9656C5.31169 12.4829 4.6922 11.7774 4.31464 10.9397C3.93709 10.1021 3.81874 9.17072 3.97482 8.26531C4.13089 7.35989 4.55426 6.52186 5.19046 5.859C5.82667 5.19614 6.64662 4.73876 7.54487 4.54567C8.44312 4.35259 9.3786 4.43263 10.231 4.77551C11.0834 5.11839 11.8137 5.70842 12.3281 6.46973C12.8424 7.23104 13.1173 8.1288 13.1172 9.04758C13.1399 10.2427 12.6879 11.3981 11.8602 12.2605C11.0324 13.1229 9.89656 13.622 8.7015 13.6483ZM40.146 13.8094V10.7429C40.2679 10.3404 40.2679 9.91083 40.146 9.50829V4.28575H49.6697V9.40365C49.6672 9.41079 49.6643 9.41794 49.6618 9.42544C49.5303 9.8469 49.5331 10.2988 49.6697 10.7187V13.8094H40.146ZM81.1142 13.4633C80.2486 13.4278 79.4126 13.1386 78.71 12.6317C78.0074 12.1248 77.4693 11.4226 77.1626 10.6124C76.8559 9.80222 76.794 8.91973 76.9848 8.07467C77.1755 7.2296 77.6105 6.45924 78.2355 5.85935C78.8605 5.25946 79.6481 4.8565 80.5002 4.70058C81.3524 4.54465 82.2316 4.64263 83.0286 4.98234C83.8255 5.32205 84.505 5.8885 84.9827 6.61127C85.4603 7.33404 85.7149 8.18125 85.715 9.04758C85.6886 10.2426 85.1896 11.3785 84.3271 12.2062C83.4647 13.034 82.3094 13.486 81.1142 13.4633Z"
    fill="#E76F51"/>
  <path
    d="M26.467 40.1757C25.7935 38.7214 25.2948 37.1924 24.9813 35.6206C24.8703 35.0633 24.5424 34.5728 24.0698 34.2572C23.5971 33.9415 23.0185 33.8266 22.4611 33.9376C21.9037 34.0486 21.4133 34.3765 21.0976 34.8491C20.782 35.3217 20.667 35.9004 20.778 36.4578C21.1577 38.3625 21.7623 40.2154 22.5791 41.9775C22.6943 42.2377 22.8601 42.4723 23.0669 42.6677C23.2737 42.8631 23.5174 43.0154 23.7836 43.1156C24.0499 43.2159 24.3335 43.2621 24.6178 43.2516C24.9021 43.2411 25.1815 43.174 25.4397 43.0544C25.6978 42.9348 25.9296 42.7649 26.1214 42.5548C26.3132 42.3446 26.4612 42.0984 26.5568 41.8304C26.6525 41.5625 26.6938 41.2781 26.6784 40.994C26.6629 40.7099 26.5911 40.4317 26.467 40.1757Z"
    fill="#E76F51"/>
  <path
    d="M67.2055 36.1392C66.6619 35.9736 66.0748 36.0307 65.5733 36.2979C65.0718 36.5651 64.6969 37.0207 64.5312 37.5642C63.9139 39.5884 62.984 41.5037 61.7751 43.2407C61.5676 43.5386 61.4396 43.8845 61.4033 44.2457L50.1432 26.047C49.9512 25.7367 49.6831 25.4805 49.3644 25.3028C49.0456 25.1251 48.6867 25.0318 48.3218 25.0316H48.3082C47.9411 25.0342 47.5808 25.131 47.2619 25.3128C46.9429 25.4946 46.676 25.7553 46.4868 26.0698L33.1585 48.2286C32.0049 47.4063 30.9397 46.4666 29.9799 45.4247C29.7893 45.2176 29.5598 45.0501 29.3045 44.9317C29.0492 44.8133 28.773 44.7464 28.4918 44.7347C28.2107 44.7231 27.9299 44.7669 27.6657 44.8638C27.4015 44.9606 27.1589 45.1085 26.9518 45.2991C26.7447 45.4897 26.5772 45.7192 26.4589 45.9745C26.3405 46.2298 26.2736 46.506 26.2619 46.7871C26.2503 47.0683 26.2941 47.349 26.3909 47.6133C26.4878 47.8775 26.6357 48.1201 26.8263 48.3272C28.0619 49.6696 29.442 50.8713 30.9417 51.9104L30.8574 52.0501C30.676 52.3516 30.5717 52.6932 30.5536 53.0446C30.5355 53.396 30.6043 53.7465 30.7538 54.0651L38.0835 69.6881C37.873 69.8888 37.7058 70.1305 37.5921 70.3982C37.4783 70.6659 37.4205 70.954 37.4221 71.2449L37.5246 91.1143C37.5275 91.6807 37.7546 92.2229 38.1561 92.6224C38.5577 93.0219 39.101 93.2461 39.6674 93.2461H39.681L57.7883 93.1325C58.3562 93.1289 58.8994 92.8999 59.2986 92.4959C59.6978 92.092 59.9203 91.5461 59.9173 90.9782L59.8151 71.1088C59.8137 70.8272 59.7568 70.5486 59.6476 70.289C59.5385 70.0295 59.3793 69.7939 59.179 69.5959C59.1548 69.5716 59.128 69.5502 59.1022 69.5273L66.2227 53.8426C66.3681 53.5221 66.4324 53.1708 66.4098 52.8196C66.3873 52.4684 66.2786 52.1282 66.0934 51.829L62.7719 46.4614C63.2176 46.6359 63.7093 46.6543 64.1668 46.5137C64.6243 46.3731 65.0207 46.0818 65.2916 45.6872C66.7551 43.5838 67.8809 41.2646 68.628 38.8135C68.7938 38.2703 68.737 37.6834 68.4703 37.182C68.2036 36.6805 67.7486 36.3054 67.2055 36.1392ZM48.505 56.4737C47.7999 56.4746 47.123 56.1971 46.6214 55.7016C46.1199 55.2061 45.8341 54.5326 45.8264 53.8276C45.8221 53.1215 46.0985 52.4426 46.5948 51.9403C47.091 51.438 47.7664 51.1533 48.4725 51.149H48.4897C49.1907 51.1547 49.8612 51.4367 50.3557 51.9337C50.8502 52.4307 51.1287 53.1027 51.1308 53.8037C51.1329 54.5048 50.8585 55.1784 50.367 55.6784C49.8756 56.1784 49.2067 56.4644 48.5057 56.4744L48.505 56.4737ZM41.7993 88.9464L41.7189 73.3624L55.5426 73.2759L55.6226 88.86L41.7993 88.9464ZM54.6383 68.9956L42.5285 69.0716L35.1196 53.2794L46.2268 34.8149L46.3043 47.2168C44.737 47.7358 43.4057 48.7959 42.5491 50.2072C41.6924 51.6185 41.3663 53.2888 41.6292 54.9187C41.8921 56.5485 42.7269 58.0315 43.9839 59.1019C45.2409 60.1722 46.838 60.76 48.4889 60.7598H48.5329C50.1872 60.7474 51.783 60.1455 53.0333 59.0621C54.2837 57.9788 55.1067 56.485 55.3546 54.8493C55.6024 53.2136 55.2589 51.5431 54.3855 50.1379C53.5122 48.7328 52.1665 47.6852 50.59 47.1832L50.5125 34.7903L61.8498 53.1136L54.6383 68.9956Z"
    fill="#E76F51"/>
</svg>
