<svg viewBox="0 0 62 62" fill="none" xmlns="http://www.w3.org/2000/svg">
  <path
    d="M57.35 0H4.65C2.08632 0 0 2.08632 0 4.65V57.35C0 59.9137 2.08632 62 4.65 62H57.35C59.9137 62 62 59.9137 62 57.35V4.65C62 2.08632 59.9137 0 57.35 0ZM59.9333 57.35C59.9333 58.7749 58.7749 59.9333 57.35 59.9333H4.65C3.22606 59.9333 2.06671 58.7749 2.06671 57.35V4.65C2.06671 3.22497 3.22509 2.06671 4.65 2.06671H57.35C58.7739 2.06671 59.9333 3.22509 59.9333 4.65V57.35Z"
    fill="#2A9D8F"/>
  <path
    d="M9.30001 4.13329H5.16672C4.59636 4.13329 4.13342 4.59514 4.13342 5.16658V9.29999C4.13342 9.87143 4.59636 10.3333 5.16672 10.3333H9.30001C9.87036 10.3333 10.3333 9.87143 10.3333 9.29999V5.1667C10.3333 4.59526 9.87036 4.13329 9.30001 4.13329ZM8.26672 8.2667H6.20001V6.19999H8.26672V8.2667Z"
    fill="#2A9D8F"/>
  <path
    d="M17.5667 4.13329H13.4334C12.863 4.13329 12.4001 4.59514 12.4001 5.16658V9.29999C12.4001 9.87143 12.863 10.3333 13.4334 10.3333H17.5667C18.137 10.3333 18.6 9.87143 18.6 9.29999V5.1667C18.6 4.59526 18.137 4.13329 17.5667 4.13329ZM16.5333 8.2667H14.4666V6.19999H16.5333V8.2667Z"
    fill="#2A9D8F"/>
  <path
    d="M25.8332 4.13329H21.6999C21.1296 4.13329 20.6667 4.59514 20.6667 5.16658V9.29999C20.6667 9.87143 21.1296 10.3333 21.6999 10.3333H25.8332C26.4036 10.3333 26.8665 9.87143 26.8665 9.29999V5.1667C26.8667 4.59526 26.4037 4.13329 25.8332 4.13329ZM24.7999 8.2667H22.7332V6.19999H24.7999V8.2667Z"
    fill="#2A9D8F"/>
  <path
    d="M57.35 0H4.65C2.08632 0 0 2.08632 0 4.65V13.4333C0 14.0047 0.462941 14.4666 1.03329 14.4666H60.9666C61.5369 14.4666 61.9999 14.0047 61.9999 13.4333V4.65C62 2.08632 59.9137 0 57.35 0ZM59.9333 12.4H2.06671V4.65C2.06671 3.22497 3.22509 2.06671 4.65 2.06671H57.35C58.7739 2.06671 59.9333 3.22509 59.9333 4.65V12.4Z"
    fill="#2A9D8F"/>
  <path
    d="M28.9332 17.5667H6.19995C5.6296 17.5667 5.16666 18.0286 5.16666 18.6V35.1333C5.16666 35.7047 5.6296 36.1666 6.19995 36.1666H28.9332C29.5036 36.1666 29.9665 35.7047 29.9665 35.1333V18.6C29.9667 18.0286 29.5037 17.5667 28.9332 17.5667ZM27.8999 34.1H7.23324V19.6333H27.8999V34.1Z"
    fill="#2A9D8F"/>
  <path
    d="M55.8 17.5667H33.0667C32.4964 17.5667 32.0334 18.0286 32.0334 18.6V35.1333C32.0334 35.7047 32.4964 36.1666 33.0667 36.1666H55.8C56.3704 36.1666 56.8333 35.7047 56.8333 35.1333V18.6C56.8333 18.0286 56.3704 17.5667 55.8 17.5667ZM54.7667 34.1H34.1V19.6333H54.7667V34.1Z"
    fill="#2A9D8F"/>
  <path
    d="M28.9332 38.2333H6.19995C5.6296 38.2333 5.16666 38.6951 5.16666 39.2666V55.8C5.16666 56.3714 5.6296 56.8333 6.19995 56.8333H28.9332C29.5036 56.8333 29.9665 56.3714 29.9665 55.8V39.2667C29.9667 38.6953 29.5037 38.2333 28.9332 38.2333ZM27.8999 54.7667H7.23324V40.3H27.8999V54.7667Z"
    fill="#2A9D8F"/>
  <path
    d="M55.8 38.2333H33.0667C32.4964 38.2333 32.0334 38.6951 32.0334 39.2666V55.8C32.0334 56.3714 32.4964 56.8333 33.0667 56.8333H55.8C56.3704 56.8333 56.8333 56.3714 56.8333 55.8V39.2667C56.8333 38.6953 56.3704 38.2333 55.8 38.2333ZM54.7667 54.7667H34.1V40.3H54.7667V54.7667Z"
    fill="#2A9D8F"/>
  <path
    d="M21.7 25.8333H13.4333C12.8629 25.8333 12.4 26.2951 12.4 26.8666V31C12.4 31.5714 12.8629 32.0333 13.4333 32.0333H21.7C22.2703 32.0333 22.7333 31.5714 22.7333 31V26.8667C22.7333 26.2953 22.2703 25.8333 21.7 25.8333ZM20.6667 29.9667H14.4667V27.9H20.6667V29.9667Z"
    fill="#2A9D8F"/>
  <path
    d="M19.6333 21.7H15.5C14.9297 21.7 14.4667 22.1618 14.4667 22.7333V26.8666C14.4667 27.438 14.9297 27.8999 15.5 27.8999H19.6333C20.2037 27.8999 20.6666 27.438 20.6666 26.8666V22.7333C20.6667 22.1618 20.2038 21.7 19.6333 21.7ZM18.6 25.8333H16.5333V23.7666H18.6V25.8333Z"
    fill="#2A9D8F"/>
  <path
    d="M48.5667 25.8333H40.3C39.7296 25.8333 39.2667 26.2951 39.2667 26.8666V31C39.2667 31.5714 39.7296 32.0333 40.3 32.0333H48.5667C49.137 32.0333 49.6 31.5714 49.6 31V26.8667C49.6 26.2953 49.137 25.8333 48.5667 25.8333ZM47.5332 29.9667H41.3332V27.9H47.5332V29.9667Z"
    fill="#2A9D8F"/>
  <path
    d="M46.5 21.7H42.3667C41.7963 21.7 41.3334 22.1618 41.3334 22.7333V26.8666C41.3334 27.438 41.7963 27.8999 42.3667 27.8999H46.5C47.0703 27.8999 47.5333 27.438 47.5333 26.8666V22.7333C47.5333 22.1618 47.0703 21.7 46.5 21.7ZM45.4667 25.8333H43.4V23.7666H45.4667V25.8333Z"
    fill="#2A9D8F"/>
  <path
    d="M21.7 46.5H13.4333C12.8629 46.5 12.4 46.9619 12.4 47.5333V51.6666C12.4 52.238 12.8629 52.6999 13.4333 52.6999H21.7C22.2703 52.6999 22.7333 52.238 22.7333 51.6666V47.5333C22.7333 46.9619 22.2703 46.5 21.7 46.5ZM20.6667 50.6333H14.4667V48.5666H20.6667V50.6333Z"
    fill="#2A9D8F"/>
  <path
    d="M19.6333 42.3667H15.5C14.9297 42.3667 14.4667 42.8285 14.4667 43.4V47.5333C14.4667 48.1047 14.9297 48.5666 15.5 48.5666H19.6333C20.2037 48.5666 20.6666 48.1047 20.6666 47.5333V43.4C20.6667 42.8285 20.2038 42.3667 19.6333 42.3667ZM18.6 46.5H16.5333V44.4333H18.6V46.5Z"
    fill="#2A9D8F"/>
  <path
    d="M48.5667 46.5H40.3C39.7296 46.5 39.2667 46.9619 39.2667 47.5333V51.6666C39.2667 52.238 39.7296 52.6999 40.3 52.6999H48.5667C49.137 52.6999 49.6 52.238 49.6 51.6666V47.5333C49.6 46.9619 49.137 46.5 48.5667 46.5ZM47.5332 50.6333H41.3332V48.5666H47.5332V50.6333Z"
    fill="#2A9D8F"/>
  <path
    d="M46.5 42.3667H42.3667C41.7963 42.3667 41.3334 42.8285 41.3334 43.4V47.5333C41.3334 48.1047 41.7963 48.5666 42.3667 48.5666H46.5C47.0703 48.5666 47.5333 48.1047 47.5333 47.5333V43.4C47.5333 42.8285 47.0703 42.3667 46.5 42.3667ZM45.4667 46.5H43.4V44.4333H45.4667V46.5Z"
    fill="#2A9D8F"/>
</svg>
